<?xml version="1.0" standalone="no"?>
<!DOCTYPE svg PUBLIC "-//W3C//DTD SVG 20010904//EN"
 "http://www.w3.org/TR/2001/REC-SVG-20010904/DTD/svg10.dtd">
<svg version="1.0" xmlns="http://www.w3.org/2000/svg"
 width="4675.000000pt" height="4675.000000pt" viewBox="0 0 4675.000000 4675.000000"
 preserveAspectRatio="xMidYMid meet">
<metadata>
Created by potrace 1.16, written by Peter Selinger 2001-2019
</metadata>
<g transform="translate(0.000000,4675.000000) scale(0.100000,-0.100000)"
fill="#000000" stroke="none">
<path d="M16580 34019 c-969 -70 -1913 -496 -2668 -1206 -548 -515 -972 -1184
-1200 -1893 -231 -719 -259 -1499 -77 -2195 131 -500 352 -931 693 -1350 78
-96 4528 -4553 4688 -4696 480 -427 1052 -705 1696 -823 430 -79 916 -79 1372
-1 372 64 816 209 1138 371 l71 36 -605 605 -605 605 -129 -30 c-429 -103
-838 -91 -1225 35 -143 46 -375 162 -499 250 -80 56 -459 430 -2359 2327
-1245 1244 -2297 2302 -2339 2351 -220 262 -358 576 -418 955 -21 128 -24 474
-5 600 93 654 381 1209 872 1685 507 492 1159 781 1809 802 379 13 691 -54
1010 -214 275 -138 121 9 2641 -2512 2408 -2407 2356 -2353 2473 -2561 183
-326 265 -676 253 -1080 -7 -224 -35 -407 -92 -595 -5 -16 106 -131 599 -624
l604 -604 16 26 c29 44 152 326 200 459 123 342 196 653 238 1023 16 145 16
617 0 765 -80 710 -308 1287 -725 1830 -62 80 -634 659 -2411 2438 -1282 1284
-2371 2368 -2421 2410 -702 593 -1622 881 -2595 811z"/>
<path d="M26070 24534 c-542 -48 -1020 -175 -1477 -394 -68 -32 -123 -62 -123
-67 0 -4 270 -278 600 -608 l601 -601 107 27 c653 164 1289 53 1780 -310 63
-46 699 -676 2330 -2305 1234 -1233 2278 -2281 2320 -2331 535 -633 597 -1573
160 -2446 -262 -524 -702 -982 -1225 -1273 -290 -162 -640 -278 -966 -321
-136 -17 -437 -20 -554 -5 -369 49 -664 164 -943 368 -86 63 -4573 4540 -4672
4662 -235 288 -377 642 -419 1040 -16 152 -6 439 20 595 17 101 37 190 66 290
5 16 -110 135 -599 625 l-605 604 -69 -144 c-391 -817 -501 -1754 -305 -2600
122 -532 351 -1000 700 -1429 108 -133 4656 -4683 4796 -4799 219 -179 420
-308 682 -437 348 -171 681 -274 1065 -329 398 -57 885 -44 1295 34 1383 265
2602 1230 3209 2539 285 615 419 1287 385 1936 -40 774 -293 1457 -757 2045
-83 104 -4641 4674 -4797 4809 -511 441 -1124 707 -1860 808 -105 14 -639 26
-745 17z"/>
</g>
</svg>
