<?xml version="1.0" standalone="no"?>
<!DOCTYPE svg PUBLIC "-//W3C//DTD SVG 20010904//EN"
 "http://www.w3.org/TR/2001/REC-SVG-20010904/DTD/svg10.dtd">
<svg version="1.0" xmlns="http://www.w3.org/2000/svg"
 width="143.000000pt" height="181.000000pt" viewBox="0 0 143.000000 181.000000"
 preserveAspectRatio="xMidYMid meet">
<metadata>
Created by potrace 1.16, written by Peter Selinger 2001-2019
</metadata>
<g transform="translate(0.000000,181.000000) scale(0.100000,-0.100000)"
fill="#000000" stroke="none">
<path d="M580 1680 l-495 -5 -3 -505 c-1 -337 1 -523 9 -558 15 -76 80 -198
139 -264 28 -31 82 -78 121 -104 123 -82 231 -113 389 -114 194 0 340 59 476
195 61 60 90 99 118 155 64 132 67 159 64 712 l-3 493 -160 0 c-88 0 -383 -2
-655 -5z m768 -537 c-4 -481 -4 -500 -25 -563 -142 -422 -708 -545 -1028 -225
-39 39 -84 97 -102 131 -62 116 -63 129 -63 661 l0 483 218 3 c119 1 394 3
610 5 l393 2 -3 -497z"/>
<path d="M453 1550 c-32 -13 -47 -47 -35 -75 16 -34 49 -41 81 -18 35 26 39
66 9 87 -25 18 -25 18 -55 6z m42 -30 c11 -18 -6 -50 -25 -50 -25 0 -33 15
-20 40 11 21 35 27 45 10z"/>
<path d="M1065 1551 c-52 -22 -59 -75 -13 -101 21 -11 30 -12 39 -3 10 10 6
15 -14 22 -42 16 -31 53 18 63 22 4 24 22 3 25 -7 1 -22 -2 -33 -6z"/>
<path d="M227 1543 c-13 -21 -18 -91 -7 -98 7 -4 13 1 16 11 3 11 20 26 37 34
33 16 45 55 17 55 -8 0 -15 -6 -15 -14 0 -8 -6 -16 -13 -19 -8 -2 -12 2 -10
13 3 18 -16 32 -25 18z"/>
<path d="M327 1543 c-13 -21 -18 -91 -7 -98 7 -4 14 2 17 14 7 26 12 26 29 4
12 -17 13 -17 19 2 4 11 11 30 17 42 11 23 3 46 -15 40 -7 -2 -12 -10 -12 -17
0 -7 -6 -15 -13 -18 -8 -2 -12 2 -10 13 3 18 -16 32 -25 18z"/>
<path d="M547 1544 c-8 -8 4 -76 16 -91 12 -17 23 -9 53 39 18 27 22 44 16 50
-7 7 -17 0 -30 -21 l-20 -32 -10 30 c-11 32 -14 35 -25 25z"/>
<path d="M661 1536 c-14 -17 -19 -80 -6 -84 12 -4 36 86 25 93 -4 3 -13 -1
-19 -9z"/>
<path d="M707 1543 c-3 -5 -8 -27 -12 -49 -7 -44 3 -61 32 -50 12 5 13 9 3 21
-9 11 -9 23 -2 44 10 28 7 41 -9 41 -4 0 -10 -3 -12 -7z"/>
<path d="M769 1544 c-1 -5 0 -21 1 -36 1 -14 -4 -29 -10 -33 -5 -3 -8 -11 -4
-16 9 -16 44 21 44 46 0 21 -29 57 -31 39z"/>
<path d="M825 1538 c-3 -7 -6 -31 -8 -53 -2 -35 1 -40 22 -43 33 -5 53 17 23
24 -22 6 -29 19 -14 28 13 8 7 49 -6 54 -7 2 -14 -2 -17 -10z"/>
<path d="M915 1538 c-3 -7 -6 -27 -7 -45 -3 -36 15 -50 20 -15 5 31 16 28 29
-9 7 -18 18 -29 25 -27 14 5 30 66 22 88 -5 13 -8 12 -19 -3 -13 -18 -14 -18
-25 2 -12 23 -38 28 -45 9z"/>
<path d="M1135 1539 c-10 -26 -10 -84 0 -87 15 -4 29 78 16 91 -7 7 -12 6 -16
-4z"/>
<path d="M1186 1504 c-26 -46 -23 -82 4 -49 16 20 30 19 46 -2 12 -17 13 -17
20 1 10 27 -8 90 -27 94 -11 2 -26 -13 -43 -44z"/>
<path d="M337 1393 c-11 -10 -8 -655 3 -713 23 -120 100 -219 215 -276 63 -31
86 -37 163 -42 188 -10 334 73 410 235 l27 58 0 370 0 370 -406 3 c-223 1
-408 -1 -412 -5z m781 -86 c2 -27 -2 -55 -9 -63 -9 -11 -9 -17 0 -28 8 -9 11
-59 9 -152 -3 -138 -3 -139 -27 -142 -13 -2 -36 5 -51 17 -29 21 -48 17 -29
-6 9 -11 -2 -13 -65 -13 -69 0 -89 5 -136 32 -8 5 -23 11 -32 14 -29 10 -24
70 8 98 l26 22 -26 17 c-19 13 -26 26 -26 51 0 18 7 39 15 46 15 13 11 35 -6
25 -5 -4 -9 18 -9 50 0 42 -4 57 -16 62 -27 10 -39 -20 -37 -88 1 -35 -2 -69
-7 -75 -6 -6 -5 -23 3 -43 11 -30 10 -34 -12 -50 -22 -17 -23 -19 -6 -28 9 -6
19 -24 21 -40 3 -24 -3 -34 -26 -51 -16 -12 -38 -22 -49 -22 -11 0 -23 -4 -26
-10 -4 -6 -53 -10 -116 -10 l-109 0 0 69 c0 40 5 73 11 77 8 4 8 9 0 17 -7 7
-11 62 -11 144 l0 133 368 -2 367 -3 3 -48z m-682 -442 c11 -23 10 -24 -7 -14
-11 5 -24 7 -29 4 -14 -9 -12 9 2 23 17 17 21 15 34 -13z m204 10 c9 -11 10
-18 1 -28 -6 -8 -8 -17 -4 -20 3 -4 4 -7 0 -7 -5 0 -37 57 -37 67 0 9 29 1 40
-12z m220 -2 c0 -9 -3 -13 -7 -10 -3 4 -12 2 -20 -4 -16 -14 -17 3 -1 19 17
17 28 15 28 -5z m251 -62 c1 -42 0 -80 -1 -86 -1 -5 -2 -19 -3 -30 0 -11 -5
-25 -10 -32 -5 -7 -6 -17 -3 -22 4 -5 2 -12 -4 -16 -5 -3 -10 -15 -10 -25 0
-25 -97 -130 -121 -130 -11 0 -22 -7 -26 -16 -4 -12 -17 -15 -52 -12 -39 3
-46 0 -43 -14 4 -24 -13 -23 -37 3 -24 26 -52 19 -44 -10 4 -17 1 -21 -18 -21
-12 0 -19 3 -16 6 3 4 2 15 -4 25 -12 24 -55 25 -69 2 -10 -17 -10 -17 -20 0
-6 9 -22 17 -34 17 -31 0 -81 26 -81 42 0 7 -11 15 -25 18 -15 4 -25 13 -25
23 0 10 -6 22 -13 26 -8 5 -13 12 -13 17 1 5 -4 9 -11 9 -15 0 -47 90 -48 134
0 31 2 33 27 26 15 -3 32 -7 38 -8 5 -1 10 17 11 41 1 24 8 50 18 60 9 10 13
23 9 27 -5 5 0 3 10 -4 14 -11 20 -11 34 0 9 8 14 9 10 3 -3 -6 3 -18 14 -27
12 -11 19 -29 19 -52 0 -24 6 -37 20 -45 17 -9 22 -7 30 15 5 13 6 33 3 42 -6
16 -5 16 10 5 9 -8 15 -24 14 -35 -2 -21 2 -22 93 -24 133 -2 124 -1 111 -17
-9 -10 -8 -16 4 -26 18 -15 54 -5 38 11 -16 16 -5 111 15 127 23 17 56 15 74
-5 9 -10 18 -40 21 -67 5 -55 26 -82 54 -72 17 7 17 9 -4 25 -16 14 -19 21
-11 29 15 15 20 80 7 87 -5 4 -7 10 -4 15 3 5 1 11 -5 15 -21 13 -9 22 30 22
l40 0 1 -76z"/>
<path d="M876 1301 c-4 -5 -2 -12 3 -15 5 -4 12 -2 15 3 4 5 2 12 -3 15 -5 4
-12 2 -15 -3z"/>
<path d="M841 1276 c-7 -8 -8 -17 -3 -20 6 -3 15 1 21 8 7 8 8 17 3 20 -6 3
-15 -1 -21 -8z"/>
<path d="M1056 1272 c-3 -5 3 -17 13 -26 11 -10 22 -13 25 -8 3 5 -3 17 -13
26 -11 10 -22 13 -25 8z"/>
<path d="M796 1241 c-4 -5 -2 -12 3 -15 5 -4 12 -2 15 3 4 5 2 12 -3 15 -5 4
-12 2 -15 -3z"/>
<path d="M656 1192 c-3 -6 1 -15 8 -21 8 -7 17 -8 20 -3 3 6 -1 15 -8 21 -8 7
-17 8 -20 3z"/>
<path d="M466 1141 c-4 -5 -2 -12 3 -15 5 -4 12 -2 15 3 4 5 2 12 -3 15 -5 4
-12 2 -15 -3z"/>
<path d="M436 1121 c-4 -5 -2 -12 3 -15 5 -4 12 -2 15 3 4 5 2 12 -3 15 -5 4
-12 2 -15 -3z"/>
<path d="M406 1101 c-4 -5 -2 -12 3 -15 5 -4 12 -2 15 3 4 5 2 12 -3 15 -5 4
-12 2 -15 -3z"/>
<path d="M876 1051 c-4 -5 -2 -12 3 -15 5 -4 12 -2 15 3 4 5 2 12 -3 15 -5 4
-12 2 -15 -3z"/>
<path d="M916 1022 c-3 -5 3 -17 13 -26 11 -10 22 -13 25 -8 3 5 -3 17 -13 26
-11 10 -22 13 -25 8z"/>
<path d="M966 982 c-3 -6 1 -15 8 -21 8 -7 17 -8 20 -3 3 6 -1 15 -8 21 -8 7
-17 8 -20 3z"/>
<path d="M466 721 c-8 -12 21 -34 34 -26 8 5 8 11 -1 21 -13 16 -25 18 -33 5z"/>
<path d="M539 728 c-6 -20 -6 -39 1 -43 11 -7 33 22 25 35 -5 9 -24 14 -26 8z"/>
<path d="M766 721 c-9 -14 22 -34 40 -27 13 5 14 9 4 21 -14 17 -36 20 -44 6z"/>
<path d="M917 723 c-11 -11 14 -33 38 -33 29 0 38 10 24 27 -12 14 -51 18 -62
6z"/>
<path d="M616 701 c-4 -5 -2 -12 3 -15 5 -4 12 -2 15 3 4 5 2 12 -3 15 -5 4
-12 2 -15 -3z"/>
<path d="M415 681 c-7 -12 12 -24 25 -16 11 7 4 25 -10 25 -5 0 -11 -4 -15 -9z"/>
<path d="M456 632 c-3 -6 1 -15 8 -21 8 -7 17 -8 20 -3 3 6 -1 15 -8 21 -8 7
-17 8 -20 3z"/>
<path d="M605 630 c-10 -17 12 -37 25 -24 8 8 6 15 -4 23 -10 9 -16 9 -21 1z"/>
<path d="M826 632 c-9 -15 21 -49 34 -36 7 7 5 15 -9 28 -10 9 -22 13 -25 8z"/>
<path d="M536 621 c-4 -5 -2 -12 3 -15 5 -4 12 -2 15 3 4 5 2 12 -3 15 -5 4
-12 2 -15 -3z"/>
<path d="M886 621 c-9 -14 22 -34 40 -27 13 5 14 9 4 21 -14 17 -36 20 -44 6z"/>
<path d="M976 611 c-4 -5 -2 -12 3 -15 5 -4 12 -2 15 3 4 5 2 12 -3 15 -5 4
-12 2 -15 -3z"/>
<path d="M886 572 c-3 -6 1 -15 8 -21 8 -7 17 -8 20 -3 3 6 -1 15 -8 21 -8 7
-17 8 -20 3z"/>
<path d="M1011 566 c-7 -8 -8 -17 -3 -20 6 -3 15 1 21 8 7 8 8 17 3 20 -6 3
-15 -1 -21 -8z"/>
<path d="M567 554 c-9 -9 12 -46 23 -39 4 3 7 13 6 22 -3 18 -18 27 -29 17z"/>
<path d="M659 558 c0 -2 -2 -10 -4 -19 -1 -9 -6 -25 -9 -36 -4 -12 -1 -25 9
-33 8 -7 15 -11 16 -9 5 27 4 91 -3 95 -4 3 -8 4 -9 2z"/>
<path d="M769 558 c0 -1 -2 -14 -5 -27 -2 -14 -14 -31 -25 -39 -16 -11 -18
-17 -9 -26 8 -8 17 -4 35 16 13 16 26 24 29 20 7 -12 42 -8 59 7 18 15 15 46
-4 46 -8 0 -13 -8 -11 -17 1 -9 -2 -20 -9 -23 -12 -8 -34 10 -34 27 0 10 -24
25 -26 16z"/>
<path d="M945 521 c-7 -12 12 -24 25 -16 11 7 4 25 -10 25 -5 0 -11 -4 -15 -9z"/>
<path d="M866 501 c-3 -4 1 -17 9 -27 11 -15 16 -16 26 -7 10 10 9 15 -1 28
-14 17 -26 19 -34 6z"/>
<path d="M175 1060 c-3 -5 -4 -14 -1 -18 6 -11 106 1 109 13 3 14 -99 19 -108
5z"/>
<path d="M1299 1057 c-1 -4 -2 -13 -3 -19 -1 -9 -19 -13 -51 -13 -37 -1 -50
-4 -50 -15 0 -19 60 -25 98 -11 19 7 26 16 24 30 -3 21 -16 40 -18 28z"/>
<path d="M175 960 c-3 -5 0 -13 8 -16 23 -8 102 0 102 11 0 14 -102 19 -110 5z"/>
<path d="M1205 940 c-4 -6 -3 -16 3 -22 6 -6 12 -6 17 2 4 6 3 16 -3 22 -6 6
-12 6 -17 -2z"/>
<path d="M1265 940 c-8 -13 20 -24 41 -16 20 8 9 26 -16 26 -10 0 -22 -5 -25
-10z"/>
<path d="M225 920 c-3 -6 -11 -8 -16 -4 -13 7 -41 -15 -33 -27 3 -5 15 -4 27
3 12 7 27 13 34 14 19 3 36 -24 30 -46 -7 -28 10 -35 23 -10 9 17 8 27 -5 47
-9 13 -19 22 -22 19 -4 -3 -12 -1 -19 5 -8 7 -14 7 -19 -1z"/>
<path d="M1296 864 c-11 -7 -24 -10 -30 -6 -16 12 -55 12 -61 1 -10 -16 5 -31
19 -20 16 13 26 4 26 -22 0 -14 -5 -18 -20 -14 -22 6 -37 -8 -20 -18 19 -12
99 -15 106 -4 3 6 -3 13 -15 16 -28 7 -26 19 6 47 29 25 19 43 -11 20z"/>
<path d="M175 860 c-10 -17 12 -37 25 -24 8 8 6 15 -4 23 -10 9 -16 9 -21 1z"/>
<path d="M237 799 c-25 -15 -13 -27 25 -24 20 1 33 8 33 16 0 17 -34 22 -58 8z"/>
<path d="M176 792 c-7 -11 -1 -48 7 -44 4 1 7 5 8 10 0 4 5 12 10 18 9 11 2
24 -12 24 -4 0 -10 -4 -13 -8z"/>
<path d="M1260 747 c-48 -10 -73 -24 -65 -37 9 -15 97 -60 106 -54 5 3 1 17
-8 31 -16 24 -16 26 7 43 30 23 16 29 -40 17z m10 -37 c0 -5 -7 -10 -15 -10
-8 0 -15 5 -15 10 0 6 7 10 15 10 8 0 15 -4 15 -10z"/>
<path d="M240 703 c-24 -9 -50 -35 -44 -44 3 -5 15 -2 27 6 27 19 51 19 66 1
28 -34 -26 -67 -66 -41 -27 18 -39 4 -15 -17 22 -20 81 -16 97 6 16 22 10 67
-11 83 -19 14 -30 15 -54 6z"/>
<path d="M1186 661 c-4 -5 14 -19 40 -30 68 -30 49 -55 -31 -40 -38 7 -25 -16
16 -30 36 -12 43 -11 57 2 27 28 24 65 -6 81 -43 22 -70 28 -76 17z"/>
<path d="M1116 535 c-23 -35 -21 -41 31 -69 43 -25 47 -25 64 -10 21 19 15 41
-6 24 -11 -9 -21 -7 -45 6 -34 21 -36 26 -15 44 14 12 12 30 -4 30 -5 0 -16
-11 -25 -25z"/>
<path d="M1176 551 c-7 -11 39 -43 48 -34 7 7 -23 43 -35 43 -4 0 -10 -4 -13
-9z"/>
<path d="M246 532 c-6 -10 -3 -33 7 -48 8 -14 46 -10 78 7 21 11 19 7 -9 -25
-26 -30 -30 -40 -22 -56 24 -44 57 -43 107 3 35 31 16 40 -23 11 -61 -47 -89
-9 -28 39 34 27 34 30 18 48 -16 18 -17 18 -56 -2 -40 -20 -61 -18 -52 5 6 15
-12 31 -20 18z"/>
<path d="M1037 430 c-41 -32 -25 -88 29 -104 26 -8 74 28 74 55 0 23 -42 69
-63 69 -8 0 -26 -9 -40 -20z m63 -25 c17 -21 8 -50 -17 -53 -27 -4 -58 35 -41
55 14 17 43 17 58 -2z"/>
<path d="M413 384 c-24 -14 -43 -27 -43 -30 0 -3 13 -10 29 -15 17 -6 31 -19
33 -30 5 -34 21 -22 36 27 13 45 11 74 -5 74 -4 0 -27 -12 -50 -26z m37 -19
c0 -8 -7 -15 -16 -15 -14 0 -14 3 -4 15 7 8 14 15 16 15 2 0 4 -7 4 -15z"/>
<path d="M492 340 c-21 -48 -18 -75 5 -44 8 10 19 19 26 19 18 0 19 28 3 50
-14 19 -15 18 -34 -25z"/>
<path d="M935 360 c-3 -6 -17 -8 -30 -6 -13 2 -26 1 -30 -2 -3 -4 -14 -7 -23
-7 -17 0 -20 -31 -5 -65 3 -8 7 -22 7 -30 1 -16 43 -23 52 -8 3 4 9 6 14 3 4
-3 14 2 21 11 10 12 10 20 1 35 -14 22 -15 39 -3 39 5 0 14 -14 21 -30 7 -17
16 -33 21 -36 13 -7 71 25 64 36 -4 7 -13 6 -25 0 -27 -14 -28 -14 -50 30 -22
43 -25 46 -35 30z m-26 -29 c2 -1 -2 -7 -8 -15 -10 -11 -8 -16 5 -24 22 -12
12 -41 -13 -38 -10 2 -18 11 -18 22 0 10 -4 25 -8 32 -5 6 -6 16 -3 21 5 8 14
8 45 2z"/>
<path d="M565 320 c-9 -17 -20 -28 -25 -25 -15 9 -21 -14 -9 -36 9 -18 13 -19
24 -8 20 21 45 88 35 94 -5 3 -16 -8 -25 -25z"/>
<path d="M640 320 c-13 -24 -13 -77 -1 -85 6 -3 15 4 21 15 7 14 17 19 27 16
31 -12 61 42 33 59 -26 16 -70 14 -80 -5z m56 -11 c10 -17 -13 -36 -27 -22
-12 12 -4 33 11 33 5 0 12 -5 16 -11z"/>
<path d="M750 314 c-6 -15 -8 -29 -5 -32 2 -3 0 -11 -6 -18 -17 -20 -2 -36 22
-23 14 7 17 14 10 23 -5 6 -6 18 -2 25 6 9 11 10 15 2 4 -6 5 -15 2 -20 -3 -4
5 -18 18 -30 35 -33 38 -12 8 44 -32 58 -48 66 -62 29z"/>
</g>
</svg>
