<svg xmlns="http://www.w3.org/2000/svg" viewBox="0 0 260 272"><path fill="#000002" d="M69.2 12c-3.2 1.5-4.7 3-6.2 6.2-1.1 2.4-2 5.3-2 6.5 0 2.3-.1 2.3-16.8 2.3-15.4 0-17.1.2-21.2 2.2-2.4 1.3-5.8 4-7.4 6.1l-3.1 3.9v69.3H15c2.4 0 2.5-.2 2.8-8.3l.3-8.2H227v28.5c0 15.7-.3 28.5-.6 28.5s-2.5-1.4-5-3.1c-18-12.4-43.2-14.5-63.3-5.4-6.2 2.9-7.1 3-7.1 1.1 0-.7-.9-2.5-2.1-4-1.9-2.4-2.6-2.6-9.5-2.6-10.1 0-11.4 1.3-11.4 11.4 0 7.1.1 7.6 3.1 9.9l3.1 2.4-3.7 5.2c-4.9 6.8-9.1 17.8-10.4 27.4-.6 4.3-1.1 8.3-1.1 8.8s-18.1.9-45.2.9c-43.1 0-45.5-.1-48.5-2-6.9-4.2-6.8-3.5-7.1-43.6-.2-30.2-.5-36.4-1.7-37.4s-1.8-1-3 0c-1.4 1.1-1.5 7-1.3 47.4l.3 46.1 2.3 3.3c1.3 1.7 4 4.4 5.9 6 3.3 2.5 4.4 2.7 12.6 2.7 7.6 0 9.1-.3 10.1-1.8 1.8-2.9-1.7-4.7-9.1-4.7-9.5 0-13.1-2.4-15.3-10.1-1-3.4-.5-3.5 4.1-1.1 3.1 1.5 7.9 1.7 50.2 2 38.2.2 46.7.5 46.7 1.6 0 .7.3 2.8.6 4.5l.7 3.1H88.7c-30.3 0-32.6.1-34.8 1.9-2 1.6-2.1 2.1-1 3.5 1.2 1.4 5.3 1.6 36 1.6h34.6l3.5 6.8c4.9 9.7 18.1 22.5 28 27.5 10.3 5.1 18.6 7 30 7 28.3-.1 51.6-16.8 61.8-44.1 1.8-4.9 2.6-9.4 3-16.9.8-16.4-2.4-28.2-10.6-40.1l-4.7-6.7-.5-58-.5-58-2.4-4.2c-1.4-2.4-4.2-5.5-6.4-7-4-2.8-4.2-2.8-22.4-3.1l-18.3-.3v-3c0-5.8-4.2-11.2-10.1-12.9-7.5-2.2-15.8 3.3-16.8 11.2l-.6 4.3-33.7.3L89 27v-2.6c0-3.7-2.8-9.1-5.9-11.3-4.2-3-9-3.4-13.9-1.1m10.2 7.1c2.6 2 2.6 2.2 2.6 15 0 12.5-.1 13.1-2.5 15.4-1.3 1.4-3.4 2.5-4.5 2.5s-3.2-1.1-4.5-2.5c-2.4-2.3-2.5-3-2.5-15s.1-12.7 2.5-15c3-3 5.4-3.1 8.9-.4m93.9-1c1.2.7 2.5 1.7 2.9 2.3s.8 7 .8 14.3c0 13.1 0 13.2-2.7 15.3-1.9 1.5-3.5 1.9-5.3 1.5-5.1-1.3-5.5-2.5-5.5-17.1 0-13.1.1-13.6 2.4-15.5 2.7-2.2 4.4-2.4 7.4-.8M61 38.5c0 4-.2 4.5-2.3 4.5-3.2 0-6 2.3-5.6 4.6.3 1.5 1.4 2 4.6 2.2 3.3.2 4.7.9 6.3 3.2 1.1 1.6 4 3.6 6.4 4.5 5.7 2.2 11.3.8 15.2-3.8 2-2.4 3.7-3.3 6.8-3.7 3-.4 4.2-1 4.4-2.4.5-2.3-2.3-4.6-5.5-4.6-2.1 0-2.3-.5-2.3-4.5V34h67v4.5c0 4.1-.2 4.5-2.3 4.5-1.3 0-3.2.9-4.2 2-2.4 2.6-.5 5 3.9 5 2.3 0 4.1.9 6.6 3.5 6.6 6.8 15.3 6.8 20.7 0 2.3-2.9 3.5-3.5 6.6-3.5 6.4 0 6.3-6.2-.2-6.8-3-.3-3.1-.5-3.1-4.8V34h16.9c15.8 0 17 .1 20.2 2.3 4.6 3.1 5.8 7.2 5.8 20.4L227 68H19V55.5c0-20.4 1.2-21.4 25.8-21.5H61zM226.5 80v4.5l-103.7.3L19 85V75l103.8.2 103.7.3zm-25 64.1c18.9 5.5 33.7 20.3 39.5 39.7 2.9 9.6 2.5 26.5-.8 35.6-8.1 22.3-27.4 37-51.1 39.2-7.9.8-20.5-1.5-28.4-5-16.2-7.2-29.5-23.7-33.2-41.1-1.8-8.8-1.9-15.2 0-23.8 7.2-34.2 40.4-54.2 74-44.6m-57.5 1.2c0 4.2-1.5 5.7-5.7 5.7-3.2 0-3.3-.1-3.3-4.5V142h4.5c4.4 0 4.5.1 4.5 3.3" class="icon-part"/><path fill="#000002" d="M175 152.1c-7.4 1.4-18.3 7.4-24.4 13.4-10.1 10-15.3 23.6-14.3 37.9.6 10.1 3.5 17.9 9.5 25.9 26.3 34.7 80 21.1 87.4-22.1 1.5-9.1.1-18.8-4.2-28-3.6-7.8-14.2-18.7-21.7-22.6-9.8-4.9-21.6-6.6-32.3-4.5m22.2 7.9c36.3 11.2 40.2 60.9 6 77.7-7.4 3.7-7.9 3.8-18.1 3.8-13.4-.1-19.6-2.3-28.1-10.1-10.4-9.7-14.5-19.8-13.8-33.9 1.4-27.1 28-45.6 54-37.5" class="icon-part"/><path fill="#000002" d="M182.1 169.9c-.6 1.1-1.1 5.7-1.1 10.3 0 8.2-.1 8.5-3 10.6-4.2 3.2-5.9 9.2-3.7 13.7.9 2 3.1 4.4 4.9 5.5 5.6 3.4 10.1 2.4 14.9-3.2 2.2-2.6 3.4-3.1 7.8-3.3 6-.3 8.1-1.7 6.5-4.3-.8-1.2-2.7-1.8-6.6-2-4.7-.2-5.7-.7-6.9-2.8-.7-1.4-2.6-3.2-4.1-4-2.7-1.4-2.7-1.6-3-11.7-.3-9.6-.4-10.2-2.5-10.5-1.4-.2-2.6.4-3.2 1.7M188 197c2.5 2.5 2.5 3.2.2 6-2.5 3.1-6.9 2.1-7.8-1.7-.5-2-.2-3.1 1.6-4.5 2.8-2.3 3.5-2.3 6 .2M33.1 102.1c-3.4 1.3-5.1 5-5.1 11 0 3.2.3 6.5.6 7.4 1 2.6 5.9 4.5 11.8 4.5 4.4 0 6.1-.5 8.3-2.4 2.6-2.2 2.8-3 2.8-9.5 0-9.3-1.7-11.2-10.3-11.5-3.4-.1-7 .2-8.1.5m11.3 8.4c.2.7.3 2.1.1 3.1-.2 1.1-.4 2.5-.4 3.1-.1.9-1.7 1.3-4.6 1.3H35v-4.3c0-2.4.2-4.6.4-4.8 1-1 8.5.4 9 1.6m21.6-8.2c-3.4 1.7-5 5.3-5 11.5 0 4.6.4 5.8 2.9 8.3 2.7 2.6 3.6 2.9 9.4 2.9 6.1 0 6.7-.2 9.1-3.1 2.2-2.5 2.6-4.1 2.6-8.9 0-8.4-2.4-11-10.5-11.6-3.7-.2-6.9.1-8.5.9m11.8 11.1-.3 4.1H73c-4.4 0-4.5-.1-4.8-3.3-.5-5.2 0-5.8 5.2-5.4l4.7.4zM99.5 102c-3.9 1.5-5 3.9-5 11.2 0 6.4.2 7.2 2.8 9.4 2.3 2 3.9 2.4 9.3 2.4 5.6 0 6.8-.4 8.9-2.5s2.5-3.3 2.5-8.9c0-8.9-2.1-11.4-10.5-12-3.3-.2-6.9 0-8 .4m11.3 11.4-.3 4.1H106c-4 0-4.5-.3-4.8-2.4-.2-1.2-.1-3.3.2-4.5.5-1.9 1.1-2.1 5.1-1.8l4.6.4zm21.4-11c-3.4 1.7-4.2 4-4.2 11.2 0 6.6.2 7.4 2.6 9.3 2.1 1.6 4.1 2.1 9.1 2.1 5.5 0 6.7-.4 8.8-2.5 2.2-2.1 2.5-3.3 2.5-9.3 0-9-1.8-10.9-10.8-11.4-3.5-.1-7.1.1-8 .6m11.8 11.2v4.4h-9v-9.5l4.5.3 4.5.4zm26.7-11.6c-8.7.6-9.7 1.8-9.7 11.6 0 6.6.2 7.4 2.6 9.3 2.1 1.6 4.1 2.1 9.1 2.1 5.5 0 6.7-.4 8.8-2.5s2.5-3.3 2.5-8.9c0-3.5-.3-7.2-.6-8.1-1.1-2.9-5.5-4.1-12.7-3.5m6.3 11.5v4.5h-9v-9h9zm19-9.5c-1.6 1.6-2 3.3-2 9 0 6.2.3 7.4 2.5 9.5 2.1 2.1 3.3 2.5 8.8 2.5 5 0 7-.5 9.1-2.1 2.4-1.9 2.6-2.6 2.6-9.5 0-10.1-1.3-11.4-11.5-11.4-6.2 0-7.9.4-9.5 2m14 9.5v4.5h-9v-9h9zM30 137.7c-1.9 2.4-2.1 3.8-1.8 9.7.5 9 2.3 10.6 11.5 10.6 5.9 0 6.7-.3 9.5-3 2.9-2.9 3-3.4 2.6-9.5-.6-9.2-2-10.5-11.9-10.5-7.3 0-7.9.2-9.9 2.7m14.1 5.3c.1.5.2 1.7.2 2.5 0 5.4-.1 5.5-4.8 5.5H35v-9h4.5c2.5 0 4.6.4 4.6 1m19.4-5.5c-2.1 2-2.5 3.4-2.5 8 0 5.9 1.9 10.9 4.5 11.9.9.3 4.5.6 8 .6 9 0 10.8-1.7 11.3-10.6.3-5.9.1-7.3-1.8-9.7-2-2.5-2.7-2.7-9.6-2.7-6.6 0-7.8.3-9.9 2.5m14 9v4l-4.7.3-4.8.3v-9.2l4.8.3 4.7.3zm19.4-9.6c-2.1 1.7-2.4 2.8-2.4 9.1 0 6.6.2 7.4 2.8 9.6 2.3 2 3.9 2.4 9.3 2.4 5.6 0 6.8-.4 8.9-2.5s2.5-3.3 2.5-8.8c0-5-.5-7-2.1-9.1-1.9-2.4-2.6-2.6-9.4-2.6-5.7 0-7.8.4-9.6 1.9m13.9 9.3c-.3 4.3-.3 4.3-4.5 4.6-4.4.3-4.9-.2-5.2-6.1-.1-2.6.1-2.7 5-2.7h5zm-80.7 24.4c-1.6 2.1-2.1 4.1-2.1 9.1 0 5.5.4 6.7 2.5 8.8 2.1 2.2 3.3 2.5 9.3 2.5 10.2 0 11.7-1.5 11.7-11.5 0-10.1-1.5-11.5-12-11.5-6.8 0-7.5.2-9.4 2.6m14.3 7c1.2 4.8-.1 6.4-5 6.4H35v-9h4.4c3.9 0 4.5.3 5 2.6m19.6-7.8c-1.6 1.3-2.4 3.2-2.8 7-1 10.9 1.7 14.2 11.7 14.2 9.7 0 11.4-1.5 11.9-10.6.3-5.9.1-7.3-1.8-9.7-2-2.5-2.7-2.7-9.5-2.7-5.5 0-7.8.4-9.5 1.8m13.5 9.7v4l-4.7.3-4.8.3v-9.2l4.8.3 4.7.3zm20.2-10.3c-4.9 3.8-4.7 18.1.3 20.8 1 .6 4.8 1 8.5 1 5.7 0 6.9-.3 9-2.5 2.1-2.1 2.5-3.3 2.5-8.8 0-5-.5-7-2.1-9.1-1.9-2.4-2.7-2.6-9.3-2.6-4.2 0-7.9.5-8.9 1.2m13.3 10.4v4.5l-4.7-.3-4.8-.3v-4.3l-.1-4.2h9.6z" class="icon-part"/><path fill="#bf5a81" d="M26.3 35.5c-1.8.7-4.2 2.9-5.3 4.7-1.8 2.9-2 4.7-1.8 15.3l.3 12h206V40.8l-3.4-2.9c-4.2-3.5-8.1-4.1-24.1-3.7l-12.5.3v4c0 3.5.3 4 2.5 4.3 7.3 1.1 6 8.2-1.5 8.2-2.3 0-3.7.7-4.8 2.4-.9 1.2-3.1 3-5 4-6.4 3-12.5 1.7-17.6-3.8-1.6-1.7-3.5-2.6-5.6-2.6-3.7 0-5.5-1.5-5.5-4.7 0-1.7.7-2.4 2.8-2.9 5.2-1.1 5.3-1.2 5-5.1l-.3-3.8h-66v4c0 3.8.2 4 3.2 4.3 6.9.7 5.7 8.2-1.2 8.2-2.5 0-3.9.6-4.7 2.1-1.7 2.8-8 5.9-11.8 5.9s-7.7-1.9-10.9-5.4c-1.6-1.7-3.5-2.6-5.6-2.6-3.7 0-5.5-1.5-5.5-4.7 0-1.7.7-2.4 2.8-2.9 5.2-1.1 5.3-1.2 5-5.1l-.3-3.8-15.5-.2c-11.6-.2-16.3.1-18.7 1.2m-6.9 41.9c-.3.8-.4 2.5-.2 3.8l.3 2.3h206v-7l-102.8-.3c-88.4-.2-102.8 0-103.3 1.2" class="icon-part"/></svg>