<svg xmlns="http://www.w3.org/2000/svg" viewBox="0 0 1024 1024"><path fill="#f3a44b" d="M752.5 212.7c-1.1.3-24.5 5.6-52 11.9S611.6 245 564 256c-47.6 10.9-112.1 25.7-143.5 32.9-31.3 7.1-77.9 17.8-103.5 23.6-25.6 5.9-64.3 14.7-86 19.6-57.2 12.9-60.1 13.6-61.1 14.6-.4.4 4.6 24.1 11.5 53.8 6.8 29.2 17.4 74.8 23.5 101.5s14.5 63.3 18.6 81.5c4.2 18.1 15.2 66.1 24.5 106.5s21.4 93.1 26.9 117c18.3 79.5 17.3 76.1 23.8 82.6 8.6 8.6 16.2 9.3 40.9 3.5 35.5-8.3 129-29.9 177.9-41l50.9-11.6.7-3.3c.6-3.1.1-3.8-11.5-15.5-15.3-15.4-23.4-26.2-31.3-41.9-13.1-26.1-18.3-48.2-18.3-77.8 0-71 48.9-135.9 116.6-154.9 18.5-5.2 30.4-6.5 52.4-5.8 25.6.8 41.3 4.8 65.5 16.8 39.7 19.6 70.3 55.6 83 97.3 3.4 11.4 6.2 26 6.7 35.6.3 5.3-.4 5.2 15.3 1.4 13.5-3.2 19-5 18.8-6-.3-1.7-11.5-52-13.3-59.9-1.1-4.4-4.1-17.9-6.9-30C836 552.3 824.8 503.1 821 487c-6-25.3-25-108.4-33.9-148-4.4-19.5-10.3-45.4-13.1-57.5s-7.4-32.1-10.1-44.5c-2.8-12.4-5.5-23.1-6.1-23.7-1.1-1.3-1.9-1.4-5.3-.6M626.7 312c1.7 7.4 3.5 15.2 3.8 17.2.8 4.4 5.3 2.9-38.5 12.8-17.3 4-32.6 7.6-33.9 8.1-2.2.9-2.3 1.4-1.8 6.2.3 2.9 1.1 10.6 1.8 17.2.6 6.6 1.6 12.5 2.1 13.2.7.8 2.8.2 8.1-2.2 11.8-5.4 19.6-7 33.7-7 15.1 0 23.3 2.3 34.4 9.5 11.1 7.3 17.9 16.5 23.2 31.5 2.7 7.5 2.9 9 2.8 23.5 0 13.7-.3 16.2-2.3 22-5.7 15.7-17.6 28.4-34.6 37.1-15.7 8.1-22 9.4-44 9.4-17.1-.1-18.4-.2-26-2.9-7.8-2.7-21.9-9.8-23-11.6-.3-.5 3-8.1 7.5-16.9l8-16 4.7 2.9c11.1 6.9 27.9 10.3 39.8 8.1 8.6-1.6 17.7-6.3 22.4-11.7 6.6-7.6 7.8-20.2 3-31.5-2.3-5.3-9.2-12.3-14.3-14.4-12.1-5.1-32.9-1.1-47 9.1-4.2 3-8 5.4-8.4 5.4s-5.7-1.6-11.8-3.7l-11.2-3.7-.6-5.6c-.3-3-1.2-11.8-2.1-19.5-3.3-31.1-7.5-75.8-7.1-76.2.2-.3 15.2-3.8 33.3-7.9 18-4.1 41.4-9.4 51.8-11.8 10.5-2.5 19.9-4.4 20.9-4.3 1.7.2 2.5 2.3 5.3 13.7m-192.6 36.8c12.2 4.3 20.6 10.4 26.7 19 11 15.7 13.8 35.2 8.1 56.5-3.5 13-18.2 39.6-39.4 71.7-3.5 5.2-6 9.9-5.6 10.3.5.5 6-.5 12.2-2.1 6.3-1.6 13.2-3.3 15.4-3.6 2.2-.4 10.5-2.2 18.5-4.1 24.2-5.6 33.3-7.5 33.7-7.1.5.5 6.8 26.3 7.8 31.7.4 2 .3 3.9-.2 4.2-.5.4-12.2 3.1-25.9 6.2s-28.5 6.5-32.9 7.5c-43.7 10.5-80.6 18.3-81.5 17.3-.4-.4-2-7.1-3.5-14.8l-2.8-14 16-24c42.1-63.2 49.4-77.7 48-94.8-1.4-16.7-12.9-26.4-28.8-24.2-12.1 1.7-27.5 13-35.1 25.6-2.2 3.8-4.4 6.9-4.9 6.9-2 0-27.9-18.5-27.9-19.9 0-2.6 5.5-12.6 10.4-19 11.8-15.3 28.7-25.6 49.6-30.2 11.6-2.6 33.8-2.1 42.1.9M859 704.1c-4 6.8-10.7 18-15 24.9-4.2 6.9-11.5 19-16.3 27-4.7 8-10.1 17-12.1 20-1.9 3-3.1 5.8-2.7 6.3.9.9 47-9.7 51.4-11.9 4.6-2.3 9.5-7.3 11.9-11.9 3.9-7.5 3.5-14.3-2.5-40.8-3-13.1-5.9-24.3-6.5-24.9-.7-.7-3.2 2.7-8.2 11.3" class="icon-part"/><path fill="#f3a44b" d="M570.9 834.1c-1 4.9.3 7.1 2.7 4.7 1.3-1.2 1.2-1.7-.6-3.3-1.1-1-2-1.6-2.1-1.4" class="icon-part"/><path fill="#c9e4f5" d="M634.4 153.3c-.3.8.2 4.7 1.1 8.8 2.7 13.1 1.7 20.4-3.7 26.9-7.2 8.6-22.5 9.8-30.7 2.4-4.5-4-6.4-8.2-9.1-19.3-1-4.6-2.4-8.9-2.9-9.4-1.9-1.9-4.5 5.5-4.9 14.5-.4 7.6-.1 9.2 2.1 14.1 3.2 7.1 8.3 12.6 14.9 16.3 4.8 2.6 6.2 2.9 14.3 2.9 7.9 0 9.6-.4 14.3-2.8 6.9-3.6 13.8-10.5 16.5-16.5 3-6.6 2.9-18.8-.1-25.5-2.2-5.1-6.1-10.3-9.3-12.5-1.6-1.1-2-1.1-2.5.1m-330.8 74.5c-.3.6.3 4.9 1.4 9.7 3.7 15.7 2 24.2-6 30.6-6.9 5.6-18.2 6.3-25.1 1.6-6.3-4.3-8.7-8.5-11.6-20.5-1.6-6.2-3.2-11.4-3.8-11.5-2-.4-4.8 9.7-4.9 17.3 0 9.2 3 16.6 9.4 23 9.7 9.7 24.5 12.4 36.2 6.7 6.6-3.2 14.1-10.9 17.1-17.5 1.6-3.5 2.1-6.7 2.1-12.7 0-7.2-.3-8.6-3.2-14.1-3.6-6.6-10.6-14.2-11.6-12.6m353.9 339.8c-15.7 1.7-38.8 7.8-41.1 10.9-.6.8-2.5 1.7-4.2 2-6.5 1.1-22.7 12.2-34.6 23.5-22.3 21.3-36.4 48-41.7 79-1.8 10.2-1.5 33.4.5 44.7 1.7 9.7 7.1 27.9 8.9 30.1.6.8 1.2 2.3 1.4 3.4 1 6.3 13.7 25.1 24.7 36.6 9.6 10 29.1 24.8 33.8 25.6.7.1 2.9 1.2 4.8 2.4 10.5 6.6 34 12.9 52 13.8 11.7.7 28.2-.7 30.4-2.5.7-.6 2.1-.8 3.2-.5 4.3 1.1 31.8-8.7 35.7-12.7 1-1.1 2.1-1.9 2.5-2 4.4-.4 11.6-4.9 22.1-13.7 14.7-12.4 27.1-28.2 35.7-45.8l4.5-9.1-2.2-8.9c-3.7-15.8-1.5-26.6 7.5-36.1l4.4-4.8-.4-8.5c-3.3-61.2-50-113.8-111.4-125.4-8.6-1.7-29.2-2.8-36.5-2m-9.7 13.2c2.5 2.5 5.5 17.2 4.2 20.6-1.1 3-5.3 5-8.7 4.1-3.2-.8-4.8-3.8-6.7-12.7-1.7-7.8-1.3-11 1.8-13 2.1-1.4 7.6-.8 9.4 1m8.6 37.5c1.7 1.7 3.2 6.5 6.4 19.7 2.3 9.6 5.4 22.7 6.9 29l2.8 11.5 5 1.8c2.8 1 6.8 3.6 9.1 5.8l4 4 19.9-4.6c10.9-2.6 20.9-4.4 22.2-4.1 5.8 1.5 8.3 9.1 4.3 13.4-2.2 2.3-3 2.6-24 7.2-18.7 4.1-18.6 4.1-20.1 9-1.7 5.6-7.4 11.8-13.3 14.6-16.9 7.9-36-5.7-34.3-24.4.6-6.9 2.4-10.9 7.2-15.6l3.5-3.5-6.5-29.2c-5.7-25.2-6.4-29.7-5.4-32.1 2.1-5.2 8.3-6.5 12.3-2.5M791 670c2.8 2.8 2.6 8.1-.2 10.7-3.3 2.9-17.6 5.8-21 4.2-2.5-1.1-4.8-4.6-4.8-7.4 0-3.1 4.5-6.5 10.5-7.9 8.8-2.1 13.1-2 15.5.4m-220.5 51.5c3 2.9 3.2 6.4.5 9.7-1.4 1.9-3.8 2.9-10 4.2-4.5 1-9.2 1.5-10.5 1.2-5.7-1.4-7-9.9-2.1-13.1 2.2-1.5 13.1-4.2 17.4-4.4 1.3-.1 3.4 1 4.7 2.4m126.9 81.3c2.1 2.4 5.9 16.9 5.1 19.9-.7 3-4.7 5.5-8.1 5.1-3.9-.4-6.1-4.2-8.1-13.5l-1.7-8.2 2.4-2.6c2.8-3 7.9-3.4 10.4-.7" class="icon-part"/><path fill="#2782c7" d="M700.5 113.1c-4.4 1-21.9 5-38.9 8.8-16.9 3.8-31.3 7.4-31.8 7.9-.6.6-.3 4.2.8 9.8 1.7 8.6 2 9.1 7.2 14.4 7.7 7.8 10.6 14.4 10.6 24.5 0 6.1-.5 9.1-2.1 12.7-2.9 6.4-10.1 13.3-17.6 16.9-27.1 12.8-55.3-17.4-41.5-44.5 2-3.8 2-4.1.2-12.5-.9-4.7-2.2-9.2-2.9-9.9-1-1.2-75.6 15.6-235 52.8-11.5 2.7-27.3 6.3-35 8-7.7 1.8-14.5 3.7-15.2 4.4-.9.8-.6 3.2 1 10.1 2 8.3 2.6 9.4 6.8 13.3 2.5 2.3 6.1 7 8 10.4 3 5.6 3.3 7.2 3.4 14.3 0 9.7-2.2 15.1-9.1 22.5-6.8 7.3-13.9 10.4-23.4 10.5-13 0-23.4-6.5-29.2-18.3-2.9-5.9-3.3-7.5-3.2-14.7 0-6.4.6-9.1 2.7-13.8l2.7-5.8-2.1-8.7c-1.1-4.8-2.3-9-2.7-9.4-.4-.3-9.2 1.3-19.7 3.7-10.4 2.4-29.1 6.7-41.5 9.4-29.4 6.6-34.4 9.2-40.1 20.2-3.9 7.8-3.7 9.6 6.1 52.9 5 22.3 9.5 40.9 10 41.4s6.9-.5 15.2-2.3c29.3-6.6 81.2-18.4 145.3-33.1 36.3-8.3 80-18.2 97-22.1 74-16.9 99.4-22.8 156.5-35.9 33.3-7.7 85.8-19.7 116.8-26.8s56.7-13.3 57.2-13.8c1.4-1.4-17.5-79.8-20.5-85-5-8.6-15.2-14.5-24.4-14.3-2 0-7.2.9-11.6 2" class="icon-part"/><path fill="#000627" d="M591.9 94.3c-2.4 1.3-5.7 4.2-7.3 6.5-4.2 6-4.5 12.6-1.1 28.3 6.5 30.4 11.9 52.7 13.6 56.1 3.7 7.3 12.1 11.2 21.1 9.8 6.1-.9 10.7-3.7 14.2-8.8 4.5-6.3 4.5-12.1.2-33.3-4.8-23.7-10.3-46.4-12-49.7-5.3-10.1-18.6-14.2-28.7-8.9m-325.4 74.6c-8.1 2.1-14.8 8.7-16.1 16-1.3 6.5 12.8 69.2 17.2 76.9 8.3 14.2 29.6 12.9 36.5-2.3 2.5-5.4 2.4-10-.6-24.1-2.9-14-10.1-46.3-11.6-51.7-2.6-9.8-15.5-17.4-25.4-14.8m353 130.7c-.9.3-74.4 16.9-93.5 21.1-4.1.9-8 2.1-8.6 2.7-.8.8.2 14.2 3.7 49.1 2.7 26.4 5.1 48.5 5.3 49.1s5.2 2.7 11 4.8l10.5 3.7 5.6-4.1c11.9-8.8 26.8-13.6 40.1-12.8 8.5.6 15 3.5 20.1 9.1 5.9 6.6 7.7 11.8 7.8 22.7 0 8.6-.3 9.9-2.7 14.2-6.3 10.5-19.1 16.8-34.8 16.8-11.1 0-19.6-2.6-35.2-10.8-.9-.5-14.9 29-14.4 30.3.7 2 15.7 9.2 23.6 11.5 5.4 1.6 11.3 2.3 21 2.7 18.5.7 29-1.5 44.8-9.2 9.9-4.9 12.5-6.7 19.6-13.8 5.8-5.7 9.3-10.3 11.8-15.2 5.3-10.5 6.3-15.3 6.3-30-.1-10.7-.5-14.3-2.4-20.5-8.7-28.3-31.8-44.4-61.1-42.6-13.8.8-30.1 5.9-36.3 11.4-1 .9-2.1 1.2-2.6.6-.5-.5-1.4-6.8-2.1-13.9-2-21.6-2.3-27.5-1.4-27.5 2.9 0 72.1-16.5 73-17.4.8-.8.3-4.9-2.1-15.4-4.3-18.4-4-17.9-7-16.6m-224.2 48.9c-10.1 1.8-16.5 4.1-26.8 9.4-11.2 5.7-24.1 17.9-30.3 28.6-6.5 11.3-7.1 9.9 8.2 20.3l13.4 9.2 3.8-6.6c10.4-17.8 32.7-29.7 48-25.5 15.1 4.1 22.2 22.1 16.4 41.2-4.3 14.4-9.9 24-43.8 75.4l-18.4 27.9 2.7 12.6c1.5 6.9 3.2 13 3.6 13.6.9 1.2 12.6-1.3 89.9-19 20.1-4.6 39.1-9 42.3-9.7s6-1.5 6.2-1.8c.2-.4-1.3-7.8-3.4-16.6-2.6-11.2-4.2-16.1-5.2-16.3-.8-.1-9.6 1.6-19.4 3.8-9.9 2.3-21.8 5-26.5 6-4.7 1.1-14.3 3.3-21.5 4.9-7.1 1.6-13.3 2.7-13.7 2.5-.5-.3.6-2.6 2.4-5.2 9.6-13.9 31.6-50.3 36.8-60.7 7.7-15.4 10.2-24.7 10.3-38.5.1-17.4-4.7-30.2-15.5-41.3-6.5-6.6-18.4-12.8-28.2-14.6-7.8-1.4-22.3-1.3-31.3.4m251.2 195c-27.8 4.6-50.7 13.9-71.5 29.2-11.8 8.8-29.6 27.3-37.6 39.3-12.6 18.9-21.3 39.6-25.6 61.3-1.8 9.1-2.2 14.5-2.2 29.2 0 9.9.5 21.6 1.2 26 5.9 36.6 22.1 67.9 47.9 92.5 21.9 20.9 47.3 34.7 76 41.1 13.9 3.1 42.5 3.8 57.5 1.5 32-5 60.1-18.1 84-39 14.2-12.4 27.8-28.9 27.8-33.5-.1-4.8-6.6-32.5-7.8-32.9-.6-.2-2.7 2.8-4.6 6.5-9.4 18.8-25.5 37.8-42.5 50.2-35.2 25.5-82.7 33-122.6 19.1-18.3-6.3-33.2-14.9-48-27.7-22.5-19.5-36.8-45.4-43.1-77.8-2.6-13.3-2.4-37.7.4-51.2 8.1-37.8 28.8-68.5 60.5-89.6 14.5-9.6 27.4-14.9 46-18.9 14.8-3.1 40.1-3.1 54.1.1 27.2 6.2 49.2 17.9 68.3 36.4 25.2 24.4 38.6 52.6 42 88.7.6 6.8 1.1 8.4 2.3 8.1.8-.2 6-1.6 11.5-3.1l10-2.7-.2-7.9c-.7-21-9.4-47.9-22.3-68.9-10.2-16.7-28.3-36.1-44.6-47.7-17.2-12.2-41-22.6-62.1-26.9-13.2-2.7-42.1-3.4-54.8-1.4" class="icon-part"/><path fill="#000627" d="M637.4 582.5c-1.4 2.2-1.4 3 .1 9.6 1.9 8.4 2.8 10.5 5.6 11.9 2.6 1.4 5.6.4 7.4-2.4 1.4-2 1.3-3.2-.1-10.2-.9-4.3-2.3-8.7-3.2-9.7-2.3-2.6-7.8-2.2-9.8.8m9.4 36.2c-3.3 3.9-3.5 2.2 5.5 42.3 3.9 17.1 4.7 19.5 6.3 19.3 1.1-.1 4.2-.5 6.9-1 4.9-.8 5-.9 4.7-4.1-.2-1.8-3.2-15-6.7-29.4-4.5-18.9-6.8-26.5-8.1-27.5-2.5-1.8-6.8-1.6-8.6.4M775 670.9c-7.7 2-10.3 5-8.2 9.5 1.8 4.1 4.7 4.6 14.2 2.5 9-1.9 11-3.4 11-7.9 0-6-5.2-7.2-17-4.1m-54 13.2c-4.1 1-12 2.8-17.5 4s-10.5 2.6-11.2 3.1c-.9.7-.8 1.9.3 5 .8 2.2 1.4 4.9 1.4 5.9s.4 2 .8 2.3c1.5.9 39.3-8.2 41.3-10 2.7-2.4 2.4-7-.6-9.9-2.8-2.9-4.4-2.9-14.5-.4m-158.5 36.4c-.5.2-3.6.9-6.8 1.5-9.3 1.9-12 6.2-7.4 11.6l2.3 2.7 7-1.3c9.8-1.8 13.2-3.4 14-6.5 1.2-4.8-4.5-9.8-9.1-8M688 804c-2.4 2.4-2.4 2.6-.1 12.4 2 8.3 3.7 10.6 7.8 10.6 2.3 0 6.3-3.1 6.3-4.9 0-2.6-4-17.4-5.1-18.7-1.7-2-6.6-1.7-8.9.6" class="icon-part"/><path fill="#00082c" d="M591.9 94.3c-2.4 1.3-5.7 4.2-7.3 6.5-4.2 6-4.5 12.6-1.1 28.3 6.5 30.4 11.9 52.7 13.6 56.1 3.7 7.3 12.1 11.2 21.1 9.8 6.1-.9 10.7-3.7 14.2-8.8 4.5-6.3 4.5-12.1.2-33.3-4.8-23.7-10.3-46.4-12-49.7-5.3-10.1-18.6-14.2-28.7-8.9m-325.4 74.6c-8.1 2.1-14.8 8.7-16.1 16-1.3 6.5 12.8 69.2 17.2 76.9 8.3 14.2 29.6 12.9 36.5-2.3 2.5-5.4 2.4-10-.6-24.1-2.9-14-10.1-46.3-11.6-51.7-2.6-9.8-15.5-17.4-25.4-14.8m353 130.7c-.9.3-74.4 16.9-93.5 21.1-4.1.9-8 2.1-8.6 2.7-.8.8.2 14.2 3.7 49.1 2.7 26.4 5.1 48.5 5.3 49.1s5.2 2.7 11 4.8l10.5 3.7 5.6-4.1c11.9-8.8 26.8-13.6 40.1-12.8 8.5.6 15 3.5 20.1 9.1 5.9 6.6 7.7 11.8 7.8 22.7 0 8.6-.3 9.9-2.7 14.2-6.3 10.5-19.1 16.8-34.8 16.8-11.1 0-19.6-2.6-35.2-10.8-.9-.5-14.9 29-14.4 30.3.7 2 15.7 9.2 23.6 11.5 5.4 1.6 11.3 2.3 21 2.7 18.5.7 29-1.5 44.8-9.2 9.9-4.9 12.5-6.7 19.6-13.8 5.8-5.7 9.3-10.3 11.8-15.2 5.3-10.5 6.3-15.3 6.3-30-.1-10.7-.5-14.3-2.4-20.5-8.7-28.3-31.8-44.4-61.1-42.6-13.8.8-30.1 5.9-36.3 11.4-1 .9-2.1 1.2-2.6.6-.5-.5-1.4-6.8-2.1-13.9-2-21.6-2.3-27.5-1.4-27.5 2.9 0 72.1-16.5 73-17.4.8-.8.3-4.9-2.1-15.4-4.3-18.4-4-17.9-7-16.6m-224.2 48.9c-10.1 1.8-16.5 4.1-26.8 9.4-11.2 5.7-24.1 17.9-30.3 28.6-6.5 11.3-7.1 9.9 8.2 20.3l13.4 9.2 3.8-6.6c10.4-17.8 32.7-29.7 48-25.5 15.1 4.1 22.2 22.1 16.4 41.2-4.3 14.4-9.9 24-43.8 75.4l-18.4 27.9 2.7 12.6c1.5 6.9 3.2 13 3.6 13.6.9 1.2 12.6-1.3 89.9-19 20.1-4.6 39.1-9 42.3-9.7s6-1.5 6.2-1.8c.2-.4-1.3-7.8-3.4-16.6-2.6-11.2-4.2-16.1-5.2-16.3-.8-.1-9.6 1.6-19.4 3.8-9.9 2.3-21.8 5-26.5 6-4.7 1.1-14.3 3.3-21.5 4.9-7.1 1.6-13.3 2.7-13.7 2.5-.5-.3.6-2.6 2.4-5.2 9.6-13.9 31.6-50.3 36.8-60.7 7.7-15.4 10.2-24.7 10.3-38.5.1-17.4-4.7-30.2-15.5-41.3-6.5-6.6-18.4-12.8-28.2-14.6-7.8-1.4-22.3-1.3-31.3.4m251.2 195c-27.8 4.6-50.7 13.9-71.5 29.2-11.8 8.8-29.6 27.3-37.6 39.3-12.6 18.9-21.3 39.6-25.6 61.3-1.8 9.1-2.2 14.5-2.2 29.2 0 9.9.5 21.6 1.2 26 5.9 36.6 22.1 67.9 47.9 92.5 21.9 20.9 47.3 34.7 76 41.1 13.9 3.1 42.5 3.8 57.5 1.5 32-5 60.1-18.1 84-39 14.2-12.4 27.8-28.9 27.8-33.5-.1-4.8-6.6-32.5-7.8-32.9-.6-.2-2.7 2.8-4.6 6.5-9.4 18.8-25.5 37.8-42.5 50.2-35.2 25.5-82.7 33-122.6 19.1-18.3-6.3-33.2-14.9-48-27.7-22.5-19.5-36.8-45.4-43.1-77.8-2.6-13.3-2.4-37.7.4-51.2 8.1-37.8 28.8-68.5 60.5-89.6 14.5-9.6 27.4-14.9 46-18.9 14.8-3.1 40.1-3.1 54.1.1 27.2 6.2 49.2 17.9 68.3 36.4 25.2 24.4 38.6 52.6 42 88.7.6 6.8 1.1 8.4 2.3 8.1.8-.2 6-1.6 11.5-3.1l10-2.7-.2-7.9c-.7-21-9.4-47.9-22.3-68.9-10.2-16.7-28.3-36.1-44.6-47.7-17.2-12.2-41-22.6-62.1-26.9-13.2-2.7-42.1-3.4-54.8-1.4" class="icon-part"/><path fill="#00082c" d="M637.4 582.5c-1.4 2.2-1.4 3 .1 9.6 1.9 8.4 2.8 10.5 5.6 11.9 2.6 1.4 5.6.4 7.4-2.4 1.4-2 1.3-3.2-.1-10.2-.9-4.3-2.3-8.7-3.2-9.7-2.3-2.6-7.8-2.2-9.8.8m9.4 36.2c-3.3 3.9-3.5 2.2 5.5 42.3 3.9 17.1 4.7 19.5 6.3 19.3 1.1-.1 4.2-.5 6.9-1 4.9-.8 5-.9 4.7-4.1-.2-1.8-3.2-15-6.7-29.4-4.5-18.9-6.8-26.5-8.1-27.5-2.5-1.8-6.8-1.6-8.6.4M775 670.9c-7.7 2-10.3 5-8.2 9.5 1.8 4.1 4.7 4.6 14.2 2.5 9-1.9 11-3.4 11-7.9 0-6-5.2-7.2-17-4.1m-54 13.2c-4.1 1-12 2.8-17.5 4s-10.5 2.6-11.2 3.1c-.9.7-.8 1.9.3 5 .8 2.2 1.4 4.9 1.4 5.9s.4 2 .8 2.3c1.5.9 39.3-8.2 41.3-10 2.7-2.4 2.4-7-.6-9.9-2.8-2.9-4.4-2.9-14.5-.4m-158.5 36.4c-.5.2-3.6.9-6.8 1.5-9.3 1.9-12 6.2-7.4 11.6l2.3 2.7 7-1.3c9.8-1.8 13.2-3.4 14-6.5 1.2-4.8-4.5-9.8-9.1-8M688 804c-2.4 2.4-2.4 2.6-.1 12.4 2 8.3 3.7 10.6 7.8 10.6 2.3 0 6.3-3.1 6.3-4.9 0-2.6-4-17.4-5.1-18.7-1.7-2-6.6-1.7-8.9.6" class="icon-part"/></svg>