<?xml version="1.0" standalone="no"?>
<!DOCTYPE svg PUBLIC "-//W3C//DTD SVG 20010904//EN"
 "http://www.w3.org/TR/2001/REC-SVG-20010904/DTD/svg10.dtd">
<svg version="1.0" xmlns="http://www.w3.org/2000/svg"
 width="260.000000pt" height="272.000000pt" viewBox="0 0 260.000000 272.000000"
 preserveAspectRatio="xMidYMid meet">
<metadata>
Created by potrace 1.16, written by Peter Selinger 2001-2019
</metadata>
<g transform="translate(0.000000,272.000000) scale(0.100000,-0.100000)"
fill="#000000" stroke="none">
<path d="M683 2600 c-40 -24 -65 -61 -72 -107 l-6 -35 -170 -1 c-166 -2 -171
-3 -217 -30 -103 -60 -109 -90 -106 -476 3 -277 5 -305 21 -315 12 -8 22 -8
35 0 13 9 18 28 20 88 l3 76 1037 -2 1037 -3 3 -277 c1 -153 -1 -278 -5 -278
-5 0 -26 12 -47 26 -111 76 -277 121 -404 110 -92 -7 -181 -30 -243 -62 -58
-29 -59 -29 -59 -4 0 12 -11 32 -25 45 -21 22 -33 25 -90 25 -60 0 -69 -3 -96
-29 -25 -25 -29 -37 -29 -85 0 -68 13 -103 43 -117 l24 -11 -43 -64 c-48 -74
-92 -199 -102 -292 l-7 -63 -452 1 c-315 0 -460 4 -478 12 -59 27 -60 29 -65
432 -5 337 -7 370 -23 380 -12 8 -22 8 -35 0 -16 -10 -17 -45 -20 -445 -2
-304 1 -446 9 -474 26 -94 98 -145 215 -153 63 -4 74 -2 93 17 17 17 19 25 11
41 -9 17 -21 20 -83 20 -54 0 -80 5 -104 20 -32 19 -63 66 -63 95 0 13 6 13
40 -5 38 -19 57 -20 500 -20 360 0 461 -3 464 -12 3 -7 7 -28 10 -45 l6 -33
-333 0 c-246 0 -336 -3 -345 -12 -18 -18 -14 -46 7 -58 13 -6 144 -10 358 -10
l338 0 27 -53 c167 -318 550 -445 873 -288 144 69 243 171 310 316 46 99 60
165 59 280 0 146 -44 277 -128 388 l-36 47 0 568 0 568 -22 44 c-50 98 -122
123 -336 118 -130 -3 -141 0 -142 47 0 33 -35 81 -73 98 -89 43 -177 0 -202
-98 l-11 -45 -329 -1 -330 -1 -7 42 c-17 97 -124 150 -205 100z m104 -68 c23
-15 34 -67 32 -161 -2 -97 -10 -139 -32 -153 -20 -13 -60 -9 -79 9 -16 14 -18
33 -18 149 0 107 3 136 16 148 16 17 61 21 81 8z m963 -12 c18 -18 20 -33 20
-145 0 -112 -2 -127 -20 -145 -24 -24 -67 -26 -92 -3 -16 14 -18 33 -18 146 0
107 3 134 17 149 21 24 68 23 93 -2z m245 -1243 c79 -28 200 -129 253 -212 62
-95 103 -217 101 -296 -1 -41 -2 -40 -9 16 -15 115 -63 207 -151 291 -88 83
-158 117 -279 134 -179 25 -374 -62 -473 -212 -185 -283 -52 -654 273 -758
106 -33 248 -19 365 37 108 50 215 179 250 301 16 54 30 73 19 25 -37 -158
-108 -272 -235 -375 -83 -68 -129 -83 -259 -83 -95 0 -127 4 -183 24 -411 142
-529 660 -220 964 68 67 209 142 293 157 71 12 204 5 255 -13z m-61 -152 c216
-46 353 -245 324 -469 -29 -220 -255 -386 -475 -349 -178 31 -315 168 -346
347 -41 243 152 472 408 485 11 0 51 -6 89 -14z m413 -472 c-3 -10 -5 -2 -5
17 0 19 2 27 5 18 2 -10 2 -26 0 -35z"/>
<path d="M1828 1039 c-15 -8 -18 -25 -18 -108 0 -95 -1 -98 -26 -111 -73 -40
-70 -166 6 -205 53 -28 97 -20 142 25 36 35 46 40 87 40 50 0 71 13 71 42 0
23 -30 38 -78 38 -33 0 -46 7 -81 41 l-41 41 0 88 c0 71 -3 90 -18 103 -21 20
-21 20 -44 6z m52 -293 c6 -8 10 -25 8 -38 -2 -19 -9 -23 -38 -23 -29 0 -36 4
-38 23 -2 13 -1 30 2 38 7 18 50 18 66 0z"/>
<path d="M305 1685 c-22 -21 -25 -33 -25 -98 0 -64 3 -76 23 -95 20 -18 35
-22 96 -22 63 0 75 3 96 25 22 21 25 33 25 95 0 62 -3 74 -25 95 -21 22 -33
25 -95 25 -62 0 -74 -3 -95 -25z"/>
<path d="M635 1685 c-22 -21 -25 -33 -25 -93 0 -55 4 -75 21 -96 19 -24 26
-26 99 -26 73 0 80 2 99 26 17 21 21 41 21 96 0 60 -3 72 -25 93 -21 22 -33
25 -95 25 -62 0 -74 -3 -95 -25z"/>
<path d="M965 1685 c-22 -21 -25 -33 -25 -95 0 -62 3 -74 25 -95 21 -22 33
-25 98 -25 64 0 76 3 95 23 18 20 22 35 22 96 0 63 -3 75 -25 96 -21 22 -33
25 -95 25 -62 0 -74 -3 -95 -25z"/>
<path d="M1299 1681 c-26 -27 -29 -36 -29 -96 0 -57 3 -69 25 -90 21 -22 33
-25 98 -25 64 0 76 3 95 23 19 20 22 35 22 99 0 71 -2 78 -26 97 -21 16 -41
21 -91 21 -58 0 -68 -3 -94 -29z"/>
<path d="M1629 1681 c-25 -26 -29 -37 -29 -86 0 -59 19 -109 45 -119 26 -10
144 -7 165 4 26 14 41 67 36 130 -5 77 -34 100 -122 100 -59 0 -68 -3 -95 -29z"/>
<path d="M1965 1687 c-44 -37 -47 -155 -4 -198 28 -28 160 -28 189 1 26 26 34
60 28 122 -8 74 -37 98 -123 98 -52 0 -69 -4 -90 -23z"/>
<path d="M323 1370 c-33 -13 -43 -41 -43 -118 0 -59 3 -72 23 -90 20 -19 35
-22 99 -22 71 0 78 2 97 26 16 21 21 41 21 90 0 77 -5 91 -41 109 -31 16 -121
19 -156 5z"/>
<path d="M653 1370 c-33 -13 -43 -41 -43 -118 0 -59 3 -72 23 -90 20 -19 35
-22 98 -22 66 0 78 3 97 23 18 20 22 35 22 96 0 63 -3 75 -25 96 -21 22 -33
25 -87 24 -35 0 -73 -4 -85 -9z"/>
<path d="M985 1368 c-36 -19 -45 -40 -45 -109 0 -52 4 -72 21 -93 19 -24 26
-26 98 -26 68 0 80 3 99 23 18 20 22 35 22 96 0 63 -3 75 -25 96 -20 21 -33
25 -87 25 -35 0 -72 -6 -83 -12z"/>
<path d="M323 1040 c-12 -5 -26 -18 -32 -29 -14 -25 -14 -146 -1 -171 15 -28
72 -42 135 -35 76 10 95 35 95 122 0 58 -3 68 -29 94 -26 26 -36 29 -88 28
-32 0 -68 -4 -80 -9z"/>
<path d="M655 1038 c-37 -20 -45 -40 -45 -113 0 -63 3 -74 25 -95 21 -20 36
-24 94 -24 60 -1 73 2 95 23 23 22 26 32 26 92 0 82 -5 96 -41 114 -33 17
-125 19 -154 3z"/>
<path d="M970 1022 c-27 -28 -30 -36 -30 -96 0 -84 23 -115 90 -121 58 -5 121
9 137 31 8 11 13 47 13 90 0 101 -14 117 -108 122 -68 4 -73 3 -102 -26z"/>
</g>
</svg>
