<?xml version="1.0" standalone="no"?>
<!DOCTYPE svg PUBLIC "-//W3C//DTD SVG 20010904//EN"
 "http://www.w3.org/TR/2001/REC-SVG-20010904/DTD/svg10.dtd">
<svg version="1.0" xmlns="http://www.w3.org/2000/svg"
 width="240.000000pt" height="240.000000pt" viewBox="0 0 240.000000 240.000000"
 preserveAspectRatio="xMidYMid meet">
<metadata>
Created by potrace 1.16, written by Peter Selinger 2001-2019
</metadata>
<g transform="translate(0.000000,240.000000) scale(0.100000,-0.100000)"
fill="#000000" stroke="none">
<path d="M1995 2389 c-78 -13 -220 -57 -320 -98 -103 -43 -126 -67 -214 -225
-56 -101 -67 -92 -30 26 12 38 20 71 17 73 -3 3 -51 -20 -107 -51 -116 -63
-148 -98 -175 -191 -10 -32 -22 -67 -27 -78 -12 -27 -1 56 16 112 7 23 10 44
8 47 -17 16 -239 -168 -330 -273 -107 -124 -138 -214 -131 -377 2 -51 1 -91
-3 -88 -11 7 -29 91 -29 138 0 25 -4 46 -9 46 -17 0 -167 -166 -212 -235 -56
-84 -79 -152 -109 -310 -31 -170 -30 -168 -36 -162 -3 3 -5 28 -6 57 0 85 -16
42 -25 -70 -6 -68 -21 -61 -22 10 -2 48 -18 73 -25 39 -29 -123 -40 -247 -28
-299 5 -24 14 -36 27 -37 16 -2 33 20 80 104 159 282 434 669 634 891 147 164
474 400 792 573 74 40 172 98 219 130 95 65 234 178 226 186 -2 2 -28 -11 -57
-31 -29 -19 -55 -34 -57 -31 -2 2 5 17 17 33 37 53 23 48 -41 -13 l-61 -60 28
50 c16 28 37 64 47 80 30 49 30 49 -57 34z"/>
<path d="M2155 2218 c-118 -104 -376 -296 -572 -425 -369 -243 -636 -495 -911
-859 -107 -143 -312 -466 -312 -493 0 -14 67 -15 75 -1 3 5 65 28 138 51 147
46 279 107 329 151 35 32 37 32 -72 -10 -48 -18 -96 -26 -185 -32 -66 -5 -129
-11 -140 -16 -15 -5 -17 -4 -9 5 6 6 67 23 135 37 68 14 162 41 209 61 122 49
396 203 363 203 -7 0 -38 -7 -70 -15 -36 -9 -98 -15 -168 -14 -117 1 -110 6
50 28 167 24 402 121 479 197 46 47 103 130 94 139 -2 2 -59 -1 -125 -7 -106
-10 -137 -9 -234 6 -71 12 -135 16 -173 12 -49 -4 -56 -3 -36 5 14 6 102 15
195 19 170 8 235 20 390 71 100 34 223 99 273 146 l47 44 -55 -5 -55 -4 45 19
c25 10 59 26 75 34 30 15 29 15 -30 11 l-60 -5 65 23 c95 34 121 49 169 101
41 45 109 170 98 181 -3 3 -37 -1 -76 -10 -38 -9 -105 -15 -148 -15 l-78 1 59
9 c151 22 284 77 310 128 9 16 13 30 11 33 -3 2 -35 -4 -72 -13 -104 -27 -128
-22 -43 10 129 48 140 56 140 101 l0 39 -66 -25 c-37 -14 -68 -23 -70 -21 -3
2 27 25 66 51 72 47 82 65 60 107 -6 10 -16 19 -23 18 -7 0 -48 -32 -92 -71z"/>
<path d="M1799 2026 c-265 -158 -334 -203 -454 -290 -380 -275 -664 -611
-1017 -1206 -88 -149 -96 -166 -81 -177 26 -20 30 -17 57 43 35 77 143 254
247 409 294 433 647 785 1059 1053 254 165 475 322 454 322 -5 0 -124 -69
-265 -154z"/>
<path d="M2080 595 c-227 -40 -452 -109 -670 -205 -47 -21 -152 -68 -235 -105
-316 -142 -525 -195 -915 -233 -57 -5 -75 -11 -75 -22 0 -32 325 -2 540 50
165 40 322 95 521 186 429 194 685 275 975 309 63 8 85 18 75 34 -10 16 -64
13 -216 -14z"/>
<path d="M180 319 c-10 -18 -6 -22 36 -41 46 -20 48 -20 61 -2 16 21 11 26
-44 47 -41 16 -43 16 -53 -4z"/>
<path d="M135 217 c-26 -45 -25 -42 -15 -186 0 -3 12 7 28 21 15 14 37 31 49
37 13 7 26 27 32 49 25 96 26 90 -14 106 -21 9 -41 16 -46 16 -4 0 -20 -20
-34 -43z m51 -68 c10 -17 -13 -36 -27 -22 -12 12 -4 33 11 33 5 0 12 -5 16
-11z"/>
</g>
</svg>
