<svg xmlns="http://www.w3.org/2000/svg" viewBox="0 0 1080 1080">
  
<g id="layer-1" class="icon-part" transform="translate(0.000000,1080.000000) scale(0.100000,-0.100000)"
fill="#33CCFF" stroke="none">
<path d="M5525 8495 c-247 -65 -514 -198 -755 -378 -116 -87 -352 -321 -441
-437 -220 -287 -330 -556 -354 -860 -8 -98 12 -251 44 -344 105 -302 391 -505
711 -506 173 0 369 76 347 135 -8 19 -37 19 -166 0 -110 -17 -204 -11 -287 18
-160 57 -281 172 -347 330 -27 65 -30 86 -35 208 -5 156 5 227 49 362 113 339
417 731 782 1009 173 132 481 296 596 319 59 11 65 11 77 -6 18 -24 18 -113 0
-301 -8 -82 -22 -237 -31 -344 -8 -107 -20 -226 -25 -265 -5 -38 -14 -117 -20
-175 -27 -268 -32 -312 -45 -420 -8 -63 -22 -176 -30 -250 -43 -362 -148
-1101 -205 -1435 -16 -93 -34 -204 -40 -245 -17 -109 -118 -606 -136 -667 -12
-44 -19 -54 -42 -59 -197 -44 -552 -174 -782 -285 -570 -277 -987 -639 -1208
-1049 -50 -94 -116 -287 -138 -405 -24 -130 -16 -409 15 -515 49 -166 152
-331 269 -426 66 -55 189 -115 282 -139 91 -24 287 -16 385 15 182 57 331 154
500 324 237 239 429 561 610 1026 56 143 149 415 185 540 12 41 28 95 35 120
26 86 124 469 165 646 l21 92 97 31 c145 46 187 78 147 111 -12 10 -41 11
-116 6 -93 -6 -100 -5 -95 11 11 38 79 412 101 548 8 55 20 127 25 160 20 117
71 452 90 595 11 80 24 172 30 205 29 187 40 260 50 350 6 55 15 123 20 150
15 79 78 664 90 835 48 703 51 1014 9 1218 -12 62 -60 122 -120 153 -55 28
-195 25 -314 -6z m-380 -4542 c-140 -575 -312 -1087 -503 -1495 -131 -280
-332 -576 -482 -711 -72 -65 -188 -141 -257 -168 -48 -19 -77 -23 -168 -24
-98 0 -116 3 -166 26 -31 15 -88 56 -127 93 -57 54 -80 85 -116 159 -63 127
-79 196 -80 347 -1 148 14 240 61 375 123 352 362 645 768 937 193 138 517
317 750 413 106 44 328 124 334 119 1 -1 -4 -33 -14 -71z"/>
</g>
  
<g id="layer-2" class="icon-part" transform="translate(0.000000,1080.000000) scale(0.100000,-0.100000)"
fill="#FF3366" stroke="none">
<path d="M7255 8702 c-43 -27 -85 -78 -125 -155 l-35 -67 -125 -40 c-134 -42
-311 -124 -419 -194 -204 -132 -358 -324 -322 -402 9 -21 17 -25 48 -22 33 3
43 11 92 75 87 113 179 182 366 275 119 60 253 113 261 105 3 -3 -18 -70 -46
-149 -153 -422 -266 -784 -390 -1243 -33 -121 -67 -245 -75 -275 -8 -30 -47
-188 -86 -350 -115 -476 -112 -464 -132 -468 -10 -2 -47 10 -83 27 -84 39
-121 41 -135 5 -6 -18 -6 -37 1 -60 13 -38 91 -114 149 -143 22 -12 41 -25 41
-29 0 -5 -18 -96 -40 -203 -199 -959 -280 -1521 -287 -2004 -4 -246 -3 -278
16 -365 23 -104 59 -163 103 -168 56 -7 75 51 94 288 14 183 49 485 80 690 18
119 99 589 114 665 159 769 216 1021 232 1043 7 7 37 12 82 12 254 0 610 97
922 251 246 121 406 234 598 419 232 225 378 450 474 730 66 192 77 266 77
500 0 240 -13 303 -95 478 -64 134 -117 207 -227 312 -99 95 -185 150 -318
203 -172 69 -283 87 -528 87 l-159 0 7 33 c19 91 18 104 -8 131 -31 31 -78 34
-122 8z m445 -356 c355 -58 591 -271 681 -614 29 -110 36 -328 15 -447 -63
-362 -288 -738 -596 -998 -251 -212 -551 -373 -845 -455 -195 -55 -345 -76
-345 -49 0 53 203 848 389 1527 77 277 107 381 201 690 88 289 101 329 113
338 7 6 26 12 42 15 69 10 266 6 345 -7z"/>
</g>
  
<g id="layer-3" class="icon-part" transform="translate(0.000000,1080.000000) scale(0.100000,-0.100000)"
fill="#33FF66" stroke="none">
<path d="M8685 5694 c-22 -2 -130 -8 -240 -14 -324 -18 -506 -44 -491 -69 11
-17 138 -22 754 -31 637 -10 724 -14 937 -51 337 -57 552 -144 686 -278 135
-136 181 -325 115 -474 -44 -99 -126 -167 -291 -239 -174 -76 -348 -118 -650
-158 -149 -20 -229 -22 -1190 -30 -1213 -11 -1575 -23 -1737 -61 -96 -22 -129
-81 -65 -116 30 -17 93 -18 1027 -18 547 -1 1108 -2 1245 -3 l250 -2 189 -408
c253 -543 373 -795 413 -864 54 -93 107 -125 194 -116 l34 3 -1 60 c-1 63 -27
163 -139 530 -35 116 -81 271 -103 345 -22 74 -61 208 -87 297 -27 90 -46 166
-42 169 3 4 78 17 167 30 552 80 875 260 973 542 27 79 28 233 3 322 -102 352
-394 529 -1021 616 -80 12 -217 17 -500 19 -214 1 -408 1 -430 -1z"/>
</g>
  
<g id="layer-4" class="icon-part" transform="translate(0.000000,1080.000000) scale(0.100000,-0.100000)"
fill="#CC33FF" stroke="none">
<path d="M1076 6551 c-7 -10 66 -140 251 -451 105 -176 239 -416 402 -723 208
-392 238 -445 318 -567 107 -163 190 -266 309 -384 l104 -103 -29 -99 c-17
-55 -60 -202 -96 -329 -85 -292 -159 -539 -190 -635 -48 -150 -106 -366 -112
-417 -7 -65 5 -83 59 -83 81 0 142 59 217 209 46 91 198 408 261 546 37 81
154 332 197 425 19 41 44 94 54 118 10 23 25 45 33 48 8 3 70 -8 138 -25 67
-17 164 -35 213 -41 197 -22 626 -5 815 33 41 8 118 23 170 32 120 22 402 93
414 105 27 27 -78 25 -464 -7 -394 -33 -775 -21 -1002 32 -308 71 -571 233
-773 476 -134 160 -217 286 -455 694 -173 295 -505 791 -654 977 -132 165
-164 195 -180 169z"/>
</g>
  
<g id="layer-5" class="icon-part" transform="translate(0.000000,1080.000000) scale(0.100000,-0.100000)"
fill="#00FFFF" stroke="none">
<path d="M860 8183 c-114 -18 -255 -64 -353 -117 -153 -81 -304 -231 -372
-370 -58 -117 -78 -197 -78 -316 -1 -126 23 -233 81 -350 84 -172 249 -308
420 -346 100 -22 246 -15 324 15 111 43 222 149 205 195 -9 24 -33 20 -108
-19 -127 -65 -240 -79 -355 -44 -174 54 -311 206 -350 387 -53 254 42 468 279
623 147 97 264 132 442 132 147 -1 229 -14 361 -58 373 -124 749 -425 1328
-1060 351 -384 530 -593 761 -886 197 -249 363 -435 378 -420 21 21 -160 308
-456 721 -510 711 -866 1114 -1317 1491 -94 78 -304 216 -417 273 -225 112
-401 157 -615 155 -73 -1 -144 -3 -158 -6z"/>
</g>
  
<g id="layer-6" class="icon-part" transform="translate(0.000000,1080.000000) scale(0.100000,-0.100000)"
fill="#FF9900" stroke="none">
<path d="M703 7497 c-4 -6 10 -24 33 -41 76 -60 188 -173 288 -291 236 -279
452 -602 888 -1330 356 -593 519 -826 713 -1020 128 -129 207 -191 320 -250
325 -170 585 -166 774 13 31 28 57 52 58 52 2 0 32 -31 68 -69 112 -118 216
-148 485 -138 251 10 580 53 608 80 29 30 -20 35 -363 40 -431 7 -520 22 -597
104 -54 57 -73 117 -73 233 1 98 3 110 34 178 66 141 171 201 446 256 113 23
292 36 491 36 140 0 174 3 184 15 39 47 -279 100 -555 92 -183 -6 -243 -14
-375 -54 -121 -36 -191 -76 -260 -150 -73 -78 -101 -130 -141 -270 -37 -127
-64 -183 -116 -239 -112 -120 -266 -141 -462 -63 -339 135 -572 400 -1116
1269 -130 207 -313 485 -433 660 -342 495 -673 836 -864 891 -18 5 -30 4 -35
-4z"/>
</g>
  
<g id="layer-7" class="icon-part" transform="translate(0.000000,1080.000000) scale(0.100000,-0.100000)"
fill="#33CCFF" stroke="none">
<path d="M10090 4779 c-143 -67 -355 -106 -655 -119 -121 -5 -508 -10 -860
-10 -352 0 -809 -5 -1015 -10 -420 -11 -891 -37 -903 -49 -20 -20 30 -32 174
-41 204 -13 2257 -13 2474 0 396 23 623 67 770 150 59 34 110 84 101 99 -10
15 -13 15 -86 -20z"/>
</g>
</svg>
