<?xml version="1.0" standalone="no"?>
<!DOCTYPE svg PUBLIC "-//W3C//DTD SVG 20010904//EN"
 "http://www.w3.org/TR/2001/REC-SVG-20010904/DTD/svg10.dtd">
<svg version="1.0" xmlns="http://www.w3.org/2000/svg"
 width="622.000000pt" height="343.000000pt" viewBox="0 0 622.000000 343.000000"
 preserveAspectRatio="xMidYMid meet">
<metadata>
Created by potrace 1.16, written by Peter Selinger 2001-2019
</metadata>
<g transform="translate(0.000000,343.000000) scale(0.100000,-0.100000)"
fill="#000000" stroke="none">
<path d="M4125 2864 c-204 -45 -396 -124 -961 -392 -455 -216 -702 -293 -939
-294 -124 -1 -198 15 -330 68 -188 76 -404 111 -524 85 -79 -17 -85 -25 -54
-69 88 -130 218 -501 253 -727 7 -44 17 -88 22 -98 8 -16 93 -17 1626 -15
l1616 3 57 209 c104 379 183 591 245 657 l25 26 -37 49 c-135 177 -327 344
-489 426 -27 14 -88 38 -135 53 -108 35 -269 43 -375 19z"/>
<path d="M1061 2268 c-49 -26 -91 -90 -91 -137 0 -43 42 -114 84 -142 44 -30
47 -36 120 -253 95 -283 144 -508 165 -760 12 -142 27 -184 75 -219 27 -19 46
-22 149 -25 l119 -4 -66 -68 c-71 -74 -84 -111 -48 -143 41 -38 68 -24 192 98
l116 115 1339 0 1339 0 116 -115 c97 -95 122 -115 147 -115 37 0 63 27 63 66
0 23 -14 44 -65 94 l-66 65 115 5 c104 5 117 7 140 29 47 44 65 102 106 336
39 221 85 438 117 555 20 76 92 292 101 306 4 6 26 21 48 32 68 34 101 126 73
199 -38 102 -185 135 -264 60 -28 -26 -46 -66 -101 -217 -93 -259 -117 -336
-154 -490 -18 -74 -37 -145 -41 -157 l-9 -23 -1669 0 c-1049 0 -1672 4 -1676
10 -3 5 -15 60 -26 122 -29 157 -72 324 -115 446 -49 136 -133 302 -164 324
-14 10 -48 21 -75 24 -41 5 -58 1 -94 -18z"/>
</g>
</svg>
