<svg xmlns="http://www.w3.org/2000/svg" viewBox="0 0 454 242">
  
  <g class="layer icon-part-1">
<g transform="translate(0.000000,242.000000) scale(0.100000,-0.100000)"
fill="#FF3366" stroke="none">
<path d="M3185 2374 c-188 -42 -419 -132 -780 -304 -494 -235 -630 -291 -844
-345 -218 -55 -387 -52 -558 11 -289 106 -459 136 -588 103 -64 -16 -69 -27
-36 -79 82 -132 183 -418 232 -655 17 -82 33 -156 35 -162 3 -10 335 -13 1619
-13 l1615 0 10 23 c5 12 24 76 41 142 95 369 188 625 253 703 l28 32 -58 73
c-128 161 -304 313 -449 388 -164 86 -364 118 -520 83z"/>
</g>
  </g>
  
  <g class="layer icon-part-2">
<g transform="translate(0.000000,242.000000) scale(0.100000,-0.100000)"
fill="#33CCFF" stroke="none">
<path d="M136 1790 c-61 -19 -106 -83 -106 -150 0 -59 26 -106 76 -140 48 -33
53 -45 134 -290 88 -264 130 -465 154 -728 14 -153 21 -173 80 -216 23 -18 47
-22 144 -26 l116 -5 -67 -71 c-71 -76 -80 -101 -47 -134 41 -41 67 -29 190 95
l115 115 1345 0 1345 0 115 -115 c87 -88 121 -115 141 -115 30 0 69 37 69 66
0 10 -30 51 -68 89 l-67 70 112 5 c106 5 113 6 142 34 34 33 66 102 76 166 58
375 135 717 211 936 33 96 37 101 74 118 22 9 49 31 61 48 23 32 35 101 25
142 -11 43 -64 95 -109 107 -54 14 -136 -3 -166 -34 -52 -56 -230 -593 -287
-865 l-4 -22 -1676 2 -1676 3 -35 170 c-41 206 -90 373 -150 514 -63 149 -93
200 -125 217 -36 19 -106 26 -142 14z"/>
</g>
  </g>
</svg>
