<svg xmlns="http://www.w3.org/2000/svg" viewBox="0 0 1080 1080"><path fill="#3cf" d="M552.5 230.5c-24.7 6.5-51.4 19.8-75.5 37.8-11.6 8.7-35.2 32.1-44.1 43.7-22 28.7-33 55.6-35.4 86-.8 9.8 1.2 25.1 4.4 34.4 10.5 30.2 39.1 50.5 71.1 50.6 17.3 0 36.9-7.6 34.7-13.5-.8-1.9-3.7-1.9-16.6 0-11 1.7-20.4 1.1-28.7-1.8-16-5.7-28.1-17.2-34.7-33-2.7-6.5-3-8.6-3.5-20.8-.5-15.6.5-22.7 4.9-36.2 11.3-33.9 41.7-73.1 78.2-100.9 17.3-13.2 48.1-29.6 59.6-31.9 5.9-1.1 6.5-1.1 7.7.6 1.8 2.4 1.8 11.3 0 30.1-.8 8.2-2.2 23.7-3.1 34.4-.8 10.7-2 22.6-2.5 26.5-.5 3.8-1.4 11.7-2 17.5-2.7 26.8-3.2 31.2-4.5 42-.8 6.3-2.2 17.6-3 25-4.3 36.2-14.8 110.1-20.5 143.5-1.6 9.3-3.4 20.4-4 24.5-1.7 10.9-11.8 60.6-13.6 66.7-1.2 4.4-1.9 5.4-4.2 5.9C497.5 666 462 679 439 690.1 382 717.8 340.3 754 318.2 795c-5 9.4-11.6 28.7-13.8 40.5-2.4 13-1.6 40.9 1.5 51.5 4.9 16.6 15.2 33.1 26.9 42.6 6.6 5.5 18.9 11.5 28.2 13.9 9.1 2.4 28.7 1.6 38.5-1.5 18.2-5.7 33.1-15.4 50-32.4 23.7-23.9 42.9-56.1 61-102.6 5.6-14.3 14.9-41.5 18.5-54 1.2-4.1 2.8-9.5 3.5-12 2.6-8.6 12.4-46.9 16.5-64.6l2.1-9.2 9.7-3.1c14.5-4.6 18.7-7.8 14.7-11.1-1.2-1-4.1-1.1-11.6-.6-9.3.6-10 .5-9.5-1.1 1.1-3.8 7.9-41.2 10.1-54.8.8-5.5 2-12.7 2.5-16 2-11.7 7.1-45.2 9-59.5 1.1-8 2.4-17.2 3-20.5 2.9-18.7 4-26 5-35 .6-5.5 1.5-12.3 2-15 1.5-7.9 7.8-66.4 9-83.5 4.8-70.3 5.1-101.4.9-121.8-1.2-6.2-6-12.2-12-15.3-5.5-2.8-19.5-2.5-31.4.6m-38 454.2c-14 57.5-31.2 108.7-50.3 149.5-13.1 28-33.2 57.6-48.2 71.1-7.2 6.5-18.8 14.1-25.7 16.8-4.8 1.9-7.7 2.3-16.8 2.4-9.8 0-11.6-.3-16.6-2.6-3.1-1.5-8.8-5.6-12.7-9.3-5.7-5.4-8-8.5-11.6-15.9-6.3-12.7-7.9-19.6-8-34.7-.1-14.8 1.4-24 6.1-37.5 12.3-35.2 36.2-64.5 76.8-93.7 19.3-13.8 51.7-31.7 75-41.3 10.6-4.4 32.8-12.4 33.4-11.9.1.1-.4 3.3-1.4 7.1" class="icon-part"/><path fill="#f36" d="M725.5 209.8c-4.3 2.7-8.5 7.8-12.5 15.5l-3.5 6.7-12.5 4c-13.4 4.2-31.1 12.4-41.9 19.4-20.4 13.2-35.8 32.4-32.2 40.2.9 2.1 1.7 2.5 4.8 2.2 3.3-.3 4.3-1.1 9.2-7.5 8.7-11.3 17.9-18.2 36.6-27.5 11.9-6 25.3-11.3 26.1-10.5.3.3-1.8 7-4.6 14.9-15.3 42.2-26.6 78.4-39 124.3-3.3 12.1-6.7 24.5-7.5 27.5s-4.7 18.8-8.6 35c-11.5 47.6-11.2 46.4-13.2 46.8-1 .2-4.7-1-8.3-2.7-8.4-3.9-12.1-4.1-13.5-.5-.6 1.8-.6 3.7.1 6 1.3 3.8 9.1 11.4 14.9 14.3 2.2 1.2 4.1 2.5 4.1 2.9 0 .5-1.8 9.6-4 20.3-19.9 95.9-28 152.1-28.7 200.4-.4 24.6-.3 27.8 1.6 36.5 2.3 10.4 5.9 16.3 10.3 16.8 5.6.7 7.5-5.1 9.4-28.8 1.4-18.3 4.9-48.5 8-69 1.8-11.9 9.9-58.9 11.4-66.5 15.9-76.9 21.6-102.1 23.2-104.3.7-.7 3.7-1.2 8.2-1.2 25.4 0 61-9.7 92.2-25.1 24.6-12.1 40.6-23.4 59.8-41.9 23.2-22.5 37.8-45 47.4-73 6.6-19.2 7.7-26.6 7.7-50 0-24-1.3-30.3-9.5-47.8-6.4-13.4-11.7-20.7-22.7-31.2-9.9-9.5-18.5-15-31.8-20.3-17.2-6.9-28.3-8.7-52.8-8.7h-15.9l.7-3.3c1.9-9.1 1.8-10.4-.8-13.1-3.1-3.1-7.8-3.4-12.2-.8m44.5 35.6c35.5 5.8 59.1 27.1 68.1 61.4 2.9 11 3.6 32.8 1.5 44.7-6.3 36.2-28.8 73.8-59.6 99.8-25.1 21.2-55.1 37.3-84.5 45.5-19.5 5.5-34.5 7.6-34.5 4.9 0-5.3 20.3-84.8 38.9-152.7 7.7-27.7 10.7-38.1 20.1-69 8.8-28.9 10.1-32.9 11.3-33.8.7-.6 2.6-1.2 4.2-1.5 6.9-1 26.6-.6 34.5.7" class="icon-part"/><path fill="#3f6" d="M868.5 510.6c-2.2.2-13 .8-24 1.4-32.4 1.8-50.6 4.4-49.1 6.9 1.1 1.7 13.8 2.2 75.4 3.1 63.7 1 72.4 1.4 93.7 5.1 33.7 5.7 55.2 14.4 68.6 27.8 13.5 13.6 18.1 32.5 11.5 47.4-4.4 9.9-12.6 16.7-29.1 23.9-17.4 7.6-34.8 11.8-65 15.8-14.9 2-22.9 2.2-119 3-121.3 1.1-157.5 2.3-173.7 6.1-9.6 2.2-12.9 8.1-6.5 11.6 3 1.7 9.3 1.8 102.7 1.8 54.7.1 110.8.2 124.5.3l25 .2 18.9 40.8c25.3 54.3 37.3 79.5 41.3 86.4 5.4 9.3 10.7 12.5 19.4 11.6l3.4-.3-.1-6c-.1-6.3-2.7-16.3-13.9-53-3.5-11.6-8.1-27.1-10.3-34.5s-6.1-20.8-8.7-29.7c-2.7-9-4.6-16.6-4.2-16.9.3-.4 7.8-1.7 16.7-3 55.2-8 87.5-26 97.3-54.2 2.7-7.9 2.8-23.3.3-32.2-10.2-35.2-39.4-52.9-102.1-61.6-8-1.2-21.7-1.7-50-1.9-21.4-.1-40.8-.1-43 .1" class="icon-part"/><path fill="#c3f" d="M107.6 424.9c-.7 1 6.6 14 25.1 45.1 10.5 17.6 23.9 41.6 40.2 72.3 20.8 39.2 23.8 44.5 31.8 56.7 10.7 16.3 19 26.6 30.9 38.4l10.4 10.3-2.9 9.9c-1.7 5.5-6 20.2-9.6 32.9-8.5 29.2-15.9 53.9-19 63.5-4.8 15-10.6 36.6-11.2 41.7-.7 6.5.5 8.3 5.9 8.3 8.1 0 14.2-5.9 21.7-20.9 4.6-9.1 19.8-40.8 26.1-54.6 3.7-8.1 15.4-33.2 19.7-42.5 1.9-4.1 4.4-9.4 5.4-11.8 1-2.3 2.5-4.5 3.3-4.8s7 .8 13.8 2.5c6.7 1.7 16.4 3.5 21.3 4.1 19.7 2.2 62.6.5 81.5-3.3 4.1-.8 11.8-2.3 17-3.2 12-2.2 40.2-9.3 41.4-10.5 2.7-2.7-7.8-2.5-46.4.7-39.4 3.3-77.5 2.1-100.2-3.2-30.8-7.1-57.1-23.3-77.3-47.6-13.4-16-21.7-28.6-45.5-69.4-17.3-29.5-50.5-79.1-65.4-97.7-13.2-16.5-16.4-19.5-18-16.9" class="icon-part"/><path fill="#0ff" d="M86 261.7c-11.4 1.8-25.5 6.4-35.3 11.7-15.3 8.1-30.4 23.1-37.2 37-5.8 11.7-7.8 19.7-7.8 31.6-.1 12.6 2.3 23.3 8.1 35 8.4 17.2 24.9 30.8 42 34.6 10 2.2 24.6 1.5 32.4-1.5 11.1-4.3 22.2-14.9 20.5-19.5-.9-2.4-3.3-2-10.8 1.9-12.7 6.5-24 7.9-35.5 4.4-17.4-5.4-31.1-20.6-35-38.7-5.3-25.4 4.2-46.8 27.9-62.3 14.7-9.7 26.4-13.2 44.2-13.2 14.7.1 22.9 1.4 36.1 5.8 37.3 12.4 74.9 42.5 132.8 106 35.1 38.4 53 59.3 76.1 88.6 19.7 24.9 36.3 43.5 37.8 42 2.1-2.1-16-30.8-45.6-72.1-51-71.1-86.6-111.4-131.7-149.1-9.4-7.8-30.4-21.6-41.7-27.3-22.5-11.2-40.1-15.7-61.5-15.5-7.3.1-14.4.3-15.8.6" class="icon-part"/><path fill="#f90" d="M70.3 330.3c-.4.6 1 2.4 3.3 4.1 7.6 6 18.8 17.3 28.8 29.1 23.6 27.9 45.2 60.2 88.8 133 35.6 59.3 51.9 82.6 71.3 102 12.8 12.9 20.7 19.1 32 25 32.5 17 58.5 16.6 77.4-1.3 3.1-2.8 5.7-5.2 5.8-5.2.2 0 3.2 3.1 6.8 6.9 11.2 11.8 21.6 14.8 48.5 13.8 25.1-1 58-5.3 60.8-8 2.9-3-2-3.5-36.3-4-43.1-.7-52-2.2-59.7-10.4-5.4-5.7-7.3-11.7-7.3-23.3.1-9.8.3-11 3.4-17.8 6.6-14.1 17.1-20.1 44.6-25.6 11.3-2.3 29.2-3.6 49.1-3.6 14 0 17.4-.3 18.4-1.5 3.9-4.7-27.9-10-55.5-9.2-18.3.6-24.3 1.4-37.5 5.4-12.1 3.6-19.1 7.6-26 15-7.3 7.8-10.1 13-14.1 27-3.7 12.7-6.4 18.3-11.6 23.9q-16.8 18-46.2 6.3c-33.9-13.5-57.2-40-111.6-126.9-13-20.7-31.3-48.5-43.3-66-34.2-49.5-67.3-83.6-86.4-89.1-1.8-.5-3-.4-3.5.4" class="icon-part"/><path fill="#36f" d="M1009 602.1c-14.3 6.7-35.5 10.6-65.5 11.9-12.1.5-50.8 1-86 1s-80.9.5-101.5 1c-42 1.1-89.1 3.7-90.3 4.9-2 2 3 3.2 17.4 4.1 20.4 1.3 225.7 1.3 247.4 0 39.6-2.3 62.3-6.7 77-15 5.9-3.4 11-8.4 10.1-9.9-1-1.5-1.3-1.5-8.6 2" class="icon-part"/></svg>