<?xml version="1.0" standalone="no"?>
<!DOCTYPE svg PUBLIC "-//W3C//DTD SVG 20010904//EN"
 "http://www.w3.org/TR/2001/REC-SVG-20010904/DTD/svg10.dtd">
<svg version="1.0" xmlns="http://www.w3.org/2000/svg"
 width="2048.000000pt" height="2048.000000pt" viewBox="0 0 2048.000000 2048.000000"
 preserveAspectRatio="xMidYMid meet">
<metadata>
Created by potrace 1.16, written by Peter Selinger 2001-2019
</metadata>
<g transform="translate(0.000000,2048.000000) scale(0.100000,-0.100000)"
fill="#000000" stroke="none">
<path d="M1545 18778 c-99 -4 -211 -8 -250 -10 l-70 -3 -8 -379 c-5 -247 -4
-383 2 -389 7 -7 143 124 399 382 213 216 384 395 379 398 -13 8 -254 9 -452
1z m347 -50 c-2 -4 -145 -149 -318 -323 l-314 -316 0 311 c0 248 3 312 13 316
12 4 555 23 602 20 11 -1 19 -4 17 -8z"/>
<path d="M18612 18779 l-24 -9 41 -48 c22 -26 193 -199 379 -386 219 -219 344
-336 352 -331 9 5 10 78 5 309 -10 415 -10 435 -17 441 -3 3 -117 10 -254 15
-137 5 -296 12 -354 14 -58 2 -116 0 -128 -5z m415 -54 c144 -5 266 -11 271
-14 5 -3 13 -142 17 -314 l7 -307 -314 315 c-172 174 -314 320 -316 325 -2 5
14 8 35 6 21 -2 156 -7 300 -11z"/>
<path d="M2050 18605 c-169 -156 -583 -571 -698 -702 -43 -48 -68 -84 -62 -88
16 -10 448 410 685 665 39 42 110 117 158 167 48 50 84 93 80 96 -4 3 -78 -59
-163 -138z"/>
<path d="M2620 18740 c-240 -39 -471 -229 -563 -463 -15 -37 -34 -109 -43
-160 -9 -50 -18 -95 -20 -99 -2 -3 -35 -9 -72 -13 -205 -20 -381 -126 -530
-322 -79 -103 -132 -272 -132 -422 0 -79 5 -110 29 -177 58 -169 204 -304 376
-349 106 -27 245 -11 330 40 187 111 244 369 112 512 -106 115 -253 122 -346
17 -39 -45 -59 -93 -46 -114 10 -15 25 -2 25 22 0 27 44 85 84 109 40 24 118
25 172 0 87 -39 152 -156 141 -252 -8 -67 -59 -170 -104 -209 -144 -127 -393
-110 -560 36 -116 102 -162 207 -163 366 0 241 120 459 328 598 80 53 208 100
275 100 l36 0 -14 -34 c-25 -59 16 -145 86 -181 65 -34 171 -5 210 58 27 43
23 144 -7 184 -31 41 -92 73 -142 73 l-42 0 6 43 c11 79 61 204 108 275 53 80
157 180 238 229 29 18 87 45 128 60 66 23 90 27 200 27 106 1 135 -3 192 -22
129 -45 238 -150 289 -280 19 -47 23 -77 23 -172 1 -109 0 -118 -29 -168 -34
-62 -112 -137 -170 -163 -27 -13 -64 -19 -113 -19 -125 0 -196 49 -237 166
-22 62 -42 70 -36 14 7 -76 68 -158 145 -197 64 -33 162 -36 250 -8 80 25 164
103 208 192 58 118 50 290 -20 433 -54 109 -184 217 -311 256 -58 18 -219 26
-291 14z m-464 -749 c45 -27 68 -82 54 -126 -44 -133 -230 -113 -230 25 0 42
26 95 53 108 35 17 89 14 123 -7z"/>
<path d="M17750 18734 c-104 -27 -192 -78 -261 -152 -77 -81 -114 -152 -136
-258 -39 -189 41 -382 189 -457 218 -110 453 8 452 228 -1 70 -18 109 -68 153
-57 50 -164 56 -212 11 -36 -33 -48 -59 -36 -71 7 -7 15 -1 26 20 23 44 70 63
130 51 82 -15 126 -73 126 -164 0 -127 -102 -224 -237 -225 -218 -1 -367 200
-324 433 34 184 193 350 372 388 66 14 224 6 303 -15 199 -55 387 -216 466
-401 17 -41 50 -171 50 -199 0 -12 -11 -16 -43 -16 -97 0 -176 -76 -177 -168
0 -103 95 -181 198 -162 61 11 91 35 119 95 21 47 23 60 14 92 -6 20 -8 39 -6
41 10 10 153 -20 203 -43 245 -112 403 -340 419 -605 10 -170 -38 -303 -148
-404 -103 -95 -206 -132 -347 -123 -130 8 -210 51 -272 147 -93 145 -66 296
69 381 75 48 174 36 232 -27 36 -39 51 -88 38 -121 -6 -17 -6 -30 0 -36 14
-14 29 29 26 74 -4 49 -27 91 -70 127 -90 74 -211 63 -311 -30 -34 -32 -48
-55 -64 -105 -23 -76 -25 -110 -6 -178 20 -77 49 -126 105 -178 93 -87 213
-123 352 -106 149 18 316 130 380 254 52 100 63 151 64 285 0 111 -3 134 -29
210 -49 148 -124 262 -232 352 -110 93 -284 168 -389 168 -63 0 -82 19 -90 92
-10 91 -60 233 -107 306 -22 34 -78 98 -124 141 -176 167 -443 248 -644 195z
m827 -724 c67 -24 99 -124 59 -185 -23 -35 -79 -58 -120 -50 -37 8 -80 46 -96
86 -23 53 21 129 86 149 39 11 37 11 71 0z"/>
<path d="M4785 18695 c-84 -88 -33 -215 86 -215 39 0 55 6 82 29 47 42 61 93
39 139 -24 50 -74 82 -130 82 -38 0 -49 -5 -77 -35z m137 -15 c40 -31 53 -72
34 -109 -36 -68 -102 -77 -151 -19 -29 35 -31 48 -9 93 24 52 84 69 126 35z"/>
<path d="M15525 18698 c-39 -31 -56 -77 -44 -120 21 -78 97 -117 165 -84 36
17 77 73 67 90 -4 6 -11 2 -17 -8 -26 -43 -43 -57 -79 -63 -33 -5 -41 -2 -72
31 -47 50 -47 87 -1 131 31 29 37 45 16 45 -4 0 -20 -10 -35 -22z"/>
<path d="M18456 18702 c-5 -9 577 -599 751 -760 67 -62 124 -108 127 -103 7
11 -108 136 -368 399 -169 171 -487 472 -499 472 -3 0 -8 -4 -11 -8z"/>
<path d="M6011 18639 c-437 -5 -800 -10 -808 -13 -8 -3 -11 -10 -8 -16 4 -6
94 -10 241 -10 l234 0 2 -872 3 -873 25 2 c25 1 317 129 615 268 44 21 85 38
90 38 6 0 71 -27 145 -60 518 -233 568 -254 575 -244 2 5 5 388 5 852 0 464 3
854 6 867 l6 22 233 0 c228 0 233 0 238 -21 3 -11 6 -401 7 -866 0 -465 3
-850 6 -855 10 -15 -11 -24 526 220 l198 90 136 -63 c75 -35 152 -69 172 -76
21 -6 42 -15 47 -19 10 -8 101 -49 269 -121 49 -21 93 -36 97 -33 5 3 9 392 9
875 l0 869 240 0 240 0 0 -874 c0 -481 4 -877 8 -880 8 -5 554 237 665 294
l57 30 97 -46 c53 -25 144 -66 202 -89 58 -24 175 -75 260 -114 85 -38 158
-68 163 -65 4 3 8 380 8 837 0 458 3 849 6 870 l7 37 238 0 239 0 0 -874 c0
-481 3 -877 8 -879 7 -5 240 98 570 251 143 66 154 69 180 57 39 -20 323 -145
328 -145 2 0 79 -33 171 -74 93 -41 175 -76 183 -78 13 -3 16 101 20 871 l5
873 235 -1 c129 -1 237 -4 240 -7 3 -3 6 -393 8 -867 2 -481 7 -866 12 -871 9
-9 108 30 298 120 63 30 115 54 117 54 2 0 39 16 82 36 66 31 207 91 223 96 3
1 30 -10 60 -25 30 -15 154 -69 275 -121 121 -51 255 -110 299 -130 43 -20 82
-33 87 -30 5 3 9 376 9 875 l0 869 38 1 c20 1 72 2 114 3 103 1 97 20 -7 24
-579 19 -7346 28 -9054 11z"/>
<path d="M2754 18281 c-47 -21 -100 -82 -110 -124 -7 -34 12 -62 21 -31 35
111 117 168 197 136 32 -13 48 2 19 17 -38 21 -85 21 -127 2z"/>
<path d="M4291 17336 l-94 -95 -74 -3 c-40 -2 -73 -2 -73 -1 0 1 27 27 60 59
62 59 79 89 62 106 -8 8 -41 -21 -110 -90 l-99 -101 -94 -20 c-546 -115 -998
-497 -1165 -984 -30 -87 -74 -295 -74 -349 0 -22 -4 -38 -10 -36 -5 2 -40 44
-77 93 -62 83 -90 105 -87 70 1 -13 115 -186 158 -240 l24 -29 71 58 c134 109
155 131 148 150 -6 15 -14 11 -64 -26 -32 -24 -73 -55 -92 -68 l-34 -24 6 75
c17 194 95 410 211 583 171 254 339 404 606 540 164 84 373 156 450 156 11 0
48 -22 80 -49 92 -76 148 -113 155 -100 9 13 -21 46 -103 112 -34 28 -59 54
-54 59 5 5 38 11 74 15 l66 6 112 -88 c74 -58 115 -84 121 -78 7 7 -18 37 -75
89 l-85 78 52 56 c109 115 144 170 109 170 -4 0 -50 -42 -101 -94z"/>
<path d="M15817 17414 c-9 -10 28 -60 104 -139 l67 -70 -79 -80 c-44 -44 -75
-83 -70 -88 8 -8 48 20 179 126 51 40 91 47 166 26 l39 -11 -87 -80 c-59 -55
-84 -84 -77 -91 7 -7 15 -7 23 0 7 5 54 42 104 81 51 40 98 72 105 72 43 0
233 -56 326 -95 233 -100 433 -242 579 -410 219 -252 328 -490 360 -785 l7
-64 -29 18 c-16 11 -45 31 -64 46 -49 38 -98 62 -105 51 -9 -15 221 -204 237
-195 9 6 105 152 148 224 21 36 28 56 21 63 -15 15 -31 -2 -96 -98 -31 -47
-60 -87 -65 -90 -4 -3 -11 23 -15 58 -28 249 -96 435 -237 645 -157 233 -337
392 -593 519 -152 76 -384 153 -460 153 -20 0 -50 22 -118 86 -110 103 -134
121 -148 107 -13 -13 35 -70 105 -125 l50 -39 -65 6 c-101 10 -101 10 -200
100 -96 86 -101 90 -112 79z"/>
<path d="M18856 17101 c-10 -11 -13 -22 -8 -25 5 -3 17 3 26 13 10 11 13 22 8
25 -5 3 -17 -3 -26 -13z"/>
<path d="M5396 15967 c-117 -129 -181 -257 -199 -399 l-11 -88 -46 117 c-26
65 -50 127 -54 137 -4 13 -10 16 -16 10 -12 -12 9 -80 68 -227 22 -53 36 -97
33 -97 -3 0 -30 16 -58 35 -99 67 -289 113 -413 101 -74 -7 -168 -30 -183 -45
-23 -23 156 -164 263 -208 122 -49 275 -47 378 6 48 24 62 26 62 8 0 -16 165
-349 210 -423 l30 -52 -107 5 c-80 4 -125 1 -173 -11 -93 -23 -236 -97 -300
-155 l-55 -49 38 -16 c128 -55 293 -63 423 -22 69 22 91 35 148 87 73 67 82
103 9 39 -25 -22 -71 -52 -102 -67 -48 -24 -71 -28 -166 -32 -62 -2 -140 2
-180 9 l-69 13 34 28 c105 88 302 148 444 134 l78 -7 51 -81 c76 -121 192
-291 259 -381 33 -43 57 -80 55 -82 -2 -2 -19 1 -38 6 -45 13 -145 13 -211 -1
-131 -28 -382 -179 -350 -211 18 -18 144 -48 227 -54 163 -13 287 27 393 126
l54 50 26 -33 c36 -43 253 -276 286 -306 14 -14 26 -27 26 -31 0 -3 -36 -2
-79 3 -126 14 -274 -24 -407 -104 -72 -44 -138 -100 -127 -109 15 -14 132 -49
200 -60 116 -19 264 6 340 57 21 14 66 50 101 80 l62 55 64 -60 c65 -60 234
-198 274 -223 12 -8 22 -16 22 -19 0 -3 -40 -1 -89 4 -73 8 -107 6 -178 -8
-88 -17 -262 -86 -283 -111 -18 -21 -4 -34 79 -71 223 -102 473 -80 597 53
l22 24 84 -54 c87 -57 170 -107 252 -154 l50 -28 -86 -7 c-55 -5 -114 -18
-164 -37 -119 -44 -195 -82 -191 -94 5 -15 97 -61 189 -94 62 -22 90 -26 188
-27 110 -1 118 1 185 32 39 18 85 47 103 65 29 28 35 30 60 20 15 -6 88 -37
162 -68 150 -63 376 -145 402 -145 35 0 26 -21 -36 -84 -83 -83 -109 -125
-148 -239 -34 -101 -52 -277 -29 -291 18 -11 142 77 207 147 107 113 152 234
138 364 -5 54 -4 65 7 61 18 -7 141 -40 244 -67 44 -11 139 -33 212 -48 l131
-27 -68 -73 c-119 -128 -190 -306 -190 -477 0 -35 3 -65 6 -69 11 -11 98 40
157 93 117 105 195 248 199 364 2 39 -1 66 -7 66 -5 0 -11 -8 -11 -17 -7 -84
-64 -212 -131 -293 -40 -48 -135 -130 -152 -130 -27 0 26 225 75 320 40 76
147 200 174 200 11 0 20 -8 22 -20 4 -27 22 -27 26 0 2 14 9 19 20 16 35 -10
340 -50 478 -62 48 -4 74 -3 78 5 9 15 4 16 -159 36 -240 31 -410 61 -411 73
-3 23 -4 24 -19 12 -12 -10 -16 -10 -19 1 -2 8 -11 40 -20 71 -39 133 -28 309
27 447 26 64 39 72 56 34 61 -133 71 -355 20 -443 -37 -64 -48 -90 -39 -95 13
-8 53 56 87 135 23 56 27 78 26 165 0 112 -32 241 -80 322 -24 41 -27 43 -43
28 -28 -25 -76 -123 -99 -202 -43 -146 -37 -305 16 -426 9 -20 14 -39 12 -41
-5 -6 -366 76 -479 108 -47 13 -100 27 -117 31 -18 4 -33 9 -33 12 0 2 15 23
33 46 50 64 74 118 93 209 16 77 16 90 1 177 -11 69 -28 118 -61 188 -27 55
-50 92 -56 88 -14 -9 -84 -148 -104 -208 -9 -27 -21 -94 -27 -149 -12 -112 -3
-186 33 -271 12 -26 19 -50 16 -52 -19 -19 -598 218 -598 245 0 5 4 10 9 10 5
0 28 28 50 61 106 159 106 334 0 566 -26 58 -31 63 -46 51 -20 -16 -86 -155
-107 -229 -35 -117 -30 -298 10 -398 8 -19 13 -36 11 -37 -6 -6 -96 41 -269
139 -177 101 -310 187 -291 187 20 0 102 89 137 150 50 85 66 148 66 260 0
102 -15 208 -32 225 -6 7 -29 -11 -68 -52 -139 -147 -210 -298 -210 -445 0
-62 -9 -84 -25 -59 -3 6 -54 47 -113 92 -59 46 -147 117 -196 158 l-88 75 23
16 c13 8 50 39 82 70 113 106 162 265 139 450 -11 86 -24 130 -41 130 -14 0
-129 -142 -176 -217 -63 -101 -89 -187 -89 -295 -1 -49 -4 -88 -7 -88 -4 0
-26 21 -50 48 -24 26 -97 104 -163 175 -113 120 -142 155 -134 161 1 2 24 17
50 35 60 40 124 133 156 225 22 65 24 82 20 201 -5 132 -17 185 -41 185 -14 0
-99 -86 -139 -140 -67 -92 -133 -277 -127 -354 5 -72 0 -71 -68 20 -37 49
-116 161 -174 249 l-107 160 55 31 c81 46 156 159 183 274 25 104 7 346 -27
357 -19 7 -116 -96 -172 -182 -55 -84 -86 -169 -102 -279 -5 -38 -11 -71 -13
-73 -4 -4 -144 269 -190 370 l-35 77 48 25 c92 46 186 183 213 308 15 74 6
273 -16 315 -9 17 -18 32 -21 32 -2 0 -33 -33 -69 -73z m62 -180 c-3 -116 -5
-126 -40 -199 -47 -100 -139 -198 -184 -198 -4 0 -4 41 -1 91 11 151 75 306
171 416 34 38 41 42 49 28 5 -9 7 -72 5 -138z m-523 -306 c83 -21 163 -53 228
-94 l39 -24 -26 -16 c-27 -18 -148 -47 -195 -47 -42 0 -204 54 -242 80 -19 13
-59 42 -89 64 l-55 41 30 6 c66 14 230 9 310 -10z m805 -239 c0 -147 -23 -240
-80 -321 -44 -62 -101 -107 -125 -97 -11 4 -15 22 -15 78 0 137 62 299 156
406 25 28 50 52 55 52 5 0 9 -52 9 -118z m415 -548 c17 -186 -37 -338 -152
-425 -69 -52 -76 -42 -63 84 10 95 44 211 81 271 22 37 111 145 120 145 4 1
10 -33 14 -75z m430 -461 c7 -99 -10 -205 -46 -279 -25 -52 -95 -132 -137
-156 l-29 -18 -6 41 c-11 85 12 197 60 294 51 102 124 205 144 205 4 0 10 -39
14 -87z m-707 -24 c33 -13 16 -38 -61 -93 -78 -56 -152 -78 -265 -78 -91 0
-212 19 -212 33 0 9 148 98 195 117 89 36 271 47 343 21z m1196 -356 c21 -132
-6 -268 -73 -369 -54 -81 -91 -115 -118 -108 -54 15 -38 189 30 323 37 71 126
190 143 191 6 0 14 -17 18 -37z m-853 -95 c58 -7 89 -16 89 -24 0 -20 -101
-101 -153 -123 -102 -44 -265 -52 -377 -18 l-45 13 59 38 c78 51 134 75 236
102 105 27 86 26 191 12z m1378 -225 c38 -97 55 -208 43 -282 -12 -68 -54
-165 -95 -215 l-24 -30 -19 75 c-25 97 -26 269 -1 357 23 84 58 165 68 155 4
-4 17 -31 28 -60z m-831 -174 c51 -14 62 -32 36 -60 -63 -70 -226 -105 -362
-79 -54 10 -192 61 -192 70 0 8 102 50 175 72 48 14 84 17 180 14 66 -3 140
-10 163 -17z m1512 -134 c39 -110 44 -210 16 -295 -19 -55 -81 -176 -95 -185
-9 -5 -35 84 -52 179 -18 104 14 285 68 390 18 35 19 34 63 -89z m-866 -238
c57 -26 58 -28 42 -46 -9 -10 -45 -31 -79 -47 -114 -51 -287 -43 -431 20 l-50
22 79 32 c121 47 141 51 265 49 102 -2 122 -5 174 -30z m778 -339 c9 -125 -27
-241 -101 -324 -49 -55 -144 -134 -161 -134 -31 0 31 241 83 325 37 60 145
175 163 175 8 0 14 -16 16 -42z"/>
<path d="M15001 16026 c-32 -39 -42 -260 -16 -361 25 -97 89 -191 170 -253 42
-31 69 -58 67 -68 -5 -25 -132 -284 -176 -358 l-40 -69 -13 89 c-20 143 -54
217 -156 341 -60 73 -101 108 -116 99 -16 -10 -33 -132 -33 -231 1 -107 19
-179 66 -260 28 -46 113 -129 151 -147 14 -6 25 -16 25 -22 0 -21 -325 -485
-340 -486 -3 0 -6 31 -7 68 -2 79 -22 162 -53 222 -63 123 -193 272 -216 247
-23 -25 -34 -83 -34 -186 0 -182 38 -279 153 -394 l69 -68 -43 -47 c-112 -123
-294 -312 -301 -312 -3 0 -4 25 -1 55 8 73 -11 165 -52 250 -38 81 -77 137
-158 226 -54 59 -60 63 -72 46 -7 -10 -19 -57 -26 -104 -32 -216 34 -385 205
-526 l29 -24 -92 -79 c-51 -43 -134 -110 -185 -148 -50 -37 -101 -77 -113 -89
l-23 -20 0 61 c0 125 -47 255 -133 367 -59 78 -132 149 -145 141 -32 -20 -44
-282 -17 -373 23 -77 63 -142 128 -207 32 -32 55 -62 50 -66 -26 -25 -397
-243 -477 -281 -26 -12 -49 -25 -52 -30 -14 -24 -23 -5 -10 24 42 102 49 267
16 387 -24 86 -104 260 -119 260 -14 0 -67 -105 -92 -183 -11 -34 -23 -103
-26 -153 -8 -135 28 -248 110 -341 16 -19 28 -36 26 -38 -13 -12 -499 -206
-578 -230 -21 -6 -23 -5 -16 11 38 93 48 144 47 249 0 80 -6 129 -21 178 -22
74 -102 239 -119 245 -16 5 -80 -140 -104 -232 -36 -142 -13 -274 73 -407 47
-74 52 -49 9 44 -48 102 -63 180 -51 265 10 66 57 218 71 227 11 7 55 -97 75
-180 26 -103 25 -213 -4 -317 -18 -65 -30 -91 -48 -103 -37 -25 -618 -173
-630 -161 -2 2 5 23 15 47 53 124 56 304 7 437 -34 93 -90 197 -107 197 -37 0
-118 -236 -118 -346 0 -105 40 -239 87 -291 30 -34 32 -7 3 50 -68 134 -61
325 16 473 l17 34 22 -50 c45 -102 68 -221 62 -325 -6 -105 -41 -231 -67 -237
-64 -15 -433 -72 -466 -73 -22 0 -44 -3 -48 -7 -4 -4 -25 -6 -46 -4 -22 1 -45
-1 -51 -5 -7 -4 -32 -8 -55 -8 -24 -1 -45 -5 -46 -11 -4 -12 57 -19 80 -9 10
4 34 6 54 5 21 -2 43 1 50 5 6 4 34 6 60 5 26 -1 81 2 120 8 40 6 129 18 198
27 69 9 129 17 134 18 5 0 8 -44 7 -98 -1 -86 2 -110 25 -168 14 -38 45 -94
68 -126 65 -87 229 -214 256 -197 24 15 0 234 -35 320 -40 99 -96 182 -169
247 -48 43 -56 37 109 73 66 15 183 42 260 62 77 19 149 37 160 40 19 4 20 -1
20 -95 0 -96 1 -101 42 -184 33 -66 58 -100 111 -150 72 -67 188 -145 200
-133 4 3 6 37 4 73 -9 197 -73 356 -189 468 l-64 61 98 33 c114 37 279 101
412 159 52 23 98 41 103 41 4 0 35 -20 69 -45 80 -59 149 -79 269 -79 77 0
110 6 173 27 98 34 199 85 195 98 -4 12 -150 79 -229 106 -35 11 -84 18 -141
18 -49 0 -88 3 -88 6 0 4 21 16 48 28 53 24 254 146 305 185 19 14 37 26 42
26 4 0 26 -16 48 -36 22 -20 69 -50 106 -67 120 -57 309 -47 459 24 74 34 104
57 96 71 -10 16 -139 76 -214 99 -81 25 -220 32 -314 16 l-49 -9 89 68 c49 37
135 107 192 156 l102 90 68 -62 c37 -34 89 -73 115 -86 71 -37 186 -57 281
-49 74 5 219 45 240 65 22 22 -204 160 -321 195 -67 20 -168 28 -240 17 -35
-5 -63 -8 -63 -6 0 1 51 56 114 121 62 65 139 148 171 185 l57 68 60 -55 c33
-31 81 -66 106 -79 119 -60 341 -58 496 3 l29 12 -39 40 c-76 79 -213 146
-342 169 -69 13 -189 10 -226 -5 -11 -5 8 27 46 76 35 46 113 158 172 249 60
91 110 166 111 167 1 2 27 -22 59 -53 100 -97 234 -142 381 -129 70 6 212 41
229 57 12 10 -32 57 -102 110 -65 48 -166 92 -250 109 -61 11 -197 8 -250 -7
-22 -6 -22 -5 9 47 58 97 106 192 160 314 28 66 55 124 60 129 4 5 28 -1 52
-13 25 -12 80 -29 123 -38 71 -14 84 -14 163 1 52 11 111 31 152 52 71 38 226
172 212 185 -14 13 -125 38 -204 45 -139 12 -292 -28 -404 -107 -30 -21 -55
-37 -55 -35 0 2 12 30 26 62 34 76 94 249 97 283 2 15 6 32 10 38 4 7 3 14 -3
18 -5 3 -11 4 -11 1 -3 -13 -6 -22 -14 -41 -5 -11 -32 -80 -61 -154 l-52 -133
-7 63 c-14 135 -60 246 -152 364 -70 90 -117 130 -132 111z m111 -169 c87
-128 128 -251 128 -384 l0 -84 -28 15 c-71 37 -147 150 -176 263 -16 60 -21
217 -10 261 6 22 7 22 26 5 11 -10 38 -44 60 -76z m721 -363 c20 -4 37 -10 37
-13 0 -10 -90 -75 -151 -109 -30 -17 -90 -40 -134 -52 -72 -20 -87 -21 -155
-10 -79 13 -140 33 -140 47 0 23 167 105 260 128 58 14 219 19 283 9z m-1010
-215 c69 -89 116 -203 126 -304 7 -81 3 -155 -8 -155 -20 0 -79 50 -113 95
-66 87 -81 140 -86 304 -3 117 -1 143 10 139 7 -2 39 -38 71 -79z m462 -494
c75 -20 215 -88 244 -119 l23 -24 -58 -12 c-76 -16 -246 -14 -311 4 -59 16
-99 41 -160 100 -48 45 -51 52 -25 59 43 12 232 6 287 -8z m-810 -200 c44 -90
65 -180 65 -277 0 -69 -2 -78 -19 -78 -23 0 -112 94 -139 146 -36 70 -54 154
-56 248 0 50 3 104 7 119 l8 28 50 -58 c27 -32 65 -90 84 -128z m-490 -350
c90 -122 140 -269 129 -381 -4 -35 -11 -67 -16 -70 -14 -9 -124 109 -153 165
-34 68 -55 166 -55 263 0 101 5 113 35 90 12 -9 39 -39 60 -67z m866 -25 c37
-5 93 -22 125 -36 62 -27 164 -91 164 -103 0 -13 -132 -34 -215 -34 -122 0
-204 27 -287 96 -68 56 -64 72 20 84 69 10 80 10 193 -7z m-1318 -450 c65
-110 80 -157 85 -272 4 -93 2 -108 -12 -114 -40 -16 -137 99 -178 211 -17 47
-22 83 -22 170 -1 61 3 119 7 130 8 18 12 16 48 -25 22 -25 55 -70 72 -100z
m941 -22 c76 -19 148 -50 231 -102 l40 -25 -27 -10 c-101 -38 -266 -38 -376 2
-61 21 -172 108 -172 134 0 14 131 32 185 25 22 -2 76 -13 119 -24z m-1531
-201 c41 -102 57 -179 57 -270 0 -84 -24 -234 -40 -251 -15 -15 -58 46 -92
129 -28 70 -32 91 -31 170 0 50 6 110 13 135 20 72 51 150 60 150 4 0 19 -29
33 -63z m1121 -177 c42 -10 98 -29 124 -40 44 -20 46 -22 28 -35 -36 -27 -172
-66 -247 -72 -120 -9 -216 20 -288 87 -41 38 -36 43 61 64 95 21 231 19 322
-4z m-614 -368 c30 -11 73 -28 95 -37 l39 -17 -57 -24 c-187 -79 -384 -70
-497 24 l-25 20 65 31 c64 30 67 31 195 27 100 -2 143 -8 185 -24z m-1043
-392 c62 -75 87 -122 117 -212 29 -90 44 -198 28 -198 -17 0 -126 94 -165 142
-87 108 -124 252 -91 356 6 19 56 -21 111 -88z m-741 -122 c58 -61 98 -116
126 -173 28 -56 60 -148 64 -185 1 -13 6 -46 9 -72 4 -26 4 -48 1 -48 -3 0
-33 20 -65 45 -97 73 -185 199 -205 291 -5 24 -10 145 -7 177 2 20 41 2 77
-35z"/>
<path d="M19319 15868 c-3 -5 -6 -118 -13 -458 -8 -361 -9 -11089 -1 -11165 3
-27 6 -65 8 -83 2 -18 0 -35 -5 -38 -5 -3 -5 -11 -1 -17 4 -7 8 -40 8 -74 0
-35 4 -63 10 -63 6 0 11 63 13 157 4 225 8 9497 4 10715 -2 617 -7 1020 -13
1023 -5 4 -10 5 -10 3z"/>
<path d="M1217 15743 c-8 -8 -10 -767 -11 -4813 -1 -4982 2 -6708 15 -6731 5
-11 14 -17 19 -14 5 3 10 404 12 893 4 1220 -2 10031 -7 10062 -3 14 -5 154
-5 312 -1 261 -5 310 -23 291z"/>
<path d="M8114 15608 c-119 -79 -296 -275 -419 -466 l-60 -92 -105 1 c-58 0
-122 3 -143 7 l-38 7 104 159 c119 179 138 227 116 289 -11 33 -23 46 -63 66
-43 22 -62 25 -140 25 -213 -3 -438 -136 -521 -309 -38 -78 -42 -178 -9 -221
34 -46 70 -67 123 -72 46 -4 57 -1 105 31 58 39 110 109 127 171 10 35 8 46
-7 75 -28 51 -39 44 -39 -29 0 -72 -22 -119 -76 -165 -42 -35 -130 -36 -153
-3 -45 63 9 213 114 318 72 72 197 137 285 148 79 10 144 0 162 -24 37 -51
-38 -207 -209 -436 -8 -11 -38 -21 -83 -28 -44 -7 -76 -17 -85 -28 -8 -10 -30
-28 -47 -40 -60 -42 -28 -69 34 -29 33 22 123 47 123 34 0 -2 -25 -51 -55
-108 -58 -111 -63 -130 -40 -149 26 -21 52 8 118 130 l62 115 153 3 c83 1 152
-1 152 -5 -1 -5 -9 -33 -20 -63 -25 -72 -25 -121 1 -154 25 -31 57 -33 115 -7
42 19 88 67 79 82 -3 4 -27 -5 -52 -21 -69 -44 -77 -41 -70 25 8 79 50 151 96
166 45 14 55 24 47 44 -4 13 -10 14 -26 5 -43 -23 -38 -2 22 85 112 166 328
409 391 442 28 14 28 15 11 34 -22 25 -22 25 -80 -13z"/>
<path d="M10465 15453 c-76 -6 -190 -35 -255 -65 -147 -66 -232 -211 -170
-290 37 -48 88 -41 56 7 -21 32 -20 48 4 94 59 117 265 211 463 211 100 0 160
-15 197 -50 27 -25 30 -34 30 -89 0 -72 -18 -97 -97 -133 -39 -18 -64 -22
-137 -20 -49 1 -91 4 -94 7 -8 8 94 110 156 156 69 52 67 80 -6 95 -29 6 -38
0 -115 -74 -45 -45 -136 -153 -202 -241 -66 -89 -122 -161 -125 -161 -3 0 -17
27 -32 60 -24 56 -29 60 -59 60 -26 0 -42 -10 -79 -48 -55 -58 -105 -176 -94
-226 10 -52 31 -76 65 -76 29 0 46 8 120 57 l36 23 37 -35 c49 -46 127 -69
236 -69 78 0 92 3 169 39 126 59 191 143 191 245 0 50 -3 56 -50 103 -27 27
-50 51 -50 52 0 1 22 5 48 9 68 9 138 56 162 109 25 55 25 91 -1 145 -18 36
-32 49 -75 69 -83 38 -183 49 -329 36z m-25 -363 c-9 -17 -7 -22 15 -30 15 -6
42 -10 61 -10 41 0 68 -12 106 -48 72 -67 31 -174 -101 -259 -98 -64 -229 -54
-286 21 -14 18 -25 38 -25 45 0 12 227 301 237 301 2 0 -1 -9 -7 -20z m-362
-213 c17 -36 20 -52 12 -66 -15 -29 -98 -94 -110 -86 -34 21 27 214 64 202 6
-1 21 -24 34 -50z"/>
<path d="M12081 15274 c-33 -23 -134 -162 -171 -236 -47 -92 -82 -139 -142
-189 -68 -58 -113 -84 -164 -98 -88 -23 -96 15 -29 134 73 128 65 122 194 145
63 12 118 23 123 26 23 14 -11 24 -83 24 -43 0 -79 3 -79 6 0 3 7 18 16 34 21
34 13 57 -22 66 -24 6 -33 1 -71 -45 -37 -41 -51 -51 -77 -51 -36 0 -76 -24
-76 -45 0 -8 10 -20 23 -26 12 -6 23 -13 25 -14 4 -3 -50 -97 -76 -132 -53
-71 -163 -140 -200 -125 -11 4 -13 18 -10 54 5 49 34 100 110 191 l32 38 -22
22 -23 22 -37 -21 c-59 -34 -79 -16 -41 35 24 32 22 69 -4 85 -15 9 -23 5 -48
-22 -16 -18 -29 -38 -29 -46 0 -41 -129 -218 -214 -293 -151 -133 -178 -66
-45 116 65 89 68 96 52 113 -27 30 -58 22 -102 -29 -97 -110 -137 -260 -81
-305 31 -25 88 -18 140 16 52 35 169 154 219 223 39 54 46 60 63 50 10 -7 16
-16 14 -22 -65 -142 -74 -209 -36 -250 43 -46 139 -30 212 34 36 31 48 31 48
-1 0 -36 36 -58 97 -58 46 0 68 7 120 35 l64 35 -3 -32 c-3 -31 -1 -33 27 -33
23 0 35 9 60 43 65 94 225 246 241 230 3 -3 -14 -35 -37 -72 -38 -61 -41 -71
-37 -118 4 -38 12 -57 28 -70 33 -27 52 -23 117 26 l58 44 8 -28 c17 -66 105
-81 174 -31 22 16 49 41 61 55 l20 26 7 -40 c13 -76 83 -92 166 -39 26 16 53
37 59 44 15 18 30 10 30 -15 0 -29 47 -60 90 -60 31 0 47 9 88 45 56 50 62 53
62 26 0 -10 9 -29 19 -42 27 -33 84 -31 135 4 l39 27 24 -26 c21 -23 30 -26
64 -21 40 5 117 55 186 120 18 17 35 28 38 25 9 -8 -60 -143 -108 -210 -74
-107 -135 -133 -189 -81 -37 35 -58 20 -38 -27 18 -43 47 -60 101 -60 37 0 54
7 91 35 64 50 97 95 172 235 37 68 89 156 117 195 27 39 49 77 49 83 0 17 -38
34 -59 27 -11 -3 -31 -21 -45 -39 -39 -52 -82 -92 -165 -155 -174 -132 -198
-115 -63 46 91 110 97 120 82 138 -34 41 -95 1 -194 -132 -62 -81 -137 -153
-162 -153 -37 0 -9 78 73 201 43 64 48 89 19 89 -7 0 -30 13 -51 29 -37 28
-40 28 -92 16 -76 -18 -115 -47 -242 -183 -151 -161 -231 -203 -231 -120 1 63
61 163 222 366 62 78 67 92 42 113 -32 27 -112 -44 -179 -159 -14 -22 -24 -30
-35 -26 -61 26 -138 8 -207 -49 -28 -23 -86 -82 -129 -131 -43 -49 -99 -102
-124 -118 l-45 -29 -3 32 c-3 30 15 64 93 169 61 83 59 79 40 100 -10 11 -25
20 -33 20 -27 0 -103 -42 -175 -96 -39 -29 -73 -52 -75 -49 -4 4 21 39 131
188 79 105 93 133 76 153 -15 18 -29 18 -58 -2z m489 -245 c0 -7 -43 -63 -95
-125 -88 -104 -145 -154 -174 -154 -16 0 -13 40 8 85 38 85 261 250 261 194z
m502 5 c7 -6 -66 -115 -126 -188 -36 -44 -117 -106 -138 -106 -4 0 -8 20 -8
44 0 36 7 53 38 93 74 93 208 183 234 157z"/>
<path d="M8088 15186 c-36 -12 -85 -35 -108 -51 -43 -30 -112 -110 -142 -167
-42 -78 -3 -158 77 -158 34 0 49 7 92 45 50 44 52 45 58 23 4 -13 17 -33 28
-46 17 -18 27 -21 56 -16 20 4 44 13 54 22 23 21 22 1 -3 -48 -28 -55 -26
-121 3 -156 36 -41 58 -28 51 30 -5 37 -1 56 26 115 18 39 34 71 34 71 1 0 19
-9 41 -20 89 -45 190 -13 297 95 59 60 81 108 73 162 -9 62 -37 77 -145 80
-47 1 -94 2 -104 3 -25 1 -68 -41 -118 -113 -46 -67 -139 -162 -180 -183 -25
-13 -29 -13 -34 0 -7 19 26 93 83 185 l46 74 -22 19 c-13 10 -29 18 -36 18 -7
0 -23 9 -37 19 -24 19 -25 19 -90 -3z m82 -54 c0 -13 -72 -115 -124 -176 -53
-62 -129 -107 -148 -88 -31 31 70 166 177 238 46 31 95 45 95 26z m480 -54 c0
-45 -57 -125 -117 -165 -84 -56 -187 -52 -168 6 4 13 44 61 89 107 l81 84 58
0 57 0 0 -32z"/>
<path d="M11018 15176 c-29 -15 -35 -42 -12 -67 24 -26 60 -24 79 5 30 45 -16
87 -67 62z"/>
<path d="M8859 15157 c-78 -68 -246 -353 -264 -447 -5 -27 -1 -43 17 -70 13
-19 32 -35 42 -35 16 0 19 9 20 65 2 49 9 79 30 120 15 30 29 56 30 57 1 2 20
-6 41 -17 22 -11 56 -20 77 -20 86 0 195 65 259 153 24 33 29 50 29 98 0 50
-3 60 -25 78 -35 27 -73 34 -125 22 -34 -8 -48 -6 -64 5 -27 19 -36 17 -67 -9z
m199 -84 c4 -40 -27 -102 -70 -138 -69 -58 -161 -82 -203 -51 -18 13 -17 16
21 61 53 66 125 139 149 153 11 7 38 11 60 9 37 -2 40 -4 43 -34z"/>
<path d="M9273 15150 c-47 -28 -154 -183 -173 -250 -12 -43 19 -80 68 -80 42
0 69 15 167 93 38 31 71 54 73 52 11 -11 -109 -214 -154 -261 -72 -74 -94 -78
-149 -24 -50 49 -65 40 -36 -24 31 -70 90 -87 167 -48 67 35 123 106 206 262
25 47 70 123 101 169 45 67 54 88 46 103 -21 39 -58 20 -147 -74 -67 -71 -157
-145 -211 -172 -76 -40 -68 -9 29 108 103 125 106 131 78 150 -28 20 -26 20
-65 -4z"/>
<path d="M1565 15101 c-7 -12 12 -24 25 -16 11 7 4 25 -10 25 -5 0 -11 -4 -15
-9z"/>
<path d="M18974 15099 c-10 -17 13 -36 27 -22 12 12 4 33 -11 33 -5 0 -12 -5
-16 -11z"/>
<path d="M1564 14899 c-3 -6 -1 -16 4 -21 13 -13 45 8 36 23 -7 12 -31 11 -40
-2z"/>
<path d="M18974 14899 c-10 -17 13 -36 27 -22 12 12 4 33 -11 33 -5 0 -12 -5
-16 -11z"/>
<path d="M1564 14689 c-10 -17 13 -36 27 -22 12 12 4 33 -11 33 -5 0 -12 -5
-16 -11z"/>
<path d="M18975 14690 c-11 -17 5 -32 21 -19 7 6 11 15 8 20 -7 12 -21 11 -29
-1z"/>
<path d="M1564 14489 c-10 -17 13 -36 27 -22 12 12 4 33 -11 33 -5 0 -12 -5
-16 -11z"/>
<path d="M18974 14489 c-10 -17 13 -36 27 -22 12 12 4 33 -11 33 -5 0 -12 -5
-16 -11z"/>
<path d="M2591 14362 c-24 -44 -15 -1570 9 -1596 18 -19 28 37 34 199 12 322
16 980 6 1125 -18 276 -26 316 -49 272z"/>
<path d="M2844 14369 c-4 -8 -9 -167 -11 -354 -2 -187 -4 -407 -5 -490 -3
-224 13 -727 24 -749 18 -34 27 -2 32 114 3 63 6 115 7 115 7 0 11 978 4 1045
-2 25 -7 104 -11 175 -4 84 -11 135 -19 143 -10 12 -14 12 -21 1z"/>
<path d="M3619 14363 c-12 -13 -14 -148 -12 -777 0 -426 5 -774 10 -791 38
-123 52 112 56 925 1 223 -21 647 -33 655 -4 3 -14 -3 -21 -12z"/>
<path d="M3871 14359 c-20 -54 -15 -1557 6 -1592 14 -24 24 24 34 163 13 198
14 1158 1 1313 -10 123 -24 161 -41 116z"/>
<path d="M1564 14289 c-9 -16 12 -33 31 -25 14 5 15 9 5 21 -15 18 -26 19 -36
4z"/>
<path d="M18971 14286 c-8 -10 -8 -16 3 -25 10 -9 16 -8 26 3 12 15 6 36 -9
36 -5 0 -14 -6 -20 -14z"/>
<path d="M16330 14280 c-8 -5 -22 -11 -30 -13 -9 -3 -29 -24 -45 -48 -25 -35
-30 -52 -30 -100 0 -47 4 -62 25 -84 32 -34 102 -52 230 -59 119 -7 226 -29
252 -53 16 -14 18 -14 24 0 8 21 -91 179 -158 252 -66 72 -143 115 -205 114
-27 0 -55 -4 -63 -9z m128 -55 c45 -23 123 -96 182 -170 54 -69 51 -76 -20
-55 -19 6 -86 15 -148 20 -162 14 -202 36 -202 109 0 21 11 43 36 71 32 35 42
40 79 40 23 0 56 -7 73 -15z"/>
<path d="M17720 14281 c-94 -29 -201 -131 -284 -270 -53 -89 -53 -116 0 -88
50 26 114 39 234 47 64 5 136 14 159 21 117 35 122 207 8 274 -45 25 -72 29
-117 16z m85 -55 c66 -28 85 -113 37 -167 -26 -29 -32 -31 -142 -40 -63 -6
-140 -16 -170 -24 -30 -7 -57 -12 -59 -9 -7 7 53 79 130 156 94 94 137 111
204 84z"/>
<path d="M1565 14080 c-4 -7 -3 -16 3 -22 14 -14 45 -2 40 15 -6 16 -34 21
-43 7z"/>
<path d="M18974 14079 c-10 -17 13 -36 27 -22 12 12 4 33 -11 33 -5 0 -12 -5
-16 -11z"/>
<path d="M1565 13880 c-4 -6 -1 -18 6 -26 12 -14 14 -14 26 2 7 9 10 21 7 25
-7 12 -31 11 -39 -1z"/>
<path d="M18970 13875 c-10 -12 -9 -16 5 -21 19 -8 40 9 31 25 -10 15 -21 14
-36 -4z"/>
<path d="M16306 13679 c-86 -20 -150 -96 -143 -167 9 -81 91 -132 213 -132
107 0 363 85 336 112 -8 8 -27 4 -65 -11 -111 -45 -305 -65 -371 -37 -58 24
-84 87 -52 128 22 30 97 58 154 58 32 0 84 -10 129 -26 79 -27 204 -84 227
-103 14 -12 26 -5 26 15 0 14 -121 92 -190 123 -44 19 -181 52 -210 50 -8 -1
-33 -5 -54 -10z"/>
<path d="M1564 13669 c-10 -17 13 -36 27 -22 12 12 4 33 -11 33 -5 0 -12 -5
-16 -11z"/>
<path d="M17682 13659 c-120 -32 -302 -135 -286 -161 11 -18 164 -84 235 -102
36 -9 101 -16 145 -16 66 0 88 5 134 28 46 23 57 34 68 67 19 57 7 100 -38
145 -63 63 -131 73 -258 39z m208 -58 c25 -13 39 -30 50 -60 15 -42 15 -43
-12 -66 -15 -13 -50 -31 -79 -40 -45 -15 -63 -16 -133 -6 -45 6 -124 25 -177
43 l-96 31 91 45 c115 56 163 70 251 71 51 1 80 -4 105 -18z"/>
<path d="M18970 13665 c-10 -12 -9 -16 5 -21 19 -8 40 9 31 25 -10 15 -21 14
-36 -4z"/>
<path d="M1565 13470 c-4 -7 -3 -16 3 -22 14 -14 45 -2 40 15 -6 16 -34 21
-43 7z"/>
<path d="M18970 13465 c-10 -12 -9 -16 5 -21 19 -8 40 9 31 25 -10 15 -21 14
-36 -4z"/>
<path d="M1563 13264 c-8 -21 13 -42 28 -27 13 13 5 43 -11 43 -6 0 -13 -7
-17 -16z"/>
<path d="M18973 13264 c-8 -21 13 -42 28 -27 13 13 5 43 -11 43 -6 0 -13 -7
-17 -16z"/>
<path d="M16686 13134 c-49 -26 -158 -43 -276 -44 -106 -1 -180 -59 -180 -143
0 -55 22 -100 66 -133 33 -25 46 -29 103 -29 58 0 72 4 112 32 76 53 195 204
235 299 21 51 10 54 -60 18z m-8 -64 c-1 -5 -40 -52 -85 -104 -85 -97 -142
-136 -199 -136 -72 0 -138 82 -113 141 21 52 68 71 193 80 61 4 125 12 141 17
40 13 67 14 63 2z"/>
<path d="M17386 13142 c-8 -13 21 -61 103 -172 89 -121 160 -175 245 -185 88
-11 159 29 185 104 16 50 14 78 -11 123 -32 56 -67 67 -246 78 -131 8 -162 13
-209 35 -63 29 -60 28 -67 17z m144 -82 c14 -4 75 -10 135 -14 181 -12 215
-29 215 -109 0 -31 -7 -45 -31 -68 -67 -62 -150 -45 -256 55 -95 88 -152 170
-105 151 9 -4 28 -11 42 -15z"/>
<path d="M1565 13060 c-4 -7 -3 -16 3 -22 14 -14 45 -2 40 15 -6 16 -34 21
-43 7z"/>
<path d="M18974 13059 c-10 -17 13 -36 27 -22 12 12 4 33 -11 33 -5 0 -12 -5
-16 -11z"/>
<path d="M1565 12860 c-4 -7 -3 -16 3 -22 14 -14 45 -2 40 15 -6 16 -34 21
-43 7z"/>
<path d="M18964 12859 c-10 -17 23 -46 37 -32 7 7 9 19 6 27 -7 18 -33 21 -43
5z"/>
<path d="M1570 12655 c-20 -24 4 -45 26 -24 13 14 13 17 1 27 -11 10 -17 9
-27 -3z"/>
<path d="M18966 12651 c-9 -15 23 -36 36 -23 5 5 7 15 4 21 -9 13 -33 14 -40
2z"/>
<path d="M9515 12460 c-3 -5 0 -13 8 -16 23 -8 82 0 82 11 0 14 -82 19 -90 5z"/>
<path d="M1563 12444 c-9 -23 13 -40 32 -24 12 10 13 16 4 26 -15 18 -28 18
-36 -2z"/>
<path d="M9766 12451 c-4 -5 -2 -12 3 -15 5 -4 12 -2 15 3 4 5 2 12 -3 15 -5
4 -12 2 -15 -3z"/>
<path d="M18970 12445 c-10 -12 -9 -16 5 -21 19 -8 40 9 31 25 -10 15 -21 14
-36 -4z"/>
<path d="M1563 12244 c-9 -23 13 -40 32 -24 12 10 13 16 4 26 -15 18 -28 18
-36 -2z"/>
<path d="M18973 12244 c-8 -21 13 -42 28 -27 13 13 5 43 -11 43 -6 0 -13 -7
-17 -16z"/>
<path d="M1565 12040 c-4 -7 -3 -16 3 -22 14 -14 45 -2 40 15 -6 16 -34 21
-43 7z"/>
<path d="M18974 12039 c-10 -17 13 -36 27 -22 12 12 4 33 -11 33 -5 0 -12 -5
-16 -11z"/>
<path d="M1570 11834 c-9 -10 -10 -18 -2 -26 12 -12 32 -2 32 17 0 21 -16 26
-30 9z"/>
<path d="M18973 11834 c-9 -23 13 -40 32 -24 12 10 13 16 4 26 -15 18 -28 18
-36 -2z"/>
<path d="M2942 11778 c-9 -9 -12 -172 -12 -695 l0 -683 -134 0 c-74 0 -137 -4
-140 -9 -7 -11 69 -147 259 -466 70 -117 102 -172 201 -344 27 -47 54 -86 61
-88 7 -3 24 15 39 39 61 95 404 688 438 756 45 90 40 105 -38 100 -63 -4 -63
-21 -1 -28 l46 -5 -29 -45 c-40 -61 -199 -324 -230 -380 -14 -25 -57 -99 -97
-165 -39 -66 -82 -139 -95 -162 -13 -24 -27 -43 -32 -43 -4 0 -20 24 -34 53
-15 28 -41 77 -59 107 -18 30 -87 147 -152 260 -66 113 -143 241 -171 285
l-51 80 127 5 127 5 3 693 2 692 215 0 215 0 0 -352 c0 -486 11 -1001 20
-1012 5 -4 12 -6 17 -3 4 3 6 322 3 709 l-5 703 -240 3 c-179 2 -244 -1 -253
-10z"/>
<path d="M17108 11673 c-145 -243 -386 -658 -422 -730 l-26 -52 21 -11 c28
-15 56 -5 40 14 -15 17 13 74 118 246 39 63 130 215 203 337 73 123 135 223
138 223 6 0 57 -82 160 -260 37 -63 104 -178 150 -255 117 -197 150 -256 150
-266 0 -5 -54 -9 -120 -9 -88 0 -122 -3 -125 -12 -2 -7 -6 -30 -10 -51 l-6
-39 -42 6 c-23 3 -119 5 -214 5 l-172 1 -3 43 -3 42 -56 3 c-41 2 -59 -1 -69
-13 -7 -8 -9 -16 -4 -16 5 -1 14 -2 19 -4 6 -1 24 -3 41 -3 l31 -2 1 -684 c0
-377 3 -690 7 -695 10 -17 501 -15 512 2 4 6 9 318 10 692 l1 680 139 5 c116
4 137 7 135 20 -2 8 -32 62 -67 120 -97 161 -286 486 -335 575 -55 99 -118
195 -129 195 -5 0 -38 -48 -73 -107z m272 -958 l0 -55 -215 0 -215 0 0 48 c0
27 3 52 7 55 3 4 100 7 215 7 l208 0 0 -55z m-2 -157 c-3 -51 -4 -53 -30 -52
-16 0 -111 1 -213 2 l-185 2 0 50 0 50 216 0 215 0 -3 -52z m2 -148 l0 -50
-215 0 -215 0 0 50 0 50 215 0 215 0 0 -50z m0 -154 l0 -54 -202 3 c-112 1
-209 3 -215 4 -9 1 -13 18 -13 51 l0 50 215 0 215 0 0 -54z m0 -151 l0 -55
-212 2 c-237 3 -227 0 -213 74 l6 34 209 0 210 0 0 -55z m0 -160 l0 -55 -212
3 -213 2 -3 53 -3 52 215 0 216 0 0 -55z m0 -150 l0 -55 -212 2 -213 3 -3 53
-3 52 215 0 216 0 0 -55z m1 -157 c1 -29 2 -66 3 -83 l1 -30 -215 0 -215 0 -3
83 -3 82 216 0 215 0 1 -52z"/>
<path d="M3063 11648 c-4 -7 -9 -319 -11 -693 -2 -374 -6 -682 -8 -684 -2 -2
-34 -6 -71 -8 -37 -3 -72 -8 -76 -13 -9 -8 28 -79 133 -260 40 -69 87 -149
104 -179 17 -30 36 -56 42 -58 13 -4 14 -3 171 255 68 113 125 214 126 226 2
19 -4 21 -78 26 l-80 5 0 695 0 695 -122 3 c-90 2 -124 -1 -130 -10z m207 -40
c1 -7 3 -317 5 -687 4 -770 -6 -701 98 -701 43 0 58 -3 54 -12 -2 -7 -35 -61
-73 -120 -38 -59 -91 -145 -118 -192 -27 -48 -53 -86 -57 -86 -5 0 -31 39 -60
88 -28 48 -82 137 -120 198 -38 61 -69 113 -69 117 0 3 37 7 83 9 l82 3 3 698
2 697 85 0 c61 0 85 -4 85 -12z"/>
<path d="M1564 11635 c-7 -18 3 -35 21 -35 21 0 28 19 15 35 -16 19 -29 19
-36 0z"/>
<path d="M18974 11635 c-15 -10 -16 -16 -7 -26 14 -15 43 -5 43 15 0 22 -15
27 -36 11z"/>
<path d="M1563 11424 c-9 -23 13 -40 32 -24 12 10 13 16 4 26 -15 18 -28 18
-36 -2z"/>
<path d="M18971 11426 c-17 -20 13 -43 34 -26 12 10 13 16 4 26 -6 8 -15 14
-19 14 -4 0 -13 -6 -19 -14z"/>
<path d="M4910 11344 c-48 -21 -68 -41 -96 -96 -28 -55 -30 -80 -9 -139 17
-48 55 -93 97 -115 41 -21 134 -18 173 6 36 23 80 82 89 122 8 34 7 34 336 28
263 -6 2550 -15 3607 -15 l552 0 20 -46 c29 -70 78 -103 160 -107 88 -4 135
22 171 94 27 56 43 64 125 64 36 0 44 -4 49 -23 7 -31 71 -104 107 -122 15 -8
52 -15 82 -15 83 0 142 49 171 143 4 13 17 17 60 17 l54 0 23 -47 c14 -28 43
-62 67 -80 37 -28 52 -33 99 -33 89 0 142 37 172 122 l10 28 438 2 c241 2 989
4 1663 6 1028 2 1898 9 1960 16 17 2 21 20 4 22 -6 1 -919 5 -2030 9 -1110 4
-2022 10 -2025 14 -4 3 -12 23 -18 43 -7 20 -30 52 -51 72 -96 86 -261 41
-298 -82 -13 -42 -13 -42 -62 -42 l-49 0 -24 54 c-46 99 -131 136 -236 101
-55 -18 -87 -51 -115 -117 l-15 -38 -64 0 -64 0 -17 43 c-66 174 -318 164
-361 -15 l-7 -28 -942 1 c-517 0 -1125 -2 -1351 -5 -305 -4 -1639 -8 -2162 -6
-27 0 -32 4 -38 33 -23 111 -150 177 -255 131z"/>
<path d="M15405 11341 c-22 -10 -48 -28 -58 -39 -26 -29 -67 -134 -58 -147 5
-5 11 -23 15 -40 19 -79 93 -135 179 -135 64 0 99 14 138 57 76 81 75 180 -2
267 -49 56 -137 71 -214 37z"/>
<path d="M1571 11226 c-14 -17 -7 -36 14 -36 22 0 29 20 13 36 -13 13 -16 13
-27 0z"/>
<path d="M18973 11224 c-8 -21 13 -42 28 -27 13 13 5 43 -11 43 -6 0 -13 -7
-17 -16z"/>
<path d="M1563 11014 c-3 -8 -1 -20 6 -27 14 -14 47 15 37 32 -10 16 -36 13
-43 -5z"/>
<path d="M18964 11019 c-10 -17 23 -46 37 -32 7 7 9 19 6 27 -7 18 -33 21 -43
5z"/>
<path d="M16756 10891 c-4 -5 -2 -12 3 -15 5 -4 12 -2 15 3 4 5 2 12 -3 15 -5
4 -12 2 -15 -3z"/>
<path d="M1571 10816 c-14 -17 -7 -36 14 -36 22 0 29 20 13 36 -13 13 -16 13
-27 0z"/>
<path d="M18973 10814 c-8 -21 13 -42 28 -27 13 13 5 43 -11 43 -6 0 -13 -7
-17 -16z"/>
<path d="M1564 10615 c-7 -18 3 -35 21 -35 21 0 28 19 15 35 -16 19 -29 19
-36 0z"/>
<path d="M18974 10616 c-15 -12 -16 -16 -5 -30 10 -12 17 -14 27 -5 30 25 10
58 -22 35z"/>
<path d="M1570 10405 c-10 -12 -10 -19 -2 -27 15 -15 48 14 38 31 -10 15 -21
14 -36 -4z"/>
<path d="M18973 10404 c-8 -21 13 -42 28 -27 13 13 5 43 -11 43 -6 0 -13 -7
-17 -16z"/>
<path d="M1563 10194 c-3 -8 -1 -20 6 -27 14 -14 47 15 37 32 -10 16 -36 13
-43 -5z"/>
<path d="M18973 10194 c-8 -21 13 -42 28 -27 13 13 5 43 -11 43 -6 0 -13 -7
-17 -16z"/>
<path d="M15452 10078 l-122 -123 112 -112 c62 -62 117 -113 123 -113 6 0 61
51 124 114 l114 114 -27 33 c-14 19 -66 73 -114 122 l-88 87 -122 -122z"/>
<path d="M4792 10077 c-61 -62 -112 -117 -112 -122 0 -13 212 -225 225 -225 6
0 58 48 115 106 l105 106 2129 -5 2128 -5 107 -106 107 -107 104 105 104 106
106 0 105 0 100 -100 c55 -55 107 -100 115 -100 8 0 60 45 115 100 l100 100
109 0 109 0 102 -100 c55 -55 106 -100 112 -100 6 0 55 44 107 98 l96 97 522
5 c288 3 1157 6 1933 8 795 1 1413 6 1418 11 16 16 -11 21 -150 26 -130 4
-2444 15 -3318 15 l-399 0 -96 100 c-52 55 -101 100 -109 100 -7 0 -58 -45
-111 -100 l-99 -100 -113 0 -113 0 -100 100 c-55 55 -104 100 -110 100 -6 0
-55 -45 -110 -100 l-100 -100 -112 0 -111 0 -93 100 c-51 55 -100 100 -109
100 -9 0 -60 -45 -114 -100 l-98 -100 -951 -1 c-524 -1 -992 -3 -1042 -4 -49
-1 -578 -4 -1175 -6 l-1085 -4 -104 108 c-57 59 -109 107 -115 107 -6 0 -62
-51 -124 -113z"/>
<path d="M1564 9995 c-7 -18 3 -35 21 -35 21 0 28 19 15 35 -16 19 -29 19 -36
0z"/>
<path d="M18970 9995 c-10 -11 -10 -19 -2 -27 15 -15 44 -2 40 19 -4 23 -22
27 -38 8z"/>
<path d="M1571 9796 c-14 -17 -7 -36 14 -36 22 0 29 20 13 36 -13 13 -16 13
-27 0z"/>
<path d="M18974 9789 c-10 -17 13 -36 27 -22 12 12 4 33 -11 33 -5 0 -12 -5
-16 -11z"/>
<path d="M1571 9586 c-14 -17 -7 -36 14 -36 22 0 29 20 13 36 -13 13 -16 13
-27 0z"/>
<path d="M18973 9584 c-8 -21 13 -42 28 -27 13 13 5 43 -11 43 -6 0 -13 -7
-17 -16z"/>
<path d="M1564 9385 c-7 -18 3 -35 21 -35 21 0 28 19 15 35 -16 19 -29 19 -36
0z"/>
<path d="M18973 9384 c-8 -21 13 -42 28 -27 13 13 5 43 -11 43 -6 0 -13 -7
-17 -16z"/>
<path d="M1563 9174 c-3 -8 -1 -20 6 -27 14 -14 47 15 37 32 -10 16 -36 13
-43 -5z"/>
<path d="M18973 9174 c-8 -21 13 -42 28 -27 13 13 5 43 -11 43 -6 0 -13 -7
-17 -16z"/>
<path d="M5889 9060 c-45 -24 -109 -94 -109 -120 0 -11 -8 -23 -17 -26 -10 -3
-26 -10 -35 -15 -10 -5 -30 -9 -45 -10 -16 0 -58 -8 -95 -18 -38 -9 -68 -15
-68 -12 0 3 14 33 30 66 48 97 36 126 -30 77 -46 -34 -110 -110 -110 -132 -1
-41 -27 -62 -135 -106 -60 -24 -111 -44 -113 -44 -1 0 7 18 18 39 22 43 42
120 34 133 -6 9 -46 -14 -82 -46 -32 -28 -60 -84 -73 -145 -7 -34 -17 -52 -29
-56 -10 -3 -57 -30 -104 -60 -47 -29 -86 -52 -86 -51 0 2 7 20 15 41 16 36 18
132 4 140 -15 10 -59 -39 -88 -97 -23 -45 -31 -75 -31 -113 0 -52 -1 -53 -52
-93 -29 -22 -69 -57 -87 -76 -43 -45 -52 -45 -40 -3 10 36 -2 122 -19 139 -7
7 -18 -2 -35 -29 -35 -56 -50 -117 -42 -175 7 -46 5 -51 -34 -101 -22 -29 -60
-74 -83 -100 l-43 -48 3 49 c4 55 -20 126 -40 120 -40 -13 -62 -165 -34 -232
l16 -39 -54 -81 c-29 -44 -60 -94 -68 -110 l-15 -29 -6 47 c-4 25 -16 65 -28
87 -19 38 -22 40 -37 26 -11 -12 -17 -41 -19 -99 -4 -69 -1 -89 16 -122 l21
-40 -43 -108 c-23 -59 -44 -108 -47 -108 -3 0 -13 19 -23 43 -9 23 -28 56 -41
72 l-24 30 -11 -28 c-22 -56 -4 -146 43 -217 24 -36 24 -39 10 -80 -8 -23 -20
-75 -26 -116 -6 -41 -14 -74 -17 -74 -3 1 -17 23 -29 51 -24 51 -63 86 -82 74
-28 -17 2 -132 53 -204 l35 -49 -1 -125 c-2 -114 -3 -123 -16 -99 -19 37 -51
71 -84 88 -24 13 -28 13 -34 -2 -3 -9 2 -42 12 -73 13 -43 29 -68 69 -106 52
-50 53 -51 59 -125 4 -41 10 -97 14 -125 l6 -49 -33 37 c-18 21 -46 45 -62 53
-25 13 -29 13 -34 -1 -16 -40 29 -113 103 -168 42 -31 53 -46 63 -85 13 -50
42 -144 56 -176 6 -16 -1 -13 -32 11 -43 33 -101 57 -109 44 -3 -5 7 -30 21
-56 25 -44 65 -80 131 -116 22 -12 43 -43 81 -124 29 -59 52 -109 52 -111 0
-2 -15 6 -34 17 -39 23 -92 40 -100 32 -9 -10 22 -59 58 -90 19 -17 57 -38 85
-48 41 -13 55 -25 79 -63 16 -26 48 -71 70 -101 40 -52 48 -77 19 -52 -20 16
-110 32 -121 20 -11 -10 24 -52 69 -79 16 -10 58 -25 91 -34 56 -15 69 -23
140 -97 44 -44 80 -84 82 -89 2 -4 -23 -1 -56 8 -32 8 -67 12 -77 8 -17 -6
-17 -7 1 -27 37 -40 97 -68 166 -75 61 -6 73 -12 140 -62 40 -30 83 -59 95
-65 36 -16 27 -24 -19 -18 -50 8 -102 0 -102 -14 -1 -5 20 -20 45 -33 35 -17
67 -24 130 -26 82 -3 86 -4 187 -62 l103 -59 -59 -6 c-106 -10 -107 -31 -3
-50 54 -9 83 -9 130 0 58 11 62 11 120 -19 33 -16 71 -30 84 -30 13 0 31 -6
42 -13 16 -13 14 -14 -24 -20 -23 -3 -49 -11 -57 -18 -14 -12 -14 -14 2 -26
26 -19 117 -16 181 7 44 15 65 18 92 11 20 -5 70 -15 111 -22 63 -10 72 -14
56 -23 -41 -24 -76 -58 -70 -68 12 -19 100 0 173 36 39 20 77 36 85 36 32 0
25 21 -11 36 -21 9 -56 33 -78 53 -44 42 -123 77 -139 61 -5 -5 3 -23 23 -46
18 -20 30 -38 27 -41 -3 -3 -50 3 -106 12 l-101 18 -41 49 c-40 48 -132 106
-142 90 -3 -5 6 -28 20 -52 13 -23 23 -45 21 -47 -2 -2 -50 14 -107 36 -79 29
-106 44 -112 61 -14 39 -75 114 -107 133 -42 24 -49 6 -22 -56 11 -26 16 -47
11 -47 -5 0 -11 4 -14 9 -3 5 -27 18 -52 30 -100 47 -119 65 -144 132 -42 115
-128 172 -102 67 6 -23 9 -44 7 -47 -5 -5 -108 71 -153 112 -26 25 -32 39 -32
72 0 41 -32 116 -69 165 -19 23 -20 24 -27 6 -4 -11 -3 -45 2 -78 6 -32 7 -58
4 -58 -3 0 -40 38 -83 85 l-77 86 0 72 c0 70 -23 145 -48 161 -20 12 -34 -23
-30 -79 1 -30 1 -55 -2 -55 -6 0 -87 120 -111 164 -14 25 -14 35 -2 85 15 62
10 148 -11 177 -13 16 -15 15 -33 -22 -11 -21 -23 -52 -27 -68 -9 -37 -12 -32
-61 89 l-38 92 27 66 c27 67 35 160 16 172 -15 9 -70 -53 -77 -87 -3 -16 -9
-26 -14 -21 -7 7 -59 194 -59 212 0 4 15 28 34 52 35 45 56 102 56 151 0 58
-39 41 -90 -40 -34 -52 -37 -46 -46 92 l-7 104 49 50 c50 51 91 130 80 157
-10 28 -39 15 -89 -37 l-49 -53 6 85 c3 47 6 102 6 123 0 32 5 40 32 55 77 42
164 150 140 174 -14 14 -60 -2 -108 -38 -24 -19 -44 -31 -44 -28 0 3 6 32 14
63 8 31 20 82 26 113 10 53 13 58 48 68 20 7 54 23 75 36 46 30 101 104 88
117 -14 14 -74 0 -116 -29 -21 -14 -39 -23 -41 -21 -3 3 30 92 76 205 5 12 18
22 28 22 48 0 126 34 168 72 24 22 42 44 39 48 -11 17 -73 20 -115 5 -52 -18
-60 -13 -37 23 10 15 37 60 60 99 l42 73 51 0 c58 0 136 24 177 54 24 18 26
22 13 35 -20 19 -91 22 -138 6 -21 -7 -38 -11 -38 -9 0 8 142 179 154 186 8 4
33 4 57 0 59 -10 131 1 175 28 53 33 29 51 -70 53 -42 1 -76 5 -76 8 0 4 12
15 27 24 14 10 55 44 89 76 35 33 65 59 67 59 3 0 24 -7 47 -15 54 -19 150
-19 195 -1 19 8 35 18 35 21 0 13 -108 55 -143 55 -23 0 -36 4 -32 10 4 6 52
37 107 69 l100 59 63 -30 c53 -24 73 -29 126 -26 35 2 64 8 66 14 5 15 -83 73
-120 81 -15 3 -26 11 -24 17 2 6 52 29 112 50 105 38 109 38 134 22 77 -50
208 -85 224 -59 10 16 -57 72 -109 92 l-49 19 45 12 c25 6 74 20 109 31 35 10
72 19 82 19 11 0 43 -24 72 -53 41 -42 64 -57 107 -69 52 -14 80 -10 80 11 0
19 -94 103 -142 127 -53 27 -53 27 -24 35 37 10 58 31 102 96 48 73 30 94 -47
53z"/>
<path d="M14358 9004 c-22 -21 108 -173 149 -175 10 0 3 -5 -16 -10 -18 -6
-50 -21 -71 -35 -45 -30 -105 -110 -90 -119 35 -22 170 41 192 89 6 14 17 27
26 31 16 6 224 -41 257 -58 17 -9 14 -12 -28 -24 -49 -14 -126 -79 -110 -93 4
-4 36 -4 71 0 46 6 79 18 122 44 32 20 63 36 69 36 6 0 62 -24 124 -52 l112
-53 -57 -6 c-68 -7 -135 -44 -118 -65 29 -33 119 -27 227 17 36 15 57 6 180
-77 l63 -41 -60 -7 c-69 -8 -125 -44 -102 -67 20 -21 132 -23 196 -5 l57 17
85 -72 c46 -39 87 -76 91 -82 4 -6 -9 -7 -38 -3 -45 6 -108 -9 -131 -32 -9 -9
3 -18 47 -38 51 -24 66 -26 131 -21 l73 5 71 -84 c38 -46 70 -88 70 -92 0 -5
-24 -5 -53 0 -52 9 -107 -1 -107 -20 0 -10 61 -51 103 -70 15 -7 49 -12 76
-12 26 0 54 -6 63 -12 15 -13 118 -187 118 -201 0 -4 -13 -1 -28 7 -38 20
-127 31 -136 18 -9 -14 84 -95 125 -109 19 -6 50 -14 70 -17 35 -6 36 -8 78
-117 23 -62 40 -114 37 -116 -3 -3 -16 4 -30 14 -35 28 -114 49 -128 35 -25
-25 75 -121 156 -148 32 -11 47 -22 51 -37 2 -12 9 -47 16 -77 23 -109 26
-130 22 -130 -2 0 -21 14 -42 30 -40 33 -97 54 -106 40 -17 -28 54 -127 120
-165 47 -28 45 -23 61 -195 l7 -75 -58 53 c-32 29 -63 51 -69 49 -15 -6 -9
-61 10 -100 9 -18 37 -53 62 -79 l45 -47 -11 -107 c-7 -59 -15 -110 -18 -113
-4 -3 -11 3 -18 13 -6 11 -25 35 -42 54 -77 87 -71 -51 7 -165 l33 -47 -23
-90 c-12 -50 -25 -100 -28 -110 -5 -16 -11 -10 -30 30 -30 58 -52 86 -64 78
-19 -11 -9 -128 15 -187 22 -53 23 -62 11 -95 -18 -51 -74 -172 -79 -172 -3 0
-10 24 -16 54 -31 149 -89 44 -60 -109 l12 -66 -38 -55 c-22 -31 -51 -75 -66
-97 l-28 -41 0 46 c0 26 -5 59 -10 74 -10 25 -12 26 -29 10 -25 -23 -41 -83
-41 -158 0 -74 -17 -104 -110 -193 l-51 -50 5 38 c3 20 8 52 11 71 8 48 -8 52
-44 11 -40 -46 -61 -97 -61 -150 0 -38 -5 -47 -57 -96 -32 -30 -73 -66 -92
-79 l-34 -23 6 26 c4 15 10 38 13 52 4 13 3 32 0 41 -6 15 -12 12 -42 -17 -42
-40 -65 -81 -73 -129 -6 -32 -15 -40 -106 -92 -54 -32 -100 -56 -102 -54 -2 1
6 20 16 42 43 91 36 109 -27 63 -41 -30 -102 -111 -102 -136 0 -15 -51 -42
-149 -77 -78 -28 -95 -28 -68 2 23 25 49 90 38 96 -16 10 -99 -53 -141 -106
l-42 -53 -101 -21 c-56 -12 -104 -20 -106 -18 -2 2 11 20 27 40 32 39 33 54 4
54 -30 -1 -104 -39 -144 -75 -21 -19 -47 -35 -57 -35 -30 0 -34 -17 -7 -32 13
-7 44 -26 69 -41 49 -30 163 -55 179 -39 6 6 -4 23 -26 45 l-36 36 38 6 c20 4
64 12 98 19 53 12 67 11 100 -2 57 -22 174 -27 199 -8 19 14 19 15 -17 30 -21
9 -47 16 -58 16 -42 0 -17 16 78 49 73 26 109 34 147 31 115 -8 182 -5 200 10
16 13 16 15 -5 32 -13 11 -39 18 -64 18 -41 1 -41 1 64 57 104 57 105 57 182
54 76 -3 154 19 172 47 10 17 -28 32 -81 33 -47 0 -48 0 -24 17 13 9 52 39 86
68 57 46 70 52 127 58 66 8 126 31 168 65 23 18 23 20 7 27 -10 4 -45 4 -78 1
l-60 -5 83 86 c77 81 87 88 138 98 67 12 85 22 129 67 50 53 22 74 -56 42 -20
-8 -38 -14 -40 -12 -2 3 28 47 66 98 64 87 73 95 117 107 37 10 62 27 107 72
55 54 65 80 33 80 -7 0 -39 -13 -70 -28 -31 -16 -56 -26 -56 -23 0 3 23 56 51
118 44 96 56 113 82 123 17 5 45 21 63 35 42 32 91 112 77 126 -13 13 -57 -4
-102 -38 l-34 -26 7 24 c5 13 20 66 34 117 25 92 27 95 76 128 53 36 107 110
109 153 2 22 -2 26 -21 23 -13 -1 -44 -18 -68 -38 -24 -20 -44 -35 -44 -33 0
15 31 233 33 234 40 24 72 55 92 89 24 41 48 130 37 140 -11 12 -84 -40 -105
-74 l-22 -35 -7 124 -8 123 38 44 c42 47 62 99 62 162 0 77 -35 62 -89 -38
-34 -61 -32 -64 -57 70 -10 52 -22 100 -27 107 -6 8 2 25 22 50 54 68 79 184
48 227 -13 17 -15 16 -40 -13 -24 -29 -47 -86 -47 -118 0 -31 -20 -9 -34 36
-8 27 -28 81 -46 120 -20 48 -28 76 -22 84 41 52 53 210 20 244 -14 14 -18 11
-43 -31 -17 -28 -27 -62 -28 -91 -2 -49 -11 -59 -21 -21 -3 13 -32 63 -64 112
-56 85 -58 91 -46 119 21 49 18 164 -6 203 -11 19 -26 32 -32 30 -21 -7 -40
-81 -35 -138 3 -43 2 -51 -7 -36 -6 10 -42 59 -80 108 l-68 90 -2 86 c-1 67
-6 96 -23 128 -24 44 -48 70 -56 57 -12 -20 -17 -102 -9 -140 6 -24 7 -43 2
-43 -4 0 -36 26 -71 58 -35 32 -75 66 -88 75 -20 13 -24 25 -26 74 -3 72 -22
119 -70 172 -31 34 -40 39 -52 29 -17 -13 -11 -72 12 -139 15 -41 11 -48 -14
-25 -9 8 -54 36 -101 63 -84 49 -85 49 -92 96 -3 27 -20 69 -37 96 -30 46 -97
104 -111 96 -11 -7 7 -99 25 -135 9 -18 15 -33 13 -35 -2 -2 -38 11 -80 30
-42 18 -92 38 -110 44 -27 9 -36 20 -51 61 -22 61 -56 103 -114 137 -68 39
-74 21 -25 -71 29 -54 37 -76 27 -76 -8 0 -54 11 -101 25 -47 14 -97 25 -111
25 -19 0 -28 9 -44 44 -20 46 -74 101 -116 117 -41 15 -68 20 -75 13z"/>
<path d="M18973 8974 c-8 -21 13 -42 28 -27 13 13 5 43 -11 43 -6 0 -13 -7
-17 -16z"/>
<path d="M1565 8970 c-4 -7 -3 -16 3 -22 14 -14 45 -2 40 15 -6 16 -34 21 -43
7z"/>
<path d="M1563 8764 c-3 -8 -1 -20 6 -27 14 -14 47 15 37 32 -10 16 -36 13
-43 -5z"/>
<path d="M18971 8766 c-9 -10 -8 -16 4 -26 19 -16 41 1 32 24 -8 20 -21 20
-36 2z"/>
<path d="M18974 8566 c-9 -24 12 -44 28 -28 10 10 8 16 -5 29 -15 15 -17 15
-23 -1z"/>
<path d="M1565 8560 c-4 -7 -3 -16 3 -22 14 -14 45 -2 40 15 -6 16 -34 21 -43
7z"/>
<path d="M2978 8423 c-33 -34 -42 -70 -29 -105 18 -48 47 -68 95 -68 37 0 48
5 70 31 18 21 26 42 26 69 0 58 -39 100 -94 100 -33 0 -48 -6 -68 -27z"/>
<path d="M17158 8435 c-30 -17 -53 -74 -44 -109 3 -12 15 -35 27 -49 28 -37
104 -39 137 -4 48 51 49 110 2 157 -24 24 -82 26 -122 5z"/>
<path d="M1571 8366 c-14 -17 -7 -36 14 -36 22 0 29 20 13 36 -13 13 -16 13
-27 0z"/>
<path d="M18970 8360 c-9 -16 -8 -22 5 -26 21 -8 39 10 32 30 -9 22 -24 20
-37 -4z"/>
<path d="M1563 8154 c-3 -8 -1 -20 6 -27 14 -14 47 15 37 32 -10 16 -36 13
-43 -5z"/>
<path d="M6298 8132 c-63 -94 -62 -173 0 -282 47 -81 47 -80 29 -80 -8 0 -41
-14 -74 -30 -71 -36 -141 -114 -122 -137 24 -28 159 12 214 63 l38 35 71 -74
c39 -41 90 -87 114 -102 23 -15 42 -29 42 -31 0 -2 -21 -13 -47 -24 -66 -29
-153 -116 -139 -138 8 -13 122 5 170 26 22 11 56 33 74 50 l32 30 83 -38 c106
-50 216 -77 358 -90 63 -5 120 -10 127 -10 10 0 13 -30 13 -132 -1 -172 9
-539 15 -557 4 -11 7 -12 16 -3 18 18 18 1186 1 1203 -19 19 -21 3 -27 -245
-3 -126 -7 -230 -9 -233 -7 -6 -219 16 -277 30 l-55 12 -1 70 c0 42 -8 86 -18
109 -20 47 -63 106 -77 106 -6 0 -17 -16 -25 -37 -16 -37 -15 -124 1 -188 l8
-30 -24 17 c-13 10 -55 35 -94 57 -38 22 -81 49 -94 60 l-25 19 26 39 c34 52
39 71 39 149 0 82 -17 109 -51 79 -32 -29 -80 -134 -80 -177 0 -21 -4 -38 -10
-38 -5 0 -10 5 -10 11 0 6 -26 39 -58 74 -32 34 -74 90 -94 125 l-35 63 23 51
c27 59 32 138 10 190 -20 49 -31 50 -58 8z m32 -173 c-14 -52 -27 -57 -39 -14
-9 34 4 113 25 147 14 22 26 -89 14 -133z m271 -325 c-25 -56 -46 -51 -36 10
4 22 17 59 29 81 l21 40 3 -42 c2 -27 -4 -60 -17 -89z m-241 98 c0 -15 -34
-39 -93 -66 -73 -33 -87 -33 -56 0 37 41 149 90 149 66z m519 -178 c15 -25 21
-52 21 -95 0 -32 -4 -59 -9 -59 -17 0 -41 80 -41 135 0 30 2 55 4 55 2 0 13
-16 25 -36z m-234 -123 c-10 -17 -75 -48 -115 -55 l-35 -7 39 35 c42 36 95 58
110 45 4 -4 5 -12 1 -18z"/>
<path d="M13444 8139 c-29 -56 -29 -126 0 -204 24 -66 24 -71 9 -95 -44 -67
-128 -172 -153 -190 l-28 -20 -11 50 c-16 75 -84 172 -110 156 -34 -22 -17
-190 25 -247 l24 -33 -28 -18 c-15 -11 -48 -30 -73 -43 -26 -13 -67 -38 -92
-55 -25 -16 -47 -30 -50 -30 -3 0 1 16 9 36 20 48 20 140 0 188 -16 39 -16 39
-37 20 -39 -36 -67 -106 -74 -190 -4 -43 -9 -82 -11 -85 -4 -7 -171 -38 -224
-42 -56 -3 -36 -22 29 -25 82 -4 267 40 366 87 l81 38 34 -29 c50 -43 98 -65
164 -77 62 -11 76 -9 76 14 0 36 -117 135 -159 135 -38 0 -30 18 23 53 54 36
125 103 153 144 l14 22 44 -34 c24 -18 65 -41 91 -51 57 -22 135 -25 142 -6 8
24 -120 139 -169 153 -24 7 -45 13 -47 14 -1 1 14 31 33 65 45 80 60 144 46
197 -10 36 -65 133 -76 133 -2 0 -12 -14 -21 -31z m53 -95 c14 -47 16 -121 4
-128 -19 -12 -34 28 -39 101 -4 61 -2 75 9 71 8 -3 19 -22 26 -44z m-288 -324
c17 -30 21 -52 19 -92 l-3 -53 -23 45 c-25 48 -41 140 -25 140 5 0 19 -18 32
-40z m307 -10 c63 -31 102 -70 69 -70 -32 0 -145 70 -145 91 0 14 6 12 76 -21z
m-571 -169 c5 -29 1 -52 -13 -84 -30 -67 -42 -68 -42 -3 0 52 24 126 41 126 4
0 10 -18 14 -39z m270 -100 c22 -10 51 -31 65 -46 l25 -27 -35 7 c-62 13 -135
58 -124 76 8 13 24 11 69 -10z"/>
<path d="M18971 8156 c-9 -10 -8 -16 4 -26 19 -16 41 1 32 24 -8 20 -21 20
-36 2z"/>
<path d="M2800 8133 c-41 -37 -50 -94 -21 -139 48 -77 181 -31 181 63 0 26 -8
43 -34 69 -43 43 -83 45 -126 7z"/>
<path d="M17348 8144 c-55 -29 -65 -102 -22 -153 21 -26 33 -31 67 -31 100 1
141 111 66 174 -34 29 -71 32 -111 10z"/>
<path d="M1563 7944 c-3 -8 -1 -20 6 -27 14 -14 47 15 37 32 -10 16 -36 13
-43 -5z"/>
<path d="M18974 7949 c-10 -17 13 -36 27 -22 12 12 4 33 -11 33 -5 0 -12 -5
-16 -11z"/>
<path d="M8361 7906 c-13 -15 -81 -255 -114 -398 -12 -54 -24 -98 -27 -98 -7
0 -107 224 -161 360 -44 112 -67 147 -93 137 -41 -16 -32 -53 76 -307 38 -91
89 -202 113 -247 l44 -83 -36 -167 c-19 -93 -47 -233 -63 -313 -15 -80 -40
-177 -54 -216 -14 -39 -26 -84 -26 -98 0 -62 45 -88 74 -43 20 30 74 215 86
296 6 36 35 194 66 351 49 254 72 353 119 525 69 249 77 285 65 300 -16 19
-54 19 -69 1z"/>
<path d="M8645 7904 c-85 -44 -129 -132 -151 -304 -17 -128 -16 -181 6 -490 5
-74 9 -219 10 -322 0 -103 5 -199 10 -213 20 -51 79 -112 132 -135 112 -48
214 -11 269 99 51 102 54 135 54 686 0 509 0 510 -22 552 -28 52 -88 111 -130
129 -44 19 -141 18 -178 -2z m172 -104 c70 -42 68 -29 68 -585 0 -379 -3 -514
-13 -558 -29 -126 -133 -181 -216 -116 -47 37 -56 67 -57 201 0 68 -5 177 -10
243 -5 66 -9 234 -9 375 -1 266 8 337 47 397 40 61 128 81 190 43z"/>
<path d="M9130 7905 c-9 -11 -11 -165 -7 -664 l4 -649 26 -44 c41 -71 107
-125 161 -133 121 -19 204 32 225 137 20 100 31 344 37 810 6 424 5 470 -10
493 -20 30 -37 32 -61 5 -17 -19 -18 -38 -12 -287 10 -430 -17 -956 -52 -1022
-44 -82 -157 -61 -208 39 l-23 45 -6 625 c-6 539 -9 627 -22 643 -18 21 -36
22 -52 2z"/>
<path d="M10947 7900 c-11 -16 -12 -31 -5 -63 9 -41 32 -398 30 -467 -1 -19
-3 -224 -5 -455 -3 -345 -2 -424 10 -442 18 -30 49 -29 69 2 14 21 15 52 10
232 -3 114 -5 258 -4 318 3 274 2 411 -5 555 l-7 155 50 -94 c28 -51 50 -97
50 -101 0 -16 61 -90 74 -90 18 0 53 46 115 155 l51 89 0 -219 c1 -515 0 -709
-6 -860 -6 -157 -6 -160 16 -180 l22 -20 17 22 c25 30 30 179 31 831 0 287 5
544 10 570 10 58 -7 85 -53 80 -34 -3 -38 -10 -129 -205 -33 -73 -64 -133 -67
-133 -3 0 -40 66 -81 147 -41 81 -83 157 -93 170 -24 30 -80 32 -100 3z"/>
<path d="M11646 7905 c-21 -10 -21 -17 -22 -430 -1 -398 -7 -680 -20 -897 -5
-88 -4 -98 15 -117 18 -18 29 -19 148 -15 223 8 237 13 231 76 l-3 33 -143 -3
-144 -4 5 329 4 328 92 5 c77 4 95 8 107 24 17 23 18 40 4 67 -10 17 -22 19
-109 19 l-98 0 2 243 1 242 119 3 c67 1 125 7 132 14 18 15 16 53 -4 69 -21
18 -287 29 -317 14z"/>
<path d="M12345 7908 c-4 -9 -5 -308 -3 -666 2 -495 6 -654 15 -663 10 -10 14
-9 19 4 3 9 4 308 2 666 -2 494 -6 653 -15 662 -10 10 -14 9 -18 -3z"/>
<path d="M10093 7851 c-24 -17 -55 -49 -70 -72 -55 -84 -38 -310 37 -468 17
-34 30 -68 30 -74 0 -7 -34 -57 -75 -112 -42 -55 -92 -134 -113 -175 -34 -68
-37 -81 -35 -150 0 -43 8 -92 17 -114 26 -61 86 -137 135 -167 85 -55 165 -32
283 79 38 36 71 63 74 60 3 -3 24 -43 48 -89 44 -87 69 -106 102 -79 23 20 17
52 -32 154 l-46 97 36 60 c55 93 70 147 57 209 -21 98 -77 175 -123 168 -37
-5 -37 -63 1 -124 19 -29 31 -61 31 -81 0 -32 -30 -106 -48 -117 -5 -3 -22 23
-38 57 -16 34 -54 106 -86 160 -72 126 -75 140 -44 187 141 213 165 486 52
590 -21 19 -40 25 -89 28 -57 3 -66 1 -104 -27z m127 -81 c45 -24 55 -160 21
-271 -27 -87 -68 -179 -80 -179 -24 0 -91 218 -91 296 0 107 82 191 150 154z
m-27 -732 c52 -104 111 -212 132 -245 13 -19 11 -25 -20 -66 -47 -61 -147
-127 -193 -127 -78 0 -143 91 -146 203 -1 52 4 73 31 127 34 67 127 200 141
200 4 0 29 -42 55 -92z"/>
<path d="M2635 7861 c-79 -33 -77 -162 3 -192 35 -13 85 -4 107 21 26 28 35
89 18 122 -22 46 -81 68 -128 49z"/>
<path d="M12476 7861 c-9 -15 -8 -1082 1 -1161 5 -36 13 -65 18 -65 6 0 11 78
13 207 l2 207 28 -4 c15 -2 74 -11 132 -20 58 -9 124 -21 146 -26 l41 -11 0
-77 c-1 -66 3 -84 28 -129 15 -28 36 -59 46 -68 18 -16 20 -15 39 27 23 52 25
111 5 168 -8 22 -11 41 -8 41 8 0 131 -72 180 -106 19 -12 39 -24 46 -27 9 -3
7 -10 -5 -24 -33 -36 -60 -133 -54 -191 9 -99 38 -101 96 -6 28 46 34 67 34
111 l0 55 39 -44 c58 -65 127 -158 148 -201 19 -37 19 -37 -2 -66 -33 -45 -38
-153 -10 -216 21 -47 22 -48 41 -30 11 10 29 43 41 74 31 82 24 151 -25 231
-20 35 -38 67 -39 72 -1 5 25 19 58 33 69 28 176 128 157 147 -25 25 -187 -21
-256 -74 -18 -14 -23 -10 -76 51 -32 36 -80 80 -108 96 -56 33 -60 45 -19 56
61 16 169 121 152 148 -19 32 -156 -7 -222 -64 -23 -19 -46 -35 -52 -35 -6 0
-48 16 -95 35 -125 52 -262 84 -379 89 l-102 5 -3 112 c-2 69 1 116 8 124 6 7
7 16 2 19 -5 3 -12 123 -15 267 -6 240 -13 300 -31 270z m802 -882 c-21 -33
-138 -84 -138 -60 0 23 93 79 133 80 15 1 15 -2 5 -20z m-348 -49 c20 -40 25
-99 11 -135 -7 -17 -12 -12 -35 34 -23 45 -27 61 -21 102 8 55 16 55 45 -1z
m298 -208 c-9 -88 -55 -144 -51 -61 2 45 28 109 44 109 8 0 10 -15 7 -48z
m360 -14 c-11 -33 -158 -98 -158 -69 0 14 69 57 111 70 47 13 51 13 47 -1z
m-88 -354 c-6 -26 -16 -56 -22 -67 -11 -21 -11 -21 -20 3 -9 23 6 140 20 165
3 5 12 -5 19 -23 10 -24 11 -43 3 -78z"/>
<path d="M17528 7850 c-85 -66 -27 -205 77 -186 71 14 102 114 52 171 -31 37
-93 44 -129 15z"/>
<path d="M7423 7764 c-10 -25 -10 -1183 0 -1208 24 -60 28 24 30 602 1 456 -1
604 -10 613 -10 10 -14 8 -20 -7z"/>
<path d="M1564 7745 c-7 -18 3 -35 21 -35 21 0 28 19 15 35 -16 19 -29 19 -36
0z"/>
<path d="M18971 7746 c-9 -10 -8 -16 4 -26 19 -16 41 1 32 24 -8 20 -21 20
-36 2z"/>
<path d="M1564 7545 c-7 -18 3 -35 21 -35 21 0 28 19 15 35 -16 19 -29 19 -36
0z"/>
<path d="M18974 7539 c-10 -17 13 -36 27 -22 12 12 4 33 -11 33 -5 0 -12 -5
-16 -11z"/>
<path d="M18971 7336 c-9 -10 -8 -16 4 -26 19 -16 41 1 32 24 -8 20 -21 20
-36 2z"/>
<path d="M1565 7330 c-4 -7 -3 -16 3 -22 14 -14 45 -2 40 15 -6 16 -34 21 -43
7z"/>
<path d="M1565 7130 c-4 -7 -3 -16 3 -22 14 -14 45 -2 40 15 -6 16 -34 21 -43
7z"/>
<path d="M18965 7130 c-4 -7 -3 -16 3 -22 14 -14 45 -2 40 15 -6 16 -34 21
-43 7z"/>
<path d="M7236 7061 c-4 -5 -2 -12 3 -15 5 -4 12 -2 15 3 4 5 2 12 -3 15 -5 4
-12 2 -15 -3z"/>
<path d="M7065 7053 c-75 -11 -195 -47 -277 -84 l-89 -41 -43 40 c-61 57 -202
103 -229 76 -20 -21 71 -117 144 -151 l38 -18 -52 -41 c-29 -22 -75 -68 -102
-102 -28 -33 -55 -61 -61 -61 -6 -1 -19 8 -30 20 -21 24 -63 47 -108 61 -50
15 -123 21 -130 10 -18 -30 97 -135 170 -154 24 -7 44 -17 44 -22 0 -5 -19
-42 -42 -80 -38 -63 -43 -78 -43 -131 0 -47 7 -73 30 -119 17 -32 35 -59 40
-60 6 0 18 15 28 36 26 52 25 154 -2 206 -12 23 -21 46 -21 51 0 5 20 40 45
77 25 36 45 69 45 71 0 3 11 14 24 24 14 11 34 35 46 54 29 47 40 44 40 -9 0
-35 9 -57 41 -105 40 -60 70 -87 83 -74 10 10 7 145 -5 188 -6 22 -20 52 -30
67 -11 14 -19 28 -19 31 0 10 217 137 235 137 2 0 -3 -16 -11 -35 -17 -41 -18
-100 -3 -161 13 -51 24 -61 45 -43 37 31 67 113 72 196 l4 82 47 10 c73 16
154 31 184 34 15 1 28 7 27 12 0 11 -84 16 -135 8z m-473 -83 c60 -40 77 -60
52 -60 -38 1 -144 63 -144 85 0 15 53 1 92 -25z m293 -143 c-8 -20 -20 -37
-25 -37 -18 0 -10 89 13 142 l22 51 3 -59 c2 -37 -3 -73 -13 -97z m-274 -146
c11 -45 19 -85 16 -88 -9 -8 -58 84 -64 121 -6 41 3 74 17 60 6 -6 19 -47 31
-93z m-333 24 c38 -16 82 -52 82 -67 0 -24 -109 22 -144 61 -19 21 -19 21 3
21 12 0 38 -7 59 -15z m51 -299 c23 -94 6 -169 -23 -97 -17 43 -20 80 -10 119
10 34 20 27 33 -22z"/>
<path d="M1564 6929 c-3 -6 0 -17 8 -25 13 -13 16 -13 27 0 7 8 10 20 6 26 -8
13 -32 13 -41 -1z"/>
<path d="M18971 6926 c-9 -10 -8 -16 4 -26 19 -16 41 1 32 24 -8 20 -21 20
-36 2z"/>
<path d="M18974 6726 c-9 -24 12 -44 28 -28 10 10 8 16 -5 29 -15 15 -17 15
-23 -1z"/>
<path d="M1565 6720 c-4 -7 -3 -16 3 -22 14 -14 45 -2 40 15 -6 16 -34 21 -43
7z"/>
<path d="M12475 6550 c-4 -6 -3 -16 3 -22 6 -6 12 -6 17 2 4 6 3 16 -3 22 -6
6 -12 6 -17 -2z"/>
<path d="M1565 6520 c-4 -6 -1 -17 5 -26 10 -11 16 -12 26 -3 11 9 11 15 3 25
-14 17 -25 18 -34 4z"/>
<path d="M18971 6516 c-8 -10 -8 -16 3 -25 10 -9 16 -8 26 3 12 15 6 36 -9 36
-5 0 -14 -6 -20 -14z"/>
<path d="M1565 6310 c-4 -7 -3 -16 3 -22 14 -14 45 -2 40 15 -6 16 -34 21 -43
7z"/>
<path d="M18966 6311 c-9 -15 23 -36 36 -23 5 5 7 15 4 21 -9 13 -33 14 -40 2z"/>
<path d="M1564 6109 c-3 -6 0 -17 8 -25 13 -13 16 -13 27 0 7 8 10 20 6 26 -8
13 -32 13 -41 -1z"/>
<path d="M18964 6109 c-10 -17 23 -46 37 -32 7 7 9 19 6 27 -7 18 -33 21 -43
5z"/>
<path d="M18972 5907 c-10 -11 -9 -17 3 -27 24 -20 45 4 24 26 -14 13 -17 13
-27 1z"/>
<path d="M1565 5900 c-4 -7 -3 -16 3 -22 14 -14 45 -2 40 15 -6 16 -34 21 -43
7z"/>
<path d="M1564 5699 c-3 -6 0 -17 8 -25 13 -13 16 -13 27 0 7 8 10 20 6 26 -8
13 -32 13 -41 -1z"/>
<path d="M18973 5694 c-8 -21 13 -42 28 -27 13 13 5 43 -11 43 -6 0 -13 -7
-17 -16z"/>
<path d="M8167 5664 c-78 -19 -217 -92 -293 -153 -72 -59 -145 -163 -168 -240
-24 -82 -21 -185 8 -246 33 -71 93 -129 155 -150 28 -9 51 -18 51 -21 0 -7
-79 -133 -152 -243 -91 -138 -246 -328 -322 -398 -123 -111 -263 -152 -351
-101 -140 82 -173 287 -85 545 56 165 178 329 284 382 56 27 139 30 186 6 41
-21 60 -68 60 -149 0 -86 -24 -155 -86 -251 -81 -126 -152 -179 -240 -180 -74
0 -104 29 -104 99 0 33 7 62 20 84 18 29 19 33 4 39 -44 16 -84 -55 -84 -147
1 -36 6 -75 13 -87 37 -66 131 -90 226 -58 96 31 243 196 292 324 30 79 37
207 15 265 -39 101 -142 150 -272 128 -100 -17 -168 -54 -254 -141 -87 -87
-135 -170 -176 -306 -24 -78 -27 -108 -28 -230 -1 -159 15 -228 69 -299 71
-94 196 -138 328 -117 144 24 267 101 429 270 120 125 191 217 311 402 l82
126 85 5 c99 5 167 34 218 93 42 48 45 113 7 151 -34 34 -55 19 -48 -34 6 -51
-24 -95 -84 -125 -52 -26 -138 -43 -147 -29 -7 11 161 267 234 357 109 134
173 171 275 162 72 -7 85 1 85 53 0 89 -80 174 -196 210 -80 24 -256 26 -347
4z m346 -79 c30 -11 60 -31 83 -58 l35 -42 -58 -6 c-75 -8 -120 -28 -202 -88
-108 -80 -237 -225 -355 -399 -62 -90 -86 -95 -151 -29 -78 77 -85 192 -21
321 80 162 241 282 426 316 64 12 186 4 243 -15z"/>
<path d="M1563 5494 c-9 -23 13 -40 32 -24 12 10 13 16 4 26 -15 18 -28 18
-36 -2z"/>
<path d="M18970 5495 c-10 -11 -10 -19 -2 -27 15 -15 44 -2 40 19 -4 23 -22
27 -38 8z"/>
<path d="M2885 5340 c-32 -12 -47 -36 -47 -74 0 -57 32 -93 78 -87 15 2 48
-177 74 -399 30 -262 26 -577 -10 -782 l-12 -67 -49 -10 c-68 -15 -159 -53
-213 -91 -87 -59 -172 -205 -164 -282 l3 -33 75 1 c61 0 86 6 133 29 101 50
204 181 236 302 l11 41 77 8 c171 16 438 -10 728 -70 151 -32 403 -94 421
-104 8 -5 22 -23 32 -42 30 -58 117 -72 149 -23 52 79 -34 168 -113 117 -23
-16 -29 -15 -92 4 -152 48 -443 112 -652 143 -108 17 -194 23 -337 23 l-193 1
5 30 c3 17 10 53 16 80 17 82 23 479 10 622 -13 141 -43 341 -66 446 -14 61
-14 70 1 91 22 35 15 85 -16 107 -33 23 -60 29 -85 19z m67 -65 c8 -19 8 -28
-2 -40 -16 -19 -29 -19 -52 2 -22 20 -22 27 -2 47 22 23 43 20 56 -9z m-7
-1417 c-16 -56 -72 -153 -121 -206 -58 -64 -142 -110 -210 -114 -34 -3 -39 0
-42 20 -5 33 41 122 92 179 48 54 120 97 205 124 76 24 84 24 76 -3z m1416
-118 c26 -15 24 -49 -3 -59 -25 -9 -58 3 -58 21 0 11 29 48 37 48 2 0 13 -5
24 -10z"/>
<path d="M17833 5335 c-51 -22 -70 -80 -37 -117 16 -16 15 -31 -14 -200 -48
-286 -57 -378 -57 -608 1 -195 18 -395 40 -451 5 -12 -20 -15 -157 -14 -301 0
-595 -49 -1045 -177 -36 -10 -45 -10 -61 5 -30 27 -79 22 -114 -13 -25 -26
-29 -36 -24 -62 12 -63 61 -89 120 -64 24 10 40 26 50 50 8 20 17 36 20 36 3
0 83 20 178 44 373 94 641 136 879 136 136 0 151 -2 169 -20 11 -11 20 -28 20
-37 0 -36 85 -169 144 -229 50 -50 73 -65 129 -83 49 -17 72 -20 80 -12 7 7 5
12 -9 17 -112 39 -164 79 -224 170 -48 73 -87 161 -76 171 9 9 111 -24 176
-57 72 -37 132 -100 169 -180 32 -67 39 -104 21 -115 -20 -12 1 -25 22 -14 48
26 -13 191 -103 281 -56 56 -167 112 -251 128 -29 6 -55 14 -59 18 -4 4 -15
59 -25 122 -15 92 -18 163 -17 360 1 223 5 267 37 493 20 137 36 252 36 258 0
5 13 9 28 9 69 0 96 88 43 141 -33 33 -42 34 -88 14z m57 -55 c14 -27 4 -60
-19 -60 -27 0 -44 26 -37 55 8 31 41 34 56 5z m-1409 -1556 c9 -11 10 -20 2
-32 -24 -39 -82 -15 -68 28 8 24 47 27 66 4z"/>
<path d="M1565 5290 c-4 -7 -3 -16 3 -22 14 -14 45 -2 40 15 -6 16 -34 21 -43
7z"/>
<path d="M18974 5289 c-10 -17 13 -36 27 -22 12 12 4 33 -11 33 -5 0 -12 -5
-16 -11z"/>
<path d="M9020 5217 c-73 -51 -211 -239 -352 -477 -117 -197 -164 -297 -179
-381 -12 -66 -11 -73 9 -115 30 -60 71 -84 147 -84 90 0 187 52 301 162 l41
39 -1 -53 c0 -59 28 -119 67 -140 38 -20 120 -12 178 18 100 50 248 222 321
371 36 76 44 85 86 103 49 22 104 68 97 80 -3 4 -32 -3 -66 -17 -33 -13 -66
-22 -73 -20 -9 4 -11 22 -8 59 11 136 -102 189 -230 107 -72 -47 -192 -179
-273 -303 -54 -81 -96 -132 -152 -182 -140 -125 -191 -155 -263 -158 -63 -1
-80 14 -80 73 0 87 109 267 413 682 74 101 137 193 141 205 15 48 -69 69 -124
31z m439 -532 c22 -24 41 -54 41 -65 0 -66 -206 -317 -301 -366 -71 -36 -123
10 -100 88 16 52 73 149 133 225 56 70 153 163 173 163 7 0 31 -20 54 -45z"/>
<path d="M18973 5084 c-8 -21 13 -42 28 -27 13 13 5 43 -11 43 -6 0 -13 -7
-17 -16z"/>
<path d="M1565 5080 c-4 -7 -3 -16 3 -22 14 -14 45 -2 40 15 -6 16 -34 21 -43
7z"/>
<path d="M10192 5007 c-9 -10 -1 -22 33 -50 73 -61 77 -146 14 -254 -51 -85
-227 -259 -338 -332 -107 -70 -171 -105 -171 -93 0 23 84 243 181 470 25 60
19 88 -26 118 -26 17 -27 17 -60 -17 -37 -37 -110 -213 -183 -439 -57 -180
-58 -186 -23 -221 39 -38 73 -37 154 4 199 104 475 367 557 531 62 124 30 244
-76 280 -57 19 -49 19 -62 3z"/>
<path d="M12460 4901 c-99 -30 -317 -262 -388 -414 -57 -120 -65 -184 -32
-253 27 -56 61 -77 124 -77 91 -2 198 73 316 220 63 78 119 176 129 228 6 24
19 36 71 63 61 32 96 63 83 75 -3 4 -20 0 -38 -8 -19 -7 -48 -15 -66 -17 l-33
-3 3 50 c3 66 -11 100 -51 125 -34 21 -74 24 -118 11z m37 -216 c24 -25 43
-55 43 -67 0 -65 -202 -312 -293 -359 -78 -40 -130 -1 -109 82 14 55 86 178
149 254 51 62 136 135 156 135 6 0 30 -20 54 -45z"/>
<path d="M1565 4880 c-4 -7 -3 -16 3 -22 14 -14 45 -2 40 15 -6 16 -34 21 -43
7z"/>
<path d="M18965 4880 c-4 -7 -3 -16 3 -22 14 -14 45 -2 40 15 -6 16 -34 21
-43 7z"/>
<path d="M10649 4840 c-200 -60 -469 -362 -469 -525 0 -73 25 -114 90 -147
126 -65 260 -22 460 148 151 128 231 224 209 251 -8 9 -40 -18 -132 -111 -123
-124 -205 -187 -300 -232 -61 -28 -141 -32 -174 -9 -26 18 -45 78 -37 114 8
38 25 81 33 81 100 7 157 22 230 58 125 63 238 156 260 215 12 31 14 96 5 122
-15 38 -106 56 -175 35z m111 -77 c-1 -67 -91 -166 -215 -236 -76 -44 -175
-72 -175 -50 0 15 124 155 176 199 64 53 96 74 142 90 51 18 72 17 72 -3z"/>
<path d="M13434 4839 c-35 -10 -89 -68 -253 -271 -56 -69 -137 -162 -180 -206
-178 -182 -301 -208 -242 -50 28 73 118 215 206 324 110 137 137 176 126 187
-5 5 -33 12 -61 15 -40 4 -55 1 -72 -14 -18 -17 -309 -349 -347 -397 -11 -13
-11 -21 -3 -29 9 -9 25 0 64 33 l53 44 -28 -47 c-35 -61 -59 -153 -51 -200 12
-76 98 -110 186 -74 48 21 152 100 222 171 l59 59 -9 -34 c-5 -19 -9 -59 -9
-87 0 -46 4 -57 33 -85 29 -29 38 -33 86 -32 68 0 95 17 249 159 124 113 190
189 185 214 -6 31 -34 15 -93 -50 -67 -73 -163 -156 -244 -213 -91 -62 -132
-35 -102 66 10 32 123 189 271 376 57 72 62 101 24 131 -15 12 -29 21 -33 20
-3 0 -20 -5 -37 -10z"/>
<path d="M11550 4799 c-63 -25 -214 -206 -292 -349 -55 -100 -72 -162 -58
-205 18 -53 48 -69 121 -62 51 4 73 13 132 53 87 57 210 150 295 222 34 29 62
48 62 43 0 -17 -61 -165 -111 -268 -117 -239 -255 -397 -378 -433 -47 -13 -84
5 -137 66 -53 62 -70 60 -59 -6 11 -64 62 -116 130 -131 100 -22 192 19 302
134 74 77 135 168 251 372 98 172 175 303 253 429 27 44 49 88 49 97 0 37 -68
51 -108 23 -12 -8 -53 -53 -92 -99 -115 -137 -343 -318 -518 -411 -70 -37 -99
-42 -108 -19 -10 25 66 128 271 370 98 115 110 137 87 158 -24 21 -62 28 -92
16z"/>
<path d="M18974 4675 c-9 -23 10 -40 25 -22 9 11 8 17 -4 27 -12 10 -16 9 -21
-5z"/>
<path d="M1566 4671 c-3 -5 0 -14 8 -20 10 -8 16 -8 25 2 6 8 8 17 4 20 -9 10
-31 9 -37 -2z"/>
<path d="M1575 4470 c-4 -6 -3 -16 3 -22 6 -6 12 -6 17 2 4 6 3 16 -3 22 -6 6
-12 6 -17 -2z"/>
<path d="M18974 4469 c-10 -17 13 -36 27 -22 12 12 4 33 -11 33 -5 0 -12 -5
-16 -11z"/>
<path d="M1226 4151 c-4 -5 -2 -12 3 -15 5 -4 12 -2 15 3 4 5 2 12 -3 15 -5 4
-12 2 -15 -3z"/>
<path d="M19316 3901 c-4 -5 -2 -12 3 -15 5 -4 12 -2 15 3 4 5 2 12 -3 15 -5
4 -12 2 -15 -3z"/>
<path d="M19316 3851 c-4 -5 -2 -12 3 -15 5 -4 12 -2 15 3 4 5 2 12 -3 15 -5
4 -12 2 -15 -3z"/>
<path d="M19316 3801 c-4 -5 -2 -12 3 -15 5 -4 12 -2 15 3 4 5 2 12 -3 15 -5
4 -12 2 -15 -3z"/>
<path d="M9615 3006 c-43 -19 -111 -100 -122 -144 l-9 -37 -629 -2 c-2092 -6
-3538 -13 -3546 -19 -5 -3 -7 -10 -4 -15 4 -5 317 -9 789 -9 430 0 1370 -3
2088 -7 l1306 -6 16 -38 c22 -49 85 -105 136 -120 84 -25 183 25 228 114 l23
47 72 0 72 0 30 -58 c26 -47 40 -62 85 -84 72 -37 120 -36 188 2 42 25 58 41
79 85 l27 55 71 0 70 0 27 -50 c86 -155 291 -154 357 0 l22 50 267 0 c876 0
3799 12 3811 16 75 24 -192 27 -3483 37 l-588 2 -15 45 c-32 95 -102 149 -192
150 -88 0 -181 -74 -197 -156 l-6 -34 -72 0 -72 0 -13 46 c-57 193 -319 191
-386 -3 -15 -43 -31 -50 -103 -45 -47 4 -48 4 -65 51 -9 27 -26 60 -37 74 -45
57 -155 83 -225 53z m690 -46 c31 -15 49 -34 69 -71 16 -28 26 -52 24 -54 -6
-6 -43 -7 -181 -6 -138 1 -138 1 -131 23 14 45 50 88 89 108 50 25 78 25 130
0z m578 -7 c14 -9 67 -95 67 -110 0 -10 -35 -13 -159 -13 l-159 0 5 23 c8 30
49 84 76 99 47 25 130 26 170 1z m-1112 -6 c29 -20 78 -88 79 -109 0 -5 -72
-8 -161 -8 l-160 0 7 23 c9 28 51 84 78 103 33 23 117 18 157 -9z m69 -187 c0
-18 -79 -97 -109 -110 -55 -22 -144 19 -176 80 -8 16 -15 31 -15 35 0 3 68 5
150 5 96 0 150 -4 150 -10z m550 3 c0 -42 -97 -123 -145 -123 -36 0 -98 34
-129 70 -48 57 -43 60 124 60 83 0 150 -3 150 -7z m550 -6 c0 -24 -70 -95
-105 -107 -59 -19 -149 21 -180 80 -8 16 -15 31 -15 35 0 3 68 5 150 5 118 0
150 -3 150 -13z"/>
<path d="M4864 2931 c-48 -29 -64 -59 -64 -117 0 -37 6 -59 21 -78 41 -52 114
-71 169 -43 32 16 93 106 82 121 -5 6 -17 33 -26 60 -14 37 -26 51 -52 62 -46
19 -93 17 -130 -5z m125 -45 c21 -14 42 -65 35 -91 -9 -35 -59 -75 -96 -75
-37 0 -88 48 -88 84 0 67 46 109 105 96 18 -4 38 -10 44 -14z"/>
<path d="M15427 2916 c-20 -20 -38 -51 -45 -76 -37 -148 186 -225 251 -87 9
19 17 47 17 62 0 41 -30 95 -64 116 -19 11 -50 19 -78 19 -40 0 -52 -5 -81
-34z m156 -46 c43 -48 35 -93 -23 -133 -39 -27 -84 -22 -114 14 -84 99 49 215
137 119z"/>
<path d="M18720 2818 c-167 -59 -270 -196 -270 -358 0 -119 61 -216 165 -260
94 -41 179 -29 242 32 83 81 79 214 -9 259 -81 42 -168 11 -173 -62 -3 -36 20
-84 35 -74 4 3 1 19 -7 36 -14 29 -14 33 4 57 14 19 31 28 58 30 57 5 91 -14
109 -59 23 -56 20 -80 -13 -126 -36 -50 -84 -73 -153 -73 -68 0 -132 39 -177
106 -71 108 -46 246 66 357 96 97 215 128 352 93 248 -64 396 -295 363 -567
-14 -114 -32 -169 -88 -268 -95 -170 -231 -276 -424 -332 -103 -30 -107 -29
-102 34 3 36 -1 63 -11 83 -35 66 -116 112 -176 99 -51 -11 -107 -59 -126
-109 -22 -58 -14 -105 28 -153 37 -42 81 -63 135 -63 l39 0 -8 -47 c-41 -238
-182 -430 -394 -536 -79 -39 -170 -57 -288 -57 -123 0 -195 19 -281 74 -59 38
-146 129 -169 178 -45 96 -60 240 -33 329 22 73 41 103 96 152 97 88 220 110
321 60 130 -67 170 -219 81 -312 -82 -85 -212 -49 -212 59 0 44 8 56 44 70 23
8 34 7 52 -5 16 -10 25 -11 30 -4 8 14 -10 32 -33 34 -10 0 -23 4 -28 7 -34
20 -95 -51 -95 -110 0 -102 110 -161 217 -117 76 32 113 92 113 182 -1 182
-193 316 -371 258 -207 -67 -311 -255 -270 -489 38 -218 221 -383 463 -417
195 -27 427 54 581 204 119 117 174 224 211 412 l22 110 85 12 c100 14 155 31
235 71 238 120 393 355 410 624 8 120 -6 191 -60 303 -81 171 -247 279 -446
291 -61 4 -87 0 -140 -18z m-136 -1053 c44 -18 68 -53 68 -98 0 -108 -126
-165 -203 -91 -54 51 -38 148 30 184 44 23 59 24 105 5z"/>
<path d="M1708 2820 c-154 -27 -262 -92 -344 -207 -181 -253 -124 -630 132
-874 100 -94 271 -174 400 -186 34 -3 67 -9 74 -13 6 -4 15 -33 20 -66 12 -86
46 -188 93 -279 58 -114 182 -235 304 -298 217 -112 418 -123 600 -35 192 93
293 251 293 458 0 194 -85 327 -248 389 -105 41 -236 19 -314 -53 -47 -44 -65
-80 -77 -158 -12 -74 -4 -113 35 -169 64 -93 226 -90 273 5 21 44 -2 54 -27
12 -37 -63 -146 -70 -200 -13 -27 29 -52 88 -52 125 0 48 57 150 100 178 64
42 126 56 190 43 192 -40 289 -187 269 -408 -17 -181 -162 -349 -343 -397 -76
-20 -236 -18 -330 6 -156 40 -335 173 -417 311 -42 70 -95 216 -101 279 l-3
35 43 -3 c29 -3 57 3 88 19 38 18 51 31 69 73 20 43 22 59 15 101 -10 65 -68
120 -138 131 -105 16 -211 -96 -183 -194 9 -31 8 -32 -19 -32 -52 0 -154 32
-231 71 -162 84 -277 219 -341 399 -14 38 -22 92 -25 175 -5 111 -3 126 21
198 32 94 58 137 122 200 162 158 430 181 567 49 146 -141 144 -351 -4 -449
-81 -54 -217 -24 -261 57 -44 80 4 180 87 180 22 0 50 -7 62 -15 26 -18 34
-59 16 -84 -7 -11 -9 -22 -4 -25 14 -9 33 20 38 57 3 28 -1 40 -26 65 -44 43
-81 49 -138 20 -112 -56 -115 -202 -6 -285 112 -84 290 -33 358 103 26 51 29
70 29 139 -1 128 -46 217 -153 298 -76 58 -206 86 -313 67z m438 -1056 c109
-52 68 -224 -53 -224 -34 0 -88 31 -103 61 -16 28 -16 99 -1 128 14 25 63 50
99 51 13 0 39 -7 58 -16z"/>
<path d="M15105 2800 c-3 -5 -2 -10 2 -12 13 -7 33 -3 36 6 3 12 -31 17 -38 6z"/>
<path d="M10705 2081 c-17 -4 -49 -20 -72 -35 -94 -63 -114 -220 -35 -272 32
-21 90 -35 97 -23 3 4 13 5 21 2 25 -9 74 45 72 80 -1 16 -6 31 -10 33 -5 3
-6 9 -3 14 8 14 -24 35 -36 23 -8 -8 -5 -14 9 -22 29 -16 19 -59 -20 -92 -29
-24 -34 -25 -62 -14 -38 15 -76 68 -76 104 0 37 39 111 71 134 60 44 184 25
242 -37 65 -70 84 -139 66 -234 -25 -136 -144 -258 -272 -279 -33 -5 -34 -4
-41 35 -8 54 -53 92 -107 92 -42 0 -94 -21 -101 -41 -2 -7 -18 -1 -42 15 -48
32 -97 34 -138 5 l-30 -22 -38 22 c-47 26 -93 27 -136 1 l-32 -21 -34 21 c-81
49 -188 -2 -188 -91 0 -19 -4 -21 -32 -15 -55 11 -132 52 -171 92 -46 47 -95
143 -103 205 -15 107 63 231 160 259 100 28 176 -6 217 -95 16 -35 16 -43 3
-75 -38 -94 -135 -107 -170 -24 -15 35 -34 38 -34 5 0 -25 61 -80 97 -87 43
-8 118 28 138 67 22 42 19 117 -8 163 -88 154 -313 132 -414 -41 -46 -79 -42
-203 9 -305 13 -28 15 -38 6 -38 -156 -3 -891 2 -909 5 -35 7 -3080 6 -3300
-1 -123 -4 -189 -2 -193 4 -4 6 13 27 36 46 l43 35 2050 6 c1128 2 2069 6
2093 7 58 4 59 22 2 25 -25 2 -967 5 -2095 7 l-2050 5 -92 93 -92 93 -52 -50
c-28 -28 -74 -76 -102 -109 l-51 -58 100 -94 c54 -52 103 -94 108 -94 4 0 22
12 39 26 l30 25 461 -8 c813 -14 3879 -4 3972 13 20 4 37 -6 79 -45 54 -48
148 -91 202 -91 15 0 28 -10 37 -29 31 -58 124 -79 173 -37 l28 24 29 -21 c40
-28 120 -27 152 4 l23 21 30 -21 c16 -12 49 -24 73 -27 36 -4 48 -1 72 19 l30
24 34 -24 c19 -12 47 -23 61 -23 39 1 108 35 116 58 4 16 20 24 63 32 131 27
225 101 273 215 41 96 50 203 22 266 -56 123 -187 198 -298 170z m-5565 -376
c0 -6 -31 -42 -70 -80 l-70 -69 -70 69 c-38 38 -70 74 -70 79 0 6 32 43 72 83
l72 72 67 -72 c38 -40 68 -77 69 -82z m4839 -172 c48 -40 34 -133 -23 -147
-88 -22 -137 105 -57 149 35 19 55 18 80 -2z m200 -9 c35 -29 39 -59 16 -104
-13 -25 -22 -30 -52 -30 -88 0 -118 111 -39 146 41 18 40 18 75 -12z m218 -10
c20 -20 24 -31 19 -57 -8 -42 -33 -67 -67 -67 -41 0 -58 9 -74 41 -22 41 -18
65 11 88 37 29 79 27 111 -5z m202 0 c26 -33 26 -50 1 -91 -17 -28 -25 -33
-58 -33 -49 0 -76 27 -75 76 1 48 27 74 74 74 29 0 42 -6 58 -26z"/>
<path d="M9711 1896 c-7 -8 -8 -17 -3 -20 6 -3 15 1 21 8 7 8 8 17 3 20 -6 3
-15 -1 -21 -8z"/>
<path d="M15415 1819 l-90 -90 -2108 -3 c-1429 -2 -2111 -6 -2118 -13 -8 -8
-7 -13 2 -19 7 -4 960 -9 2118 -11 l2106 -4 38 -37 c20 -20 37 -40 37 -45 0
-6 -131 -7 -337 -3 -762 16 -4046 5 -4066 -14 -5 -4 -5 -10 0 -13 28 -17 3078
-28 3939 -14 l501 8 30 -25 c17 -14 37 -26 45 -26 12 0 132 117 183 178 l19
23 -99 99 c-55 55 -102 100 -105 99 -3 0 -45 -41 -95 -90z m170 -39 l69 -69
-55 -58 c-99 -107 -88 -105 -169 -21 l-70 73 72 73 c40 39 75 72 78 72 3 0 37
-31 75 -70z"/>
<path d="M1256 1751 c-14 -22 914 -948 936 -935 17 11 -47 79 -452 484 -410
411 -473 469 -484 451z"/>
<path d="M19119 1545 c-214 -205 -681 -685 -700 -717 -6 -11 -6 -19 1 -23 11
-7 446 420 743 728 130 135 187 201 180 208 -7 7 -78 -55 -224 -196z"/>
<path d="M1224 1535 c-8 -20 2 -721 11 -735 8 -13 715 -18 736 -4 10 6 -176
198 -580 598 -131 130 -162 156 -167 141z m357 -396 c164 -165 299 -303 299
-306 0 -7 -589 3 -596 10 -8 8 -18 597 -10 597 4 0 142 -135 307 -301z"/>
<path d="M19324 1529 c-3 -5 -2 -14 2 -21 5 -7 2 -9 -9 -5 -11 4 -67 -44 -191
-165 -97 -93 -173 -174 -170 -179 3 -6 11 -5 20 2 8 6 14 8 14 4 0 -4 6 -2 13
4 8 6 16 9 19 6 6 -6 288 273 288 286 0 5 5 9 10 9 6 0 10 -18 10 -39 0 -22 5
-43 10 -46 7 -4 7 -11 2 -18 -15 -19 -24 -277 -11 -294 9 -10 9 -17 1 -25 -15
-15 -16 -55 -2 -63 7 -4 7 -11 2 -18 -12 -16 -14 -125 -2 -132 19 -11 28 33
29 135 0 58 3 198 7 311 4 151 3 209 -5 214 -9 5 -9 10 0 21 6 8 10 14 8 15
-31 6 -40 6 -45 -2z"/>
<path d="M2885 1491 c-3 -6 1 -13 8 -18 8 -4 22 -23 31 -41 16 -31 36 -35 36
-7 0 16 -48 75 -60 75 -5 0 -11 -4 -15 -9z"/>
<path d="M2805 1470 c-13 -14 -15 -24 -8 -31 7 -7 15 -2 26 15 21 31 6 43 -18
16z"/>
<path d="M18741 956 c-103 -103 -151 -158 -146 -166 10 -17 674 -5 690 11 7 7
4 15 -9 25 -16 11 -67 13 -305 8 l-286 -5 128 126 c106 104 126 129 117 141
-7 7 -18 14 -24 14 -6 0 -80 -69 -165 -154z"/>
<path d="M19306 821 c-4 -5 -2 -12 3 -15 5 -4 12 -2 15 3 4 5 2 12 -3 15 -5 4
-12 2 -15 -3z"/>
</g>
</svg>
