<?xml version="1.0" standalone="no"?>
<!DOCTYPE svg PUBLIC "-//W3C//DTD SVG 20010904//EN"
 "http://www.w3.org/TR/2001/REC-SVG-20010904/DTD/svg10.dtd">
<svg version="1.0" xmlns="http://www.w3.org/2000/svg"
 width="1824.000000pt" height="2308.000000pt" viewBox="0 0 1824.000000 2308.000000"
 preserveAspectRatio="xMidYMid meet">
<metadata>
Created by potrace 1.16, written by Peter Selinger 2001-2019
</metadata>
<g transform="translate(0.000000,2308.000000) scale(0.100000,-0.100000)"
fill="#000000" stroke="none">
<path d="M1046 21441 c-3 -5 -6 -2794 -6 -6197 -1 -6691 -3 -6337 50 -6759 69
-539 238 -1202 437 -1710 381 -970 905 -1787 1648 -2568 538 -564 1186 -1071
1879 -1468 616 -354 1363 -662 2041 -843 570 -152 1245 -259 1860 -296 230
-14 992 -5 1215 14 577 49 1164 154 1715 307 245 68 880 290 1040 364 17 7
105 47 197 89 1009 456 1940 1123 2662 1907 496 538 772 912 1117 1510 94 164
237 451 341 684 293 658 516 1502 583 2206 36 380 36 483 33 6669 l-3 6095
-8402 3 c-4841 1 -8404 -2 -8407 -7z m16221 -6473 c-2 -4538 -6 -5917 -15
-5998 -7 -58 -17 -157 -23 -220 -30 -324 -133 -856 -226 -1170 -78 -263 -208
-626 -305 -850 -85 -195 -292 -596 -405 -785 -407 -676 -851 -1205 -1513
-1802 -347 -312 -873 -679 -1365 -953 -991 -549 -2141 -888 -3345 -986 -226
-18 -792 -24 -1045 -11 -1442 76 -2808 507 -3990 1260 -996 635 -1864 1524
-2437 2497 -531 901 -830 1806 -943 2850 -26 239 -28 570 -30 6208 l-2 5852
7824 0 7823 0 -3 -5892z"/>
<path d="M6063 19849 c-241 -22 -431 -128 -576 -324 -131 -175 -207 -419 -207
-662 0 -229 102 -392 289 -463 231 -88 550 -56 751 77 81 53 198 179 252 270
60 101 112 255 138 409 23 140 24 191 5 298 -42 240 -208 376 -479 394 -56 4
-134 4 -173 1z m190 -272 c39 -17 91 -67 113 -109 35 -68 32 -257 -7 -412 -28
-112 -98 -252 -158 -318 -87 -95 -215 -146 -338 -135 -118 11 -194 68 -227
169 -44 138 6 437 99 593 77 128 200 219 317 234 61 8 153 -3 201 -22z"/>
<path d="M13740 19840 c-386 -67 -676 -453 -697 -927 -5 -108 -3 -144 12 -195
49 -177 159 -289 340 -344 91 -28 303 -26 410 5 88 25 168 62 202 93 29 27 52
96 59 178 5 53 3 68 -9 79 -18 14 -19 14 -127 -48 -166 -94 -346 -95 -452 -1
-89 78 -115 202 -78 380 47 232 163 419 305 492 138 71 283 57 425 -43 l62
-43 23 26 c22 26 55 140 55 191 0 86 -191 168 -385 166 -55 -1 -120 -5 -145
-9z"/>
<path d="M8520 19830 c-45 -10 -80 -39 -80 -67 0 -8 -21 -112 -46 -231 -25
-120 -51 -248 -59 -287 -7 -38 -35 -178 -63 -310 -113 -532 -112 -529 -97
-544 30 -31 219 -35 276 -5 33 17 33 16 89 294 22 113 58 288 80 390 56 265
140 697 140 721 0 11 -10 23 -24 29 -38 14 -166 20 -216 10z"/>
<path d="M14583 19829 c-23 -5 -47 -16 -53 -24 -10 -13 -51 -189 -110 -475 -5
-25 -43 -207 -85 -405 -114 -538 -110 -515 -91 -534 11 -11 42 -18 94 -21 95
-7 170 4 193 27 19 20 40 108 123 523 31 151 83 408 116 570 33 162 58 301 55
308 -11 31 -162 50 -242 31z"/>
<path d="M15578 19831 c-20 -4 -47 -15 -60 -23 -12 -9 -77 -112 -142 -229 -66
-118 -167 -297 -224 -399 -58 -102 -126 -223 -152 -270 -26 -47 -98 -173 -159
-280 -61 -107 -111 -205 -111 -217 0 -37 32 -45 165 -41 98 2 127 6 142 20 10
9 52 82 93 162 66 129 78 146 100 146 14 0 138 1 277 3 l252 3 5 -25 c3 -15
13 -82 22 -151 10 -79 22 -131 32 -142 13 -16 34 -18 149 -18 120 0 135 2 153
20 11 11 20 25 20 31 0 6 -18 115 -39 243 -22 127 -67 400 -100 606 -34 206
-66 406 -72 443 -7 43 -19 77 -33 93 -20 23 -28 25 -151 29 -71 2 -146 0 -167
-4z m118 -579 c20 -160 35 -294 32 -297 -7 -7 -378 -9 -385 -2 -2 3 49 104
115 224 66 120 137 252 158 295 22 42 40 76 40 75 1 -1 19 -134 40 -295z"/>
<path d="M3003 19823 c-37 -7 -70 -48 -86 -104 -8 -30 -33 -142 -55 -249 -23
-107 -73 -346 -112 -530 -123 -582 -114 -530 -96 -549 23 -23 268 -24 290 -1
9 9 35 113 63 250 l48 235 170 6 c149 5 180 9 250 33 44 15 104 41 134 58 109
62 213 191 257 319 15 41 19 82 19 174 0 138 -11 169 -87 242 -100 97 -217
124 -540 122 -128 -1 -243 -4 -255 -6z m485 -254 c59 -29 76 -69 70 -165 -6
-86 -41 -157 -106 -214 -61 -54 -115 -70 -239 -70 -57 0 -103 1 -103 3 0 2 14
70 30 152 17 83 38 187 47 233 l17 82 120 0 c102 0 126 -3 164 -21z"/>
<path d="M4242 19815 c-21 -9 -38 -27 -46 -47 -8 -18 -39 -152 -70 -298 -98
-462 -136 -639 -182 -855 l-46 -209 22 -18 c18 -15 41 -18 124 -17 55 0 117 5
136 12 41 14 37 0 107 344 l47 233 76 0 c152 0 187 -55 246 -385 37 -212 31
-205 201 -205 196 0 195 -1 139 246 -65 286 -80 325 -141 387 -20 21 -36 39
-34 40 2 1 36 18 74 37 142 70 241 202 265 355 20 125 -6 211 -84 283 -54 49
-114 78 -206 98 -93 20 -581 19 -628 -1z m500 -235 c20 -6 49 -25 63 -42 25
-29 27 -38 23 -99 -3 -56 -9 -75 -37 -116 -64 -94 -137 -125 -289 -125 -57 0
-106 3 -109 6 -5 5 47 273 68 349 l10 37 117 0 c64 0 134 -5 154 -10z"/>
<path d="M6932 19814 c-26 -18 -27 -36 -7 -158 8 -50 31 -208 50 -351 73 -528
125 -883 131 -899 12 -30 41 -36 189 -36 194 0 198 2 265 121 29 52 81 144
115 204 34 61 112 202 173 315 60 113 149 275 196 360 48 85 117 215 154 288
l67 133 -24 20 c-20 16 -39 19 -135 19 -126 0 -142 -6 -173 -67 -161 -311
-226 -436 -336 -643 -72 -135 -152 -287 -178 -338 -56 -108 -46 -128 -79 163
-11 105 -39 339 -61 520 -36 293 -42 332 -61 348 -28 24 -252 25 -286 1z"/>
<path d="M9140 19817 c-19 -7 -41 -25 -51 -42 -9 -16 -35 -120 -58 -230 -22
-110 -52 -254 -66 -320 -75 -347 -152 -726 -155 -765 -7 -85 8 -90 304 -90
287 0 407 14 551 62 114 39 176 79 275 178 76 76 104 113 142 185 50 98 81
188 104 305 74 387 -45 613 -371 702 -71 19 -110 22 -360 25 -205 2 -289 -1
-315 -10z m576 -265 c134 -68 185 -196 155 -389 -35 -229 -146 -415 -290 -488
-100 -50 -145 -59 -285 -57 -71 1 -131 3 -133 5 -4 5 133 683 182 896 l17 73
147 -4 c140 -4 149 -6 207 -36z"/>
<path d="M10595 19799 c-19 -17 -37 -41 -40 -53 -2 -11 -30 -140 -60 -286 -31
-146 -78 -368 -105 -495 -50 -235 -95 -458 -103 -508 -3 -20 2 -37 18 -55 l23
-27 395 -3 c242 -2 404 1 420 7 27 11 51 70 64 158 10 75 16 73 -293 73 l-274
0 0 23 c1 12 18 103 39 202 l38 180 241 3 c280 3 256 -8 279 122 20 112 25
110 -248 110 -120 0 -219 4 -219 9 0 13 49 249 60 293 l11 38 268 0 c305 0
287 -5 315 89 22 76 21 128 -3 141 -13 6 -159 10 -405 10 l-385 0 -36 -31z"/>
<path d="M11791 19817 c-69 -25 -74 -42 -197 -642 -30 -148 -77 -373 -104
-500 -28 -126 -50 -240 -50 -252 0 -42 39 -55 149 -51 133 4 133 4 167 178 14
74 50 250 80 390 44 205 91 467 94 525 1 6 17 -43 36 -108 45 -153 290 -860
315 -909 28 -55 65 -70 189 -75 95 -4 109 -2 150 19 36 18 48 32 62 68 17 47
78 326 204 945 41 198 76 365 78 372 3 6 -1 19 -9 30 -11 14 -30 19 -101 22
-102 4 -161 -10 -174 -42 -5 -12 -21 -78 -35 -147 -87 -420 -144 -705 -155
-769 l-12 -74 -33 109 c-19 60 -57 174 -85 254 -28 80 -82 235 -119 345 -109
321 -106 318 -296 322 -77 2 -132 -2 -154 -10z"/>
<path d="M4274 17797 c-2 -7 -3 -1941 -1 -4297 2 -3253 6 -4313 15 -4400 43
-412 120 -774 236 -1115 91 -270 146 -400 275 -649 234 -454 503 -825 871
-1200 397 -405 764 -677 1290 -956 613 -326 1371 -545 2075 -600 77 -6 158
-13 180 -16 73 -9 580 -5 726 6 405 30 787 99 1164 212 98 29 133 41 327 112
526 193 959 428 1399 759 340 255 716 638 991 1007 72 98 252 372 312 478 64
112 194 375 249 502 209 486 337 1059 367 1649 8 141 10 1527 8 4361 l-3 4155
-5238 2 c-4241 2 -5239 1 -5243 -10z m9980 -1314 c1 -447 0 -813 -1 -813 -4 0
-472 369 -593 468 -58 47 -195 174 -305 282 -246 242 -345 308 -675 454 -362
159 -553 152 -920 -37 -592 -304 -636 -331 -885 -551 -175 -153 -377 -305
-745 -559 -85 -59 -222 -153 -305 -210 -82 -57 -151 -104 -151 -103 -1 1 -4
322 -7 714 l-6 713 -143 150 c-78 82 -152 156 -164 164 -21 14 -28 8 -177
-149 l-156 -163 -6 -774 c-4 -426 -8 -814 -10 -864 -2 -49 -4 -166 -4 -258
l-1 -168 -122 101 c-68 55 -166 136 -218 180 -229 194 -484 320 -710 350 -227
31 -626 -67 -960 -235 -168 -84 -338 -194 -665 -431 -193 -140 -687 -476
-1197 -813 l-348 -230 0 1799 0 1800 4736 -2 4737 -3 1 -812z m-1767 316 c98
-33 350 -155 493 -239 56 -33 126 -94 270 -235 107 -105 227 -218 265 -251 83
-71 414 -335 570 -455 61 -46 124 -94 139 -106 l28 -22 -1 -813 c0 -447 -1
-1309 -1 -1915 l0 -1103 -347 0 -348 1 -95 70 c-175 130 -264 195 -400 294
-520 378 -923 696 -1220 960 -317 282 -410 346 -867 586 -288 152 -454 230
-732 343 -197 80 -311 143 -464 256 l-97 72 -1 381 c0 210 -1 436 -2 502 l-2
120 311 210 c309 208 693 481 789 559 27 23 126 106 220 185 93 79 204 166
245 194 68 46 386 216 640 343 237 118 391 134 607 63z m-4399 -1564 c194 -64
339 -157 606 -388 78 -67 178 -151 223 -187 l82 -65 0 -402 1 -403 -222 -2
-223 -3 0 -180 0 -180 220 -5 220 -5 3 -510 c1 -280 0 -525 -3 -542 l-6 -33
-237 -2 -237 -3 -3 -177 -2 -178 -398 -2 -397 -3 -3 -152 -3 -153 -1464 0
-1465 0 0 940 c0 574 4 940 9 940 9 0 1164 768 1301 865 30 21 132 92 225 159
94 66 222 156 285 201 377 266 656 399 989 475 189 43 359 41 499 -5z m1694
-1246 c113 -74 317 -174 538 -264 204 -84 385 -169 583 -276 464 -249 524
-289 807 -539 321 -282 835 -684 1465 -1145 60 -44 116 -85 125 -92 12 -10
-234 -12 -1157 -13 l-1172 0 -3 153 -3 152 -377 3 -378 2 -2 178 -3 177 -257
3 -258 2 0 545 0 545 218 2 217 3 0 180 0 180 -220 2 -220 2 -3 130 c-1 72 0
131 2 131 3 0 47 -27 98 -61z m-4552 -2514 l0 -95 -185 0 -185 0 0 95 0 95
185 0 185 0 0 -95z m520 0 l0 -95 -125 0 -125 0 0 95 0 95 125 0 125 0 0 -95z
m730 0 l0 -95 -225 0 -225 0 0 95 0 95 225 0 225 0 0 -95z m610 0 l0 -95 -215
0 -215 0 0 95 0 95 215 0 215 0 0 -95z m630 0 l0 -95 -185 0 c-102 0 -185 3
-186 8 -1 4 -2 46 -3 95 l-2 87 188 0 188 0 0 -95z m590 0 l0 -95 -145 0 c-80
0 -145 1 -145 3 -1 1 -3 44 -7 95 l-5 92 151 0 151 0 0 -95z m2420 0 l0 -95
-185 0 -185 0 3 95 2 95 182 0 183 0 0 -95z m520 0 l0 -95 -125 0 -125 0 0 95
0 95 125 0 125 0 0 -95z m740 0 l0 -95 -225 0 -225 0 0 95 0 95 225 0 225 0 0
-95z m610 0 l0 -95 -220 0 -220 0 0 95 0 95 220 0 220 0 0 -95z m630 0 l0 -95
-190 0 -190 0 0 95 0 95 190 0 190 0 0 -95z m590 0 l0 -95 -150 0 -150 0 0 95
0 95 150 0 150 0 0 -95z m430 0 l0 -95 -100 0 -100 0 0 95 0 95 100 0 100 0 0
-95z m-9305 -256 l0 -94 -82 -3 -83 -3 0 100 0 101 83 -3 82 -3 0 -95z m543
-1 l3 -98 -196 0 -195 0 0 93 c0 52 3 97 7 100 4 4 90 6 192 5 l186 -3 3 -97z
m612 74 c0 -25 -7 -32 -42 -47 -106 -44 -219 -100 -229 -112 -8 -9 -39 -13
-100 -13 l-89 0 0 93 c0 52 2 96 4 98 3 2 106 5 230 7 l226 2 0 -28z m1340
-73 l0 -99 -75 0 c-66 0 -81 4 -138 35 -35 19 -109 52 -163 73 -100 37 -104
40 -104 66 0 21 20 23 263 23 l217 1 0 -99z m620 0 l0 -99 -230 0 -230 0 0
100 0 100 230 -1 230 -1 0 -99z m290 -1 l0 -98 -65 0 -65 0 0 93 c0 52 3 96 6
100 3 3 32 5 65 4 l59 -1 0 -98z m2100 2 l0 -100 -45 0 -45 0 0 100 0 100 45
0 45 0 0 -100z m540 1 l0 -101 -190 0 -190 0 0 98 0 97 190 4 190 3 0 -101z
m628 72 c4 -25 5 -24 -124 -73 -44 -16 -106 -46 -138 -65 -54 -32 -65 -35
-137 -35 l-79 0 0 93 c0 52 3 97 7 101 4 4 111 6 238 4 230 -3 230 -3 233 -25z
m1330 -75 l3 -98 -88 0 c-85 0 -93 2 -173 43 -47 24 -120 56 -162 73 -64 24
-78 33 -78 51 0 14 7 23 23 26 12 3 123 4 247 4 l225 -2 3 -97z m622 2 l0
-100 -235 0 -235 0 0 93 c0 52 3 97 7 100 3 4 109 7 235 7 l228 0 0 -100z
m680 0 l0 -100 -260 0 -260 0 0 100 0 100 260 0 260 0 0 -100z m-7970 -76 c0
-7 14 -54 31 -104 17 -51 29 -93 27 -95 -4 -3 -139 -46 -158 -50 -8 -2 -22 -6
-30 -9 -12 -5 -19 7 -32 51 -8 32 -25 88 -36 125 l-21 68 87 26 c48 14 92 27
97 29 12 3 35 -24 35 -41z m587 31 c50 -13 81 -22 140 -40 8 -3 1 -40 -24
-122 -19 -65 -36 -120 -38 -122 -8 -8 -205 54 -202 64 2 5 17 61 32 123 16 61
30 112 31 112 2 0 29 -7 61 -15z m5625 -41 c14 -4 12 -19 -24 -127 -23 -67
-42 -123 -43 -124 -2 -4 -187 55 -192 61 -3 2 10 58 27 124 l32 120 92 -24
c50 -14 98 -27 108 -30z m-703 -70 c18 -64 31 -117 29 -119 -2 -2 -39 -14 -83
-28 -44 -14 -87 -28 -95 -31 -13 -5 -24 18 -54 114 -21 67 -35 124 -31 128 9
9 154 50 181 51 19 1 25 -13 53 -115z m-6639 -99 l0 -94 -67 -3 c-38 -2 -105
-2 -150 0 l-83 3 0 88 c0 48 3 91 7 94 3 4 71 7 150 7 l143 0 0 -95z m527 87
c8 -5 -19 -37 -84 -97 l-95 -89 -90 1 c-49 0 -92 4 -96 8 -9 8 -16 150 -8 170
4 13 34 15 183 15 98 0 183 -4 190 -8z m2043 -87 l0 -95 -68 0 -67 0 -95 95
-95 95 163 0 162 0 0 -95z m600 1 c0 -66 -4 -95 -12 -98 -11 -4 -176 -4 -370
1 l-58 1 0 88 c0 49 3 92 7 95 3 4 102 7 220 7 l213 0 0 -94z m2340 -1 c0 -92
-1 -95 -22 -96 -64 -1 -263 3 -266 5 -6 7 -13 167 -7 176 4 6 67 10 151 10
l144 0 0 -95z m530 87 c0 -4 -21 -24 -47 -44 -27 -20 -70 -60 -98 -87 l-49
-51 -93 0 -93 0 0 88 c0 49 3 92 7 95 9 10 373 9 373 -1z m2030 -87 c0 -69 -3
-95 -12 -96 -7 -1 -42 -1 -77 0 l-65 1 -80 86 c-45 48 -82 91 -84 95 -2 5 69
9 157 9 l161 0 0 -95z m600 0 l0 -95 -37 -1 c-21 -1 -117 -2 -213 -3 l-175 -1
-3 98 -3 97 216 0 215 0 0 -95z m430 0 l0 -95 -62 -1 c-35 -1 -98 -2 -141 -2
l-77 -2 0 98 0 97 140 0 140 0 0 -95z m-8468 -156 c51 -34 94 -63 96 -64 2 -2
-101 -160 -114 -174 -4 -4 -172 107 -206 137 -16 14 -16 16 4 46 50 71 101
127 114 122 8 -3 55 -33 106 -67z m1696 24 c22 -25 49 -63 61 -83 l20 -36
-101 -71 c-56 -40 -106 -69 -110 -67 -5 3 -33 39 -64 81 -54 73 -55 76 -37 93
22 22 175 129 185 130 3 0 24 -21 46 -47z m3782 -22 c52 -38 94 -74 93 -79 -1
-6 -28 -47 -59 -91 l-57 -80 -41 33 c-23 18 -69 52 -103 76 -35 23 -63 46 -63
50 0 19 115 160 129 160 4 0 49 -31 101 -69z m1724 -8 c31 -43 55 -82 55 -88
0 -5 -46 -42 -103 -81 l-104 -71 -60 85 c-34 48 -60 87 -59 88 31 26 202 144
208 144 5 0 33 -35 63 -77z m-6209 17 c85 -23 205 -79 278 -129 70 -48 134
-127 180 -220 l42 -86 5 -485 5 -485 255 0 255 0 3 38 3 37 275 0 276 0 -4
-37 -3 -38 1005 0 1005 0 3 38 3 37 200 0 c109 0 202 1 207 3 4 1 9 -18 12
-43 l5 -45 255 0 255 0 5 495 5 495 36 75 c113 235 405 382 729 367 298 -14
541 -150 646 -362 l39 -79 5 -495 5 -496 255 0 255 0 3 43 3 42 392 1 c216 0
434 2 486 4 l94 4 -6 -172 c-14 -388 -85 -786 -204 -1152 -69 -211 -203 -513
-330 -743 -123 -223 -352 -545 -538 -757 -264 -300 -558 -559 -881 -778 l-42
-28 -60 20 c-106 36 -214 21 -265 -37 -18 -19 -18 -22 -1 -47 27 -42 45 -46
86 -21 26 15 48 21 72 18 59 -7 64 -2 -144 -119 -63 -36 -155 -85 -204 -110
l-90 -45 -56 12 c-105 24 -218 8 -279 -39 l-25 -19 27 -40 c23 -36 24 -41 9
-47 -9 -4 -68 -25 -131 -46 -105 -37 -117 -39 -163 -30 -105 23 -213 8 -248
-34 -11 -14 -11 -20 -1 -37 7 -11 11 -22 9 -24 -10 -9 -308 -75 -446 -99 -497
-84 -1093 -86 -1582 -4 -202 33 -370 65 -376 72 -2 2 26 14 63 26 74 24 143
64 143 83 0 16 -50 68 -66 68 -6 0 -32 -12 -58 -26 -71 -40 -142 -42 -271 -9
-113 29 -154 28 -237 -1 -39 -14 -45 -13 -157 27 -176 63 -393 161 -382 172
23 23 109 20 203 -8 159 -46 221 -45 361 8 33 12 71 33 85 46 l26 24 -38 34
c-20 19 -40 33 -44 31 -107 -56 -129 -63 -202 -63 -51 1 -109 10 -180 29 -97
27 -111 28 -177 19 -40 -6 -97 -22 -127 -37 l-54 -26 -108 57 c-60 31 -127 68
-149 81 l-39 25 52 13 c66 17 128 48 136 69 3 10 -7 29 -27 51 l-33 36 -38
-26 c-47 -32 -91 -40 -170 -33 -88 8 -139 30 -246 102 -182 124 -480 375 -444
375 9 0 47 -10 86 -21 131 -40 307 -12 373 61 17 19 16 20 -11 50 -16 16 -34
30 -40 30 -6 0 -36 -11 -65 -24 -89 -40 -126 -41 -231 -10 -69 21 -113 28
-171 28 l-78 -1 -103 111 c-140 151 -277 317 -270 327 3 5 11 9 18 9 7 0 30 9
52 19 67 33 104 35 190 10 44 -12 105 -22 137 -21 69 0 165 33 198 68 l23 25
-34 34 -35 35 -60 -31 c-69 -35 -94 -35 -223 1 -77 22 -89 23 -145 11 -67 -14
-127 -41 -157 -71 -20 -20 -20 -20 -68 41 -125 160 -318 487 -417 709 -248
551 -367 1042 -392 1610 l-6 150 184 1 c101 0 218 1 259 1 l75 1 5 -39 5 -39
250 0 250 0 6 480 c3 310 9 491 16 512 73 212 270 364 554 428 92 21 290 14
394 -15z m-1870 -19 l70 -1 0 -95 1 -95 -98 0 -98 0 0 93 c0 52 2 96 5 99 3 2
15 4 27 2 13 -1 55 -3 93 -3z m5548 0 c15 -1 17 -12 17 -96 l0 -95 -55 0 -55
0 0 93 c0 52 2 96 4 98 2 2 19 3 38 2 18 -1 41 -2 51 -2z m3797 -91 l0 -100
-260 0 -260 0 0 95 0 95 258 3 c141 1 258 3 260 5 1 1 2 -43 2 -98z m-8800 86
c0 -2 -18 -39 -40 -82 -22 -43 -40 -84 -40 -91 0 -10 -28 -13 -115 -13 l-115
0 0 95 0 95 155 0 c85 0 155 -2 155 -4z m2610 -91 l0 -95 -165 0 -165 0 -1 60
c-1 33 -1 69 -1 80 0 53 -9 50 167 50 l165 0 0 -95z m290 0 l0 -95 -65 0 -65
0 0 95 0 95 65 0 65 0 0 -95z m2590 90 c0 -2 -18 -38 -40 -80 -22 -42 -40 -82
-40 -90 0 -12 -21 -15 -115 -15 l-115 0 0 95 0 95 155 0 c85 0 155 -2 155 -5z
m2630 -90 l0 -95 -175 0 -175 0 0 95 0 95 175 0 175 0 0 -95z m-8384 -262 l3
-93 -150 0 -149 0 0 95 0 96 147 -3 147 -3 2 -92z m3074 2 l0 -95 -145 0 -145
0 0 95 0 95 145 0 145 0 0 -95z m2420 0 l0 -95 -145 0 -145 0 0 95 0 95 145 0
145 0 0 -95z m3090 0 l0 -95 -145 0 -145 0 -2 48 c-1 50 -1 71 1 115 l1 27
145 0 145 0 0 -95z m480 0 l0 -95 -160 0 -160 0 0 95 0 95 160 0 160 0 0 -95z
m-8552 -212 l-3 -108 -137 -3 -138 -3 0 111 0 110 140 0 141 0 -3 -107z m1977
65 c3 -24 5 -72 3 -108 l-3 -65 -137 -3 -138 -3 0 111 0 110 134 0 135 0 6
-42z m3505 -71 l0 -108 -137 3 -138 3 -2 95 c-2 52 -1 100 1 105 2 6 58 10
140 10 l136 0 0 -108z m1980 3 l0 -110 -140 0 -140 0 0 110 0 110 140 0 140 0
0 -110z m-8182 51 c9 -1 12 -27 12 -96 l0 -95 -105 0 -105 0 0 98 0 97 92 -2
c51 -1 99 -2 106 -2z m312 -91 l0 -100 -60 0 -60 0 0 100 0 100 60 0 60 0 0
-100z m2770 0 l0 -100 -134 0 -134 0 -1 90 c-1 50 1 95 4 100 4 6 63 10 136
10 l129 0 0 -100z m285 0 l0 -95 -60 0 c-51 0 -60 3 -59 18 1 9 2 53 3 97 l1
81 58 -3 57 -3 0 -95z m2155 0 l0 -100 -70 0 -70 0 0 100 0 100 70 0 70 0 0
-100z m280 0 l0 -100 -55 0 -55 0 0 100 0 100 55 0 55 0 0 -100z m2790 0 l0
-100 -145 0 -145 0 0 100 0 100 145 0 145 0 0 -100z m680 0 l0 -100 -260 0
-260 0 0 100 0 100 260 0 260 0 0 -100z m-8960 -260 l0 -100 -140 0 c-77 0
-140 3 -141 8 -8 102 -10 166 -5 177 4 12 32 15 146 15 l140 0 0 -100z m3048
3 l-3 -98 -157 -3 -158 -3 0 101 0 100 160 0 161 0 -3 -97z m2442 -3 l0 -101
-132 3 -131 3 -2 90 c0 50 1 93 3 98 2 4 61 7 133 7 l129 0 0 -100z m3050 0
l0 -100 -155 0 -155 0 0 100 0 100 155 0 155 0 0 -100z m420 0 l0 -100 -97 0
c-54 0 -115 3 -135 6 l-38 7 0 93 0 94 135 0 135 0 0 -100z m-8550 -220 l0
-110 -140 0 -140 0 0 110 0 110 140 0 140 0 0 -110z m1978 3 l-3 -108 -137 -3
-138 -3 0 111 0 110 140 0 141 0 -3 -107z m3504 13 c2 -51 2 -101 0 -110 -3
-14 -22 -16 -138 -16 -74 0 -134 3 -135 8 -1 4 -2 53 -4 110 l-2 102 138 0
138 0 3 -94z m1978 -16 l0 -110 -140 0 -140 0 0 110 0 110 140 0 140 0 0 -110z
m-2630 -38 l0 -97 -40 1 c-22 1 -60 2 -85 3 l-45 1 0 94 0 95 28 3 c15 2 53 1
85 0 l57 -4 0 -96z m-5500 1 l0 -98 -123 1 -122 1 -3 96 -3 97 126 0 125 0 0
-97z m261 55 c0 -24 2 -67 3 -95 l2 -53 -53 0 -53 0 0 95 0 95 50 0 50 0 1
-42z m2781 -55 l-3 -98 -135 3 -134 3 0 95 0 94 138 0 137 0 -3 -97z m278 2
l0 -95 -65 0 -65 0 0 95 0 95 65 0 65 0 0 -95z m2430 -3 l0 -98 -47 0 -48 1
-1 90 c0 50 2 93 4 98 2 4 23 7 48 7 l44 0 0 -98z m2800 0 l0 -99 -142 3 c-79
1 -146 3 -150 3 -5 1 -8 44 -8 96 l0 95 150 0 150 0 0 -98z m670 3 l0 -95 -50
-1 c-27 0 -102 -1 -165 -1 -63 0 -158 1 -210 1 l-95 1 0 95 0 95 260 0 260 0
0 -95z m-2810 -4239 c0 -2 -9 -6 -20 -9 -11 -3 -20 -1 -20 4 0 5 9 9 20 9 11
0 20 -2 20 -4z"/>
<path d="M6315 9272 c-72 -39 -145 -41 -269 -7 -112 30 -173 29 -262 -5 -59
-22 -124 -59 -124 -70 0 -14 41 -59 59 -65 10 -3 40 5 67 19 79 39 125 41 254
11 87 -21 128 -26 175 -22 100 10 225 65 225 101 0 14 -52 66 -66 65 -5 0 -31
-12 -59 -27z"/>
<path d="M7256 9273 c-75 -39 -144 -41 -274 -7 -101 26 -116 27 -175 17 -68
-11 -179 -56 -199 -80 -9 -11 -5 -21 24 -50 l36 -35 54 25 c85 41 138 43 248
13 105 -29 180 -32 255 -12 51 13 115 43 150 70 20 14 19 15 -14 50 -19 20
-40 36 -45 35 -6 0 -33 -12 -60 -26z"/>
<path d="M8051 9264 c-17 -12 -35 -15 -74 -10 -165 20 -192 20 -251 -7 -71
-33 -78 -50 -38 -90 l31 -31 40 19 c32 14 53 16 98 11 164 -19 177 -19 231 4
76 33 82 44 42 85 -38 40 -46 41 -79 19z"/>
<path d="M10275 9195 c-51 -26 -71 -30 -135 -30 -51 0 -91 7 -125 20 -38 15
-74 20 -150 20 -92 0 -105 -2 -166 -32 -95 -47 -100 -56 -58 -98 l34 -34 63
31 c80 40 155 42 257 9 89 -29 156 -33 236 -14 62 14 150 55 169 78 6 8 -2 22
-28 46 l-37 35 -60 -31z"/>
<path d="M11286 9196 c-84 -42 -148 -45 -260 -11 -143 44 -265 31 -368 -38
-44 -30 -46 -50 -5 -81 l34 -26 55 30 c82 45 128 48 239 15 123 -37 209 -38
302 -5 37 13 82 36 100 51 l32 28 -35 33 -35 34 -59 -30z"/>
<path d="M12494 9220 c-6 -6 -42 -22 -80 -35 -94 -34 -185 -33 -317 2 -137 35
-253 35 -356 0 -129 -45 -152 -71 -103 -120 l31 -31 53 26 c114 56 195 61 340
22 139 -37 260 -39 376 -5 47 14 96 36 115 52 l32 27 -34 36 c-38 39 -42 41
-57 26z"/>
<path d="M13459 9198 c-83 -44 -152 -47 -270 -13 -154 44 -295 25 -389 -53
l-25 -21 33 -34 34 -35 56 28 c78 38 133 45 212 25 36 -9 92 -23 125 -32 97
-24 224 0 304 57 l42 31 -20 28 c-35 49 -41 50 -102 19z"/>
<path d="M6510 8926 c-21 -19 -107 -46 -149 -46 -19 0 -68 9 -109 21 -110 31
-228 25 -307 -16 -80 -42 -88 -57 -48 -97 l32 -31 59 26 c85 39 133 42 227 19
121 -30 145 -33 209 -22 63 10 127 39 164 73 l22 21 -32 33 c-35 36 -47 40
-68 19z"/>
<path d="M7361 8909 c-65 -35 -115 -37 -233 -9 -46 11 -110 20 -144 20 -74 0
-168 -30 -215 -69 l-34 -29 29 -31 c17 -17 35 -31 42 -31 7 0 35 12 64 27 67
35 144 36 263 3 79 -21 95 -22 158 -13 68 11 168 53 190 80 9 10 5 22 -15 48
-15 19 -32 35 -39 34 -7 0 -36 -14 -66 -30z"/>
<path d="M8700 8925 c-96 -56 -261 -71 -385 -35 -139 40 -215 47 -325 30 -76
-12 -209 -64 -224 -88 -3 -5 9 -26 27 -47 l33 -38 40 21 c115 59 223 66 394
27 166 -38 227 -41 342 -16 92 19 148 41 193 75 20 14 19 15 -14 50 -39 40
-45 42 -81 21z"/>
<path d="M10465 8911 c-62 -32 -151 -35 -269 -7 -47 11 -102 16 -135 14 -56
-4 -159 -44 -193 -75 -18 -16 -17 -18 14 -50 17 -18 36 -33 41 -33 6 0 35 12
66 26 69 33 126 34 240 4 67 -18 99 -21 150 -16 70 8 169 46 197 77 17 19 16
21 -16 54 -19 19 -36 34 -39 34 -4 -1 -28 -14 -56 -28z"/>
<path d="M11610 8925 c-6 -8 -37 -24 -68 -35 -69 -26 -139 -24 -261 10 -112
30 -210 25 -298 -14 -34 -16 -71 -38 -83 -51 l-21 -22 37 -32 c20 -18 39 -30
42 -29 4 2 34 17 67 33 79 38 155 38 280 1 124 -37 219 -29 336 30 73 36 77
48 36 89 -39 39 -49 42 -67 20z"/>
<path d="M12784 8924 c-12 -8 -52 -23 -90 -34 -98 -28 -197 -26 -319 7 -115
31 -245 36 -335 14 -81 -20 -180 -67 -180 -85 0 -9 13 -30 29 -48 l29 -32 53
27 c111 55 236 60 399 16 123 -34 265 -32 377 5 45 15 96 38 113 53 l31 26
-32 33 c-37 38 -44 40 -75 18z"/>
<path d="M14000 8925 c-14 -8 -54 -24 -89 -36 -55 -18 -78 -21 -170 -16 -63 3
-139 14 -186 27 -113 31 -256 31 -349 1 -74 -24 -141 -55 -150 -69 -3 -5 9
-27 28 -48 l33 -38 59 26 c128 57 206 61 371 22 222 -53 390 -38 531 48 l34
21 -38 38 c-43 44 -40 43 -74 24z"/>
<path d="M5587 8908 c-21 -15 -36 -19 -65 -14 -20 3 -71 9 -112 12 -66 5 -81
3 -119 -18 -66 -34 -73 -51 -33 -90 32 -32 32 -32 61 -15 34 20 76 21 169 6
79 -13 131 -3 177 35 l30 25 -40 40 -40 40 -28 -21z"/>
<path d="M9505 8908 c-26 -17 -40 -18 -115 -12 -47 4 -125 8 -175 8 -77 1 -97
-3 -140 -24 -27 -14 -51 -32 -53 -40 -1 -8 10 -31 26 -49 l29 -35 36 23 c29
18 51 22 104 22 38 -1 86 -5 108 -11 94 -23 204 -7 263 37 l34 25 -29 30 c-42
44 -54 48 -88 26z"/>
<path d="M5937 8567 c-79 -42 -201 -50 -304 -19 -103 31 -131 35 -219 34 -54
0 -100 -8 -139 -21 -63 -22 -135 -65 -135 -81 0 -5 12 -24 28 -40 l27 -31 67
31 c101 47 173 50 327 11 68 -17 147 -31 175 -31 85 0 265 58 296 95 11 13 8
21 -20 50 -19 19 -36 35 -39 34 -4 0 -32 -15 -64 -32z"/>
<path d="M6945 8566 c-82 -41 -144 -45 -237 -15 -138 44 -297 25 -383 -45
l-30 -25 36 -36 36 -37 50 26 c95 47 128 51 234 22 130 -34 166 -38 228 -26
59 11 155 51 183 76 21 20 15 37 -25 67 l-32 23 -60 -30z"/>
<path d="M8040 8586 c-28 -26 -133 -58 -191 -57 -31 0 -98 12 -149 27 -76 22
-106 26 -168 21 -84 -5 -171 -34 -218 -72 l-29 -24 36 -36 35 -36 70 33 c86
41 155 43 264 8 141 -45 325 -23 411 50 l34 28 -34 36 c-39 41 -41 41 -61 22z"/>
<path d="M8478 8583 c-9 -9 -44 -20 -79 -25 -67 -9 -149 -41 -149 -57 0 -6 16
-29 36 -51 l36 -40 25 19 c13 11 49 23 81 27 56 6 124 34 137 54 6 9 -53 89
-65 90 -3 0 -13 -7 -22 -17z"/>
<path d="M9314 8589 c-12 -20 -88 -49 -129 -49 -22 0 -69 9 -105 20 -77 23
-181 26 -238 6 -51 -18 -122 -65 -122 -80 0 -7 13 -25 30 -41 l30 -28 47 25
c76 41 115 43 234 12 95 -24 109 -26 168 -15 73 14 126 38 159 74 l23 24 -28
32 c-28 32 -56 40 -69 20z"/>
<path d="M10164 8563 c-73 -41 -124 -44 -233 -16 -150 39 -257 22 -351 -55
l-25 -21 37 -37 36 -37 29 20 c74 50 127 54 275 21 89 -20 104 -21 160 -9 75
15 150 46 172 70 14 16 13 20 -22 53 l-37 35 -41 -24z"/>
<path d="M11054 8569 c-13 -21 -90 -49 -137 -49 -27 0 -85 9 -130 21 -61 16
-99 20 -145 15 -68 -6 -170 -46 -198 -78 -17 -18 -16 -20 17 -53 l34 -35 53
27 c75 37 142 41 244 13 59 -16 99 -21 138 -17 66 6 154 38 195 71 l30 24 -38
36 c-41 38 -52 43 -63 25z"/>
<path d="M11922 8553 c-12 -9 -48 -22 -80 -29 -53 -13 -65 -12 -166 12 -78 19
-124 25 -162 21 -59 -6 -164 -49 -190 -78 -17 -19 -17 -21 2 -46 35 -46 46
-48 93 -17 59 39 134 43 243 14 107 -29 200 -25 278 12 30 14 64 33 75 41 20
15 19 16 -14 51 -39 40 -46 42 -79 19z"/>
<path d="M12795 8550 c-61 -39 -116 -43 -238 -14 -84 19 -126 24 -166 20 -64
-8 -160 -48 -190 -80 l-21 -22 35 -34 c30 -29 38 -33 53 -22 74 52 162 63 265
32 105 -31 211 -26 293 16 80 40 88 57 46 95 -37 34 -38 34 -77 9z"/>
<path d="M13906 8431 c-3 -5 -35 -21 -72 -35 -92 -37 -182 -36 -339 4 -132 33
-197 37 -296 16 -68 -15 -176 -63 -197 -88 -9 -12 -5 -21 23 -48 l34 -33 63
26 c138 57 194 60 364 17 184 -46 318 -39 442 24 76 39 81 50 42 91 -34 35
-54 43 -64 26z"/>
<path d="M6147 8147 c-86 -44 -174 -48 -298 -12 -124 36 -224 42 -309 20 -78
-20 -170 -64 -178 -84 -3 -8 9 -28 31 -47 l35 -33 58 31 c87 47 179 50 346 9
142 -35 177 -37 266 -16 73 17 180 69 189 91 7 19 -44 75 -66 73 -9 -1 -42
-15 -74 -32z"/>
<path d="M7121 8149 c-65 -35 -138 -39 -232 -10 -135 42 -234 34 -334 -24 -72
-43 -75 -52 -32 -91 l37 -34 37 23 c88 55 142 59 281 21 126 -34 196 -30 290
17 86 44 95 59 57 99 -16 16 -34 30 -39 29 -6 0 -35 -14 -65 -30z"/>
<path d="M8052 8153 c-58 -34 -140 -41 -218 -18 -166 48 -286 33 -389 -49
l-30 -24 38 -35 37 -36 59 31 c84 43 136 46 250 13 78 -23 107 -27 162 -22 68
6 148 36 199 76 l25 20 -34 35 c-19 20 -40 36 -45 35 -6 -1 -30 -12 -54 -26z"/>
<path d="M8771 8143 c-21 -14 -33 -15 -93 -5 -127 22 -208 12 -264 -33 l-29
-23 21 -28 c35 -47 48 -51 98 -26 44 22 46 22 117 6 119 -27 206 -9 243 49 8
13 4 23 -19 47 -33 35 -42 36 -74 13z"/>
<path d="M10897 8047 c-66 -42 -139 -47 -239 -17 -111 34 -173 37 -251 11 -68
-23 -128 -57 -134 -77 -2 -7 10 -25 26 -42 l31 -30 67 29 c81 34 131 36 222
10 101 -30 147 -34 215 -21 62 12 176 66 183 87 4 11 -54 84 -66 82 -3 0 -28
-15 -54 -32z"/>
<path d="M11810 8051 c-29 -22 -92 -41 -134 -41 -16 0 -77 12 -135 27 -84 20
-118 25 -162 19 -65 -8 -202 -73 -207 -97 -2 -9 13 -28 32 -43 l35 -26 39 20
c21 11 65 26 96 32 50 11 67 10 144 -9 132 -33 162 -36 236 -19 74 18 120 38
154 69 l22 21 -32 33 c-36 38 -53 40 -88 14z"/>
<path d="M12518 8033 c-24 -15 -36 -16 -98 -5 -100 17 -144 15 -195 -9 -70
-33 -75 -44 -33 -86 l35 -35 33 17 c27 14 45 16 94 10 123 -16 180 -12 225 18
22 15 41 31 41 35 0 11 -57 72 -67 72 -4 0 -20 -8 -35 -17z"/>
<path d="M13715 7974 c-60 -35 -110 -39 -199 -15 -138 38 -256 23 -331 -42
l-36 -32 35 -34 36 -34 47 25 c72 38 105 41 219 14 63 -15 118 -22 145 -19 57
7 137 37 172 65 l28 23 -31 38 c-17 20 -35 37 -38 36 -4 0 -25 -12 -47 -25z"/>
<path d="M9508 7814 c-65 -33 -150 -54 -223 -54 -63 0 -80 4 -210 40 -147 41
-284 28 -427 -40 -73 -34 -78 -45 -37 -86 l35 -35 64 29 c134 60 196 63 379
18 128 -32 205 -39 293 -25 83 12 207 60 234 90 17 19 16 21 -16 54 -19 19
-36 35 -39 35 -4 -1 -27 -12 -53 -26z"/>
<path d="M7295 7799 c-73 -35 -129 -37 -234 -8 -130 37 -275 14 -358 -57 l-23
-19 33 -39 33 -39 66 32 c80 38 135 40 245 10 131 -36 266 -13 353 59 l25 21
-34 35 c-19 20 -37 36 -40 35 -4 0 -33 -14 -66 -30z"/>
<path d="M8181 7799 c-65 -34 -135 -38 -208 -12 -34 12 -79 18 -153 18 -95 0
-111 -3 -167 -29 -34 -15 -70 -37 -80 -48 -17 -19 -17 -21 18 -53 l37 -33 56
28 c85 43 125 46 240 16 111 -29 168 -32 244 -12 53 14 135 57 148 77 7 12
-54 80 -70 78 -6 -1 -35 -15 -65 -30z"/>
<path d="M6218 7798 c-25 -20 -29 -20 -130 -7 -152 20 -238 8 -303 -45 l-30
-25 36 -36 36 -37 44 22 c52 27 95 29 210 10 102 -16 175 -5 224 34 l30 25
-40 40 c-21 23 -42 41 -45 40 -3 0 -17 -9 -32 -21z"/>
<path d="M11946 7736 c-48 -25 -69 -30 -118 -29 -33 1 -83 10 -112 20 -78 27
-195 24 -274 -7 -35 -14 -75 -35 -90 -47 l-27 -22 36 -36 35 -36 60 28 c80 36
151 41 245 14 41 -12 100 -21 131 -21 72 0 181 34 219 68 l30 27 -38 36 -38
36 -59 -31z"/>
<path d="M13135 7736 c-86 -44 -179 -48 -305 -12 -126 37 -226 43 -315 21 -69
-17 -141 -49 -180 -79 -20 -15 -19 -16 15 -50 l35 -35 85 34 c107 44 173 45
320 9 121 -31 239 -36 315 -15 57 16 160 65 170 81 7 11 -57 81 -71 79 -5 -1
-36 -16 -69 -33z"/>
<path d="M11075 7734 c-62 -29 -123 -31 -224 -4 -41 11 -98 20 -127 20 -91 0
-234 -64 -234 -105 0 -6 13 -24 29 -39 l29 -27 54 30 c67 38 131 41 250 10
114 -30 193 -23 279 22 72 38 82 59 48 95 -27 29 -40 29 -104 -2z"/>
<path d="M10167 7732 c-25 -17 -32 -17 -95 -4 -37 7 -86 12 -110 9 -45 -5
-122 -49 -122 -70 0 -7 14 -26 30 -42 l30 -29 41 21 c33 17 47 19 77 11 83
-22 146 -21 191 1 57 30 61 46 20 87 l-34 34 -28 -18z"/>
<path d="M6868 7438 c-67 -36 -109 -38 -218 -9 -130 35 -238 23 -332 -35 -52
-33 -54 -42 -18 -79 l32 -33 56 26 c79 36 140 39 248 12 68 -17 105 -21 158
-17 73 6 158 41 191 77 18 20 18 21 -15 55 -19 19 -36 35 -39 34 -4 0 -32 -15
-63 -31z"/>
<path d="M7790 7456 c-17 -22 -98 -46 -149 -46 -26 0 -76 8 -112 18 -88 25
-176 27 -246 7 -56 -16 -143 -68 -143 -84 0 -5 16 -23 35 -40 l36 -31 52 27
c43 23 64 28 127 28 41 0 109 -9 150 -19 101 -24 184 -17 268 25 35 17 66 37
69 45 6 15 -28 59 -58 75 -11 6 -21 4 -29 -5z"/>
<path d="M8691 7456 c-17 -21 -98 -46 -146 -46 -23 0 -75 9 -116 20 -127 34
-260 19 -341 -37 -46 -31 -48 -53 -8 -87 l30 -25 53 26 c73 37 145 41 249 13
140 -38 293 -14 359 56 l22 24 -39 35 c-45 39 -47 40 -63 21z"/>
<path d="M5788 7433 c-15 -15 -26 -15 -101 -4 -95 14 -145 6 -183 -30 -31 -29
-30 -39 6 -74 l30 -28 39 17 c33 15 47 16 90 7 76 -16 122 -13 159 9 45 28 48
43 17 85 -31 40 -35 41 -57 18z"/>
<path d="M9373 7430 c-27 -14 -41 -16 -80 -7 -83 17 -164 14 -202 -8 -56 -33
-61 -50 -24 -87 l32 -32 40 19 c35 15 48 16 97 6 114 -22 197 -11 234 34 12
14 8 21 -26 54 l-39 37 -32 -16z"/>
<path d="M10662 7373 c-72 -43 -119 -47 -232 -18 -54 14 -121 25 -149 25 -66
0 -171 -35 -213 -71 l-33 -28 35 -35 35 -36 53 27 c73 36 140 40 233 14 122
-34 222 -26 326 27 63 33 67 43 32 85 -17 20 -34 37 -37 37 -4 -1 -26 -12 -50
-27z"/>
<path d="M11561 7362 c-55 -31 -125 -32 -226 -3 -136 40 -293 15 -359 -58 -20
-22 -20 -22 15 -56 l34 -35 53 27 c74 37 139 40 241 13 107 -29 202 -25 282
13 31 15 64 35 73 46 16 17 15 20 -9 50 -32 37 -46 37 -104 3z"/>
<path d="M12466 7371 c-65 -43 -105 -46 -236 -16 -94 21 -135 26 -178 21 -62
-7 -162 -48 -188 -77 -15 -17 -15 -20 0 -43 29 -45 49 -49 103 -21 73 38 131
41 244 11 92 -24 127 -25 204 -10 43 9 129 51 149 73 16 17 15 20 -9 50 -31
36 -49 38 -89 12z"/>
<path d="M13336 7364 c-62 -33 -123 -34 -240 -4 -66 16 -104 21 -144 16 -84
-10 -212 -70 -212 -99 0 -7 15 -24 34 -39 l34 -28 58 27 c79 36 126 39 217 14
143 -39 274 -22 357 47 l34 29 -34 32 c-19 17 -39 31 -45 31 -5 -1 -32 -12
-59 -26z"/>
<path d="M7545 7038 c-46 -27 -56 -29 -125 -24 -41 2 -97 12 -123 22 -99 34
-273 0 -332 -66 -18 -20 -18 -21 16 -55 l34 -34 63 31 c75 37 110 38 237 8
117 -29 191 -23 280 21 89 44 93 50 54 93 -17 20 -36 36 -43 35 -6 -1 -33 -14
-61 -31z"/>
<path d="M8735 7037 c-85 -45 -177 -48 -295 -12 -158 49 -271 44 -391 -16 -81
-40 -89 -53 -54 -89 34 -35 49 -37 93 -10 41 25 135 47 182 43 19 -2 71 -12
115 -24 181 -47 275 -44 397 13 92 42 96 49 61 93 -15 19 -32 35 -38 34 -5 -1
-37 -15 -70 -32z"/>
<path d="M10137 7037 c-91 -48 -159 -49 -317 -2 -86 25 -201 22 -285 -10 -39
-14 -83 -36 -98 -48 l-28 -22 39 -38 38 -38 45 25 c24 13 72 30 106 37 56 12
70 11 170 -14 59 -14 121 -29 137 -32 73 -15 277 43 316 90 11 13 8 21 -20 50
-19 19 -36 35 -39 34 -4 0 -32 -15 -64 -32z"/>
<path d="M11110 7051 c-64 -46 -160 -53 -279 -20 -98 28 -183 23 -268 -16 -34
-15 -70 -36 -79 -47 -17 -18 -16 -20 17 -53 l34 -35 55 27 c75 36 130 39 230
14 46 -11 111 -21 145 -21 75 0 169 30 216 69 l34 29 -34 36 c-19 20 -37 36
-40 36 -4 0 -17 -9 -31 -19z"/>
<path d="M11816 7031 c-48 -24 -51 -24 -130 -11 -144 24 -205 24 -268 0 -32
-12 -67 -29 -79 -39 l-22 -18 28 -36 c32 -43 38 -44 96 -17 52 23 105 25 211
6 42 -7 96 -11 120 -9 51 6 130 38 152 62 14 16 13 20 -22 52 l-37 35 -49 -25z"/>
<path d="M13088 7033 c-58 -31 -115 -32 -223 -4 -43 12 -95 21 -116 21 -56 0
-160 -36 -199 -69 l-35 -29 24 -26 c35 -37 54 -40 102 -16 64 33 131 36 224
10 128 -36 241 -17 330 54 l30 24 -34 31 c-18 17 -38 31 -45 30 -6 0 -32 -12
-58 -26z"/>
<path d="M7755 6690 c-69 -39 -121 -42 -230 -14 -133 35 -218 29 -321 -24 -67
-34 -73 -47 -35 -86 l33 -34 48 24 c91 46 151 47 286 8 85 -24 194 -16 262 21
28 15 58 35 67 45 13 15 11 20 -23 52 l-37 36 -50 -28z"/>
<path d="M10290 6687 c-47 -27 -65 -32 -120 -31 -36 0 -85 8 -110 17 -106 40
-240 28 -338 -29 -57 -34 -62 -49 -24 -86 l30 -31 58 29 c79 39 154 43 251 14
109 -32 214 -26 301 19 35 17 66 39 69 47 4 10 -7 28 -28 49 l-34 33 -55 -31z"/>
<path d="M12494 6689 c-41 -20 -89 -33 -147 -40 -81 -10 -92 -9 -219 22 -204
50 -328 44 -474 -21 -34 -15 -64 -33 -68 -39 -4 -6 7 -29 24 -51 l31 -40 50
25 c123 63 228 68 414 21 115 -30 224 -33 326 -12 66 14 181 66 194 87 7 10
-51 80 -64 78 -4 0 -33 -14 -67 -30z"/>
<path d="M8835 6685 c-64 -37 -110 -39 -227 -9 -127 32 -189 29 -281 -15 -93
-44 -98 -54 -55 -97 l35 -36 53 28 c72 37 128 41 235 14 122 -30 199 -25 289
19 37 18 70 40 73 48 7 17 -44 73 -66 72 -9 -1 -34 -11 -56 -24z"/>
<path d="M11181 6684 c-71 -38 -119 -40 -230 -10 -54 14 -118 26 -143 26 -87
0 -248 -67 -248 -103 0 -8 13 -25 28 -40 l29 -27 59 27 c85 39 143 41 272 8
109 -27 110 -28 184 -11 77 17 168 65 168 89 0 16 -52 68 -66 66 -5 -1 -29
-12 -53 -25z"/>
<path d="M6850 6680 c-23 -19 -29 -19 -85 -5 -111 27 -177 18 -232 -30 l-38
-34 32 -33 c32 -31 34 -32 65 -18 37 15 74 16 195 5 73 -7 85 -6 116 14 62 38
65 47 27 86 -39 40 -46 41 -80 15z"/>
<path d="M10711 6389 c-66 -36 -140 -39 -219 -9 -99 38 -250 19 -331 -41 -38
-28 -39 -38 -1 -74 l29 -28 60 27 c69 31 134 35 207 13 81 -24 156 -30 216
-18 55 12 158 66 165 87 5 15 -45 74 -60 73 -7 0 -36 -14 -66 -30z"/>
<path d="M9855 6384 c-22 -7 -89 -17 -149 -21 -86 -6 -111 -12 -120 -25 -8
-14 -5 -23 19 -49 l30 -31 115 4 c116 4 156 15 203 56 17 15 16 17 -15 49 -17
18 -34 32 -37 32 -4 -1 -24 -8 -46 -15z"/>
<path d="M7392 6360 c-63 -41 -123 -47 -219 -19 -88 25 -205 30 -269 11 -48
-14 -134 -69 -134 -86 0 -7 13 -25 29 -40 l29 -28 58 28 c78 38 149 42 242 14
131 -40 297 -14 363 56 l23 24 -34 35 c-19 19 -36 35 -39 34 -4 0 -25 -13 -49
-29z"/>
<path d="M8505 6359 c-76 -43 -116 -45 -249 -14 -106 26 -121 27 -178 16 -70
-14 -130 -39 -168 -70 l-25 -20 36 -36 35 -36 58 27 c83 38 130 41 227 14 141
-38 279 -17 367 56 l23 19 -38 36 -38 36 -50 -28z"/>
<path d="M11581 6364 c-19 -13 -57 -28 -85 -35 -45 -10 -64 -8 -161 16 -153
37 -259 22 -340 -48 l-36 -32 34 -33 34 -33 57 31 c71 37 128 39 235 9 106
-30 216 -24 288 16 29 15 59 35 68 45 13 15 11 20 -23 52 l-37 36 -34 -24z"/>
<path d="M9438 6359 c-15 -11 -52 -25 -82 -31 -49 -11 -66 -9 -153 13 -117 29
-197 29 -275 -1 -62 -23 -108 -55 -108 -74 0 -7 13 -25 30 -41 l30 -29 37 21
c21 12 66 27 99 33 54 11 71 10 143 -9 97 -25 150 -30 210 -19 50 9 147 51
173 75 18 16 17 18 -14 50 -37 38 -53 40 -90 12z"/>
<path d="M12351 6358 c-7 -8 -39 -13 -80 -13 -59 0 -72 -4 -104 -28 -20 -15
-37 -31 -37 -35 0 -4 13 -23 28 -41 l28 -34 34 18 c24 13 46 16 78 11 35 -5
56 -1 90 15 24 12 46 28 49 36 3 8 -9 29 -28 49 -37 38 -40 39 -58 22z"/>
<path d="M8803 6024 c-62 -37 -132 -41 -240 -14 -118 30 -199 25 -289 -20 -36
-17 -68 -39 -71 -48 -4 -10 7 -27 31 -49 34 -31 39 -33 54 -20 9 9 46 25 82
37 l65 22 90 -23 c127 -33 221 -32 302 5 34 16 70 37 79 47 17 19 16 21 -16
54 -19 19 -36 35 -39 35 -4 -1 -25 -12 -48 -26z"/>
<path d="M9706 6022 c-68 -36 -141 -40 -234 -12 -101 31 -215 25 -294 -13 -30
-15 -63 -36 -73 -47 -18 -20 -18 -21 14 -54 l33 -34 41 23 c23 13 68 28 99 34
49 9 70 7 160 -16 152 -37 259 -22 346 52 l33 28 -32 33 c-18 19 -35 34 -38
33 -4 0 -28 -12 -55 -27z"/>
<path d="M10630 6031 c-62 -45 -156 -53 -258 -21 -121 38 -265 18 -342 -47
-37 -31 -37 -42 -2 -76 l29 -27 47 26 c65 37 162 44 242 18 40 -13 88 -19 149
-19 78 0 98 4 146 27 31 16 64 37 74 48 18 20 18 21 -15 55 -19 19 -36 35 -39
35 -4 0 -17 -9 -31 -19z"/>
<path d="M11595 6022 c-69 -37 -152 -41 -240 -12 -123 41 -294 12 -360 -60
-18 -20 -18 -21 15 -55 l33 -34 43 25 c23 14 68 29 100 34 51 9 73 6 159 -16
75 -20 115 -25 163 -21 66 5 155 42 187 77 19 20 18 21 -16 55 l-34 33 -50
-26z"/>
<path d="M9064 5649 c-41 -27 -124 -50 -183 -51 -30 0 -84 12 -133 28 -137 46
-261 34 -376 -36 -47 -29 -50 -47 -14 -83 l31 -31 64 33 c93 47 155 51 253 15
67 -24 94 -29 179 -28 87 0 108 3 158 27 70 32 117 64 117 80 0 7 -15 24 -33
39 l-34 26 -29 -19z"/>
<path d="M10116 5637 c-87 -45 -187 -49 -321 -11 -131 36 -259 38 -353 5 -69
-24 -142 -65 -142 -81 0 -5 13 -24 28 -41 l28 -32 68 33 c103 48 185 51 345
11 139 -34 185 -37 282 -17 65 14 209 79 209 94 0 12 -65 72 -75 71 -6 -1 -36
-16 -69 -32z"/>
<path d="M10662 5650 c-56 -12 -157 -57 -179 -82 -20 -22 -13 -40 29 -71 l26
-19 72 36 c89 44 133 46 238 9 102 -36 200 -37 296 -4 37 13 82 36 100 52 l31
28 -32 32 -32 32 -61 -27 c-89 -40 -156 -43 -260 -13 -104 30 -172 38 -228 27z"/>
<path d="M10331 5339 c-69 -37 -159 -39 -263 -8 -95 29 -198 24 -285 -15 -34
-16 -70 -37 -79 -48 -17 -18 -16 -20 18 -54 l35 -36 55 31 c46 26 65 31 122
31 40 0 96 -9 137 -21 98 -30 211 -24 296 15 34 16 70 37 79 47 17 19 16 21
-17 54 -19 19 -36 34 -39 33 -3 0 -29 -14 -59 -29z"/>
<path d="M9245 5338 c-37 -22 -115 -24 -199 -4 -104 25 -225 4 -291 -48 l-26
-21 33 -38 33 -39 51 26 c59 30 94 32 179 11 120 -29 248 -14 307 35 l30 26
-43 35 -44 36 -30 -19z"/>
<path d="M16610 13828 c-126 -9 -132 -11 -126 -40 3 -13 8 -70 11 -128 3 -58
8 -132 10 -165 7 -82 24 -368 27 -435 l2 -55 -74 -6 c-41 -4 -136 -10 -211
-14 l-136 -7 -7 108 c-4 60 -9 141 -11 179 -3 39 -10 149 -15 245 -6 96 -13
181 -16 189 -3 11 -28 12 -127 6 -67 -4 -124 -9 -128 -11 -3 -1 -2 -40 2 -86
5 -46 15 -195 24 -333 8 -137 16 -263 18 -280 2 -27 -1 -30 -38 -36 -22 -4
-101 -9 -176 -13 l-136 -7 -12 178 c-6 98 -17 269 -23 381 -6 112 -17 209 -22
217 -9 10 -36 11 -128 6 -65 -4 -122 -11 -126 -16 -7 -8 6 -241 42 -755 3 -47
8 -134 12 -195 3 -60 8 -116 10 -124 5 -16 105 -13 596 19 167 10 339 22 383
24 444 29 571 38 580 40 7 2 3 115 -11 332 -28 419 -32 483 -40 629 -7 129
-15 162 -36 161 -7 0 -60 -4 -118 -8z"/>
<path d="M2226 13562 c-7 -12 -21 -527 -21 -822 l0 -205 124 -3 c68 -1 128 1
132 5 4 4 10 166 14 358 4 193 9 353 12 358 2 4 77 5 166 2 204 -6 708 -15
932 -16 l170 -1 3 143 c1 78 -1 146 -6 151 -10 10 -153 16 -587 23 -187 3
-473 8 -636 12 -206 4 -298 3 -303 -5z"/>
<path d="M15370 12441 l-95 -6 -3 -33 c-2 -18 4 -169 12 -335 9 -166 18 -369
22 -452 4 -82 9 -197 13 -255 l6 -105 125 4 c69 2 129 6 133 8 8 5 3 217 -9
369 l-5 72 53 5 c29 4 132 9 228 12 96 3 193 8 215 10 22 2 132 7 245 11 113
3 213 8 222 10 10 1 83 4 163 5 90 1 152 7 161 14 14 10 15 30 9 149 -6 110
-11 139 -23 144 -15 5 -682 -19 -1164 -44 -94 -4 -118 -3 -119 8 0 7 -6 103
-12 213 l-12 200 -35 1 c-19 0 -78 -2 -130 -5z"/>
<path d="M2198 12314 c-5 -4 -8 -72 -8 -150 0 -79 3 -145 8 -147 8 -6 363 -15
867 -22 193 -3 421 -8 507 -11 l158 -6 9 23 c4 13 8 84 7 158 l-1 135 -65 2
c-36 1 -285 4 -555 8 -269 3 -587 9 -705 12 -118 4 -218 3 -222 -2z"/>
<path d="M2860 11764 c-212 -25 -364 -87 -487 -199 -86 -78 -143 -165 -179
-270 -24 -71 -27 -95 -27 -210 0 -114 3 -140 26 -210 47 -141 114 -235 219
-306 64 -44 190 -95 248 -101 l35 -3 37 140 c21 76 34 142 30 146 -4 4 -38 17
-75 29 -62 20 -143 70 -175 109 -7 9 -25 41 -40 71 -22 45 -26 69 -27 135 0
67 4 89 28 136 49 101 140 166 287 206 91 25 338 24 429 -1 242 -66 363 -258
292 -461 -34 -97 -96 -155 -196 -185 -22 -6 -46 -13 -52 -15 -10 -3 -10 -11
-2 -32 6 -15 24 -77 40 -138 17 -60 34 -115 40 -121 14 -17 80 0 160 42 212
112 330 362 297 634 -36 301 -246 518 -568 585 -75 16 -273 27 -340 19z"/>
<path d="M16785 11174 c-44 -29 -159 -103 -255 -166 -124 -80 -196 -134 -247
-186 -45 -46 -74 -69 -77 -60 -2 7 -9 31 -15 54 -15 57 -79 152 -135 201 -65
58 -140 85 -250 91 -240 13 -391 -92 -453 -313 -17 -59 -32 -878 -17 -887 5
-3 322 -9 704 -13 382 -4 729 -8 770 -9 l75 -1 2 147 c1 108 -2 150 -11 157
-8 7 -125 12 -322 13 l-309 3 3 80 c5 173 35 202 497 493 l140 88 0 171 c0
102 -4 176 -10 181 -6 5 -42 -13 -90 -44z m-904 -390 c35 -18 87 -78 96 -112
5 -15 8 -126 8 -247 l0 -220 -110 1 c-60 1 -147 2 -192 3 l-83 1 0 183 c0 227
10 297 46 344 52 68 154 89 235 47z"/>
<path d="M3645 10275 c-5 -2 -91 -11 -190 -20 -99 -9 -243 -22 -320 -30 -77
-8 -239 -24 -360 -35 -270 -25 -301 -28 -445 -43 l-115 -12 -3 -32 c-2 -17 6
-121 18 -230 11 -109 34 -342 51 -518 17 -176 34 -323 38 -327 8 -9 240 17
251 28 4 5 1 74 -6 154 -7 80 -16 177 -19 215 -7 83 -33 333 -40 391 l-6 41
68 8 c239 25 333 31 337 18 3 -6 19 -164 37 -350 17 -186 35 -342 40 -347 9
-10 239 11 252 23 4 4 -9 164 -28 356 -19 191 -33 350 -31 353 9 8 338 38 342
30 3 -4 21 -175 41 -380 20 -207 41 -378 47 -385 15 -16 246 5 253 24 8 20
-99 1046 -110 1061 -9 11 -77 16 -102 7z"/>
<path d="M16725 9639 c-125 -28 -738 -158 -1030 -220 -366 -77 -419 -89 -427
-97 -12 -12 -61 -290 -55 -306 3 -7 45 -35 94 -63 206 -118 485 -280 733 -425
453 -266 545 -320 558 -331 8 -6 16 -7 22 -1 5 5 23 74 40 154 24 114 27 147
17 156 -6 6 -79 48 -162 94 -82 45 -152 84 -154 86 -2 2 6 61 18 131 13 71 33
197 46 282 13 84 27 157 32 161 4 5 85 22 178 40 94 17 175 33 180 35 13 3 58
317 47 326 -4 3 -65 -7 -137 -22z m-587 -601 c-15 -95 -32 -180 -36 -189 -6
-15 -24 -8 -122 48 -63 36 -175 98 -249 138 -128 71 -132 74 -100 79 19 3 142
26 274 50 132 24 245 45 251 45 7 1 1 -59 -18 -171z"/>
<path d="M3142 8934 c-537 -90 -807 -503 -643 -982 38 -110 83 -183 161 -262
119 -120 285 -187 491 -197 450 -23 811 204 894 561 32 137 16 331 -37 466
-129 324 -459 482 -866 414z m311 -308 c169 -33 281 -134 321 -291 61 -234
-84 -431 -371 -506 -93 -24 -271 -29 -353 -9 -129 30 -231 109 -283 220 -27
58 -31 76 -31 160 -1 88 1 100 32 162 38 78 93 130 190 181 156 82 340 112
495 83z"/>
<path d="M15105 8517 c-2 -6 -24 -68 -48 -137 -34 -93 -42 -128 -33 -136 6 -6
115 -48 241 -94 127 -45 250 -91 275 -101 25 -10 133 -50 240 -90 107 -39 212
-80 233 -91 57 -29 124 -95 138 -135 18 -55 7 -169 -23 -234 -48 -105 -110
-153 -210 -165 -61 -7 -155 20 -393 113 -294 114 -686 255 -698 250 -14 -5
-107 -234 -107 -261 0 -18 17 -26 249 -111 97 -35 300 -109 451 -165 375 -138
455 -156 582 -129 171 37 297 158 377 362 106 272 91 471 -45 617 -96 102
-156 131 -644 310 -509 187 -580 211 -585 197z"/>
<path d="M14820 7130 c-183 -24 -343 -141 -484 -354 -142 -214 -287 -449 -283
-460 3 -7 146 -104 318 -216 173 -113 376 -247 451 -298 156 -104 477 -312
483 -312 20 0 374 571 406 655 86 223 48 435 -112 626 -52 61 -212 192 -290
236 -175 101 -342 143 -489 123z m151 -316 c104 -31 261 -125 355 -211 137
-126 176 -266 113 -403 -22 -47 -166 -278 -189 -304 -5 -4 -52 23 -107 61
-130 92 -395 269 -565 377 -76 48 -138 92 -138 96 0 15 147 243 185 288 86 99
214 135 346 96z"/>
<path d="M3304 6792 c-59 -44 -156 -152 -182 -205 -35 -71 -48 -164 -33 -245
28 -152 150 -321 276 -382 139 -68 272 -57 459 37 90 45 865 509 889 532 17
17 16 22 -43 122 -34 57 -69 112 -77 121 -18 21 -14 22 -283 -137 -666 -397
-701 -416 -770 -417 -58 0 -76 9 -123 61 -45 49 -55 106 -32 171 19 53 42 80
107 121 26 17 48 33 48 35 0 12 -174 214 -184 214 -7 0 -31 -13 -52 -28z"/>
<path d="M4715 6373 c-33 -30 -157 -140 -275 -243 -356 -311 -392 -344 -460
-416 -106 -112 -159 -246 -146 -369 14 -143 77 -263 210 -403 142 -150 266
-213 420 -213 171 0 206 23 666 436 135 121 284 253 333 294 48 41 87 79 87
85 0 6 -28 45 -62 86 -35 42 -76 92 -93 113 l-30 37 -180 -161 c-618 -552
-652 -580 -739 -587 -69 -6 -128 21 -196 89 -91 91 -129 216 -95 306 29 74
114 157 625 602 91 79 173 152 184 162 18 17 15 21 -79 128 -53 61 -100 111
-103 111 -4 -1 -34 -26 -67 -57z"/>
<path d="M13535 5664 c-195 -41 -378 -156 -500 -314 -95 -123 -128 -222 -129
-385 0 -99 4 -132 22 -189 54 -162 144 -305 269 -427 149 -146 264 -207 435
-231 279 -39 598 137 741 410 100 191 103 387 9 584 -132 277 -364 489 -595
543 -57 13 -204 18 -252 9z m150 -290 c77 -19 129 -51 206 -121 159 -148 250
-319 250 -471 0 -94 -18 -148 -72 -219 -154 -199 -405 -215 -607 -38 -130 115
-242 311 -257 450 -15 142 73 292 215 365 100 52 167 60 265 34z"/>
<path d="M5745 5166 c-88 -61 -268 -186 -400 -276 -132 -90 -276 -189 -320
-219 -252 -174 -344 -237 -378 -260 -45 -30 -51 -21 102 -131 65 -46 121 -80
130 -77 9 2 76 48 149 102 116 85 136 96 155 88 23 -11 402 -277 449 -316 l28
-22 -40 -165 c-23 -91 -43 -172 -46 -181 -3 -12 12 -26 59 -52 36 -19 97 -58
137 -87 40 -28 76 -48 80 -43 10 10 53 200 125 549 29 144 58 279 64 300 16
59 151 698 151 716 0 3 -44 37 -97 74 -54 37 -111 78 -126 91 -16 13 -36 23
-45 22 -9 0 -89 -51 -177 -113z m111 -283 c-11 -36 -115 -459 -121 -495 -4
-21 -12 -38 -19 -38 -20 1 -310 205 -306 215 4 12 431 333 443 334 5 1 6 -7 3
-16z"/>
<path d="M6606 4812 c-4 -8 -66 -163 -163 -412 -14 -36 -34 -84 -45 -108 -10
-23 -32 -77 -48 -120 -40 -108 -157 -409 -228 -587 -45 -113 -57 -153 -49
-161 17 -16 233 -97 247 -92 14 4 33 49 130 303 122 318 219 565 227 578 4 6
15 -31 24 -83 10 -52 36 -196 58 -320 23 -124 54 -292 70 -375 17 -82 37 -192
47 -243 9 -52 21 -95 28 -97 6 -2 69 -25 140 -51 115 -42 130 -46 140 -32 7 9
92 231 191 495 98 263 213 568 256 678 57 149 74 203 65 211 -6 6 -62 30 -125
53 -93 34 -117 40 -126 29 -13 -14 -27 -50 -216 -551 -65 -174 -119 -322 -119
-329 0 -35 -16 14 -31 95 -9 50 -26 142 -38 202 -12 61 -33 169 -46 240 -14
72 -41 213 -60 314 -19 101 -35 191 -35 200 -1 44 -26 63 -155 117 -149 62
-132 56 -139 46z"/>
<path d="M11941 4699 c-68 -32 -127 -61 -131 -66 -5 -4 18 -62 50 -128 88
-183 345 -714 464 -959 58 -120 106 -222 106 -226 0 -4 9 -15 19 -24 19 -17
35 -10 476 213 252 127 461 234 466 237 9 5 -96 220 -113 230 -8 5 -261 -118
-514 -252 -160 -84 -151 -83 -179 -21 -12 28 -85 178 -160 332 -133 270 -185
379 -293 606 -28 59 -54 109 -59 111 -4 3 -64 -21 -132 -53z"/>
<path d="M11290 4481 c-151 -33 -683 -176 -710 -191 -8 -4 -14 -12 -13 -18 10
-44 141 -517 258 -927 l143 -500 28 3 c16 1 85 19 154 38 148 42 335 94 467
129 271 72 384 155 435 317 75 244 -72 493 -316 533 l-38 6 25 27 c37 38 78
133 84 195 11 103 -47 243 -128 311 -101 86 -232 112 -389 77z m156 -273 c63
-43 99 -149 71 -205 -21 -40 -55 -69 -108 -92 -49 -22 -388 -115 -395 -109 -5
6 -84 300 -84 313 0 7 21 17 48 23 26 7 110 30 187 51 166 47 234 51 281 19z
m226 -580 c46 -35 78 -104 78 -168 0 -82 -36 -132 -121 -169 -46 -21 -399
-121 -424 -121 -9 0 -21 26 -34 68 -70 246 -88 313 -82 317 4 2 36 11 71 19
36 9 124 32 195 51 166 45 261 46 317 3z"/>
<path d="M8261 4261 c-6 -11 -22 -144 -36 -298 -14 -153 -37 -397 -51 -543
-13 -146 -31 -341 -40 -434 -8 -93 -12 -172 -7 -176 11 -10 286 -39 295 -31 4
3 12 65 18 136 20 247 37 406 44 412 3 3 92 1 196 -7 210 -14 294 -9 387 21
115 38 203 118 251 230 30 70 45 210 32 294 -22 137 -98 248 -208 304 -53 27
-185 58 -282 66 -41 3 -91 8 -110 10 -19 2 -80 7 -135 10 -55 4 -140 10 -190
16 -133 13 -153 12 -164 -10z m480 -271 c182 -18 245 -46 280 -124 40 -88 12
-206 -60 -253 -68 -46 -144 -52 -348 -31 l-115 12 6 45 c3 26 10 107 16 181
16 192 11 180 69 180 27 0 95 -5 152 -10z"/>
<path d="M9890 4238 c-184 -13 -181 -12 -203 -88 -10 -36 -49 -168 -87 -295
-88 -292 -212 -709 -251 -845 -17 -58 -44 -149 -61 -204 -16 -54 -26 -102 -21
-107 12 -11 296 11 309 25 7 6 31 85 55 175 23 89 48 164 53 166 6 2 90 8 186
14 96 7 224 16 285 21 99 8 111 8 120 -8 5 -9 38 -80 73 -157 34 -77 67 -144
72 -149 10 -10 328 13 336 25 3 5 -27 68 -67 141 -39 73 -202 395 -362 716
-210 421 -294 582 -306 581 -9 -1 -68 -6 -131 -11z m126 -603 c24 -55 53 -118
65 -140 22 -41 60 -135 56 -136 -15 -3 -383 -26 -385 -24 -2 1 17 74 41 161
25 88 57 204 71 259 15 55 30 108 33 118 5 19 14 0 119 -238z"/>
</g>
</svg>
