<?xml version="1.0" standalone="no"?>
<!DOCTYPE svg PUBLIC "-//W3C//DTD SVG 20010904//EN"
 "http://www.w3.org/TR/2001/REC-SVG-20010904/DTD/svg10.dtd">
<svg version="1.0" xmlns="http://www.w3.org/2000/svg"
 width="8000.000000pt" height="8000.000000pt" viewBox="0 0 8000.000000 8000.000000"
 preserveAspectRatio="xMidYMid meet">
<metadata>
Created by potrace 1.16, written by Peter Selinger 2001-2019
</metadata>
<g transform="translate(0.000000,8000.000000) scale(0.100000,-0.100000)"
fill="#000000" stroke="none">
<path d="M36850 71180 c-936 -33 -1800 -102 -2710 -215 -3726 -466 -7347
-1667 -10650 -3533 -3543 -2002 -6677 -4783 -9121 -8096 -2241 -3036 -3884
-6533 -4798 -10211 -433 -1747 -705 -3550 -806 -5355 -35 -635 -40 -831 -40
-1670 0 -838 5 -1048 40 -1665 192 -3405 965 -6689 2310 -9820 1657 -3858
4112 -7281 7265 -10131 4098 -3704 9207 -6173 14648 -7079 1218 -202 2296
-313 3662 -376 372 -17 1543 -23 1975 -10 4250 127 8223 1107 12022 2966 173
85 293 149 293 157 0 14 -602 1865 -619 1904 -9 20 -25 13 -318 -134 -1188
-598 -2335 -1077 -3568 -1492 -362 -121 -914 -295 -920 -289 -1 2 67 78 152
169 1254 1335 2407 2995 3416 4915 l126 240 -452 1383 c-249 761 -456 1384
-461 1385 -5 1 -42 -74 -83 -168 -652 -1491 -1367 -2820 -2151 -4002 -944
-1421 -1950 -2576 -3038 -3487 -625 -523 -1278 -958 -1931 -1284 l-178 -90
-310 -31 c-603 -60 -1111 -97 -1617 -117 l-168 -7 0 5578 0 5578 233 -7 c1350
-39 2978 -178 4532 -387 1355 -181 2990 -466 4280 -743 88 -19 163 -32 167
-28 7 7 -695 2169 -709 2183 -9 9 -677 136 -1143 218 -2263 398 -4350 639
-6405 741 -351 17 -694 30 -812 30 -61 0 -118 3 -127 6 -15 6 -16 583 -16
6450 l0 6444 6390 0 6390 0 0 -47 c0 -83 -19 -737 -30 -1023 -66 -1765 -219
-3521 -456 -5230 -45 -328 -158 -1071 -193 -1275 -11 -60 -16 -113 -12 -117
14 -16 1913 -630 1921 -621 8 8 101 558 169 1008 348 2274 550 4609 607 7018
l7 287 5630 0 5630 0 -6 -189 c-25 -703 -109 -1657 -218 -2471 -387 -2890
-1274 -5783 -2568 -8369 -77 -153 -129 -267 -124 -272 14 -14 1906 -630 1919
-625 6 2 75 138 154 302 1658 3453 2609 7131 2825 10919 32 567 36 722 42
1470 5 779 -2 1171 -33 1770 -125 2430 -550 4812 -1269 7120 -1543 4947 -4356
9357 -8206 12865 -2743 2500 -5897 4428 -9374 5733 -2239 840 -4578 1399
-6955 1662 -665 73 -1200 114 -2035 156 -266 13 -1863 20 -2175 9z m-40 -7596
l0 -5577 -212 7 c-2438 78 -5068 391 -7882 937 -595 116 -1635 335 -1649 348
-12 12 144 396 370 911 1406 3200 3147 5718 5098 7373 646 549 1378 1037 2040
1362 l130 63 245 26 c593 62 1406 120 1743 125 l117 1 0 -5576z m2360 5566
c503 -26 996 -64 1500 -115 l245 -25 160 -80 c1328 -658 2648 -1767 3850
-3236 1360 -1660 2574 -3776 3583 -6246 l60 -146 -24 -6 c-78 -20 -582 -128
-954 -205 -3023 -623 -5908 -986 -8567 -1077 l-203 -7 0 5577 0 5576 78 0 c42
0 165 -5 272 -10z m-9096 -1122 c-446 -469 -827 -911 -1231 -1428 -1383 -1774
-2622 -3988 -3630 -6490 -74 -184 -136 -336 -138 -338 -5 -6 -1060 272 -1625
429 -905 252 -1959 565 -2855 850 -433 138 -1595 523 -1595 529 0 16 638 606
980 906 2718 2383 5910 4208 9340 5341 191 63 785 251 800 252 2 1 -18 -23
-46 -51z m15721 -39 c491 -150 1179 -388 1685 -582 3015 -1157 5764 -2816
8170 -4929 454 -399 976 -886 963 -898 -10 -10 -1109 -374 -1563 -519 -1227
-390 -2492 -760 -3675 -1075 -398 -106 -828 -216 -831 -213 0 1 -20 52 -44
112 -66 171 -258 638 -358 870 -1251 2919 -2766 5335 -4496 7169 -120 127
-136 148 -111 142 17 -4 134 -39 260 -77z m-28169 -8065 c1993 -700 4339
-1420 6309 -1934 482 -126 458 -119 451 -136 -17 -44 -197 -608 -270 -844
-1188 -3864 -1897 -8217 -2071 -12705 -12 -325 -35 -1069 -35 -1167 l0 -28
-5630 0 -5630 0 0 58 c0 147 42 831 75 1232 327 3916 1499 7687 3455 11120
783 1373 1700 2692 2730 3925 136 163 443 523 456 534 0 1 72 -24 160 -55z
m40756 -206 c1941 -2266 3467 -4782 4578 -7548 931 -2319 1536 -4772 1789
-7255 55 -532 102 -1191 117 -1612 l7 -193 -5631 0 -5632 0 0 88 c0 115 -17
707 -30 1047 -183 4755 -943 9260 -2245 13310 -53 165 -98 304 -98 309 -3 11
-2 12 398 116 1202 313 2678 741 3910 1131 766 244 1955 640 2450 817 77 28
145 51 151 51 6 1 112 -117 236 -261z m-31222 -2499 c2776 -596 5512 -989
8005 -1148 526 -34 1331 -71 1541 -71 l104 0 0 -6445 0 -6445 -6396 0 -6395 0
5 128 c3 70 8 235 11 367 17 725 68 1748 130 2575 289 3855 996 7566 2062
10831 l126 385 216 -48 c119 -27 385 -85 591 -129z m22199 -91 c1206 -3649
1965 -7920 2180 -12278 27 -542 61 -1475 61 -1697 l0 -43 -6390 0 -6390 0 0
6443 0 6444 243 7 c1999 56 4391 306 6714 701 1062 181 2474 460 3308 654 94
22 173 40 177 40 4 1 47 -122 97 -271z m-27345 -16245 c20 -694 28 -923 41
-1238 185 -4289 862 -8456 1981 -12190 81 -267 273 -882 324 -1029 16 -50 27
-93 23 -96 -5 -4 -73 -24 -153 -44 -1987 -511 -4315 -1217 -6399 -1941 -200
-69 -364 -125 -366 -123 -1 2 -60 71 -132 153 -4006 4621 -6332 10473 -6579
16558 l-7 167 5630 0 5631 0 6 -217z m14796 -6228 l0 -6444 -32 -5 c-18 -3
-139 -8 -268 -11 -129 -3 -379 -12 -555 -20 -2811 -131 -5806 -544 -9028
-1246 -204 -44 -417 -91 -472 -104 -55 -13 -100 -23 -101 -22 -1 1 -42 126
-92 277 -1308 3965 -2089 8659 -2222 13340 -5 195 -12 428 -15 518 l-5 162
6395 0 6395 0 0 -6445z m0 -14040 l0 -5575 -62 0 c-265 0 -1134 61 -1733 121
l-310 31 -158 79 c-1098 550 -2163 1376 -3176 2464 -1526 1639 -2899 3846
-4026 6470 -178 414 -287 684 -281 694 3 5 20 11 38 14 18 3 188 40 378 81
2413 524 4924 903 7150 1081 720 57 1660 109 2043 113 l137 2 0 -5575z
m-11665 3643 c398 -1003 896 -2092 1367 -2993 1032 -1969 2171 -3609 3466
-4990 72 -76 130 -141 128 -143 -3 -2 -109 29 -238 68 -4027 1239 -7718 3403
-10746 6302 l-124 118 29 11 c15 6 258 88 538 181 1448 481 2854 907 4250
1287 475 129 1230 329 1251 330 6 1 41 -77 79 -171z"/>
<path d="M47275 33319 c-173 -29 -347 -149 -433 -301 -75 -132 -99 -295 -64
-433 41 -163 7633 -23381 7669 -23455 70 -144 221 -262 388 -305 76 -19 224
-19 300 0 33 8 94 32 135 52 91 44 200 150 247 238 17 33 941 2519 2052 5525
1112 3006 2040 5503 2063 5549 49 102 150 209 243 258 33 17 2530 945 5549
2062 3019 1117 5516 2046 5550 2064 34 18 92 63 132 102 125 124 182 279 171
464 -14 243 -155 442 -377 529 -116 46 -23378 7641 -23434 7651 -67 12 -118
12 -191 0z"/>
</g>
</svg>
