<svg xmlns="http://www.w3.org/2000/svg" viewBox="0 0 2048 2048"><path fill="#1e6aa6" d="M1915.4 1140.5c-17.4 8.9-35.6 14.2-65.9 19-35 5.5-58.8 6.5-175.5 7.1-228 1.1-275.6 1.9-347 5.9-5.2.3-15.8.7-23.5 1-31.2 1.3-43.5 2.8-43.5 5.4 0 3.1 10.8 4.8 36 5.7 10.2.3 18.8.8 19.2 1 .9.6 429.3.5 431 0 .7-.3 8.3-.7 16.8-1 31.5-1.2 39.4-1.9 77.5-7.1 29.9-4.1 64.7-15.6 79.2-26.3 4.6-3.4 10.7-11.7 9.8-13.2-1.2-2-7.4-.9-14.1 2.5" class="icon-part"/><path fill="#c31b1b" d="M1072 431.7c-7 .8-32.6 7.4-42 10.8-1.9.7-8.7 3.2-15 5.5s-12.9 4.8-14.7 5.6c-1.7.8-3.7 1.4-4.3 1.4-1.6 0-28.4 13.9-41.5 21.5-5.5 3.2-12 7-14.5 8.4-7.9 4.4-30.5 20-40.2 27.6-33.1 26-74.5 70.7-95.9 103.5-15.5 23.7-26.2 43.6-31.9 59.5-1.8 4.9-3.6 9.9-4.1 11-7.5 17.8-14.9 56.7-14.9 78.1 0 38.5 13.4 75.9 36.8 103 19.2 22.2 41.4 35.5 74.2 44.7 11.3 3.2 11.8 3.2 33 3.2 20.3 0 22-.2 31.4-2.8 14.3-4 27.7-10.7 31.5-15.9 7-9.6 1.8-11.9-17.2-7.8-22.4 4.9-46.3 4.4-63.2-1.1-9.3-3.1-26.9-11.9-33.3-16.6-11.4-8.4-27.3-28.6-33.9-42.9-6.9-15.2-10.7-45.5-8.4-67.3 2.3-22.4 6.3-37.6 15.8-61.1 5-12.4 13.9-30.4 16.8-34 .6-.8 2.6-4.1 4.4-7.4 8.4-15.1 32.2-48.1 46-63.6 8.2-9.3 32-33.2 44.6-44.9 18.1-16.8 45.7-37.5 66.4-49.7 4.5-2.7 9.7-5.7 11.4-6.8 8.7-5.1 36.5-19 45.8-22.7 13.6-5.4 19.1-6.9 26.5-6.9 9.7 0 9.6-.2 10.2 19.9.3 9.8 0 20.9-.6 25.9-.6 4.8-1.4 12.3-1.7 16.7s-1 11.6-1.5 16-1.4 13.8-2 21c-.6 7.1-1.3 15-1.5 17.5s-.9 9.7-1.5 16c-.5 6.3-1.2 13.1-1.5 15-.5 3.3-1.5 13.3-3.5 35-.5 5.2-1.6 15.8-2.4 23.5-.9 7.7-2 18.3-2.6 23.5s-1.4 12.9-2 17c-1.2 9.8-1.6 13.6-3.5 31.5-.9 8.2-2 18.1-2.5 22-.5 3.8-1.2 10.6-1.5 15-.6 7.4-4.9 41.1-9.4 72.5-1 7.4-2.2 16.2-2.6 19.5-1.1 10.1-8.3 62.2-10.5 75.5-1.1 6.9-2.9 18.6-4 26s-2.2 15.1-2.5 17-1.4 10-2.6 18c-1.1 8-2.2 15.4-2.5 16.5-.2 1.1-1.7 10.8-3.3 21.5-3.4 22.8-12.6 77.3-17.1 101-1.7 9.1-3.5 19.2-4.1 22.5-1.2 7.7-3.6 19.8-5.9 30.5-1 4.7-3.1 14.1-4.5 21-4.7 22.6-7.6 32.1-9.9 33-1.2.4-8.2 2.2-15.6 4-27.6 6.7-89.4 28.5-112.5 39.8-3.3 1.6-9.2 4.3-13.1 6.1-23 10-47.5 23.2-80.7 43.5-31.5 19.3-66.6 47.3-94.7 75.5-27.4 27.5-39 41.9-54.9 68.4-8.2 13.8-18.6 34-21.3 41.7-.9 2.5-2.8 7.6-4.2 11.5q-5.1 14.1-10.2 40.5c-2.7 13.7-2.8 16.1-2.9 42 0 29.5.4 33.1 6.2 55.5 4.6 17.7 14 38 25.2 54 6.8 9.8 23 26 32 31.9 15.3 10.2 37.2 19 54.5 22.1 19.4 3.3 48.9 1.1 67.4-5.1 58.1-19.5 106-62.5 150-134.9 12-19.7 35.3-64.7 41.4-80 1.1-2.8 2.6-6.4 3.3-8 6.6-14.9 9.1-20.8 12.4-29.7 2.2-5.7 4.7-12.1 5.7-14.3 4.3-10.2 20.3-56.3 25.4-73.5 1.3-4.1 3.8-12.2 5.7-18 1.8-5.8 5.6-19.1 8.4-29.5 2.7-10.5 7-26.4 9.4-35.5 6.7-24.5 16.2-63.2 19-77.2 1.4-6.8 2.8-13.7 3.3-15.3 1-3.6 4.3-5.4 16.2-8.5 11.6-3.1 20.5-6.7 26.7-10.7 4.2-2.8 5.4-4.2 5.9-6.9.4-2.1.2-4-.6-4.8-1.9-2.4-11.2-2.9-26.2-1.7-7.7.7-14.2 1-14.5.7-.5-.4 1.1-9.1 6.7-37.6 4.4-22.1 12.1-64 12.9-70.5.6-3.9 1.2-7.9 1.4-9 .5-2.2 1.4-7.7 2.3-14 .6-4.4 5.3-34.9 8.4-54.5 3.9-24.6 8-52.8 10-68 1.1-8.5 3.1-22.5 4.5-31 2.2-13.3 5.2-34.4 7.1-48.5.3-2.2.9-6.7 1.4-10s1.4-9.8 1.9-14.5c.6-4.7 2.4-19.1 4.1-32 4.2-32.1 4.8-36.7 6-50.5 1.1-11.9 1.9-18.3 3.9-32.3.6-4 1.1-10.1 1.1-13.6s.4-8.5.9-11.2 1.2-10.1 1.6-16.4c.3-6.3 1-14.9 1.5-19s1.4-15.8 2-26 1.3-21 1.5-24c3.1-36.2 4.6-71.3 4.6-112.8 0-26.2-.4-47.6-1-51-.6-3.1-2-11.3-3.2-18.2-3.9-22.6-11.6-32.7-29.5-39.1-5.5-2-20.8-3.1-29.4-2.2m-94.4 854.7c.5 1.3-1.7 11.3-7.1 32.6-1.3 5.2-3.8 14.7-5.4 21.1-5.8 22.7-15.9 58-24.7 85.9-15.1 47.8-19.2 59.2-34.9 98-12.3 30.4-12.5 30.8-20.4 48-34.6 74.6-76.1 133.2-112.1 158-27.8 19.2-42.2 24.5-66.5 24.4-11.9 0-13.7-.3-21.6-3-25.6-9-43.6-27-57.4-57.1-9-19.7-12.6-37.2-12.6-61.3-.1-22.4 3.7-45.8 10.1-63 1.7-4.7 4.5-12.3 6.2-17 8-22.4 25.6-52.9 46.2-80 9.4-12.4 43.7-47 58-58.5 26.1-21 63.4-47 88.1-61.2 3.9-2.2 10.8-6.3 15.5-9 22.3-13.2 75.1-37.1 109-49.5 10.1-3.7 27.5-9.7 28.3-9.7.4-.1 1 .5 1.3 1.3" class="icon-part"/></svg>