<svg xmlns="http://www.w3.org/2000/svg" viewBox="0 0 2048 2048"><path fill="#fefffd" d="M0 1024v1024h2048V0H0zm1399.4-627.7c5.7 4.4 6.2 7.4 4.4 27.7l-.3 3.5 22.8-.3c39.7-.7 72.2 4.6 102.2 16.4 15.7 6.3 22.2 9.8 41.3 22.5 7.3 4.9 13.4 8.9 13.7 8.9s4.2 3.7 8.9 8.2c13.1 12.9 29.4 34.7 39.4 52.5 1.3 2.4 2.7 4.3 3.1 4.3s.8 1 .8 2.2c.1 1.3.9 2.8 1.7 3.4.9.6 1.3 1.3 1 1.6s.9 4.8 2.6 9.9c4.9 15.1 5.5 17.3 7.6 27.3.2 1 .8 3.3 1.3 5 3.3 10.4 5.4 46.9 4.1 71.1-1.4 24.7-13 70-23.7 92.5-14 29.5-24 47.8-31.2 57.5-2.1 2.7-4.4 6.1-5.1 7.4s-3.2 4.8-5.6 7.8c-2.7 3.2-4.1 5.9-3.7 6.8.3.9.1 1.5-.5 1.3s-3.1 2.2-5.7 5.2c-11.8 13.9-42 45-43.6 45-.5 0-5.5 4.2-11.3 9.2-5.7 5.1-12.8 10.9-15.6 12.8-5.5 3.8-16.2 11.8-19.6 14.7-1.2 1-2.8 1.9-3.5 2.1-.8.2-3 1.6-4.9 3-1.9 1.5-6.6 4.3-10.5 6.3-3.8 1.9-11.7 6.1-17.5 9.1-26 13.8-41.1 21.3-48 23.8-5.4 2.1-7.4 3.3-7.2 4.4.3 1.8-.9 2.1-2.4.6-1.1-1.1-14.2 3.4-16 5.6-.6.8-1.5 1-2 .5-.5-.6-5.5.6-11.9 2.6-6 1.9-18.2 5.3-27 7.4-10 2.4-16.4 4.5-17.2 5.5-.8 1.2-2 1.4-4.3.9-1.8-.4-5.2-.1-8.3.9-9.4 2.7-34.9 5-51.5 4.7-7.3-.2-11.8.2-12.7.9-1.2 1-2.3 6.6-3 14.5 0 1.1.3 2.6.9 3.3.7.9.5 1.2-.5 1-.8-.2-1.4.5-1.5 1.7 0 1.1-.4 3.1-.8 4.4-.5 1.3-.9 3.8-1 5.5-.2 1.8-.5 3.7-.9 4.2-.3.6-.8 2.3-1.1 3.8s-.9 3.3-1.4 3.9c-1.4 1.7-7.2 28.6-8.6 39.2-.3 3-4.3 20-7.1 30.6-.9 3.2-1.7 7.7-1.9 10.2s-.7 5.1-1.1 5.8c-.5.6-1.4 4-2.1 7.3-3.6 16.2-7.3 34.6-7.9 38.6-1.6 11.5-3.7 22.7-6.5 36-4.8 22.1-5.8 28.4-4.8 29.6.5.7.3 1.4-.5 1.7-.9.3-1.8 4-2.6 10.9-.7 5.6-1.7 12.3-2.2 14.6-.7 3-.6 4.8.1 5.7s.6 1.6-.5 2.5c-.8.7-1.5 2.4-1.5 3.9 0 1.4-.7 4.4-1.4 6.6-.8 2.2-1.7 7.1-2.1 10.9-.3 3.8-.8 7.3-1 7.6-.3.5-3.2 18.5-5.1 32.5-.2 1.6-1.3 8.8-2.4 16-1 7.1-1.9 14.8-1.9 17 .1 2.2-.2 5.5-.5 7.3-.5 2.5-.2 3.4 1 3.9 1.5.6 1.5.7-.2 1.4-2 .7-3.4 7.5-4.9 24.4-.3 3.3-1 10-1.5 15-.6 4.9-1.7 17.3-2.5 27.4-2.6 32.2-3.3 37.9-6.2 48.1-.9 3-1.6 6.5-1.7 7.7 0 1.1-.5 1.9-.9 1.6s-2 .7-3.4 2.1c-7.1 7.1-20.1-.3-26-14.8-2.7-6.6-2.8-7.2-5.5-26.1-1.9-13-2.2-19.6-2.2-50.5 0-33.3 1.2-61 3.4-79.5.6-4.4 1.7-16.1 2.5-26 .9-9.9 2.2-21.4 3-25.5 1.5-8.5 3.9-26 5.6-40 .5-5.2 2.4-16.9 4.1-26 1.6-9.1 3.2-17.9 3.4-19.5.2-1.7 1-6.8 1.8-11.5s1.7-10.5 2-13c.2-2.5 1.7-10.6 3.1-18 1.5-7.4 3.1-16.2 3.6-19.5.6-3.3 1.9-10.9 3-16.9 1.5-7.5 1.7-11.2 1-11.9s-.6-1.4.4-2.1c.8-.6 2.5-6.8 3.9-14.6 1.4-7.4 3.6-18.2 5-24 1.3-5.8 2.7-12.4 3-14.8s.8-4.7 1.1-5.1c.2-.5.7-2.6 1-4.7 1.5-10.1 2.9-16.8 5.5-26.9 4-15.3 5.7-26.2 4.4-28.3-.6-.9-4.7-4-9.1-6.7-14.5-9.1-21.7-15.9-25.1-23.8-1.7-4.1-1.3-14.5.6-17.5 1.7-2.6 8.9-6.5 9.7-5.2.3.5 2 1.2 3.8 1.5 1.7.4 6.6 2.4 10.7 4.5 7.8 3.9 17.8 6.6 19.2 5.2.4-.4 1.9-6.2 3.2-12.7 1.3-6.6 4.1-17.4 6.1-24s5-17.9 6.6-25c1.7-7.2 3.9-16.7 5-21.3s2.1-9.1 2.2-10c.6-3.1 2.8-10.7 3.9-13.5.8-2 .7-3.1-.2-4.3-1.1-1.2-1.1-1.5 0-1.2.9.2 2.2-3 4.1-10.7 3.9-15.1 12-47.7 12.4-49.5.2-.8.4-1.5.5-1.5 0 0 1.7-6.1 3.6-13.5 4-15.4 3.9-15 4.7-17 .3-.8 2.2-7.8 4.2-15.5 2.1-7.7 4.8-17.6 6.2-22 4.2-13 11.2-40.8 10.6-41.7-.3-.5.2-1.7 1-2.6 1.9-2.1 4.1-10.5 3.4-13.2-.3-1-.1-1.8.5-1.7.5.1 2.5-4.8 4.4-10.8 2-6.1 5.1-15.1 6.9-20 4.3-11.8 12-36.2 14.1-45 .9-3.9 2-7.9 2.5-9 3-7.1 8.9-24.6 8.9-26.2 0-1 .6-2.5 1.3-3.2.6-.6 1.2-1.5 1.3-1.9.2-1.4 1.8-4.8 3.5-7.3 1-1.5 2.5-5.1 3.3-8 .8-3 2.2-7.4 3.1-9.9 3.3-8.7 5.6-18.3 4.5-19.4-2.6-2.6-28.6 6.7-38 13.5-2.2 1.6-4.4 2.9-4.8 2.9-.5 0-1.7.9-2.7 2s-2.2 2-2.8 2c-.5 0-2.2.9-3.8 2.1-1.6 1.1-2.9 1.8-2.9 1.4 0-.3-1.3.1-3 1-1.6.9-3 2-3 2.5 0 .6-.9 1-1.9 1-5.1 0-21.6 11.1-28.9 19.4-1.8 2-3.2 3.4-3.2 3 0-1.1-11.3 9.7-14 13.4-4 5.7-9.1 14.2-8.4 14.2 1.5 0-4.4 3.8-7.5 4.8-10.1 3.5-17.3-.8-18.6-11-.4-3.1-.3-6.6.1-7.9s.9-2.9 1-3.4c.7-3.7 15.3-23.4 25.1-33.9 5.8-6.1 38-31.2 43.7-34 2.8-1.4 6.7-3.5 8.6-4.6 7.1-4.1 50.6-25 52.7-25.3 1.3-.2 2.6-.6 2.9-1 .4-.4 1.4-.7 2.3-.7s2.8-.7 4.3-1.4c1.6-.8 3.6-1.4 4.5-1.4 2.3.2 17.3-3.2 19.5-4.3 1-.5 4.2-6 7.3-12.2 3-6.1 6.1-12.1 6.8-13.1 2.9-4.5 14.9-15.7 19.3-18 4.3-2.3 5.8-2.6 12.6-2.3 6.4.3 8.2.8 11.2 3m-299.7 34.6c4 1 9.2 3 11.5 4.4 6.2 3.6 17.3 12.8 17 13.9-.1.6.3 2.7 1 4.7 1.5 4.6 1.4 3.8 3.8 16.1 1.1 5.8 2.5 12.1 3 14 .6 2 .9 28.6.9 65 0 48.3-.3 63.2-1.5 69.4-.7 4.4-1.4 13.2-1.4 19.5.1 14.6-1.3 37.8-2.6 44.5-.2 1-.6 5.3-.9 9.5s-.8 9.8-1.1 12.6c-.2 2.7-.6 10.2-.9 16.5-.2 6.3-.6 12.2-.8 13-.5 1.6-6.5 55.6-7.3 65-.2 3-.6 6.9-.9 8.7-.3 1.7-.1 3.4.4 3.7.6.4.4 1.7-.5 3.4-.7 1.5-1.4 4.3-1.4 6.2s-.7 7.8-1.5 13-1.9 13.3-2.5 18-1.7 12.8-2.5 18-2.1 15.1-3 22c-.8 6.9-2.4 17.9-3.5 24.5-1 6.6-2.6 18.1-3.5 25.5-.8 7.4-2.2 17.3-3 22-3.8 22.1-5.5 34.4-6.5 45.2-.6 6.4-1.5 13.1-2 14.9-.5 1.7-.7 3.5-.5 3.9s0 2.2-.5 4.1c-.4 1.9-1.1 5.7-1.4 8.6s-1 7.4-1.6 10c-1.1 5.7-1.8 10.2-2.6 16.3-.3 2.5-1.4 9.2-2.5 15-1 5.8-2.1 12.1-2.3 14-1.1 9.3-3.8 25.9-4.7 29-.5 1.9-1.8 9.8-2.9 17.5-1 7.7-2.1 15.1-2.4 16.5-.9 3.7-1.5 6.6-3.1 16-3.4 18.9-5.8 30.9-7.6 37.9-2.1 8.2-2.5 14.6-.9 15.6q1.05.6 0 2.4c-.5 1-.6 2.1-.3 2.5.3.3 7.9.6 16.8.6 14.9 0 16.4.2 18.9 2.1 3.6 2.8 3.6 8.5.1 12.8-3.9 4.5-14.4 9.9-24.7 12.5-11 2.8-18.8 5.4-20.5 6.8-.7.6-1.3 2.3-1.3 3.9 0 1.5-.4 3-.9 3.3-.8.5-2 6.3-2.6 12.1-.1 1.1-.5 2.7-.8 3.5-1 2.7-3.7 18-3.7 20.8 0 1.5-.5 3.3-1 3.8-.6.6-1.2 1.9-1.4 3s-1.1 4.4-2 7.4c-1.1 3.7-1.3 5.7-.6 6.6.8.8.7 1.3-.1 1.6-.7.2-2 3.3-3 6.8-1.4 5-1.5 6.8-.6 7.9.9 1.2.9 1.3-.1.7-1.2-.7-2.1.6-2.6 3.8-.1.8-.5 1.9-.9 2.2-.4.4-.7 1.7-.7 2.9s-.9 4.8-2 8.1c-1.2 3.2-4.3 15.1-7.1 26.3s-5.5 21.3-6 22.3c-.6 1.1-1.2 4-1.4 6.6s-.4 4.8-.4 4.9q-.15.3 0 .9c0 .3-.6 1.5-1.4 2.7-1.8 2.9-5.9 13.7-5.1 13.7.4 0 .2.6-.4 1.2-.5.7-2.2 5.3-3.6 10.3-1.5 4.9-3.3 10.6-4.1 12.6s-1.2 3.9-.9 4.2-.1 1.6-.9 2.9c-.8 1.2-3.1 7.2-5 13.3-3.4 10.6-5.3 15.5-8.3 22-.7 1.6-1.5 4-1.7 5.2-.2 1.1-.8 2.7-1.4 3.5-.6.7-2.7 5.8-4.7 11.3-2.1 5.5-4.9 12.8-6.3 16.2s-2.2 6.6-1.8 7.2c.3.6.1 1-.5.9-.7-.2-2.7 3.4-4.7 8.2-1.8 4.7-4.3 10.5-5.5 13-1.1 2.5-2.1 5-2.2 5.6-.1.7-.7 1.8-1.4 2.6-.6.8-.9 1.7-.6 2.1.3.3-.7 2.5-2.3 4.9s-4 6.5-5.3 9.3c-1.3 2.7-5.7 11.1-9.8 18.5-9.4 17.1-13.4 25-12.7 25 .3 0-.5 1.5-1.9 3.3-1.5 1.9-2.6 3.9-2.6 4.5 0 .7-.4 1.2-.9 1.2s-3.7 4.5-7 10c-20.3 33-48.6 65.3-77 87.9-18.6 14.8-23.4 18-35.5 23.6-31.8 14.7-51.9 20.2-75.6 20.7-20.8.4-42.9-5.2-65.4-16.6-13-6.5-29.5-16.6-29.6-18 0-.4-3.5-4.8-7.7-9.6-9.3-10.5-13.5-16.2-17.5-23.8-15.5-29.3-15.4-28.9-19.4-47.7-5.5-26.4-5.5-26-5.5-52.5-.1-22.1.2-26.8 2-35.5 1.1-5.5 3-15.1 4.1-21.4 1.2-6.2 3.9-16.8 6.1-23.5 2.2-6.6 4.2-12.6 4.3-13.1.5-1.8 1.7-4.9 4.9-12.5 1.8-4.1 3-7.5 2.8-7.5-.3 0 .8-1.3 2.3-3 1.5-1.6 5.2-7.4 8.3-13 3.1-5.5 8.9-15 12.8-21 8-12.2 9.6-15 9-15.7-.2-.2 1.4-2.3 3.5-4.7 2.2-2.4 4-4.7 4-5.2s.6-.9 1.4-.9c.7 0 2.6-1.6 4.1-3.5 5.9-7.9 56.6-57.2 59.9-58.4 2.7-1 17.1-13.5 17-14.8-.1-.8.3-1.2 1-1 .6.2 5.1-2.4 10-5.7 15.3-10.5 34.9-23.4 40.4-26.6 2.9-1.7 7-4.7 9.2-6.6 2.2-2 4-3.3 4-2.9 0 .5.8.1 1.8-.7.9-.8 3.3-2.1 5.2-2.8 4.4-1.7 8.1-4.9 7.3-6.4-.4-.6 0-.6.8.1 1.3 1 2.8.7 8.5-2.1 3.8-1.9 15.2-7.2 25.5-11.9 19.6-9 25.3-11.9 28.2-14.5.9-.8 1.7-1.2 1.7-.8s2-.7 4.4-2.3c2.5-1.7 5.3-3.2 6.3-3.4 1-.1 2.3-.5 2.8-.8.6-.3 3.5-1.3 6.5-2.1 12.5-3.7 46.8-15.1 51-17.1 2.5-1.1 6.5-2.8 9-3.8s4.4-2.1 4.3-2.6c-.1-.4 1.3-.8 3.1-.9 1.8 0 4.1-.4 5.2-.9 1-.4 2.8-.8 3.9-.9s1.9-.7 1.7-1.4c-.2-1 .2-1 1.7-.2 1.1.5 2.2.7 2.5.2.2-.4 3.1-.9 6.3-1 7.8-.3 13.1-1.9 14.3-4.2.6-1.1.8-2 .6-2-.3 0 .1-1.7.8-3.8.8-2.1 1.6-5.4 1.9-7.3s1.7-7.7 3-12.9c1.4-5.2 3-12.7 3.7-16.5.6-3.9 2.2-11.5 3.6-17 3.4-14.4 5.5-29.6 4.3-31.1-.6-.8-.5-1.4.6-1.8.8-.3 1.4-.9 1.3-1.3s.3-3.3 1-6.3c.6-3 2.1-10.9 3.2-17.5 1.2-6.6 3.2-17.6 4.5-24.5s2.7-15 3-18 1-7.3 1.5-9.5c1.1-5 5-28.7 6.6-40 .3-2.2 1.6-10.3 2.9-18s2.9-18.3 3.6-23.5c1.7-13.7 6.7-49.5 7.8-56 1.2-6.8 1.6-9.3 3.6-24.5.8-6.6 1.7-12.7 2-13.5.6-2.2 4.2-28.1 5.5-39.5.6-5.5 1.3-11.6 1.5-13.5s.6-6.1.9-9.3c.3-3.1.7-6.1 1-6.5 1.2-2 5-28.3 6.5-45.2.7-6.9 2.5-23.5 4.1-37s3.6-31.9 4.6-41c.9-9.1 2-20.1 2.5-24.5s1.2-11.2 1.4-15c.3-3.9 1.2-10.8 2-15.5s1.5-10.8 1.5-13.6.4-7.5.9-10.5 1.4-11.9 2-19.9c.7-8 1.8-20.4 2.6-27.5.8-7.2 1.7-18.2 2-24.5.6-11.7.7-12.6 2.4-26.5 3.4-26.3 4.2-37.2 3.5-49.4-.4-8.6-1.1-13.1-2.1-14.2-.7-.9-1.3-2.3-1.1-3 .4-2.1-8.6-2.3-16.4-.5-8.2 1.9-30 11.3-37 16-3 2-5.8 3.6-6.2 3.6s-2.2 1.1-4 2.5-3.8 2.5-4.4 2.5-3.8 1.6-7 3.5c-3.3 1.9-7 3.9-8.3 4.4s-4.1 2.3-6.3 4c-2.1 1.7-4.4 3.1-5 3.1-1.8 0-12.5 7.3-28.1 19.2-15 11.3-20.2 15.7-30.5 25.5-3.6 3.4-7.4 6.9-8.4 7.6-1 .8-1.6 1.9-1.2 2.5.4.7.2 1-.7.7-.8-.4-7.8 6.2-17.9 16.7-14.8 15.3-20.1 21.5-35 40.3-2.1 2.6-6.3 8.7-9.5 13.6s-8.2 12.1-11 16c-2.9 3.9-5.3 7.7-5.3 8.4s-.7 1.8-1.5 2.5-2.1 2.4-2.8 3.9c-2.1 3.9-6.1 11.2-8.5 15.1-2.2 3.7-9.7 22.6-12.7 32-1 3-3 8.6-4.5 12.5-10.5 26.7-11 71.1-1 98 4.8 13.2 16.4 29.2 32 44.3 7.7 7.5 28.4 17.3 43.5 20.7 11.5 2.6 37.5 2.7 45.5.2 3-1 10.3-2 16.3-2.4 9.5-.5 10.9-.4 12.7 1.2 2.4 2.2 2.5 5.3.4 10.3-2.3 5.6-6.9 9.2-15.4 11.9-4.1 1.3-8.4 2.8-9.5 3.3-10.1 4.6-19.5 6.1-36.4 6.1-26.6-.2-37.5-1.9-57-9-10.5-3.8-14.3-5.8-25.1-12.9-25.3-16.6-34.2-25.8-46.9-48.2-11.2-19.7-14.1-26.8-18.5-44.5-3.7-14.9-5.2-49.6-2.8-61.5.7-3 1.9-9.3 2.8-14 3.6-20 10-43.4 15.6-57.4 4-10.2 4.8-11.7 14.1-27.6 3-5.2 7-12.1 8.8-15.3 1.9-3.2 6.1-9.8 9.4-14.8s6.9-10.6 8-12.5c1.1-2 3.8-5.4 6-7.8 2.2-2.3 7.7-8.9 12.2-14.6 4.5-5.8 14.9-17.3 23-25.5 8.2-8.3 15.8-16.1 16.9-17.5s2.7-3 3.6-3.5c.9-.6 6.2-5.1 11.8-10 5.6-5 12.3-10.4 14.9-12.1 2.5-1.7 5.7-4.3 7-5.8 1.4-1.4 3-2.6 3.6-2.6s4-2.1 7.6-4.6c6.3-4.5 21.6-14 28.8-17.9 2-1.1 6.7-4 10.6-6.4 19.6-12.4 28.5-16.6 52-24.6 6.1-2 11.9-4 13-4.5 3.5-1.5 10.7-3.8 23.5-7.5 6.9-2 13.2-3.9 14-4.2s2-.5 2.7-.4c.6.1 1.4-.3 1.8-.9 1.2-1.9 28.1-1.2 36.2.9M230 495c10.1 2.1 22.4 5.1 29 7.1 13.2 3.9 20.5 6.3 21.6 7.1.6.5 4.7 2.1 9 3.7 8.7 3.2 25.1 10.8 25.8 12 .3.4 4.2 2.7 8.8 5 4.6 2.4 9 5 9.9 5.7.8.8 1.9 1.4 2.2 1.4.4 0 3.2 1.7 6.3 3.7 3 2.1 6.9 4.5 8.6 5.5 1.6.9 3.8 2.4 4.9 3.4 1 .9 2.8 2.2 3.9 2.8 2.6 1.5 15.9 10.7 18.4 12.8 1.2 1 4.8 4 8.1 6.8 3.3 2.7 6.6 5 7.3 5 .6 0 1.2.4 1.2.9s5.3 5.2 11.8 10.5c6.4 5.3 14.5 12.4 17.8 15.7 4.1 4.1 6.6 5.9 7.4 5.4s1.1-.4.6.3c-.6 1 4.8 7.2 6.4 7.2.4 0 4.7 4.1 9.6 9.2 4.9 5 12 12.1 15.8 15.7s7.7 7.5 8.5 8.5c.9 1.1 3.6 4 6.1 6.5 7.7 8 21.7 23.4 25 27.6 1.7 2.2 5.4 6.2 8.1 8.8 2.7 2.7 4.9 5.2 4.9 5.5 0 .4 2 2.9 4.5 5.7 11 12.2 19.2 22 27.4 32.7 2.4 3.2 4.7 5.8 5.2 5.8s.9.5.9 1.1 1.5 2.9 3.3 5c1.7 2 5.5 6.7 8.2 10.4 4.7 6.1 12.6 16.1 19.5 24.7 1.7 2 3 4.1 3 4.6s1 1.7 2.1 2.8c1.2 1 3.9 4.4 6 7.4s5.9 8.2 8.4 11.5c10.7 14 14.7 19.4 19.2 25.6 2.7 3.6 6.4 8.8 8.3 11.4 7.7 10.5 12.9 17.7 20.4 28.6 4.3 6.3 8.5 12.1 9.3 12.9.7.8 2.4 3.1 3.6 5 4.6 7 10 14.5 11.1 15.5.6.5 1.9 2.6 2.9 4.5 3.8 7.3 4.8 9 5.8 9 .5 0 .9.4.9 1 0 1.1 14.9 23.3 21.4 32 2.3 3 5 7.3 6 9.5s2.7 5.2 3.7 6.6 2.1 3.8 2.5 5.5c.4 1.6 1.5 4.5 2.5 6.6 1 2 2.5 5.6 3.4 8 1.3 3.8 1.3 4.4-.1 5.4-.8.7-2.4.9-3.6.6-2.2-.5-24.8-22.8-24.8-24.4 0-.5-3.5-4.9-7.7-9.7-4.3-4.8-10.3-11.8-13.3-15.6s-7.3-8.9-9.5-11.5c-2.3-2.5-5.9-6.7-8-9.5-2.2-2.7-5.9-7-8.2-9.5-2.4-2.5-4.3-4.9-4.3-5.3s-3.5-5-7.7-10.1c-10.2-12.3-21.7-26.8-22.2-28.1-.2-.5-4.1-5.3-8.7-10.5s-9.7-11.1-11.3-13c-9.1-11.1-16.7-18.8-17.5-17.9-1.8 1.7-2.9.9-1.3-.9 1.5-1.6.9-2.5-8.4-13.2-11.9-13.7-18.7-21.4-21.4-24.4-1.1-1.2-3.3-3.8-4.9-5.7-1.6-1.8-7.6-8.6-13.5-14.9-5.8-6.3-13.9-15-18-19.5-4.1-4.4-7.9-8.5-8.5-9-.6-.6-4.2-4.6-8-9-17.5-20.3-72-75.2-87.6-88.1-1.8-1.6-5.2-4.8-7.5-7-4.3-4.5-17.9-16.6-25.4-22.6-8.5-7-25.2-19.8-25.6-19.8-.3 0-1.3-.8-2.4-1.8-1-.9-5.5-4-10.1-6.7-4.5-2.8-10.8-6.9-14-9.3-3.2-2.3-6.1-4.2-6.5-4.2s-1.9-.9-3.4-2c-4.4-3-34.3-18-36.1-18-.9 0-2-.3-2.3-.7-1.2-1.2-11.1-4.4-13.9-4.5-1.6-.1-2.8-.5-2.8-1s-1.7-1.6-3.7-2.4c-2.1-.8-4.7-1.9-5.8-2.4-4.4-2-15.5-4.9-23-5.9-4.4-.7-9.3-1.4-11-1.6-3.8-.6-40.3-.7-41.3-.2-.4.3-3.9.8-7.9 1.1-3.9.4-9.6 1.3-12.5 2.1-15.8 4.3-19 5.4-21.3 6.9-1.3.9-2.7 1.6-3 1.6-.9 0-10.2 4.9-14.7 7.7-9 5.8-15.9 11.5-15.5 12.7.4.9-.2 1.1-1.8.9-1.8-.4-4.6 1.9-14.2 11.4C66.2 598.6 60 608.3 56 623.5c-1.2 4.4-2.3 10-2.6 12.5-.2 2.5-.6 5.6-.9 6.9-.2 1.4-.1 2.9.3 3.5.9 1.3.9 2.3-.3 5-1.9 4.3-.5 21.8 2.6 33.5 2.5 9.2 7 18.7 11.3 23.7 2.9 3.4 3.5 3.7 5 2.5 1.5-1.3 1.6-1 1.2 2.3-.3 2.6 0 3.9 1 4.3.8.3 1.4 1.2 1.4 2s.8 1.7 1.9 2c1 .2 2.5 1.6 3.2 3 3.2 6.1 22.5 21 30.2 23.4 1.7.6 4.1 1.4 5.2 1.9 4.7 1.9 11.6 3 19.5 3h10.3c3.3 0 5.2-.2 6.7-.7.8-.3 3.3-.5 5.5-.5 3.8.1 8.6-.9 13-2.8 11.8-4.9 16.5-7.1 21.5-10 4.8-2.8 12.3-2.7 15.1.1 6.7 6.7-8.9 25.9-29.1 35.9-3.6 1.8-7.1 3.7-7.8 4.3s-2.3 1.2-3.5 1.3-6.4 1.2-11.6 2.3c-11.2 2.5-29.7 3-41.4 1.2-17.1-2.7-41.3-12.9-52.5-22.1-2-1.6-4.5-3-5.4-3-1 0-1.7-.4-1.6-.8.2-.4-2.8-3.9-6.6-7.7-15.8-16-33.4-49.6-37-70.9-1.8-10-2.1-42.5-.5-52.7 1.4-9.4 4.5-21.2 7-26.6 1-2.4 1.9-4.6 1.9-5 0-2.6 14.8-26.1 19.8-31.6 1.4-1.5 2.3-2.7 2-2.7-.4 0 1.1-1.8 3.3-4 3.2-3.2 3.9-4.5 3.3-6.3s-.5-2 .8-1c1.2 1.1 2.9-.1 9.9-7.1 4.6-4.7 8.6-8.3 8.8-8 .2.2 1.1-.2 2-1 3.3-2.9 19.9-13.4 26.6-16.8 3.9-2 9.3-4.8 12-6.2 2.8-1.4 7.1-3.4 9.8-4.5 2.6-1.1 4.7-2.4 4.7-2.9s1.1-.7 2.4-.5c1.3.3 3.4 0 4.6-.7 1.2-.6 3.4-1.4 4.8-1.6 5.3-1 10.7-2.6 12.1-3.7.8-.7 4.2-1.3 7.5-1.4 3.4-.1 11.7-.6 18.6-1.1 15.9-1.2 50.8-.7 58 .8m66.5 15c.3.5.1 1-.4 1-.6 0-1.1-.5-1.1-1 0-.6.2-1 .4-1 .3 0 .8.4 1.1 1M142.7 624.1c9 3.7 25.3 12.3 27.3 14.4 1.3 1.4 2.8 2.5 3.3 2.5 1 0 14.6 12.1 31.5 27.9 10.9 10.3 27.9 28.1 33.4 35.2 1.5 1.9 5.1 6.3 8 9.8s6.7 8.3 8.4 10.8c1.8 2.5 4 5.3 5 6.3 1.1 1 4.1 4.8 6.8 8.4 2.6 3.6 5.2 6.3 5.7 6s.9.3.9 1.3 2.9 5.6 6.5 10.1 6.5 8.5 6.5 8.8 1 2 2.3 3.7c1.3 1.8 5 6.8 8.2 11.2s6.8 9.1 8.1 10.5c1.2 1.4 4 5.3 6.1 8.7S317.4 810 321 815c3.6 5.1 7.2 10.6 8.1 12.3 1 1.8 2.8 4.3 4.1 5.8 2.7 2.9 8.8 12.2 8.8 13.4 0 1.4 9.1 15.5 10 15.5.5 0 1.2 1 1.6 2.2.4 1.3 2 3.9 3.5 5.9 1.6 2 2.9 4.1 2.9 4.7 0 .5 1.9 3.6 4.3 6.8 2.3 3.3 6.3 9.2 8.7 13.2 2.5 4 5.6 9.1 7 11.2 4.2 6.6 11 17.4 12.3 19.5 6.5 10.8 28 42.4 28.6 42.1.4-.3.7.5.7 1.7-.1 1.3.4 2.1 1.2 1.9.8-.1 1.1.1.8.6-.5.9 10.1 19.1 13 22.3.8.8 1.4 1.8 1.4 2.2 0 .8 7.7 12.4 11.4 17.2 1.7 2.1 3.6 4.7 4.1 5.7 2.4 4.3 9.2 13.6 12.4 17 1.9 2.1 3.2 3.8 2.7 3.8-.4 0 1.3 2.7 3.8 5.9 2.5 3.3 4.6 6.4 4.6 6.9s.9 1.7 2.1 2.8c1.2 1 4.1 5 6.6 8.9 7.2 11 36.2 43.5 38.9 43.5.8 0 1.3.4 1.1.8-.7 2.5 37.8 34.2 41.6 34.2.5 0 2.2.9 3.8 2.1 1.6 1.1 3.5 2.2 4.2 2.3s2.3.9 3.7 1.8c3.8 2.4 12.4 6.8 13.3 6.8.5 0 2.5.7 4.5 1.6 2.1.9 4.6 2 5.7 2.5 1.8.8 10.4 3.1 11.5 3.1.3 0 1.6.5 3 1.1 7.1 2.8 30.2 3.5 36 1 .8-.3 2.6-.8 4-1 4.8-.8 18.6-8.3 23.2-12.5 5-4.7 8.1-9 15.1-21.3 4.3-7.6 7.7-17.5 11.2-33.5 1.5-6.8 4.7-15.4 7.5-20.5 6-10.6 12-19.8 16.4-24.6 2.8-3.1 6.2-6.9 7.7-8.5 2.8-3.3 11.2-9.4 12.8-9.4.5 0 3.2-1.3 5.8-2.8 2.6-1.6 5.7-3.1 6.8-3.4s5.2-1.8 9-3.3c3.9-1.5 7.9-2.9 9-3.2s2.7-1.2 3.6-1.9c.9-.8 1.8-1.2 2.1-.8.3.3 4.1-.2 8.4-1.1 4.4-.9 9.7-1.9 11.9-2.1 2.2-.3 4.6-.7 5.4-.9 1.4-.6 8.1-1.5 14.6-2 10.2-.9 60.9-1.3 68-.5 4.4.4 10.7 1.1 14 1.5 3.3.3 7.6.8 9.6 1s5.3.8 7.5 1.3c3.1.8 12 2.1 17.9 2.6 3.4.3 11.6 3 12.5 4.1.6.8 1.7 1.2 2.3 1 1.9-.7 5 4.3 4.3 7-1.1 4.2-5.1 4.6-42.9 4.9-39.7.3-54.3 1-70.2 3.1-9.2 1.3-23.6 4.2-29.5 5.9-.8.3-4.8 1.2-8.9 2.1s-8.2 2-9.2 2.6c-1.1.5-1.9.8-1.9.5 0-2-22.1 8.1-26.6 12.2-1.6 1.5-4.1 3.2-5.6 3.9-9.5 4.3-19.8 19.6-23.9 35.3-1 4.1-2.1 18.1-2.1 29-.1 14.9 4.4 27.4 13 35.9 4.5 4.4 13.6 9.9 15.5 9.3.5-.1 1.5.2 2.2.8s1.7 1 2.1.9c.5-.1 1.8.1 2.9.5s3.2 1.2 4.7 1.8c1.6.6 3.7.8 4.8.5s2.2-.2 2.5.3c.8 1.3 5.6 2 24.5 3.6 13.3 1.1 26.6 1.4 70 1.4 23.4.1 44.5.6 47 1.1s5.2 1.1 6 1.3c.9.2 1.6 1.7 1.8 3.9.3 3.1-.1 3.8-2.7 5.2-3.7 1.9-23 6-32.6 7-3.8.4-8 1.1-9.5 1.7-1.4.5-6.8 1.2-12 1.4-5.2.3-12.2.9-15.5 1.4-3.3.6-9.4 1-13.5 1s-10.9.5-15 1c-4.1.6-18.3 1-31.5 1-22.8.1-27.3-.3-43-3.5-4.6-.9-18.9-8-26.4-13-6.2-4.2-12.3-10.3-18.1-18.3-1.3-1.7-3-3.2-3.7-3.2s-5.3 3.9-10.2 8.7c-10 9.8-22 17-36.6 21.8-10.5 3.6-10.4 3.5-29 3.4-26.4-.2-31.2-.8-42.2-5.1-4.3-1.6-13.4-5-20.3-7.5-13.7-4.9-27.6-12.3-38.7-20.5-33-24.5-43.9-34.7-63.2-58.7-8-10-19.5-23.1-20.3-23.1-.5 0-.8-.5-.8-1.1s-2.2-3.7-5-6.9c-2.7-3.2-5-6.2-5-6.7 0-.6-1-2.1-2.2-3.5-2.7-2.9-2.6-2.9-11.3-17.5-3.7-6.2-7-11.5-7.5-11.8s-2.3-3.1-4.1-6.3c-4.8-8.5-17.9-26.7-19-26.5-.5.2-.8-.3-.6-1 .1-.6-.4-1.1-1-1-.7.2-1.4-.2-1.4-.7-.1-.6-.2-1.4-.3-1.9 0-.5-.4-1.3-.9-1.7-.4-.4-.7-1.5-.7-2.5 0-.9-1.8-4-3.9-6.7-2.2-2.7-3.7-5.3-3.4-5.6.4-.3-.2-1.5-1.1-2.5-1-1.1-1.8-2.5-2-3.3-.1-.8-1.2-3.1-2.4-5.1-1.2-2.1-2.2-4-2.2-4.2 0-.3-2.1-3.7-4.7-7.7s-5.5-8.8-6.5-10.6c-4-7.1-17-26.2-17.9-26.2-.6 0-.7-.5-.4-1 .3-.6-.3-2.3-1.4-3.9-1.2-1.6-2.1-3.2-2.1-3.6s-.8-1.9-1.8-3.3c-1.1-1.5-3.6-5.9-5.7-9.7-4.6-8.4-17.2-29.3-26-43-3.5-5.5-8.6-13.5-11.2-17.8-2.6-4.2-7.3-11.7-10.4-16.5s-7.3-11.6-9.5-15.2c-2.1-3.6-6.8-10.7-10.4-15.8s-6.9-10.1-7.5-11c-.5-.9-2.2-3.2-3.7-5-1.6-1.8-2.8-3.7-2.8-4.2s-2.9-5.3-6.5-10.7c-12.9-19.6-21.5-31.5-34-46.8-10.2-12.6-17.5-22.4-17.5-23.5 0-.5-.9-1.4-2-2s-2-1.5-2-2.1c0-2.9-39.1-43.8-41.2-43.2-.5.2-.8-.1-.8-.7 0-1.1-4.7-5.9-16.3-16.7-7-6.5-9-9.7-7-11.6 1-1.1 8-.8 11 .4m717.8 15.8c.3.5.1 1.2-.5 1.6-.5.3-1-.1-1-.9 0-1.8.6-2.1 1.5-.7m-701 19.1c.3.5.1 1-.4 1-.6 0-1.1-.5-1.1-1 0-.6.2-1 .4-1 .3 0 .8.4 1.1 1m41 48c-.3.5-1.1 1-1.6 1-.6 0-.7-.5-.4-1 .3-.6 1.1-1 1.6-1 .6 0 .7.4.4 1m14.8 18c.3 1.1.2 2.2-.3 2.5-.4.3-1-.6-1.2-2-.6-3 .7-3.4 1.5-.5m-7 76.9c2 .8 5 3.3 12.8 10.6.9.8 2.3 1.5 3.2 1.5 1 0 1.8.6 1.8 1.2.1.7.2 1.7.3 2.3.1 1.2 8.8 13.2 13.8 19.1 2 2.4 6.2 7.8 9.4 12.1s7.9 10.3 10.5 13.3c2.5 3 4.8 6.2 5.1 7s4.1 6.2 8.4 12.1c8.6 11.4 9.4 12.7 12.3 17.9 1 1.9 3 4.6 4.2 6.1 1.3 1.4 3.1 3.8 3.9 5.5 2.5 4.9 8.1 13.6 12.6 19.5 2.3 3 5.1 7.1 6.2 9s2.5 3.3 3.2 3.1 1 .3.7 1.2c-.3.8.3 2.2 1.3 3.1 1.1 1 3.1 4 4.6 6.9 1.4 2.8 3.2 5.8 3.9 6.6 1.2 1.4 2.4 3.6 8.5 15 1.4 2.6 3.7 6.5 5.1 8.6 1.4 2.2 4.3 6.6 6.4 9.9 5.5 8.8 9.6 14.7 11.9 17.3 1.1 1.2 2.1 2.9 2.2 3.8s2.3 4.2 4.8 7.4 4.6 6.3 4.6 6.9c0 .7.6 1.4 1.3 1.6.6.3 1.3 1.7 1.4 3.2 0 1.5.8 3.2 1.7 3.9.9.6 1.6 1.4 1.6 1.8 0 1.7 5.9 12.9 18.7 35.5 3.4 5.9 11.2 15.8 13 16.5.8.3 1.2 1 .9 1.5s.7 2.2 2.2 3.9c1.5 1.6 2.6 3.4 2.4 4-.1.5.8 1.9 2.2 3 1.4 1 2.2 2.2 1.9 2.6-.4.3.4 1.7 1.7 3.1s2 2.5 1.5 2.5c-.4 0-.1.8.7 1.7.9 1 3.2 4.9 5.3 8.7 6.3 11.8 34.3 45.5 36.6 44 .5-.3 1.2.3 1.6 1.2 1.1 3 20.3 21.9 27.9 27.6 3.9 2.9 11 7.3 15.7 9.8 4.7 2.4 8.3 4.8 8.1 5.2-.3.4 2.4 2.2 5.8 3.9 3.5 1.7 8.6 4.6 11.3 6.4 10.5 6.7 33 15.5 35.6 14 .5-.4 1.6-.2 2.3.4s2.1 1.2 3.2 1.4c1 .1 2.5.6 3.2 1 .6.5 1.6.6 2.1.3s1.4.1 2.1.9c.6.7 1.8 1.1 2.6.8s2 .2 2.7 1c1.4 1.9 11.5 4.2 37.2 8.6 25 4.3 67.4 5.8 108.5 3.9 8.5-.4 20.9-1 27.6-1.2 12.9-.5 42.2-3.4 43.6-4.2.5-.3.5-1.1.1-1.7-.4-.7 0-.6 1 .2 1.6 1.3 7.5 1.1 20.1-.5 8.5-1.1 14.8-1.4 31.3-1.4 18.4.1 20.3.3 20.3 2.8 0 1.6-2.8 5.2-4.1 5.2-.4 0-2.9 1-5.6 2.2-2.6 1.1-5.7 2.2-6.8 2.4-5 .7-17.8 4.4-19 5.4-.8.7-1.8.9-2.4.6-.5-.3-2.2-.1-3.8.6-1.5.6-3.7 1.2-4.8 1.2-1.1.1-2.6.5-3.4 1-.7.5-3.4 1-5.9 1.2s-8.6 1.2-13.6 2.3c-8.6 1.9-12.2 2.6-19.1 3.7-13.4 2.1-32.4 5.8-33.9 6.6-1.1.6-5.6 1.2-10 1.4-4.5.2-12.6 1.1-18.1 1.9s-14.5 1.7-20 1.9-11.1.7-12.5 1c-3.7 1-63.1 1.1-73.5.2-4.9-.4-10.8-1.1-13-1.6-2.2-.4-4.7-.8-5.5-.8-2.2-.1-18.9-3-21.2-3.8-2.1-.6-11.3-2.3-16.3-2.8-1.6-.2-5.2-1.1-7.9-1.9-2.7-.9-5.3-1.4-5.7-1.1-.4.2-1.1-.1-1.4-.7-.4-.5-1.3-.8-1.9-.6-.7.3-1.9.1-2.6-.3-1.9-1.2-6.8 3.6-5.3 5.1.7.7.1 2-1.9 4.1-1.6 1.7-5.1 7.8-7.9 13.7-2.8 5.8-6.9 14.3-9.1 18.8-2.2 4.6-4.1 8.9-4.2 9.5-.5 2.4-1.9 5.3-3.3 6.9-.7.8-3 5.6-5.2 10.5-2.1 4.9-5.6 12.5-7.6 16.9-2.1 4.4-5.2 11.4-7 15.5s-6.1 13.3-9.5 20.5c-7.9 16.2-16.1 33.6-18.8 39.5-13.9 30.8-23.5 50.4-31.5 64-6.1 10.4-12 19.1-14.1 20.9-.9.7-1.3 1.8-.9 2.5.3.6.3.8-.2.4-.4-.4-2.8.3-5.4 1.6-17.3 8.7-32.5 3.9-30.6-9.7.3-2.3.7-5.8 1-7.7.2-1.9 1.1-6.4 2-9.9.9-3.6 1.4-7 1.1-7.7s.2-1.8 1-2.5c.9-.7 1.3-2.1 1.1-3-.3-1 0-1.7.6-1.6.7.1 2.5-4.9 4.3-11.8 1.7-6.6 4.7-17.2 6.7-23.5s3.8-12.4 4-13.5c.1-1.1.6-2.5 1-3.2 1.4-2.2 3.4-10 3.3-12.4-.1-1.3.5-3.5 1.5-4.9 1.5-2.3 4.6-11.6 9.9-30 1.2-4.1 3-10.2 4-13.5 1.8-5.8 6.6-24.3 7.3-28.1.2-1.1.9-3.2 1.5-4.7.7-1.5 1.5-4 1.8-5.5s2.1-7.2 3.9-12.7 3.9-12.5 4.6-15.5c.6-3 2-7.5 3.1-9.9 1-2.4 1.6-4.6 1.3-4.9s-.1-1 .3-1.6c1.4-1.9 6.9-22.6 7.7-28.9.2-1.6.8-3.4 1.3-4 .5-.7 1.5-3 2.1-5.2.7-2.2 1.5-4.7 1.8-5.5.4-.8.5-1.9.4-2.3 0-.4.6-2.1 1.4-3.8 3-5.6 1.9-7.6-9.5-17.1-5.8-4.8-13.2-11.6-16.5-15.1-15.7-16.4-45.6-55.1-51.1-66-.9-1.8-3.5-6.1-5.9-9.7-4.4-6.9-22.5-38.4-22.5-39.3 0-.3-2.6-4.9-5.7-10.2-7.1-11.8-7.7-13-15.3-28.4-3.3-6.7-8-16-10.4-20.5-2.4-4.4-6.7-12.5-9.4-17.8-2.8-5.4-5.8-10.8-6.6-12-.7-1.3-2.9-5.2-4.9-8.8-1.9-3.6-4.8-9-6.4-12-1.7-3-5.6-10.4-8.7-16.4s-6.6-12.2-7.8-13.8c-1.1-1.7-3.9-6.5-6.1-10.7s-4.9-8.9-6.1-10.5c-1.1-1.7-2.7-4.4-3.6-6-5.1-9.7-10-18.3-15.8-27.6-7-11.4-11.4-18.9-18.6-31.8-2.6-4.5-7.8-13.3-11.6-19.5-3.9-6.1-8.9-14.9-11.3-19.5-2.3-4.5-4.7-9.3-5.3-10.5-2.2-4.2-2.5-7.5-.8-9.1 1.8-1.9 2.4-1.9 5.7-.7M329 955.1c0 3-1.7 2.2-2.2-1.1-.4-2.4-.2-2.7.9-1.9.7.7 1.3 2 1.3 3m1442 10.4c5.2.3 11.1.8 13 1.1 1.9.2 10.9.9 20 1.4s20.2 1.6 24.8 2.5c4.6.8 8.6 1.4 9 1.3.7-.1 8.9 1.1 12.7 1.9 1.1.2 4.9.8 8.5 1.3 13.7 2 40.6 9 53.7 14.1 2.8 1.1 6.5 2.1 8.2 2.1 1.6.1 3.2.7 3.5 1.5.3.7 1.3 1.3 2.3 1.3s8.1 3.2 15.7 7c7.7 3.9 14.1 6.8 14.4 6.5.3-.2 1 .2 1.6 1s4.3 3.4 8.1 5.8c13.2 8.1 25.9 20.3 34 32.6 7.3 11 19.1 39.6 20.1 48.6.2 1.6.9 5.2 1.5 7.9 1.7 7.1.5 29.9-2.1 40.6-1.1 4.7-2.3 9.8-2.6 11.5-.3 1.6-1.1 3.7-1.8 4.5s-2.1 3.2-3.1 5.3c-3.5 6.7-16.9 24-23.1 29.6-9.3 8.6-23.6 18.7-34.8 24.7-6.1 3.2-30.6 13.2-34.2 13.8-3.2.6-12.4 3.4-14.4 4.5-.8.4-6.2 2-12 3.5s-12.3 3.6-14.5 4.6-5.3 1.8-7 1.9c-1.6.1-6.2 1-10.2 2.2-4 1.1-9 2.1-11.1 2.3-12.3.9-45.1 4.9-47.1 5.7-2.1.9-2.3 1.4-1.7 4.9.3 2.2 1.8 7.7 3.3 12.2 1.5 4.6 2.7 8.5 2.8 8.8.2.7 5.6 18.2 6.2 20 .3.8.7 2.5.9 3.8.1 1.3 1.6 6.7 3.2 12 3.6 11.6 7.2 24.1 7.7 26.2 2 9.5 5 16.4 6.5 15.5.6-.4 1-.2 1 .4 0 .5-.5 1.3-1.1 1.6-.6.4-.7 1.4-.4 2.4.4.9 1.3 3.8 2 6.6.7 2.7 2.5 8.6 3.9 13 1.3 4.4 3.8 12.5 5.6 18 1.7 5.5 4.4 14.9 6 21 2.9 11 3.8 14.1 10.4 35.5 2 6.3 3.8 12.7 4.1 14.1s1.1 4.5 2 6.8c1.3 3.7 4.3 15.3 6.3 24.6.4 1.6.7 6 .7 9.8-.1 5.6-.4 7.1-2.3 8.9-3 3-12.8 3.6-20.7 1.3-3.1-.9-5.9-1.4-6.1-1.2-1.1 1.1-18.4-17.8-18.4-20.1 0-.6-2.2-4.9-4.9-9.5-2.7-4.7-5.2-9.6-5.6-10.9-.4-1.2-4.8-10.2-9.6-19.9-4.9-9.7-8.9-17.9-8.9-18.2s-2.6-6.1-5.9-12.9c-3.2-6.8-6.6-14.1-7.6-16.3-.9-2.2-3.9-8.5-6.5-14-2.7-5.5-6.7-14.1-9-19-2.3-5-6.1-13.1-8.5-18-2.3-5-5.5-11.7-7-15s-4.2-9.2-6-13c-1.8-3.9-4.5-9.8-6-13.3-1.4-3.5-5.6-12.3-9.3-19.5-3.7-7.3-8.5-17.7-10.7-23.2-2.1-5.5-5.1-11.8-6.5-14l-2.6-4-20.9-.5c-25.3-.6-264.6-.2-336 .6-61.5.6-55 .6-77.5-.1-24.1-.9-37.4-2.6-43.4-5.6-5.7-2.8-6.5-3.8-7.3-8.3-.5-2.9 0-4.2 2.7-7.6 1.8-2.3 5-5.3 7.1-6.6 2.2-1.3 3.8-3 3.6-3.6-.2-1.4 4.3-1.8 6-.5.7.5 2 .6 3 .3s4.6-.8 8-1c3.4-.3 7.7-.7 9.5-1s5.8-.8 8.8-1c5-.5 9.3-.8 31.6-2.1 14.5-.9 32.7-1.5 63.4-2 17.3-.4 37.8-.8 45.5-1 7.7-.3 58.6-.7 113-1 161.6-1 201.7-1.3 207-1.9 2.8-.2 9.7-.7 15.5-1 21.9-1.2 30.6-1.7 33.5-2.1 1.7-.2 5.3-.6 8.1-1 2.8-.3 6.6-1 8.4-1.5s3.6-.7 4-.5 3.4 0 6.6-.6c15-2.6 18.1-3.1 20.9-3.5 1.7-.3 4.6-.7 6.5-1s4.6-.6 6-.6 3.2-.6 4.2-1.4c1.1-1 1.8-1.2 2.3-.5.6 1.1 3.7.9 11-.8 2.2-.6 7.4-1.8 11.5-2.7s8-2 8.5-2.4c.6-.5 2.8-1.1 5-1.5s5.7-1.6 7.9-2.7c2.1-1.1 4.6-2.1 5.6-2.3s4.7-1.5 8.2-3c3.4-1.4 7.2-2.7 8.3-2.9 3.8-.5 13.5-5.7 15.5-8.3 1.5-1.9 2.4-2.3 3.1-1.6 2.2 2.2 19.8-8.6 29.7-18.1 4.8-4.6 10-11.9 10.7-15 .1-.6.5-1.9.9-2.8s.8-2.2 1-3c.1-.7.5-1.8.9-2.5.4-.6.2-1.5-.4-1.8-.7-.5-.3-1.6 1.2-3.1 1.3-1.4 2.4-3 2.5-3.7.1-.6.7-3.6 1.3-6.6 1.5-7.5 1.3-13.2-.8-23.1-2.2-10.5-10.3-27.7-16.7-35.7-8.6-10.7-21.3-22.1-23.4-20.8-.5.3-1 0-1-.8q0-3.15-16.2-11.4c-11.9-6.1-16.4-7.9-26.3-11-4.4-1.3-9.6-3.1-11.5-3.9s-4.8-1.7-6.4-2-3.6-.9-4.5-1.3c-2.1-1.1-12.3-3.7-18.6-4.7-5.5-.9-6.4-1.1-6.7-1.4-.4-.3-4.1-1.2-6.3-1.5-1.1-.1-2.7-.5-3.5-.8-.8-.4-2.6-.8-4-1.1-1.4-.2-3.6-.7-5-1-2.3-.5-7.8-1.4-12.5-2.1-1.1-.1-5.6-.6-10-1s-8.3-.8-8.6-1-4.1-.5-8.5-.6c-4.3-.1-9.2-.6-10.9-1.1-1.6-.5-10.4-1.1-19.5-1.3-9.1-.3-21.4-1.1-27.5-1.9-8.1-1-24.1-1.4-61-1.6-27.5 0-58.1-.3-68-.5s-32.8-.7-51-1c-34.9-.7-38.8-.9-44.7-2.7-8.5-2.5-4.4-8.3 7.2-10.2 1.9-.3 6-1 9-1.7 8.9-1.8 14.3-2.3 35.5-3.4 10.4-.6 22.8-1.4 30.5-2 2.5-.2 9.5-.6 15.5-.9 20.9-1 31-1.6 39-2.2 4.4-.3 27.2-.7 50.7-.8s43-.5 43.4-.9c.7-.7 8.5-.5 29.4.8m160.4 171.7c3 4.8-13.5 20.5-26.6 25.2-1.8.6-4.4 1.8-5.8 2.6s-3 1.5-3.7 1.6c-2.4.4-8.8 2.7-9.9 3.5-.6.5-1.3.6-1.6.4-.3-.3-1.8 0-3.4.6-7 2.8-44.3 9.6-62.9 11.5-2.7.3-6.6 1-8.5 1.5s-6.6.9-10.5.9c-3.8 0-8.8.4-11 .9-8.3 1.9-64.7 2.4-259 2.4-227.3 0-251.2-.4-264.5-4.3-5.1-1.5-6.2-2.4-5.8-5 .2-1.7 1.4-2.7 4.3-3.7 8.1-2.8 11.2-3 74.5-5.4 16.2-.6 30.9-1.2 32.5-1.4 1.7-.3 18.1-.7 36.5-1 18.4-.4 34.9-.8 36.5-1.1 1.7-.3 55.2-.7 119-.9 135.2-.5 209.8-1.4 234-2.9 24.8-1.4 29.3-1.8 35.5-2.7 3.6-.6 8.8-1.2 11.5-1.5 7.3-.7 16.2-2.3 22.5-4.1 3-.9 6.2-1.6 7-1.6s2-.3 2.5-.7c.6-.3 2.2-.7 3.6-.8 4.2-.2 22.4-6.6 22.2-7.7-.1-.6 1.1-1.1 2.5-1.1 1.5-.1 6.5-1.8 11.2-3.8 9.3-3.9 15.4-4.5 17.4-1.4M1800 1458c0 .5-.2 1-.4 1-.3 0-.8-.5-1.1-1-.3-.6-.1-1 .4-1 .6 0 1.1.4 1.1 1m-668.5 48c.3.5.1 1-.4 1-.6 0-1.1-.5-1.1-1 0-.6.2-1 .4-1 .3 0 .8.4 1.1 1" class="icon-part"/><path fill="#fefffd" d="M1409.4 465.1c-4.4.3-11 1.2-14.7 1.9-6.5 1.2-6.8 1.4-8.5 5.4-1 2.2-2.6 7.5-3.6 11.6s-3.1 11.5-4.7 16.5c-1.6 4.9-3.1 10.1-3.3 11.5s-.5 2.6-.7 2.7c-.1.2-.2.6-.4 1-.2 1.1-1 3.1-2.5 7.3-9 25.3-11.1 32-19.7 64.5-1.9 7.1-3.9 14.3-4.3 16-.5 1.6-1.8 6.3-2.9 10.4-2.5 9-4.3 14.3-5.2 15.6-1.1 1.6-9.7 32.5-12.4 44.5-1.3 5.8-2.9 12.3-3.5 14.5s-2 7.4-3 11.5c-3.2 12.9-5.8 21.8-7 23.9-.9 1.8-1.8 5.3-3.4 13.1-.2.8-.8 2.7-1.4 4.1-1.1 2.9-10.7 41.5-11.5 46.4-.3 1.6-.8 3.8-1.2 4.7s-1.2 4.3-2 7.5c-1.6 7.1-8 31.1-13 48.8-2 7.1-4.5 16.6-5.6 21-1 4.4-2.6 11.1-3.5 15-.9 3.8-1.9 7.9-2 9-.7 3.6-3.2 13.9-4.8 19.5-1.6 5.4-2.7 9.7-6.1 25-2.4 10.5-2.4 11.2.5 12 2.5.7 19.4-.3 24-1.4 1.4-.3 5.2-1.1 8.5-1.7 7.1-1.3 18.5-4.3 35-9.3 17.7-5.4 25.7-8.5 44.2-17.2 4-1.9 7.4-3.4 7.7-3.4.4 0 10.1-4.3 16.6-7.3 9.4-4.4 18.1-10 17.6-11.4-.4-1.1-.1-1.3 1.4-.8 1.3.4 3.3-.3 5.7-1.9 10.3-7.1 23.4-15.9 28.6-19.3 6.1-4 12.6-9 27.9-21.4 12.6-10.3 46.8-45.6 46.8-48.4 0-.4 2.2-3.1 4.8-6 5.6-6.1 16.2-21.4 16.2-23.3 0-.6.4-1.2 1-1.2 1 0 13-19.7 13.1-21.5 0-.6.6-1.7 1.4-2.5 1.4-1.6 11.5-22.2 11.5-23.4 0-.5 1.5-4 3.4-8 3.4-7 6.3-16.4 6.9-22.2.2-1.6.9-3.9 1.6-5.2 1.8-3.3 3.9-11.7 6.6-26.7 4.4-23.8 4-46.1-1.4-75.5-2.8-15.6-7.4-30-14.6-45.6-4.5-9.7-14.6-23.4-17.3-23.4-.7 0-1-.5-.7-1.1 1-1.5-3.6-6.1-5.3-5.4-1 .4-1.2 0-.8-1.1 1.1-3-16.1-17.7-28.8-24.6-20.8-11.2-40.8-19-53.5-20.8-4-.6-7.6-1.2-8-1.5-.4-.2-6.6-1.1-13.7-2-12.8-1.6-20.4-1.7-36-.4m-63 155.5c.3.8.2 1.2-.4.9s-1-1-1-1.6c0-1.4.7-1.1 1.4.7m-376.6 671c-.4.3-2.4.8-4.5 1s-4.7.5-5.8.8c-4.8 1-21.4 7.1-26 9.4-2.7 1.4-5.8 2.7-6.8 2.9-2.8.5-9.7 4.2-9.7 5.3 0 .6-.3.9-.7.8-1.5-.3-6.3 2.2-6.3 3.2 0 .6-.8 1-1.7.9-1-.1-2.5.1-3.3.4s-4 1.3-7 2.3c-3 .9-9.1 3.5-13.5 5.8-4.4 2.2-8.5 4.1-9 4.2-2.7.4-25.4 12.1-36 18.5-3.3 2.1-7.6 4.6-9.5 5.7-10.4 5.8-12.5 7.2-12.2 8.2.1.6-.2.9-.7.6-1.2-.8-12.7 6-14.9 8.9-.9 1.2-2.2 2-2.8 1.8-2.3-.8-47.7 31.5-56.7 40.2-3.1 3.1-3.6 3.9-2.6 5.6 1 2 .9 2-1.4.5-2.3-1.6-2.6-1.4-15.8 10.8-27.1 25-33.2 31.3-32.6 33.6.4 1.6.2 2-.9 1.6-.9-.3-2.9 1.5-5.6 5.2-2.3 3.1-5.3 6.9-6.6 8.4-2.2 2.4-2.3 3-1.1 4.4 1.1 1.4 1 1.6-1 1.2-2-.2-3.4 1.2-9.2 9.7-3.7 5.5-6.6 10.2-6.3 10.4.2.2-.3.9-1.1 1.5-1.7 1.3-7.1 10.7-13.9 24.1-5.8 11.3-6.6 13.2-9.9 23-1.3 3.8-4.3 11.6-6.6 17.3s-5.1 14.9-6.2 20.5c-1 5.6-2.5 12.9-3.2 16.2-.7 3.7-1.2 14-1.2 26.5.1 18.1.4 21.6 2.4 29.5 1.3 4.9 2.6 9.4 3 10 .3.5.6 1.3.7 1.7.1.5.3 1.1.4 1.5.1.5.2 1.6.1 2.5-.2 1.7 3.6 11.9 7.9 21.3 5.9 12.7 28.1 37.5 37.6 41.9 2.1 1.1 5 2.7 6.4 3.6 1.4 1 6.1 3 10.5 4.5 7.6 2.6 8.7 2.7 21.5 2.2 23.6-1 33.8-4.4 54.2-18.1 8.3-5.6 16.6-11.1 18.4-12.4 5.7-3.8 17.5-16 30.1-31.2 11.2-13.6 19.3-24.3 19.3-25.5 0-.3 3.6-5.6 7.9-11.8s9.9-15.1 12.3-19.8 5.3-9.8 6.4-11.5c6.6-9.5 43.4-87 43.4-91.4 0-.6.4-1.8 1-2.8 2.1-3.7 9-20.4 14.3-34.7 6.5-17.5 25-73.3 27.2-82 .8-3.3 2.4-8.8 3.6-12.2 1.1-3.4 2.1-7.2 2.3-8.5.1-1.2.5-3 .8-3.8 1.9-4.6 5.2-16.5 6.5-23 .8-4.1 1.6-8 1.7-8.5.1-.6 1-2.6 1.9-4.5s2.6-6.9 3.7-11 3.1-11.6 4.5-16.5c1.4-5 2.9-11.7 3.5-15 .5-3.3 1.2-7.6 1.5-9.5.6-3.5-1.3-7.9-2.7-6.4" class="icon-part"/><path fill="#a80000" d="M1381.2 395.9c-5.1 1.3-9.9 5.2-17.3 14.2-5.9 7.1-9.1 12.3-16.9 27.4-.8 1.6-2.6 3.3-4 3.7s-6.5 1.9-11.5 3.3c-14 4.1-25.9 7.8-27.5 8.6-.8.4-5.3 2.5-10 4.5-12 5.2-31.9 15.2-42.3 21.2-27.8 16.3-58.4 45.4-68 64.7-6.6 13.2-2.7 24 8 22 3.8-.7 10.8-7.4 16.6-16 2.2-3.3 6.6-8.6 9.6-11.9 17.6-18.5 59.2-42.8 94.3-55.1 15.3-5.4 17-5.2 14.3 1.1-1 2.1-4.7 12.7-8.5 23.4-3.7 10.7-8.8 25.3-11.4 32.5-2.6 7.1-8.5 24.5-13.2 38.5-4.6 14-10.4 31.6-12.8 39-6.4 19.3-11.4 35.7-20 66.5-4.2 14.8-8.3 29.2-9.1 32-.8 2.7-3.2 11.5-5.3 19.5-2.2 8-6.9 25.5-10.5 39-3.7 13.5-12.3 47.4-19.2 75.5-6.9 28-13.3 53-14.1 55.5-.7 2.5-3.4 13.2-5.9 23.9s-5 20-5.5 20.7c-1.4 1.6-11.5-1.4-23-6.8-10.6-5-15.3-5.4-18.6-1.5s-3.3 11 .1 17.6c3.2 6.5 14.5 16.6 25 22.5 10 5.6 9.8 4.8 6 22.6-1.3 6.3-3.6 17.3-5 24.5-1.5 7.1-4.6 21.5-7 32-2.4 10.4-6.3 29.6-8.5 42.5s-5 28.2-6 34c-4.2 22.6-13.9 79.4-16.5 96.5-1.4 9.9-3.5 23.4-4.6 30-2.4 15.1-4.6 32.5-5.4 43.5-.4 4.7-.9 9.8-1.1 11.5-.9 5.1-2.3 21.9-4 46.5-2 29.8-1.5 88.1.9 103.1 3.6 21.6 6 28.2 13.1 34.7 7.3 6.7 10.9 6.6 15.9-.5 4.8-6.9 6.7-18.8 9.8-60.3.4-6.3 1.3-15.3 1.8-20s1.5-13 2.1-18.5c.5-5.5 1.7-15.2 2.6-21.5.8-6.3 1.9-15.1 2.4-19.5 2.3-20.7 15.6-103.3 22-137 1.2-6.1 2.7-14.4 3.5-18.5 5.2-28.2 13.6-70.4 18-90.5.7-3.3 3.8-17.5 6.8-31.5 8.8-40.4 10.4-47.6 14.1-63 1.9-8 3.8-16.7 4.1-19.3.5-3.1 1.4-5.1 2.6-5.7 1-.6 6-1 11.1-1 31.6-.1 63.6-5.9 110.3-19.9 20.7-6.2 53.8-19.1 56.9-22.2.6-.5 1.6-.9 2.3-.9 1.8 0 35.1-17.8 48.9-26.1 27.5-16.6 52.2-35.8 74.4-57.9 25-25 32-33.2 50.2-59.5 18.1-26.1 35.7-63.1 43.8-92 1.2-4.4 3.1-11.1 4.2-14.9s2.3-8.9 2.8-11.5c.4-2.5 1.6-8.7 2.6-13.6 1.6-7.5 1.9-14 1.9-39 0-27.4-.2-31-2.3-41.5-7-34.8-19-62.6-37.7-87.5-18.4-24.6-49.5-48.9-78.1-60.9-34.4-14.5-60.6-19-107.1-18.4-17.1.2-25.5 0-26.3-.8s-.6-2.9.5-7.5c1.8-7.8 1.9-16.5.2-19.8-2.8-5.5-11.5-8.2-19.5-6.2m69.8 67.6c25.8 3.9 45 10 65.5 21 44.9 24 68.3 61.3 77.4 123.2 3.1 20.8.3 56.8-6.1 80.3-12.1 44.1-27.5 75-56.6 113.3-24 31.8-51.6 57.5-88 82.1-45.5 30.9-85.7 49.3-137.2 62.8-7.6 2-9.2 2.3-25.5 5.3-10.7 1.9-26 2.4-27.5.9-.7-.7-.4-2.8.9-7 1-3.2 2.4-8.6 3-11.9 3.6-17.6 18.7-78.9 23.6-95.5.7-2.5 2.4-8.8 3.9-14 2.4-8.8 3.6-13.9 10-40 4.3-17.8 13.5-52.8 17-64.6 1.9-6.6 4.2-14.8 5-18.4 3.8-15.5 19.5-72 25.3-91 1.9-6.3 7.1-23.7 11.4-38.7s8.6-29.2 9.5-31.5c.8-2.4 2.4-7.2 3.4-10.8 3.1-10.7 6.7-22.9 10.1-33.5 1.7-5.5 3.9-12.7 4.9-16 3.9-13 4-13.1 12.7-15 4.3-.9 8.3-1.8 8.8-2 3.1-1.1 39.3-.3 48.5 1m-374-31.4c-7.3.4-15.6 1.5-20 2.7-18.1 5-28.4 8.2-41.5 13.2-7.7 2.9-15.8 5.9-18 6.7-8 2.8-35.4 17-46.5 24-3 1.9-10 6.1-15.5 9.4-28.1 16.8-48.5 33.3-76.2 61.6-20.5 20.9-29.2 30.9-47.4 54.9-4.8 6.3-18.7 28.3-24.6 38.9-13.6 24.3-22.7 49.5-30.2 83.5-.6 2.5-1.7 11.1-2.6 19.2-2.9 27.4.4 55.2 9.1 76.9C780 864 806.8 891 846 906.3c17.5 6.9 32.8 9.7 52.5 9.7 13.5 0 22.2-1.2 33.4-4.6 16.2-4.9 26.8-11.4 29.6-17.9 1.2-2.6 1.1-3.3-.2-4.8-2-2.2-4.8-2.2-17.5.3-26.6 5.1-47.8 4.7-64.6-1.1-10.8-3.8-26.7-11.8-33.6-16.8-10.8-8-24.5-25-31.9-39.8-6.4-12.5-9.5-27.4-10.3-50.3-1.3-32.1 6.2-62.4 24.2-98.5 17.6-35.2 43.1-71.2 71.8-101.4 9.4-9.9 11.4-11.8 24.1-23.6 6.5-6.1 13.1-12.3 14.6-13.8 1.4-1.6 5.1-4.7 8.1-7 39.3-30.1 48.9-36.2 91.3-58.2 8.3-4.2 26.3-11.5 32.8-13.2 8.8-2.3 17.2-2.3 19.4 0 3.2 3.2 2.3 45.6-1.7 79.2-.9 8.1-1.3 11.8-3 32-.5 6-1.4 15.7-2 21.5-.5 5.8-1.5 15.9-2 22.5-.6 6.6-1.3 13.1-1.6 14.4s-.9 6.9-1.4 12.5c-1.7 18.1-4.9 48.8-6.9 64.6-1.1 8.5-2.2 19.1-2.6 23.5s-.9 8.9-1.1 10.1c-.4 2.3-1.6 12.9-3.9 35.4-2 19.1-3.1 28-6 48.5-1.4 9.3-3.1 21.9-3.9 28-7.7 56.7-10 73.7-11.7 84.5-1.1 6.9-4.4 29.1-7.4 49.5-9.8 66-14.7 96.1-24.5 151-8.9 50-20.3 104.3-23.1 109.7-.9 1.7-2.1 2.1-15.4 5.2-10.2 2.4-33.8 9.7-50.5 15.6-8 2.8-17.2 6-20.5 7.1-6.8 2.3-26.8 10.1-33.5 13.1-58.4 26.6-76.8 36.4-115.5 61.6-31.7 20.7-65.4 48.7-90.7 75.5-21.9 23.2-28.4 31.2-40.1 49.2-22.9 35.3-34.9 63.7-41.6 98.4-3.8 19.5-4.8 28.7-5 48.6-.4 32.9 5.8 61.3 18.9 87.6 8.4 16.8 16.2 27.8 27.8 39.3 11.9 11.8 19.2 17 33.7 24.1 22.6 11 36.1 14 61.5 13.9 26.3 0 40.4-3.3 66.5-15.3 13.7-6.2 20.2-10 32.9-18.9 26.4-18.6 51.5-44.4 74.5-76.7 9.5-13.3 23.5-35.7 29.5-46.8 2.3-4.5 6.9-12.9 10-18.6 3.1-5.6 7-13.1 8.5-16.5 1.6-3.3 5-10.6 7.5-16.1 7.4-15.7 12.9-28.2 17.8-40.5 10.1-25.2 28.5-75.8 32.2-89 1.5-5 4.9-16.2 7.7-24.8s7.7-26.3 11-39.2 7.3-28 8.9-33.5c4-13.9 13.3-51.7 17.4-71.4 2-9.1 4.2-17.1 5-17.9 1.3-1.3 8.7-3.8 22.8-7.7 8.1-2.2 18.8-7.7 21.8-11.2 3.5-3.9 3.8-6.3 1.1-8.7-2.4-2.1-12.6-2.6-29.5-1.2l-10.8.8.5-3.3c.2-1.9 1.9-10.6 3.6-19.4 8-41.9 14.2-75.2 16-87 1.1-7.2 2.3-14.8 2.6-17 .4-2.2 1.9-12.1 3.5-22 6.8-42.3 14.3-92.7 16-106.5.6-5.2 2.7-19.4 4.5-31.5 7.4-48.1 18.7-134.2 21.6-164 .6-6.1 1.5-14.2 2-18 .5-3.9 1.3-13 1.9-20.3.5-7.3 1.1-13.6 1.4-14 .3-.5.6-4.7.7-9.4.1-4.8.5-11.1 1-14 .8-5.9 1.3-12.3 2.9-37.3.6-9.4 1.5-22 2-28 2.8-32.4 3.5-52.5 3.5-102v-53l-2.7-14.8c-4.1-22.3-9-31.2-21-38.2-5-3-19-7.9-20.8-7.3-.3.1-6.1.5-13 .9m-99 854.8c0 7.4-24.3 97.8-36.9 137.6-17.5 55.2-25.1 75.6-46.3 126-5.7 13.6-25.8 54.8-34.3 70.3-7.3 13.5-24.5 40.5-34.7 54.5-22.3 30.6-41.7 49-69 65.6-22.6 13.7-52.5 17.8-73.6 10.1-20.8-7.7-39.1-24.3-50.9-46-12.9-23.9-19.3-53.2-17.7-81 .6-11.9 4.4-35.2 7.3-45 2.6-8.8 12.2-34.1 16.5-43.5 8.4-18.1 22.8-41.2 40-64.2 7.6-10.1 42.9-45.4 57.3-57.2 16.5-13.5 46.9-35.7 60.3-44 3-1.8 8.9-5.5 13-8.1 26.4-16.8 52.2-30.4 87-46 23.6-10.6 36.6-15.7 74-29.2 6.1-2.2 8-2.2 8 .1" class="icon-part"/><path fill="#003989" d="M163.5 497.2c-15.6 2.1-39.5 8.9-50 14.3-2.7 1.3-5.4 2.5-5.9 2.5-.4 0-2.9 1.4-5.5 3.1-2.5 1.8-5.8 3.5-7.2 3.9-1.5.5-8 4.3-14.5 8.6-9.1 6-15.2 11.2-26 21.9-20.7 20.6-29.4 34.1-37 57.4-4.5 13.7-6.4 25.7-6.4 40.6 0 20.6 2.4 34.4 8.8 51 4.4 11.6 6.3 15.1 13.1 25.5 3.1 4.7 5.8 9 6.1 9.7 1.3 3 19.9 21.7 24 24 2.5 1.5 5.2 3.2 6 3.9 6.2 5.1 23.2 12.9 34.6 16 8.9 2.4 11.7 2.7 27.4 2.8 13.9 0 18.9-.3 24-1.8 3.6-.9 7.9-2.1 9.5-2.5 4.8-1.3 16.9-7.6 22.7-11.9 11.1-8.2 17.8-16.7 17.8-22.7 0-5.2-7.8-5.2-15.4 0-2 1.4-4.3 2.5-4.9 2.5-.7 0-1.7.4-2.2.8-1.9 1.7-16.1 7-22 8.3-9 2-31.4 1.7-40-.5-19-4.9-38.4-18.9-52.7-38.1-14.5-19.3-19.4-36.8-18.5-66.1.4-13.9.8-17.1 3.4-25.9 3.6-11.8 8.7-22.3 14.8-30.4 6.5-8.5 21.9-23.2 30.7-29.3 4.2-2.9 9.6-6.7 12-8.3 7.6-5.3 25.7-13.3 36.8-16.4 16.3-4.4 26-5.3 49.4-4.8 18.8.4 23.8.8 33.6 3 11.1 2.4 30.8 8.6 36 11.2 2.4 1.3 13.3 5.4 15.5 5.9.6.1 2.5 1 4.3 1.9 1.7 1 3.2 1.5 3.2 1.2s2.4.9 5.3 2.8c2.8 1.8 7.9 4.6 11.2 6.1 3.3 1.6 7.4 3.9 9.2 5.2 1.7 1.3 3.4 2.4 3.8 2.4.5 0 26 17 34.8 23.3 8.2 5.8 29 22.5 36.1 29 4.3 4 8.2 7.3 8.7 7.5 1.7.7 45.3 42.3 59.3 56.6 16 16.4 25.6 26.6 32.3 34.1 3.8 4.4 11.5 12.8 16.9 18.6s11.4 12.3 13.3 14.5c1.8 2.1 8.1 9.1 14 15.5 13.4 14.7 21.9 24.2 31.1 34.9 3.9 4.7 7.7 8.9 8.3 9.5.7.5 4.8 5.3 9.1 10.5 4.4 5.2 9.4 11.1 11.2 13 7.3 7.9 17.8 20.7 47.9 58.5 11 13.7 29.6 36.6 32.2 39.5.7.8 3.5 4.2 6.1 7.4 2.6 3.3 7 8.4 9.7 11.5 2.8 3.1 8.2 9.4 12.2 14.1 3.9 4.7 9.4 10.7 12.2 13.5 4.7 4.5 5.2 4.8 6.7 3.3 1.4-1.4 1.2-2.3-2.9-10.4-2.4-4.9-5.3-10.5-6.4-12.4-2.4-4.2-24.5-37.6-26.8-40.5-.8-1.1-3-4.3-4.8-7-1.8-2.8-5-7.5-7.2-10.5-2.1-3-6.1-8.8-8.8-12.9-2.7-4-9-13-14-20-5-6.9-10.8-15.1-12.9-18.1-4.9-7-11.4-16.1-20.8-28.9-4.1-5.6-9.1-12.4-11-15.1-1.9-2.6-6.2-8.1-9.5-12.2-3.3-4-7.6-9.5-9.5-12.1-4.6-6.2-27.5-35.4-34.2-43.5-2.9-3.5-7.5-9.1-10.2-12.5-9.7-12.1-30.6-36.7-42.6-50.1-2.5-2.8-6.3-7.1-8.4-9.6-11.3-13.2-70.6-71.5-77.6-76.3-1.4-.9-7.2-5.8-13-10.7-5.8-5-15.7-12.9-22-17.6s-12.6-9.5-14-10.5c-4.2-3.3-24.2-16.3-30.3-19.9-1.8-1-7-4-11.7-6.7s-9.4-5.5-10.5-6.1c-3.7-2.1-21-10-23.5-10.7-1.4-.4-3.8-1.3-5.5-2-9.8-4.3-12.9-5.5-14-5.5-.8 0-2.6-.6-4.2-1.4-3-1.5-17.5-5.4-30.8-8.2-9.4-2-58.1-2.8-70-1.2" class="icon-part"/><path fill="#003989" d="M133.7 625.7c-.2.5 4.9 5.7 11.5 11.8 24.5 22.5 47 46.4 60.2 63.8 4.8 6.5 11.4 14.9 14.5 18.7 6.5 8 16.9 21.9 22.7 30.5 2.2 3.3 11.8 17.7 21.3 32s19.5 29.3 22.2 33.2c2.7 4 4.9 7.6 4.9 7.9 0 .4 1.1 2.2 2.5 4s2.5 3.6 2.5 4.1 1.9 3.3 4.1 6.3c2.3 3 4.6 6.6 5.2 8s2.2 3.9 3.4 5.6c3 4.1 12.3 19.5 12.3 20.4 0 .4.7 1.4 1.6 2.1s2 2.2 2.6 3.4c2 4.2 20.2 35.1 25.7 43.5 1.9 3 4.3 7.1 5.3 9s4.4 7.5 7.7 12.5c3.3 4.9 6.5 10 7 11.2.5 1.1 1.4 2.4 2 2.7.6.4 1.9 2.7 3 5.2s3.4 6.5 5.1 9c1.6 2.5 3 4.6 3 4.8 0 .7 10 17.6 14.1 23.8 2.4 3.7 7.3 11.3 10.9 16.9s9.2 14.4 12.5 19.6c3.3 5.1 8.5 13.2 11.5 18 6.5 10.3 20.6 29.8 26.5 36.8 2.4 2.7 6.2 7.5 8.6 10.6 13.3 17.2 31.1 36.4 45.9 49.5 15.9 13.9 40.9 30.8 54.5 36.7 12.2 5.2 32.2 12.5 39 14.1 21.2 5 45.3 4.6 63-1.1 13.1-4.1 29-14.7 40.4-26.7 4.4-4.7 5.6-5.5 6.6-4.4.7.7 4.5 5.1 8.5 9.8 12.3 14.4 28 23.9 44.6 26.9 3.2.6 7 1.4 8.4 1.7 5.1 1.3 45.4 1.6 56.4.4 6.1-.6 14-1.3 17.6-1.6 28.9-2.1 69.3-7.5 78.6-10.5 1.8-.5 4-1.9 4.9-2.9 1.7-1.9 1.7-2-2.1-3.7-3.5-1.6-9.6-1.9-62.9-2.4-59.8-.7-70-1.2-88.1-4.7-22.3-4.2-34.4-14.4-41.3-34.8-3.3-9.5-3.3-30.2-.1-45.9 2.4-11.3 10.7-27.2 17.7-33.6 3.6-3.4 20.9-13.7 28.8-17.1 8.4-3.7 45.6-13.2 56-14.3 6.5-.7 16.4-1.5 24.5-2 4.7-.3 13.2-1 19-1.5 5.8-.6 23.6-.9 39.5-.8 22.2.2 29.5 0 31.3-1 3.1-1.8 2.8-2.9-1.5-5.1-8.5-4.2-21.2-7-41.8-9.1-4.4-.5-12.3-1.4-17.5-2-22.9-2.6-57.1-1.8-82.5 2-22.2 3.4-27.5 4.7-44 10.9-14.3 5.4-25.8 12.7-34.8 22.2-16.8 17.6-25 33.3-29.1 55.9-1.7 9.5-5.4 19-11.9 30.5-8.9 15.7-22.8 26.9-39 31.2-9.5 2.6-29.7 2.3-40.7-.6-27.7-7.2-52.9-20.5-76-40-16.9-14.3-44.6-43.3-53.5-56.1-2.1-3-6.5-9-9.7-13.3-12.2-16.1-41.8-59.5-53.8-78.8-7.6-12.2-13-20.6-23.2-35.9-4.9-7.1-8.8-13.3-8.8-13.6 0-.8-15.5-25.2-23.4-36.9-3.4-5-7.5-11.3-9.1-14-5.3-9.1-38.3-59.2-48.4-73.5-3.3-4.7-8.6-12.3-11.7-17-6-8.8-14.2-20-19.1-25.9-1.5-1.8-3.7-4.8-4.9-6.7-3.2-5.2-28.8-37.4-41.5-52.3-16.1-18.8-47.9-49.6-58.5-56.7-2.1-1.4-5.7-4-7.9-5.8-2.2-1.7-6.2-4.3-9-5.8-2.7-1.4-8.1-4.2-11.8-6.2-6.5-3.4-11.1-4.5-12-2.9" class="icon-part"/><path fill="#003989" d="M204.4 805.3c-.4 1.1 6.5 15.9 10.6 22.7.5.8 3.4 5.7 6.4 10.7 3.1 5.1 5.6 9.5 5.6 9.7 0 .3 2.3 4.1 5 8.6 2.8 4.5 5 8.4 5 8.7s.9 1.8 2.1 3.4c1.2 1.7 3.8 6 5.8 9.7 2.1 3.7 6.9 11.9 10.8 18.2 10.6 17.6 17.3 29 17.3 29.5 0 .3 1.2 2.4 2.7 4.8 1.5 2.3 4.5 7.6 6.6 11.7 2.2 4.1 4.7 8.6 5.7 10 .9 1.4 4.1 7 7 12.5 8.3 15.6 11.6 21.7 13.8 25.6 1.1 2.1 3.5 6.6 5.3 10 1.8 3.5 4.3 8 5.5 10 1.3 2 6.6 12.1 11.9 22.5s10 19.6 10.5 20.4 3.8 6.9 7.3 13.5c11.4 21.3 13.4 24.9 15.7 29 1.3 2.2 4.2 7.4 6.5 11.5 25.6 45.9 57 85.5 87.7 111 3.7 3 6.9 6.2 7.3 7.1.7 2.2-1.5 11.7-6.8 28.9-2.4 8-5.4 18.5-6.7 23.5-1.2 4.9-2.6 9.9-3 11-1.8 4.3-12.1 37.8-16 52-6.1 22-13.7 48.6-17.2 59.5-9 28.9-18.9 61.6-20.8 69-1.2 4.7-3.6 13.4-5.5 19.5-1.8 6-3.9 14.7-4.6 19.3-1.1 7.8-1 8.5.8 11 1.1 1.4 3.5 3 5.4 3.5 4.5 1.2 12.9.3 17-1.8 8.2-4.3 19.2-18.1 27.1-34 1.3-2.8 4.9-10 8-16 3-6.1 8.1-16.6 11.2-23.5 3.2-6.9 6.4-13.6 7.1-15s4-8.4 7.3-15.5c3.3-7.2 8.9-19.1 12.5-26.5 3.5-7.5 6.7-14.6 7.1-15.8s2.7-6.1 5-10.9c2.4-4.9 5.8-12.2 7.6-16.3s5.6-12.2 8.5-18 6.8-14.3 8.8-19c5.5-13.2 19.3-41.4 20.9-42.7 1.1-1 3.7-.6 12.4 1.8 13.6 3.7 41.2 9.3 56.4 11.5 14.9 2.1 66.5 3.1 80 1.5 5.2-.6 14.4-1.3 20.3-1.6 6-.3 11.2-.7 11.7-1s6-1 12.2-1.6c9.6-.8 16.9-1.9 28.3-4.3 1.1-.2 4.5-.7 7.5-1.1 21.2-2.8 89.8-18.4 99.8-22.6 12.6-5.4-3.2-5.9-51.8-1.5-9.6.9-18.8 1.8-20.5 2-1.6.3-10.6 1-20 1.5-9.3.6-24.2 1.6-33 2.2-9.2.6-31.2.9-51.5.6-35.3-.4-49.6-1.4-75.4-5.3-10.8-1.6-42.3-9.5-53.9-13.4-15.6-5.4-43.2-19.7-61.7-32-19.3-13-49.4-42.6-66.4-65.5-7.4-9.9-22.3-31.9-25.2-37-.6-1.1-4.6-7.3-8.8-13.7-4.3-6.5-9.4-14.7-11.4-18.2-18.9-33.3-47.1-79.9-50.8-84-.9-1.1-3.1-4.7-4.9-8-5-9.6-7.8-13.9-38.2-59.6-30.6-45.8-39.5-58.4-49.2-69.7-4.9-5.6-10.9-13.6-15.3-20.3-4.1-6.3-22.4-25-24.5-25-.8 0-1.6.6-1.9 1.3m1456.5 163.1c-.2.2-15.2 1.1-33.4 2-70.9 3.5-104.3 6.5-115 10.6-2.6 1-2.7 1.2-1.3 2.7 1.2 1.2 5 1.8 15.5 2.4 18.4 1.1 120.5 2.9 167.3 3 20.6 0 39.9.4 42.8.9s12.5 1 21.5 1.1c8.9.1 17.5.6 19.2 1.1 1.6.5 9.3 1.3 17 1.9s16.7 1.5 20 2c3.3.6 8.3 1.4 11 1.8 2.8.5 8.4 1.4 12.5 2 4.1.7 9.8 1.8 12.5 2.5 2.8.8 8.2 2.1 12 3 21 4.9 46.2 13.5 60.6 20.6 16.8 8.2 25 14 37.1 26.1 10.2 10.2 11 11.3 17.2 24 7.4 15.2 9.8 24.4 9.7 37.9-.1 13.6-2.4 23.1-8.8 35-9.7 18.3-30.6 32.1-71.3 46.7-23.3 8.4-40.1 12.7-66.5 16.8-8.8 1.4-19.8 3.2-24.5 4-14.3 2.5-21.9 3.3-38.5 4.5-8.8.5-21.6 1.5-28.5 2-6.9.6-65.6 1.2-130.5 1.5s-119.8.7-122 1c-2.2.2-33.5.7-69.5 1-65.3.6-116.6 2.3-150.2 5-26.5 2.1-35.1 4-42.7 9.5-7.1 5.2-6.6 11.1 1.3 14.8 10.2 4.8 20 5.1 151.1 4.4 207.9-1.2 323.2-.5 327.8 1.9.9.6 1.7 1.5 1.7 2.2s.7 2.5 1.6 4.2c.9 1.6 2.6 5.5 3.9 8.5 3.2 7.6 7.6 17.1 15.2 33 3.6 7.4 8.2 17.3 10.3 22s5.8 12.8 8.3 18c2.4 5.2 5.7 12.2 7.2 15.5s6.5 13.8 11.1 23.3 8.4 17.4 8.4 17.6c0 .3 1.5 3.7 3.4 7.8 1.8 4 5.6 12.3 8.5 18.5 10.9 23.9 31 64.4 35.3 70.9 9 13.8 17.4 19.5 30 20.2 6.1.4 6.9.2 9.2-2.1 2.9-2.9 3.2-5.9 1.5-15.3-1.2-6.7-10.7-42-14.3-53.4-1.4-4.1-3.3-10.7-4.5-14.5-5.1-18-15.4-52.8-17.6-59.5-2.1-6.7-8.4-27.6-12-40-.7-2.5-3-10.3-4.9-17.4-2-7-6.3-21.5-9.6-32.2-3.2-10.7-6.5-22.1-7.2-25.5-1.6-7.8-.8-8.5 11.5-9.4 25.7-1.9 65-9.8 91.7-18.5 8-2.6 16.8-5.4 19.5-6.3 22.3-7 44.7-19.2 60.6-33 30-26.2 42.7-61.6 35.3-98.1-1.7-8.6-9.1-30.1-13-37.7-3.1-6.1-10.7-17.2-16.3-23.7-9.5-11-25.4-22.3-44.7-32-5.4-2.7-13.5-6.2-17.9-7.9s-10.9-4.2-14.5-5.6c-6.7-2.5-19.2-6.1-36-10.2-12-3-49.8-9-65-10.4-27.6-2.5-37.6-2.8-92.1-3-31.6-.1-57.7.1-58 .3m-940.3 22.5c-.7 1 2.8 4.3 3.7 3.5.8-.8-1.1-4.4-2.3-4.4-.5 0-1.1.4-1.4.9" class="icon-part"/><path fill="#003989" d="M1923 1137.9c-1.4.5-5.6 2.4-9.5 4.3-11.3 5.7-29.2 11.3-48.6 15.4-5.3 1-28.3 4.5-33.7 5-3.1.2-9.3.9-13.7 1.4s-18.1 1.2-30.5 1.5c-12.4.4-24.3.9-26.5 1.2-2.2.2-59.8.6-128 .8-117.1.4-187.5 1-213.5 2-6.3.3-18.9.7-28 1-27.3.8-47.1 1.6-54.5 2.1-3.8.2-18.2.9-32 1.4-25.9 1-40.2 2.3-41.7 3.8-1 1 1.5 3.4 4.1 4 .9.2 8.6.8 17.1 1.3s21.4 1.3 28.5 1.8c16.8 1.1 416.2 1.2 428 .1 5-.5 14.6-.9 21.5-1.1 32.2-.4 74.1-5.1 104-11.6 15.6-3.3 38-11.9 48.7-18.6 7.2-4.5 13.5-11.3 13.1-14.1-.4-2.3-1.4-2.7-4.8-1.7" class="icon-part"/><path fill="#dedae1" d="M1358.1 411.4c-.7.8-.8 1.7-.3 2 .6.3 1.5-.1 2.1-.8.7-.8.8-1.7.3-2-.6-.3-1.5.1-2.1.8m-3 4c-.7.8-.8 1.7-.3 2 .6.3 1.5-.1 2.1-.8.7-.8.8-1.7.3-2-.6-.3-1.5.1-2.1.8m46.5 7.5c-.4.5-.2 1.2.3 1.5.5.4 1.2.2 1.5-.3.4-.5.2-1.2-.3-1.5-.5-.4-1.2-.2-1.5.3m0 4c-.4.5-.2 1.2.3 1.5.5.4 1.2.2 1.5-.3.4-.5.2-1.2-.3-1.5-.5-.4-1.2-.2-1.5.3m-338 3c-.4.5-.2 1.2.3 1.5.5.4 1.2.2 1.5-.3.4-.5.2-1.2-.3-1.5-.5-.4-1.2-.2-1.5.3m256.9 14c-.7 1.2 1.2 2.4 2.5 1.6 1.1-.7.4-2.5-1-2.5-.5 0-1.1.4-1.5.9m-196.8 2.7c-.3.5.3 2 1.2 3.3 1.1 1.4 2.1 1.9 2.5 1.3.3-.5-.2-2-1.2-3.3-1.1-1.2-2.1-1.8-2.5-1.3m187.9.1c-.4.5-1.2.9-1.7.9-.5.1-1.1.3-1.4.4s-.9.3-1.5.4c-.5 0-1 .4-1 .8v1.4c0 .4.7.1 1.5-.6s1.5-.9 1.5-.5.6.3 1.3-.3c.6-.6 1.5-1.1 2-1.1.8-.1 1.1-1.1.5-1.7-.3-.2-.8-.1-1.2.3m-315 5.2c-.4.5-.2 1.2.3 1.5.5.4 1.2.2 1.5-.3.4-.5.2-1.2-.3-1.5-.5-.4-1.2-.2-1.5.3m302 0c-.4.5-.2 1.2.3 1.5.5.4 1.2.2 1.5-.3.4-.5.2-1.2-.3-1.5-.5-.4-1.2-.2-1.5.3m-318.1 6.2c-6.9 3.5-8.7 4.8-8 5.9.3.4 3.9-1 8-3.2s7.3-4.4 7-4.9c-.7-1.1.1-1.4-7 2.2m-11.9 6.8c-.4.5-.2 1.2.3 1.5.5.4 1.2.2 1.5-.3.4-.5.2-1.2-.3-1.5-.5-.4-1.2-.2-1.5.3m118.1.7c-.3.4-.2 1.6.4 2.6.8 1.5 1.4 1.7 2.2.9s.7-1.5-.4-2.6c-.8-.9-1.8-1.3-2.2-.9m-122.1 1.3c-.4.5-.2 1.2.3 1.5.5.4 1.2.2 1.5-.3.4-.5.2-1.2-.3-1.5-.5-.4-1.2-.2-1.5.3m291 6c-.4.5-.2 1.2.3 1.5.5.4 1.2.2 1.5-.3.4-.5.2-1.2-.3-1.5-.5-.4-1.2-.2-1.5.3m-3 2c-.4.5-.2 1.2.3 1.5.5.4 1.2.2 1.5-.3.4-.5.2-1.2-.3-1.5-.5-.4-1.2-.2-1.5.3m330 1c-.7 1.1 3.9 4.3 4.8 3.4.7-.7-2.3-4.3-3.5-4.3-.4 0-1 .4-1.3.9m-339.5 4c-1.4 1.1-1.9 2.1-1.3 2.5.5.3 2-.2 3.3-1.2 2.9-2.4 1.1-3.6-2-1.3m-300.5 0c-.4.5-.2 1.2.3 1.5.5.4 1.2.2 1.5-.3.4-.5.2-1.2-.3-1.5-.5-.4-1.2-.2-1.5.3m378.9.8c-3.4.8-3.7 1.9-1.1 3.6 2.4 1.6 2.6 1.6 4-.5.8-1.2 1.3-2.5 1-3-.5-.8-.7-.9-3.9-.1m186.1 1.2c-.4.5-.2 1.2.3 1.5.5.4 1.2.2 1.5-.3.4-.5.2-1.2-.3-1.5-.5-.4-1.2-.2-1.5.3m-269.5 1.5c-.7.8-.8 1.7-.3 2 .6.3 1.5-.1 2.1-.8.7-.8.8-1.7.3-2-.6-.3-1.5.1-2.1.8m-211.5 2.5c-.4.5-.2 1.2.3 1.5.5.4 1.2.2 1.5-.3.4-.5.2-1.2-.3-1.5-.5-.4-1.2-.2-1.5.3m108 0c-.4.5-.2 1.2.3 1.5.5.4 1.2.2 1.5-.3.4-.5.2-1.2-.3-1.5-.5-.4-1.2-.2-1.5.3m100 0c-.4.5-.2 1.2.3 1.5.5.4 1.2.2 1.5-.3.4-.5.2-1.2-.3-1.5-.5-.4-1.2-.2-1.5.3m-214.5 3.2c-1.7 1-2.9 2.3-2.6 2.8.5 1 6-1.3 7-2.9 1.1-1.8-1.3-1.8-4.4.1m575.5-1.3c-.3.6.1 1.5.8 2.1.8.7 1.7.8 2 .3.3-.6-.1-1.5-.8-2.1-.8-.7-1.7-.8-2-.3m-365 1.1c-.4.5-.2 1.2.3 1.5.5.4 1.2.2 1.5-.3.4-.5.2-1.2-.3-1.5-.5-.4-1.2-.2-1.5.3m-221.4 6.2c-2.9 1.6-5 3.4-4.7 3.9.4.6 2.6-.1 5.3-1.7 5.8-3.3 6.6-3.9 5.5-4.6-.5-.3-3.3.8-6.1 2.4m-860.7.8c-.7 1.2 1.2 2.4 2.5 1.6 1.1-.7.4-2.5-1-2.5-.5 0-1.1.4-1.5.9m1229.4-.5c-.1.3-.2.9-.3 1.3-.1.5-.5 1.3-.9 2-.4.6-.3 1.4.3 1.8.5.3 1.1.4 1.1.1.1-.3.2-.9.3-1.4.1-.4.5-1.2.9-1.9.4-.6.3-1.4-.3-1.8-.5-.3-1.1-.4-1.1-.1m-105.6 6.5c-14.4 7.3-16.8 9-15.4 10.4.7.7 1.6.5 2.8-.5 1-.9 4.3-2.8 7.3-4.2 6.5-3.1 10.6-6.1 9.4-6.9-.5-.3-2.3.2-4.1 1.2m-365.7 1c-1 1.1-1.3 2.2-.8 2.5s1.7-.3 2.6-1.3c1-1.1 1.3-2.2.8-2.5s-1.7.3-2.6 1.3m85.5 2.5c-.7.8-.8 1.7-.3 2 .6.3 1.5-.1 2.1-.8.7-.8.8-1.7.3-2-.6-.3-1.5.1-2.1.8m213 5c-2.4 2.4-3.9 4.6-3.4 4.9.6.4 2.9-1.3 5.2-3.7 2.4-2.4 3.9-4.6 3.4-4.9-.6-.4-2.9 1.3-5.2 3.7m168.5-3.5c-.4.5-.2 1.2.3 1.5.5.4 1.2.2 1.5-.3.4-.5.2-1.2-.3-1.5-.5-.4-1.2-.2-1.5.3m-477 4c-.4.5-.2 1.2.3 1.5.5.4 1.2.2 1.5-.3.4-.5.2-1.2-.3-1.5-.5-.4-1.2-.2-1.5.3m652-.1c-.3.5.3 1.7 1.3 2.6 1.1 1 2.2 1.3 2.5.8s-.3-1.7-1.3-2.6c-1.1-1-2.2-1.3-2.5-.8m-657.5 4.6c-1.3 1.3-1.8 2.6-1.3 3 .5.3 1.9-.5 3.1-1.8 1.3-1.3 1.8-2.6 1.3-3-.5-.3-1.9.5-3.1 1.8m480.5.5c-.4.5-.2 1.2.3 1.5.5.4 1.2.2 1.5-.3.4-.5.2-1.2-.3-1.5-.5-.4-1.2-.2-1.5.3m182.2-.3c-.4.5.6 2.5 2.1 4.3 1.6 1.9 3.1 3 3.4 2.4.3-.5-.6-2.5-2.2-4.3-1.5-1.9-3-2.9-3.3-2.4m-668.2 4.3c-.4.5-.2 1.2.3 1.5.5.4 1.2.2 1.5-.3.4-.5.2-1.2-.3-1.5-.5-.4-1.2-.2-1.5.3m484 2c-.4.5-.2 1.2.3 1.5.5.4 1.2.2 1.5-.3.4-.5.2-1.2-.3-1.5-.5-.4-1.2-.2-1.5.3m-1057 2c-.4.5-.2 1.2.3 1.5.5.4 1.2.2 1.5-.3.4-.5.2-1.2-.3-1.5-.5-.4-1.2-.2-1.5.3m995.9.1c-.3.5-.3 1 .1 1s-.1.9-1 1.9c-1 1.1-1.3 2.2-.8 2.5s1.5-.1 2.2-.9.9-1.5.5-1.5-.2-.6.4-1.4c.8-.9.8-1.6.2-2-.5-.4-1.2-.2-1.6.4m-428.9.9c-.4.5-.2 1.2.3 1.5.5.4 1.2.2 1.5-.3.4-.5.2-1.2-.3-1.5-.5-.4-1.2-.2-1.5.3m-3 3c-.4.5-.2 1.2.3 1.5.5.4 1.2.2 1.5-.3.4-.5.2-1.2-.3-1.5-.5-.4-1.2-.2-1.5.3m354 0c-.4.5-.2 1.2.3 1.5.5.4 1.2.2 1.5-.3.4-.5.2-1.2-.3-1.5-.5-.4-1.2-.2-1.5.3m-4 4c-1 1.1-1.3 2.2-.8 2.5s1.7-.3 2.6-1.3c1-1.1 1.3-2.2.8-2.5s-1.7.3-2.6 1.3m-40.5.5c-.7.8-.8 1.7-.3 2 .6.3 1.5-.1 2.1-.8.7-.8.8-1.7.3-2-.6-.3-1.5.1-2.1.8m118.9.2c-.9 1-1 1.8-.3 2.5.8.8 1.4.5 2.2-.9 1.3-2.5-.2-3.8-1.9-1.6m-436.4 2.3c-1.5 1.6-2.3 3.1-1.8 3.5.5.3 2.1-.8 3.6-2.3 1.5-1.6 2.3-3.1 1.8-3.5-.5-.3-2.1.8-3.6 2.3m760-2c-.4.5-.2 1.2.3 1.5.5.4 1.2.2 1.5-.3.4-.5.2-1.2-.3-1.5-.5-.4-1.2-.2-1.5.3m-407 3c-1 1.1-1.3 2.2-.8 2.5s1.7-.3 2.6-1.3c1-1.1 1.3-2.2.8-2.5s-1.7.3-2.6 1.3m-38 0c-.4.5-.2 1.2.3 1.5.5.4 1.2.2 1.5-.3.4-.5.2-1.2-.3-1.5-.5-.4-1.2-.2-1.5.3m-237 2c-.4.5-.2 1.2.3 1.5.5.4 1.2.2 1.5-.3.4-.5.2-1.2-.3-1.5-.5-.4-1.2-.2-1.5.3M1303 539c-.6 1.1-.8 2-.4 2 .3 0 .1.7-.6 1.5s-1 1.5-.6 1.5 0 1-.9 2.3c-.8 1.2-1.6 3.2-1.8 4.2-.5 2.3-2.2 7-3.9 10.3-.9 1.6-.9 2.5 0 3.4.8.8 1.5 0 2.7-2.8.9-2.2 1.8-4.8 1.9-5.9s.8-3 1.4-4.2c.7-1.2 1.4-3.2 1.6-4.5.3-1.3.5-2.4.7-2.6.1-.1.2-.5.3-1 .1-.4.7-1.7 1.4-2.9.7-1.3.8-2.4.3-2.8-.6-.3-1.5.4-2.1 1.5m329.7.7c-.4.6 0 1.8.7 2.8.8 1.1 1.6 1.4 1.9.8.4-.6 0-1.8-.7-2.8-.8-1.1-1.6-1.4-1.9-.8m-452.7 2.9c-.9 1-1 1.8-.3 2.5.8.8 1.4.5 2.2-.9 1.3-2.5-.2-3.8-1.9-1.6m-835.4.3c-.4.5-.2 1.2.3 1.5.5.4 1.2.2 1.5-.3.4-.5.2-1.2-.3-1.5-.5-.4-1.2-.2-1.5.3m739.9 3.1c-.4.6-.3 1.6.3 2.2s1.2.6 1.7-.2c.4-.6.3-1.6-.3-2.2s-1.2-.6-1.7.2m551.1-.1c-.4.5-.2 1.2.3 1.5.5.4 1.2.2 1.5-.3.4-.5.2-1.2-.3-1.5-.5-.4-1.2-.2-1.5.3M258.5 549c-.4.6-.4 1.4-.1 1.9.7 1.1 4.6.9 4.7-.4s-3.9-2.6-4.6-1.5m596.1-.1c-.4.5-.2 1.2.3 1.5.5.4 1.2.2 1.5-.3.4-.5.2-1.2-.3-1.5-.5-.4-1.2-.2-1.5.3m323 0c-.4.5-.2 1.2.3 1.5.5.4 1.2.2 1.5-.3.4-.5.2-1.2-.3-1.5-.5-.4-1.2-.2-1.5.3m-335 13c-3.2 3.2-5.4 6.1-4.9 6.4s3.6-2 6.7-5.2c3.2-3.2 5.4-6.1 4.9-6.4s-3.6 2-6.7 5.2m83-5c-.4.5-.2 1.2.3 1.5.5.4 1.2.2 1.5-.3.4-.5.2-1.2-.3-1.5-.5-.4-1.2-.2-1.5.3m273.5 6.1c-2.6 2.3-3.9 4-3.2 4.4.6.4 2.9-1.1 5.2-3.2 5.5-5.1 3.7-6.1-2-1.2m-19.5-.2c-.3.6.1 1.5.8 2.1.8.7 1.7.8 2 .3.3-.6-.1-1.5-.8-2.1-.8-.7-1.7-.8-2-.3m114 4.1c-.4.5-.2 1.2.3 1.5.5.4 1.2.2 1.5-.3.4-.5.2-1.2-.3-1.5-.5-.4-1.2-.2-1.5.3m-459 4c-1 1.1-1.3 2.2-.8 2.5s1.7-.3 2.6-1.3c1-1.1 1.3-2.2.8-2.5s-1.7.3-2.6 1.3m-746 3c-1 1.1-1.3 2.2-.8 2.5s1.7-.3 2.6-1.3c1-1.1 1.3-2.2.8-2.5s-1.7.3-2.6 1.3m742 1c-.4.5-.2 1.2.3 1.5.5.4 1.2.2 1.5-.3.4-.5.2-1.2-.3-1.5-.5-.4-1.2-.2-1.5.3m-2.5 3.5c-.7.8-.8 1.7-.3 2 .6.3 1.5-.1 2.1-.8.7-.8.8-1.7.3-2-.6-.3-1.5.1-2.1.8m72.5 3.5c-.4.5-.2 1.2.3 1.5.5.4 1.2.2 1.5-.3.4-.5.2-1.2-.3-1.5-.5-.4-1.2-.2-1.5.3m-77 2c-1 1.1-1.3 2.2-.8 2.5s1.7-.3 2.6-1.3c1-1.1 1.3-2.2.8-2.5s-1.7.3-2.6 1.3m74 1c-.4.5-.2 1.2.3 1.5.5.4 1.2.2 1.5-.3.4-.5.2-1.2-.3-1.5-.5-.4-1.2-.2-1.5.3m-82 9c-1 1.1-1.3 2.2-.8 2.5s1.7-.3 2.6-1.3c1-1.1 1.3-2.2.8-2.5s-1.7.3-2.6 1.3m773-1c-.4.5-.2 1.2.3 1.5.5.4 1.2.2 1.5-.3.4-.5.2-1.2-.3-1.5-.5-.4-1.2-.2-1.5.3m-777 6c-.4.5-.2 1.2.3 1.5.5.4 1.2.2 1.5-.3.4-.5.2-1.2-.3-1.5-.5-.4-1.2-.2-1.5.3m-392 1c-.4.5-.2 1.2.3 1.5.5.4 1.2.2 1.5-.3.4-.5.2-1.2-.3-1.5-.5-.4-1.2-.2-1.5.3m-404 3c-.4.5-.2 1.2.3 1.5.5.4 1.2.2 1.5-.3.4-.5.2-1.2-.3-1.5-.5-.4-1.2-.2-1.5.3m1329 2c-.4.5-.2 1.2.3 1.5.5.4 1.2.2 1.5-.3.4-.5.2-1.2-.3-1.5-.5-.4-1.2-.2-1.5.3m-539.5 3.5c-.7.8-.8 1.7-.3 2 .6.3 1.5-.1 2.1-.8.7-.8.8-1.7.3-2-.6-.3-1.5.1-2.1.8m-373.5 3.5c-.4.5-.2 1.2.3 1.5.5.4 1.2.2 1.5-.3.4-.5.2-1.2-.3-1.5-.5-.4-1.2-.2-1.5.3m371 0c-.4.5-.2 1.2.3 1.5.5.4 1.2.2 1.5-.3.4-.5.2-1.2-.3-1.5-.5-.4-1.2-.2-1.5.3m-4 6c-.4.5-.2 1.2.3 1.5.5.4 1.2.2 1.5-.3.4-.5.2-1.2-.3-1.5-.5-.4-1.2-.2-1.5.3m541.9.1c-.4.6-.4 1.4-.1 1.7s.1 1.2-.5 1.9q-.9 1.2 0 1.8c.5.4 1.2.2 1.6-.4.3-.5.3-1-.1-1-.3 0-.1-.7.6-1.5.9-1.1 1-1.9.3-2.6-.8-.8-1.3-.7-1.8.1M161.6 633.9c-.4.5-.2 1.2.3 1.5.5.4 1.2.2 1.5-.3.4-.5.2-1.2-.3-1.5-.5-.4-1.2-.2-1.5.3m1110 1c-.4.5-.2 1.2.3 1.5.5.4 1.2.2 1.5-.3.4-.5.2-1.2-.3-1.5-.5-.4-1.2-.2-1.5.3m-1096 8.9c-.3.6.1 1.5.8 2.1.8.7 1.7.8 2 .3.3-.6-.1-1.5-.8-2.1-.8-.7-1.7-.8-2-.3m230 1c-.3.6.1 1.5.8 2.1.8.7 1.7.8 2 .3.3-.6-.1-1.5-.8-2.1-.8-.7-1.7-.8-2-.3m60 .1c-.4.5-.2 1.2.3 1.5.5.4 1.2.2 1.5-.3.4-.5.2-1.2-.3-1.5-.5-.4-1.2-.2-1.5.3m667 1c-.4.5-.2 1.2.3 1.5.5.4 1.2.2 1.5-.3.4-.5.2-1.2-.3-1.5-.5-.4-1.2-.2-1.5.3m134.9.1c-.4.6-.3 1.6.3 2.2s1.2.6 1.7-.2c.4-.6.3-1.6-.3-2.2s-1.2-.6-1.7.2m-136 6.2c-.7 2.1 0 9.8 1 9.8 1.2 0 1.7-9.8.5-10.5-.6-.3-1.2 0-1.5.7m-357 7.8c-.8 1.6-1.3 3-1 3s-.2 1.1-1 2.4c-1 1.5-1.2 2.6-.6 3 .9.6 2.8-1.7 3-3.7 0-.4.7-2 1.6-3.7s1.1-3.1.5-3.5c-.5-.3-1.6.8-2.5 2.5m67.1-1.1c-.4.5-.2 1.2.3 1.5.5.4 1.2.2 1.5-.3.4-.5.2-1.2-.3-1.5-.5-.4-1.2-.2-1.5.3m-361 1c-.4.5-.2 1.2.3 1.5.5.4 1.2.2 1.5-.3.4-.5.2-1.2-.3-1.5-.5-.4-1.2-.2-1.5.3m782.7 1.4c-1.1 1.6-1 5.3.2 4.8.6-.1.9-.8.7-1.3-.1-.6.2-1.6.8-2.3.7-.8.7-1.6.2-1.9-.6-.3-1.4 0-1.9.7m-493.4 10.1c-.1.3-.2.9-.3 1.3-.1.5-.5 1.3-.9 2-1.8 2.9-3.5 9.3-2.6 9.8.9.6 3.6-4.7 4.2-8.2.1-1 .6-2.3 1-3 .4-.6.3-1.4-.3-1.8-.5-.3-1.1-.4-1.1-.1m552.7 11.5c-.4.5-.2 1.2.3 1.5.5.4 1.2.2 1.5-.3.4-.5.2-1.2-.3-1.5-.5-.4-1.2-.2-1.5.3m-1104 1c-.4.5-.2 1.2.3 1.5.5.4 1.2.2 1.5-.3.4-.5.2-1.2-.3-1.5-.5-.4-1.2-.2-1.5.3m1102 6c-.4.5-.2 1.2.3 1.5.5.4 1.2.2 1.5-.3.4-.5.2-1.2-.3-1.5-.5-.4-1.2-.2-1.5.3m261.8 4.3c-1.2 1.7-1.2 5.8.1 5.5.6-.1 1-.7 1-1.2 0-.6.4-1.6.9-2.3 1.1-1.8-.8-3.7-2-2m-1352.8 1.7c-.4.5-.2 1.2.3 1.5.5.4 1.2.2 1.5-.3.4-.5.2-1.2-.3-1.5-.5-.4-1.2-.2-1.5.3m899 0c-.4.5-.2 1.2.3 1.5.5.4 1.2.2 1.5-.3.4-.5.2-1.2-.3-1.5-.5-.4-1.2-.2-1.5.3m190 1c-.4.5-.2 1.2.3 1.5.5.4 1.2.2 1.5-.3.4-.5.2-1.2-.3-1.5-.5-.4-1.2-.2-1.5.3m-498 3c-.4.5-.2 1.2.3 1.5.5.4 1.2.2 1.5-.3.4-.5.2-1.2-.3-1.5-.5-.4-1.2-.2-1.5.3m497 1c-.4.5-.2 1.2.3 1.5.5.4 1.2.2 1.5-.3.4-.5.2-1.2-.3-1.5-.5-.4-1.2-.2-1.5.3m-1083 .9c-.3.6.1 1.5.8 2.1.8.7 1.7.8 2 .3.3-.6-.1-1.5-.8-2.1-.8-.7-1.7-.8-2-.3m-30 3.1c-.4.5-.2 1.2.3 1.5.5.4 1.2.2 1.5-.3.4-.5.2-1.2-.3-1.5-.5-.4-1.2-.2-1.5.3m1112 1c-.4.5-.2 1.2.3 1.5.5.4 1.2.2 1.5-.3.4-.5.2-1.2-.3-1.5-.5-.4-1.2-.2-1.5.3m-498.7 1.5c-.1.3-.2.9-.3 1.3-.1.5-.8 1.9-1.6 3.3-.7 1.4-1.3 2.7-1.3 3s-.4 1.6-.9 2.9c-1.2 3.2.6 5.1 2.1 2.2.7-1.2 1.1-2.7.9-3.4-.1-.6.3-2.2 1-3.5.7-1.2 1-2.2.6-2.2-.3 0-.1-.6.5-1.4.8-1 .9-1.6.1-2.1-.5-.3-1.1-.4-1.1-.1m-292.3 3.5c-.4.5-.2 1.2.3 1.5.5.4 1.2.2 1.5-.3.4-.5.2-1.2-.3-1.5-.5-.4-1.2-.2-1.5.3M67.5 712c-.4.6-.3 1.6.3 2.2s1.2.6 1.7-.2c.4-.6.3-1.6-.3-2.2s-1.2-.6-1.7.2m2.6 3.3c-.8 1.1.5 3 5.7 8.7 3.8 4.1 7.1 7 7.4 6.4.4-.5-2-3.8-5.2-7.4-3.3-3.5-5.7-6.7-5.4-7.1.8-1.4-1.4-1.9-2.5-.6m459.5-.5c-.3.6.1 1.5.8 2.1.8.7 1.7.8 2 .3.3-.6-.1-1.5-.8-2.1-.8-.7-1.7-.8-2-.3m782.9 4.2c-.4.6-.3 1.6.3 2.2s1.2.6 1.7-.2c.4-.6.3-1.6-.3-2.2s-1.2-.6-1.7.2m-185.9.9c-.4.5-.2 1.2.3 1.5.5.4 1.2.2 1.5-.3.4-.5.2-1.2-.3-1.5-.5-.4-1.2-.2-1.5.3m-590 4c-.4.5-.2 1.2.3 1.5.5.4 1.2.2 1.5-.3.4-.5.2-1.2-.3-1.5-.5-.4-1.2-.2-1.5.3m1036 0c-.4.5-.2 1.2.3 1.5.5.4 1.2.2 1.5-.3.4-.5.2-1.2-.3-1.5-.5-.4-1.2-.2-1.5.3m-446 3c-.4.5-.2 1.2.3 1.5.5.4 1.2.2 1.5-.3.4-.5.2-1.2-.3-1.5-.5-.4-1.2-.2-1.5.3m0 5c-.4.5-.2 1.2.3 1.5.5.4 1.2.2 1.5-.3.4-.5.2-1.2-.3-1.5-.5-.4-1.2-.2-1.5.3m182 1c-.4.5-.2 1.2.3 1.5.5.4 1.2.2 1.5-.3.4-.5.2-1.2-.3-1.5-.5-.4-1.2-.2-1.5.3m258.4 4c-.6 1.2-.6 2.2-.1 2.6.6.3 1.5-.3 2.1-1.4.6-1.2.6-2.2.1-2.6-.6-.3-1.5.3-2.1 1.4m-326.4 6c-.4.5-.2 1.2.3 1.5.5.4 1.2.2 1.5-.3.4-.5.2-1.2-.3-1.5-.5-.4-1.2-.2-1.5.3m-489 1c-.4.5-.2 1.2.3 1.5.5.4 1.2.2 1.5-.3.4-.5.2-1.2-.3-1.5-.5-.4-1.2-.2-1.5.3m880 2c-.4.5-.2 1.2.3 1.5.5.4 1.2.2 1.5-.3.4-.5.2-1.2-.3-1.5-.5-.4-1.2-.2-1.5.3m-881 2c-.4.5-.2 1.2.3 1.5.5.4 1.2.2 1.5-.3.4-.5.2-1.2-.3-1.5-.5-.4-1.2-.2-1.5.3m-192 3c-.4.5-.2 1.2.3 1.5.5.4 1.2.2 1.5-.3.4-.5.2-1.2-.3-1.5-.5-.4-1.2-.2-1.5.3m680 0c-.4.5-.2 1.2.3 1.5.5.4 1.2.2 1.5-.3.4-.5.2-1.2-.3-1.5-.5-.4-1.2-.2-1.5.3m-1189 .9c-.3.6.1 1.5.8 2.1.8.7 1.7.8 2 .3.3-.6-.1-1.5-.8-2.1-.8-.7-1.7-.8-2-.3m102.4.7c-1 1.2-.9 1.6.5 2.1 2.3.9 4-1 2.2-2.5-1.1-.9-1.7-.8-2.7.4m5.6-.6c-.4.5-.2 1.2.3 1.5.5.4 1.2.2 1.5-.3.4-.5.2-1.2-.3-1.5-.5-.4-1.2-.2-1.5.3m1401.5.5c-.7.8-.8 1.7-.3 2 .6.3 1.5-.1 2.1-.8.7-.8.8-1.7.3-2-.6-.3-1.5.1-2.1.8m-1429.5.5c-.4.5-.2 1.2.3 1.5.5.4 1.2.2 1.5-.3.4-.5.2-1.2-.3-1.5-.5-.4-1.2-.2-1.5.3m6 0c-.4.5-.2 1.2.3 1.5.5.4 1.2.2 1.5-.3.4-.5.2-1.2-.3-1.5-.5-.4-1.2-.2-1.5.3m3.9.1c-.3.5-.2 1 .2 1.2 1.3.7 3.3.3 3.6-.6.3-1.2-3.1-1.7-3.8-.6m8.1-.1c-.4.5-.2 1.2.3 1.5.5.4 1.2.2 1.5-.3.4-.5.2-1.2-.3-1.5-.5-.4-1.2-.2-1.5.3m1090 2c-.4.5-.2 1.2.3 1.5.5.4 1.2.2 1.5-.3.4-.5.2-1.2-.3-1.5-.5-.4-1.2-.2-1.5.3m-959 2.9c-.3.6.1 1.5.8 2.1.8.7 1.7.8 2 .3.3-.6-.1-1.5-.8-2.1-.8-.7-1.7-.8-2-.3m1266 19.1c-.4.5-.2 1.2.3 1.5.5.4 1.2.2 1.5-.3.4-.5.2-1.2-.3-1.5-.5-.4-1.2-.2-1.5.3m-250 12c-.4.5-.2 1.2.3 1.5.5.4 1.2.2 1.5-.3.4-.5.2-1.2-.3-1.5-.5-.4-1.2-.2-1.5.3m-992 2c-.4.5-.2 1.2.3 1.5.5.4 1.2.2 1.5-.3.4-.5.2-1.2-.3-1.5-.5-.4-1.2-.2-1.5.3m988 13c-.4.5-.2 1.2.3 1.5.5.4 1.2.2 1.5-.3.4-.5.2-1.2-.3-1.5-.5-.4-1.2-.2-1.5.3m233 1c-.4.5-.2 1.2.3 1.5.5.4 1.2.2 1.5-.3.4-.5.2-1.2-.3-1.5-.5-.4-1.2-.2-1.5.3m-1301 10c-.3.5.1 1.4.8 2 1.6 1.3 3.2-.2 2.1-1.9-.8-1.2-2.2-1.3-2.9-.1m1292.5 1.5c-.7.8-.8 1.7-.3 2 .6.3 1.5-.1 2.1-.8.7-.8.8-1.7.3-2-.6-.3-1.5.1-2.1.8m-1194.5.5c-.4.5-.2 1.2.3 1.5.5.4 1.2.2 1.5-.3.4-.5.2-1.2-.3-1.5-.5-.4-1.2-.2-1.5.3m1190.5 3.5c-.7.8-.8 1.7-.3 2 .6.3 1.5-.1 2.1-.8.7-.8.8-1.7.3-2-.6-.3-1.5.1-2.1.8m79.5-.5c-.4.5-.2 1.2.3 1.5.5.4 1.2.2 1.5-.3.4-.5.2-1.2-.3-1.5-.5-.4-1.2-.2-1.5.3m-1264 5c-.4.5-.2 1.2.3 1.5.5.4 1.2.2 1.5-.3.4-.5.2-1.2-.3-1.5-.5-.4-1.2-.2-1.5.3m1176 5c-.4.5-.2 1.2.3 1.5.5.4 1.2.2 1.5-.3.4-.5.2-1.2-.3-1.5-.5-.4-1.2-.2-1.5.3m79 2c-.4.5-.2 1.2.3 1.5.5.4 1.2.2 1.5-.3.4-.5.2-1.2-.3-1.5-.5-.4-1.2-.2-1.5.3m-86 5c-1.5 1.6-2.3 3.1-1.8 3.5.5.3 2.1-.8 3.6-2.3 1.5-1.6 2.3-3.1 1.8-3.5-.5-.3-2.1.8-3.6 2.3m-677 0c-.4.5-.2 1.2.3 1.5.5.4 1.2.2 1.5-.3.4-.5.2-1.2-.3-1.5-.5-.4-1.2-.2-1.5.3m234 2c-.4.5-.2 1.2.3 1.5.5.4 1.2.2 1.5-.3.4-.5.2-1.2-.3-1.5-.5-.4-1.2-.2-1.5.3m-232 .9c-.3.6.1 1.5.8 2.1.8.7 1.7.8 2 .3.3-.6-.1-1.5-.8-2.1-.8-.7-1.7-.8-2-.3m394 5.1c-.4.5-.2 1.2.3 1.5.5.4 1.2.2 1.5-.3.4-.5.2-1.2-.3-1.5-.5-.4-1.2-.2-1.5.3m-390 .9c-.3.6.1 1.5.8 2.1.8.7 1.7.8 2 .3.3-.6-.1-1.5-.8-2.1-.8-.7-1.7-.8-2-.3m3 4c-.3.6.1 1.5.8 2.1.8.7 1.7.8 2 .3.3-.6-.1-1.5-.8-2.1-.8-.7-1.7-.8-2-.3m385 1.1c-.4.5-.2 1.2.3 1.5.5.4 1.2.2 1.5-.3.4-.5.2-1.2-.3-1.5-.5-.4-1.2-.2-1.5.3m267 1c-.4.5-.2 1.2.3 1.5.5.4 1.2.2 1.5-.3.4-.5.2-1.2-.3-1.5-.5-.4-1.2-.2-1.5.3m-649 1.9c-.3.5.8 2.1 2.3 3.6 1.6 1.5 3.1 2.3 3.5 1.8.3-.5-.8-2.1-2.3-3.6-1.6-1.5-3.1-2.3-3.5-1.8m644 2.1c-.4.5-.2 1.2.3 1.5.5.4 1.2.2 1.5-.3.4-.5.2-1.2-.3-1.5-.5-.4-1.2-.2-1.5.3m-4.5 3.5c-.7.8-.8 1.7-.3 2 .6.3 1.5-.1 2.1-.8.7-.8.8-1.7.3-2-.6-.3-1.5.1-2.1.8m-632.5 1.5c-.4.5-.2 1.2.3 1.5.5.4 1.2.2 1.5-.3.4-.5.2-1.2-.3-1.5-.5-.4-1.2-.2-1.5.3m716 3c-.4.5-.2 1.2.3 1.5.5.4 1.2.2 1.5-.3.4-.5.2-1.2-.3-1.5-.5-.4-1.2-.2-1.5.3m-766 4.9c-.3.5.8 2.1 2.3 3.6 1.6 1.5 3.1 2.3 3.5 1.8.3-.5-.8-2.1-2.3-3.6-1.6-1.5-3.1-2.3-3.5-1.8m758.5 2.6c-1.3 1.3-1.8 2.6-1.3 3 .5.3 1.9-.5 3.1-1.8 1.3-1.3 1.8-2.6 1.3-3-.5-.3-1.9.5-3.1 1.8m-99.7 5.9c-3.6 3.1-1.8 4.2 2 1.2 1.6-1.3 2.4-2.5 1.8-2.9-.6-.3-2.3.4-3.8 1.7m-650.8-.4c-.4.5-.2 1.2.3 1.5.5.4 1.2.2 1.5-.3.4-.5.2-1.2-.3-1.5-.5-.4-1.2-.2-1.5.3m3 3c-.4.5-.2 1.2.3 1.5.5.4 1.2.2 1.5-.3.4-.5.2-1.2-.3-1.5-.5-.4-1.2-.2-1.5.3m737 1c-1 1.1-1.3 2.2-.8 2.5s1.7-.3 2.6-1.3c1-1.1 1.3-2.2.8-2.5s-1.7.3-2.6 1.3m-1259 6c-.4.5-.2 1.2.3 1.5.5.4 1.2.2 1.5-.3.4-.5.2-1.2-.3-1.5-.5-.4-1.2-.2-1.5.3m90 0c-.4.5-.2 1.2.3 1.5.5.4 1.2.2 1.5-.3.4-.5.2-1.2-.3-1.5-.5-.4-1.2-.2-1.5.3m571 0c-.4.6-1.3.8-2 .5-1.7-.6-3.1 1.2-1.6 2.1.5.3 1.6.3 2.3-.2.6-.4 1.7-.8 2.2-.8 1.4 0 1.9-1.9.7-2.3-.6-.2-1.3.1-1.6.7m492 2c-.4.5-.2 1.2.3 1.5.5.4 1.2.2 1.5-.3.4-.5.2-1.2-.3-1.5-.5-.4-1.2-.2-1.5.3m-1151 .9c-.3.6.1 1.5.8 2.1.8.7 1.7.8 2 .3.3-.6-.1-1.5-.8-2.1-.8-.7-1.7-.8-2-.3m1145 3.1c-.4.5-.2 1.2.3 1.5.5.4 1.2.2 1.5-.3.4-.5.2-1.2-.3-1.5-.5-.4-1.2-.2-1.5.3m-465 7c-1.4 1.5-2.3 3-2 3.4 1 .9 4.2-1 5.4-3.3 1.6-3.1-.5-3.2-3.4-.1m-322-1c-.4.5-.2 1.2.3 1.5.5.4 1.2.2 1.5-.3.4-.5.2-1.2-.3-1.5-.5-.4-1.2-.2-1.5.3m777 0c-.4.5-.2 1.2.3 1.5.5.4 1.2.2 1.5-.3.4-.5.2-1.2-.3-1.5-.5-.4-1.2-.2-1.5.3m100 1c-.4.5-.2 1.2.3 1.5.5.4 1.2.2 1.5-.3.4-.5.2-1.2-.3-1.5-.5-.4-1.2-.2-1.5.3m-681 3c-.4.5-.2 1.2.3 1.5.5.4 1.2.2 1.5-.3.4-.5.2-1.2-.3-1.5-.5-.4-1.2-.2-1.5.3m118.1 2.2c-4.5 2.4-4.1 4.3.6 2.7 4.1-1.4 5.4-2.5 4.2-3.7-.6-.6-2.5-.2-4.8 1m313.7-.7c-.4 1-.2 2.2.4 2.8.8.8 1.3.7 1.8-.6.4-1 .2-2.2-.4-2.8-.8-.8-1.3-.7-1.8.6m-616.8 8.5c-.4.5-.2 1.2.3 1.5.5.4 1.2.2 1.5-.3.4-.5.2-1.2-.3-1.5-.5-.4-1.2-.2-1.5.3m740 0c-.4.5-.2 1.2.3 1.5.5.4 1.2.2 1.5-.3.4-.5.2-1.2-.3-1.5-.5-.4-1.2-.2-1.5.3m104 2.6c-1.6 1.3-2.4 2.5-1.8 2.9.6.3 2.3-.4 3.8-1.7 3.6-3.1 1.8-4.2-2-1.2m-296 3.4c-.4.5-.2 1.2.3 1.5.5.4 1.2.2 1.5-.3.4-.5.2-1.2-.3-1.5-.5-.4-1.2-.2-1.5.3m290.5.5c-.7.8-.8 1.7-.3 2 .6.3 1.5-.1 2.1-.8.7-.8.8-1.7.3-2-.6-.3-1.5.1-2.1.8m-11.4 7.2c-2.1 1.4-3.5 2.9-3.2 3.4s2.4-.2 4.5-1.6c2.2-1.5 3.7-3 3.4-3.5-.7-1.2-.4-1.3-4.7 1.7m-281.1 1.3c-.4.5-.2 1.2.3 1.5.5.4 1.2.2 1.5-.3.4-.5.2-1.2-.3-1.5-.5-.4-1.2-.2-1.5.3m274 3c-.4.5-.2 1.2.3 1.5.5.4 1.2.2 1.5-.3.4-.5.2-1.2-.3-1.5-.5-.4-1.2-.2-1.5.3m-1157 7c-.4.5-.2 1.2.3 1.5.5.4 1.2.2 1.5-.3.4-.5.2-1.2-.3-1.5-.5-.4-1.2-.2-1.5.3m837 0c-.4.5-.2 1.2.3 1.5.5.4 1.2.2 1.5-.3.4-.5.2-1.2-.3-1.5-.5-.4-1.2-.2-1.5.3m41 9c-.4.5-.2 1.2.3 1.5.5.4 1.2.2 1.5-.3.4-.5.2-1.2-.3-1.5-.5-.4-1.2-.2-1.5.3m65.9 2c-.9 1.5.4 3.3 2 2.7.7-.2 1.7 0 2.3.6 1.2 1.2 3.5.1 2.6-1.3-.3-.6-1.1-.8-1.7-.6-.7.2-1.9-.2-2.9-1-1.1-1-1.8-1.1-2.3-.4m-935.9 1c-.4.5-.2 1.2.3 1.5.5.4 1.2.2 1.5-.3.4-.5.2-1.2-.3-1.5-.5-.4-1.2-.2-1.5.3m88 0c-.4.5-.2 1.2.3 1.5.5.4 1.2.2 1.5-.3.4-.5.2-1.2-.3-1.5-.5-.4-1.2-.2-1.5.3m-85.9 2.8c-.4.6 0 1.8.7 2.8.8 1.1 1.6 1.4 1.9.8.4-.6 0-1.8-.7-2.8-.8-1.1-1.6-1.4-1.9-.8m823.9 2.2c-.4.5-.2 1.2.3 1.5.5.4 1.2.2 1.5-.3.4-.5.2-1.2-.3-1.5-.5-.4-1.2-.2-1.5.3m-436 4c-.4.5-.2 1.2.3 1.5.5.4 1.2.2 1.5-.3.4-.5.2-1.2-.3-1.5-.5-.4-1.2-.2-1.5.3m702.4 1.2c-1.9 1.2-3.6 2.1-3.7 2-.2 0-.3.1-.3.4v1.1c0 .4.7.1 1.5-.6s1.5-1 1.5-.6 1.4-.1 3-.9c1.7-.9 2.8-2 2.5-2.5-.8-1.3-.4-1.3-4.5 1.1m-264.4-.2c-.4.5-.2 1.2.3 1.5.5.4 1.2.2 1.5-.3.4-.5.2-1.2-.3-1.5-.5-.4-1.2-.2-1.5.3m-732 2c-.4.5-.2 1.2.3 1.5.5.4 1.2.2 1.5-.3.4-.5.2-1.2-.3-1.5-.5-.4-1.2-.2-1.5.3m296 0c-.4.5-.2 1.2.3 1.5.5.4 1.2.2 1.5-.3.4-.5.2-1.2-.3-1.5-.5-.4-1.2-.2-1.5.3m831 11c-.4.5-.2 1.2.3 1.5.5.4 1.2.2 1.5-.3.4-.5.2-1.2-.3-1.5-.5-.4-1.2-.2-1.5.3m-842 2c-.4.5-.2 1.2.3 1.5.5.4 1.2.2 1.5-.3.4-.5.2-1.2-.3-1.5-.5-.4-1.2-.2-1.5.3m-272 8c-.4.5-.2 1.2.3 1.5.5.4 1.2.2 1.5-.3.4-.5.2-1.2-.3-1.5-.5-.4-1.2-.2-1.5.3m-41 3c-.4.5-.2 1.2.3 1.5.5.4 1.2.2 1.5-.3.4-.5.2-1.2-.3-1.5-.5-.4-1.2-.2-1.5.3m929.9 4.1c-1.1 1.7.5 3.2 2.1 1.9.7-.6 1.1-1.5.8-2-.7-1.2-2.1-1.1-2.9.1m605.1 1.9c-.4.5-.2 1.2.3 1.5.5.4 1.2.2 1.5-.3.4-.5.2-1.2-.3-1.5-.5-.4-1.2-.2-1.5.3m-619.1 1c-.7 1.2 1.2 2.4 2.5 1.6 1.1-.7.4-2.5-1-2.5-.5 0-1.1.4-1.5.9m-905.9 9.9c-.3.6.1 1.5.8 2.1.8.7 1.7.8 2 .3.3-.6-.1-1.5-.8-2.1-.8-.7-1.7-.8-2-.3m-40 8.1c-.4.5-.2 1.2.3 1.5.5.4 1.2.2 1.5-.3.4-.5.2-1.2-.3-1.5-.5-.4-1.2-.2-1.5.3m881.9 2.1c-.4.6-.3 1.6.3 2.2s1.2.6 1.7-.2c.4-.6.3-1.6-.3-2.2s-1.2-.6-1.7.2m-149.9 7.9c-.4.5-.2 1.2.3 1.5.5.4 1.2.2 1.5-.3.4-.5.2-1.2-.3-1.5-.5-.4-1.2-.2-1.5.3m148.4 1c-.6 1.2-.6 2.2-.1 2.6.6.3 1.5-.3 2.1-1.4.6-1.2.6-2.2.1-2.6-.6-.3-1.5.3-2.1 1.4m-282.4 0c-.4.5-.2 1.2.3 1.5.5.4 1.2.2 1.5-.3.4-.5.2-1.2-.3-1.5-.5-.4-1.2-.2-1.5.3m-589.8 1.7c-.7.6 4.1 9.4 5.1 9.4 1.7 0 1.8-1.3.5-3.9-1.6-3.2-4.8-6.4-5.6-5.5m870.8 3.3c-.4.5-.2 1.2.3 1.5.5.4 1.2.2 1.5-.3.4-.5.2-1.2-.3-1.5-.5-.4-1.2-.2-1.5.3m-148 2c-.4.5-.2 1.2.3 1.5.5.4 1.2.2 1.5-.3.4-.5.2-1.2-.3-1.5-.5-.4-1.2-.2-1.5.3m-717 5c-.4.5-.2 1.2.3 1.5.5.4 1.2.2 1.5-.3.4-.5.2-1.2-.3-1.5-.5-.4-1.2-.2-1.5.3m862.9 1.1c-.4.6-.3 1.6.3 2.2s1.2.6 1.7-.2c.4-.6.3-1.6-.3-2.2s-1.2-.6-1.7.2m-488.9 2.9c-1 1.1-1.3 2.2-.8 2.5s1.7-.3 2.6-1.3c1-1.1 1.3-2.2.8-2.5s-1.7.3-2.6 1.3m-279-.1c-.3.6.1 1.5.9 2.2s1.3 1.6 1 2 .2 1.3.9 1.9c.8.7 1.7.8 2 .3.3-.6-.1-1.5-.9-2.2s-1.3-1.6-1-2-.2-1.3-.9-1.9c-.8-.7-1.7-.8-2-.3m-91.9.8c-.9 1 2.2 6.6 3.3 5.9.6-.4.4-1.8-.5-3.6-1.7-3.1-1.8-3.2-2.8-2.3m858.9 1.3c-.4.5-.2 1.2.3 1.5.5.4 1.2.2 1.5-.3.4-.5.2-1.2-.3-1.5-.5-.4-1.2-.2-1.5.3m-890 22c-.4.5-.2 1.2.3 1.5.5.4 1.2.2 1.5-.3.4-.5.2-1.2-.3-1.5-.5-.4-1.2-.2-1.5.3m427 1c-.4.5-.2 1.2.3 1.5.5.4 1.2.2 1.5-.3.4-.5.2-1.2-.3-1.5-.5-.4-1.2-.2-1.5.3m-324 14c-.4.5-.2 1.2.3 1.5.5.4 1.2.2 1.5-.3.4-.5.2-1.2-.3-1.5-.5-.4-1.2-.2-1.5.3m778 5c-.4.5-.2 1.2.3 1.5.5.4 1.2.2 1.5-.3.4-.5.2-1.2-.3-1.5-.5-.4-1.2-.2-1.5.3m-207 6c-.4.5-.2 1.2.3 1.5.5.4 1.2.2 1.5-.3.4-.5.2-1.2-.3-1.5-.5-.4-1.2-.2-1.5.3m-611 3.9c-.7 1.2 2.3 5.4 3.5 4.6.6-.3.5-1.2-.3-2.1-.7-.9-1.2-1.9-1-2.2.6-.9-1.6-1.3-2.2-.3m4.1 6.8c-.6.7 8.2 14.4 9.3 14.4 2 0 1.5-1.6-1.7-5.8-1.9-2.6-3.9-5.7-4.4-6.9-.8-2.3-2-2.9-3.2-1.7m117.9 14.2c-.3.6.1 1.5.8 2.1.8.7 1.7.8 2 .3.3-.6-.1-1.5-.8-2.1-.8-.7-1.7-.8-2-.3m-108 1c-.3.6.1 1.5.8 2.1.8.7 1.7.8 2 .3.3-.6-.1-1.5-.8-2.1-.8-.7-1.7-.8-2-.3m322 9.1c-.4.5-.2 1.2.3 1.5.5.4 1.2.2 1.5-.3.4-.5.2-1.2-.3-1.5-.5-.4-1.2-.2-1.5.3m1241 5c-.4.5-.2 1.2.3 1.5.5.4 1.2.2 1.5-.3.4-.5.2-1.2-.3-1.5-.5-.4-1.2-.2-1.5.3m-1290 7c-.4.5-.2 1.2.3 1.5.5.4 1.2.2 1.5-.3.4-.5.2-1.2-.3-1.5-.5-.4-1.2-.2-1.5.3m49 3c-.4.5-.2 1.2.3 1.5.5.4 1.2.2 1.5-.3.4-.5.2-1.2-.3-1.5-.5-.4-1.2-.2-1.5.3m1237.4 1c-.6 1.2-.6 2.2-.1 2.6.6.3 1.5-.3 2.1-1.4.6-1.2.6-2.2.1-2.6-.6-.3-1.5.3-2.1 1.4m-1291.4 4c-.4.5-.2 1.2.3 1.5.5.4 1.2.2 1.5-.3.4-.5.2-1.2-.3-1.5-.5-.4-1.2-.2-1.5.3m-185 .9c-.3.6.1 1.5.8 2.1.8.7 1.7.8 2 .3.3-.6-.1-1.5-.8-2.1-.8-.7-1.7-.8-2-.3m1474 .1c-.4.5-.2 1.2.3 1.5.5.4 1.2.2 1.5-.3.4-.5.2-1.2-.3-1.5-.5-.4-1.2-.2-1.5.3m-102 8c-.4.5-.2 1.2.3 1.5.5.4 1.2.2 1.5-.3.4-.5.2-1.2-.3-1.5-.5-.4-1.2-.2-1.5.3m-870 3c-.4.5-.2 1.2.3 1.5.5.4 1.2.2 1.5-.3.4-.5.2-1.2-.3-1.5-.5-.4-1.2-.2-1.5.3m1010 2c-.4.5-.2 1.2.3 1.5.5.4 1.2.2 1.5-.3.4-.5.2-1.2-.3-1.5-.5-.4-1.2-.2-1.5.3m-1361 8c-.4.5-.2 1.2.3 1.5.5.4 1.2.2 1.5-.3.4-.5.2-1.2-.3-1.5-.5-.4-1.2-.2-1.5.3m794 1c-.4.5-.2 1.2.3 1.5.5.4 1.2.2 1.5-.3.4-.5.2-1.2-.3-1.5-.5-.4-1.2-.2-1.5.3m-985.1 1.1c-.4.6-.3 1.6.3 2.2s1.2.6 1.7-.2c.4-.6.3-1.6-.3-2.2s-1.2-.6-1.7.2m3.1 4.8c-.3.6.1 1.5.8 2.1.8.7 1.7.8 2 .3.3-.6-.1-1.5-.8-2.1-.8-.7-1.7-.8-2-.3m5 4.1c-.4.5-.2 1.2.3 1.5.5.4 1.2.2 1.5-.3.4-.5.2-1.2-.3-1.5-.5-.4-1.2-.2-1.5.3m301-.1c-.3.6.1 1.5.8 2.1.8.7 1.7.8 2 .3.3-.6-.1-1.5-.8-2.1-.8-.7-1.7-.8-2-.3m9 3.1c-.4.5-.2 1.2.3 1.5.5.4 1.2.2 1.5-.3.4-.5.2-1.2-.3-1.5-.5-.4-1.2-.2-1.5.3m-229 2c-.4.5-.2 1.2.3 1.5.5.4 1.2.2 1.5-.3.4-.5.2-1.2-.3-1.5-.5-.4-1.2-.2-1.5.3m1383 0c-.4.5-.2 1.2.3 1.5.5.4 1.2.2 1.5-.3.4-.5.2-1.2-.3-1.5-.5-.4-1.2-.2-1.5.3m-1376 4c-.4.5-.2 1.2.3 1.5.5.4 1.2.2 1.5-.3.4-.5.2-1.2-.3-1.5-.5-.4-1.2-.2-1.5.3m1357 4c-.4.5-.2 1.2.3 1.5.5.4 1.2.2 1.5-.3.4-.5.2-1.2-.3-1.5-.5-.4-1.2-.2-1.5.3m-715.1 2.1c-.4.6-.3 1.6.3 2.2s1.2.6 1.7-.2c.4-.6.3-1.6-.3-2.2s-1.2-.6-1.7.2m-695.9 12.9c-.4.5-.2 1.2.3 1.5.5.4 1.2.2 1.5-.3.4-.5.2-1.2-.3-1.5-.5-.4-1.2-.2-1.5.3m4 3c-.6 1 3.2 3.7 5.2 3.6.6 0 1.1-.5 1-1-.2-.6-.6-.9-1-.8-.3.1-1.2-.4-1.8-1.2-1.4-1.7-2.6-1.9-3.4-.6m-65 2c-.4.5-.2 1.2.3 1.5.5.4 1.2.2 1.5-.3.4-.5.2-1.2-.3-1.5-.5-.4-1.2-.2-1.5.3m1398.9 0c-.7 1.2 1.2 2.4 2.5 1.6 1.1-.7.4-2.5-1-2.5-.5 0-1.1.4-1.5.9m-6.9 1c-.4.5-.2 1.2.3 1.5.5.4 1.2.2 1.5-.3.4-.5.2-1.2-.3-1.5-.5-.4-1.2-.2-1.5.3m-5.1 1c-.7 1.2 1.2 2.4 2.5 1.6 1.1-.7.4-2.5-1-2.5-.5 0-1.1.4-1.5.9m-11.9 2c-.4.5-.2 1.2.3 1.5.5.4 1.2.2 1.5-.3.4-.5.2-1.2-.3-1.5-.5-.4-1.2-.2-1.5.3m-16 2c-.4.5-.2 1.2.3 1.5.5.4 1.2.2 1.5-.3.4-.5.2-1.2-.3-1.5-.5-.4-1.2-.2-1.5.3m-749.5 18.5c-1.6 1.9-.6 3.6 1.9 3.6 2.7 0 3.2-1.5 1.1-3.4-1.6-1.4-2-1.5-3-.2m187.4-.5c-.7 1.2 1.2 2.4 2.5 1.6 1.1-.7.4-2.5-1-2.5-.5 0-1.1.4-1.5.9m-251.9 1c-.4.5-.2 1.2.3 1.5.5.4 1.2.2 1.5-.3.4-.5.2-1.2-.3-1.5-.5-.4-1.2-.2-1.5.3m-416.1 3c-.6 1.1 1.3 2.6 2.2 1.7.3-.3 1.2-.1 2 .5.7.6 1.3.8 1.3.4s.6-.2 1.4.4c1 .8 1.6.9 2.1.1.3-.5.4-1.1.1-1.1-1.6-.4-2.6-.7-3.1-.9-.3-.1-.9-.3-1.4-.4-.5 0-1.3-.4-1.7-.9-1-1-2.2-.9-2.9.2m11.1 3c-.4.5-.2 1.2.3 1.5.5.4 1.2.2 1.5-.3.4-.5.2-1.2-.3-1.5-.5-.4-1.2-.2-1.5.3m1289.9 6c-.7 1.2 1.2 2.4 2.5 1.6 1.1-.7.4-2.5-1-2.5-.5 0-1.1.4-1.5.9m-21.9 5c-.4.5-.2 1.2.3 1.5.5.4 1.2.2 1.5-.3.4-.5.2-1.2-.3-1.5-.5-.4-1.2-.2-1.5.3m-1395 1c-.4.5-.2 1.2.3 1.5.5.4 1.2.2 1.5-.3.4-.5.2-1.2-.3-1.5-.5-.4-1.2-.2-1.5.3m508.8 3.3c-.4.5-1.2.7-1.9.4-.7-.2-2.1.1-3.1.9-1.3.9-2.3 1-3.1.4-.7-.7-1.3-.6-1.8.1-.3.5-1.3 1-2.1 1s-3.1.7-5.2 1.6c-2 1-4.3 1.8-5 2-3.4.7-4.5 1.5-3.5 2.5.8.8 1.8.7 3.4-.2 1.3-.7 2.9-1.3 3.4-1.4 2.7-.1 11.6-2.8 12.1-3.6.3-.5 1-.7 1.5-.3.5.3 1.6 0 2.4-.6s1.9-.9 2.5-.5 1.8.1 2.7-.7c.9-.7 1.8-1.2 2-1.1.1.2.2 0 .1-.4-.4-1.1-3.8-1.1-4.4-.1m112 1.2c-1 .8-2.2 1.4-2.6 1.5-.5 0-.8.3-.8.6 0 .4.6.6 1.3.4.1 0 1-.2 2.1-.4 2.4-.5 4.1-2.1 2.9-2.8-.6-.4-1.8 0-2.9.7m218.2 6.5c-.4.5-.2 1.2.3 1.5.5.4 1.2.2 1.5-.3.4-.5.2-1.2-.3-1.5-.5-.4-1.2-.2-1.5.3m4.9 0c-.7 1.2 1.2 2.4 2.5 1.6 1.1-.7.4-2.5-1-2.5-.5 0-1.1.4-1.5.9m-760.4 7.4c-.6.8-.8 1.7-.5 2 1 .9 4.5-1.3 3.9-2.4-.9-1.3-2.1-1.1-3.4.4m5.5.6c-.4.5-.2 1.2.3 1.5.5.4 1.2.2 1.5-.3.4-.5.2-1.2-.3-1.5-.5-.4-1.2-.2-1.5.3m640.9.1c-.4.6-.3 1.6.3 2.2s1.2.6 1.7-.2c.4-.6.3-1.6-.3-2.2s-1.2-.6-1.7.2m-636.9.9c-.4.5-.2 1.2.3 1.5.5.4 1.2.2 1.5-.3.4-.5.2-1.2-.3-1.5-.5-.4-1.2-.2-1.5.3m494 2c-.4.5-.2 1.2.3 1.5.5.4 1.2.2 1.5-.3.4-.5.2-1.2-.3-1.5-.5-.4-1.2-.2-1.5.3m-481 1c-.4.5-.2 1.2.3 1.5.5.4 1.2.2 1.5-.3.4-.5.2-1.2-.3-1.5-.5-.4-1.2-.2-1.5.3m-26.6 4c-.6 1.2-.6 2.2-.1 2.6.6.3 1.5-.3 2.1-1.4.6-1.2.6-2.2.1-2.6-.6-.3-1.5.3-2.1 1.4m648.4.5c-.4 1-.2 2.2.4 2.8.8.8 1.3.7 1.8-.6.4-1 .2-2.2-.4-2.8-.8-.8-1.3-.7-1.8.6m-302.4 3c-4.2 1.7-6.3 2.4-7 2.3-.6-.1-8.9 4.6-12.5 6.9-4.2 2.8-1.6 3.5 3.3.9 2.6-1.3 8.6-3.9 13.3-5.7 8-3.1 10.7-5 7.7-5.5-.7-.1-2.9.4-4.8 1.1m89.5 5.3c-1.1.3-3.1 1-4.5 1.6s-2.8 1.1-3.2 1.1c-.5.1-.8.4-.8.8 0 .7.5 1 1.3.7 3.6-1.2 8.8-.3 8.4 1.4-.1.7.5 1.2 1.3 1.2s1.7-1.4 2.1-3.2c.9-4.4.3-4.8-4.6-3.6m69.1 1.2c-.4.5-.2 1.2.3 1.5.5.4 1.2.2 1.5-.3.4-.5.2-1.2-.3-1.5-.5-.4-1.2-.2-1.5.3m-113 15c-.4.5-.2 1.2.3 1.5.5.4 1.2.2 1.5-.3.4-.5.2-1.2-.3-1.5-.5-.4-1.2-.2-1.5.3m886 1c-.4.5-.2 1.2.3 1.5.5.4 1.2.2 1.5-.3.4-.5.2-1.2-.3-1.5-.5-.4-1.2-.2-1.5.3m-898 3.9c-.4.4-1.1.7-1.4.7-.4 0-3.6 1.3-7 2.9-4.4 1.9-6.1 3.1-5.4 3.8.6.6 1.9.7 2.9.3 1-.5 2.4-.7 3.1-.6s1.5-.5 1.8-1.4c.3-.8 1.2-1.5 1.9-1.5s1.8-.7 2.5-1.5 1.6-1.3 2-1c.5.3 1.1.1 1.4-.4.8-1.2-.9-2.3-1.8-1.3m119.9 3.2c-.4.6-.3 1.6.3 2.2s1.2.6 1.7-.2c.4-.6.3-1.6-.3-2.2s-1.2-.6-1.7.2m-1.6 6.4c-.1.3-.2.9-.3 1.3-.1.5-.5 1.3-.9 2-.4.6-.3 1.4.3 1.8.5.3 1.1.4 1.1.1.1-.3.2-.9.3-1.4.1-.4.5-1.2.9-1.9.4-.6.3-1.4-.3-1.8-.5-.3-1.1-.4-1.1-.1m-236.7 4.6c-1.8 1.1-3 2.5-2.7 3s2.1 0 4-1.1c1.9-1.2 3.2-2.5 2.9-3-.7-1.1-.4-1.2-4.2 1.1m82.3 2c-.4.6-1 .8-1.5.5-.4-.3-1.3.2-1.9.9-.7.8-.8 1.7-.3 2 .6.3 1.5-.1 2.2-.9s1.6-1.3 2-1c.5.3 1.1.1 1.4-.4.4-.5.2-1.2-.3-1.5-.5-.4-1.2-.2-1.6.4m-92 3.4c-2.2 1.3-4.3 2.2-4.6 2-1-.6-3.1 2.4-2.5 3.5.4.6 3.2-.5 6.6-2.6 3.3-1.9 5.7-3.9 5.4-4.4-.7-1.1-.3-1.3-4.9 1.5m-355.9 8.5c-.4.5-.2 1.2.3 1.5.5.4 1.2.2 1.5-.3.4-.5.2-1.2-.3-1.5-.5-.4-1.2-.2-1.5.3m333 6c-.4.5-.2 1.2.3 1.5.5.4 1.2.2 1.5-.3.4-.5.2-1.2-.3-1.5-.5-.4-1.2-.2-1.5.3m70 5c-.4.5-.2 1.2.3 1.5.5.4 1.2.2 1.5-.3.4-.5.2-1.2-.3-1.5-.5-.4-1.2-.2-1.5.3m124.6 2.2c-.5 1.3-1.1 2.8-1.2 3.4-.1.5-.6 2-1.1 3.2-.9 2.5.4 4 1.8 2 1.7-2.3 3.3-9.1 2.3-10.1-.6-.6-1.3 0-1.8 1.5m-129.6.8c-.4.5-.2 1.2.3 1.5.5.4 1.2.2 1.5-.3.4-.5.2-1.2-.3-1.5-.5-.4-1.2-.2-1.5.3m-4 2c-.4.5-.2 1.2.3 1.5.5.4 1.2.2 1.5-.3.4-.5.2-1.2-.3-1.5-.5-.4-1.2-.2-1.5.3m199 1c-.4.5-.2 1.2.3 1.5.5.4 1.2.2 1.5-.3.4-.5.2-1.2-.3-1.5-.5-.4-1.2-.2-1.5.3m-202 1c-.4.5-.2 1.2.3 1.5.5.4 1.2.2 1.5-.3.4-.5.2-1.2-.3-1.5-.5-.4-1.2-.2-1.5.3m-7 4c-.4.5-.2 1.2.3 1.5.5.4 1.2.2 1.5-.3.4-.5.2-1.2-.3-1.5-.5-.4-1.2-.2-1.5.3m-3 2c-.4.5-.2 1.2.3 1.5.5.4 1.2.2 1.5-.3.4-.5.2-1.2-.3-1.5-.5-.4-1.2-.2-1.5.3m210 0c-.4.5-.2 1.2.3 1.5.5.4 1.2.2 1.5-.3.4-.5.2-1.2-.3-1.5-.5-.4-1.2-.2-1.5.3m-298 9c-.4.5-.2 1.2.3 1.5.5.4 1.2.2 1.5-.3.4-.5.2-1.2-.3-1.5-.5-.4-1.2-.2-1.5.3m72.9.5c-1.1.8-1.4 1.6-.8 1.9.6.4 1.8 0 2.8-.7 1.1-.8 1.4-1.6.8-1.9-.6-.4-1.8 0-2.8.7m-76.4 2c-.7.8-.8 1.7-.3 2 .6.3 1.5-.1 2.1-.8.7-.8.8-1.7.3-2-.6-.3-1.5.1-2.1.8m449.5 3.5c-.4.5-.2 1.2.3 1.5.5.4 1.2.2 1.5-.3.4-.5.2-1.2-.3-1.5-.5-.4-1.2-.2-1.5.3m-455 1c-.4.5-.2 1.2.3 1.5.5.4 1.2.2 1.5-.3.4-.5.2-1.2-.3-1.5-.5-.4-1.2-.2-1.5.3m-5 4c-.4.5-.2 1.2.3 1.5.5.4 1.2.2 1.5-.3.4-.5.2-1.2-.3-1.5-.5-.4-1.2-.2-1.5.3m240 1c-.4.5-.2 1.2.3 1.5.5.4 1.2.2 1.5-.3.4-.5.2-1.2-.3-1.5-.5-.4-1.2-.2-1.5.3m-245.5 3.5c-.7.8-.8 1.7-.3 2 .6.3 1.5-.1 2.1-.8.7-.8.8-1.7.3-2-.6-.3-1.5.1-2.1.8m243.9 1.2c-.9 1-1 1.8-.3 2.5.8.8 1.4.5 2.2-.9 1.3-2.5-.2-3.8-1.9-1.6m-248.4 2.3c-.4.5-.2 1.2.3 1.5.5.4 1.2.2 1.5-.3.4-.5.2-1.2-.3-1.5-.5-.4-1.2-.2-1.5.3m-3 2c-.4.5-.2 1.2.3 1.5.5.4 1.2.2 1.5-.3.4-.5.2-1.2-.3-1.5-.5-.4-1.2-.2-1.5.3m67 2c-.4.5-.2 1.2.3 1.5.5.4 1.2.2 1.5-.3.4-.5.2-1.2-.3-1.5-.5-.4-1.2-.2-1.5.3m-71 2c-1 1.1-1.3 2.2-.8 2.5s1.7-.3 2.6-1.3c1-1.1 1.3-2.2.8-2.5s-1.7.3-2.6 1.3m-6 5c-.4.5-.2 1.2.3 1.5.5.4 1.2.2 1.5-.3.4-.5.2-1.2-.3-1.5-.5-.4-1.2-.2-1.5.3m61 5c-.4.5-.2 1.2.3 1.5.5.4 1.2.2 1.5-.3.4-.5.2-1.2-.3-1.5-.5-.4-1.2-.2-1.5.3m-71 4c-.4.5-.2 1.2.3 1.5.5.4 1.2.2 1.5-.3.4-.5.2-1.2-.3-1.5-.5-.4-1.2-.2-1.5.3m65 1c-.4.5-.2 1.2.3 1.5.5.4 1.2.2 1.5-.3.4-.5.2-1.2-.3-1.5-.5-.4-1.2-.2-1.5.3m-6.1 5.1c-.4.6-.3 1.6.3 2.2s1.2.6 1.7-.2c.4-.6.3-1.6-.3-2.2s-1.2-.6-1.7.2m-327.9.9c-.4.5-.2 1.2.3 1.5.5.4 1.2.2 1.5-.3.4-.5.2-1.2-.3-1.5-.5-.4-1.2-.2-1.5.3m261 1c-.4.5-.2 1.2.3 1.5.5.4 1.2.2 1.5-.3.4-.5.2-1.2-.3-1.5-.5-.4-1.2-.2-1.5.3m337.3 3.5c-.1.3-.2.9-.3 1.3-.1.5-.5 1.3-.9 2-.4.6-.3 1.4.3 1.8.5.3 1.1.4 1.1.1.1-.3.2-.9.3-1.4.1-.4.5-1.2.9-1.9.4-.6.3-1.4-.3-1.8-.5-.3-1.1-.4-1.1-.1m-282.8 5c-1.3 1.3-1.8 2.6-1.3 3 .5.3 1.9-.5 3.1-1.8 1.3-1.3 1.8-2.6 1.3-3-.5-.3-1.9.5-3.1 1.8m-63.5.5c-.4.5-.2 1.2.3 1.5.5.4 1.2.2 1.5-.3.4-.5.2-1.2-.3-1.5-.5-.4-1.2-.2-1.5.3m343.4 3c-.6 1.2-.6 2.2-.1 2.6.6.3 1.5-.3 2.1-1.4.6-1.2.6-2.2.1-2.6-.6-.3-1.5.3-2.1 1.4m-361.4 16c-1 1.1-1.3 2.2-.8 2.5s1.7-.3 2.6-1.3c1-1.1 1.3-2.2.8-2.5s-1.7.3-2.6 1.3m357-1c-.4.5-.2 1.2.3 1.5.5.4 1.2.2 1.5-.3.4-.5.2-1.2-.3-1.5-.5-.4-1.2-.2-1.5.3" class="icon-part"/><path fill="#dedae1" d="M635.5 1452.7c-5 5.2-9 11.9-7.6 12.7.5.3 1.9-1 3.2-2.9 1.3-1.8 4.3-5.6 6.7-8.4 5.5-6.4 3.7-7.6-2.3-1.4m52.1 9.2c-.4.5-.2 1.2.3 1.5.5.4 1.2.2 1.5-.3.4-.5.2-1.2-.3-1.5-.5-.4-1.2-.2-1.5.3m-5 6c-.4.5-.2 1.2.3 1.5.5.4 1.2.2 1.5-.3.4-.5.2-1.2-.3-1.5-.5-.4-1.2-.2-1.5.3m-4.5 6c-1.2 1.6-1.7 3.2-1.2 3.5.5.4 1.9-.7 3-2.3 1.2-1.6 1.7-3.2 1.2-3.5-.5-.4-1.9.7-3 2.3m-5.5 7c-.4.5-.2 1.2.3 1.5.5.4 1.2.2 1.5-.3.4-.5.2-1.2-.3-1.5-.5-.4-1.2-.2-1.5.3m-6 8c-.4.5-.2 1.2.3 1.5.5.4 1.2.2 1.5-.3.4-.5.2-1.2-.3-1.5-.5-.4-1.2-.2-1.5.3m-4 6c-.4.5-.2 1.2.3 1.5.5.4 1.2.2 1.5-.3.4-.5.2-1.2-.3-1.5-.5-.4-1.2-.2-1.5.3m319 3c-.4.5-.2 1.2.3 1.5.5.4 1.2.2 1.5-.3.4-.5.2-1.2-.3-1.5-.5-.4-1.2-.2-1.5.3m171.6 5.1c-2.3 3.1-1.4 5.1 1 2.2 2.3-2.7 2.9-4 2-4.6-.5-.3-1.8.8-3 2.4m-174.6 1.9c-.4.5-.2 1.2.3 1.5.5.4 1.2.2 1.5-.3.4-.5.2-1.2-.3-1.5-.5-.4-1.2-.2-1.5.3m170 3c-.4.5-.2 1.2.3 1.5.5.4 1.2.2 1.5-.3.4-.5.2-1.2-.3-1.5-.5-.4-1.2-.2-1.5.3m-551.6 5.6c-1.8 3.1-3.3 6.1-3.4 6.8s-1 2.6-1.9 4.4c-1 1.9-1.3 3.4-.7 3.8.5.3 1.6-.8 2.5-2.5.8-1.6 1.3-3 1-3s.5-1.7 1.8-3.8c4.1-6.4 5.7-10.1 4.8-10.7-.5-.3-2.4 2-4.1 5m-7.9 17.9c-.7.8-.8 1.7-.3 2 .6.3 1.5-.1 2.1-.8.7-.8.8-1.7.3-2-.6-.3-1.5.1-2.1.8m-1.5 4.5c-.4.5-.2 1.2.3 1.5.5.4 1.2.2 1.5-.3.4-.5.2-1.2-.3-1.5-.5-.4-1.2-.2-1.5.3m45.3 16.5c-.1.3-.2.9-.3 1.3-.1.5-.7 1.8-1.4 3-.7 1.3-.8 2.4-.3 2.8.6.3 1.5-.4 2.1-1.5s.8-2 .4-2c-.3 0-.1-.6.5-1.4.8-1 .9-1.6.1-2.1-.5-.3-1.1-.4-1.1-.1m312.7 33.5c-.4.5-.2 1.2.3 1.5.5.4 1.2.2 1.5-.3.4-.5.2-1.2-.3-1.5-.5-.4-1.2-.2-1.5.3m-2 4c-.4.5-.2 1.2.3 1.5.5.4 1.2.2 1.5-.3.4-.5.2-1.2-.3-1.5-.5-.4-1.2-.2-1.5.3m-72 3c-.4.5-.2 1.2.3 1.5.5.4 1.2.2 1.5-.3.4-.5.2-1.2-.3-1.5-.5-.4-1.2-.2-1.5.3m-17 32c-.4.5-.2 1.2.3 1.5.5.4 1.2.2 1.5-.3.4-.5.2-1.2-.3-1.5-.5-.4-1.2-.2-1.5.3m-2 3c-.4.5-.2 1.2.3 1.5.5.4 1.2.2 1.5-.3.4-.5.2-1.2-.3-1.5-.5-.4-1.2-.2-1.5.3m-2 4c-.4.5-.2 1.2.3 1.5.5.4 1.2.2 1.5-.3.4-.5.2-1.2-.3-1.5-.5-.4-1.2-.2-1.5.3m62 16c-.4.5-.2 1.2.3 1.5.5.4 1.2.2 1.5-.3.4-.5.2-1.2-.3-1.5-.5-.4-1.2-.2-1.5.3m-2 3c-.4.5-.2 1.2.3 1.5.5.4 1.2.2 1.5-.3.4-.5.2-1.2-.3-1.5-.5-.4-1.2-.2-1.5.3m-78 9c-.4.5-.2 1.2.3 1.5.5.4 1.2.2 1.5-.3.4-.5.2-1.2-.3-1.5-.5-.4-1.2-.2-1.5.3m-2 3c-.4.5-.2 1.2.3 1.5.5.4 1.2.2 1.5-.3.4-.5.2-1.2-.3-1.5-.5-.4-1.2-.2-1.5.3m66.4 9c-.6 1.2-.6 2.2-.1 2.6.6.3 1.5-.3 2.1-1.4.6-1.2.6-2.2.1-2.6-.6-.3-1.5.3-2.1 1.4m-276.4-.1c-.3.6.1 1.5.8 2.1.8.7 1.7.8 2 .3.3-.6-.1-1.5-.8-2.1-.8-.7-1.7-.8-2-.3m198 8.1c-.4.5-.2 1.2.3 1.5.5.4 1.2.2 1.5-.3.4-.5.2-1.2-.3-1.5-.5-.4-1.2-.2-1.5.3m-3 4c-1 1.1-1.3 2.2-.8 2.5s1.7-.3 2.6-1.3c1-1.1 1.3-2.2.8-2.5s-1.7.3-2.6 1.3m-5 6c-.4.5-.2 1.2.3 1.5.5.4 1.2.2 1.5-.3.4-.5.2-1.2-.3-1.5-.5-.4-1.2-.2-1.5.3m72 2c-.4.5-.2 1.2.3 1.5.5.4 1.2.2 1.5-.3.4-.5.2-1.2-.3-1.5-.5-.4-1.2-.2-1.5.3m-301 4c-.4.5-.2 1.2.3 1.5.5.4 1.2.2 1.5-.3.4-.5.2-1.2-.3-1.5-.5-.4-1.2-.2-1.5.3m223.5.5c-.7.8-.8 1.7-.3 2 .6.3 1.5-.1 2.1-.8.7-.8.8-1.7.3-2-.6-.3-1.5.1-2.1.8m71.5 3.5c-.4.5-.2 1.2.3 1.5.5.4 1.2.2 1.5-.3.4-.5.2-1.2-.3-1.5-.5-.4-1.2-.2-1.5.3m-293 1c-.4.5-.2 1.2.3 1.5.5.4 1.2.2 1.5-.3.4-.5.2-1.2-.3-1.5-.5-.4-1.2-.2-1.5.3m215 3c-.4.5-.2 1.2.3 1.5.5.4 1.2.2 1.5-.3.4-.5.2-1.2-.3-1.5-.5-.4-1.2-.2-1.5.3m-213 1c-.4.5-.2 1.2.3 1.5.5.4 1.2.2 1.5-.3.4-.5.2-1.2-.3-1.5-.5-.4-1.2-.2-1.5.3m287 0c-.4.5-.2 1.2.3 1.5.5.4 1.2.2 1.5-.3.4-.5.2-1.2-.3-1.5-.5-.4-1.2-.2-1.5.3m-5.5 6.5c-1.3 1.3-1.8 2.6-1.3 3 .5.3 1.9-.5 3.1-1.8 1.3-1.3 1.8-2.6 1.3-3-.5-.3-1.9.5-3.1 1.8m-81.5 5.5c-.4.5-.2 1.2.3 1.5.5.4 1.2.2 1.5-.3.4-.5.2-1.2-.3-1.5-.5-.4-1.2-.2-1.5.3m-8.5 6.5c-.7.8-.8 1.7-.3 2 .6.3 1.5-.1 2.1-.8.7-.8.8-1.7.3-2-.6-.3-1.5.1-2.1.8m-129.5.4c-.3.6.1 1.5.8 2.1.8.7 1.7.8 2 .3.3-.6-.1-1.5-.8-2.1-.8-.7-1.7-.8-2-.3m125 3.1c-.4.5-.2 1.2.3 1.5.5.4 1.2.2 1.5-.3.4-.5.2-1.2-.3-1.5-.5-.4-1.2-.2-1.5.3m-3 2c-.4.5-.2 1.2.3 1.5.5.4 1.2.2 1.5-.3.4-.5.2-1.2-.3-1.5-.5-.4-1.2-.2-1.5.3m-6.9 4.3c-5.4 3.5-5.3 5.9.1 2.7 4.9-2.9 6.6-4.5 5.5-5.2-.5-.3-3 .8-5.6 2.5m-107.1-1.4c-.3.5.3 1.7 1.3 2.6 1.1 1 2.2 1.3 2.5.8s-.3-1.7-1.3-2.6c-1.1-1-2.2-1.3-2.5-.8m7 6.1c-.4.5-.2 1.2.3 1.5.5.4 1.2.2 1.5-.3.4-.5.2-1.2-.3-1.5-.5-.4-1.2-.2-1.5.3m-55 4.9c-.3.5.3 1.7 1.3 2.6 1.1 1 2.2 1.3 2.5.8s-.3-1.7-1.3-2.6c-1.1-1-2.2-1.3-2.5-.8m8.1 8.8c-.7.7 7.2 9.9 10.4 12.1 1 .7 2 .9 2.3.5.7-1.1-11.8-13.5-12.7-12.6m98.9.3c-.4.5-.2 1.2.3 1.5.5.4 1.2.2 1.5-.3.4-.5.2-1.2-.3-1.5-.5-.4-1.2-.2-1.5.3m98 9c-.4.5-.2 1.2.3 1.5.5.4 1.2.2 1.5-.3.4-.5.2-1.2-.3-1.5-.5-.4-1.2-.2-1.5.3m-183 4c-.4.5-.2 1.2.3 1.5.5.4 1.2.2 1.5-.3.4-.5.2-1.2-.3-1.5-.5-.4-1.2-.2-1.5.3m172 3c-.4.5-.2 1.2.3 1.5.5.4 1.2.2 1.5-.3.4-.5.2-1.2-.3-1.5-.5-.4-1.2-.2-1.5.3m-58 23c-.4.5-.2 1.2.3 1.5.5.4 1.2.2 1.5-.3.4-.5.2-1.2-.3-1.5-.5-.4-1.2-.2-1.5.3m-33 3c-.4.5-.2 1.2.3 1.5.5.4 1.2.2 1.5-.3.4-.5.2-1.2-.3-1.5-.5-.4-1.2-.2-1.5.3m6 0c-.4.5-.2 1.2.3 1.5.5.4 1.2.2 1.5-.3.4-.5.2-1.2-.3-1.5-.5-.4-1.2-.2-1.5.3" class="icon-part"/><path fill="#aca0af" d="M947.6 478.9c-.4.5-.2 1.2.3 1.5.5.4 1.2.2 1.5-.3.4-.5.2-1.2-.3-1.5-.5-.4-1.2-.2-1.5.3m377-.1c-.3.6.1 1.5.8 2.1.8.7 1.7.8 2 .3.3-.6-.1-1.5-.8-2.1-.8-.7-1.7-.8-2-.3m259 .1c-.4.5-.2 1.2.3 1.5.5.4 1.2.2 1.5-.3.4-.5.2-1.2-.3-1.5-.5-.4-1.2-.2-1.5.3m-317 24c-.4.5-.2 1.2.3 1.5.5.4 1.2.2 1.5-.3.4-.5.2-1.2-.3-1.5-.5-.4-1.2-.2-1.5.3m-43 29c-.4.5-.2 1.2.3 1.5.5.4 1.2.2 1.5-.3.4-.5.2-1.2-.3-1.5-.5-.4-1.2-.2-1.5.3m-8 8c-.4.5-.2 1.2.3 1.5.5.4 1.2.2 1.5-.3.4-.5.2-1.2-.3-1.5-.5-.4-1.2-.2-1.5.3m-276 2c-.4.5-.2 1.2.3 1.5.5.4 1.2.2 1.5-.3.4-.5.2-1.2-.3-1.5-.5-.4-1.2-.2-1.5.3m-125 56c-.4.5-.2 1.2.3 1.5.5.4 1.2.2 1.5-.3.4-.5.2-1.2-.3-1.5-.5-.4-1.2-.2-1.5.3m691 231c-.4.5-.2 1.2.3 1.5.5.4 1.2.2 1.5-.3.4-.5.2-1.2-.3-1.5-.5-.4-1.2-.2-1.5.3m-530 457c-.4.5-.2 1.2.3 1.5.5.4 1.2.2 1.5-.3.4-.5.2-1.2-.3-1.5-.5-.4-1.2-.2-1.5.3" class="icon-part"/></svg>