<svg xmlns="http://www.w3.org/2000/svg" viewBox="0 0 2048 2048"><path d="M1379.9 396.4c-9 3.2-19.7 15.7-29.7 34.7-3.5 6.6-5.6 9.5-7.3 10-1.3.4-8.2 2.4-15.4 4.5-19.5 5.5-20.1 5.7-34.5 12.1-7 3.1-31.6 15.4-37 18.4-19 10.9-36.5 24.5-52.1 40.5-15.1 15.6-22.1 26.6-23.4 36.9-1.4 10.3 6.9 15.8 15.4 10.2 3.4-2.3 6.7-6.1 14.9-17.2 8-10.9 22.4-22.9 42.2-35.3 11.3-7 32.8-18.1 44-22.7 3.6-1.4 7.4-3 8.5-3.5 5-2.2 17.6-6 20-6 2.2 0 2.6.3 2 1.7-1.8 4.2-6.8 18.1-12.8 35.3-3.6 10.2-8.8 25-11.7 33-2.8 8-7.2 20.8-9.6 28.5-2.5 7.7-5.3 16.3-6.4 19-1.1 2.8-2 5.5-2 6.1s-1.4 5.1-3.1 10c-2.9 8.7-5.5 16.5-10.5 32.9-2.4 7.7-4.2 13.6-8.3 28.2-1.1 3.8-3.8 13.3-6.1 21.3-2.2 8-5.9 21-8 29-4.3 16.1-16.1 59.4-18.4 68-.9 3-3.4 13.1-5.6 22.5-2.3 9.3-5.5 22.4-7.2 29-1.6 6.6-4 16.3-5.3 21.5s-6.1 24.6-10.7 43c-4.7 18.4-8.9 35.3-9.4 37.5-.9 3.9-1 4-4.9 3.8-4-.3-9.8-2.3-21.2-7.4-8.5-3.9-10.8-4.3-14.4-2.9-3.6 1.5-4.9 4.4-4.9 10.9 0 8.4 5.9 16.8 18 25.5 4.1 2.9 9.9 6.6 12.8 8.1 6.3 3.3 6.3 2.8 2.1 22.5-1.6 8-4.3 21-6 29-1.6 8-4.5 21-6.4 29s-4.4 20.1-5.5 27c-2 11.6-6.4 36.3-11 61-1.1 5.8-2.6 14.5-3.4 19.5-.9 4.9-2.9 17.1-4.6 27-1.6 9.9-4.4 27-6 38-1.7 11-3.9 25.4-4.9 32-1.1 6.6-2.2 14.5-2.5 17.5-4.7 43.2-5.1 47.4-7.2 74.5-2.1 28.3-1.5 95 1 109.5 3.7 20.9 5.8 26.1 13.5 33.3 6.5 6.1 9.6 6.3 14.1.9 4.1-5 6.9-14.4 8.1-27.7.5-6.1 1.4-14 1.9-17.7.6-3.7 1-10.4 1-14.9 0-4.6.4-10.8 1-13.8.5-3.1 1.7-12.4 2.6-20.6.8-8.3 2.2-20.2 3.1-26.5.8-6.3 1.9-15.1 2.3-19.5.8-7.3 2.3-17.6 6.4-44.5 4-26.2 5.8-37.1 7.1-43.5.8-3.9 2.1-11.7 3-17.4.9-5.8 2.7-16.5 4-23.8 1.4-7.3 3.6-19.5 5-27.1 1.4-7.5 3.6-19.1 5-25.7 1.3-6.6 3.3-16.7 4.4-22.5 2.2-11.5 4.9-24.4 8.1-39 3.4-15.3 5.9-26.8 8-37 3.9-19.1 14.8-68.2 18.2-81.8.8-3 1.7-4.3 3.2-4.7 1.1-.2 10.2-.6 20.1-.9 17.8-.6 27-1.7 47.5-5.8 12.6-2.4 39.3-9.2 47-11.8 3-1 10.2-3.3 16-5.1s11.9-3.8 13.5-4.5c1.7-.7 5.9-2.4 9.5-3.8 11-4.2 32.7-14.3 43.9-20.3 5.8-3.2 11.7-6.3 13.1-6.9 4.2-1.8 28.9-17.2 39-24.3 5.2-3.6 11.3-7.8 13.5-9.2s7-5.2 10.6-8.5c3.6-3.2 10.4-9.1 15-13 9.4-7.9 43.7-43.6 47.3-49.2 1.3-2 3.9-5.6 5.8-7.9 13-15.5 32.8-50 43.4-75.4 3-7.4 5.9-14.3 6.3-15.4.5-1.1 1.7-4.7 2.6-8s2.3-7.8 3-10c4.1-12.6 8.1-30.6 10.6-47.3 1.9-13.2.6-60.9-2-73.4-4.6-22.6-12.1-44.6-19.8-58.1-1.8-3.3-3.3-6.1-3.3-6.3 0-1.1-9.2-14.9-15.6-23.4-24.3-32.2-63.1-57.8-105.4-69.7-10.2-2.8-27.4-6.2-35-6.9-3-.2-10-.9-15.5-1.5-6.8-.7-16.6-.7-30.5-.1-22.2 1-25.4.6-24.5-3 2-9.1 2.5-12 2.5-17.1 0-3.2-.7-7.1-1.5-8.6-2.7-5.3-12.7-7.5-20.6-4.7m69.2 67.1c15.5 2.2 24.4 4.1 34.4 7.4 29 9.5 49.1 21 65.9 37.6 11.3 11.1 18.6 21.2 25.6 35.3 20.7 41.8 25.6 92.3 13.4 140.7-7.3 29.2-19 58.3-32.2 80-23 37.6-50.7 69.9-82.7 96.2-11.3 9.3-16.3 12.9-36 26.4-8.6 5.9-27.8 17.9-28.7 17.9-.3 0-4.1 2-8.5 4.4-9.7 5.3-40.2 19.4-49.8 22.9-19.6 7.1-42.7 13.8-60 17.3-13.3 2.7-36 4.4-37.5 2.8-.5-.5-.2-2.7.6-4.9.7-2.2 2.1-7.4 2.9-11.5 2.2-10.6 7.7-33.6 14.6-61 3.3-12.9 6.1-24.2 6.3-25s1.6-5.8 3.1-11c3-10.5 10.6-40.1 13.5-52.5 1-4.4 4.6-18.6 7.9-31.5 5.7-22.1 9.2-35.1 17.7-65 1.9-6.9 4.8-17.7 6.5-24 3.4-13.1 10.2-37.6 12.9-46.5 1-3.3 4.4-14.8 7.5-25.5 9.6-32.6 11.5-39.1 15-50 1.8-5.8 4.8-15.5 6.5-21.5 1.8-6.1 5.4-17.8 8-26 2.6-8.3 5.7-18.3 7-22.3 1.3-4.1 3-7.6 3.7-7.9 10.5-4.1 43.2-5.5 62.4-2.8" class="icon-part"/></svg>