<svg xmlns="http://www.w3.org/2000/svg" viewBox="0 0 2048 2048"><path fill="#fdfdfc" d="M1379.9 396.4c-9 3.2-19.7 15.7-29.7 34.7-3.5 6.6-5.6 9.5-7.3 10-1.3.4-8.2 2.4-15.4 4.5-19.5 5.5-20.1 5.7-34.5 12.1-7 3.1-31.6 15.4-37 18.4-19 10.9-36.5 24.5-52.1 40.5-15.1 15.6-22.1 26.6-23.4 36.9-1.4 10.3 6.9 15.8 15.4 10.2 3.4-2.3 6.7-6.1 14.9-17.2 8-10.9 22.4-22.9 42.2-35.3 11.3-7 32.8-18.1 44-22.7 3.6-1.4 7.4-3 8.5-3.5 5-2.2 17.6-6 20-6 2.2 0 2.6.3 2 1.7-1.8 4.2-6.8 18.1-12.8 35.3-3.6 10.2-8.8 25-11.7 33-2.8 8-7.2 20.8-9.6 28.5-2.5 7.7-5.3 16.3-6.4 19-1.1 2.8-2 5.5-2 6.1s-1.4 5.1-3.1 10c-2.9 8.7-5.5 16.5-10.5 32.9-2.4 7.7-4.2 13.6-8.3 28.2-1.1 3.8-3.8 13.3-6.1 21.3-2.2 8-5.9 21-8 29-4.3 16.1-16.1 59.4-18.4 68-.9 3-3.4 13.1-5.6 22.5-2.3 9.3-5.5 22.4-7.2 29-1.6 6.6-4 16.3-5.3 21.5s-6.1 24.6-10.7 43c-4.7 18.4-8.9 35.3-9.4 37.5-.9 3.9-1 4-4.9 3.8-4-.3-9.8-2.3-21.2-7.4-8.5-3.9-10.8-4.3-14.4-2.9-3.6 1.5-4.9 4.4-4.9 10.9 0 8.4 5.9 16.8 18 25.5 4.1 2.9 9.9 6.6 12.8 8.1 6.3 3.3 6.3 2.8 2.1 22.5-1.6 8-4.3 21-6 29-1.6 8-4.5 21-6.4 29s-4.4 20.1-5.5 27c-2 11.6-6.4 36.3-11 61-1.1 5.8-2.6 14.5-3.4 19.5-.9 4.9-2.9 17.1-4.6 27-1.6 9.9-4.4 27-6 38-1.7 11-3.9 25.4-4.9 32-1.1 6.6-2.2 14.5-2.5 17.5-4.7 43.2-5.1 47.4-7.2 74.5-2.1 28.3-1.5 95 1 109.5 3.7 20.9 5.8 26.1 13.5 33.3 6.5 6.1 9.6 6.3 14.1.9 4.1-5 6.9-14.4 8.1-27.7.5-6.1 1.4-14 1.9-17.7.6-3.7 1-10.4 1-14.9 0-4.6.4-10.8 1-13.8.5-3.1 1.7-12.4 2.6-20.6.8-8.3 2.2-20.2 3.1-26.5.8-6.3 1.9-15.1 2.3-19.5.8-7.3 2.3-17.6 6.4-44.5 4-26.2 5.8-37.1 7.1-43.5.8-3.9 2.1-11.7 3-17.4.9-5.8 2.7-16.5 4-23.8 1.4-7.3 3.6-19.5 5-27.1 1.4-7.5 3.6-19.1 5-25.7 1.3-6.6 3.3-16.7 4.4-22.5 2.2-11.5 4.9-24.4 8.1-39 3.4-15.3 5.9-26.8 8-37 3.9-19.1 14.8-68.2 18.2-81.8.8-3 1.7-4.3 3.2-4.7 1.1-.2 10.2-.6 20.1-.9 17.8-.6 27-1.7 47.5-5.8 12.6-2.4 39.3-9.2 47-11.8 3-1 10.2-3.3 16-5.1s11.9-3.8 13.5-4.5c1.7-.7 5.9-2.4 9.5-3.8 11-4.2 32.7-14.3 43.9-20.3 5.8-3.2 11.7-6.3 13.1-6.9 4.2-1.8 28.9-17.2 39-24.3 5.2-3.6 11.3-7.8 13.5-9.2s7-5.2 10.6-8.5c3.6-3.2 10.4-9.1 15-13 9.4-7.9 43.7-43.6 47.3-49.2 1.3-2 3.9-5.6 5.8-7.9 13-15.5 32.8-50 43.4-75.4 3-7.4 5.9-14.3 6.3-15.4.5-1.1 1.7-4.7 2.6-8s2.3-7.8 3-10c4.1-12.6 8.1-30.6 10.6-47.3 1.9-13.2.6-60.9-2-73.4-4.6-22.6-12.1-44.6-19.8-58.1-1.8-3.3-3.3-6.1-3.3-6.3 0-1.1-9.2-14.9-15.6-23.4-24.3-32.2-63.1-57.8-105.4-69.7-10.2-2.8-27.4-6.2-35-6.9-3-.2-10-.9-15.5-1.5-6.8-.7-16.6-.7-30.5-.1-22.2 1-25.4.6-24.5-3 2-9.1 2.5-12 2.5-17.1 0-3.2-.7-7.1-1.5-8.6-2.7-5.3-12.7-7.5-20.6-4.7" class="icon-part"/><path fill="#1e6aa6" d="M1915.4 1140.5c-17.4 8.9-35.6 14.2-65.9 19-35 5.5-58.8 6.5-175.5 7.1-228 1.1-275.6 1.9-347 5.9-5.2.3-15.8.7-23.5 1-31.2 1.3-43.5 2.8-43.5 5.4 0 3.1 10.8 4.8 36 5.7 10.2.3 18.8.8 19.2 1 .9.6 429.3.5 431 0 .7-.3 8.3-.7 16.8-1 31.5-1.2 39.4-1.9 77.5-7.1 29.9-4.1 64.7-15.6 79.2-26.3 4.6-3.4 10.7-11.7 9.8-13.2-1.2-2-7.4-.9-14.1 2.5" class="icon-part"/><path fill="#c31b1b" d="M1072 431.7c-7 .8-32.6 7.4-42 10.8-1.9.7-8.7 3.2-15 5.5s-12.9 4.8-14.7 5.6c-1.7.8-3.7 1.4-4.3 1.4-1.6 0-28.4 13.9-41.5 21.5-5.5 3.2-12 7-14.5 8.4-7.9 4.4-30.5 20-40.2 27.6-33.1 26-74.5 70.7-95.9 103.5-15.5 23.7-26.2 43.6-31.9 59.5-1.8 4.9-3.6 9.9-4.1 11-7.5 17.8-14.9 56.7-14.9 78.1 0 38.5 13.4 75.9 36.8 103 19.2 22.2 41.4 35.5 74.2 44.7 11.3 3.2 11.8 3.2 33 3.2 20.3 0 22-.2 31.4-2.8 14.3-4 27.7-10.7 31.5-15.9 7-9.6 1.8-11.9-17.2-7.8-22.4 4.9-46.3 4.4-63.2-1.1-9.3-3.1-26.9-11.9-33.3-16.6-11.4-8.4-27.3-28.6-33.9-42.9-6.9-15.2-10.7-45.5-8.4-67.3 2.3-22.4 6.3-37.6 15.8-61.1 5-12.4 13.9-30.4 16.8-34 .6-.8 2.6-4.1 4.4-7.4 8.4-15.1 32.2-48.1 46-63.6 8.2-9.3 32-33.2 44.6-44.9 18.1-16.8 45.7-37.5 66.4-49.7 4.5-2.7 9.7-5.7 11.4-6.8 8.7-5.1 36.5-19 45.8-22.7 13.6-5.4 19.1-6.9 26.5-6.9 9.7 0 9.6-.2 10.2 19.9.3 9.8 0 20.9-.6 25.9-.6 4.8-1.4 12.3-1.7 16.7s-1 11.6-1.5 16-1.4 13.8-2 21c-.6 7.1-1.3 15-1.5 17.5s-.9 9.7-1.5 16c-.5 6.3-1.2 13.1-1.5 15-.5 3.3-1.5 13.3-3.5 35-.5 5.2-1.6 15.8-2.4 23.5-.9 7.7-2 18.3-2.6 23.5s-1.4 12.9-2 17c-1.2 9.8-1.6 13.6-3.5 31.5-.9 8.2-2 18.1-2.5 22-.5 3.8-1.2 10.6-1.5 15-.6 7.4-4.9 41.1-9.4 72.5-1 7.4-2.2 16.2-2.6 19.5-1.1 10.1-8.3 62.2-10.5 75.5-1.1 6.9-2.9 18.6-4 26s-2.2 15.1-2.5 17-1.4 10-2.6 18c-1.1 8-2.2 15.4-2.5 16.5-.2 1.1-1.7 10.8-3.3 21.5-3.4 22.8-12.6 77.3-17.1 101-1.7 9.1-3.5 19.2-4.1 22.5-1.2 7.7-3.6 19.8-5.9 30.5-1 4.7-3.1 14.1-4.5 21-4.7 22.6-7.6 32.1-9.9 33-1.2.4-8.2 2.2-15.6 4-27.6 6.7-89.4 28.5-112.5 39.8-3.3 1.6-9.2 4.3-13.1 6.1-23 10-47.5 23.2-80.7 43.5-31.5 19.3-66.6 47.3-94.7 75.5-27.4 27.5-39 41.9-54.9 68.4-8.2 13.8-18.6 34-21.3 41.7-.9 2.5-2.8 7.6-4.2 11.5q-5.1 14.1-10.2 40.5c-2.7 13.7-2.8 16.1-2.9 42 0 29.5.4 33.1 6.2 55.5 4.6 17.7 14 38 25.2 54 6.8 9.8 23 26 32 31.9 15.3 10.2 37.2 19 54.5 22.1 19.4 3.3 48.9 1.1 67.4-5.1 58.1-19.5 106-62.5 150-134.9 12-19.7 35.3-64.7 41.4-80 1.1-2.8 2.6-6.4 3.3-8 6.6-14.9 9.1-20.8 12.4-29.7 2.2-5.7 4.7-12.1 5.7-14.3 4.3-10.2 20.3-56.3 25.4-73.5 1.3-4.1 3.8-12.2 5.7-18 1.8-5.8 5.6-19.1 8.4-29.5 2.7-10.5 7-26.4 9.4-35.5 6.7-24.5 16.2-63.2 19-77.2 1.4-6.8 2.8-13.7 3.3-15.3 1-3.6 4.3-5.4 16.2-8.5 11.6-3.1 20.5-6.7 26.7-10.7 4.2-2.8 5.4-4.2 5.9-6.9.4-2.1.2-4-.6-4.8-1.9-2.4-11.2-2.9-26.2-1.7-7.7.7-14.2 1-14.5.7-.5-.4 1.1-9.1 6.7-37.6 4.4-22.1 12.1-64 12.9-70.5.6-3.9 1.2-7.9 1.4-9 .5-2.2 1.4-7.7 2.3-14 .6-4.4 5.3-34.9 8.4-54.5 3.9-24.6 8-52.8 10-68 1.1-8.5 3.1-22.5 4.5-31 2.2-13.3 5.2-34.4 7.1-48.5.3-2.2.9-6.7 1.4-10s1.4-9.8 1.9-14.5c.6-4.7 2.4-19.1 4.1-32 4.2-32.1 4.8-36.7 6-50.5 1.1-11.9 1.9-18.3 3.9-32.3.6-4 1.1-10.1 1.1-13.6s.4-8.5.9-11.2 1.2-10.1 1.6-16.4c.3-6.3 1-14.9 1.5-19s1.4-15.8 2-26 1.3-21 1.5-24c3.1-36.2 4.6-71.3 4.6-112.8 0-26.2-.4-47.6-1-51-.6-3.1-2-11.3-3.2-18.2-3.9-22.6-11.6-32.7-29.5-39.1-5.5-2-20.8-3.1-29.4-2.2" class="icon-part"/></svg>