<svg xmlns="http://www.w3.org/2000/svg" viewBox="0 0 2048 2048"><path fill="#1f6ba6" d="M171.5 495.6c-28.6 3.5-45.4 8.3-67.7 19.5-20.2 10-34.1 19.7-48.9 34.1-20.1 19.5-32 38.4-38.9 61.6-7.1 23.6-7.8 40.7-2.9 69.7 2.2 13.1 10.5 33.2 19.3 47 8.3 12.8 23.1 28.7 31.9 34.1 2.3 1.4 5.4 3.5 7 4.5 1.5 1.1 7.1 4.2 12.5 6.8 25.6 12.8 59.9 14.1 86.9 3.5 8.1-3.3 9.5-4.1 19.5-11.6 7.1-5.4 12.8-11.3 12.8-13.3 0-.5.7-1.6 1.4-2.4.8-.9 1.7-3.1 2-4.8.5-2.5.2-3.5-1.6-4.7-3.3-2.4-5.9-2-13.3 1.9-21.7 11.6-34.6 14.9-54.4 14.3-7.5-.2-14.5-.9-15.6-1.5s-4.5-1.9-7.5-2.8c-11.1-3.6-28.3-15.4-38.6-26.7-14.1-15.3-22.8-34.2-24.8-53.8-.4-3.6-.9-8.1-1.2-10.2-1.5-11.2 3.2-37.3 8.8-49.8 12.7-27.9 52.2-59.4 87.2-69.5 17.8-5.2 24.1-6 47.6-5.7 17.9.1 28.3 1.2 43.1 4.6 7 1.6 25.3 7.7 30.6 10.1 1.7.8 3.4 1.5 3.7 1.5s3.5 1.3 7.1 3c3.6 1.6 6.9 3 7.3 3s4.4 1.9 8.7 4.1c26.5 13.7 51.9 30.4 78 51.2 8.3 6.6 15.5 12.5 16 13.1.6.6 7.1 6.5 14.5 13.1 15.9 14.1 45.9 43.1 62 59.9 6.3 6.6 13.5 14.1 16 16.6 2.5 2.6 5.6 6 6.9 7.6 1.4 1.6 7 7.8 12.7 13.9 5.6 6 12.4 13.4 15 16.4 2.7 3 9.9 10.9 15.9 17.5 12.1 13.3 23.7 26.2 28.1 31.5 3.3 3.9 18.6 21.4 19.4 22.1.3.3 2.5 3 5 6 2.4 3 6.5 7.8 9 10.5 2.5 2.8 6.3 7.3 8.5 10s6.7 8.1 10 12 7.4 8.9 9.1 11.1c9.8 12.3 12.9 16.1 14.3 17.5.9.9 5 6.1 9.1 11.4 4.1 5.4 10 12.7 13 16.4 3 3.6 6 7.3 6.7 8.1 3.3 4.1 26.1 31.3 35.9 42.8 6.1 7.2 14.3 16 18.3 19.6 11.5 10.7 11.8 9.4 1.8-10.4-6.2-12.6-28.3-47.1-45.2-71-4.8-6.7-11.6-16.9-13-19.2-1.5-2.6-24.4-34.5-37.5-52.3-2-2.8-5.8-7.9-8.4-11.5-6.1-8.6-7.6-10.5-17.3-23-4.5-5.8-9.6-12.3-11.2-14.5-12.3-16.2-18-23.4-35.3-44.9-14.7-18.2-24.8-30.3-39.5-47.4-2.5-2.9-5.5-6.2-6.5-7.5-27.9-32.3-73.1-76.8-104.7-102.9-6.8-5.7-15.8-12.9-20-16.1s-8.4-6.5-9.4-7.3c-.9-.8-2.1-1.4-2.5-1.4-.5 0-1.7-.8-2.8-1.9-2.5-2.3-18.2-13.1-19-13.1-.4 0-2.9-1.6-5.5-3.5-2.7-1.9-5.1-3.5-5.4-3.5-.2 0-3.5-1.9-7.2-4.2-10.3-6.3-34.5-18.1-46.8-22.8-6-2.3-12.6-4.8-14.5-5.6-5.6-2.2-20.7-6.2-32-8.5-8.7-1.7-14.8-2.1-35.5-2.4-13.7-.1-26.3-.1-28 .1" class="icon-part"/><path fill="#b3b2c1" d="M1382 393c-4.8 1-11 3.8-11 5 0 .6-.4 1-1 1-1.5 0-16 15-16 16.5 0 .7-.9 1.6-1.9 2-1.4.4-1.9 1.5-1.9 3.4.1 1.5-1.6 6.2-3.6 10.4l-3.7 7.6-5.7 1.2c-3.1.6-7.2 1.5-8.9 1.9-2 .5-3.5.4-3.9-.1-.4-.6-1.1-.6-1.9.1s-2.3.9-3.5.5c-1.1-.3-2-.2-2 .3 0 .6-.7 1.3-1.6 1.6-1 .4-1.3.2-.9-.7.4-.6.1-.5-.7.4-1.6 1.9-6.6 3-7.5 1.6-.4-.6-.1-.7.7-.2q1.35.75.6-.3c-.4-.7-1.4-1.2-2.2-1.2-1.2 0-1.2.4-.4 2 .9 1.6.8 1.8-.5 1.4-.8-.4-1.5-.1-1.5.7 0 .7-.3 1-.6.6-.4-.3-1.3.1-2.1.9s-1.9 1.1-2.5.8c-.6-.4-.8-.3-.5.3.9 1.5-33.5 18.5-35.7 17.7-1.1-.4-1.6-.2-1.4.7s-.5 1.4-1.9 1.3c-1.2 0-2 .2-1.8.6.5.9-9.4 6.2-10.4 5.6-.4-.3-1.5.4-2.4 1.5-.9 1-2.3 1.9-3.1 1.9-.7 0-2.1 1.1-3 2.5s-2.3 2.5-3.1 2.5-1.5.5-1.5 1.1c0 .8-.5.7-1.5-.1-1.3-1.1-1.5-1-1 .1.6 1.8-.1 2.8-5.5 6.9-2.5 1.9-4.6 3.8-4.8 4.2-.5 1.1-13.5 10.4-15.6 11.2-1 .3-1.6.9-1.3 1.2.3.4.1 1.2-.6 1.9s-2.2 2.6-3.4 4.1c-5.9 7.8-11.8 15-12.7 15.6-.6.4-1.7.6-2.3.3-.8-.3-1.3.4-1.3 1.9 0 1.3-.8 3.3-1.9 4.5-1.6 1.8-2 1.9-3.1.6-.7-.8-1.6-1.5-2.1-1.5s0 .9 1 1.9c2.6 2.6 1.8 6.5-1 5-2-1-2.3-.6-2.1 3.8.1 1.3-.3 2.3-.8 2.3-.6 0-1 .5-1 1.2 0 .6.3.9.6.5 1.1-1.1 2.9 1.7 4.7 7.4.9 3 2.9 6.6 4.3 8 2.2 2.1 3.6 2.4 10.2 2.5 4.2.1 7.1-.1 6.4-.3-.9-.3-.2-1.3 1.9-2.9 2.6-1.9 3.5-2.1 4.7-1.2 1.1 1 1.4.8 1.2-.7-.4-3.6 0-5.6 1-5 .5.3.8 0 .5-.7-.6-1.5 3-7.8 4.5-7.8.5 0 1-.9 1-1.9 0-2 11.4-13.1 13.4-13.1.6 0 .6.4-.2.9-1 .6-1 1 .3 2.1 1.5 1.3 1.6 1.1 1.8-2.8.1-.9.8-2.2 1.7-2.9.8-.7 1.1-1.3.6-1.3-.6 0-.1-.6.9-1.4 1.1-.8 2.3-1.2 2.7-1 .5.3.8-.1.8-.9 0-1.6 3.9-5.4 6-5.9.8-.2 2.1-1.1 2.8-2.1 1.7-2.2 7-5 8.2-4.2.6.3 1 .1 1-.4 0-.6.7-1.1 1.5-1.1s1.5-.4 1.5-.9.9-.7 2-.4c1.2.3 2.2-.1 2.6-1.1.4-1.1 1.4-1.4 3.3-1 2 .4 2.3.3 1.1-.5-1.3-.9-1.3-1.1.1-1.1.9 0 2.2-.7 2.9-1.5.7-.9 1.9-1.4 2.6-1.1s1.5 0 1.8-.7c.3-.8.5-.8.5.2.1 1.1.4 1.1 1.6.1.8-.7 1.2-1.6.9-2.1s.2-.9 1.1-.9 1.3.4 1 1c-.3.5-.2 1 .3 1 1.5 0 2.2-2.8.9-3.3-.7-.3 0-.8 1.5-1.2 1.6-.4 2.6-1.1 2.3-1.5-.9-1.5 17.4-11 21.3-11 .6 0 1.2-.4 1.2-.9 0-1 7.9-2.8 12.2-2.9 4.1 0 4.1 2.9-.3 16.7-5.8 18.1-6.7 20.5-8.9 22.9-1.1 1.2-2 2.6-2 3.2 0 .7-1 2.1-2.2 3.2-1.3 1.1-1.7 1.6-.9 1.2 1-.5 1.2-.3.7.5-.5.7-1 2.7-1.3 4.4-.2 1.8-1.3 4.1-2.4 5.2-1.7 1.7-1.9 1.7-1.3.2.3-1 .1-1.7-.5-1.7-1.4 0-1.4 1.6-.1 4.1.8 1.5.7 1.9-.5 1.9-.8 0-1.5.5-1.5 1.1 0 .5.5.7 1.1.4.6-.4.5.2-.2 1.3s-1.9 1.8-2.6 1.5c-1-.4-1.1 0-.4 2 .6 1.4.8 3.6.4 4.9-.3 1.3-.6 3.1-.6 4-.1 1-.4 1.8-.7 1.8s-.7 1.9-.9 4.2c-.1 2.3-.6 4.7-1 5.3-.5.5-1.2 2.6-1.5 4.5-.4 1.9-1.1 4.6-1.6 6s-1.6 5.1-2.6 8.2c-.9 3.2-1.9 5.8-2.3 5.8-.3 0-.7 1.3-.8 2.8-.1 1.6-2 7.5-4.2 13.3-2.2 5.7-4.5 12.3-5.1 14.6-.6 2.4-1.6 4.3-2.2 4.3-.5 0-.8.8-.6 1.8.3 1-.1 2.3-.9 3-.7.7-1.3 2.6-1.3 4.2 0 1.7-.5 3-1.1 3-.5 0-.9.8-.8 1.7.4 4.5-.3 7.5-2.1 9.3-1.2 1.2-1.5 2-.7 2 .7 0 .8.3.2.8-1.6 1.1-3.9 5.6-2.5 4.7.9-.5 1-.1.5 1.4-.3 1.1-.8 3.3-1.1 4.8-1.1 6.5-6.7 27.7-8.2 31.1-.8 2-1.6 3.9-1.7 4.2s-.5 1.7-.9 3.1-.9 3.4-1 4.5c-.2 1.2-1 1.8-2.2 1.6-1.8-.3-1.8-.3-.1 1 1.5 1.1 1.6 1.7.5 4.5-.7 1.8-1.5 3.3-1.8 3.3s-.6 1.6-.8 3.6c-.3 4.3-3.1 13.4-4.2 13.4-.4 0-.5 1.1-.2 2.5.3 1.8 0 2.5-1.1 2.5-.9 0-1.9.5-2.3 1.2s-.3.8.4.4c.8-.5 1.2 0 1.2 1.3 0 1.1-.5 2.3-1.1 2.6-.6.4-.8 1.3-.5 2.1s-.4 2.4-1.6 3.6c-1.8 1.8-1.8 2-.4 1.5 1.5-.6 1.7-.4 1.1 1-.4 1-.8 3.4-1 5.4-.1 2-.5 4.1-.9 4.8-.7 1.1-1.7 4.7-1.8 6.8-.1.7-.5 1.3-.9 1.3-.5 0-.6.7-.3 1.5s.2 2-.2 2.7c-.5.7-.9 1.5-.9 1.8-.1.3-.4 2.3-.9 4.4-.6 3.1-1 3.6-1.8 2.5s-.9-1-.4.4c.5 1.6-.8 10.2-2.1 13.7-.3.8-.7 2.4-.8 3.5-.4 2.9-4.4 19.4-5.6 23.2-.6 1.9-1.7 3.3-2.6 3.3-1.2 0-1.3.3-.4 1.4s.9 1.5-.1 1.9q-1.65.6 0 .6c.9.1 1 .6.3 1.8-.5 1-1.2 3.9-1.6 6.6-.4 2.6-1.1 5-1.6 5.3s-.7 1-.4 1.5c.4.5.3.9-.2.9-.4 0-.9 1.6-.9 3.6-.1 2-.5 3.9-1 4.3-.5.3-1 2.6-1.2 5.1-.2 2.4-.7 4.9-1.1 5.5-.5.5-1.1 3.4-1.5 6.3-.8 6.2-5.8 26.3-7.7 30.7-1.4 3.3-1.6 4-1.8 5.6 0 .5-.5.7-1.1.4-.5-.3-1 .4-1 1.5 0 1.9-.4 2.1-2.5 1.6-2-.5-2.5-.3-2.5 1.1 0 1.5.2 1.6 1 .3.7-1.2 1-1.1 1.6.5.4 1.1 1.2 2.3 1.8 2.7.7.5.6.8-.3.8-.7 0-1.1.6-.8 1.4q.6 1.5-.9.9c-.7-.3-1.4 0-1.4.6s.5 1.1 1 1.1c.6 0 1 .9 1 2.1 0 1.1-.4 1.8-.8 1.5-.5-.3-.6.8-.4 2.5.2 1.6-.2 3.7-.9 4.6-1.2 1.4-1.2 1.6 0 .8 1.1-.6 1.3-.2.7 2.1-.4 1.6-1.2 3.3-1.7 3.9-1.5 1.5-11.2-1-20.2-5.4-4.5-2.3-9-4.1-10-4.1-.9 0-1.6-.5-1.4-1.1.3-1.4-4-2.2-4.8-.9-.3.6-1.4 1-2.3 1-1.9 0-6.2 5.8-6.2 8.4 0 .9-.4 1.5-.8 1.2-.4-.2-.5 2.1-.2 5.2.5 4.5.3 6-.9 7-1.4 1.1-1.4 1.2.4 1 1.2-.2 1.9.2 1.8.9-.2.7.2 1.3.7 1.3.6 0 1 .4 1 .9s1.6 2.6 3.5 4.7 3.5 4.6 3.5 5.7c0 1.3.5 1.7 1.8 1.3 1-.4 2.8.5 4.8 2.3 1.7 1.6 6.4 4.8 10.5 7.1 4 2.3 7.7 4.7 8.1 5.3 1.4 2.2.8 11.3-1.2 19.2-1.1 4.3-2 8.6-2 9.6s-.6 2.4-1.3 3.1c-.8.7-1.4 2-1.5 2.8-.2 3.1-1.4 8.5-2.1 9.5-.4.5-.6 2.3-.5 3.9.3 2.7-5.6 33.4-9.1 47.6-.9 3.6-1.6 7.2-1.6 8-.1 3.2-1.1 7-1.8 6.6-.4-.3-.7 1.1-.6 3.1 0 2-.4 4.1-1.1 4.7-.6.6-1.1 3.4-1.2 6.1-.1 4.3-.7 9-1.2 9-.1 0-.4 1.8-.6 4s-.6 5.2-.7 6.7c-.2 1.6-.4 4.2-.5 5.9-.1 2.1-.6 3-1.5 2.6-1-.4-1.3.6-1.1 3.6.1 2.2-.3 5.2-.9 6.6s-1.1 3.7-1.2 5.1c-.3 4.2-.5 4.6-1.4 3.1-.6-.9-1.1-1-1.5-.2-.4.6 0 1.4.8 1.7.9.3 1.6 1.4 1.5 2.3q0 1.5-.6.3c-.9-2.3-2.2-1.2-1.6 1.5.3 1.6.5 3.4.4 4-.1.7-.3 3.4-.5 6-.6 10.3-4.6 35.2-7.2 44.8-.8 3.3-1.7 7.8-2 9.9-.2 2.2-.7 4.2-1.1 4.5-.5.3-.9 5.5-1.1 11.6-.1 6-.9 14.4-1.7 18.7-.8 4.2-1.7 10-2 12.9-.4 3-.9 5.6-1.3 5.9s-.8 1.8-1 3.5c-.1 1.6-.4 4.3-.7 6-.7 4.3-1.6 12.7-1.6 15 0 1.1-.5 2.3-1.2 2.7-.9.6-.9 1-.1 1.5.8.6.9 3.9.3 11.7-.5 6.1-1.1 11.7-1.3 12.5-.3.9-.8 6.5-1.1 12.6-.3 6-.7 13.5-1 16.5-1.1 12.8-1.6 22.8-2 38.7-.3 9.2-.5 18.4-.6 20.3 0 1.9 0 3.7.2 4 .1.3.3 3 .4 6 .5 13.7 1.9 31.7 3.1 39.5 1.7 11.6 7.5 28.5 9.8 28.5.5 0 .1.6-1 1.4-1.9 1.5-1.9 1.5.1 1.2 1.1-.2 3 .8 4.3 2.1 1.2 1.3 2.2 2.1 2.2 1.8s1.1.2 2.5 1.1c2.7 1.8 10.8 3.7 10 2.4-.3-.4.4-1 1.5-1.3 2.1-.5 3.7.8 2 1.6-.6.3-.5.4.2.3.7-.2 1.2-1 1-1.8-.1-.8.9-2.1 2.3-2.8 1.3-.7 2.2-1.7 1.9-2.2-.3-.4-.1-2.3.5-4.1.6-1.7 1.3-4.8 1.6-6.7s.9-4.4 1.2-5.5.8-2.9.9-4c.8-5.5 1.8-9.1 2.8-10.4.8-1.1.8-1.3-.1-.7-.8.4-1.3.1-1.3-.8s.3-1.6.8-1.6c.4 0 .7-3.3.8-7.3.1-8.8 1.1-23.7 1.9-29.2.3-2.2.6-4.8.7-5.7s.6-1.5.9-1.2c.4.2 1 0 1.3-.5s0-1.1-.8-1.4-1.2-1.7-.9-3.9c.2-1.8.6-7.6.9-12.8s.9-9.7 1.2-10c.4-.3.8-3 1-6 .1-3 .4-6.4.6-7.5.3-1.1.5-2.6.5-3.4.1-1.1.4-1.1 1.6-.1s1.5 1 1.5-.3c0-.8-.6-1.7-1.4-2-1-.4-1.2-1.5-.5-4.9.4-2.4.8-7.3.9-10.9 0-3.6.3-6.9.7-7.3s.9-3.3 1.1-6.4.7-5.9 1-6.2c.4-.3.8-1.6.9-3s.4-4.3.7-6.5c.2-2.2.8-6.6 1.1-9.8.4-3.1 1.1-5.7 1.6-5.7s.9-.5.9-1.1c0-.5-.4-.8-.8-.5-.5.3 0-3.9.9-9.3 1-5.4 2-11.5 2.2-13.7.7-5.7 2.7-10.5 4-9.7.7.4.6 0-.1-.9-.9-1.2-1-2.2-.4-3.5.5-1 .8-2.6.7-3.5-.3-1.9 1.9-4.3 3.2-3.5.5.3.9-.2.9-1.2 0-1.2-.6-1.7-1.8-1.3-1.5.3-1.6-.1-1.1-3.4.3-2.2 1.1-4.2 1.7-4.6.8-.5.7-.8-.1-.8-1.5 0-1.8-3.6-.4-4.4.4-.3.6-1.7.3-3.1-.2-1.4 0-2.5.5-2.5s.7-1.6.5-3.6c-.3-2.3-.1-3.4.6-3 1.4.8 2.5-2.5 1.2-3.8-1.2-1.2-1.3-2.9-.1-2.2 1.3.9 1.9-1.4 1.6-6.1-.2-2.4.1-4.5.6-4.9.5-.3.7-.9.4-1.4s.2-3.5 1-6.7c.9-3.2 1.7-6.8 1.8-8s.5-1.9.9-1.7c.4.3.8.2.9-.3 0-.4.2-3.3.4-6.3s.6-6.6 1-8c.7-3 1.3-7 2-13 1.1-8.9 3.6-22.4 4.3-23 .4-.3.8-2.3.9-4.4.1-2.2.6-4.2 1-4.5s.9-2.6 1.1-5.1c.2-2.4.6-4.7 1-5s.8-2.3.9-4.5c.2-2.2.7-4.1 1.2-4.3s.6-1.2.3-2.4c-.3-1.3-.1-1.9.5-1.5 1 .7 1.1.1 1.3-6.8.1-2.5.6-4.5 1.1-4.5.6 0 .8-.4.5-.9s.1-2.6.8-4.7c.8-2.2 1.5-3.3 1.5-2.5.1.8.4 1.1.7.8.4-.4.1-1.3-.6-2.2-.7-.8-.9-1.5-.4-1.5s1-1.5 1-3.3c.2-3.5 1.9-10.5 2.8-11.5.4-.3 1.2 0 1.8.6.7.7 1.7 1.2 2.3 1.2.5 0 .2-.5-.8-1.1-.9-.6-1.4-1.5-1.1-2.1.5-.7.1-.9-.9-.5-1.3.5-1.5.2-.8-1.6.5-1.2.9-2.5 1-3 0-.4.2-.8.2-1 .1-.1.3-1.6.5-3.2.1-1.7.4-4.8.7-7 .7-6.9 5.7-29 6.7-29.3.5-.2.7-.9.4-1.7-.3-.7.4-2.3 1.5-3.4 1.2-1.2 1.7-2.1 1.1-2.1-.5 0-1-.7-1-1.5s.5-1.5 1.1-1.5.8-.9.4-2c-.4-1.2-.2-2 .5-2 .6 0 .9.3.7.7-.3.5.6.9 1.9.9 1.3.1 2.1-.2 1.8-.7s-1.1-.9-1.9-.9c-2.3 0-2.7-1.8-1.1-4.8.8-1.6 1.2-3.9.9-5.1-.4-1.7-.2-2 1.2-1.5 1.4.6 1.6.4.7-1.2-.5-1-.7-2.8-.5-3.9s.4-4.3.3-7c-.1-7.9 0-7.9 15.1-7.6 7.3.1 13.7.5 14.1.7.4.3.8 0 .8-.6 0-.7 2.3-1 7.1-.7 4 .2 9.5-.2 12.7-1 3.2-.7 6.7-1.1 7.9-.8 2.5.6 3.9.3 3.6-.6-.1-.3.5-.6 1.3-.7s2.1-.3 2.9-.4 1.2-.5.9-1c-.3-.4 1.2-.9 3.3-.9 4.7-.2 4.4-.2 6.7.7 1.6.6 1.8.4 1.3-.9-.3-.9-.3-1.7.1-1.7.4-.1 3-.7 5.7-1.4 3.1-.8 5.2-1 5.6-.4s1.2.4 2-.4c1.7-1.7 8.7-3.8 12.6-3.8 1.6 0 3.5-.6 4.2-1.3 1.1-1 1.4-1 1.8 0 .3.7 1.2 1.3 2.1 1.3 1.5 0 1.5-.2.2-1s-1.2-1 .3-1c.9 0 1.7-.5 1.7-1 0-.6 1.1-1 2.4-1s4-.7 6-1.5 3.6-1.2 3.6-.9c0 .4.7.1 1.5-.6s3.3-1.3 5.5-1.4c2.2 0 4-.4 4-.7 0-.4 1.5-1.2 3.3-1.9 1.7-.6 5.3-2 8-3 2.6-1.1 4.7-1.5 4.7-.9 0 .5.7.9 1.6.9 1 0 1.4-.6 1.1-1.4-.4-1.1-.1-1.3 1-.9 1.2.5 1.4.3.8-.7s-.4-1.2.8-.7c.9.3 1.9.1 2.3-.4.3-.6 1.5-.9 2.5-.6 1.1.3 1.7.1 1.4-.3-.5-.8 2.3-2.2 3.5-1.8.3.1 3.1-1.5 6.3-3.5 3.1-2 6.4-3.7 7.2-3.7s3.3-1.3 5.7-2.8c8.7-5.8 17.2-9.7 18.9-8.6.8.4.9.3.5-.4-.7-1.2 4.2-4.2 6.7-4.2.8 0 1.8-.7 2.1-1.6.4-.9 1.3-1.4 2.1-1 .8.3 1.5 0 1.5-.6s.3-.9.6-.5c.3.3 1.7-.4 3.1-1.6 1.3-1.2 3-2.2 3.7-2.2.6 0 2.6-1 4.3-2.3 1.7-1.2 3.8-2.2 4.7-2.2s1.6-.5 1.6-1.1c0-.5.5-.7 1-.4.6.4.9.1.8-.7-.2-.8.7-1.3 2.2-1.4 1.4 0 2.4-.6 2.3-1.2-.4-1.8 1.4-1.5 2.1.4.3.8 1.1 1.2 1.7.8.8-.5.8-.8 0-1.4-.9-.5-.8-1 .3-2 .9-.7 1.3-1.6 1-2.1s0-.9.5-.9c.6 0 2.4-1.1 3.9-2.4 4.9-4.4 17.3-13.6 18.4-13.6.5 0 2.5-1.5 4.3-3.3 8.9-8.8 11.2-10.6 12.4-9.4.9.9 1.1.8.6-.5-.9-2.3 3.9-5.5 5.9-3.9 1.1.9 1.6.9 2.2 0 .4-.7.3-.9-.4-.5-.6.3-1.3.2-1.6-.3-.8-1.3 3.1-4.4 4.5-3.5.8.4 1 .3.5-.5-.8-1.2 6.7-9.1 8.6-9.1.6 0 .9-.3.5-.6-.3-.4.4-1.5 1.6-2.4 1.6-1.3 2.6-1.5 3.5-.8.9.8 1.2.5 1.2-1.1 0-3.5 1.8-6.1 8.7-13 3.5-3.5 6.8-7.2 7.4-8.3.5-1 1.4-1.6 2-1.3.5.4.8.1.7-.6-.2-.6.7-1.2 1.9-1.4 1.3-.1 2.6-.5 3-1 .5-.4 0-.5-.9-.2-1 .4-1.8.3-1.8-.2 0-1.7 4.3-6.3 6.8-7.2 1.9-.7 2.3-1.2 1.4-1.8-1-.6-1-1.1.3-2.1.8-.7 1.5-1.8 1.5-2.4s1.3-2.6 2.9-4.4c1.7-1.7 2.7-3.2 2.3-3.2s.2-.7 1.2-1.5c1.1-.8 1.6-1.5 1-1.5-.5 0-.2-.6.7-1.3s2.1-2.2 2.8-3.5c.6-1.2 1.9-2.2 2.7-2.2 1 0 1.4-.6 1.1-1.4s.5-2.9 1.9-4.7c1.3-1.8 2.4-3.9 2.4-4.6s.5-1.3 1-1.3c.6 0 1-.7 1-1.5 0-.9.7-1.8 1.5-2.1.8-.4 1.2-1 .9-1.5-.7-1.2 3.1-6 4.1-5.1.5.4.5.2.1-.5-.9-1.7 2.5-8.1 4.8-8.9 1.5-.5 1.6-.8.5-1.5s-1.2-1.2-.1-2.9c2.7-4.4 4.3-7.8 8.2-17.8.7-1.7 1.7-3.2 2.2-3.2s.6-.5.3-1.1c-.4-.6.2-1.3 1.4-1.6 1.7-.4 1.9-.8 1-1.9-.8-1-.8-1.4 0-1.4.6 0 1.1-.8 1.1-1.8 0-2.8 5-17.6 6.3-18.7.7-.6 1.3-1.9 1.3-3 .2-2.3.2-2.6 4.3-19 1.7-6.6 3.3-13.6 3.6-15.5s1.1-5.3 1.6-7.5c1.9-7.5 2.6-18.5 2.8-41 .2-27.4-1.9-43.2-9-69-.6-2.2-1.3-4.9-1.4-6-.2-1.1-1-3.9-1.9-6.2-1.6-4.3-2.7-8.7-2.8-11.3-.1-.8-1-2.8-2-4.3-1.1-1.5-1.7-3.4-1.4-4.2s.1-1.7-.5-2c-.5-.4-.9-.3-.8.2.5 2.7-.4 2.3-2.2-1.2-1.2-2.2-4.8-7.9-8-12.7-3.3-4.9-5.9-9.3-5.9-9.9s-.7-1.7-1.5-2.5c-1.1-1.2-1.2-2-.4-3.5.9-1.8.7-2-1.7-1.7-1.8.2-3-.3-3.8-1.6-2.7-4.7-11.7-14.9-19.3-22.1-2.9-2.8-5.3-5.6-5.3-6.3 0-.6-.9-1.2-2-1.2s-2-.5-2-1.1c0-.5-.4-.7-1-.4-.5.3-1 .3-1-.2 0-.4-2.3-2.1-5-3.8-2.8-1.6-5-3.3-5-3.7s-.5-.8-1.1-.8c-.7 0-3.3-1.5-5.9-3.4-2.7-1.9-6.7-4.4-8.9-5.6-2.3-1.1-4.1-2.4-4.1-2.9s-1.1-1.2-2.5-1.5c-1.4-.4-2.5-1.3-2.5-2.2 0-.8-.5-1.2-1.1-.9-1.5 1-27.9-9.6-27.2-10.8.3-.6.1-.7-.5-.3-1 .6-13.9-2.1-26.2-5.4-15-4-58.1-6.4-79.5-4.5-8.6.8-8.8.5-6.7-9.7 1.2-5.5 1.5-9.4 1-10.8-.5-1.3-.7-2.8-.5-3.3.5-1.7-7.3-9.5-10.2-10.2-4.9-1-9.6-1.2-13.1-.5m15 4.8c5.3 3.9 6.3 11.3 3.5 23.7-1.1 4.7-1.3 7.1-.6 7.9.8 1 6.8 1.2 25.8.9 27-.5 54 1.5 67.8 5.1 30.9 8 50.3 16.4 72.3 31.3 13.1 8.9 17.9 12.9 29.8 24.8 11.8 11.7 19.6 21.9 28.7 37.7 8 13.7 11.3 21 16 34.8 8.9 26.3 10.8 37.7 11.4 67.6.8 34.3-1.4 50.1-12.2 87.9-6.5 22.7-17.9 48-34.7 76.7-4.2 7.2-18.4 27.6-22.2 31.9-1.4 1.6-2.6 3.2-2.6 3.5 0 3.3-35.6 40.2-55.9 57.7-10.9 9.5-38.8 29.7-48.1 34.9-2.5 1.4-7 4.1-10 6-7.8 4.9-41.7 22.8-43.3 22.8-.7 0-1.7.4-2.3.9-3.1 3.1-36.2 16-56.9 22.2-46.7 14-78.7 19.8-110.3 19.9-5.1 0-10.1.4-11.1 1-1.2.6-2.1 2.6-2.6 5.7-.3 2.6-2.2 11.3-4.1 19.3s-5.9 26-9 40c-3 14-6.6 30.7-8.1 37-4.3 19.7-12.4 58.2-14.4 69-.6 3-2.1 11.3-3.5 18.5-1.4 7.1-3.2 16.4-3.9 20.5-.8 4.1-2.6 13.8-4 21.5-3.8 20-11.1 63.8-15.6 93-4 26.1-4.9 32.2-5.9 41-.6 4.9-1.5 12.1-2 16-.6 3.8-1.7 13.3-2.6 21-.8 7.7-2 17.8-2.5 22.5s-1.4 13.9-1.9 20.5c-3.1 42-4.9 52.6-10 60.1-3.5 5-6.6 6.2-10.6 4.1-3.7-1.9-9.7-8.3-11.6-12.2-2-3.9-4.5-14.4-6.5-26.4-2.4-15-2.9-73.3-.9-103.1 1.7-24.6 3.1-41.4 4-46.5.2-1.7.7-6.8 1.1-11.5.8-10.9 3-28.2 5.5-44 1.1-6.9 3.1-20.2 4.5-29.5 3.3-21.8 11.3-68.9 16.5-96.5 1-5.8 3.7-21.1 6-34 2.2-12.9 6-32.1 8.5-42.5 2.4-10.5 5.6-24.9 7-32 1.4-7.2 3.7-18.2 5-24.5 3.8-17.8 4-17-6-22.6-10.5-5.9-21.8-16-25-22.5-3.2-6.2-3.4-13.5-.5-17.2 3.5-4.4 6.8-4.3 17.2.4 13.3 6 23.4 9.1 24.8 7.4.5-.6 2.8-8.6 4.9-17.6s10.5-42.7 18.5-74.9c13.8-54.8 20.4-80 32.7-125 2.8-10.2 5.3-19.4 5.6-20.5 3.5-13.1 18.4-64.7 22.3-77 2.9-8.8 6.4-20.1 8-25 5.8-18.3 19-57.4 23.1-68.5 2.3-6.3 7.4-21 11.4-32.5 4-11.6 8.1-22.8 9-24.9 2.8-6.5.4-6.5-18 .3-13.1 4.8-21.7 8.6-33.7 14.9-34.1 17.8-53.2 32.2-64.9 48.7-7.1 10-14.5 17.3-18.3 18-10.6 2-14.4-8.8-7.9-22 9.6-19.3 40.2-48.4 68-64.6 10.1-6 29.9-15.9 42.3-21.3 4.7-2.1 9.4-4.1 10.5-4.6 2.5-1.1 14.9-5 27-8.5 5-1.4 10.1-2.9 11.5-3.3s3.2-2.1 4-3.7c7.8-15.1 11-20.3 16.9-27.4 7.4-9 12.2-12.9 17.3-14.2 4.8-1.2 12.9-.2 15.8 1.9m-221 152.3c0 1.1-.4 1.8-1 1.4-.5-.3-.7-1.2-.3-2 .7-2.1 1.3-1.9 1.3.6m18.7 687.1c-.3.8-.6.5-.6-.6-.1-1.1.2-1.7.5-1.3.3.3.4 1.2.1 1.9" class="icon-part"/><path fill="#bd1e1f" d="M1381.2 395.9c-8.9 2.3-21.1 16.1-30.2 34.1-5.1 10.1-6.6 12-9.5 12-1.2 0-6 1.2-10.6 2.6-16.5 5-24.4 7.5-26.4 8.4-1.1.5-5.8 2.5-10.5 4.6-24.2 10.6-46.2 22.7-60.9 33.6-23.2 17.3-41.3 36.3-49.1 51.8-5.3 10.5-4.6 19.7 1.7 22.1 6.6 2.5 13.5-2.5 24.2-17.6 11.8-16.7 31.2-31.1 65.6-49 19.8-10.3 49.7-21.7 51.7-19.7.5.5 0 3-1.3 6.3-1.2 3-5.2 14.2-8.9 24.9s-8.6 24.7-10.9 31c-2.4 6.3-8 23-12.7 37-4.6 14-10.4 31.6-12.8 39-6.4 19.2-11.3 35.6-20 66.5-4.2 14.8-8.3 29.2-9.1 32-.8 2.7-3.2 11.5-5.3 19.5-2.2 8-6.9 25.5-10.5 39-3.7 13.5-12.5 48.3-19.7 77.5-7.2 29.1-13.5 54.1-14.1 55.5-.5 1.4-2.9 11.2-5.4 21.9s-5 20-5.6 20.7c-1.3 1.6-11.5-1.5-24.7-7.5-10.4-4.7-13.7-4.8-17.2-.4-2.9 3.7-2.7 11 .4 17.2 1.4 2.7 5.5 7.6 9.3 11.1 6.4 5.9 20.4 14.9 23.1 15 1.9 0 1.5 6.1-1.3 19-1.3 6.3-3.6 17.3-5 24.5-1.4 7.1-4.6 21.5-7 32-2.5 10.4-6.3 29.6-8.5 42.5-2.3 12.9-5 28.2-6 34-5.5 29.5-13.3 75.1-17 100-1.7 11.3-3.7 24.5-4.5 29.5-2 11.6-4.2 29.7-5 40.5-.4 4.7-.9 9.8-1.2 11.5-.2 1.6-1.5 15.6-2.8 31-2 24.4-2.3 33.2-2 68.5.2 41.7.8 49.1 5.1 66.6 2.2 8.8 3.7 12 8.3 16.7 7.6 8 12.2 8.4 17.1 1.3 5.2-7.6 6.9-18.1 10.1-60.6.4-6.3 1.3-15.3 1.8-20s1.5-13 2.1-18.5c.5-5.5 1.7-15.2 2.6-21.5.8-6.3 1.9-15.3 2.5-20 .9-8.3 1.8-14.4 5.8-40.5 4.5-29.2 11.8-73 15.6-93 1.4-7.7 3.2-17.4 4-21.5.7-4.1 2.5-13.4 3.9-20.5 1.4-7.2 2.9-15.5 3.5-18.5 1.2-6.3 8.7-42.6 10.6-51.5.8-3.3 3.4-15.5 5.9-27 6.7-31.4 11.1-51.4 15-67.5 1.9-8 3.8-16.7 4.1-19.3.5-3.1 1.4-5.1 2.6-5.7 1-.6 6-1 11.1-1 31.5-.1 63.7-5.9 110.3-19.9 20.7-6.2 53.8-19.1 56.9-22.2.6-.5 1.6-.9 2.3-.9 1.6 0 35.5-17.9 43.3-22.8 3-1.9 7.5-4.6 10-6 9.3-5.2 37.2-25.4 48.1-34.9 20.3-17.5 55.9-54.4 55.9-57.7 0-.3 1.2-1.9 2.6-3.5 3.8-4.3 18-24.7 22.2-31.9 17.5-29.8 28.4-54.3 35.2-78.7 1.2-4.4 3.1-10.9 4.1-14.5 2-7.2 3.2-13.3 6-29 1.5-8.8 1.7-15 1.5-38.5-.2-24.4-.6-29.4-2.5-39-6.1-29.8-14.5-51.2-29.3-75-13.4-21.4-30.8-39-54-54.8-22-14.9-41.4-23.3-72.3-31.3-13.9-3.6-40.8-5.6-68.2-5.2-21.2.4-25.3.2-25.8-.9-.3-.8.2-4.4 1-7.9 3.9-16.7.4-24.9-11-25.9-2.8-.2-6.5 0-8.3.4m69.8 67.6c14.3 2.2 23.2 4.1 32.5 7.2 67 21.9 99.5 62.2 110.4 137 3.1 20.8.3 56.8-6.1 80.3-8.8 32.1-19.6 57.5-34 80.4-3.9 6.1-8 12.7-9.1 14.6-1.2 1.9-2.4 3.7-2.7 4s-5.1 6.7-10.8 14.2c-11.8 15.7-19.2 24.2-33.6 38.1-9 8.8-14.9 14-32.1 28.3-7.6 6.3-40.5 28.2-53.5 35.6-34.2 19.5-66.8 32.7-106 43-7.5 2-8.9 2.3-25.5 5.3-9.4 1.7-26.9 2.4-28.1 1.2-.4-.4.2-3.7 1.4-7.5 1.2-3.7 2.6-9.2 3.2-12.2 1.6-7.7 3.4-15.5 6.9-30 1.7-6.9 4-16.6 5.1-21.5 1.1-5 3.4-13.7 5-19.5s4.1-15 5.5-20.5c1.5-5.5 3.7-13.6 5-18 1.2-4.4 3-11.6 4-16s2.4-10 3.1-12.5 2.7-9.9 4.3-16.5c5.1-20.8 12-47.5 16-61.5 4.3-14.8 12-43.3 15.7-57.7 2.1-8 9.5-34.1 15.4-53.8 1-3.3 5.4-18.5 9.9-33.7 4.4-15.3 8.8-29.7 9.7-32 .8-2.4 2.4-7.2 3.4-10.8 3.1-10.7 6.7-22.9 10.1-33.5 1.7-5.5 3.9-12.7 4.9-16 3.9-12.9 4-13 12.7-15 4.3-.9 8.3-1.9 8.8-2 3.4-1.1 39.5-.3 48.5 1" class="icon-part"/></svg>