<svg xmlns="http://www.w3.org/2000/svg" viewBox="0 0 2048 2048"><path fill="#a80000" d="M1381.2 395.9c-5.1 1.3-9.9 5.2-17.3 14.2-5.9 7.1-9.1 12.3-16.9 27.4-.8 1.6-2.6 3.3-4 3.7s-6.5 1.9-11.5 3.3c-14 4.1-25.9 7.8-27.5 8.6-.8.4-5.3 2.5-10 4.5-12 5.2-31.9 15.2-42.3 21.2-27.8 16.3-58.4 45.4-68 64.7-6.6 13.2-2.7 24 8 22 3.8-.7 10.8-7.4 16.6-16 2.2-3.3 6.6-8.6 9.6-11.9 17.6-18.5 59.2-42.8 94.3-55.1 15.3-5.4 17-5.2 14.3 1.1-1 2.1-4.7 12.7-8.5 23.4-3.7 10.7-8.8 25.3-11.4 32.5-2.6 7.1-8.5 24.5-13.2 38.5-4.6 14-10.4 31.6-12.8 39-6.4 19.3-11.4 35.7-20 66.5-4.2 14.8-8.3 29.2-9.1 32-.8 2.7-3.2 11.5-5.3 19.5-2.2 8-6.9 25.5-10.5 39-3.7 13.5-12.3 47.4-19.2 75.5-6.9 28-13.3 53-14.1 55.5-.7 2.5-3.4 13.2-5.9 23.9s-5 20-5.5 20.7c-1.4 1.6-11.5-1.4-23-6.8-10.6-5-15.3-5.4-18.6-1.5s-3.3 11 .1 17.6c3.2 6.5 14.5 16.6 25 22.5 10 5.6 9.8 4.8 6 22.6-1.3 6.3-3.6 17.3-5 24.5-1.5 7.1-4.6 21.5-7 32-2.4 10.4-6.3 29.6-8.5 42.5s-5 28.2-6 34c-4.2 22.6-13.9 79.4-16.5 96.5-1.4 9.9-3.5 23.4-4.6 30-2.4 15.1-4.6 32.5-5.4 43.5-.4 4.7-.9 9.8-1.1 11.5-.9 5.1-2.3 21.9-4 46.5-2 29.8-1.5 88.1.9 103.1 3.6 21.6 6 28.2 13.1 34.7 7.3 6.7 10.9 6.6 15.9-.5 4.8-6.9 6.7-18.8 9.8-60.3.4-6.3 1.3-15.3 1.8-20s1.5-13 2.1-18.5c.5-5.5 1.7-15.2 2.6-21.5.8-6.3 1.9-15.1 2.4-19.5 2.3-20.7 15.6-103.3 22-137 1.2-6.1 2.7-14.4 3.5-18.5 5.2-28.2 13.6-70.4 18-90.5.7-3.3 3.8-17.5 6.8-31.5 8.8-40.4 10.4-47.6 14.1-63 1.9-8 3.8-16.7 4.1-19.3.5-3.1 1.4-5.1 2.6-5.7 1-.6 6-1 11.1-1 31.6-.1 63.6-5.9 110.3-19.9 20.7-6.2 53.8-19.1 56.9-22.2.6-.5 1.6-.9 2.3-.9 1.8 0 35.1-17.8 48.9-26.1 27.5-16.6 52.2-35.8 74.4-57.9 25-25 32-33.2 50.2-59.5 18.1-26.1 35.7-63.1 43.8-92 1.2-4.4 3.1-11.1 4.2-14.9s2.3-8.9 2.8-11.5c.4-2.5 1.6-8.7 2.6-13.6 1.6-7.5 1.9-14 1.9-39 0-27.4-.2-31-2.3-41.5-7-34.8-19-62.6-37.7-87.5-18.4-24.6-49.5-48.9-78.1-60.9-34.4-14.5-60.6-19-107.1-18.4-17.1.2-25.5 0-26.3-.8s-.6-2.9.5-7.5c1.8-7.8 1.9-16.5.2-19.8-2.8-5.5-11.5-8.2-19.5-6.2m69.8 67.6c25.8 3.9 45 10 65.5 21 44.9 24 68.3 61.3 77.4 123.2 3.1 20.8.3 56.8-6.1 80.3-12.1 44.1-27.5 75-56.6 113.3-24 31.8-51.6 57.5-88 82.1-45.5 30.9-85.7 49.3-137.2 62.8-7.6 2-9.2 2.3-25.5 5.3-10.7 1.9-26 2.4-27.5.9-.7-.7-.4-2.8.9-7 1-3.2 2.4-8.6 3-11.9 3.6-17.6 18.7-78.9 23.6-95.5.7-2.5 2.4-8.8 3.9-14 2.4-8.8 3.6-13.9 10-40 4.3-17.8 13.5-52.8 17-64.6 1.9-6.6 4.2-14.8 5-18.4 3.8-15.5 19.5-72 25.3-91 1.9-6.3 7.1-23.7 11.4-38.7s8.6-29.2 9.5-31.5c.8-2.4 2.4-7.2 3.4-10.8 3.1-10.7 6.7-22.9 10.1-33.5 1.7-5.5 3.9-12.7 4.9-16 3.9-13 4-13.1 12.7-15 4.3-.9 8.3-1.8 8.8-2 3.1-1.1 39.3-.3 48.5 1m-374-31.4c-7.3.4-15.6 1.5-20 2.7-18.1 5-28.4 8.2-41.5 13.2-7.7 2.9-15.8 5.9-18 6.7-8 2.8-35.4 17-46.5 24-3 1.9-10 6.1-15.5 9.4-28.1 16.8-48.5 33.3-76.2 61.6-20.5 20.9-29.2 30.9-47.4 54.9-4.8 6.3-18.7 28.3-24.6 38.9-13.6 24.3-22.7 49.5-30.2 83.5-.6 2.5-1.7 11.1-2.6 19.2-2.9 27.4.4 55.2 9.1 76.9C780 864 806.8 891 846 906.3c17.5 6.9 32.8 9.7 52.5 9.7 13.5 0 22.2-1.2 33.4-4.6 16.2-4.9 26.8-11.4 29.6-17.9 1.2-2.6 1.1-3.3-.2-4.8-2-2.2-4.8-2.2-17.5.3-26.6 5.1-47.8 4.7-64.6-1.1-10.8-3.8-26.7-11.8-33.6-16.8-10.8-8-24.5-25-31.9-39.8-6.4-12.5-9.5-27.4-10.3-50.3-1.3-32.1 6.2-62.4 24.2-98.5 17.6-35.2 43.1-71.2 71.8-101.4 9.4-9.9 11.4-11.8 24.1-23.6 6.5-6.1 13.1-12.3 14.6-13.8 1.4-1.6 5.1-4.7 8.1-7 39.3-30.1 48.9-36.2 91.3-58.2 8.3-4.2 26.3-11.5 32.8-13.2 8.8-2.3 17.2-2.3 19.4 0 3.2 3.2 2.3 45.6-1.7 79.2-.9 8.1-1.3 11.8-3 32-.5 6-1.4 15.7-2 21.5-.5 5.8-1.5 15.9-2 22.5-.6 6.6-1.3 13.1-1.6 14.4s-.9 6.9-1.4 12.5c-1.7 18.1-4.9 48.8-6.9 64.6-1.1 8.5-2.2 19.1-2.6 23.5s-.9 8.9-1.1 10.1c-.4 2.3-1.6 12.9-3.9 35.4-2 19.1-3.1 28-6 48.5-1.4 9.3-3.1 21.9-3.9 28-7.7 56.7-10 73.7-11.7 84.5-1.1 6.9-4.4 29.1-7.4 49.5-9.8 66-14.7 96.1-24.5 151-8.9 50-20.3 104.3-23.1 109.7-.9 1.7-2.1 2.1-15.4 5.2-10.2 2.4-33.8 9.7-50.5 15.6-8 2.8-17.2 6-20.5 7.1-6.8 2.3-26.8 10.1-33.5 13.1-58.4 26.6-76.8 36.4-115.5 61.6-31.7 20.7-65.4 48.7-90.7 75.5-21.9 23.2-28.4 31.2-40.1 49.2-22.9 35.3-34.9 63.7-41.6 98.4-3.8 19.5-4.8 28.7-5 48.6-.4 32.9 5.8 61.3 18.9 87.6 8.4 16.8 16.2 27.8 27.8 39.3 11.9 11.8 19.2 17 33.7 24.1 22.6 11 36.1 14 61.5 13.9 26.3 0 40.4-3.3 66.5-15.3 13.7-6.2 20.2-10 32.9-18.9 26.4-18.6 51.5-44.4 74.5-76.7 9.5-13.3 23.5-35.7 29.5-46.8 2.3-4.5 6.9-12.9 10-18.6 3.1-5.6 7-13.1 8.5-16.5 1.6-3.3 5-10.6 7.5-16.1 7.4-15.7 12.9-28.2 17.8-40.5 10.1-25.2 28.5-75.8 32.2-89 1.5-5 4.9-16.2 7.7-24.8s7.7-26.3 11-39.2 7.3-28 8.9-33.5c4-13.9 13.3-51.7 17.4-71.4 2-9.1 4.2-17.1 5-17.9 1.3-1.3 8.7-3.8 22.8-7.7 8.1-2.2 18.8-7.7 21.8-11.2 3.5-3.9 3.8-6.3 1.1-8.7-2.4-2.1-12.6-2.6-29.5-1.2l-10.8.8.5-3.3c.2-1.9 1.9-10.6 3.6-19.4 8-41.9 14.2-75.2 16-87 1.1-7.2 2.3-14.8 2.6-17 .4-2.2 1.9-12.1 3.5-22 6.8-42.3 14.3-92.7 16-106.5.6-5.2 2.7-19.4 4.5-31.5 7.4-48.1 18.7-134.2 21.6-164 .6-6.1 1.5-14.2 2-18 .5-3.9 1.3-13 1.9-20.3.5-7.3 1.1-13.6 1.4-14 .3-.5.6-4.7.7-9.4.1-4.8.5-11.1 1-14 .8-5.9 1.3-12.3 2.9-37.3.6-9.4 1.5-22 2-28 2.8-32.4 3.5-52.5 3.5-102v-53l-2.7-14.8c-4.1-22.3-9-31.2-21-38.2-5-3-19-7.9-20.8-7.3-.3.1-6.1.5-13 .9m-99 854.8c0 7.4-24.3 97.8-36.9 137.6-17.5 55.2-25.1 75.6-46.3 126-5.7 13.6-25.8 54.8-34.3 70.3-7.3 13.5-24.5 40.5-34.7 54.5-22.3 30.6-41.7 49-69 65.6-22.6 13.7-52.5 17.8-73.6 10.1-20.8-7.7-39.1-24.3-50.9-46-12.9-23.9-19.3-53.2-17.7-81 .6-11.9 4.4-35.2 7.3-45 2.6-8.8 12.2-34.1 16.5-43.5 8.4-18.1 22.8-41.2 40-64.2 7.6-10.1 42.9-45.4 57.3-57.2 16.5-13.5 46.9-35.7 60.3-44 3-1.8 8.9-5.5 13-8.1 26.4-16.8 52.2-30.4 87-46 23.6-10.6 36.6-15.7 74-29.2 6.1-2.2 8-2.2 8 .1" class="icon-part"/><path fill="#003989" d="M163.5 497.2c-15.6 2.1-39.5 8.9-50 14.3-2.7 1.3-5.4 2.5-5.9 2.5-.4 0-2.9 1.4-5.5 3.1-2.5 1.8-5.8 3.5-7.2 3.9-1.5.5-8 4.3-14.5 8.6-9.1 6-15.2 11.2-26 21.9-20.7 20.6-29.4 34.1-37 57.4-4.5 13.7-6.4 25.7-6.4 40.6 0 20.6 2.4 34.4 8.8 51 4.4 11.6 6.3 15.1 13.1 25.5 3.1 4.7 5.8 9 6.1 9.7 1.3 3 19.9 21.7 24 24 2.5 1.5 5.2 3.2 6 3.9 6.2 5.1 23.2 12.9 34.6 16 8.9 2.4 11.7 2.7 27.4 2.8 13.9 0 18.9-.3 24-1.8 3.6-.9 7.9-2.1 9.5-2.5 4.8-1.3 16.9-7.6 22.7-11.9 11.1-8.2 17.8-16.7 17.8-22.7 0-5.2-7.8-5.2-15.4 0-2 1.4-4.3 2.5-4.9 2.5-.7 0-1.7.4-2.2.8-1.9 1.7-16.1 7-22 8.3-9 2-31.4 1.7-40-.5-19-4.9-38.4-18.9-52.7-38.1-14.5-19.3-19.4-36.8-18.5-66.1.4-13.9.8-17.1 3.4-25.9 3.6-11.8 8.7-22.3 14.8-30.4 6.5-8.5 21.9-23.2 30.7-29.3 4.2-2.9 9.6-6.7 12-8.3 7.6-5.3 25.7-13.3 36.8-16.4 16.3-4.4 26-5.3 49.4-4.8 18.8.4 23.8.8 33.6 3 11.1 2.4 30.8 8.6 36 11.2 2.4 1.3 13.3 5.4 15.5 5.9.6.1 2.5 1 4.3 1.9 1.7 1 3.2 1.5 3.2 1.2s2.4.9 5.3 2.8c2.8 1.8 7.9 4.6 11.2 6.1 3.3 1.6 7.4 3.9 9.2 5.2 1.7 1.3 3.4 2.4 3.8 2.4.5 0 26 17 34.8 23.3 8.2 5.8 29 22.5 36.1 29 4.3 4 8.2 7.3 8.7 7.5 1.7.7 45.3 42.3 59.3 56.6 16 16.4 25.6 26.6 32.3 34.1 3.8 4.4 11.5 12.8 16.9 18.6s11.4 12.3 13.3 14.5c1.8 2.1 8.1 9.1 14 15.5 13.4 14.7 21.9 24.2 31.1 34.9 3.9 4.7 7.7 8.9 8.3 9.5.7.5 4.8 5.3 9.1 10.5 4.4 5.2 9.4 11.1 11.2 13 7.3 7.9 17.8 20.7 47.9 58.5 11 13.7 29.6 36.6 32.2 39.5.7.8 3.5 4.2 6.1 7.4 2.6 3.3 7 8.4 9.7 11.5 2.8 3.1 8.2 9.4 12.2 14.1 3.9 4.7 9.4 10.7 12.2 13.5 4.7 4.5 5.2 4.8 6.7 3.3 1.4-1.4 1.2-2.3-2.9-10.4-2.4-4.9-5.3-10.5-6.4-12.4-2.4-4.2-24.5-37.6-26.8-40.5-.8-1.1-3-4.3-4.8-7-1.8-2.8-5-7.5-7.2-10.5-2.1-3-6.1-8.8-8.8-12.9-2.7-4-9-13-14-20-5-6.9-10.8-15.1-12.9-18.1-4.9-7-11.4-16.1-20.8-28.9-4.1-5.6-9.1-12.4-11-15.1-1.9-2.6-6.2-8.1-9.5-12.2-3.3-4-7.6-9.5-9.5-12.1-4.6-6.2-27.5-35.4-34.2-43.5-2.9-3.5-7.5-9.1-10.2-12.5-9.7-12.1-30.6-36.7-42.6-50.1-2.5-2.8-6.3-7.1-8.4-9.6-11.3-13.2-70.6-71.5-77.6-76.3-1.4-.9-7.2-5.8-13-10.7-5.8-5-15.7-12.9-22-17.6s-12.6-9.5-14-10.5c-4.2-3.3-24.2-16.3-30.3-19.9-1.8-1-7-4-11.7-6.7s-9.4-5.5-10.5-6.1c-3.7-2.1-21-10-23.5-10.7-1.4-.4-3.8-1.3-5.5-2-9.8-4.3-12.9-5.5-14-5.5-.8 0-2.6-.6-4.2-1.4-3-1.5-17.5-5.4-30.8-8.2-9.4-2-58.1-2.8-70-1.2" class="icon-part"/><path fill="#003989" d="M133.7 625.7c-.2.5 4.9 5.7 11.5 11.8 24.5 22.5 47 46.4 60.2 63.8 4.8 6.5 11.4 14.9 14.5 18.7 6.5 8 16.9 21.9 22.7 30.5 2.2 3.3 11.8 17.7 21.3 32s19.5 29.3 22.2 33.2c2.7 4 4.9 7.6 4.9 7.9 0 .4 1.1 2.2 2.5 4s2.5 3.6 2.5 4.1 1.9 3.3 4.1 6.3c2.3 3 4.6 6.6 5.2 8s2.2 3.9 3.4 5.6c3 4.1 12.3 19.5 12.3 20.4 0 .4.7 1.4 1.6 2.1s2 2.2 2.6 3.4c2 4.2 20.2 35.1 25.7 43.5 1.9 3 4.3 7.1 5.3 9s4.4 7.5 7.7 12.5c3.3 4.9 6.5 10 7 11.2.5 1.1 1.4 2.4 2 2.7.6.4 1.9 2.7 3 5.2s3.4 6.5 5.1 9c1.6 2.5 3 4.6 3 4.8 0 .7 10 17.6 14.1 23.8 2.4 3.7 7.3 11.3 10.9 16.9s9.2 14.4 12.5 19.6c3.3 5.1 8.5 13.2 11.5 18 6.5 10.3 20.6 29.8 26.5 36.8 2.4 2.7 6.2 7.5 8.6 10.6 13.3 17.2 31.1 36.4 45.9 49.5 15.9 13.9 40.9 30.8 54.5 36.7 12.2 5.2 32.2 12.5 39 14.1 21.2 5 45.3 4.6 63-1.1 13.1-4.1 29-14.7 40.4-26.7 4.4-4.7 5.6-5.5 6.6-4.4.7.7 4.5 5.1 8.5 9.8 12.3 14.4 28 23.9 44.6 26.9 3.2.6 7 1.4 8.4 1.7 5.1 1.3 45.4 1.6 56.4.4 6.1-.6 14-1.3 17.6-1.6 28.9-2.1 69.3-7.5 78.6-10.5 1.8-.5 4-1.9 4.9-2.9 1.7-1.9 1.7-2-2.1-3.7-3.5-1.6-9.6-1.9-62.9-2.4-59.8-.7-70-1.2-88.1-4.7-22.3-4.2-34.4-14.4-41.3-34.8-3.3-9.5-3.3-30.2-.1-45.9 2.4-11.3 10.7-27.2 17.7-33.6 3.6-3.4 20.9-13.7 28.8-17.1 8.4-3.7 45.6-13.2 56-14.3 6.5-.7 16.4-1.5 24.5-2 4.7-.3 13.2-1 19-1.5 5.8-.6 23.6-.9 39.5-.8 22.2.2 29.5 0 31.3-1 3.1-1.8 2.8-2.9-1.5-5.1-8.5-4.2-21.2-7-41.8-9.1-4.4-.5-12.3-1.4-17.5-2-22.9-2.6-57.1-1.8-82.5 2-22.2 3.4-27.5 4.7-44 10.9-14.3 5.4-25.8 12.7-34.8 22.2-16.8 17.6-25 33.3-29.1 55.9-1.7 9.5-5.4 19-11.9 30.5-8.9 15.7-22.8 26.9-39 31.2-9.5 2.6-29.7 2.3-40.7-.6-27.7-7.2-52.9-20.5-76-40-16.9-14.3-44.6-43.3-53.5-56.1-2.1-3-6.5-9-9.7-13.3-12.2-16.1-41.8-59.5-53.8-78.8-7.6-12.2-13-20.6-23.2-35.9-4.9-7.1-8.8-13.3-8.8-13.6 0-.8-15.5-25.2-23.4-36.9-3.4-5-7.5-11.3-9.1-14-5.3-9.1-38.3-59.2-48.4-73.5-3.3-4.7-8.6-12.3-11.7-17-6-8.8-14.2-20-19.1-25.9-1.5-1.8-3.7-4.8-4.9-6.7-3.2-5.2-28.8-37.4-41.5-52.3-16.1-18.8-47.9-49.6-58.5-56.7-2.1-1.4-5.7-4-7.9-5.8-2.2-1.7-6.2-4.3-9-5.8-2.7-1.4-8.1-4.2-11.8-6.2-6.5-3.4-11.1-4.5-12-2.9" class="icon-part"/><path fill="#003989" d="M204.4 805.3c-.4 1.1 6.5 15.9 10.6 22.7.5.8 3.4 5.7 6.4 10.7 3.1 5.1 5.6 9.5 5.6 9.7 0 .3 2.3 4.1 5 8.6 2.8 4.5 5 8.4 5 8.7s.9 1.8 2.1 3.4c1.2 1.7 3.8 6 5.8 9.7 2.1 3.7 6.9 11.9 10.8 18.2 10.6 17.6 17.3 29 17.3 29.5 0 .3 1.2 2.4 2.7 4.8 1.5 2.3 4.5 7.6 6.6 11.7 2.2 4.1 4.7 8.6 5.7 10 .9 1.4 4.1 7 7 12.5 8.3 15.6 11.6 21.7 13.8 25.6 1.1 2.1 3.5 6.6 5.3 10 1.8 3.5 4.3 8 5.5 10 1.3 2 6.6 12.1 11.9 22.5s10 19.6 10.5 20.4 3.8 6.9 7.3 13.5c11.4 21.3 13.4 24.9 15.7 29 1.3 2.2 4.2 7.4 6.5 11.5 25.6 45.9 57 85.5 87.7 111 3.7 3 6.9 6.2 7.3 7.1.7 2.2-1.5 11.7-6.8 28.9-2.4 8-5.4 18.5-6.7 23.5-1.2 4.9-2.6 9.9-3 11-1.8 4.3-12.1 37.8-16 52-6.1 22-13.7 48.6-17.2 59.5-9 28.9-18.9 61.6-20.8 69-1.2 4.7-3.6 13.4-5.5 19.5-1.8 6-3.9 14.7-4.6 19.3-1.1 7.8-1 8.5.8 11 1.1 1.4 3.5 3 5.4 3.5 4.5 1.2 12.9.3 17-1.8 8.2-4.3 19.2-18.1 27.1-34 1.3-2.8 4.9-10 8-16 3-6.1 8.1-16.6 11.2-23.5 3.2-6.9 6.4-13.6 7.1-15s4-8.4 7.3-15.5c3.3-7.2 8.9-19.1 12.5-26.5 3.5-7.5 6.7-14.6 7.1-15.8s2.7-6.1 5-10.9c2.4-4.9 5.8-12.2 7.6-16.3s5.6-12.2 8.5-18 6.8-14.3 8.8-19c5.5-13.2 19.3-41.4 20.9-42.7 1.1-1 3.7-.6 12.4 1.8 13.6 3.7 41.2 9.3 56.4 11.5 14.9 2.1 66.5 3.1 80 1.5 5.2-.6 14.4-1.3 20.3-1.6 6-.3 11.2-.7 11.7-1s6-1 12.2-1.6c9.6-.8 16.9-1.9 28.3-4.3 1.1-.2 4.5-.7 7.5-1.1 21.2-2.8 89.8-18.4 99.8-22.6 12.6-5.4-3.2-5.9-51.8-1.5-9.6.9-18.8 1.8-20.5 2-1.6.3-10.6 1-20 1.5-9.3.6-24.2 1.6-33 2.2-9.2.6-31.2.9-51.5.6-35.3-.4-49.6-1.4-75.4-5.3-10.8-1.6-42.3-9.5-53.9-13.4-15.6-5.4-43.2-19.7-61.7-32-19.3-13-49.4-42.6-66.4-65.5-7.4-9.9-22.3-31.9-25.2-37-.6-1.1-4.6-7.3-8.8-13.7-4.3-6.5-9.4-14.7-11.4-18.2-18.9-33.3-47.1-79.9-50.8-84-.9-1.1-3.1-4.7-4.9-8-5-9.6-7.8-13.9-38.2-59.6-30.6-45.8-39.5-58.4-49.2-69.7-4.9-5.6-10.9-13.6-15.3-20.3-4.1-6.3-22.4-25-24.5-25-.8 0-1.6.6-1.9 1.3m1456.5 163.1c-.2.2-15.2 1.1-33.4 2-70.9 3.5-104.3 6.5-115 10.6-2.6 1-2.7 1.2-1.3 2.7 1.2 1.2 5 1.8 15.5 2.4 18.4 1.1 120.5 2.9 167.3 3 20.6 0 39.9.4 42.8.9s12.5 1 21.5 1.1c8.9.1 17.5.6 19.2 1.1 1.6.5 9.3 1.3 17 1.9s16.7 1.5 20 2c3.3.6 8.3 1.4 11 1.8 2.8.5 8.4 1.4 12.5 2 4.1.7 9.8 1.8 12.5 2.5 2.8.8 8.2 2.1 12 3 21 4.9 46.2 13.5 60.6 20.6 16.8 8.2 25 14 37.1 26.1 10.2 10.2 11 11.3 17.2 24 7.4 15.2 9.8 24.4 9.7 37.9-.1 13.6-2.4 23.1-8.8 35-9.7 18.3-30.6 32.1-71.3 46.7-23.3 8.4-40.1 12.7-66.5 16.8-8.8 1.4-19.8 3.2-24.5 4-14.3 2.5-21.9 3.3-38.5 4.5-8.8.5-21.6 1.5-28.5 2-6.9.6-65.6 1.2-130.5 1.5s-119.8.7-122 1c-2.2.2-33.5.7-69.5 1-65.3.6-116.6 2.3-150.2 5-26.5 2.1-35.1 4-42.7 9.5-7.1 5.2-6.6 11.1 1.3 14.8 10.2 4.8 20 5.1 151.1 4.4 207.9-1.2 323.2-.5 327.8 1.9.9.6 1.7 1.5 1.7 2.2s.7 2.5 1.6 4.2c.9 1.6 2.6 5.5 3.9 8.5 3.2 7.6 7.6 17.1 15.2 33 3.6 7.4 8.2 17.3 10.3 22s5.8 12.8 8.3 18c2.4 5.2 5.7 12.2 7.2 15.5s6.5 13.8 11.1 23.3 8.4 17.4 8.4 17.6c0 .3 1.5 3.7 3.4 7.8 1.8 4 5.6 12.3 8.5 18.5 10.9 23.9 31 64.4 35.3 70.9 9 13.8 17.4 19.5 30 20.2 6.1.4 6.9.2 9.2-2.1 2.9-2.9 3.2-5.9 1.5-15.3-1.2-6.7-10.7-42-14.3-53.4-1.4-4.1-3.3-10.7-4.5-14.5-5.1-18-15.4-52.8-17.6-59.5-2.1-6.7-8.4-27.6-12-40-.7-2.5-3-10.3-4.9-17.4-2-7-6.3-21.5-9.6-32.2-3.2-10.7-6.5-22.1-7.2-25.5-1.6-7.8-.8-8.5 11.5-9.4 25.7-1.9 65-9.8 91.7-18.5 8-2.6 16.8-5.4 19.5-6.3 22.3-7 44.7-19.2 60.6-33 30-26.2 42.7-61.6 35.3-98.1-1.7-8.6-9.1-30.1-13-37.7-3.1-6.1-10.7-17.2-16.3-23.7-9.5-11-25.4-22.3-44.7-32-5.4-2.7-13.5-6.2-17.9-7.9s-10.9-4.2-14.5-5.6c-6.7-2.5-19.2-6.1-36-10.2-12-3-49.8-9-65-10.4-27.6-2.5-37.6-2.8-92.1-3-31.6-.1-57.7.1-58 .3m-940.3 22.5c-.7 1 2.8 4.3 3.7 3.5.8-.8-1.1-4.4-2.3-4.4-.5 0-1.1.4-1.4.9" class="icon-part"/><path fill="#003989" d="M1923 1137.9c-1.4.5-5.6 2.4-9.5 4.3-11.3 5.7-29.2 11.3-48.6 15.4-5.3 1-28.3 4.5-33.7 5-3.1.2-9.3.9-13.7 1.4s-18.1 1.2-30.5 1.5c-12.4.4-24.3.9-26.5 1.2-2.2.2-59.8.6-128 .8-117.1.4-187.5 1-213.5 2-6.3.3-18.9.7-28 1-27.3.8-47.1 1.6-54.5 2.1-3.8.2-18.2.9-32 1.4-25.9 1-40.2 2.3-41.7 3.8-1 1 1.5 3.4 4.1 4 .9.2 8.6.8 17.1 1.3s21.4 1.3 28.5 1.8c16.8 1.1 416.2 1.2 428 .1 5-.5 14.6-.9 21.5-1.1 32.2-.4 74.1-5.1 104-11.6 15.6-3.3 38-11.9 48.7-18.6 7.2-4.5 13.5-11.3 13.1-14.1-.4-2.3-1.4-2.7-4.8-1.7" class="icon-part"/></svg>