<?xml version="1.0" standalone="no"?>
<!DOCTYPE svg PUBLIC "-//W3C//DTD SVG 20010904//EN"
 "http://www.w3.org/TR/2001/REC-SVG-20010904/DTD/svg10.dtd">
<svg version="1.0" xmlns="http://www.w3.org/2000/svg"
 width="5500.000000pt" height="5500.000000pt" viewBox="0 0 5500.000000 5500.000000"
 preserveAspectRatio="xMidYMid meet">
<metadata>
Created by potrace 1.16, written by Peter Selinger 2001-2019
</metadata>
<g transform="translate(0.000000,5500.000000) scale(0.100000,-0.100000)"
fill="#000000" stroke="none">
<path d="M26780 50430 c-281 -36 -529 -272 -626 -596 -38 -127 -45 -332 -16
-454 61 -256 234 -522 532 -820 209 -210 486 -435 743 -605 l87 -58 88 58
c256 170 533 395 742 605 298 298 471 564 532 820 29 122 22 327 -16 454 -149
497 -626 741 -1004 514 -111 -68 -245 -213 -312 -341 -14 -26 -28 -47 -31 -47
-3 0 -11 12 -18 28 -24 51 -104 164 -159 224 -151 163 -350 243 -542 218z"/>
<path d="M13893 49260 c-40 -24 -53 -48 -53 -98 0 -50 29 -88 78 -102 26 -8
1800 -10 5995 -8 l5959 3 34 37 c52 58 40 139 -26 173 -26 13 -681 15 -5992
15 -5887 0 -5963 0 -5995 -20z"/>
<path d="M29118 49264 c-33 -18 -58 -62 -58 -104 0 -21 11 -42 34 -68 l34 -37
5959 -3 c4195 -2 5969 0 5995 8 50 14 78 52 78 104 0 48 -19 80 -60 101 -26
13 -721 15 -5992 15 -5255 -1 -5966 -3 -5990 -16z"/>
<path d="M20291 43995 c-37 -32 -48 -67 -55 -180 -9 -157 -73 -331 -185 -500
-73 -110 -247 -278 -381 -368 -250 -166 -532 -272 -863 -323 -158 -25 -518
-25 -677 -1 -240 37 -441 99 -647 197 -68 32 -124 55 -127 52 -2 -4 -18 -54
-36 -112 -42 -136 -77 -214 -145 -315 -243 -366 -705 -626 -1265 -712 -159
-24 -499 -24 -665 1 -428 63 -806 234 -1068 485 -221 211 -339 435 -370 701
l-12 105 -105 0 -105 0 -3 -59 c-9 -174 84 -453 216 -647 279 -411 768 -698
1366 -800 172 -30 521 -37 710 -15 717 83 1324 459 1576 973 l43 90 90 -34
c181 -68 404 -121 602 -143 238 -26 574 -9 815 41 645 133 1174 525 1378 1019
37 91 70 214 79 293 l6 57 3099 0 3100 0 34 34 c28 28 34 42 34 76 0 34 -6 48
-34 76 l-34 34 -3170 0 -3170 0 -31 -25z"/>
<path d="M28304 43986 c-28 -28 -34 -42 -34 -76 0 -34 6 -48 34 -76 l34 -34
3101 0 3101 0 0 -32 c0 -18 9 -73 20 -121 127 -577 704 -1064 1440 -1216 242
-51 577 -67 815 -41 198 22 422 75 602 143 l90 34 41 -87 c144 -298 418 -560
772 -738 249 -126 517 -205 806 -238 189 -22 538 -15 710 15 598 102 1087 389
1366 800 132 194 225 473 216 647 l-3 59 -105 0 -105 0 -12 -105 c-31 -266
-149 -490 -370 -701 -262 -251 -640 -422 -1068 -485 -166 -25 -506 -25 -665
-1 -600 92 -1081 381 -1314 791 -25 43 -63 135 -86 205 -22 69 -42 131 -45
138 -3 8 -45 -8 -127 -47 -207 -98 -408 -160 -648 -197 -159 -24 -519 -24
-677 1 -331 51 -613 157 -863 323 -134 90 -308 258 -381 368 -112 169 -176
343 -185 500 -7 113 -18 148 -55 180 l-31 25 -3170 0 -3170 0 -34 -34z"/>
<path d="M14745 37709 c-88 -13 -159 -36 -244 -79 -471 -236 -666 -861 -426
-1367 116 -247 294 -411 536 -495 l94 -33 5770 -3 c4217 -2 5777 1 5797 9 37
15 61 55 61 102 0 30 -7 46 -32 70 l-31 32 -5758 5 -5757 5 -78 28 c-173 61
-302 178 -387 351 -75 151 -85 201 -84 396 0 153 2 171 28 250 68 210 192 362
362 448 74 37 165 62 229 62 113 0 175 82 129 171 -27 54 -82 66 -209 48z"/>
<path d="M40093 37706 c-17 -8 -39 -28 -47 -45 -46 -89 16 -171 129 -171 64 0
155 -25 229 -62 171 -86 295 -240 361 -448 40 -125 47 -320 15 -456 -60 -262
-228 -460 -457 -541 l-78 -28 -5757 -5 -5758 -5 -31 -32 c-25 -24 -32 -40 -32
-70 0 -47 24 -87 61 -102 20 -8 1580 -11 5797 -9 l5770 3 94 33 c242 84 420
248 536 495 240 508 45 1131 -429 1369 -135 68 -335 105 -403 74z"/>
<path d="M27371 36990 c-153 -22 -330 -100 -458 -203 -142 -114 -266 -304
-315 -482 -30 -110 -32 -356 -4 -459 85 -316 322 -569 621 -665 511 -165 1048
135 1191 665 28 103 26 349 -4 459 -90 327 -365 592 -693 670 -81 19 -255 27
-338 15z m303 -240 c210 -53 394 -211 477 -409 111 -264 49 -575 -155 -776
-84 -82 -171 -135 -281 -172 -71 -24 -95 -27 -215 -27 -120 0 -144 3 -215 27
-110 37 -197 90 -281 172 -116 114 -183 253 -205 424 -21 164 26 346 125 485
94 132 243 235 398 276 100 26 250 26 352 0z"/>
<path d="M27300 29900 c-374 -23 -758 -118 -1026 -253 -184 -93 -365 -244
-451 -376 -34 -52 -68 -128 -89 -198 -3 -10 -1123 -13 -5558 -13 l-5554 0 -22
64 c-79 238 -334 406 -580 381 -81 -8 -185 -43 -249 -84 -70 -46 -164 -148
-200 -219 -43 -85 -61 -161 -61 -257 0 -160 57 -292 175 -404 156 -148 363
-196 559 -130 164 56 303 193 356 355 l22 64 5554 0 c4435 0 5555 -3 5558 -12
40 -135 99 -232 207 -339 247 -245 667 -412 1194 -475 167 -19 539 -22 695 -5
543 60 979 231 1231 481 106 105 165 204 205 338 3 9 1123 12 5558 12 l5554 0
22 -64 c53 -162 192 -299 356 -355 196 -66 403 -18 559 130 227 216 237 563
22 786 -33 35 -82 77 -108 94 -64 41 -168 76 -249 84 -246 25 -501 -143 -580
-381 l-22 -64 -5554 0 c-4435 0 -5555 3 -5558 13 -40 134 -99 231 -207 338
-339 337 -1044 533 -1759 489z m625 -249 c276 -42 486 -102 670 -191 131 -63
214 -118 293 -194 64 -60 142 -166 142 -193 0 -10 -22 -13 -95 -13 -142 0
-195 -32 -195 -115 0 -83 53 -115 195 -115 73 0 95 -3 95 -13 0 -24 -75 -131
-131 -185 -191 -188 -567 -339 -989 -397 -164 -23 -488 -30 -661 -16 -488 42
-904 188 -1127 396 -72 67 -152 173 -152 202 0 10 22 13 95 13 142 0 195 32
195 115 0 83 -53 115 -195 115 -73 0 -95 3 -95 13 0 29 80 135 152 202 215
200 622 347 1093 395 151 15 560 4 710 -19z"/>
<path d="M26205 24498 c-3 -7 -4 -326 -3 -708 l3 -695 110 0 110 0 0 705 0
705 -108 3 c-80 2 -109 -1 -112 -10z"/>
<path d="M26995 24498 c-3 -7 -4 -326 -3 -708 l3 -695 110 0 110 0 0 705 0
705 -108 3 c-80 2 -109 -1 -112 -10z"/>
<path d="M27785 24498 c-3 -7 -4 -326 -3 -708 l3 -695 110 0 110 0 0 705 0
705 -108 3 c-80 2 -109 -1 -112 -10z"/>
<path d="M28575 24498 c-3 -7 -4 -326 -3 -708 l3 -695 110 0 110 0 0 705 0
705 -108 3 c-80 2 -109 -1 -112 -10z"/>
<path d="M13893 23780 c-40 -24 -53 -48 -53 -98 0 -50 29 -88 78 -102 26 -8
1801 -10 5995 -8 l5959 3 34 37 c54 60 41 138 -30 172 -31 15 -498 16 -5993
16 -5882 0 -5958 0 -5990 -20z"/>
<path d="M29122 23783 c-69 -34 -82 -112 -28 -171 l34 -37 5959 -3 c4194 -2
5969 0 5995 8 50 14 78 52 78 104 0 48 -19 80 -60 101 -26 13 -720 15 -5987
15 -5483 0 -5961 -2 -5991 -17z"/>
<path d="M27390 18729 c-181 -82 -228 -311 -92 -453 54 -57 123 -86 202 -86
252 0 376 308 194 482 -57 54 -116 78 -194 78 -44 0 -80 -7 -110 -21z"/>
<path d="M33675 18743 c-1600 -21 -3132 -68 -4845 -149 -190 -8 -351 -18 -359
-20 -49 -15 49 -26 394 -44 1236 -63 2647 -109 4340 -142 792 -15 3384 -15
4180 0 1693 33 3011 76 4335 142 350 18 448 29 399 44 -15 5 -433 25 -1149 56
-1217 52 -2499 89 -3845 110 -533 8 -2904 11 -3450 3z"/>
<path d="M18615 18563 c-715 -5 -1905 -28 -2760 -53 -1150 -34 -2951 -110
-2977 -126 -23 -15 14 -22 149 -28 81 -4 283 -13 448 -21 1333 -65 2847 -111
4450 -136 839 -13 3538 -7 4260 10 1079 25 1844 47 2600 76 721 28 1733 75
1754 81 47 15 -48 25 -409 43 -2328 118 -5020 173 -7515 154z"/>
<path d="M27351 14544 c-196 -52 -363 -214 -423 -409 -26 -82 -30 -220 -9
-305 48 -199 206 -367 411 -436 41 -14 84 -19 170 -19 178 0 293 48 420 175
121 120 175 252 174 425 -2 265 -188 502 -449 570 -74 19 -222 19 -294 -1z"/>
<path d="M11565 14162 c-43 -20 -101 -79 -116 -119 -16 -42 -11 -131 10 -171
57 -111 178 -151 289 -96 148 74 160 274 22 369 -55 38 -145 45 -205 17z"/>
<path d="M12690 14167 c-105 -49 -158 -153 -130 -255 14 -53 72 -119 125 -143
155 -71 330 73 294 242 -13 58 -68 125 -123 150 -46 21 -128 24 -166 6z"/>
<path d="M13793 14159 c-85 -42 -128 -120 -120 -212 6 -70 39 -125 99 -164 36
-24 52 -28 113 -28 61 0 77 4 113 28 113 75 136 225 49 324 -63 72 -171 93
-254 52z"/>
<path d="M14920 14165 c-147 -66 -176 -257 -56 -362 130 -115 340 -26 354 151
5 67 -35 148 -96 190 -52 37 -145 46 -202 21z"/>
<path d="M16018 14152 c-133 -77 -155 -235 -46 -339 93 -89 226 -82 310 17 74
86 70 205 -9 282 -76 74 -172 89 -255 40z"/>
<path d="M17142 14159 c-74 -37 -122 -115 -122 -200 0 -49 42 -132 81 -161
148 -110 349 -14 349 167 0 159 -167 264 -308 194z"/>
<path d="M18265 14161 c-172 -79 -164 -324 12 -398 63 -26 148 -13 209 33 39
29 84 116 84 162 0 160 -163 269 -305 203z"/>
<path d="M19385 14161 c-58 -26 -110 -88 -125 -149 -30 -129 76 -262 210 -262
126 0 233 124 214 247 -20 136 -175 221 -299 164z"/>
<path d="M20510 14169 c-84 -34 -146 -132 -138 -219 17 -174 225 -261 354
-147 121 106 90 300 -58 361 -42 18 -120 20 -158 5z"/>
<path d="M21615 14162 c-155 -72 -168 -284 -23 -379 36 -24 52 -28 113 -28 61
0 77 4 113 28 23 15 54 46 69 69 24 36 28 52 28 113 0 61 -4 77 -28 113 -41
63 -97 96 -171 99 -44 3 -72 -2 -101 -15z"/>
<path d="M22734 14161 c-129 -59 -168 -224 -76 -331 89 -105 230 -106 324 -2
151 168 -41 427 -248 333z"/>
<path d="M23870 14173 c-40 -14 -94 -61 -118 -102 -58 -99 -24 -230 74 -287
112 -66 246 -27 305 87 21 41 26 130 10 172 -16 40 -73 99 -116 118 -38 18
-122 24 -155 12z"/>
<path d="M24963 14160 c-154 -78 -165 -282 -21 -377 36 -24 52 -28 113 -28 61
0 77 4 113 28 23 15 54 46 69 69 24 36 28 52 28 113 0 61 -4 77 -28 113 -41
63 -97 96 -171 100 -48 2 -70 -2 -103 -18z"/>
<path d="M26090 14165 c-147 -66 -176 -257 -56 -362 130 -115 335 -28 353 149
4 45 1 61 -24 108 -41 77 -94 113 -176 117 -41 2 -74 -2 -97 -12z"/>
<path d="M28860 14164 c-56 -24 -109 -82 -125 -139 -51 -170 129 -330 290
-256 53 24 111 90 125 142 45 166 -133 321 -290 253z"/>
<path d="M29853 14160 c-154 -78 -165 -282 -21 -377 36 -24 52 -28 113 -28 61
0 77 4 113 28 23 15 54 46 69 69 24 36 28 52 28 113 0 61 -4 77 -28 113 -41
63 -97 96 -171 100 -48 2 -70 -2 -103 -18z"/>
<path d="M30975 14162 c-43 -20 -101 -79 -116 -119 -16 -42 -11 -131 10 -172
59 -114 193 -153 305 -87 133 78 136 276 4 363 -53 36 -144 42 -203 15z"/>
<path d="M32100 14167 c-105 -49 -158 -153 -130 -255 14 -53 72 -119 125 -143
155 -71 330 74 294 242 -12 58 -68 125 -123 150 -46 21 -128 24 -166 6z"/>
<path d="M33203 14159 c-85 -42 -128 -120 -120 -212 6 -70 39 -125 99 -164 36
-24 52 -28 113 -28 61 0 77 4 113 28 113 75 136 225 49 324 -63 72 -171 93
-254 52z"/>
<path d="M34330 14165 c-147 -66 -176 -257 -56 -362 130 -115 340 -26 354 151
5 69 -35 149 -96 190 -52 37 -145 46 -202 21z"/>
<path d="M35427 14152 c-126 -72 -150 -236 -50 -334 93 -91 213 -91 306 0 172
168 -47 454 -256 334z"/>
<path d="M36552 14159 c-74 -37 -122 -115 -122 -201 0 -46 45 -133 84 -162
145 -108 346 -10 346 169 0 159 -167 264 -308 194z"/>
<path d="M37675 14161 c-172 -79 -164 -324 12 -398 64 -26 148 -13 212 35 39
29 81 112 81 161 0 159 -163 268 -305 202z"/>
<path d="M38795 14161 c-58 -26 -110 -88 -125 -149 -39 -163 134 -311 288
-246 42 17 97 67 117 104 89 173 -102 372 -280 291z"/>
<path d="M39901 14158 c-47 -23 -93 -79 -112 -135 -27 -83 17 -192 97 -239
148 -87 324 12 324 181 0 160 -166 264 -309 193z"/>
<path d="M41025 14162 c-155 -72 -168 -284 -23 -379 36 -24 52 -28 113 -28 61
0 77 4 113 28 23 15 54 46 69 69 24 36 28 52 28 113 0 61 -4 77 -28 113 -41
63 -97 96 -171 99 -44 3 -72 -2 -101 -15z"/>
<path d="M42144 14161 c-85 -39 -144 -147 -125 -231 42 -184 248 -240 373
-102 152 168 -40 427 -248 333z"/>
<path d="M43280 14173 c-65 -23 -130 -100 -145 -171 -18 -86 33 -184 117 -226
111 -55 232 -15 289 96 21 40 26 129 10 171 -16 40 -73 99 -116 118 -38 18
-122 24 -155 12z"/>
<path d="M25553 11101 c-39 -25 -53 -49 -53 -96 0 -76 55 -115 163 -115 145 0
347 -56 473 -131 91 -54 188 -155 226 -235 30 -62 33 -78 33 -159 0 -80 -3
-97 -32 -157 -79 -167 -275 -297 -528 -349 -87 -18 -267 -19 -5921 -19 -3889
0 -5873 -3 -5957 -10 -299 -24 -536 -126 -712 -304 -142 -143 -199 -271 -199
-446 0 -243 141 -452 408 -604 148 -85 385 -146 564 -146 82 0 85 1 118 34 28
28 34 42 34 76 0 34 -6 48 -34 76 -28 28 -41 34 -78 34 -78 0 -222 22 -308 47
-283 81 -465 256 -478 459 -6 91 15 164 71 246 82 120 246 222 442 276 l100
27 5955 5 5955 5 90 22 c453 107 739 389 739 728 0 396 -404 719 -940 751 -88
5 -102 3 -131 -15z"/>
<path d="M29225 11109 c-418 -54 -739 -283 -831 -594 -24 -80 -24 -220 0 -300
83 -281 342 -489 721 -578 l90 -22 5955 -5 5955 -5 100 -27 c196 -54 360 -156
442 -276 186 -273 5 -586 -407 -705 -86 -25 -230 -47 -308 -47 -37 0 -50 -6
-78 -34 -28 -28 -34 -42 -34 -76 0 -34 6 -48 34 -76 33 -33 36 -34 118 -34
179 0 416 61 564 146 267 152 408 361 408 604 0 175 -57 303 -199 446 -176
178 -413 280 -712 304 -84 7 -2068 10 -5957 10 -5654 0 -5834 1 -5921 19 -253
52 -449 182 -528 349 -29 60 -32 77 -32 157 0 81 3 97 33 159 38 80 135 181
226 235 126 75 328 131 473 131 109 0 163 39 163 117 0 100 -74 127 -275 102z"/>
<path d="M27435 6428 c-14 -13 -47 -58 -73 -100 -98 -162 -180 -266 -317 -404
-146 -147 -261 -238 -407 -325 -113 -67 -133 -89 -133 -144 0 -55 21 -78 124
-138 146 -86 257 -173 402 -317 153 -152 234 -253 326 -408 65 -108 91 -132
143 -132 52 0 78 24 143 132 92 155 173 256 326 408 145 144 256 231 402 317
103 60 124 83 124 138 0 55 -20 77 -133 144 -281 167 -544 431 -724 729 -59
97 -87 122 -138 122 -26 0 -48 -7 -65 -22z m84 -330 c111 -180 375 -450 576
-590 l74 -51 -57 -41 c-182 -128 -389 -327 -514 -493 -42 -55 -81 -109 -87
-120 -11 -17 -11 -17 -22 0 -6 11 -45 65 -87 120 -125 166 -332 365 -514 493
l-57 41 74 51 c201 140 465 410 576 590 8 12 16 22 19 22 3 0 11 -10 19 -22z"/>
<path d="M12376 6004 c-100 -24 -184 -72 -261 -149 -116 -116 -169 -241 -169
-400 0 -156 53 -284 165 -396 186 -188 477 -221 697 -80 107 69 207 199 242
319 l13 42 6536 0 c6203 0 6538 1 6571 18 49 24 76 80 61 125 -7 19 -23 45
-37 58 l-26 24 -6552 3 -6553 2 -12 43 c-85 285 -387 461 -675 391z m190 -215
c115 -21 202 -89 252 -198 21 -45 26 -71 27 -136 0 -71 -4 -88 -33 -147 -40
-81 -102 -139 -181 -169 -79 -30 -204 -24 -276 13 -61 32 -129 103 -158 166
-33 72 -31 208 4 282 52 110 164 185 295 199 6 1 37 -4 70 -10z"/>
<path d="M42356 6004 c-183 -44 -352 -206 -407 -391 l-12 -43 -6553 -2 -6552
-3 -26 -24 c-14 -13 -30 -39 -37 -58 -15 -45 12 -101 61 -125 33 -17 368 -18
6571 -18 l6536 0 13 -42 c35 -120 135 -250 242 -319 220 -141 511 -108 697 80
112 112 165 240 165 396 0 159 -53 284 -169 400 -139 139 -338 195 -529 149z
m279 -243 c74 -35 130 -89 164 -161 35 -74 37 -210 4 -282 -29 -63 -97 -134
-158 -166 -72 -37 -197 -43 -276 -13 -79 30 -141 88 -181 169 -29 59 -33 76
-33 147 1 65 6 91 26 135 49 106 131 173 239 197 73 16 142 8 215 -26z"/>
</g>
</svg>
