<?xml version="1.0" standalone="no"?>
<!DOCTYPE svg PUBLIC "-//W3C//DTD SVG 20010904//EN"
 "http://www.w3.org/TR/2001/REC-SVG-20010904/DTD/svg10.dtd">
<svg version="1.0" xmlns="http://www.w3.org/2000/svg"
 width="1080.000000pt" height="1080.000000pt" viewBox="0 0 1080.000000 1080.000000"
 preserveAspectRatio="xMidYMid meet">
<metadata>
Created by potrace 1.16, written by Peter Selinger 2001-2019
</metadata>
<g transform="translate(0.000000,1080.000000) scale(0.100000,-0.100000)"
fill="#000000" stroke="none">
<path d="M7265 7408 c-42 -23 -88 -76 -126 -145 -22 -39 -45 -75 -52 -80 -7
-5 -66 -27 -132 -47 -128 -41 -322 -132 -420 -198 -199 -135 -341 -318 -306
-395 9 -20 17 -24 48 -21 34 3 43 11 94 79 86 114 221 210 434 306 112 51 184
77 191 71 2 -3 -16 -63 -42 -134 -173 -485 -303 -907 -449 -1459 -15 -55 -58
-228 -96 -385 -38 -157 -81 -334 -96 -393 -14 -60 -32 -111 -39 -114 -7 -2
-41 8 -76 23 -34 14 -80 29 -100 31 -34 5 -39 2 -48 -22 -7 -20 -7 -38 0 -61
13 -38 91 -114 149 -143 22 -12 41 -25 41 -29 0 -12 -51 -264 -70 -347 -52
-222 -145 -757 -200 -1145 -63 -450 -79 -890 -40 -1079 23 -111 58 -166 106
-166 24 0 33 7 52 46 19 38 25 77 38 240 22 293 69 647 135 1019 63 359 74
421 94 510 8 36 35 164 60 285 52 249 111 514 126 563 11 32 11 32 78 32 104
0 292 26 420 59 607 156 1118 508 1415 975 100 157 192 386 233 576 26 124 26
465 -1 565 -54 202 -135 344 -281 491 -119 119 -188 166 -335 227 -162 66
-231 78 -473 84 l-219 6 7 31 c19 89 18 106 -5 131 -26 27 -79 33 -115 13z
m378 -353 c426 -56 683 -294 753 -699 24 -133 15 -338 -20 -469 -136 -511
-504 -939 -1035 -1202 -216 -108 -351 -154 -566 -194 -130 -25 -165 -26 -165
-7 0 87 375 1507 557 2106 36 118 76 253 90 299 13 46 31 101 39 122 15 37 16
38 82 44 37 4 72 8 77 10 21 7 75 4 188 -10z"/>
<path d="M5525 7195 c-499 -130 -991 -494 -1295 -956 -268 -407 -331 -859
-163 -1168 45 -84 113 -171 166 -214 227 -185 504 -237 743 -139 115 47 139
110 37 98 -126 -15 -294 -18 -340 -7 -202 51 -367 215 -418 416 -19 75 -20
277 -1 366 44 208 182 475 361 699 154 193 400 415 600 542 147 93 378 205
454 220 59 12 64 11 77 -7 18 -24 18 -109 0 -300 -8 -82 -22 -240 -31 -350 -9
-110 -22 -247 -30 -305 -8 -58 -17 -136 -20 -175 -9 -111 -24 -250 -40 -380
-9 -66 -27 -210 -41 -320 -48 -386 -101 -775 -134 -980 -11 -66 -24 -158 -31
-205 -6 -47 -19 -128 -29 -180 -10 -52 -24 -131 -30 -175 -23 -154 -129 -686
-151 -752 -7 -24 -18 -35 -37 -39 -269 -58 -784 -266 -1049 -425 -500 -298
-855 -666 -997 -1032 -69 -179 -88 -273 -93 -464 -7 -234 13 -338 97 -506 100
-200 279 -344 487 -393 83 -20 267 -14 358 11 92 25 271 116 361 184 301 225
587 674 804 1261 51 139 117 332 130 380 5 19 18 67 30 105 50 167 171 637
184 710 20 113 19 112 125 145 144 44 186 77 146 110 -12 10 -42 11 -115 7
-55 -3 -100 -3 -100 1 0 4 7 35 15 70 19 79 61 315 115 642 22 133 71 459 85
565 17 130 29 205 51 340 9 55 24 168 35 250 10 83 25 200 33 260 43 314 72
631 101 1132 22 379 17 649 -16 811 -12 62 -60 122 -120 153 -56 28 -195 25
-314 -6z m-399 -4616 c-72 -277 -88 -338 -132 -481 -275 -907 -606 -1512 -956
-1745 -121 -81 -173 -97 -303 -98 -102 0 -115 2 -170 29 -92 45 -192 151 -243
256 -59 123 -74 193 -76 340 -1 148 14 239 61 375 123 353 360 642 773 940
192 139 500 308 745 410 138 58 330 124 333 115 1 -4 -13 -68 -32 -141z"/>
<path d="M827 6880 c-201 -36 -387 -131 -535 -274 -143 -138 -215 -285 -237
-481 -7 -70 15 -227 45 -313 32 -89 109 -209 176 -271 119 -110 234 -161 384
-169 113 -5 187 8 268 49 73 36 165 129 160 162 -5 34 -40 32 -110 -7 -65 -36
-172 -66 -235 -66 -50 0 -148 27 -206 57 -28 14 -75 48 -105 77 -108 101 -160
217 -169 376 -10 178 47 313 186 442 178 164 392 232 655 208 126 -12 197 -29
302 -71 291 -115 564 -314 940 -685 299 -295 827 -896 1184 -1348 56 -71 230
-273 258 -299 46 -44 48 -16 5 65 -98 188 -602 900 -862 1218 -497 609 -920
994 -1307 1189 -110 56 -176 81 -309 118 -77 21 -115 26 -265 28 -96 2 -197 0
-223 -5z"/>
<path d="M704 6199 c-5 -8 5 -22 27 -38 109 -82 316 -308 466 -511 169 -228
446 -659 714 -1110 247 -416 342 -563 503 -780 109 -146 280 -325 390 -407 78
-58 226 -134 330 -169 230 -79 443 -44 586 96 l56 56 63 -68 c140 -152 307
-177 806 -118 191 22 255 34 288 52 20 10 20 11 2 24 -15 11 -79 14 -304 14
-308 1 -512 20 -582 55 -119 60 -172 203 -139 376 49 257 294 363 875 376 138
3 258 10 268 15 49 25 -35 55 -228 80 -130 16 -192 19 -330 14 -313 -10 -498
-70 -623 -200 -78 -81 -131 -192 -157 -326 -19 -96 -120 -224 -209 -266 -69
-32 -203 -34 -297 -3 -246 79 -447 242 -682 554 -99 132 -356 516 -517 775
-134 214 -341 527 -472 711 -285 400 -555 682 -743 776 -59 30 -82 35 -91 22z"/>
<path d="M1077 5254 c-9 -9 12 -46 163 -304 136 -231 311 -540 392 -690 25
-47 103 -193 173 -325 236 -444 355 -617 562 -819 l93 -92 -29 -99 c-16 -55
-60 -203 -96 -330 -37 -126 -100 -338 -140 -470 -164 -536 -184 -626 -150
-651 24 -18 79 -18 114 0 79 41 141 158 511 959 133 286 179 377 192 377 10 0
51 -9 91 -20 137 -38 241 -51 429 -57 336 -10 635 25 1033 123 162 40 189 50
179 65 -8 14 -160 8 -464 -18 -371 -32 -730 -22 -965 27 -255 53 -477 167
-677 349 -142 130 -310 367 -538 760 -241 414 -656 1023 -805 1178 -40 42 -55
50 -68 37z"/>
<path d="M8670 4394 c-25 -2 -135 -8 -245 -14 -393 -22 -594 -64 -398 -84 37
-4 347 -11 688 -16 663 -10 757 -15 990 -61 201 -39 330 -80 449 -142 213
-110 317 -260 319 -457 1 -77 -2 -92 -31 -152 -41 -84 -95 -132 -220 -196
-183 -93 -401 -152 -692 -187 -241 -29 -356 -34 -915 -35 -711 -1 -1635 -17
-1795 -29 -253 -21 -331 -45 -338 -103 -3 -22 3 -30 30 -45 31 -17 88 -18
1033 -18 550 -1 1110 -2 1245 -3 l245 -2 122 -263 c68 -144 176 -377 241 -517
167 -358 242 -506 279 -549 32 -38 85 -61 140 -61 81 0 74 47 -77 545 -43 143
-99 332 -125 420 -26 88 -65 220 -87 293 -22 73 -37 140 -34 148 3 8 18 14 34
14 48 0 292 39 377 61 427 107 658 267 732 508 55 179 -12 438 -154 591 -128
139 -338 237 -643 299 -223 46 -307 53 -725 56 -220 1 -420 1 -445 -1z"/>
<path d="M10100 3486 c-80 -43 -222 -80 -400 -105 -41 -6 -91 -13 -110 -16
-19 -3 -514 -9 -1100 -15 -1037 -9 -1413 -18 -1690 -41 -222 -18 -193 -44 69
-60 103 -6 603 -9 1311 -6 1095 3 1154 4 1345 25 280 31 386 54 511 113 73 35
151 100 140 117 -10 17 -26 15 -76 -12z"/>
</g>
</svg>
