<svg xmlns="http://www.w3.org/2000/svg" viewBox="0 0 2048 2048"><path fill="#1f6aa6" d="M163.5 497.2c-8.1 1.1-29.5 6.3-37.2 8.9-9.1 3.1-25.6 11.1-28.1 13.6-.7.7-2.1 1.3-3 1.3-2.4 0-23.9 14.4-31.3 21-15.1 13.4-27.6 28-35.5 41.4-6.9 11.6-13.6 30.4-15.9 44.6-2.8 17.6-1.4 45.4 3 60.3 3.9 13.2 11 29.1 15.9 35.6 1.4 1.9 2.6 3.9 2.6 4.3 0 .5 1.1 2.1 2.5 3.6s2.5 3.1 2.5 3.7c0 2 19.4 21.7 23.9 24.2 2.5 1.5 5.3 3.2 6.1 3.9 6.3 5.2 22.9 12.8 34.5 16 9 2.4 11.8 2.7 27.5 2.8 13.9 0 18.9-.3 24-1.8 3.6-.9 7.9-2.1 9.5-2.5 17.9-4.8 42.6-26.2 40.5-35.1-.3-1.4-1.1-2.5-1.7-2.5s-1.4-.3-1.8-.7c-1.3-1.3-6.9.4-11.3 3.3-2.4 1.6-4.9 2.9-5.6 2.9-.6 0-1.6.4-2.1.8-1.6 1.4-16.5 6.9-22.5 8.3-7.1 1.7-32.2 1.7-37.2 0-2-.6-4.8-1.4-6.3-1.7-2.7-.5-15.6-6.2-16.5-7.4-.3-.3-2.1-1.5-4.1-2.7-7.3-4.2-21.3-17.4-27.8-26.2-14.7-19.8-19.8-38-18.8-67.1.4-13.3.9-16.9 3.5-25.5 4.4-15 10.9-26.9 20.2-37 7.1-7.8 19.2-18.6 25.5-22.9 3.9-2.6 8.8-6.1 11-7.7 7.3-5.3 26.7-13.9 38.1-16.9 16.8-4.4 25.6-5.2 48.4-4.7 31 .7 39.6 2.6 77.5 17.2 3.9 1.5 7.6 2.7 8.3 2.8.6 0 1.2.4 1.2.8 0 .6 3.3 2 5.5 2.3.6.1 1.7.6 2.5 1.1 3.5 2.3 7.9 4.7 14 7.7 3.6 1.7 8.3 4.4 10.5 5.9 2.2 1.4 9.2 6 15.5 10.2 18.9 12.4 36.4 25 40 28.7 1.1 1.1 9.9 8 10.2 8 .2 0 4 3.4 8.3 7.5 4.4 4.1 8.3 7.5 8.6 7.5 1.2 0 39.9 36.9 56.8 54 12.7 12.9 29.3 30.5 36.1 38.1 3.6 4 10.4 11.4 15.3 16.5 4.8 5.1 10.1 10.9 11.8 13 1.7 2.2 3.4 4.1 3.7 4.4.4.3 5 5.2 10.2 11s9.7 10.7 10 11 3.6 4.1 7.4 8.5c3.9 4.4 7.5 8.4 8 9 .6.5 4 4.4 7.5 8.5 3.6 4.1 7.4 8.5 8.5 9.6 1.2 1.2 2.8 3 3.6 4 5.2 6.6 15.1 18.2 16.7 19.5 1 .9 2.7 2.8 3.7 4.3 1.1 1.5 2.9 3.7 4 5 1.2 1.3 3.5 3.9 5.1 5.8 1.7 1.8 8.4 10.1 15 18.3 6.5 8.3 12.4 15.5 13 16.1.5.6 4.6 5.7 9 11.3 8.9 11.4 35.9 44.3 46.3 56.4 3.7 4.3 7.2 8.4 7.7 9 .6.7 2.5 3 4.3 5.2 7.1 8.5 16.7 17.5 18 17 .7-.2 1-.1.7.5-.5.9 3.2 5 4.7 5 .7 0-3.7-9.5-11.2-24.2-2.5-4.9-24.9-39.3-29.4-45.3-.9-1.1-3-4.3-4.9-7-1.8-2.8-5-7.5-7.2-10.5-2.1-3-6.4-9.3-9.5-14s-9.4-13.7-14-20-10.1-14-12.2-17-6.2-8.9-9.2-13-7.2-9.9-9.2-12.9-5.7-7.8-8-10.7c-2.4-3-4.4-5.7-4.4-6 0-.4-1.7-2.8-3.7-5.3-2.1-2.5-4.1-5.1-4.5-5.6-.5-.6-2.2-2.6-3.8-4.5-1.7-1.9-4.9-6.1-7.3-9.3-3.5-4.9-8.5-11.3-19-24.7-.7-.9-3-3.7-5.1-6.4-2.2-2.7-5.5-7-7.5-9.6s-5.7-7.1-8.3-10.1-7.3-8.6-10.3-12.4c-7.8-9.7-12.5-15.3-16.1-19.5-1.7-1.9-3.9-4.6-5-5.9-1-1.3-3-3.6-4.4-5.1-1.4-1.4-6.8-7.5-12-13.5-13.4-15.4-18.8-21.1-42.2-44.4-21.8-21.7-37.5-36.6-43.8-41.6-7.9-6.3-17.6-14.4-21-17.4-6.3-5.7-24.1-18.9-36.5-27.1-3.3-2.2-6.5-4.4-7.2-5-.7-.5-1.5-1-1.8-1s-3.3-1.8-6.5-4-6.4-4-6.9-4c-.6 0-1.1-.4-1.1-.8s-1.9-1.8-4.2-3c-4.5-2.3-12.9-6.9-16.3-9-3.3-1.9-23.4-11.2-24.3-11.2-.4 0-4.6-1.6-9.2-3.5s-9.2-3.5-10.2-3.5-1.8-.4-1.8-.9-2.8-1.6-6.2-2.4c-3.5-.9-8.1-2-10.3-2.6-16.5-4.6-23.7-5.4-51.5-5.6-15.1-.2-30.6.1-34.5.7" class="icon-part"/><path fill="#6991af" d="M167.5 495.5c-.6.3-3.7.9-7 1.5-5.6.9-5.5.9 1.5.2 4.1-.4 19.7-.7 34.5-.7 30.2 0 38.4 1 59.5 7.4 1.9.6 4.2 1.1 5 1 1.8 0-5.1-2.3-13.5-4.4-18.4-4.5-20.6-4.7-50-5.1-15.9-.2-29.5-.1-30 .1" class="icon-part"/><path fill="#bd1e1e" d="M1381.4 395.9c-8.9 2.2-21.7 16.7-30.9 35.1-4.5 9-6.1 11-9 11-2.7 0-32 8.8-38 11.5-1.6.7-6.4 2.7-10.5 4.5-23.4 10.2-45.4 22.4-61.4 34.4-27.8 20.8-48.9 46-51.1 61.1-1.1 7.7 4.5 13.7 11.1 12.1 3.6-.9 11.9-8.9 16.7-16.1 12-17.6 33.1-33.6 68.7-51.9 20.6-10.5 48.2-20.8 50.4-18.6.5.5.1 2.7-1.2 5.7-1.1 2.6-3.2 8.4-4.7 12.8s-2.9 8.7-3.2 9.5c-.4.8-2.3 6.2-4.3 12s-5.6 15.7-7.9 22c-2.4 6.3-8.3 23.9-13.3 39-4.9 15.1-10.7 32.7-12.8 39-5.7 17-15.1 48-18 59.5-.4 1.6-2.6 9.5-4.9 17.5-14.4 50.6-26 94.3-41.6 157-7.4 30-14.6 58.5-15.9 63.5-1.3 4.9-3.5 14.2-5 20.6s-3.1 12-3.7 12.6c-1.4 1.4-12-1.8-22.9-6.9-10.6-5-15.3-5.4-18.6-1.5-1.8 2.2-2.4 4-2.4 7.8 0 7.1 3.6 13.4 11.7 20.9 6.4 5.9 20.4 14.9 23.1 15 1.9 0 1.5 6.1-1.4 19.5-1.4 6.6-3.6 17.6-5 24.5s-4.5 21-6.9 31.5c-2.4 10.4-6.3 29.8-8.6 43-2.2 13.2-4.5 26.1-5 28.7-.5 2.7-1.3 6.9-1.8 9.5-3.9 20.5-12.4 71-15.6 91.8-1.4 9.3-3.4 22.6-4.5 29.5-2.3 14.2-4.6 32.7-5.5 44.5-.4 4.4-.9 9.1-1.1 10.5s-1.4 13.5-2.6 27c-1.8 20.3-2.2 31.9-2.2 67.5-.1 44.8.3 51 4.6 70 2.4 10.7 3.8 13.7 8.7 18.8 7.6 8 12.2 8.4 17.1 1.3 4.9-7.2 7-19.7 10-59.6.5-6.9 1.2-14.8 1.5-17.5.4-2.8 1.5-12.9 2.6-22.5s2.4-20.7 2.9-24.5c.5-3.9 1.4-11.1 2-16 .5-5 1.9-15.1 3-22.5 1.2-7.4 2.8-17.8 3.5-23 4.4-28.5 11.9-72.5 16.4-96.5 2.2-11.6 5.2-27.3 6.6-35 4.3-22.5 12.7-63.4 17.8-86.5 1.4-6.3 4.7-21.4 7.2-33.5 2.6-12.1 6.2-28.1 8-35.5 1.9-7.4 4.1-17.6 5.1-22.5.9-5 2.1-9.6 2.7-10.3.6-.8 4.2-1.2 11.1-1.2 32.2-.1 64.3-5.8 111.1-19.9 20.7-6.2 53.8-19.1 56.9-22.2.6-.5 1.6-.9 2.3-.9 1.8 0 35.5-17.9 46.3-24.6 15.5-9.6 17.4-10.8 29.5-19.2 19.8-13.7 41.3-33.1 67.6-60.7 7.5-8 13.9-15.7 13.9-16.9 0-.3 1.1-1.9 2.5-3.5 1.4-1.5 4.6-5.7 7-9.2 2.5-3.5 5.3-7.4 6.2-8.7 3.1-4.1 13.1-20.4 17-27.7 6.3-11.9 15.3-30.5 15.3-31.6 0-.5 1-2.9 2.1-5.2 6.8-13.3 18-55.6 20.9-78.7 1.4-11.5 1.1-48.3-.5-60-7.4-53.5-30.4-96.2-69.5-129.1-12.6-10.6-41.2-27.8-51.4-30.8-1.7-.5-6.7-2.3-11.1-4-25.4-9.9-52.4-13.6-93.3-12.8-14.7.2-25.5 0-25.8-.5s.2-4.3 1.1-8.5c2.2-9.9 1.7-18.4-1.3-21.6-3.7-4-10.8-5.4-17.8-3.8m69.4 67.6c13.3 2 23.5 4.1 31.2 6.6 29.8 9.7 51.2 22 68.6 39.3 23.8 23.9 36.8 53.2 43.3 98.3 1.8 12.3 1.4 39.8-.9 54.6-5.7 36.7-20.4 76.6-39.4 106.7-7.1 11.3-10.6 16.6-11.3 17.5-.4.6-5.4 7.2-11.1 14.8-15.7 20.8-32 38-52.2 55-19.9 16.7-18.5 15.7-44 32.8-38.3 25.7-89 47.8-132.5 57.9-16.2 3.7-18 4.1-28.1 5.4-9.1 1.2-21.1 1.3-22.2.1-.3-.3.4-3.5 1.6-7.3 1.2-3.7 3.1-11.2 4.3-16.7s2.5-11.6 2.9-13.5c2.8-13 10.4-43.3 17.5-69.5 2.5-9.4 8.3-31.9 13-50 14.6-57.4 16.4-64.4 20.4-78.4 5-17.4 13-46.9 14.8-54.6 1.2-5.1 9.8-35 16.3-57 1-3.3 4.3-14.8 7.4-25.5 8.2-27.8 12.5-42 13.2-43.2.4-.6 1.5-4 2.5-7.7 2.4-8.9 7.1-24.7 10.4-35.1 1.5-4.7 3.6-11.4 4.6-15 3.6-12.2 3.9-12.5 12.6-14.5 4.3-.9 8.3-1.9 8.8-2 3.3-1.1 39.8-.3 48.3 1" class="icon-part"/><path fill="#c0afb9" d="M1382 395c-1.9.7-1.5.8 1.8.4 5.6-.8 12.4 1.1 15.3 4.2 3.1 3.3 3.6 11.7 1.4 21.7-.9 4.2-1.4 8.1-1 8.7.7 1.1 10.1 1.4 10.8.2.3-.4-1.5-.6-3.9-.6-5.9.3-6.6-1-4.9-7.7 1.9-6.9 1.9-16 .1-20.4-.8-1.9-2.8-4.1-4.6-5-3.8-2-11.6-2.7-15-1.5" class="icon-part"/><path fill="#fdd5d1" d="M0 1024v1024h2048V0H0zm1397-627.5c1.8.9 3.8 3.1 4.6 5 1.8 4.4 1.8 13.5-.1 20.4-.9 3.5-1.1 5.9-.5 6.6.7.9 7.6 1 24.7.7 23-.4 43 .6 55.3 2.9 12.8 2.4 31.1 7.1 38.5 10 4.4 1.7 10.7 4.2 14.1 5.4 3.3 1.3 7.6 3.2 9.5 4.3 1.9 1 6.1 3.4 9.4 5.2s8 4.7 10.3 6.4c2.4 1.7 6.5 4.5 9.1 6.1 11.3 7.1 28.3 23.7 39.7 38.7 4.1 5.3 7.4 9.9 7.4 10.2s2 3.6 4.4 7.3c14.3 22.2 25.1 54.5 28.6 85.3 1.2 10.5.9 52.5-.4 60-7.8 43.4-14.8 65.4-31.9 100-4.5 9.1-8.5 16.9-9 17.5-.4.5-3.3 5.3-6.4 10.5s-5.9 9.7-6.2 10c-.4.3-4 5.2-8.1 11s-7.8 10.9-8.2 11.5c-.5.5-2 2.6-3.4 4.5-6 8.5-37.7 41-46.8 48.2-2.8 2.2-7.6 6.3-10.7 9.2-5.9 5.4-13.5 11.6-14.3 11.6-.2 0-6 3.9-12.8 8.6-18.8 13.1-40.8 25.9-65.3 37.8-21 10.3-27.1 12.9-46 19.6-14.5 5.2-46.2 14.3-57 16.4-1.6.3-6.1 1.3-10 2.1-20.6 4.5-33.7 6.1-60.5 7.4l-13.4.6-.8 3.5c-.4 1.9-2.8 12.5-5.4 23.5-2.5 11-5.4 24-6.4 29-1 4.9-2.1 9.7-2.4 10.5s-1.7 7.3-3 14.5c-1.4 7.1-3.4 16.8-4.5 21.5-5.5 24-10.3 47.3-18.6 90.5-2.5 13.2-5.5 28.5-6.5 34-1.1 5.5-2.7 14.3-3.6 19.5-2.2 13.3-2.3 14.2-4.5 26.5-4 22.8-12.6 79.3-14.4 95-.9 7.1-1.8 14.3-2 16-.5 3.2-1.6 12.3-4.1 33-.8 7.1-1.9 19.8-2.4 28.2s-1.1 15.6-1.4 16.1c-.2.4-.8 5.7-1.1 11.8-.9 14-5.1 32.4-7.6 32.4-.4 0-1 .9-1.4 1.9-.3 1-1.9 2.4-3.5 3.1-9 3.7-20.6-10.6-23.8-29.5-3.4-20.1-3.7-24.7-3.6-66.5 0-31.2.5-47.4 1.7-61 1-10.2 1.9-21.4 2.2-25s1-9.4 1.5-13 1.1-9.2 1.4-12.5c.8-8.8 3.5-29.8 5.1-39.5.8-4.7 2.1-13.5 3-19.5 2.7-18.8 3.7-24.8 5.2-32.5.8-4.1 2-11.6 2.8-16.5 2-12.8 6.2-37.8 9.1-53.5 1.4-7.4 4.1-22.3 5.9-33 3.7-21 5.9-31.5 10.4-50.8 1.5-6.7 2.9-12.6 2.9-13 .1-.4.4-2.7.8-5.2.3-2.5 1-5.9 1.5-7.5 2.8-9.3 9-42.3 8-42.9-.3-.2-3.3-1.8-6.6-3.6-12.7-7-23.4-16.5-27.2-24.2-1.6-3.1-2.3-6.3-2.3-10.1 0-11.2 7.3-14.2 19.7-7.9 8.3 4.2 15.7 7 20.9 7.8l4.3.6 1-3.8c.6-2.2 1.9-8.2 3.1-13.4 1.1-5.2 3.4-14.5 5-20.5 3.6-13.2 8-31 12.6-49.9 1.8-7.7 4.2-17.2 5.3-21 2.2-7.8 7.2-28.5 9.6-39.3.8-3.7 3.3-13.3 5.5-21.3 4.6-16.7 14.5-52.9 16.6-61 .8-3 1.9-6.9 2.4-8.5.5-1.7 2.2-8.2 4-14.5 1.7-6.3 3.5-12.9 4-14.5 1.4-4.2 6-20 7.5-26 .7-2.8 2.4-8.4 3.8-12.5 1.3-4.1 3.2-10.2 4.2-13.5.9-3.3 2.9-9.6 4.5-14s6.2-18.1 10.1-30.5c7.1-22.1 16.7-49.7 21.4-61.5 1.3-3.3 3.5-9.6 4.9-14s3.9-11.8 5.6-16.5c4.5-12 4.6-13 2.3-13-1.8 0-9.4 2.2-13.8 4-1.1.4-3.6 1.4-5.5 2.1-11.3 4-42.1 19.6-51.7 26.1-2.3 1.5-4.5 2.8-4.8 2.8-1 0-12.4 8-16.6 11.6-9.3 8-16.7 15.6-21.8 22.4-11.7 15.8-16 19-23.6 17.6-2.7-.5-3.8-1.5-5.4-4.9-5.1-10.6 2.3-25.7 23.1-46.7 21.7-21.9 37.1-32.8 69.8-49.1 23.6-11.7 37.1-17.1 54.5-21.5 3.3-.8 7.1-1.9 8.5-2.4 1.4-.4 3.7-1.1 5.1-1.4 2-.4 3.3-2 5.4-6.3 4.7-9.8 12.1-21.6 16.4-26.1 2.3-2.4 4.1-4.6 4.1-5 .1-1.2 9.3-7 13-8.1 4.5-1.3 12-.7 16 1.4m-297.5 36.2c16.5 4 26.9 14.9 30.9 32.4 4.8 20.7 5 24.8 5.1 80.9 0 34.3-.4 58.5-1.2 67.5-1.7 18.9-3.1 39.3-3.8 54.9-.4 7.1-1.1 15.5-1.6 18.5-.5 3.1-.9 9-.9 13 0 4.1-.4 11.1-1 15.5-.9 7.8-2.4 24-3.6 39.6-.7 10.3-2.4 25.2-2.9 27-.3.8-.9 6.4-1.5 12.5-2.1 21.2-4.6 42.2-8.5 70.5-.8 6.3-1.8 13.5-2 16-1 7.8-1.6 12.3-2.6 19-.5 3.6-1.8 13-2.9 21-1.2 8-3.4 22.6-5 32.5s-3.2 20.2-3.5 23c-1.4 12.1-5.9 44.3-8.1 58.5-1.4 8.5-3.4 21.6-4.5 29s-2.2 14.2-2.4 15c-.3.9-.9 4.9-1.5 9-.5 4.1-1.2 9.1-1.6 11-7.6 47.6-8.6 53.4-12.7 75-2 10.2-3.8 19.8-4.1 21.5-.3 1.6-1.9 10.2-3.6 19s-3.4 17.5-3.7 19.3l-.6 3.4 10.4-.8c22.5-1.8 31.9-.4 31.9 4.9-.2 7.7-8.9 13-33 20-12.6 3.7-14.7 4.6-15.7 6.9-.7 1.4-3.1 11.1-5.3 21.4-2.2 10.4-5.1 23.2-6.5 28.4s-3.4 13.1-4.5 17.5c-1 4.4-3.5 13.8-5.4 21-3.2 11.5-10.2 38.4-11.1 42.5-1.1 5-5.3 19.4-9.5 32.5-1.5 4.9-3.8 12.4-5 16.5-7.5 24.8-30.2 87-37.6 103-1.5 3-4.2 9.3-6.1 14s-4.4 10.5-5.5 13c-4.1 9.2-21.6 43.7-24.7 48.4-1.7 2.8-3.1 5.4-3.1 6 0 1.2-11.2 19.8-20.8 34.6-31.7 48.7-71.2 87.1-108.7 105.8-18.4 9.2-30.9 13.9-46.5 17.4-14.1 3.1-43 3.3-55.5.4-29.5-6.8-51.6-18.5-69.5-36.6-12-12.1-19.1-22.2-27-37.8-9.5-18.9-12.9-29.5-17.6-54.7-2.1-11.1-2.4-52.5-.5-65 2.8-18.5 8.2-41.5 12.5-53.5.9-2.5 2.4-6.5 3.2-9 2.2-6.2 11.9-26.2 16.6-33.9 2.1-3.4 3.8-6.5 3.8-6.8 0-.2 1.4-2.4 3-4.8 1.7-2.4 3-4.6 3-4.8 0-1.2 15.7-23.3 21.5-30.2 9.6-11.6 41.5-44.4 50-51.5 27.9-23.2 35.4-29.2 44.5-35.6 8.3-5.8 30.2-20.4 30.6-20.4.1 0 4.7-2.8 10.1-6.2 8.4-5.3 37.1-21.8 37.9-21.8.2 0 6.7-3.1 14.6-6.9 7.9-3.7 21.1-9.8 29.3-13.5 8.3-3.7 16.8-7.5 19-8.6 2.2-1 5.6-2.4 7.5-3 1.9-.7 4.9-1.9 6.5-2.6 1.7-.7 6.4-2.4 10.5-3.8 4.1-1.3 17.2-5.8 29-9.9s29.4-9.3 39-11.7 18-4.8 18.6-5.4c1.2-1.1 8.9-31.7 10-39.6.3-2.5 1.2-6.8 2-9.5 1.4-5 3-13.4 5.8-29.5.8-4.7 3.5-19.5 6-33 2.4-13.5 4.7-26.1 5-28 .7-4.1 1.5-8.7 5.6-32 1.7-9.6 4.2-25.4 5.5-35 1.4-9.6 3.2-21.6 4-26.5 2.9-18.4 4.4-28.3 6-39.5.8-6.3 1.7-12.6 1.9-14 2.4-14.6 9.4-62.6 10.6-72.5.6-4.4 2-14.8 3.1-23 1.1-8.3 2.3-17.5 2.5-20.5.3-3 1.4-10.7 2.4-17 1.1-6.3 2.4-15.3 3-20s1.2-9.9 1.5-11.5c.2-1.7.9-8.2 1.5-14.5.7-6.3 2.1-18.7 3.1-27.5 1.1-8.8 2.6-22.8 3.4-31 .8-8.3 1.9-18.4 2.5-22.5 1.5-11.7 1.9-15.4 3.5-33 .9-9.1 1.8-17.2 2-18 .5-1.6 2-17 3.5-35 1.9-22.5 2.1-24.5 2.5-27 .2-1.4.7-5.4.9-9 1.6-19 3.8-42.3 4.6-48.2.6-3.7 1-9.6 1-13.1s.5-8.9 1-11.8c1.5-7.4 1.3-40.1-.2-43.3-1.2-2.7-2.5-3-10.8-2.7-9 .5-26.7 7.2-47 17.9-21.9 11.5-25.8 13.6-35.4 19.5-11.9 7.2-29.1 19-32.7 22.3-1.4 1.3-2.9 2.4-3.3 2.4-.6 0-8.9 6.2-10.6 8-.3.3-2.1 1.8-4 3.3-12.7 10.2-49.7 47-62 61.7-3 3.6-5.8 6.7-6.1 7-1.5 1.4-16.6 22.1-24.4 33.5-33.1 48.7-49.4 92.6-49.5 133.1 0 40.3 8.4 63.1 32.6 87.7 7.4 7.4 9.1 8.9 15.8 13.1 11.1 7.1 29.6 14.5 40.6 16.3 8.8 1.4 36 .7 43.4-1.1 23.5-5.7 31.8-3.6 25.2 6.4-4.2 6.4-14.4 11.6-35.3 18.1-10.6 3.3-43.5 3.4-57.2.3-8-1.9-25.4-7.7-32.9-11-22.6-10-45.7-30.3-59.5-52.5-11.1-17.7-17.2-33-21.3-53.5-3.8-19.2-3.5-50 .6-69.4 4.4-20.3 11.7-46.4 14-49.5.4-.6 1-2.3 1.4-4 1.8-7.4 11.8-26.9 23.1-45 3-5 5.8-9.8 6.1-10.8.4-.9 1-1.7 1.5-1.7s.9-.5.9-1c0-1.2 21.1-29.8 25.1-34.1 1.3-1.4 4.7-5.2 7.4-8.5 10.6-12.6 35.2-37.7 46-46.9 3.8-3.3 7.5-6.5 8.1-7 3.3-2.9 6.3-5.3 9.4-7.5s6-4.5 9.4-7.5c.6-.6 2.7-1.9 4.6-2.9s4.4-2.7 5.5-3.6c2.5-2.1 17.2-12 17.9-12 .3 0 5.2-2.8 10.9-6.3 16.1-9.9 42-23.5 47.7-25.1 1.4-.4 5.2-1.8 8.5-3.1 13.4-5.3 29.2-10.9 37.3-13.2 21.3-6 24.2-6.6 35.7-7.2 12.8-.7 13.8-.7 23 1.6M225 495.4c13.4 2.3 19.3 3.7 32 7.2 10.2 2.9 30.4 10.6 40.8 15.5 5.7 2.7 10.5 4.9 10.7 4.9.3 0 5.7 3 12.2 6.6 6.5 3.7 12.7 7.2 13.8 7.8s5.5 3.5 9.8 6.4c4.3 2.8 8.1 5.2 8.4 5.2s3.6 2.2 7.3 5c3.7 2.7 7.1 5 7.4 5 .4 0 3.1 1.9 6 4.2 2.9 2.4 6.8 5.4 8.6 6.8 1.9 1.4 6.8 5.4 11 9s10.9 9.2 15 12.5c27.5 22.3 81.1 76.7 112 113.6 2.5 2.9 6.1 7.2 8.1 9.4 4.8 5.4 24.5 29.7 34.4 42.4 4.4 5.7 10 12.8 12.5 15.9 2.4 3.1 7.4 9.5 11 14.2 6.7 8.8 18.8 24.7 20.2 26.5.5.5 3 3.9 5.6 7.5 17.7 24.3 21.6 29.6 22.2 30 .4.3 3.6 4.7 7.1 9.9 3.5 5.1 7.1 10.3 7.9 11.5.8 1.1 3.4 4.8 5.9 8.1 8.8 11.8 54.9 80.6 59.6 89 5 8.8 12.6 26.5 12 27.6-.4.5-1 .9-1.6.9-2.9 0-26.3-25.1-46.9-50.5-3.6-4.4-6.7-8.2-7-8.5s-2.8-3.2-5.5-6.5-6.6-7.8-8.6-10-5-5.9-6.6-8.1c-1.5-2.3-8.6-11.3-15.6-20-7.1-8.8-14.1-17.4-15.5-19.3-4-5-9.8-11.8-16.1-19-3.1-3.5-6.6-7.7-7.8-9.4-1.2-1.6-3.9-4.8-6-7-2.1-2.3-5.8-6.7-8.3-9.7-2.4-3-8.1-9.6-12.5-14.6-9-10.2-12.4-14.1-17.3-19.9-1.9-2.2-6.8-7.7-10.9-12.2-4.2-4.6-8.3-9.1-9.2-10.1-2.2-2.6-17.7-19.5-22.6-24.6-4.2-4.4-6.2-6.7-19-21.1-19.3-21.7-64.8-67-87-86.6-7.7-6.8-14.2-12.6-14.5-12.9-1.4-1.6-20.5-17.3-27.5-22.6-14.1-10.6-48.2-33.4-50-33.4-.1 0-4-2.1-8.6-4.6-8.8-4.9-25.2-12.5-32.9-15.1-2.5-.9-4.9-1.9-5.5-2.3-3.9-3-31.3-10.3-46.2-12.4-12.4-1.7-46.2-1.3-56.8.7-17.1 3.3-40.6 12.9-52.7 21.7-2.4 1.7-7.4 5.3-11.3 8-14.7 10.4-29.9 27.8-36.9 42.2-7.3 14.9-11 39.8-8.7 58.3 1.8 14.1 3.6 20.6 9 32 5.9 12.5 14 22.6 26.2 33.1 10.8 9.3 18.1 13.7 29.4 17.8 6.8 2.4 10 2.9 21.4 3.3 8.7.4 15.9.1 20.5-.7 8.1-1.5 24.2-7.7 32.7-12.7 4.9-2.8 6.7-3.4 10.7-3.1s4.9.7 6 3c4.1 8.6-17.3 29.1-38.1 36.6-11.7 4.2-23 6.2-35.7 6.2-25.4 0-44.1-5.7-66.5-20.1-20.4-13.2-39.9-39.1-49-65-6.5-18.5-6.9-21.4-6.9-47.9-.1-27.5.3-29.4 8.5-51.4 8.3-22 26-44.7 50-64.1 13.2-10.7 38.8-24.6 55.4-30.3 26.2-8.9 44.1-11.3 79-10.6 10.5.2 20.1.6 21.5.8m-79 131.5c16.6 8.5 24.6 13.8 38.5 25.5 9.8 8.2 36 34 45.3 44.6 11.6 13.2 31.1 37.4 41.5 51.5 3.6 4.9 8 10.8 9.6 13 5.8 7.8 14.8 20.1 19.6 27 2.6 3.8 5.1 7.2 5.4 7.5s1.1 1.3 1.6 2.2c1.9 3.3 29.8 44.3 31.5 46.3.9 1.1 2.2 3.1 2.8 4.5 1.7 3.6 3.4 6.2 24 37.8 13.9 21.3 19.7 30.3 25.7 40.2 3.3 5.2 11.4 17.8 18 28 6.7 10.2 13.7 21.2 15.5 24.5 1.9 3.3 4 6.7 4.8 7.5.7.8 4.6 6.4 8.6 12.5 5.8 8.9 17.1 25.6 27.6 40.9.8 1.1 4.7 6.5 8.7 11.9 4 5.3 9.6 13 12.5 17 11.2 15.8 41.6 47 59.6 61.3 32 25.2 73.2 40.8 99.7 37.5 9.2-1.1 19.7-4.7 26.6-9.2 5.2-3.3 16.3-14.3 18.3-18 .7-1.3 2.4-4.2 3.7-6.4 4.1-6.6 7.6-15.5 9.9-25 7.3-30 14.5-44.2 30.8-60.9 12.8-13.1 24.2-19.1 51.7-27.5 6.9-2.1 26-5.6 40.5-7.3 11.5-1.3 56.5-1.7 67.2-.5 6.2.6 21.4 2.5 39.3 4.7 12.8 1.6 27.6 7.5 28.3 11.3.2 1.2-.7 2.2-3.1 3.2-2.9 1.2-9.7 1.5-35.4 1.5-55.1 0-80.7 2.6-114.7 11.7-17.6 4.7-22.6 6.7-33.4 13.1-15.6 9.2-23.1 17.3-28.9 31.3-3.9 9.6-5.3 17-6 32.4-.6 15.7.5 22.1 5.6 33 5.5 11.5 18.3 21.4 31.6 24.3 20.2 4.5 33.1 5.3 96.5 6.1 39.7.5 57.6 1.1 60.2 1.9 5.6 1.9 6.1 6 1 8.1-7.2 3-28.9 6.6-57.7 9.6-2.7.3-6.8.7-9 1-2.2.2-7.4.7-11.5 1s-10.6.9-14.5 1.3c-3.8.4-19.6.7-35 .7-23.4 0-29.4-.3-36.5-1.9-22.7-4.9-40.5-16.2-51.7-32.9-1.4-2-3.1-3.7-3.7-3.7-.7 0-3.2 2.1-5.6 4.6-12.2 12.6-29.2 23.1-44.5 27.4-10 2.9-35.8 3.9-48.7 2-15.1-2.2-44-12.6-60.3-21.7-25.6-14.3-53.8-37.8-74.4-61.8-4.7-5.5-8.8-10.2-9.1-10.5-2.8-2.5-30-37.9-34.6-45-1.6-2.5-3.2-5-3.7-5.5-1.2-1.7-30.4-46.6-34-52.5-1.8-3-9.1-15.2-16.1-27-7.1-11.8-13.6-22.6-14.6-24-3.1-4.5-12-19.1-12-19.7 0-.4-1-2-2.3-3.7s-2.6-3.9-3-4.8c-.3-1-2.9-5.1-5.7-9.3-2.7-4.1-5-7.7-5-8.1 0-.8-17-29.5-18-30.4-.3-.3-3.2-4.9-6.5-10.3s-7.7-12.4-9.7-15.5c-2.1-3.1-4-6.4-4.4-7.2s-4-6.6-8.1-12.8c-4-6.2-7.3-11.4-7.3-11.7 0-.5-22-33.7-37.3-56.5-9.7-14.5-22.8-33.2-23.7-34-.3-.3-1.7-2.1-3-4s-2.7-3.7-3-4-5.3-6.6-11-14-10.7-13.7-11-14-2.1-2.5-4-5c-5.2-6.6-10.3-12.2-23-25.4-6.3-6.5-12-12.3-12.6-13-1.1-1.1-17.6-16.3-24.8-22.8-7.5-6.7-.4-9.5 10.4-3.9m72.2 185.6c4.9 4.9 11.5 12.3 14.5 16.4 3 4.2 7.2 9.8 9.4 12.6 2.2 2.7 6.4 8.1 9.3 12 3 3.8 6.2 8 7.2 9.2 1.1 1.1 2.5 2.9 3.2 4 .6 1 4.9 7 9.3 13.3 9 12.7 51.9 77.3 55.9 84.1.8 1.4 2.8 4.8 4.4 7.5s3.9 6.5 5.1 8.4c1.3 1.9 4.4 6.9 7 11s5.5 8.6 6.5 10c.9 1.4 2.7 4.3 3.9 6.5 2.5 4.7 4.4 7.8 5.1 8.5.9.8 22.4 37.8 34.1 58.7 1.1 1.9 5.5 8.7 9.8 15.1 4.3 6.5 12.2 18.4 17.7 26.7 19.8 30 37.1 50.2 62.2 72.2 9.2 8.1 29 22.3 31.1 22.3.6 0 1.1.4 1.1.8 0 1.5 40.1 20.9 49.5 24 30.4 10.1 51 14.2 89 17.7 31 2.9 89.2 1.3 146-4 4.5-.4 15.3-1.4 33.5-3.1 3.6-.4 7.6-.8 9-1 1.4-.1 9.2-.3 17.4-.4 10.9-.1 15.1.2 15.7 1.1 1.3 2.1-.1 3.6-5.2 5.7-4.2 1.8-45.9 12.6-58 15.1-39.9 8.2-92 16.1-105.5 16.1-3.4 0-8.5.5-11.5 1-7.2 1.4-61.6 1.4-75.9 0-16.8-1.6-42.1-6.3-64.8-12-6.7-1.7-12.7-2.8-13.3-2.4-.6.3-2.3 3.4-3.9 6.8-1.5 3.3-4.7 10.1-7 15.1-9.1 19.1-21.5 45.7-28.9 62-4.3 9.3-14.4 31.2-22.6 48.5-8.1 17.3-17.9 38.2-21.7 46.5-24.3 52-34.3 67.7-47.7 74.2-8.6 4.3-20.5 3.7-23.7-1.2-3.1-4.8-1.1-19.8 4.9-37 1.4-3.9 3.7-11.7 5.2-17.5s6.8-23.6 11.7-39.5c5-16 9.8-31.9 10.8-35.5s3.2-11.2 5-17 4.2-14.3 5.5-19c3.7-13.9 10.4-36.6 15.1-51.5 2.5-7.7 5.6-18.1 7-23 4.9-17.6 7.4-26.1 10.9-37.8 1.9-6.5 3.5-13.2 3.5-14.7 0-2.4-2.1-4.7-13.7-15-7.6-6.6-14.5-12.8-15.4-13.8-4.4-4.8-11.8-13.3-15.4-17.7-2.2-2.7-5.2-6.2-6.6-7.9-7-8.5-19.8-26.5-26.6-37.6-2.2-3.6-6.2-10.1-9-14.5-2.7-4.4-6.3-10.5-8-13.5-1.6-3-7.4-13.4-12.8-23-13.4-23.9-13.9-24.9-20.7-38.4-5.8-11.6-18.7-36.1-24.3-46.1-4.4-7.8-17.4-32.4-20.6-38.6-1.5-3.1-4.3-8.1-6.2-11-1.8-3-4.7-7.9-6.4-10.9-1.6-3-7.4-13.2-12.8-22.5-5.4-9.4-10.3-17.9-10.9-19s-6.8-11.5-13.7-23c-7-11.6-13.6-23-14.9-25.5-1.2-2.5-3.6-6.4-5.2-8.7-3.8-5.6-8.7-14.4-15-27.2-4.9-9.7-5.1-10.4-3.4-11.6 2.7-2 4.8-.8 14.8 9m1561.6 155c1.3.2 6.7.7 12 1 11.4.6 22.5 1.5 26.7 2 11 1.3 28.8 3.9 41 5.9 19.2 3.2 53.4 13.2 71 20.8 35 14.9 55.8 30.5 69.8 52.3 4.8 7.5 11.7 21.5 11.7 23.8 0 .7.4 1.7.9 2.2 1.4 1.6 4.9 13.4 7.1 24.2 8.2 40.9-10.3 82.2-48.1 107.5-18.7 12.5-29.8 17.6-59.9 27.5-14.4 4.7-23.7 7.2-51.5 13.8-7.2 1.8-35.4 6-48.3 7.3-12.6 1.3-12.8 1.5-9.8 12.2 4.4 16 17.6 61.5 20.5 71 1.7 5.2 5.3 17.4 8.2 27 4.6 15.6 7.4 24.8 13.9 45.5 1 3.3 3 10.5 4.5 16s4.4 15.4 6.5 22 5 16.3 6.4 21.5c1.3 5.2 4 15.2 5.9 22.1 5.6 20.2 5.3 29.6-1 32-7.9 3-25.2-2.7-31.9-10.5-7.6-8.8-17.6-27.6-38-71.1-2-4.4-5.9-12.7-8.6-18.5-2.8-5.8-5.8-12.5-6.8-15s-5.7-12.6-10.5-22.5c-8.7-17.8-27.5-58.3-27.5-59 0-.3-3.3-7.1-7.3-15.2s-10-20.9-13.2-28.3c-6.9-15.5-10.3-22-11.9-22.5-1.8-.6-134.2-1.5-171.1-1.3-18.7.2-91.4.3-161.5.3-139 0-137.6.1-146.4-5.6-4.5-2.8-5.2-4.1-4.6-9.4.3-3.1 5-7.5 10.9-10.2 6.9-3.1 27.5-6 51.5-7.3 10-.5 25.3-1.4 34.1-1.9s34.2-1.3 56.5-1.6c22.3-.4 51.3-.9 64.5-1.1 13.2-.3 62.3-.7 109-.9 146.6-.9 184.6-1.3 199-2.4 34.4-2.6 42.6-3.3 51.5-4.6 5.2-.8 11.8-1.7 14.5-2 41.3-5.1 82.8-16.4 114.7-31.3 12.5-5.8 25.1-14.4 33.1-22.5 17.5-17.6 23.2-45.5 14.5-71-9.3-27.2-27.6-46.6-58.3-61.9-6.6-3.3-15.6-7.3-20-9-7.7-2.8-42.8-13-49-14.1-1.6-.3-7.3-1.5-12.5-2.6s-13.1-2.5-17.5-3.1-9.1-1.3-10.5-1.5-7.7-.9-14-1.5-15.1-1.5-19.5-2-15.6-1.2-25-1.4c-9.3-.3-20.6-1-25-1.5-4.5-.6-41.5-1.2-84-1.5-41.8-.2-82.3-.6-90-1-7.7-.3-19.9-.8-27.1-1.1-18-.8-21.4-1.6-21.4-5 0-3.7 26-8.1 59-9.9 4.7-.3 9.9-.7 11.5-1 1.7-.3 10.9-.8 20.5-1.1 25.1-.8 41.5-1.6 49-2.5 3.6-.4 24-.8 45.5-.9 21.4-.1 39.1-.4 39.4-.6.5-.6 43.7.3 46.9 1m150.8 170c.3.8-.3 2.9-1.4 4.7-8.3 13.4-36.1 26.2-71.2 32.8-37 6.9-55.3 9-98 11-28 1.4-431.9 1.3-461.1 0-29.6-1.4-39.9-3-39.9-6.5 0-.9 1.5-2.2 3.4-3 4.2-1.8 23.5-3.4 42.3-3.6 7.8 0 17.7-.5 22-.9 11.6-1.3 55.9-3.1 89.3-3.6 16.2-.3 31.5-.7 34-1 4.2-.4 38.3-.7 243-1.8 43.7-.3 84.9-.7 91.5-1 16.2-.7 30.4-1.6 34-2.1 1.7-.2 5.9-.7 9.4-1 17.9-1.5 51.5-8.1 66.5-13.1 4.4-1.4 11.2-4.2 15-6.1 11.8-6 20.1-7.9 21.2-4.8" class="icon-part"/><path fill="#fefefe" d="M0 1024v1024h2048V0H0zm1397-627.5c1.8.9 3.8 3.1 4.6 5 1.8 4.4 1.8 13.5-.1 20.4-.9 3.5-1.1 5.9-.5 6.6.7.9 7.6 1 24.7.7 23-.4 43 .6 55.3 2.9 12.8 2.4 31.1 7.1 38.5 10 4.4 1.7 10.7 4.2 14.1 5.4 3.3 1.3 7.6 3.2 9.5 4.3 1.9 1 6.1 3.4 9.4 5.2s8 4.7 10.3 6.4c2.4 1.7 6.5 4.5 9.1 6.1 11.3 7.1 28.3 23.7 39.7 38.7 4.1 5.3 7.4 9.9 7.4 10.2s2 3.6 4.4 7.3c14.3 22.2 25.1 54.5 28.6 85.3 1.2 10.5.9 52.5-.4 60-7.8 43.4-14.8 65.4-31.9 100-4.5 9.1-8.5 16.9-9 17.5-.4.5-3.3 5.3-6.4 10.5s-5.9 9.7-6.2 10c-.4.3-4 5.2-8.1 11s-7.8 10.9-8.2 11.5c-.5.5-2 2.6-3.4 4.5-6 8.5-37.7 41-46.8 48.2-2.8 2.2-7.6 6.3-10.7 9.2-5.9 5.4-13.5 11.6-14.3 11.6-.2 0-6 3.9-12.8 8.6-18.8 13.1-40.8 25.9-65.3 37.8-21 10.3-27.1 12.9-46 19.6-14.5 5.2-46.2 14.3-57 16.4-1.6.3-6.1 1.3-10 2.1-20.6 4.5-33.7 6.1-60.5 7.4l-13.4.6-.8 3.5c-.4 1.9-2.8 12.5-5.4 23.5-2.5 11-5.4 24-6.4 29-1 4.9-2.1 9.7-2.4 10.5s-1.7 7.3-3 14.5c-1.4 7.1-3.4 16.8-4.5 21.5-5.5 24-10.3 47.3-18.6 90.5-2.5 13.2-5.5 28.5-6.5 34-1.1 5.5-2.7 14.3-3.6 19.5-2.2 13.3-2.3 14.2-4.5 26.5-4 22.8-12.6 79.3-14.4 95-.9 7.1-1.8 14.3-2 16-.5 3.2-1.6 12.3-4.1 33-.8 7.1-1.9 19.8-2.4 28.2s-1.1 15.6-1.4 16.1c-.2.4-.8 5.7-1.1 11.8-.9 14-5.1 32.4-7.6 32.4-.4 0-1 .9-1.4 1.9-.3 1-1.9 2.4-3.5 3.1-9 3.7-20.6-10.6-23.8-29.5-3.4-20.1-3.7-24.7-3.6-66.5 0-31.2.5-47.4 1.7-61 1-10.2 1.9-21.4 2.2-25s1-9.4 1.5-13 1.1-9.2 1.4-12.5c.8-8.8 3.5-29.8 5.1-39.5.8-4.7 2.1-13.5 3-19.5 2.7-18.8 3.7-24.8 5.2-32.5.8-4.1 2-11.6 2.8-16.5 2-12.8 6.2-37.8 9.1-53.5 1.4-7.4 4.1-22.3 5.9-33 3.7-21 5.9-31.5 10.4-50.8 1.5-6.7 2.9-12.6 2.9-13 .1-.4.4-2.7.8-5.2.3-2.5 1-5.9 1.5-7.5 2.8-9.3 9-42.3 8-42.9-.3-.2-3.3-1.8-6.6-3.6-12.7-7-23.4-16.5-27.2-24.2-1.6-3.1-2.3-6.3-2.3-10.1 0-11.2 7.3-14.2 19.7-7.9 8.3 4.2 15.7 7 20.9 7.8l4.3.6 1-3.8c.6-2.2 1.9-8.2 3.1-13.4 1.1-5.2 3.4-14.5 5-20.5 3.6-13.2 8-31 12.6-49.9 1.8-7.7 4.2-17.2 5.3-21 2.2-7.8 7.2-28.5 9.6-39.3.8-3.7 3.3-13.3 5.5-21.3 4.6-16.7 14.5-52.9 16.6-61 .8-3 1.9-6.9 2.4-8.5.5-1.7 2.2-8.2 4-14.5 1.7-6.3 3.5-12.9 4-14.5 1.4-4.2 6-20 7.5-26 .7-2.8 2.4-8.4 3.8-12.5 1.3-4.1 3.2-10.2 4.2-13.5.9-3.3 2.9-9.6 4.5-14s6.2-18.1 10.1-30.5c7.1-22.1 16.7-49.7 21.4-61.5 1.3-3.3 3.5-9.6 4.9-14s3.9-11.8 5.6-16.5c4.5-12 4.6-13 2.3-13-1.8 0-9.4 2.2-13.8 4-1.1.4-3.6 1.4-5.5 2.1-11.3 4-42.1 19.6-51.7 26.1-2.3 1.5-4.5 2.8-4.8 2.8-1 0-12.4 8-16.6 11.6-9.3 8-16.7 15.6-21.8 22.4-11.7 15.8-16 19-23.6 17.6-2.7-.5-3.8-1.5-5.4-4.9-5.1-10.6 2.3-25.7 23.1-46.7 21.7-21.9 37.1-32.8 69.8-49.1 23.6-11.7 37.1-17.1 54.5-21.5 3.3-.8 7.1-1.9 8.5-2.4 1.4-.4 3.7-1.1 5.1-1.4 2-.4 3.3-2 5.4-6.3 4.7-9.8 12.1-21.6 16.4-26.1 2.3-2.4 4.1-4.6 4.1-5 .1-1.2 9.3-7 13-8.1 4.5-1.3 12-.7 16 1.4m-297.5 36.2c16.5 4 26.9 14.9 30.9 32.4 4.8 20.7 5 24.8 5.1 80.9 0 34.3-.4 58.5-1.2 67.5-1.7 18.9-3.1 39.3-3.8 54.9-.4 7.1-1.1 15.5-1.6 18.5-.5 3.1-.9 9-.9 13 0 4.1-.4 11.1-1 15.5-.9 7.8-2.4 24-3.6 39.6-.7 10.3-2.4 25.2-2.9 27-.3.8-.9 6.4-1.5 12.5-2.1 21.2-4.6 42.2-8.5 70.5-.8 6.3-1.8 13.5-2 16-1 7.8-1.6 12.3-2.6 19-.5 3.6-1.8 13-2.9 21-1.2 8-3.4 22.6-5 32.5s-3.2 20.2-3.5 23c-1.4 12.1-5.9 44.3-8.1 58.5-1.4 8.5-3.4 21.6-4.5 29s-2.2 14.2-2.4 15c-.3.9-.9 4.9-1.5 9-.5 4.1-1.2 9.1-1.6 11-7.6 47.6-8.6 53.4-12.7 75-2 10.2-3.8 19.8-4.1 21.5-.3 1.6-1.9 10.2-3.6 19s-3.4 17.5-3.7 19.3l-.6 3.4 10.4-.8c22.5-1.8 31.9-.4 31.9 4.9-.2 7.7-8.9 13-33 20-12.6 3.7-14.7 4.6-15.7 6.9-.7 1.4-3.1 11.1-5.3 21.4-2.2 10.4-5.1 23.2-6.5 28.4s-3.4 13.1-4.5 17.5c-1 4.4-3.5 13.8-5.4 21-3.2 11.5-10.2 38.4-11.1 42.5-1.1 5-5.3 19.4-9.5 32.5-1.5 4.9-3.8 12.4-5 16.5-7.5 24.8-30.2 87-37.6 103-1.5 3-4.2 9.3-6.1 14s-4.4 10.5-5.5 13c-4.1 9.2-21.6 43.7-24.7 48.4-1.7 2.8-3.1 5.4-3.1 6 0 1.2-11.2 19.8-20.8 34.6-31.7 48.7-71.2 87.1-108.7 105.8-18.4 9.2-30.9 13.9-46.5 17.4-14.1 3.1-43 3.3-55.5.4-29.5-6.8-51.6-18.5-69.5-36.6-12-12.1-19.1-22.2-27-37.8-9.5-18.9-12.9-29.5-17.6-54.7-2.1-11.1-2.4-52.5-.5-65 2.8-18.5 8.2-41.5 12.5-53.5.9-2.5 2.4-6.5 3.2-9 2.2-6.2 11.9-26.2 16.6-33.9 2.1-3.4 3.8-6.5 3.8-6.8 0-.2 1.4-2.4 3-4.8 1.7-2.4 3-4.6 3-4.8 0-1.2 15.7-23.3 21.5-30.2 9.6-11.6 41.5-44.4 50-51.5 27.9-23.2 35.4-29.2 44.5-35.6 8.3-5.8 30.2-20.4 30.6-20.4.1 0 4.7-2.8 10.1-6.2 8.4-5.3 37.1-21.8 37.9-21.8.2 0 6.7-3.1 14.6-6.9 7.9-3.7 21.1-9.8 29.3-13.5 8.3-3.7 16.8-7.5 19-8.6 2.2-1 5.6-2.4 7.5-3 1.9-.7 4.9-1.9 6.5-2.6 1.7-.7 6.4-2.4 10.5-3.8 4.1-1.3 17.2-5.8 29-9.9s29.4-9.3 39-11.7 18-4.8 18.6-5.4c1.2-1.1 8.9-31.7 10-39.6.3-2.5 1.2-6.8 2-9.5 1.4-5 3-13.4 5.8-29.5.8-4.7 3.5-19.5 6-33 2.4-13.5 4.7-26.1 5-28 .7-4.1 1.5-8.7 5.6-32 1.7-9.6 4.2-25.4 5.5-35 1.4-9.6 3.2-21.6 4-26.5 2.9-18.4 4.4-28.3 6-39.5.8-6.3 1.7-12.6 1.9-14 2.4-14.6 9.4-62.6 10.6-72.5.6-4.4 2-14.8 3.1-23 1.1-8.3 2.3-17.5 2.5-20.5.3-3 1.4-10.7 2.4-17 1.1-6.3 2.4-15.3 3-20s1.2-9.9 1.5-11.5c.2-1.7.9-8.2 1.5-14.5.7-6.3 2.1-18.7 3.1-27.5 1.1-8.8 2.6-22.8 3.4-31 .8-8.3 1.9-18.4 2.5-22.5 1.5-11.7 1.9-15.4 3.5-33 .9-9.1 1.8-17.2 2-18 .5-1.6 2-17 3.5-35 1.9-22.5 2.1-24.5 2.5-27 .2-1.4.7-5.4.9-9 1.6-19 3.8-42.3 4.6-48.2.6-3.7 1-9.6 1-13.1s.5-8.9 1-11.8c1.5-7.4 1.3-40.1-.2-43.3-1.2-2.7-2.5-3-10.8-2.7-9 .5-26.7 7.2-47 17.9-21.9 11.5-25.8 13.6-35.4 19.5-11.9 7.2-29.1 19-32.7 22.3-1.4 1.3-2.9 2.4-3.3 2.4-.6 0-8.9 6.2-10.6 8-.3.3-2.1 1.8-4 3.3-12.7 10.2-49.7 47-62 61.7-3 3.6-5.8 6.7-6.1 7-1.5 1.4-16.6 22.1-24.4 33.5-33.1 48.7-49.4 92.6-49.5 133.1 0 40.3 8.4 63.1 32.6 87.7 7.4 7.4 9.1 8.9 15.8 13.1 11.1 7.1 29.6 14.5 40.6 16.3 8.8 1.4 36 .7 43.4-1.1 23.5-5.7 31.8-3.6 25.2 6.4-4.2 6.4-14.4 11.6-35.3 18.1-10.6 3.3-43.5 3.4-57.2.3-8-1.9-25.4-7.7-32.9-11-22.6-10-45.7-30.3-59.5-52.5-11.1-17.7-17.2-33-21.3-53.5-3.8-19.2-3.5-50 .6-69.4 4.4-20.3 11.7-46.4 14-49.5.4-.6 1-2.3 1.4-4 1.8-7.4 11.8-26.9 23.1-45 3-5 5.8-9.8 6.1-10.8.4-.9 1-1.7 1.5-1.7s.9-.5.9-1c0-1.2 21.1-29.8 25.1-34.1 1.3-1.4 4.7-5.2 7.4-8.5 10.6-12.6 35.2-37.7 46-46.9 3.8-3.3 7.5-6.5 8.1-7 3.3-2.9 6.3-5.3 9.4-7.5s6-4.5 9.4-7.5c.6-.6 2.7-1.9 4.6-2.9s4.4-2.7 5.5-3.6c2.5-2.1 17.2-12 17.9-12 .3 0 5.2-2.8 10.9-6.3 16.1-9.9 42-23.5 47.7-25.1 1.4-.4 5.2-1.8 8.5-3.1 13.4-5.3 29.2-10.9 37.3-13.2 21.3-6 24.2-6.6 35.7-7.2 12.8-.7 13.8-.7 23 1.6M225 495.4c13.4 2.3 19.3 3.7 32 7.2 10.2 2.9 30.4 10.6 40.8 15.5 5.7 2.7 10.5 4.9 10.7 4.9.3 0 5.7 3 12.2 6.6 6.5 3.7 12.7 7.2 13.8 7.8s5.5 3.5 9.8 6.4c4.3 2.8 8.1 5.2 8.4 5.2s3.6 2.2 7.3 5c3.7 2.7 7.1 5 7.4 5 .4 0 3.1 1.9 6 4.2 2.9 2.4 6.8 5.4 8.6 6.8 1.9 1.4 6.8 5.4 11 9s10.9 9.2 15 12.5c27.5 22.3 81.1 76.7 112 113.6 2.5 2.9 6.1 7.2 8.1 9.4 4.8 5.4 24.5 29.7 34.4 42.4 4.4 5.7 10 12.8 12.5 15.9 2.4 3.1 7.4 9.5 11 14.2 6.7 8.8 18.8 24.7 20.2 26.5.5.5 3 3.9 5.6 7.5 17.7 24.3 21.6 29.6 22.2 30 .4.3 3.6 4.7 7.1 9.9 3.5 5.1 7.1 10.3 7.9 11.5.8 1.1 3.4 4.8 5.9 8.1 8.8 11.8 54.9 80.6 59.6 89 5 8.8 12.6 26.5 12 27.6-.4.5-1 .9-1.6.9-2.9 0-26.3-25.1-46.9-50.5-3.6-4.4-6.7-8.2-7-8.5s-2.8-3.2-5.5-6.5-6.6-7.8-8.6-10-5-5.9-6.6-8.1c-1.5-2.3-8.6-11.3-15.6-20-7.1-8.8-14.1-17.4-15.5-19.3-4-5-9.8-11.8-16.1-19-3.1-3.5-6.6-7.7-7.8-9.4-1.2-1.6-3.9-4.8-6-7-2.1-2.3-5.8-6.7-8.3-9.7-2.4-3-8.1-9.6-12.5-14.6-9-10.2-12.4-14.1-17.3-19.9-1.9-2.2-6.8-7.7-10.9-12.2-4.2-4.6-8.3-9.1-9.2-10.1-2.2-2.6-17.7-19.5-22.6-24.6-4.2-4.4-6.2-6.7-19-21.1-19.3-21.7-64.8-67-87-86.6-7.7-6.8-14.2-12.6-14.5-12.9-1.4-1.6-20.5-17.3-27.5-22.6-14.1-10.6-48.2-33.4-50-33.4-.1 0-4-2.1-8.6-4.6-8.8-4.9-25.2-12.5-32.9-15.1-2.5-.9-4.9-1.9-5.5-2.3-3.9-3-31.3-10.3-46.2-12.4-12.4-1.7-46.2-1.3-56.8.7-17.1 3.3-40.6 12.9-52.7 21.7-2.4 1.7-7.4 5.3-11.3 8-14.7 10.4-29.9 27.8-36.9 42.2-7.3 14.9-11 39.8-8.7 58.3 1.8 14.1 3.6 20.6 9 32 5.9 12.5 14 22.6 26.2 33.1 10.8 9.3 18.1 13.7 29.4 17.8 6.8 2.4 10 2.9 21.4 3.3 8.7.4 15.9.1 20.5-.7 8.1-1.5 24.2-7.7 32.7-12.7 4.9-2.8 6.7-3.4 10.7-3.1s4.9.7 6 3c4.1 8.6-17.3 29.1-38.1 36.6-11.7 4.2-23 6.2-35.7 6.2-25.4 0-44.1-5.7-66.5-20.1-20.4-13.2-39.9-39.1-49-65-6.5-18.5-6.9-21.4-6.9-47.9-.1-27.5.3-29.4 8.5-51.4 8.3-22 26-44.7 50-64.1 13.2-10.7 38.8-24.6 55.4-30.3 26.2-8.9 44.1-11.3 79-10.6 10.5.2 20.1.6 21.5.8m-79 131.5c16.6 8.5 24.6 13.8 38.5 25.5 9.8 8.2 36 34 45.3 44.6 11.6 13.2 31.1 37.4 41.5 51.5 3.6 4.9 8 10.8 9.6 13 5.8 7.8 14.8 20.1 19.6 27 2.6 3.8 5.1 7.2 5.4 7.5s1.1 1.3 1.6 2.2c1.9 3.3 29.8 44.3 31.5 46.3.9 1.1 2.2 3.1 2.8 4.5 1.7 3.6 3.4 6.2 24 37.8 13.9 21.3 19.7 30.3 25.7 40.2 3.3 5.2 11.4 17.8 18 28 6.7 10.2 13.7 21.2 15.5 24.5 1.9 3.3 4 6.7 4.8 7.5.7.8 4.6 6.4 8.6 12.5 5.8 8.9 17.1 25.6 27.6 40.9.8 1.1 4.7 6.5 8.7 11.9 4 5.3 9.6 13 12.5 17 11.2 15.8 41.6 47 59.6 61.3 32 25.2 73.2 40.8 99.7 37.5 9.2-1.1 19.7-4.7 26.6-9.2 5.2-3.3 16.3-14.3 18.3-18 .7-1.3 2.4-4.2 3.7-6.4 4.1-6.6 7.6-15.5 9.9-25 7.3-30 14.5-44.2 30.8-60.9 12.8-13.1 24.2-19.1 51.7-27.5 6.9-2.1 26-5.6 40.5-7.3 11.5-1.3 56.5-1.7 67.2-.5 6.2.6 21.4 2.5 39.3 4.7 12.8 1.6 27.6 7.5 28.3 11.3.2 1.2-.7 2.2-3.1 3.2-2.9 1.2-9.7 1.5-35.4 1.5-55.1 0-80.7 2.6-114.7 11.7-17.6 4.7-22.6 6.7-33.4 13.1-15.6 9.2-23.1 17.3-28.9 31.3-3.9 9.6-5.3 17-6 32.4-.6 15.7.5 22.1 5.6 33 5.5 11.5 18.3 21.4 31.6 24.3 20.2 4.5 33.1 5.3 96.5 6.1 39.7.5 57.6 1.1 60.2 1.9 5.6 1.9 6.1 6 1 8.1-7.2 3-28.9 6.6-57.7 9.6-2.7.3-6.8.7-9 1-2.2.2-7.4.7-11.5 1s-10.6.9-14.5 1.3c-3.8.4-19.6.7-35 .7-23.4 0-29.4-.3-36.5-1.9-22.7-4.9-40.5-16.2-51.7-32.9-1.4-2-3.1-3.7-3.7-3.7-.7 0-3.2 2.1-5.6 4.6-12.2 12.6-29.2 23.1-44.5 27.4-10 2.9-35.8 3.9-48.7 2-15.1-2.2-44-12.6-60.3-21.7-25.6-14.3-53.8-37.8-74.4-61.8-4.7-5.5-8.8-10.2-9.1-10.5-2.8-2.5-30-37.9-34.6-45-1.6-2.5-3.2-5-3.7-5.5-1.2-1.7-30.4-46.6-34-52.5-1.8-3-9.1-15.2-16.1-27-7.1-11.8-13.6-22.6-14.6-24-3.1-4.5-12-19.1-12-19.7 0-.4-1-2-2.3-3.7s-2.6-3.9-3-4.8c-.3-1-2.9-5.1-5.7-9.3-2.7-4.1-5-7.7-5-8.1 0-.8-17-29.5-18-30.4-.3-.3-3.2-4.9-6.5-10.3s-7.7-12.4-9.7-15.5c-2.1-3.1-4-6.4-4.4-7.2s-4-6.6-8.1-12.8c-4-6.2-7.3-11.4-7.3-11.7 0-.5-22-33.7-37.3-56.5-9.7-14.5-22.8-33.2-23.7-34-.3-.3-1.7-2.1-3-4s-2.7-3.7-3-4-5.3-6.6-11-14-10.7-13.7-11-14-2.1-2.5-4-5c-5.2-6.6-10.3-12.2-23-25.4-6.3-6.5-12-12.3-12.6-13-1.1-1.1-17.6-16.3-24.8-22.8-7.5-6.7-.4-9.5 10.4-3.9m72.2 185.6c4.9 4.9 11.5 12.3 14.5 16.4 3 4.2 7.2 9.8 9.4 12.6 2.2 2.7 6.4 8.1 9.3 12 3 3.8 6.2 8 7.2 9.2 1.1 1.1 2.5 2.9 3.2 4 .6 1 4.9 7 9.3 13.3 9 12.7 51.9 77.3 55.9 84.1.8 1.4 2.8 4.8 4.4 7.5s3.9 6.5 5.1 8.4c1.3 1.9 4.4 6.9 7 11s5.5 8.6 6.5 10c.9 1.4 2.7 4.3 3.9 6.5 2.5 4.7 4.4 7.8 5.1 8.5.9.8 22.4 37.8 34.1 58.7 1.1 1.9 5.5 8.7 9.8 15.1 4.3 6.5 12.2 18.4 17.7 26.7 19.8 30 37.1 50.2 62.2 72.2 9.2 8.1 29 22.3 31.1 22.3.6 0 1.1.4 1.1.8 0 1.5 40.1 20.9 49.5 24 30.4 10.1 51 14.2 89 17.7 31 2.9 89.2 1.3 146-4 4.5-.4 15.3-1.4 33.5-3.1 3.6-.4 7.6-.8 9-1 1.4-.1 9.2-.3 17.4-.4 10.9-.1 15.1.2 15.7 1.1 1.3 2.1-.1 3.6-5.2 5.7-4.2 1.8-45.9 12.6-58 15.1-39.9 8.2-92 16.1-105.5 16.1-3.4 0-8.5.5-11.5 1-7.2 1.4-61.6 1.4-75.9 0-16.8-1.6-42.1-6.3-64.8-12-6.7-1.7-12.7-2.8-13.3-2.4-.6.3-2.3 3.4-3.9 6.8-1.5 3.3-4.7 10.1-7 15.1-9.1 19.1-21.5 45.7-28.9 62-4.3 9.3-14.4 31.2-22.6 48.5-8.1 17.3-17.9 38.2-21.7 46.5-24.3 52-34.3 67.7-47.7 74.2-8.6 4.3-20.5 3.7-23.7-1.2-3.1-4.8-1.1-19.8 4.9-37 1.4-3.9 3.7-11.7 5.2-17.5s6.8-23.6 11.7-39.5c5-16 9.8-31.9 10.8-35.5s3.2-11.2 5-17 4.2-14.3 5.5-19c3.7-13.9 10.4-36.6 15.1-51.5 2.5-7.7 5.6-18.1 7-23 4.9-17.6 7.4-26.1 10.9-37.8 1.9-6.5 3.5-13.2 3.5-14.7 0-2.4-2.1-4.7-13.7-15-7.6-6.6-14.5-12.8-15.4-13.8-4.4-4.8-11.8-13.3-15.4-17.7-2.2-2.7-5.2-6.2-6.6-7.9-7-8.5-19.8-26.5-26.6-37.6-2.2-3.6-6.2-10.1-9-14.5-2.7-4.4-6.3-10.5-8-13.5-1.6-3-7.4-13.4-12.8-23-13.4-23.9-13.9-24.9-20.7-38.4-5.8-11.6-18.7-36.1-24.3-46.1-4.4-7.8-17.4-32.4-20.6-38.6-1.5-3.1-4.3-8.1-6.2-11-1.8-3-4.7-7.9-6.4-10.9-1.6-3-7.4-13.2-12.8-22.5-5.4-9.4-10.3-17.9-10.9-19s-6.8-11.5-13.7-23c-7-11.6-13.6-23-14.9-25.5-1.2-2.5-3.6-6.4-5.2-8.7-3.8-5.6-8.7-14.4-15-27.2-4.9-9.7-5.1-10.4-3.4-11.6 2.7-2 4.8-.8 14.8 9m1561.6 155c1.3.2 6.7.7 12 1 11.4.6 22.5 1.5 26.7 2 11 1.3 28.8 3.9 41 5.9 19.2 3.2 53.4 13.2 71 20.8 35 14.9 55.8 30.5 69.8 52.3 4.8 7.5 11.7 21.5 11.7 23.8 0 .7.4 1.7.9 2.2 1.4 1.6 4.9 13.4 7.1 24.2 8.2 40.9-10.3 82.2-48.1 107.5-18.7 12.5-29.8 17.6-59.9 27.5-14.4 4.7-23.7 7.2-51.5 13.8-7.2 1.8-35.4 6-48.3 7.3-12.6 1.3-12.8 1.5-9.8 12.2 4.4 16 17.6 61.5 20.5 71 1.7 5.2 5.3 17.4 8.2 27 4.6 15.6 7.4 24.8 13.9 45.5 1 3.3 3 10.5 4.5 16s4.4 15.4 6.5 22 5 16.3 6.4 21.5c1.3 5.2 4 15.2 5.9 22.1 5.6 20.2 5.3 29.6-1 32-7.9 3-25.2-2.7-31.9-10.5-7.6-8.8-17.6-27.6-38-71.1-2-4.4-5.9-12.7-8.6-18.5-2.8-5.8-5.8-12.5-6.8-15s-5.7-12.6-10.5-22.5c-8.7-17.8-27.5-58.3-27.5-59 0-.3-3.3-7.1-7.3-15.2s-10-20.9-13.2-28.3c-6.9-15.5-10.3-22-11.9-22.5-1.8-.6-134.2-1.5-171.1-1.3-18.7.2-91.4.3-161.5.3-139 0-137.6.1-146.4-5.6-4.5-2.8-5.2-4.1-4.6-9.4.3-3.1 5-7.5 10.9-10.2 6.9-3.1 27.5-6 51.5-7.3 10-.5 25.3-1.4 34.1-1.9s34.2-1.3 56.5-1.6c22.3-.4 51.3-.9 64.5-1.1 13.2-.3 62.3-.7 109-.9 146.6-.9 184.6-1.3 199-2.4 34.4-2.6 42.6-3.3 51.5-4.6 5.2-.8 11.8-1.7 14.5-2 41.3-5.1 82.8-16.4 114.7-31.3 12.5-5.8 25.1-14.4 33.1-22.5 17.5-17.6 23.2-45.5 14.5-71-9.3-27.2-27.6-46.6-58.3-61.9-6.6-3.3-15.6-7.3-20-9-7.7-2.8-42.8-13-49-14.1-1.6-.3-7.3-1.5-12.5-2.6s-13.1-2.5-17.5-3.1-9.1-1.3-10.5-1.5-7.7-.9-14-1.5-15.1-1.5-19.5-2-15.6-1.2-25-1.4c-9.3-.3-20.6-1-25-1.5-4.5-.6-41.5-1.2-84-1.5-41.8-.2-82.3-.6-90-1-7.7-.3-19.9-.8-27.1-1.1-18-.8-21.4-1.6-21.4-5 0-3.7 26-8.1 59-9.9 4.7-.3 9.9-.7 11.5-1 1.7-.3 10.9-.8 20.5-1.1 25.1-.8 41.5-1.6 49-2.5 3.6-.4 24-.8 45.5-.9 21.4-.1 39.1-.4 39.4-.6.5-.6 43.7.3 46.9 1m150.8 170c.3.8-.3 2.9-1.4 4.7-8.3 13.4-36.1 26.2-71.2 32.8-37 6.9-55.3 9-98 11-28 1.4-431.9 1.3-461.1 0-29.6-1.4-39.9-3-39.9-6.5 0-.9 1.5-2.2 3.4-3 4.2-1.8 23.5-3.4 42.3-3.6 7.8 0 17.7-.5 22-.9 11.6-1.3 55.9-3.1 89.3-3.6 16.2-.3 31.5-.7 34-1 4.2-.4 38.3-.7 243-1.8 43.7-.3 84.9-.7 91.5-1 16.2-.7 30.4-1.6 34-2.1 1.7-.2 5.9-.7 9.4-1 17.9-1.5 51.5-8.1 66.5-13.1 4.4-1.4 11.2-4.2 15-6.1 11.8-6 20.1-7.9 21.2-4.8" class="icon-part"/></svg>