<svg xmlns="http://www.w3.org/2000/svg" viewBox="0 0 2048 2048">
  
  <g class="layer icon-part-1">
<g transform="translate(0.000000,2048.000000) scale(0.100000,-0.100000)"
fill="#FF3366" stroke="none">
<path d="M10585 15444 c-377 -70 -802 -258 -1235 -547 -376 -252 -768 -643
-1029 -1027 -148 -219 -224 -360 -307 -572 -178 -454 -203 -954 -65 -1301 65
-163 148 -293 265 -416 152 -159 324 -265 543 -334 279 -88 584 -72 820 43 45
22 91 52 102 67 25 31 28 81 5 90 -9 3 -78 -5 -153 -18 -108 -19 -169 -24
-296 -23 -144 1 -169 4 -250 28 -131 40 -239 95 -330 169 -187 152 -302 350
-346 597 -19 106 -16 362 5 475 58 307 180 591 395 920 318 488 808 965 1286
1252 271 163 511 279 660 319 189 50 190 49 182 -206 -6 -186 -29 -493 -62
-830 -43 -433 -87 -879 -100 -995 -53 -482 -97 -865 -110 -955 -9 -58 -33
-244 -56 -415 -61 -473 -85 -646 -128 -945 -80 -544 -112 -756 -127 -840 -9
-47 -47 -267 -84 -490 -60 -355 -128 -705 -214 -1100 -39 -182 -34 -174 -124
-194 -180 -42 -729 -228 -965 -327 -166 -69 -516 -240 -662 -323 -678 -386
-1177 -821 -1517 -1321 -142 -209 -218 -359 -291 -577 -93 -273 -121 -447
-121 -738 -1 -231 11 -329 61 -500 76 -267 244 -532 434 -685 103 -83 188
-133 309 -184 117 -48 219 -70 364 -78 434 -23 868 171 1267 567 222 219 355
397 575 766 128 213 337 647 438 906 14 38 37 97 51 133 26 66 120 333 175
495 45 132 143 464 204 690 31 113 70 255 86 315 46 170 118 465 151 620 19
90 35 144 46 152 9 7 41 20 72 29 115 33 256 85 298 109 42 25 61 59 50 89
-11 29 -121 32 -328 10 l-56 -6 19 88 c39 191 120 631 157 859 84 503 112 686
185 1195 42 289 87 602 101 695 122 832 205 1598 250 2325 36 592 39 660 38
975 -1 411 -27 684 -74 782 -29 59 -109 137 -176 169 -52 26 -68 29 -183 31
-79 1 -155 -3 -205 -13z"/>
</g>
  </g>
  
  <g class="layer icon-part-2">
<g transform="translate(0.000000,2048.000000) scale(0.100000,-0.100000)"
fill="#33CCFF" stroke="none">
<path d="M13382 15780 c-91 -38 -161 -119 -249 -285 l-58 -110 -140 -40 c-425
-123 -818 -340 -1070 -590 -158 -157 -233 -274 -243 -377 -6 -63 22 -98 79
-98 49 0 83 29 165 141 36 49 95 116 132 150 124 114 370 265 596 366 109 49
305 123 326 123 10 0 -30 -119 -128 -385 -104 -283 -279 -810 -379 -1145 -68
-229 -182 -627 -208 -730 -15 -58 -45 -166 -66 -240 -54 -191 -276 -1088 -396
-1600 -8 -36 -18 -68 -22 -73 -10 -10 -103 19 -191 60 -144 68 -204 53 -204
-50 0 -94 88 -197 238 -281 l88 -48 -6 -42 c-4 -22 -17 -93 -31 -156 -173
-814 -296 -1470 -366 -1949 -16 -113 -38 -262 -49 -331 -78 -500 -131 -1367
-101 -1639 15 -143 47 -291 75 -354 45 -102 137 -156 186 -107 48 48 65 124
90 420 56 654 120 1123 271 1985 79 452 288 1454 400 1916 l40 166 142 6 c324
14 607 70 972 192 138 46 304 107 370 135 471 205 865 465 1204 795 295 288
485 545 656 890 167 338 266 717 282 1080 21 481 -137 955 -430 1295 -265 309
-657 512 -1128 587 -91 14 -171 18 -397 17 -241 0 -282 2 -277 14 13 35 35
189 30 213 -3 14 -19 39 -35 54 -25 24 -40 29 -87 32 -32 1 -68 -2 -81 -7z"/>
</g>
  </g>
  
  <g class="layer icon-part-3">
<g transform="translate(0.000000,2048.000000) scale(0.100000,-0.100000)"
fill="#33FF66" stroke="none">
</g>
  </g>
  
  <g class="layer icon-part-4">
<g transform="translate(0.000000,2048.000000) scale(0.100000,-0.100000)"
fill="#CC33FF" stroke="none">
</g>
  </g>
  
  <g class="layer icon-part-5">
<g transform="translate(0.000000,2048.000000) scale(0.100000,-0.100000)"
fill="#00FFFF" stroke="none">
<path d="M15730 10724 c-797 -39 -1155 -74 -1217 -119 -17 -13 -16 -14 11 -25
43 -16 439 -28 1171 -35 550 -5 1216 -26 1265 -40 8 -2 67 -9 130 -15 174 -17
425 -61 625 -111 224 -56 481 -164 635 -267 244 -163 380 -406 381 -678 2
-217 -93 -388 -283 -511 -217 -141 -549 -260 -908 -327 -516 -97 -842 -115
-2015 -116 -823 0 -2277 -22 -2640 -40 -446 -21 -685 -49 -765 -90 -104 -53
-90 -153 26 -181 103 -25 556 -31 1564 -23 1040 9 1741 8 2309 -4 l314 -7 37
-85 c20 -47 89 -195 152 -330 63 -135 127 -271 142 -303 35 -77 157 -337 213
-457 25 -52 56 -117 68 -145 173 -385 387 -812 440 -878 52 -65 112 -99 204
-117 88 -17 141 8 141 64 0 80 -104 459 -290 1056 -22 69 -86 287 -144 485
-57 198 -130 445 -160 548 -31 104 -56 195 -56 202 0 8 34 16 108 24 271 30
507 73 702 127 428 119 685 248 876 438 173 174 249 340 269 591 17 201 -74
500 -210 690 -58 81 -183 200 -275 262 -346 232 -924 380 -1645 423 -227 13
-846 10 -1175 -6z"/>
</g>
  </g>
  
  <g class="layer icon-part-6">
<g transform="translate(0.000000,2048.000000) scale(0.100000,-0.100000)"
fill="#FF00FF" stroke="none">
<path d="M3004 12165 c-7 -16 14 -54 316 -570 288 -492 277 -473 442 -770 209
-376 336 -611 426 -790 85 -168 269 -500 365 -658 226 -370 486 -689 726 -889
36 -31 43 -41 39 -65 -6 -30 -156 -550 -218 -753 -21 -69 -48 -161 -60 -205
-19 -70 -50 -172 -145 -490 -13 -44 -62 -206 -108 -360 -151 -497 -204 -712
-186 -747 36 -66 181 -63 272 6 84 65 228 330 504 936 14 30 50 107 80 170 30
63 92 196 138 295 46 99 122 263 169 365 48 102 114 245 148 318 36 78 66 132
75 132 7 0 59 -13 114 -30 253 -75 489 -109 824 -117 489 -12 1068 61 1664
212 295 75 358 96 346 116 -9 13 -216 11 -400 -6 -158 -14 -421 -34 -725 -55
-224 -15 -665 -12 -865 5 -616 54 -1040 209 -1425 519 -162 131 -357 338 -512
542 -115 151 -369 559 -648 1039 -124 215 -140 240 -325 525 -195 301 -507
758 -603 885 -195 255 -372 455 -405 455 -10 0 -20 -7 -23 -15z"/>
</g>
  </g>
  
  <g class="layer icon-part-7">
<g transform="translate(0.000000,2048.000000) scale(0.100000,-0.100000)"
fill="#FF3366" stroke="none">
<path d="M2670 14895 c-285 -41 -561 -148 -780 -302 -117 -83 -319 -283 -383
-379 -207 -313 -259 -674 -151 -1049 111 -388 435 -705 794 -779 267 -54 501
-18 681 105 160 110 236 216 184 259 -26 21 -61 14 -142 -30 -211 -113 -364
-142 -564 -104 -164 30 -360 149 -463 280 -146 187 -214 402 -203 649 10 252
104 448 300 631 251 234 537 357 863 371 326 14 606 -50 949 -216 249 -120
442 -245 726 -467 261 -204 825 -750 1170 -1134 380 -421 458 -509 594 -665
203 -233 394 -459 530 -630 66 -82 145 -179 175 -216 30 -37 91 -111 135 -165
180 -222 378 -453 449 -523 60 -60 76 -71 82 -58 18 47 -250 478 -624 1005
-272 383 -347 488 -511 707 -776 1035 -1523 1806 -2170 2239 -385 257 -704
393 -1086 462 -123 22 -431 27 -555 9z"/>
</g>
  </g>
  
  <g class="layer icon-part-8">
<g transform="translate(0.000000,2048.000000) scale(0.100000,-0.100000)"
fill="#33CCFF" stroke="none">
<path d="M2366 13752 c-4 -6 26 -37 66 -69 106 -84 198 -171 327 -307 266
-284 458 -536 811 -1066 318 -476 450 -690 908 -1460 571 -962 925 -1443 1292
-1755 153 -131 255 -200 408 -275 255 -125 429 -176 637 -187 246 -13 470 78
641 260 60 64 78 78 85 66 45 -81 142 -183 236 -247 45 -32 156 -72 243 -88
139 -27 418 -28 685 -5 428 39 719 83 774 118 21 13 22 17 9 30 -27 26 -156
35 -513 34 -515 -1 -809 20 -947 68 -65 22 -127 63 -175 113 -77 80 -130 267
-120 418 18 243 114 418 288 525 153 94 444 170 829 216 52 6 257 13 455 16
201 3 368 10 378 15 17 9 18 11 2 28 -40 44 -163 76 -404 105 -439 53 -829 33
-1153 -61 -219 -63 -302 -108 -434 -239 -129 -127 -200 -268 -259 -512 -91
-375 -347 -575 -683 -533 -121 14 -265 62 -412 134 -226 113 -407 252 -604
464 -201 218 -345 411 -661 882 -204 305 -286 431 -469 723 -183 291 -260 413
-287 452 -15 22 -100 150 -190 285 -260 392 -393 578 -642 904 -179 232 -500
580 -657 711 -92 76 -228 166 -312 205 -71 33 -142 48 -152 32z"/>
</g>
  </g>
  
  <g class="layer icon-part-9">
<g transform="translate(0.000000,2048.000000) scale(0.100000,-0.100000)"
fill="#33FF66" stroke="none">
<path d="M18200 9251 c-14 -5 -62 -27 -108 -50 -198 -99 -513 -167 -892 -191
-96 -6 -195 -13 -220 -15 -25 -3 -677 -10 -1450 -15 -1439 -9 -1516 -11 -2255
-36 -663 -23 -926 -42 -954 -69 -12 -12 -11 -15 10 -23 42 -16 218 -33 444
-42 299 -13 3553 -12 3830 0 429 19 786 54 990 97 293 61 507 156 624 276 58
61 50 89 -19 68z"/>
</g>
  </g>
</svg>
