<?xml version="1.0" standalone="no"?>
<!DOCTYPE svg PUBLIC "-//W3C//DTD SVG 20010904//EN"
 "http://www.w3.org/TR/2001/REC-SVG-20010904/DTD/svg10.dtd">
<svg version="1.0" xmlns="http://www.w3.org/2000/svg"
 width="1024.000000pt" height="1024.000000pt" viewBox="0 0 1024.000000 1024.000000"
 preserveAspectRatio="xMidYMid meet">
<metadata>
Created by potrace 1.16, written by Peter Selinger 2001-2019
</metadata>
<g transform="translate(0.000000,1024.000000) scale(0.100000,-0.100000)"
fill="#000000" stroke="none">
<path d="M6128 7080 c-37 -11 -86 -47 -338 -245 -474 -373 -433 -325 -445
-520 -4 -64 -13 -116 -25 -145 -11 -25 -33 -80 -51 -122 -17 -43 -34 -78 -38
-78 -17 0 -71 206 -71 270 -1 82 -21 190 -43 223 -21 32 -239 196 -251 189
-10 -6 0 -14 126 -114 103 -81 120 -112 125 -223 3 -82 17 -177 28 -195 3 -5
2 -10 -3 -10 -14 0 -67 131 -114 280 -27 85 -69 127 -173 169 -44 19 -84 34
-90 35 -5 1 -20 8 -32 14 -13 7 -23 10 -23 6 0 -3 -7 -1 -15 6 -8 7 -15 9 -15
5 0 -4 -7 -2 -15 5 -8 7 -15 10 -15 6 0 -4 -11 1 -25 10 -14 9 -28 14 -32 10
-4 -3 -13 0 -22 8 -9 8 -59 30 -111 49 -52 19 -124 48 -160 65 -98 45 -144 48
-210 16 -30 -14 -89 -50 -130 -79 -41 -28 -125 -86 -187 -128 -182 -124 -333
-239 -327 -249 3 -5 11 -5 17 0 128 97 507 356 610 416 64 38 118 37 204 -4
84 -39 284 -112 291 -105 3 3 10 0 17 -5 6 -5 22 -12 36 -14 13 -3 25 -5 27
-7 1 -1 7 -3 12 -4 6 -1 12 -4 15 -5 3 -1 8 -3 13 -4 4 -1 16 -7 27 -13 11 -6
23 -12 27 -12 24 -4 195 -90 206 -103 7 -9 35 -77 62 -153 27 -75 54 -144 59
-153 7 -12 5 -22 -6 -35 -18 -19 -20 -84 -4 -100 11 -11 17 0 23 37 8 52 41 5
102 -151 20 -52 22 -63 9 -67 -8 -3 -12 -10 -8 -15 11 -19 -37 -34 -90 -28
-68 7 -129 35 -188 87 -51 45 -80 90 -75 118 2 11 -4 18 -18 20 -24 3 -49 47
-33 57 5 4 7 11 3 16 -3 5 -9 7 -14 4 -9 -5 -30 55 -30 86 0 8 -5 20 -10 25
-8 8 -7 19 1 37 10 21 10 33 0 54 l-13 28 -20 -28 c-30 -41 -72 -59 -139 -58
-57 0 -110 18 -125 43 -6 10 -4 10 8 0 17 -13 25 -8 24 18 -1 8 -22 21 -51 30
-27 9 -63 22 -78 28 -35 15 -60 15 -74 1 -19 -19 -52 1 -74 42 -20 39 -39 44
-39 10 0 -10 13 -43 28 -74 28 -54 27 -77 -2 -77 -6 0 -21 -11 -34 -25 -13
-13 -29 -23 -35 -22 -6 1 -11 -3 -12 -10 0 -20 -20 -34 -51 -37 -16 -2 -29 -9
-29 -16 0 -7 -8 -14 -18 -16 -30 -4 -50 -14 -44 -21 7 -6 -51 -53 -65 -53 -5
0 -21 -8 -35 -17 -15 -10 -36 -18 -48 -19 -11 0 -39 -1 -63 -2 -51 -2 -62 -21
-33 -58 21 -26 19 -37 -15 -84 -14 -20 -12 -56 3 -53 7 2 3 -15 -10 -42 -14
-29 -31 -48 -49 -54 -16 -6 -28 -16 -28 -24 0 -8 -14 -28 -30 -46 -17 -17 -28
-36 -25 -40 3 -5 -10 -8 -28 -6 -34 2 -61 -11 -51 -26 3 -5 10 -7 15 -4 5 4 9
2 9 -3 0 -6 -7 -13 -16 -16 -9 -4 -14 -13 -10 -21 6 -17 -19 -21 -29 -4 -5 7
-14 4 -26 -7 -18 -16 -18 -18 -2 -37 18 -19 17 -20 -6 -8 -17 10 -26 10 -34 2
-9 -9 -5 -13 12 -18 l24 -6 -25 -21 c-13 -12 -35 -36 -47 -53 -12 -18 -29 -33
-36 -33 -13 0 -42 -40 -36 -48 1 -2 -28 -42 -66 -90 -115 -145 -209 -283 -252
-369 -68 -136 -145 -247 -244 -350 -33 -34 -43 -40 -55 -31 -11 10 -17 8 -28
-6 -10 -14 -21 -17 -43 -13 -31 6 -62 -15 -41 -28 5 -3 10 -3 10 2 0 4 5 0 11
-11 17 -27 -10 -41 -29 -15 -10 14 -17 17 -26 10 -7 -6 -16 -8 -19 -4 -4 3
-12 2 -19 -3 -7 -6 -26 -11 -43 -12 -36 -3 -124 -21 -145 -30 -8 -3 -28 -6
-45 -6 -16 -1 -31 -7 -31 -13 -1 -7 -3 -16 -4 -20 -1 -5 -2 -11 -1 -15 0 -4
-9 -4 -22 -2 -12 3 -34 7 -48 8 -40 4 -160 57 -199 88 -24 20 -37 25 -45 17
-13 -13 76 -96 153 -142 28 -17 52 -35 52 -39 0 -4 -20 -10 -45 -14 -25 -3
-49 -11 -53 -18 -4 -6 -32 -28 -62 -49 -98 -66 -528 -506 -515 -526 3 -6 24 8
47 30 52 50 98 83 98 71 0 -5 -7 -15 -15 -22 -26 -21 -5 -31 22 -10 14 11 32
20 39 20 7 0 17 6 21 14 9 16 98 86 109 86 5 0 37 20 73 43 37 24 75 47 85 51
19 7 19 6 2 -13 -13 -14 -14 -21 -5 -27 7 -4 17 -1 23 7 6 8 22 15 35 17 23 2
24 1 8 -16 -24 -26 -10 -34 27 -15 30 16 31 16 16 -3 -22 -29 -316 -337 -500
-524 -143 -147 -228 -249 -297 -360 -37 -59 -14 -54 47 12 57 62 90 75 55 22
-27 -42 -3 -51 31 -12 16 18 43 43 59 55 29 21 76 65 398 376 86 84 161 149
165 145 4 -4 26 16 50 44 53 64 198 190 243 213 19 10 43 25 54 35 11 10 43
28 72 39 81 32 153 72 153 85 0 7 15 17 33 24 27 10 45 8 122 -14 215 -61 435
-37 687 77 48 21 107 44 130 50 40 10 459 30 608 28 83 0 174 -19 330 -68 69
-21 155 -42 192 -45 68 -7 165 -43 189 -72 19 -24 224 -142 277 -159 46 -16
46 -16 65 9 22 31 31 32 64 6 18 -14 41 -20 75 -20 44 0 59 7 170 82 66 46
139 95 162 111 54 36 121 55 220 63 65 5 97 14 161 45 110 52 186 69 345 75
116 5 150 3 240 -17 60 -12 151 -23 212 -25 161 -4 245 -26 343 -87 122 -77
208 -107 308 -108 69 -1 244 16 279 27 9 3 35 -4 57 -16 22 -11 46 -20 54 -20
24 0 132 -77 193 -137 33 -32 119 -137 192 -233 159 -211 302 -376 325 -374
10 1 26 -10 38 -25 99 -128 153 -190 161 -185 5 4 3 13 -5 22 -8 10 -31 40
-51 69 -144 208 -180 269 -172 289 4 9 -15 47 -46 92 -28 42 -60 97 -71 122
-11 25 -28 56 -38 69 -37 47 -14 52 41 8 19 -16 40 -28 45 -29 6 0 16 -9 23
-20 13 -18 38 -15 26 4 -4 6 2 5 15 -2 12 -6 19 -15 17 -19 -7 -11 39 -53 47
-44 4 3 -1 15 -10 25 -28 31 -27 56 2 56 26 0 33 -12 15 -23 -7 -4 -7 -13 0
-26 6 -11 15 -17 21 -14 5 4 6 11 3 17 -4 6 -2 8 4 4 6 -3 13 -2 17 3 3 5 16
0 29 -12 13 -12 41 -39 63 -59 44 -42 63 -40 33 2 -11 16 -20 31 -20 36 0 4
-15 25 -33 48 -18 23 -43 57 -56 76 -27 41 29 -17 165 -172 47 -54 90 -96 95
-93 5 3 -26 52 -69 108 -158 210 -374 483 -400 505 -15 13 -52 35 -82 49 l-55
26 30 11 c96 36 218 152 242 231 14 44 3 52 -28 18 -29 -31 -85 -67 -119 -78
-14 -4 -41 -17 -60 -28 -37 -23 -49 -27 -95 -31 -28 -3 -44 7 -45 28 0 5 7 3
15 -4 12 -10 16 -9 22 6 9 22 30 29 47 15 9 -7 18 -7 30 2 14 10 15 18 7 40
-6 15 -16 27 -22 27 -7 0 -18 8 -24 17 -13 17 -14 17 -32 1 -13 -12 -23 -14
-30 -7 -7 7 -13 6 -21 -4 -8 -9 -26 -12 -56 -10 -26 3 -47 0 -51 -7 -5 -8 -10
-8 -20 0 -8 7 -16 7 -19 2 -3 -6 -21 -5 -43 3 -39 13 -58 11 -48 -6 4 -5 1 -9
-5 -9 -6 0 -14 -9 -18 -20 -7 -18 -9 -19 -36 -4 -17 8 -35 13 -42 10 -8 -3
-11 4 -9 20 3 29 -18 42 -39 25 -10 -9 -15 -8 -20 4 -3 9 -10 14 -15 11 -18
-11 -127 123 -169 206 -34 69 -102 238 -102 254 0 3 14 -6 31 -18 20 -15 29
-29 25 -40 -5 -21 27 -43 47 -32 9 5 9 4 1 -5 -14 -15 8 -66 28 -66 8 0 13
-14 13 -37 0 -44 9 -55 30 -38 12 10 13 16 3 28 -11 13 -10 15 3 10 24 -9 40
11 28 34 -5 10 -14 16 -19 13 -5 -3 -11 -1 -15 5 -10 16 27 12 39 -5 13 -19
56 -28 70 -16 6 5 27 11 46 13 26 3 35 9 35 24 0 28 -14 44 -41 44 -12 0 -26
5 -29 10 -4 6 -11 8 -16 5 -5 -3 -6 0 -4 7 3 8 -19 39 -52 71 -32 31 -68 69
-81 83 -13 14 -29 23 -37 20 -16 -6 -27 20 -21 51 6 26 -9 39 -28 24 -9 -7
-19 -6 -35 5 -12 9 -29 13 -38 10 -11 -5 -14 -2 -9 10 4 11 -1 18 -15 21 -12
4 -18 11 -15 20 3 7 -1 16 -9 20 -9 3 -14 10 -13 17 1 6 -13 26 -31 44 -22 22
-30 36 -24 45 19 25 5 44 -55 74 -2 0 -4 7 -5 15 -2 7 -10 24 -19 37 -10 13
-15 28 -12 32 2 5 -7 16 -21 25 -14 9 -25 23 -25 30 0 8 -7 17 -15 21 -14 5
-14 7 0 23 8 9 12 19 9 22 -7 7 24 40 60 63 34 23 23 39 -14 20 -25 -13 -29
-13 -41 1 -7 8 -18 13 -26 10 -8 -3 -12 -2 -9 3 3 5 0 14 -8 20 -10 9 -16 8
-26 -4 -7 -8 -9 -15 -4 -15 10 0 -17 -20 -28 -20 -3 0 -13 13 -21 30 -8 16
-12 28 -9 27 7 -2 13 9 11 18 -1 3 -2 10 -3 15 0 6 -5 9 -11 8 -5 -2 -9 -6 -7
-11 1 -4 -1 -6 -5 -5 -5 1 -18 -4 -31 -11 -21 -11 -23 -10 -20 6 2 13 -3 18
-19 17 -13 0 -23 3 -23 8 0 5 18 7 40 5 22 -2 43 -1 45 3 2 4 -20 30 -50 58
-30 28 -57 47 -60 42 -3 -6 -4 -14 -1 -18 3 -5 -9 -6 -25 -4 -21 3 -27 8 -20
15 14 14 -5 38 -23 31 -8 -3 -16 4 -18 14 -4 14 1 23 18 31 l24 11 -20 35
c-11 20 -20 44 -20 55 0 28 -50 84 -63 71 -14 -14 -30 -14 -22 -1 3 6 -1 13
-9 16 -25 9 -19 22 13 29 31 7 76 48 68 62 -3 5 -29 8 -58 7 -29 -1 -66 4 -83
11 -17 7 -51 21 -76 31 -78 33 -240 165 -240 197 0 3 8 7 19 10 13 3 18 -1 17
-16 -1 -15 6 -20 24 -21 24 -2 64 -34 86 -71 13 -24 58 -30 74 -10 7 8 10 16
6 16 -3 1 -10 3 -16 4 -5 1 -14 3 -20 4 -5 0 -10 6 -10 12 0 15 -52 69 -67 69
-7 0 -21 10 -33 22 -11 12 -27 23 -35 24 -8 1 -27 11 -43 23 -16 11 -33 17
-37 13 -4 -4 -3 2 2 13 6 11 11 38 11 59 1 21 4 41 6 44 3 2 1 13 -5 24 -12
22 -29 15 -29 -13 0 -10 -20 -39 -44 -64 -43 -43 -69 -55 -80 -36 -8 13 -85 5
-129 -14 -24 -10 -35 -20 -31 -27 26 -41 -8 -96 -41 -68 -10 8 -16 7 -23 -7
-6 -10 -13 -17 -16 -15 -3 1 -7 2 -8 1 -21 -6 -75 -12 -95 -10 -7 1 -31 17
-53 37 -21 20 -44 33 -50 29 -5 -3 -10 -39 -10 -79 0 -79 -29 -185 -75 -276
-55 -109 -225 -225 -330 -225 -85 0 -154 43 -81 51 33 3 52 18 59 44 7 27 -10
35 -22 11 -6 -11 -24 -26 -41 -34 -25 -13 -31 -13 -41 -1 -9 11 3 39 61 136
66 111 74 120 86 103 18 -25 18 -25 -10 -90 -34 -77 -13 -80 24 -3 36 73 41
120 16 147 -16 18 -16 22 14 74 17 30 42 83 55 117 38 96 92 161 180 214 69
42 356 186 380 192 18 3 199 87 223 102 15 10 41 13 86 10 60 -4 69 -8 138
-59 40 -31 98 -73 128 -94 91 -64 159 -115 285 -216 156 -124 226 -173 360
-249 61 -35 121 -73 134 -84 13 -12 59 -69 103 -128 80 -109 183 -212 201
-201 5 3 -14 28 -41 57 -28 28 -86 105 -130 171 l-80 120 -113 59 c-138 71
-237 136 -401 262 -67 52 -185 142 -260 200 -76 57 -138 109 -138 115 0 6 3 8
8 6 121 -73 488 -297 528 -322 30 -19 100 -58 157 -86 117 -58 152 -88 211
-179 24 -36 83 -111 132 -167 49 -56 155 -177 235 -270 308 -353 882 -955 979
-1026 59 -44 68 -53 104 -107 19 -29 40 -42 126 -75 65 -26 118 -54 146 -78
40 -35 46 -48 89 -180 50 -154 99 -254 172 -350 72 -95 184 -218 193 -212 5 3
-38 70 -96 148 -142 194 -176 262 -208 415 -15 74 -33 134 -46 152 -41 57 -96
95 -182 122 -102 34 -122 48 -151 103 -16 32 -47 62 -112 111 -193 144 -345
294 -891 884 -144 156 -340 391 -419 506 -50 71 -104 142 -121 159 -17 17 -89
60 -160 95 -71 35 -181 94 -244 131 -466 268 -789 441 -817 439 -10 -1 -20 -1
-23 0 -18 7 -49 7 -72 0z m212 -81 c44 -24 80 -46 80 -51 0 -4 -17 -8 -39 -8
-27 0 -76 -19 -175 -69 -75 -38 -136 -67 -136 -65 0 5 -144 -62 -274 -127
-126 -64 -213 -116 -233 -140 -6 -8 -39 -81 -73 -163 -116 -281 -126 -290
-116 -103 9 170 22 205 109 281 91 81 357 287 467 361 52 36 107 75 121 86 41
33 126 58 160 49 16 -5 65 -28 109 -51z m-180 -593 c0 -3 -4 -8 -10 -11 -5 -3
-10 -1 -10 4 0 6 5 11 10 11 6 0 10 -2 10 -4z m-285 -46 c10 -11 13 -20 7 -20
-6 0 -16 9 -22 20 -6 11 -9 20 -7 20 2 0 12 -9 22 -20z m258 -160 c31 -51 159
-175 228 -219 l67 -42 7 -72 c12 -126 90 -283 179 -359 l31 -27 -1 -103 c-2
-202 -64 -371 -176 -481 -87 -85 -157 -125 -343 -193 -11 -4 -25 -6 -32 -5 -6
1 -14 -3 -18 -8 -3 -6 -12 -8 -19 -5 -8 3 -17 0 -21 -5 -3 -6 -10 -9 -15 -6
-5 3 -21 0 -37 -7 -15 -6 -31 -11 -34 -10 -16 3 -253 -49 -303 -67 -84 -29
-193 -101 -257 -168 -76 -79 -144 -174 -165 -229 l-17 -45 -31 58 c-38 70
-179 221 -260 276 -85 57 -208 104 -354 133 -165 33 -302 79 -370 124 -29 20
-96 79 -148 130 -146 144 -185 245 -177 454 l5 109 60 71 c33 39 66 84 75 100
17 32 62 182 63 206 0 9 30 31 73 52 122 60 229 155 279 247 l18 32 66 -37
c57 -32 77 -37 133 -39 l66 -1 27 -73 c51 -140 105 -202 187 -216 22 -4 47
-16 58 -27 25 -28 83 -56 130 -64 53 -8 107 15 128 56 l16 31 35 -30 c52 -46
124 -47 213 -1 76 38 224 209 278 321 32 68 40 78 59 73 35 -9 233 60 250 87
10 17 30 9 47 -21z m-813 -142 c-12 -18 -19 -25 -16 -15 3 11 9 30 12 44 5 16
10 21 17 14 6 -6 2 -21 -13 -43z m1555 -58 c3 -5 -1 -10 -10 -10 -9 0 -13 5
-10 10 3 6 8 10 10 10 2 0 7 -4 10 -10z m-1598 -169 c10 -16 8 -20 -14 -30
-22 -10 -25 -9 -19 4 3 9 6 23 6 31 0 20 13 17 27 -5z m-61 -59 c-9 -17 -21
-34 -27 -38 -18 -11 -70 -7 -83 6 -8 9 -6 11 9 8 25 -5 94 27 102 48 3 8 7 13
10 10 2 -2 -3 -18 -11 -34z m1680 -84 c1 -10 -2 -18 -7 -18 -5 0 -9 5 -9 10 0
6 -17 17 -37 25 -21 9 -46 27 -56 41 -18 24 -16 23 44 -8 36 -19 64 -40 65
-50z m124 42 c-20 -13 -30 -12 -30 1 0 5 4 8 9 4 5 -3 13 0 16 6 4 5 10 8 13
4 4 -3 0 -10 -8 -15z m-3020 -30 c0 -5 -5 -10 -11 -10 -5 0 -7 5 -4 10 3 6 8
10 11 10 2 0 4 -4 4 -10z m2925 -30 c3 -5 1 -10 -4 -10 -6 0 -11 5 -11 10 0 6
2 10 4 10 3 0 8 -4 11 -10z m-2955 -34 c0 -3 -4 -8 -10 -11 -5 -3 -10 -1 -10
4 0 6 5 11 10 11 6 0 10 -2 10 -4z m-40 -45 c0 -14 -117 -118 -165 -146 -24
-14 -56 -28 -72 -31 -26 -5 -27 -4 -9 9 10 8 16 18 13 23 -8 13 7 35 24 37 8
2 32 13 52 25 21 12 43 22 48 22 5 0 20 10 33 23 40 39 76 57 76 38z m-264
-143 c-9 -5 -21 -6 -28 -2 -8 5 -5 10 8 14 25 10 41 0 20 -12z m3074 -208 c0
-60 -36 -146 -87 -205 -23 -27 -44 -47 -47 -44 -3 3 8 39 24 80 16 41 41 119
56 174 27 97 28 99 40 70 7 -17 13 -50 14 -75z m107 8 c-3 -8 -6 -5 -6 6 -1
11 2 17 5 13 3 -3 4 -12 1 -19z m-3108 -101 c23 -105 99 -158 81 -55 -5 23 -5
51 0 62 6 17 9 15 20 -19 24 -75 72 -160 142 -252 84 -111 154 -178 211 -203
42 -18 215 -64 358 -95 l76 -16 -45 -44 c-57 -58 -46 -80 14 -25 24 22 49 40
56 41 102 9 270 -82 394 -214 123 -130 149 -191 144 -346 -1 -41 -8 -63 -28
-91 l-26 -37 -76 40 c-184 97 -206 112 -182 115 15 2 48 -11 85 -34 51 -32 71
-39 114 -39 64 0 65 14 3 36 -25 9 -61 23 -80 32 -58 27 -122 48 -178 57 -50
9 -189 54 -258 85 -33 16 -170 46 -313 70 -57 9 -153 15 -245 15 -203 0 -188
-2 -181 20 9 27 -11 34 -35 10 -25 -25 -29 -25 -27 -1 0 11 4 18 8 15 4 -2 12
3 18 10 16 19 -5 32 -24 16 -26 -21 -18 7 21 77 50 88 32 101 -28 19 -28 -39
-69 -80 -107 -105 -34 -23 -61 -46 -61 -50 0 -9 -41 -23 -48 -17 -2 2 9 16 24
30 16 14 25 28 21 32 -3 4 1 20 9 36 9 16 13 36 10 43 -3 9 -39 -20 -102 -81
-58 -57 -115 -103 -143 -116 -25 -11 -54 -25 -63 -30 -14 -6 -18 -5 -18 7 0
21 39 58 55 51 24 -9 27 12 5 34 -12 12 -26 18 -33 13 -6 -4 -18 -8 -27 -9
-72 -10 -122 -16 -162 -18 -26 -2 -55 -9 -63 -16 -13 -11 -16 -11 -13 0 2 9
-12 16 -42 22 -24 4 -48 15 -53 24 -6 11 -17 14 -33 10 -20 -5 -26 -2 -34 18
-7 18 -19 27 -47 32 -21 4 -43 11 -49 15 -6 5 -19 7 -28 3 -20 -8 -21 9 -1 26
15 12 11 35 -4 25 -5 -2 -17 5 -27 18 -12 13 -13 17 -3 9 20 -15 33 -4 16 16
-9 13 -9 14 1 8 8 -5 15 2 22 18 5 14 24 42 43 63 53 60 120 162 166 257 l43
87 25 -16 c36 -24 59 -26 100 -8 39 16 88 50 88 61 0 4 6 16 14 27 9 15 11 15
7 3 -3 -10 -1 -20 3 -23 15 -9 35 26 33 55 -1 16 2 32 8 35 6 4 9 1 8 -6 -6
-23 21 -20 38 5 9 14 22 26 28 26 7 0 23 11 36 25 17 18 20 28 12 38 -8 10 -5
12 16 11 15 -1 35 5 44 13 9 8 21 12 27 9 5 -3 19 7 30 22 18 26 19 31 6 49
-14 19 -13 21 5 16 11 -3 17 -9 14 -15 -3 -5 0 -15 6 -23 9 -11 17 -12 32 -4
14 7 23 7 33 -1 11 -9 16 -7 25 10 6 12 14 19 17 16 11 -11 42 26 36 42 -5 15
-4 15 9 2 8 -8 20 -41 27 -73z m3364 44 c5 0 6 -5 3 -10 -3 -5 1 -14 8 -20 16
-13 32 2 21 19 -4 6 3 9 17 7 13 -2 23 -10 23 -18 0 -9 10 -13 26 -12 19 1 30
-7 43 -28 10 -16 21 -27 26 -24 4 3 11 -2 14 -11 4 -10 13 -13 27 -9 18 6 19
5 8 -13 -15 -24 -4 -56 16 -48 8 3 15 1 15 -4 0 -5 17 -18 39 -30 24 -14 42
-34 49 -54 78 -230 166 -421 240 -517 66 -87 68 -91 46 -88 -25 4 -44 -8 -38
-25 3 -7 -2 -19 -11 -26 -8 -7 -15 -9 -15 -6 0 4 -13 -2 -30 -14 -29 -21 -77
-29 -97 -17 -5 4 -90 7 -189 8 -98 1 -183 5 -189 9 -5 5 -26 10 -45 12 -27 2
-34 0 -31 -12 2 -8 4 -22 4 -30 0 -8 9 -28 20 -44 11 -16 16 -27 11 -24 -5 2
-25 11 -45 20 -19 9 -42 25 -50 34 -8 10 -9 15 -3 11 6 -4 19 2 29 13 17 19
16 24 -2 18 -5 -2 -7 -7 -5 -13 2 -5 -2 -5 -9 2 -6 6 -17 9 -24 7 -7 -3 -45
24 -83 61 -71 67 -96 74 -62 17 19 -32 17 -40 -10 -37 -8 1 -26 3 -39 3 -16 1
-47 26 -91 74 -37 39 -70 67 -73 61 -3 -5 5 -33 19 -63 13 -29 22 -55 20 -57
-2 -3 -15 2 -28 11 -51 33 -350 3 -429 -43 -19 -11 -81 -35 -139 -55 -58 -19
-129 -43 -159 -55 -29 -11 -56 -20 -60 -19 -3 0 -8 -1 -11 -2 -3 -1 -12 -3
-20 -5 -8 -2 -55 -17 -105 -34 -49 -17 -96 -31 -104 -31 -8 0 -69 -26 -135
-57 -67 -31 -140 -62 -164 -68 -52 -14 -53 -26 -4 -40 l36 -10 -32 -24 c-62
-43 -108 -8 -94 71 5 23 5 58 1 76 -8 40 16 126 57 203 16 30 70 95 119 145
77 78 104 98 188 139 82 41 105 48 150 47 30 -1 66 -6 82 -12 40 -15 55 3 21
25 -14 10 -24 20 -21 24 2 4 29 14 60 21 31 7 58 17 61 22 3 5 9 6 14 3 5 -3
21 0 37 7 15 6 33 10 40 9 6 -1 14 3 18 8 3 6 12 8 19 5 8 -3 17 0 21 5 3 6
10 9 15 6 14 -9 140 25 194 52 58 29 117 74 195 147 35 34 51 44 47 31 -3 -11
-15 -50 -26 -88 -20 -64 -20 -87 0 -87 15 0 48 63 61 115 13 54 31 75 64 75
12 0 32 11 45 25 18 19 26 22 37 14 9 -9 14 -7 19 5 5 13 10 14 20 5 7 -6 18
-8 24 -4 6 4 26 -5 45 -19 18 -14 37 -26 41 -26 4 0 22 -12 41 -26 19 -14 40
-27 46 -28 7 -1 27 -12 44 -24 17 -12 35 -22 40 -22 4 0 14 -9 21 -21 9 -14
21 -20 36 -17 17 3 23 0 22 -11 -1 -20 34 -16 51 6 11 14 15 13 40 -5 15 -11
39 -32 52 -46 23 -24 26 -25 43 -9 25 23 23 39 -10 58 -22 13 -28 25 -29 51
-1 33 -17 64 -31 62 -25 -3 -52 4 -47 11 3 5 0 13 -6 17 -8 4 -7 9 2 15 22 14
33 10 19 -6 -7 -8 -10 -16 -6 -16 23 -5 33 -4 49 3 10 5 15 13 12 19 -4 5 -11
6 -17 3 -6 -4 -6 1 1 14 12 22 0 39 -19 27 -5 -3 -7 0 -4 8 6 17 -11 31 -27
21 -8 -4 -8 -9 0 -17 16 -16 14 -27 -4 -21 -8 4 -17 -1 -21 -10 -3 -9 -10 -14
-15 -11 -4 3 -6 12 -3 19 3 7 -2 19 -11 26 -8 7 -15 9 -15 4 0 -5 -8 7 -18 26
-16 33 -41 41 -34 11 3 -13 1 -13 -12 -2 -9 8 -15 21 -14 30 2 8 -3 16 -9 17
-7 1 -16 2 -20 3 -4 0 1 7 11 14 16 12 16 15 3 26 -13 10 -18 8 -31 -11 -9
-12 -16 -17 -16 -11 0 7 5 15 10 18 8 5 8 11 0 20 -8 10 -6 13 7 11 13 -1 17
5 15 21 -3 19 1 21 30 19 18 -2 37 -4 41 -5z m-346 -934 l33 -22 -33 -3 c-44
-4 -110 11 -115 26 -2 7 2 11 10 10 7 -2 12 2 11 9 -4 18 57 5 94 -20z m1448
-1 c1 -18 -4 -21 -27 -18 -15 2 -28 9 -28 14 0 5 5 6 10 3 15 -9 41 14 33 29
-3 6 -2 7 3 3 5 -5 9 -19 9 -31z m-1287 -7 c17 -27 10 -34 -20 -18 -31 16 -29
14 -22 32 7 19 25 13 42 -14z m-288 11 c0 -5 -5 -10 -11 -10 -5 0 -7 5 -4 10
3 6 8 10 11 10 2 0 4 -4 4 -10z m-2890 -10 c0 -5 -2 -10 -4 -10 -3 0 -8 5 -11
10 -3 6 -1 10 4 10 6 0 11 -4 11 -10z m4190 -120 c0 -5 -2 -10 -4 -10 -2 0
-12 -3 -20 -6 -12 -5 -15 -2 -10 10 7 17 34 22 34 6z m105 -20 c3 -5 12 -7 20
-3 20 7 19 -21 -1 -37 -8 -8 -14 -9 -12 -3 2 6 -1 10 -7 10 -5 -1 -9 -5 -8 -8
1 -3 -9 -5 -22 -4 -13 2 -30 -4 -37 -12 -10 -12 -9 -18 7 -29 33 -22 55 -46
49 -55 -3 -5 -30 3 -62 18 -31 14 -69 28 -84 31 -29 4 -39 22 -14 22 7 0 20 7
27 16 7 9 23 20 36 25 13 5 23 15 23 23 0 10 6 13 15 10 8 -4 17 1 21 10 5 12
10 13 24 6 11 -6 22 -14 25 -20z m-165 10 c8 -5 12 -11 10 -14 -3 -2 -14 2
-24 10 -22 15 -10 19 14 4z m-4700 -20 c0 -5 -2 -10 -4 -10 -3 0 -8 5 -11 10
-3 6 -1 10 4 10 6 0 11 -4 11 -10z m-435 -20 c3 -5 -1 -10 -10 -10 -9 0 -13 5
-10 10 3 6 8 10 10 10 2 0 7 -4 10 -10z m30 -10 c3 -5 1 -10 -4 -10 -6 0 -11
5 -11 10 0 6 2 10 4 10 3 0 8 -4 11 -10z m4595 -11 c25 -6 66 -13 93 -16 71
-9 56 -23 -20 -19 -69 4 -153 30 -153 48 0 6 8 7 18 3 9 -3 37 -11 62 -16z
m-1815 -58 c-24 -22 -148 -101 -152 -97 -10 10 19 44 49 58 18 8 49 22 68 31
41 19 47 20 35 8z m3065 -336 c0 -1 -12 -2 -26 -2 -17 0 -22 2 -13 7 10 7 39
3 39 -5z"/>
<path d="M3051 4786 c-7 -8 -8 -17 -3 -20 6 -3 15 1 21 8 7 8 8 17 3 20 -6 3
-15 -1 -21 -8z"/>
<path d="M2835 4511 c-7 -12 12 -24 25 -16 11 7 4 25 -10 25 -5 0 -11 -4 -15
-9z"/>
<path d="M3876 4271 c-4 -5 -2 -12 3 -15 5 -4 12 -2 15 3 4 5 2 12 -3 15 -5 4
-12 2 -15 -3z"/>
<path d="M7081 5156 c-9 -10 -9 -16 -1 -21 17 -10 37 12 24 25 -8 8 -15 6 -23
-4z"/>
<path d="M7166 5132 c-4 -6 -3 -20 1 -29 5 -10 8 -27 8 -38 -1 -24 14 -47 26
-39 5 3 7 19 4 35 -4 23 -2 29 9 27 8 -2 14 2 13 7 -1 6 -6 9 -10 7 -5 -1 -16
7 -26 19 -12 15 -20 19 -25 11z"/>
<path d="M7136 5101 c-4 -5 -2 -12 3 -15 5 -4 12 -2 15 3 4 5 2 12 -3 15 -5 4
-12 2 -15 -3z"/>
<path d="M7339 4734 c-11 -14 -10 -19 10 -35 31 -25 44 -14 26 22 -18 34 -18
34 -36 13z"/>
<path d="M4181 7005 c-71 -26 -163 -83 -155 -96 3 -6 33 6 67 24 81 45 132 61
186 58 52 -2 61 -7 150 -71 36 -26 98 -65 136 -86 39 -20 111 -66 162 -101 50
-35 94 -59 98 -53 3 5 -60 56 -141 112 -81 57 -177 125 -213 152 -122 91 -175
102 -290 61z"/>
<path d="M3996 6901 c-4 -5 -2 -12 3 -15 5 -4 12 -2 15 3 4 5 2 12 -3 15 -5 4
-12 2 -15 -3z"/>
<path d="M3966 6881 c-4 -5 -2 -12 3 -15 5 -4 12 -2 15 3 4 5 2 12 -3 15 -5 4
-12 2 -15 -3z"/>
<path d="M3936 6861 c-4 -5 -2 -12 3 -15 5 -4 12 -2 15 3 4 5 2 12 -3 15 -5 4
-12 2 -15 -3z"/>
<path d="M3895 6836 c-11 -8 -14 -16 -8 -19 6 -4 18 0 28 7 11 8 14 16 8 19
-6 4 -18 0 -28 -7z"/>
<path d="M3835 6796 c-15 -13 -24 -25 -19 -29 6 -3 23 4 39 17 15 13 24 25 19
29 -6 3 -23 -4 -39 -17z"/>
<path d="M3650 6671 c-63 -42 -142 -95 -175 -118 -33 -23 -114 -69 -181 -103
-130 -66 -232 -147 -324 -255 -65 -77 -266 -263 -355 -330 -38 -28 -151 -125
-250 -216 -213 -194 -425 -371 -550 -459 -49 -34 -132 -97 -185 -139 -108 -88
-210 -160 -257 -185 -18 -9 -65 -23 -104 -31 -85 -18 -159 -56 -200 -103 -17
-19 -55 -84 -85 -145 -64 -129 -100 -180 -213 -300 -123 -129 -80 -118 56 15
121 119 173 185 243 309 55 99 95 129 231 174 179 59 217 83 394 245 50 46
126 110 170 143 44 33 93 75 109 94 30 36 338 299 671 574 98 81 155 131 244
217 25 24 65 55 89 69 24 14 47 35 52 47 18 46 129 135 280 225 86 50 212 136
281 189 69 53 140 109 159 123 18 14 29 28 24 31 -5 4 -61 -28 -124 -71z"/>
<path d="M4836 6671 c-4 -5 -2 -12 3 -15 5 -4 12 -2 15 3 4 5 2 12 -3 15 -5 4
-12 2 -15 -3z"/>
<path d="M3265 6266 c-55 -24 -119 -57 -143 -73 -51 -34 -207 -219 -192 -228
6 -4 52 36 103 88 92 95 120 114 232 159 77 31 147 76 140 88 -11 17 -37 10
-140 -34z"/>
<path d="M5076 6002 c-7 -12 41 -137 59 -152 32 -26 29 3 -6 75 -41 85 -45 90
-53 77z"/>
<path d="M6965 5840 c-10 -17 22 -47 35 -34 7 7 4 16 -9 28 -14 12 -21 14 -26
6z"/>
<path d="M3646 5831 c-4 -5 -2 -12 3 -15 5 -4 12 -2 15 3 4 5 2 12 -3 15 -5 4
-12 2 -15 -3z"/>
<path d="M3576 5721 c-4 -5 -2 -12 3 -15 5 -4 12 -2 15 3 4 5 2 12 -3 15 -5 4
-12 2 -15 -3z"/>
<path d="M3536 5681 c-4 -5 -2 -12 3 -15 5 -4 12 -2 15 3 4 5 2 12 -3 15 -5 4
-12 2 -15 -3z"/>
<path d="M2786 4731 c-4 -5 -2 -12 3 -15 5 -4 12 -2 15 3 4 5 2 12 -3 15 -5 4
-12 2 -15 -3z"/>
<path d="M2726 4661 c-4 -5 -2 -12 3 -15 5 -4 12 -2 15 3 4 5 2 12 -3 15 -5 4
-12 2 -15 -3z"/>
<path d="M7721 4597 c-8 -11 -6 -18 8 -31 22 -20 32 -10 20 22 -10 26 -13 27
-28 9z"/>
<path d="M2706 4581 c-4 -5 -2 -12 3 -15 5 -4 12 -2 15 3 4 5 2 12 -3 15 -5 4
-12 2 -15 -3z"/>
<path d="M2661 4536 c-7 -8 -8 -16 -4 -19 13 -8 55 12 48 23 -9 14 -31 12 -44
-4z"/>
<path d="M7746 4531 c-4 -5 -2 -12 3 -15 5 -4 12 -2 15 3 4 5 2 12 -3 15 -5 4
-12 2 -15 -3z"/>
<path d="M7776 4441 c-4 -5 -2 -12 3 -15 5 -4 12 -2 15 3 4 5 2 12 -3 15 -5 4
-12 2 -15 -3z"/>
<path d="M8610 4259 c-19 -17 -60 -47 -90 -68 -61 -41 -70 -68 -30 -88 23 -11
28 -9 73 35 59 57 110 129 102 142 -9 15 -17 12 -55 -21z"/>
<path d="M656 4171 c-10 -11 -13 -22 -8 -25 5 -3 17 3 26 13 10 11 13 22 8 25
-5 3 -17 -3 -26 -13z"/>
</g>
</svg>
