<?xml version="1.0" standalone="no"?>
<!DOCTYPE svg PUBLIC "-//W3C//DTD SVG 20010904//EN"
 "http://www.w3.org/TR/2001/REC-SVG-20010904/DTD/svg10.dtd">
<svg version="1.0" xmlns="http://www.w3.org/2000/svg"
 width="187.000000pt" height="266.000000pt" viewBox="0 0 187.000000 266.000000"
 preserveAspectRatio="xMidYMid meet">
<metadata>
Created by potrace 1.16, written by Peter Selinger 2001-2019
</metadata>
<g transform="translate(0.000000,266.000000) scale(0.100000,-0.100000)"
fill="#000000" stroke="none">
<path d="M101 2534 c-18 -23 -21 -41 -21 -124 0 -83 3 -101 21 -124 l20 -26
559 0 559 0 20 26 c18 23 21 41 21 124 0 83 -3 101 -21 124 l-20 26 -559 0
-559 0 -20 -26z"/>
<path d="M146 2068 c-64 -74 -66 -93 -66 -550 0 -438 1 -449 51 -495 34 -31
91 -44 137 -31 42 11 67 31 92 71 l17 28 5 -45 c17 -148 216 -186 281 -54 l17
33 0 -33 c0 -86 66 -154 150 -155 57 -1 90 19 128 73 l22 33 0 -334 c0 -306 2
-337 19 -369 25 -47 60 -71 113 -77 56 -6 109 17 141 61 l22 31 5 579 5 580
98 -122 c53 -67 109 -129 123 -139 16 -10 46 -17 74 -17 102 0 176 104 141
198 -6 13 -85 132 -177 263 -93 131 -204 290 -247 353 -44 63 -89 125 -100
138 l-20 22 -498 0 -497 0 -36 -42z"/>
</g>
</svg>
