<svg xmlns="http://www.w3.org/2000/svg" viewBox="0 0 1024 1024"><path fill="#d08a3c" d="M488.5 108c-.8 1.3 2 2.4 4.1 1.6 2-.8.9-2.6-1.6-2.6-1 0-2.2.5-2.5 1m-17 1c-.8 1.3 2 2.4 4.1 1.6 2-.8.9-2.6-1.6-2.6-1 0-2.2.5-2.5 1m-10 .9c-.7 1.2 1.2 2.4 2.5 1.6 1.1-.7.4-2.5-1-2.5-.5 0-1.1.4-1.5.9m-7.9 1c-.4.5-.2 1.2.3 1.5.5.4 1.2.2 1.5-.3.4-.5.2-1.2-.3-1.5-.5-.4-1.2-.2-1.5.3m-7.1 1c-.7 1.2 1.2 2.4 2.5 1.6 1.1-.7.4-2.5-1-2.5-.5 0-1.1.4-1.5.9m-5.9 1c-.4.5-.2 1.2.3 1.5.5.4 1.2.2 1.5-.3.4-.5.2-1.2-.3-1.5-.5-.4-1.2-.2-1.5.3m-6.1 1c-.7 1.2 1.2 2.4 2.5 1.6 1.1-.7.4-2.5-1-2.5-.5 0-1.1.4-1.5.9m-5 1c-.7 1.2 1.2 2.4 2.5 1.6 1.1-.7.4-2.5-1-2.5-.5 0-1.1.4-1.5.9m-3.9 1c-.4.5-.2 1.2.3 1.5.5.4 1.2.2 1.5-.3.4-.5.2-1.2-.3-1.5-.5-.4-1.2-.2-1.5.3m-4 1c-.4.5-.2 1.2.3 1.5.5.4 1.2.2 1.5-.3.4-.5.2-1.2-.3-1.5-.5-.4-1.2-.2-1.5.3m-5 1c-.4.5-.2 1.2.3 1.5.5.4 1.2.2 1.5-.3.4-.5.2-1.2-.3-1.5-.5-.4-1.2-.2-1.5.3m-4.1 1c-.3.6-1.2.8-1.9.5-.8-.3-1.7-.1-2 .5-.4.6-1.3.8-2 .5-.8-.3-1.7 0-2.1.5-.3.6-1 .9-1.5.6s-1.1-.1-1.4.4c-.4.5-.2 1.2.3 1.5.5.4 1.2.2 1.6-.3.3-.6 1.2-.8 1.9-.5.8.3 1.7.1 2-.5.4-.6 1.3-.8 2-.5.8.3 1.7 0 2.1-.5.3-.6 1-.9 1.5-.6s1.1.1 1.4-.4c.4-.5.2-1.2-.3-1.5-.5-.4-1.2-.2-1.6.3m-14.9 3.8c-.4.5-1.2.9-1.7.9-.5.1-1.1.3-1.4.4s-.9.4-1.5.5c-.5.1-1.2.4-1.5.5s-.9.4-1.5.5c-.5.1-1.2.4-1.5.5s-.9.3-1.5.4c-.5 0-1 .4-1 .8 0 .8.4.9 1.5.7.3-.1 1-.3 1.5-.4.6-.1 1.2-.4 1.5-.5s1-.4 1.5-.5c.6-.1 1.2-.4 1.5-.5s1-.4 1.5-.5c.6-.1 1.2-.4 1.5-.5s1-.3 1.5-.4c1-.1 1.5-1.4.8-2.2-.3-.2-.8-.1-1.2.3m-18 6.2c-.4.5-.2 1.2.3 1.5.5.4 1.2.2 1.5-.3.4-.5.2-1.2-.3-1.5-.5-.4-1.2-.2-1.5.3m-5 1.8c-.3.4-1.6.8-2.7 1s-3.3 1-4.9 1.8c-1.7.9-3.3 1.6-3.7 1.6-.5 0-1.8.7-3 1.5-1.3.8-2.3 1.2-2.3.9s-1.4.2-3 1c-1.7.9-2.8 2-2.5 2.5.4.6 1.8.4 3.5-.5s3.3-1.6 3.7-1.6c.5-.1 1.7-.6 2.8-1.2s2.5-1.2 3-1.3c.6-.1 2.8-1 5-1.9 2.2-1 4.3-1.9 4.8-1.9.8-.1 1.1-1.5.5-2.2-.3-.2-.8-.1-1.2.3m-35.9 15.4c-5.4 2.7-9.5 5.4-9.2 5.9s5.1-1.3 10.6-4c5.5-2.8 9.7-5.5 9.4-6-.3-.6-.7-1-.8-.9-.1 0-4.6 2.2-10 5m-15.2 8.3c-1.1.8-1.4 1.6-.8 1.9.6.4 1.8 0 2.8-.7 1.1-.8 1.4-1.6.8-1.9-.6-.4-1.8 0-2.8.7m-36.4 11c-.7.8-.8 1.7-.3 2 .6.3 1.5-.1 2.1-.8.7-.8.8-1.7.3-2-.6-.3-1.5.1-2.1.8m13.6.2c-.3.5.3 2 1.2 3.3 1.1 1.4 2.1 1.9 2.5 1.3.3-.5-.2-2-1.2-3.3-1.1-1.2-2.1-1.8-2.5-1.3m-.1 13.3c-1 1.1-1.3 2.2-.8 2.5s1.7-.3 2.6-1.3c1-1.1 1.3-2.2.8-2.5s-1.7.3-2.6 1.3m-55 9c-.4.5-.2 1.2.3 1.5.5.4 1.2.2 1.5-.3.4-.5.2-1.2-.3-1.5-.5-.4-1.2-.2-1.5.3m34.6 4.4c-1.2 1.3-1.9 2.6-1.6 3 1 .9 6.5-3.3 5.9-4.4-.9-1.4-2-1.1-4.3 1.4m212.3-1.3c-.3.5 0 1.3.7 1.5 2.5 1 25.8 0 25.8-1 0-1.4-25.6-1.9-26.5-.5m-16 1c-.8 1.3 2 2.4 4.1 1.6 2-.8.9-2.6-1.6-2.6-1 0-2.2.5-2.5 1m52 0c-.8 1.3 2 2.4 4.1 1.6 2-.8.9-2.6-1.6-2.6-1 0-2.2.5-2.5 1m166.6 2.9c-1.2 2.2-1.9 4.1-1.5 4.1s.1.6-.5 1.4c-1.7 2.1.2 2.8 2.7 1 2.4-1.7 4-8 2.4-9.6-.7-.7-1.7.2-3.1 3.1M466.5 193c-.8 1.2 2 2.4 3.5 1.5.6-.3.8-1.1.5-1.6-.8-1.2-3.2-1.2-4 .1m72 0c-.8 1.2 2 2.4 3.5 1.5.6-.3.8-1.1.5-1.6-.8-1.2-3.2-1.2-4 .1m-80 1c-.8 1.2 2 2.4 3.5 1.5.6-.3.8-1.1.5-1.6-.8-1.2-3.2-1.2-4 .1m87 0c-.8 1.2 2 2.4 3.5 1.5.6-.3.8-1.1.5-1.6-.8-1.2-3.2-1.2-4 .1m-92.9.9c-.4.5-.2 1.2.3 1.5.5.4 1.2.2 1.5-.3.4-.5.2-1.2-.3-1.5-.5-.4-1.2-.2-1.5.3m99.9.1c-.8 1.2 2 2.4 3.5 1.5.6-.3.8-1.1.5-1.6-.8-1.2-3.2-1.2-4 .1" class="icon-part"/><path fill="#d08a3c" d="M270.8 199.8c-3.1 2.5-5.4 5-5.2 5.4.7 1.1 2.9-.3 8.3-5 6.4-5.6 3.7-5.9-3.1-.4m175.7-3.9c-.7 1.2 1.2 2.4 2.5 1.6 1.1-.7.4-2.5-1-2.5-.5 0-1.1.4-1.5.9m112 0c-.7 1.2 1.2 2.4 2.5 1.6 1.1-.7.4-2.5-1-2.5-.5 0-1.1.4-1.5.9m-116.9 1c-.4.5-.2 1.2.3 1.5.5.4 1.2.2 1.5-.3.4-.5.2-1.2-.3-1.5-.5-.4-1.2-.2-1.5.3m121.9 0c-.7 1.2 1.2 2.4 2.5 1.6 1.1-.7.4-2.5-1-2.5-.5 0-1.1.4-1.5.9m-126.9 1c-.4.5-.2 1.2.3 1.5.5.4 1.2.2 1.5-.3.4-.5.2-1.2-.3-1.5-.5-.4-1.2-.2-1.5.3m132 0c-.4.5-.2 1.2.3 1.5.5.4 1.2.2 1.5-.3.4-.5.2-1.2-.3-1.5-.5-.4-1.2-.2-1.5.3m-137 1c-.4.6-1.3.8-2 .5-1.7-.6-3.1 1.2-1.6 2.1.5.3 1.6.3 2.3-.2.6-.4 1.7-.8 2.2-.8 1.4 0 1.9-1.9.7-2.3-.6-.2-1.3.1-1.6.7m142 0c-.4.5-.2 1.2.3 1.5.5.4 1.2.2 1.5-.3.4-.5.2-1.2-.3-1.5-.5-.4-1.2-.2-1.5.3m4 1c-.4.5-.2 1.2.3 1.5.5.4 1.2.2 1.5-.3.4-.5.2-1.2-.3-1.5-.5-.4-1.2-.2-1.5.3m-154 1c-.4.6-1.3.8-2 .5-1.7-.7-3 1.2-1.6 2.1.6.4 1.6.2 2.3-.3.7-.6 1.5-1.1 2-1.1.8-.1 1.1-1.1.4-1.7-.3-.3-.8-.1-1.1.5m157.9.1c-.3.5-.4 1.1-.1 1.1 1.4.3 2.3.6 5 1.8 1.6.6 3.1.9 3.4.6.3-.2 1-.1 1.6.4 1.3 1 11.3 4.4 13.6 4.6.8.1 2.4.6 3.5 1.2s2.5 1.2 3 1.3c1.1.3 1.1.3 14.5 6 5.9 2.5 9.8 3.6 10.4 3s-.9-1.7-4-3.1c-8.3-3.5-17.2-7-18.6-7.3-.7-.1-2.3-.8-3.5-1.4-1.3-.7-2.3-1-2.3-.6 0 .3-.6.2-1.2-.3-1.4-1.1-11.2-4.5-13.8-4.8-.8-.1-2.8-.7-4.4-1.4-1.6-.6-3.1-.9-3.4-.6-.3.2-1.1 0-1.8-.6-.8-.7-1.4-.7-1.9.1m-191.9 2.9c-.4.5-.2 1.2.3 1.5.5.4 1.2.2 1.5-.3.4-.5.2-1.2-.3-1.5-.5-.4-1.2-.2-1.5.3m23 0c-.4.5-.2 1.2.3 1.5.5.4 1.2.2 1.5-.3.4-.5.2-1.2-.3-1.5-.5-.4-1.2-.2-1.5.3m276 0c-.4.5-.2 1.2.3 1.5.5.4 1.2.2 1.5-.3.4-.5.2-1.2-.3-1.5-.5-.4-1.2-.2-1.5.3m-6.2 6.2c-2.1 2.2-7.7 6.9-12.4 10.4-8.9 6.6-10.5 9.3-7.1 11.7 1 .7 1.9 1.6 2 2 0 .5.3.7.6.5.2-.1 1 .7 1.8 1.7 2.9 4 6.3 2.7 13.7-5.1 3.8-4 8.1-9.1 9.6-11.3 2.5-3.7 2.6-4.3 1.3-6.7-.7-1.4-1.4-3.3-1.4-4.2s-.4-1.6-1-1.6c-.5 0-1.5-.3-2.1-.7s-2.8 1.1-5 3.3m-434.2 18.2c-1.4 1.5-2 3-1.6 4.1.3.9.1 2.3-.6 3.1-1.8 2.2-.7 13.7 2 20.9 1.6 4.2 4 7.6 8.6 12.3 3.6 3.6 6.8 6.2 7.4 5.8.8-.5.6-1.2-.4-2.4-.9-1-1.3-2.1-.9-2.5.4-.3.8-2.6.8-5 .1-2.9.9-5 2.3-6.4 1.2-1.2 2.2-2.7 2.2-3.3s.7-.9 1.5-.6c3.6 1.4 1.9-1.8-6.3-11.9-4.8-6-9.6-12.2-10.7-13.7l-2.1-2.8zm82.4 2.5c-.3.6.1 1.5.8 2.1.8.7 1.7.8 2 .3.3-.6-.1-1.5-.8-2.1-.8-.7-1.7-.8-2-.3m-4 1.1c-.4.5-.2 1.2.3 1.5.5.4 1.2.2 1.5-.3.4-.5.2-1.2-.3-1.5-.5-.4-1.2-.2-1.5.3m78 2c-.4.5-.2 1.2.3 1.5.5.4 1.2.2 1.5-.3.4-.5.2-1.2-.3-1.5-.5-.4-1.2-.2-1.5.3m283.5 2.6c-2.9 1.4-7.2 4.4-9.5 6.7-5.1 5.1-14 11.8-22 16.4-7.4 4.3-13.3 8.4-12.6 8.9.3.1-.3 1.2-1.3 2.2-.9 1.1-1.4 2.3-1 2.8.5.4.3.5-.3.2-1.4-.8-3.7 1.6-2.7 2.7.4.4.1 1.1-.7 1.6s-1.5 1.3-1.5 1.7c-.2 2.1-1.9 5.9-3.2 6.8-1.4 1-2.1 3.1-2.2 6.7-.1 1-.7 1.7-1.3 1.5-.9-.1-1.3 1.2-1.3 3.9 0 2.2-.5 4.7-1.1 5.5-1.8 2.3-.4 9.5 1.8 9.1 3.4-.6 27.7-10.5 32.6-13.4 12.7-7.3 25.2-22.8 29.7-37 3.5-11.1 5-20.4 3.7-23.4-.7-1.5-.8-2.5-.1-2.9 1-.7.3-2.5-.9-2.4-.4 0-3.1 1.1-6.1 2.4m-379 7.9c-.7.8-.8 1.7-.3 2 .6.3 1.5-.1 2.1-.8.7-.8.8-1.7.3-2-.6-.3-1.5.1-2.1.8m-142.4 11.3c-1.2 1.2-.7 10.7.8 16.7 2.4 9 6.4 16.3 13 23.3 4.5 4.9 6.8 6.6 9.2 6.9 1.8.2 3.5-.1 3.8-.7.5-.7 1.1-.7 1.9 0 1.6 1.4 4.3-1.4 4.8-4.9.1-1.4.8-2.5 1.3-2.5 2 0 3.6-1.7 3-3.2-.3-1 .3-2.2 1.6-3.1 1.8-1.3 2-1.7.8-2.6-.8-.6-1.4-2-1.4-3.1 0-1.4-3-3.7-10.8-8.5-9.1-5.5-14.3-9.1-25.7-17.8-.9-.6-2-.9-2.3-.5m374.9 3.2c-.4.5-.2 1.2.3 1.5.5.4 1.2.2 1.5-.3.4-.5.2-1.2-.3-1.5-.5-.4-1.2-.2-1.5.3m4 1c-.4.5-.2 1.2.3 1.5.5.4 1.2.2 1.5-.3.4-.5.2-1.2-.3-1.5-.5-.4-1.2-.2-1.5.3m10 3c-.4.5-.2 1.2.3 1.5.5.4 1.2.2 1.5-.3.4-.5.2-1.2-.3-1.5-.5-.4-1.2-.2-1.5.3m-311.3 8.9c-2.3 1.9-4.6 9.6-4.6 15.7 0 4.8 4.2 13.5 7.9 16.4 2.4 1.9 2.8 1.9 4.9.5 2.6-1.7 7.5-7.7 7.5-9.2 0-.5.7-1.5 1.5-2.2.9-.7 1.3-1.5 1.1-1.8-.3-.2.4-1.6 1.5-3.1l2.1-2.6-8.1-7.5c-4.4-4.2-8.9-7.6-9.9-7.7-.9-.1-2.7.6-3.9 1.5m87.3 1.1c-.4.5-.2 1.2.3 1.5.5.4 1.2.2 1.5-.3.4-.5.2-1.2-.3-1.5-.5-.4-1.2-.2-1.5.3m-30.3 7.2c-3.6 1.3-5.3 6-5.3 14.8 0 7.5 1 10.6 2.5 8.1.4-.7 1.9-.8 3.7-.5 5.2 1.2 6.8-1.4 6.8-10.9-.1-10.6-2.1-13.6-7.7-11.5m-83.2 10.5c-2.6 3.3-2.6 3.6-.2 6.5 1.5 1.9 2.2 2.1 3.3 1.1.8-.6 2.7-.9 4.2-.6 1.6.2 3.5-.1 4.4-.8.8-.7 1.7-1.2 1.9-1.1.1.2.4 0 .5-.5.1-.4-2.6-2.2-6-4l-6-3.2zm383 30.8c-.9 1-.9 1.6-.1 2.1 1.3.8 4.2-1.4 3.4-2.6-.8-1.3-2-1.1-3.3.5m15 5-11.5 4.1-1.7 8.3c-2.4 10.8-6 18.7-11.1 23.9-3.6 3.7-3.9 4.3-2.3 4.9 2.5 1 33.2-2.7 35.3-4.2 1.6-1.2 1.6-1.3 0-1.9-1.5-.6-1.4-1 .9-3 2.1-1.8 2.7-3.2 2.9-7.1.1-2.7-.2-5.4-.7-6-.6-.8-.5-1.3.3-1.7.9-.3 1.3-2.1 1.2-5.1-.1-2.5.2-4.8.6-5.1.4-.2.5-1.7.3-3.2-.2-1.6-.4-3.6-.4-4.5 0-3.6-2.3-3.5-13.8.6m-410.2-2.8c-.1.5-.1 1.2 0 1.6 0 .5-.4.7-1.1.5-.7-.1-1.3 1.2-1.5 3.2-.2 1.9-1 3.9-2 4.6-1.8 1.3-1 3.5 1.3 3.5.8 0 1.2.5.9 1-.5.8-1.1.7-2 0-2.1-1.7-6.1.6-4.4 2.6 1.2 1.5 15.9 6.5 17.1 5.8.4-.2-.3-2.6-1.4-5.2-1.8-4-4.3-11.7-5.2-15.9-.3-1.6-1.6-2.9-1.7-1.7m207.6 4.4c-.8 1.3 2 2.4 4.1 1.6 2-.8.9-2.6-1.6-2.6-1 0-2.2.5-2.5 1m442 2.1c-12.7 2.6-67.9 9.7-104 13.4-19.4 2-19 1.9-18.7 3.8.3 1.8-1.9 1.7-4.2-.2-1.9-1.6-4-.5-3.1 1.7.3.9.3 1.3-.1 1-.4-.4-1.5-.3-2.6.3-1.6.8-1.7 1.3-.7 2.5s1 1.5-.1 1.2c-.8-.2-1.9.7-2.5 2-.5 1.2-1.5 2-2.2 1.8-2-.8-4.5 5.2-3.2 7.7 1 1.7.9 1.9-.5 1.4-1-.4-2.4.1-3.4 1.1s-2.3 1.7-2.9 1.5c-1.7-.6-2.6 1.6-1.4 3.1.9 1.1.6 1.2-1.3.9-1.7-.4-2.7.1-3.6 1.6-.6 1.2-1.5 1.9-1.9 1.6-.5-.2-1.4.2-2.1 1s-.9 1.5-.5 1.5.2.7-.5 1.5-.9 1.6-.4 1.6c.5.1 1.4.2 1.9.4.6.1 1.8.3 2.8.3 1 .1 1.6.6 1.3 1.1s0 1.3.7 1.9c2.1 1.7 71.8 4.4 83.1 3.2 17.4-1.8 29.6-5.6 42-12.8 7.5-4.4 20.8-17.5 26.6-26.2 4.6-6.8 10.2-18.9 9.4-20.2-.6-.9-2.4-.9-7.9.3M719 362c0 .5-.7 1-1.6 1-.8 0-1.2-.5-.9-1 .3-.6 1-1 1.6-1 .5 0 .9.4.9 1m-191.2-22c-.5 1.7-2.7 6.6-4.9 11-10.6 22-25.6 37.7-49.4 51.7-1.1.7-8.3 4.4-16 8.2-8.1 4.1-16.6 9.2-20 12.1-3.3 2.7-7.7 6.3-9.8 7.9-6.9 5.4-10.8 12.7-13.2 25.1-2.2 11.3 1.2 27.6 7.6 36.5 7.4 10.3 18.4 15.8 31.5 15.7 9.8 0 18.6-3.1 16.4-5.7-.7-.8-1.8-1.5-2.5-1.5s-2-1.1-2.9-2.4c-1.3-2.1-2-2.3-4.8-1.6-8.9 2.3-10.4 2.2-16.5-1.9-11.3-7.6-14.8-13.9-14.8-27.1 0-7.6.4-9.3 3.2-15 3.4-7 10.8-15.2 18-20.2 2.5-1.7 12.2-6.9 21.7-11.5 21.8-10.8 32-17.5 42.7-28.4 9.6-9.6 19.3-22.5 18.4-24.7-.2-.7 0-1 .5-.7.6.4 2.7-2.9 4.9-7.5 3.6-7.7 3.8-8.4 2.4-11.1-.8-1.6-1.9-2.9-2.4-2.9s-.9-.6-.9-1.4c0-2-4.9-7.6-6.6-7.6-.8 0-2 1.4-2.6 3m144.4 17.5c-4.3 2.9-4.1 4 .6 3.6 4.8-.4 5.6-.9 4-2.8-.7-.9-1.1-1.8-1-2 1.1-1.4-.7-.8-3.6 1.2m-438.6 18.4c-2.3 2.5-1.9 12.6.4 12.6 1.1 0 1.4-.9 1.2-3.5-.1-1.9.2-5 .7-6.7 1.1-3.9 0-5-2.3-2.4m363.9-1c-3.8.3-7.5 1-8.2 1.4s-2.9 3.9-4.9 7.8c-2 3.8-5.7 9-8.1 11.3-2.7 2.7-4 4.7-3.3 5.1.5.3 7.4 1.2 15.3 2 15.5 1.5 16.7 1.2 16.7-3.6 0-1.5.4-3 .9-3.3.4-.3 1.1-2.5 1.5-4.8.4-2.4 1.8-6 3.2-8.2l2.6-3.9-2.8-2.3c-1.6-1.3-3.6-2.3-4.4-2.2s-4.6.4-8.5.7M328.3 377c-1.9.8-2.1 1.3-1.2 4.4.5 1.9.8 5.3.7 7.6-.3 3.5.1 4.3 2.4 5.7 4.2 2.6 5.8.5 5.8-7.3 0-10.4-1.8-12.8-7.7-10.4m341.1 12.7c-3.7 6.4-10.9 13.9-16.1 17-5.2 3-4.5 4.8 2.2 5.5 2.8.4 5.2 1.3 6.2 2.6 1.9 2.1 15.4 5.9 17.2 4.7.6-.3 1.1-1.5 1.1-2.6s1.1-3 2.5-4.3 2.5-3.1 2.5-4 .4-1.6.9-1.6 1.8-1.5 2.9-3.3c1.2-1.7 3.9-5 6.1-7.2 3.6-3.6 3.8-4.1 2.5-5.6-1-1.1-4.7-2.1-11-2.9-5.2-.7-9.7-1.7-10-2.1-1.4-2.3-4.4-.6-7 3.8M293.5 397c-.4.6-.5 1.4-.2 1.6.2.3.1 2-.3 3.9-.7 3.3-.6 3.6 3.7 6.4 4.4 2.9 12.1 4.9 14.1 3.7.6-.3.9-2.3.8-4.3-.2-3.5-.5-3.8-3.6-4.4-4.3-.7-7.7-2.4-11.1-5.6-1.8-1.7-2.9-2.1-3.4-1.3m-52.6 3.7c-.1.4-.1 1.2 0 1.6.1.5-.3.6-.8.3-.5-.4-1.2-.2-1.5.3-1 1.6 4.7 4.9 9.7 5.6 3.7.6 4.8.4 5.3-.8 1.1-2.9-1.4-5.7-5.2-5.7-1.9 0-4.4-.5-5.5-1-1-.6-2-.7-2-.3M569 409c-.6 1-3.2 4.8-6 8.4-3.7 4.8-4.6 6.7-3.7 7.4 1.7 1.4 24.5 11.2 26.1 11.2 1.7 0 4.7-4.3 8.5-12.5 1.8-3.9 4.2-8 5.3-9.2 2.6-2.8 2.9-2.7-14.1-5.3-16.2-2.4-14.8-2.4-16.1 0m-303.6 2.3c-.8 2.1.1 4.7 1.6 4.7 1.9 0 2.3-3.1.7-4.8-1.5-1.4-1.7-1.4-2.3.1m4.1 18.7c-.3.5-.3 1.4 0 2 .3.5-.3 1-1.4 1s-2.3.5-2.6 1.1c-1 1.5.4 9.3 2 11.5 1.3 1.9 1.4 1.8 2-.1.3-1.1 1.7-4.2 3-6.9 2.2-4.5 2.3-5 .8-7.2-1.6-2.6-2.8-3-3.8-1.4m294 7.6c-.9 1.4-1.4 2.8-1.1 3.2.4.3-.6 1.3-2 2.3-1.4.9-3.2 2.7-3.8 4-.7 1.3-1.8 2.3-2.4 2.2s-2.2 1.8-3.7 4.3l-2.7 4.6 3.3 3.5c4.5 4.7 14.5 12.1 18.9 13.9 7.8 3.3 26 2.2 25.2-1.6-.3-1.1 0-1.1 1.1-.1 1.2 1 3 .2 9.4-4.2 9.8-6.7 10.3-8.8 2.9-12.9-2.7-1.4-5.8-2.5-6.8-2.3-2.2.5-7.4-2.1-8.2-4-.3-.8-6.8-4.6-14.5-8.4l-13.9-7zm-200.2 5.2c-4.4.4-9.4 6.6-7.2 8.6 2.6 2.5 5.8 2.9 6.6.9.4-1 1.7-3.5 3-5.5 2.5-4.1 2.3-4.5-2.4-4M530.5 455c-.4.6-2.2 1.7-4.1 2.5s-3.4 1.9-3.4 2.4c0 .6-.6 1.1-1.2 1.1-.7.1-3 1.6-5.2 3.5l-3.9 3.5 2.9 3.7c4.4 5.9 12.6 14.3 13.8 14.3.7 0 1.8.6 2.4 1.2.7.7 1.6 1.3 2 1.4.4 0 2 .6 3.5 1.2 5.2 2.2 11.7.9 11.7-2.3 0-.9 1-1.5 2.5-1.5 1.9 0 2.8-.8 3.8-3.3l1.4-3.2-11.5-12c-12.6-13.1-13.8-14-14.7-12.5m-309 15c-.8 1.4 6.4 6.5 7.6 5.3.6-.6-.5-1.9-3.1-3.5-2.2-1.5-4.2-2.3-4.5-1.8m57.5 3.5-2.3 2.5 2.9 2.5c1.6 1.3 5.9 4.7 9.6 7.4 5.7 4.2 6.9 4.7 7.9 3.5.7-.8 1.8-1.3 2.6-1 1.4.6 10.9-6.1 10.7-7.5-.1-.5-.2-1.3-.2-1.8-.1-.5-1.7-1.8-3.6-2.9l-3.3-2-2.9 2.4c-1.6 1.3-3.3 2.3-3.7 2.4-.5 0-3.9-1.8-7.6-4s-6.9-4-7.2-4-1.6 1.1-2.9 2.5" class="icon-part"/><path fill="#d08a3c" d="M475.6 484.9c-.4.5-.2 1.2.3 1.5.5.4 1.2.2 1.5-.3.4-.5.2-1.2-.3-1.5-.5-.4-1.2-.2-1.5.3m.5 4.5c-.7.8-.8 1.7-.3 2 .6.3 1.5-.1 2.1-.8.7-.8.8-1.7.3-2-.6-.3-1.5.1-2.1.8m-95.5 3.5c-.4.5-.2 1.2.3 1.5.5.4 1.2.2 1.5-.3.4-.5.2-1.2-.3-1.5-.5-.4-1.2-.2-1.5.3m5.3-.4c-.1.3-.2.9-.3 1.4 0 .5-.4 1.2-.8 1.6s-.4 1.3-.1 2.1 0 2.1-.7 2.8c-1 1.3-.9 3.5.3 9.3.2.7.6 1.6 1 1.9.4.4.3 1.2-.3 1.9-1.3 1.6 6.6 17.3 13 25.7 12 15.8 33 32.8 53 42.8 25.5 12.7 47.7 18.3 80 19.8 23.2 1.1 27.8.7 29.2-2.4.7-1.5.8-2.8.2-3.3-.5-.5-7.2-1.1-14.9-1.4-38.3-1.3-79.9-17.3-110.9-42.5-12.5-10.3-22.8-23.3-30.1-38.4-2.6-5.1-5.1-9.2-5.6-9-.5.1-1.4-.9-1.9-2.3s-1.3-2.4-1.8-2.3c-1.3.5-7.3-5-6.2-5.7.6-.4.8-1.1.5-1.6-.6-.9-3.4-1.3-3.6-.4m90.6 1.5c-.8 1.2 2 2.4 3.5 1.5.6-.3.8-1.1.5-1.6-.8-1.2-3.2-1.2-4 .1m289.7 13c-2.3 3.1-1.4 5.1 1 2.2 2.3-2.7 2.9-4 2-4.6-.5-.3-1.8.8-3 2.4m-520.6-.1c-.4.5-.2 1.2.3 1.5.5.4 1.2.2 1.5-.3.4-.5.2-1.2-.3-1.5-.5-.4-1.2-.2-1.5.3m58.6 2c-.7.4-2.4 3-3.7 5.8-2.1 4.7-2.5 5-5.4 4.5-2.5-.3-3.2 0-4 1.9-1 2.7.9 5.5 4.7 7 1.6.6 2.2 1.7 2.2 3.9 0 1.8.6 3.3 1.5 3.6 1.2.5 1.3 1 .4 2-.6.8-.9 2.1-.5 2.9.3.9.2 1.4-.3 1.1s-1.4.1-2.1.9-1 1.6-.6 1.6c1.3.3 2.2.6 4.7 1.7 3.2 1.3 7.4 6.8 5.9 7.7-.6.4-.8 1-.5 1.5.8 1.2 4 .4 3.7-.9-.1-.7.6-1.1 1.5-.9 2.4.4 2.1-.6-2.1-7.6-6.2-10.4-6.7-20.3-1.4-29.7 1.6-2.9 1.8-4 .9-5.8-1.2-2.2-2.7-2.6-4.9-1.2m-17.6 1c-.4.5-.2 1.2.3 1.5.5.4 1.2.2 1.5-.3.4-.5.2-1.2-.3-1.5-.5-.4-1.2-.2-1.5.3m469.9.1c-.7 1.2 3.2 3.3 4.5 2.5.6-.4.8-1 .5-1.4-.7-1.3-4.4-2-5-1.1m-509.9 4.9c-.4.5-.2 1.2.3 1.5.5.4 1.2.2 1.5-.3.4-.5.2-1.2-.3-1.5-.5-.4-1.2-.2-1.5.3m68.5 9.8c-2.3 4.4-.5 12.9 3.7 17.7 4.4 4.9 14.9 7 21.5 4.2 6.3-2.6 12.4-12.8 9.6-16.2-2-2.5-5.2-1.3-6.1 2.3-1.8 6.9-10.1 10.3-16.7 6.8-2.8-1.4-6.1-6.8-6.1-9.8 0-.9-1.1-2.8-2.4-4.3-2.3-2.8-2.3-2.8-3.5-.7m479.3-.2c-.8 2 .4 3.5 2.6 3.5 2.5 0 3.5-1.7 2-3.5-1.6-1.9-3.9-1.9-4.6 0m-59.9.5c-.4.6-.3 1.6.3 2.2s1.2.6 1.7-.2c.4-.6.3-1.6-.3-2.2s-1.2-.6-1.7.2" class="icon-part"/><path fill="#d08a3c" d="M487.6 530.8c-12.2 4.9-25.6 5.2-38.7.9l-6.9-2.3-2.6 2.7-2.7 2.8 4.6 2c8.4 3.6 13 4.5 24.2 4.5 13.2.1 21.2-2 26.2-6.7 3.2-3 4.1-5.2 2.6-6-.5-.2-3.4.7-6.7 2.1m-236 9.1c-.4.5-.2 1.2.3 1.5.5.4 1.2.2 1.5-.3.4-.5.2-1.2-.3-1.5-.5-.4-1.2-.2-1.5.3m42 0c-.4.5-.2 1.2.3 1.5.5.4 1.2.2 1.5-.3.4-.5.2-1.2-.3-1.5-.5-.4-1.2-.2-1.5.3m63.4 4c-4.1 8.2-13.8 14-23.2 14.1-5.9 0-8.4 1.5-4.8 2.8 2 .7 1.8 1-2 4.1l-4.2 3.4 2 2c1.7 1.7 2.4 1.8 3.6.8.8-.7 1.6-2.2 1.8-3.4.2-1.8 1-2.2 4.9-2.5 4.4-.3 4.8-.1 6.7 3.2 1.6 2.6 2.5 3.3 4.1 2.9 3.3-.9 4.2-2.6 3.1-6.4-.6-1.9-.6-3.5-.2-3.7.5-.1 2.4-1.4 4.2-2.7l3.3-2.5 3.5 2.2 3.5 2.1 2.4-2.8 2.4-2.8-2.7-2.8c-2.4-2.6-2.6-3.1-1.5-5.5 1.3-3 .4-4.8-3-5.7-1.5-.4-2.4.3-3.9 3.2m373.6 1c-.4.5-.2 1.2.3 1.5.5.4 1.2.2 1.5-.3.4-.5.2-1.2-.3-1.5-.5-.4-1.2-.2-1.5.3m-476.9 1.8c-.4.3-.2 1.2.4 2 .6.7.8 1.3.4 1.3s-.2.7.5 1.5.9 1.5.5 1.5-.2.7.5 1.5.9 1.5.5 1.5-.2.7.5 1.5.9 1.5.5 1.5-.2.7.5 1.5.9 1.5.5 1.5 0 1.1.9 2.5 1.4 2.5 1.1 2.5-.1.9.5 2 1.6 1.8 2.1 1.4c.6-.4.4-1.5-.6-3-.8-1.3-1.3-2.4-1-2.4s0-1-.7-2.3c-.7-1.2-1.3-2.5-1.4-3-.1-.4-.3-.9-.4-1.2s-.4-1-.5-1.5c-.1-.6-.4-1.2-.5-1.5s-.4-1-.5-1.5c-.1-.6-.4-1.2-.5-1.5s-.4-1-.5-1.5c-.1-.6-.4-1.2-.5-1.5s-.3-.9-.4-1.4c-.2-1.4-1.2-2.2-1.9-1.4m542.9.2c-.4.5-.2 1.2.3 1.5.5.4 1.2.2 1.5-.3.4-.5.2-1.2-.3-1.5-.5-.4-1.2-.2-1.5.3m-67 2c-.4.5-.2 1.2.3 1.5.5.4 1.2.2 1.5-.3.4-.5.2-1.2-.3-1.5-.5-.4-1.2-.2-1.5.3m-581 2c-.4.5-.2 1.2.3 1.5.5.4 1.2.2 1.5-.3.4-.5.2-1.2-.3-1.5-.5-.4-1.2-.2-1.5.3m523 3c-.4.5-.2 1.2.3 1.5.5.4 1.2.2 1.5-.3.4-.5.2-1.2-.3-1.5-.5-.4-1.2-.2-1.5.3m-522 2c-.4.5-.2 1.2.3 1.5.5.4 1.2.2 1.5-.3.4-.5.2-1.2-.3-1.5-.5-.4-1.2-.2-1.5.3m577.3 2.5c-.1.3-.2.9-.3 1.3-.1.5-.5 1.3-.9 2-.4.6-.3 1.4.3 1.8.5.3 1.1.4 1.1.1.1-.3.2-.9.3-1.4.1-.4.5-1.2.9-1.9.4-.6.3-1.4-.3-1.8-.5-.3-1.1-.4-1.1-.1m-576.3 2.5c-.4.5-.2 1.2.3 1.5.5.4 1.2.2 1.5-.3.4-.5.2-1.2-.3-1.5-.5-.4-1.2-.2-1.5.3m602 2c-.4.5-.2 1.2.3 1.5.5.4 1.2.2 1.5-.3.4-.5.2-1.2-.3-1.5-.5-.4-1.2-.2-1.5.3M151.5 565c-.4.6-.1 1.8.7 2.7.7.9 1.2 1.8 1.1 2-.2.1-.1.3.2.3h1.2c.4 0 .2-.5-.4-1.1s-.9-1.7-.7-2.4c.7-1.6-1.2-2.9-2.1-1.5m91.1-.1c-.4.5-.2 1.2.3 1.5.5.4 1.2.2 1.5-.3.4-.5.2-1.2-.3-1.5-.5-.4-1.2-.2-1.5.3m2.1 4.8c-.4.6 0 1.8.7 2.8.8 1.1 1.6 1.4 1.9.8.4-.6 0-1.8-.7-2.8-.8-1.1-1.6-1.4-1.9-.8m477.9.2c-.4.5-.2 1.2.3 1.5.5.4 1.2.2 1.5-.3.4-.5.2-1.2-.3-1.5-.5-.4-1.2-.2-1.5.3m28.3-.5c-.1.3-.2.9-.3 1.3-.1.5-.5 1.4-.9 2-.5.7-.5 1.3-.1 1.3.3 0 .1.6-.5 1.4-.8 1-.9 1.6-.1 2.1.5.3 1.1.4 1.1.1.4-1.6.7-2.6.9-3.1.1-.3.3-.8.4-1.3.1-.4.5-1.2.9-1.9.4-.6.3-1.4-.3-1.8-.5-.3-1.1-.4-1.1-.1m41.7 2.5c-.4.5-.2 1.2.3 1.5.5.4 1.2.2 1.5-.3.4-.5.2-1.2-.3-1.5-.5-.4-1.2-.2-1.5.3m-639 1c-.4.5-.2 1.2.3 1.5.5.4 1.2.2 1.5-.3.4-.5.2-1.2-.3-1.5-.5-.4-1.2-.2-1.5.3m502.1 7.1c-3.1 4.4-5.2 8.2-4.7 8.5s2.6-1.8 4.8-4.7c6-8.3 7.4-10.6 6.4-11.2-.4-.3-3.4 3.1-6.5 7.4m-392.1-6.1c-.4.5-.2 1.2.3 1.5.5.4 1.2.2 1.5-.3.4-.5.2-1.2-.3-1.5-.5-.4-1.2-.2-1.5.3m-108.9 2.7c-.4.4-.3 1.2.1 1.8s.7 1.4.8 1.8c.1.5.3 1 .4 1.3s.3.9.4 1.5c0 .5.4 1 .9 1h1.3c.4 0 .1-.7-.6-1.5s-.9-1.5-.5-1.5.1-.7-.6-1.7c-.8-.9-1.2-1.8-1.1-2 .6-.8-.4-1.3-1.1-.7m51.9 8.3c-.4.5-.2 1.2.4 1.6s.8 1 .5 1.5-.1 1.1.4 1.4c.5.4 1.2.2 1.5-.3.4-.5.2-1.2-.4-1.6s-.8-1-.5-1.5.1-1.1-.4-1.4c-.5-.4-1.2-.2-1.5.3m538.3 1.5c-.1.3-.2.9-.3 1.3-.1.5-.7 1.8-1.4 3-.7 1.3-.8 2.4-.3 2.8.6.3 1.5-.4 2.1-1.5s.8-2 .4-2c-.3 0-.1-.6.5-1.4.8-1 .9-1.6.1-2.1-.5-.3-1.1-.4-1.1-.1m-31.8 3.2c-2.3 3-2.7 4.9-1 6 1.5.9 2.8-.6 3.8-4.4 1.2-4.1-.2-4.9-2.8-1.6m-554.4-.9c-.4.3-.2 1.2.4 2 .6.7.8 1.3.4 1.3s-.2.7.5 1.5.9 1.5.6 1.5c-.4 0-.1 1 .6 2.2.7 1.3 1.2 2.6 1.3 3 0 .5.3.8.8.8h1.3c.4 0 .1-.7-.6-1.5s-.9-1.5-.6-1.5c.4 0 .1-1-.6-2.3-.7-1.2-1.3-2.5-1.4-3-.1-.4-.3-.9-.4-1.2s-.3-.9-.4-1.4c-.2-1.4-1.2-2.2-1.9-1.4m113 .9c-1.2 1.3 6.9 15.7 8.4 14.8.5-.3-.7-3.5-2.7-7.2-4.3-7.8-4.8-8.5-5.7-7.6m375.9 1.3c-1 1.1-1.3 2.2-.8 2.5s1.7-.3 2.6-1.3c1-1.1 1.3-2.2.8-2.5s-1.7.3-2.6 1.3" class="icon-part"/><path fill="#d08a3c" d="M634.6 604.9c-5.8 5.9-10.4 11-10 11.4.8.8 7.8-5.5 16.3-14.5 10.2-10.9 5.3-8.6-6.3 3.1m-470 0c-.4.5-.2 1.2.3 1.5.5.4 1.2.2 1.5-.3.4-.5.2-1.2-.3-1.5-.5-.4-1.2-.2-1.5.3m116 1c-.4.5-.2 1.2.3 1.5.5.4 1.2.2 1.5-.3.4-.5.2-1.2-.3-1.5-.5-.4-1.2-.2-1.5.3m2.1 2.8c-.8.7.3 2.6 7 12.1 2.4 3.4 4.9 6 5.4 5.6.5-.3-1.6-4.2-4.7-8.7-7-10-6.9-9.9-7.7-9m-116.1 1.1c-.3.5.3 1.7 1.3 2.6 1.1 1 2.2 1.3 2.5.8s-.3-1.7-1.3-2.6c-1.1-1-2.2-1.3-2.5-.8m640.3.6c-.1.3-.2.9-.3 1.3-.1.5-.5 1.3-.9 2-.4.6-.3 1.4.3 1.8.5.3 1.1.4 1.1.1.1-.3.2-.9.3-1.4.1-.4.5-1.2.9-1.9.4-.6.3-1.4-.3-1.8-.5-.3-1.1-.4-1.1-.1m-631.4 4.5c-.3.6.4 1.5 1.5 2.1s2 .8 2 .4c0-.3.6-.1 1.4.5 1 .8 1.6.9 2.1.1.3-.5.4-1.1.1-1.1-.3-.1-.9-.2-1.3-.3-.5-.1-1.8-.7-3-1.4-1.3-.7-2.4-.8-2.8-.3m444.6 3.5c-1.3 1.3-1.8 2.6-1.3 3 .5.3 1.9-.5 3.1-1.8 1.3-1.3 1.8-2.6 1.3-3-.5-.3-1.9.5-3.1 1.8m-5 4c-.7.8-.8 1.7-.3 2 .6.3 1.5-.1 2.1-.8.7-.8.8-1.7.3-2-.6-.3-1.5.1-2.1.8m187.5-.5c-.4.5-.2 1.2.3 1.5.5.4 1.2.2 1.5-.3.4-.5.2-1.2-.3-1.5-.5-.4-1.2-.2-1.5.3m-272.1 2.3c-1.1.6-2.7 2-3.7 3.1-1.5 1.9-1.5 2.4-.1 5.1 3.7 7.1.5 16.7-6.7 20.3-2.4 1.3-5.6 2.3-7 2.3s-4.6-1-7-2.3c-4.2-2.1-6.8-5.4-8.4-11-.5-1.5-.9-1.6-2.6-.7-1.1.6-2 2-2 3 0 1.1-.4 2-.8 2-.5 0-1.6.6-2.6 1.3-1.5 1.1-1.7 1.7-.7 3.5s1.8 2.1 5 1.7 4.2 0 6.6 2.4c2 2.2 2.6 3.7 2.3 5.6-.5 2.1-.1 2.8 1.9 3.6 2.9 1.1 4.1.5 5.3-2.7.8-1.9 1.7-2.4 4.5-2.4 2 0 4.7.7 6 1.6 2.3 1.5 2.5 1.5 3.1 0 .5-1.2 1-1.4 1.9-.6 1.9 1.6 2.5 0 1.1-2.9-1.7-3.5-1.1-5.3 2.4-7.3 2.3-1.3 3.7-1.5 5.6-.8 2.1.9 2.6.6 3.4-1.6 1.4-3.7 1.3-4.2-1.7-5.6-2.4-1.1-2.8-2-3.1-6.1-.2-3.5 0-4.7 1.1-4.7 3.1 0 3.8-2.6 1.6-5.4-2.3-2.9-2.6-3-5.4-1.4m-303.9 4.7c-.4.5-.2 1.2.3 1.5.5.4 1.2.2 1.5-.3.4-.5.2-1.2-.3-1.5-.5-.4-1.2-.2-1.5.3m544.4 5c-1.7 3.4-2.6 6.3-2 6.6.5.3 2.3-2.1 4-5.4 1.7-3.4 2.6-6.3 2-6.6-.5-.3-2.3 2.1-4 5.4m-472.4-3.1c-.9 1.6 13.5 17.5 14.7 16.3.8-.8-1-3.2-5.8-8.3-3.8-4-7.2-7.7-7.6-8.1-.4-.5-.9-.4-1.3.1m74.3-.1c-.1.4-.1 1.2 0 1.7.1.4-.3 1.4-.9 2.1-.7.9-.7 1.5-.1 1.9 1.1.7 2.4-1.1 2.6-3.7.2-1.7-1.4-3.6-1.6-2m-179.2.9c-.9 1 4.2 10.6 5.3 9.9.6-.4-.1-2.7-1.5-5.6-2.7-5.1-2.8-5.3-3.8-4.3m36 2.1c-.4.6 0 1.8.7 2.8.8 1.1 1.6 1.4 1.9.8.4-.6 0-1.8-.7-2.8-.8-1.1-1.6-1.4-1.9-.8" class="icon-part"/><path fill="#d08a3c" d="M506 644.5c-1.8 2.2 5 5.3 8.8 3.9 3.9-1.4 3.3-2.8-1.3-3.4-2.2-.3-4.5-.9-5.1-1.3-.7-.4-1.7 0-2.4.8M370.1 650c-3.1 3.9-3.4 6.7-.5 5.6.8-.3 1.3 0 1.1.6-.5 2.6 3.4 1.7 7-1.6l3.8-3.6-2.8-2.5c-1.5-1.4-3.4-2.5-4.1-2.5s-2.7 1.8-4.5 4m-55.4-2.3c-1.2 1.1-.8 4 .7 5.2 1.2 1 1.7.8 2.6-.9 1.8-3.4-.8-6.8-3.3-4.3m141 4.1c-2.5 2.6-2.6 3.2-1.7 5.7.6 1.6 1 4.2.8 5.8-.4 4.3 3.2 5.5 6.8 2.3 2.6-2.2 2.7-2.4 1.4-7.4-.6-2.9-2-6.2-2.9-7.3-1.6-2-1.6-2-4.4.9m-214.1 1.1c-.8 1.2 9.3 14.3 10.4 13.6.8-.5-8.5-14.5-9.6-14.5-.1 0-.5.4-.8.9m192.7 6.3c-1.5 2.4-4 6-5.6 8.1-2.7 3.5-2.9 5-.6 5.3.5.1 1.6.2 2.5.3.8 0 1.3.5.9 1-.3.5-.1 1.2.4 1.5 1.1.7 10.7-9.7 12.4-13.3 1-2 .8-2.6-1.6-4.7-3.9-3.3-5.3-3-8.4 1.8m314.8 9.9c-2.2 2.8-3.8 5.6-3.5 6.1.8 1.2 3-.7 6.5-5.8 4.2-6.1 1.8-6.4-3-.3m-222.6-.6c-2.2 1.2-3.9 2.8-3.7 3.6s2.6 6.9 5.4 13.6c5.3 13.1 13.8 28.8 16.8 31.4 1.1.9 1.7 1.9 1.4 2.2s.2 1.7 1.1 3.1c1.4 2 2.1 2.4 3.1 1.5.7-.6 1.8-.8 2.3-.5.5.4 1.2.3 1.5-.2.2-.4 1.7-.7 3.3-.6 2.2 0 2.8.5 2.8 2.5 0 1.6.5 2.4 1.7 2.3 1-.1 1.6.3 1.5.8-.2 1.1 3.2 2 4.5 1.2.9-.6-11.2-17-12.3-16.6-.5.1-.8-.4-.7-1 .2-.7-.6-1.3-1.8-1.2-1.7 0-2.1-.5-1.9-2.7.2-1.7-1.3-5.3-3.7-9.6-2.2-3.7-6.9-12.5-10.4-19.6-3.5-7-6.5-12.7-6.7-12.6-.1.1-2 1.1-4.2 2.4m-333.9 5.3c-.7 1.2 6.3 11.4 7.4 10.7.5-.3-.7-3-2.7-6-3.8-5.9-3.9-5.9-4.7-4.7m65.1-.2c-.3.5.9 2.7 2.7 4.9 1.8 2.1 3.5 3.4 3.9 2.9.3-.5-.9-2.7-2.7-4.9-1.8-2.1-3.5-3.4-3.9-2.9m315.2 2.3c-.9 2.4-1.4 2.9-2.4 2.1s-1.8-.4-3.4 1.6c-1.2 1.5-2.1 3-2.1 3.5 0 1.4 16.2 14.9 24.5 20.4 10.2 6.7 14.5 8.9 15.5 7.8.4-.4 2.1-3.8 3.8-7.6l3.1-6.7-6.8-3.4c-6.6-3.4-21.5-13.1-27.9-18.2l-3.2-2.7zm195.2 9c-1.2 1.6-1.7 3.2-1.2 3.5.5.4 1.9-.7 3-2.3 1.2-1.6 1.7-3.2 1.2-3.5-.5-.4-1.9.7-3 2.3m-567.4.8c-.3.5.6 2.5 2.2 4.3 1.5 1.9 3 2.9 3.3 2.4.4-.5-.6-2.5-2.1-4.3-1.6-1.9-3.1-3-3.4-2.4m6 8c-.4.6.8 2.7 2.7 4.8 1.8 2.1 3.5 3.4 3.9 2.9.3-.5-.9-2.7-2.7-4.9-1.9-2.2-3.5-3.4-3.9-2.8m72.8 3.2c-.5.9.5 2.6 2.7 4.8 4.7 4.7 6 2.6 1.5-2.3-2.4-2.7-3.6-3.4-4.2-2.5m49.9 2.5c-.9 2.3 3.9 9.8 8.8 14 4.9 4.3 6.5 3.5 4.2-2-.9-2.1-1.9-5.9-2.3-8.4l-.6-4.5-4.8-.3c-3.5-.2-4.9.1-5.3 1.2m-114.8 4.4c-.3.6.1 1.5.8 2.1.8.7 1.7.8 2 .3.3-.6-.1-1.5-.8-2.1-.8-.7-1.7-.8-2-.3m76 4c-.3.5.5 1.9 1.8 3.1 1.3 1.3 2.6 1.8 3 1.3.3-.5-.5-1.9-1.8-3.1-1.3-1.3-2.6-1.8-3-1.3m81.8.7c-.3.8-.3 2.3.2 3.2.4 1 .8 2.4.9 3.1 0 1.6 6.1 5.6 6.8 4.5.9-1.7 1.8-10.1 1-10.6-.4-.2-2.5-.7-4.6-1.1-2.9-.5-3.9-.3-4.3.9m-75.8 4.3c-.3.5.5 1.9 1.8 3.1 1.3 1.3 2.6 1.8 3 1.3.3-.5-.5-1.9-1.8-3.1-1.3-1.3-2.6-1.8-3-1.3m141 5.1c-.4.5-.2 1.2.3 1.5.5.4 1.2.2 1.5-.3.4-.5.2-1.2-.3-1.5-.5-.4-1.2-.2-1.5.3m-136.1 11c-.3.6.3 1.5 1.4 2.1 1.2.6 2.2.6 2.6.1.3-.6-.3-1.5-1.4-2.1-1.2-.6-2.2-.6-2.6-.1m-82.8.8c-.9 1.4 9.9 13 11.1 11.8.5-.6-1.2-3.1-4.8-6.9-3.2-3.2-6-5.4-6.3-4.9m122.9 1.2c-.4.5-.2 1.2.3 1.5.5.4 1.2.2 1.5-.3.4-.5.2-1.2-.3-1.5-.5-.4-1.2-.2-1.5.3m214.1.7c-1.1 1.1-.9 1.9 1.4 4.8 1.1 1.4 2.5 2.3 3 2 .6-.3.5-1.2-.3-2.1-.7-.9-1.3-2.3-1.3-3.1 0-1.7-1.7-2.6-2.8-1.6m-211.1 1.3c-.4.5-.2 1.2.3 1.5.5.4 1.2.2 1.5-.3.4-.5.2-1.2-.3-1.5-.5-.4-1.2-.2-1.5.3m3 2c-.4.5-.2 1.2.3 1.5.5.4 1.2.2 1.5-.3.4-.5.2-1.2-.3-1.5-.5-.4-1.2-.2-1.5.3m76.9 13.3c-2.5 7.5-3.5 13-2.6 14.1 1.1 1.4 1 3.3-.6 6.2-.6 1.1-1 3.9-.9 6.2.1 3.3-.3 4.2-1.4 4-1.8-.2-2.3 4.8-2.2 19.4.2 28.1 9.8 51.8 28.6 70.4 14.1 14 29.2 22.3 50 27.5 12.7 3.2 13.3 1.4 1.5-4.4-37.8-18.4-57.5-59.1-50.4-104 .9-6 2.1-11.9 2.5-13.2.6-1.6.3-3.5-1.1-6.4-2-4-2.1-4.1-4-2.4s-2.8.7-.9-1.2c.8-.8.6-1.5-.4-2.3-1.1-1-1.7-.8-2.9.9-1.3 1.8-1.5 1.9-2.1.5-.3-1-1.1-1.3-1.8-.9-.9.5-.9.3.1-.9.7-.9 1.2-1.7 1-1.8-.2 0-1.5-.2-2.8-.5-2.4-.4-5.8-4.1-5.3-5.7.3-.9-2.6-6.7-3.4-6.7-.2 0-.7.6-.9 1.2m2.2 11c-.3.7-.5.2-.5-1.2s.2-1.9.5-1.3c.2.7.2 1.9 0 2.5m4.3 2.8c0 .5-.2 1-.4 1-.3 0-.8-.5-1.1-1-.3-.6-.1-1 .4-1 .6 0 1.1.4 1.1 1m-178.4-12.2c-.7 1.2 14.6 14.2 15.8 13.5.5-.4-1.9-3.3-5.5-6.5-7.3-6.6-9.6-8.2-10.3-7m275.9 9.2c-1.3 1.4-1.5 2.4-.8 3.1s1.5.2 2.6-1.5c2.1-3.1.6-4.3-1.8-1.6m-232.9 24.9c-.7 1.1 5.5 5.2 6.8 4.4.5-.3 0-1.2-1-2-3.4-2.6-5.3-3.3-5.8-2.4" class="icon-part"/><path fill="#2a3a36" d="M522.5 108c-.8 1.3 2 2.4 4.1 1.6 2-.8.9-2.6-1.6-2.6-1 0-2.2.5-2.5 1m18.1.9c-.4.5-.2 1.2.3 1.5.5.4 1.2.2 1.5-.3.4-.5.2-1.2-.3-1.5-.5-.4-1.2-.2-1.5.3m14 1.9c-.3.5.3 1.7 1.3 2.6 1.1 1 2.2 1.3 2.5.8s-.3-1.7-1.3-2.6c-1.1-1-2.2-1.3-2.5-.8m-77.9 42.8c-.8.8 11.6 12.3 12.6 11.7.5-.3-1.3-2.8-4-5.5-5.1-5.2-7.7-7.1-8.6-6.2m-45.5 6.6c-2.9 4.5-1.6 5.7 1.8 1.6 2.6-3.1 3-4.8 1-4.8-.4 0-1.7 1.4-2.8 3.2m-3.6 5.7c-.4.5-.2 1.2.3 1.5.5.4 1.2.2 1.5-.3.4-.5.2-1.2-.3-1.5-.5-.4-1.2-.2-1.5.3m-203.9 1.8c-1.3 2.3-1.7 11.1-.7 16.1 1.7 8.4 9.1 23.1 14.8 29.3 6.2 6.7 7.7 6.1 6.7-2.6-.5-5.1-1.7-8.3-6.1-16.2-4.6-8.3-9.3-18.6-11.7-25.6-.7-1.7-2.2-2.3-3-1m185.9 8.2c-.4.5-.2 1.2.3 1.5.5.4 1.2.2 1.5-.3.4-.5.2-1.2-.3-1.5-.5-.4-1.2-.2-1.5.3m-4.1 1.1c-.4.6-1 .8-1.5.5s-1.1-.1-1.4.4c-.4.5-.2 1.2.3 1.5.5.4 1.2.2 1.6-.4s1-.8 1.5-.5 1.1.1 1.4-.4c.4-.5.2-1.2-.3-1.5-.5-.4-1.2-.2-1.6.4m368.5 8.6c-13.6 9.6-40.9 26.7-55 34.5-6 3.4-11.3 6.5-11.6 7-.8 1.3-1.6 21.8-.9 22.9.8 1.3 30.1-13.7 42.3-21.6 5-3.2 12.4-9.4 17.4-14.5 7.2-7.4 9.5-10.5 13.2-18.1 4.6-9.6 6.9-16.5 5.8-17.2-.4-.2-5.4 3-11.2 7m-167.4-2.7c-.4.5-.2 1.2.3 1.5.5.4 1.2.2 1.5-.3.4-.5.2-1.2-.3-1.5-.5-.4-1.2-.2-1.5.3m-237.5 1.5c-.7.8-.8 1.7-.3 2 .6.3 1.5-.1 2.1-.8.7-.8.8-1.7.3-2-.6-.3-1.5.1-2.1.8m273.5 12.5c-.4.5-.2 1.2.3 1.5.5.4 1.2.2 1.5-.3.4-.5.2-1.2-.3-1.5-.5-.4-1.2-.2-1.5.3m12 6c-.4.5-.2 1.2.3 1.5.5.4 1.2.2 1.5-.3.4-.5.2-1.2-.3-1.5-.5-.4-1.2-.2-1.5.3m-438.9 1.8c-.4.3-.7 3.7-.7 7.5 0 8.7 2.5 16 8.4 24.2 4.7 6.6 14.4 15.9 15.7 15.1.4-.3.3-2.2-.1-4.2-.5-2.1-.6-6.5-.3-10 .6-6.2.6-6.3-3.4-10.6-2.3-2.4-6.5-7.7-9.6-11.8-6-8.2-9-11.2-10-10.2m91.9 4.2c-.4.5-.2 1.2.3 1.5.5.4 1.2.2 1.5-.3.4-.5.2-1.2-.3-1.5-.5-.4-1.2-.2-1.5.3m-3.5 2.5c-.7.8-.8 1.7-.3 2 .6.3 1.5-.1 2.1-.8.7-.8.8-1.7.3-2-.6-.3-1.5.1-2.1.8m244.5-.5c-.4.5-.2 1.2.3 1.5.5.4 1.2.2 1.5-.3.4-.5.2-1.2-.3-1.5-.5-.4-1.2-.2-1.5.3m-7.4 4.8c-2.9 1.9-5 3.8-4.7 4.3.6.9 9.9-4.2 11-6 1.3-2.2-1.5-1.4-6.3 1.7m-240.6-1.8c-.4.5-.2 1.2.3 1.5.5.4 1.2.2 1.5-.3.4-.5.2-1.2-.3-1.5-.5-.4-1.2-.2-1.5.3m271 1c-.4.5-.2 1.2.3 1.5.5.4 1.2.2 1.5-.3.4-.5.2-1.2-.3-1.5-.5-.4-1.2-.2-1.5.3m-276 3c-.4.5-.2 1.2.3 1.5.5.4 1.2.2 1.5-.3.4-.5.2-1.2-.3-1.5-.5-.4-1.2-.2-1.5.3m287 0c-.4.5-.2 1.2.4 1.6.5.3 1 .3 1-.1 0-.3.7-.1 1.5.6s1.5.9 1.5.5.6-.2 1.4.4c1 .8 1.6.9 2.1.1.3-.5.4-1.1.1-1.1-1.6-.4-2.6-.7-3.1-.9-.3-.1-.8-.3-1.2-.4-.5-.1-1.3-.5-2-.9-.6-.4-1.4-.3-1.7.2m-51 2c-.4.5-.2 1.2.3 1.5.5.4 1.2.2 1.5-.3.4-.5.2-1.2-.3-1.5-.5-.4-1.2-.2-1.5.3m-242.5 3.5c-.7.8-.8 1.7-.3 2 .6.3 1.5-.1 2.1-.8.7-.8.8-1.7.3-2-.6-.3-1.5.1-2.1.8m308.5-.5c-.4.5-.2 1.2.3 1.5.5.4 1.2.2 1.5-.3.4-.5.2-1.2-.3-1.5-.5-.4-1.2-.2-1.5.3m8 3c-.4.5-.2 1.2.3 1.5.5.4 1.2.2 1.5-.3.4-.5.2-1.2-.3-1.5-.5-.4-1.2-.2-1.5.3m5 2c-.6.9 1.5 2.6 3.9 3.1.6.1 2.7 1.1 4.7 2.1 2.2 1.1 3.9 1.5 4.3.9.3-.5-1.2-1.8-3.5-3-2.2-1.1-4-1.8-4-1.5s-1.1-.2-2.4-1c-1.5-1-2.6-1.2-3-.6m161.4 8.4c-3.6 1.7-10.8 5.2-16 7.8-13.9 6.9-31 14.6-43 19.4l-10.5 4.3-4.5 8.9c-2.5 5-5.7 10.6-7.3 12.6-3.3 4.3-2.5 5.1 2.7 2.6 4.8-2.3 4.6-2.3 4.6-.4 0 .9.6 1.8 1.3 2.1.7.2 8.7-2.3 17.7-5.6 36-13.4 48.4-22.3 58.5-42.4 6.6-12.9 6.2-13.9-3.5-9.3m-560.4 10.4c-1.1 1.1-.6 8.8.9 14 .8 2.7 2.9 6.9 4.5 9.2 3 4.1 11.6 10.5 13 9.6.4-.2 1-3.6 1.4-7.4.3-3.8.8-7.5 1.1-8.3s-3-4.2-8.6-8.8c-10.2-8.4-11.4-9.2-12.3-8.3m94.2 16.8c-.3.3.3 3.4 1.4 6.8 1.3 4.1 2.1 9.9 2.3 17.1.2 6 .8 11.3 1.2 11.7.5.5 3 1 5.6 1.2 4.2.4 5 .1 6.4-1.9 1.2-1.9 1.3-2.9.3-6.1-1.9-5.9-7.8-17.2-12.3-23.6-4.3-6.2-4.1-6-4.9-5.2m449.4 27.6c-3.9 1.7-40.4 13.1-51.2 16-4.9 1.3-8 4-8 7 0 1-1.1 5.3-2.5 9.6-1.3 4.3-2.1 8.1-1.7 8.5 1 1 14.9-1.5 26.6-4.8 16-4.5 26.7-11.4 35.1-22.7 9.7-12.8 10.2-17.3 1.7-13.6m-159.7 2.2c-10 6.5-16.8 12.2-21.3 17.7-6.7 8.1-12.9 22.8-10.3 24.4 1.5 1 16.4-4.8 21.4-8.3 5.7-3.9 9.4-8.3 12.3-14.7 2.6-5.5 5.1-20.1 3.7-21.5-.5-.5-3.1.6-5.8 2.4m-420.4 42.8c-1.1 2.4-1.7 4.7-1.4 5.2.7 1.2 1.9-.2 3.6-4.5 2.2-5.3.1-5.9-2.2-.7m265.2-2.2c-.3 1.2-.9 2.2-1.4 2.2-.5.1-1.5.2-2.1.3-1.5.1-1.8 3.6-.3 3.7.6 0 2 .9 3.1 2 2.6 2.4 3 1.9 3.2-4.3.2-4.9-1.5-7.6-2.5-3.9m-48.4 4.9c-5.8 5.8-7.7 7.3-14.1 10.4l-3.7 1.8 2.3 6.3c3.6 9.4 6.7 25.2 6.8 34.2.1 6.8-.5 9.8-4 20.4-2.3 6.8-3.9 12.8-3.6 13.3.3.4 2.4-.3 4.7-1.7 8.1-5 15.9-8.6 17.3-8.1.8.3 5-1.9 9.5-4.9 9.7-6.7 15.4-9.6 23.8-12.4 7.3-2.4 27.2-5.5 30.7-4.8 5.3 1 3.1-1.5-4.3-4.9-7.8-3.6-7.8-3.6-14.7-2.5-3.8.6-7.5 1.6-8.3 2.2-.9.8-2 .5-3.9-1l-2.7-2.1-2.3 2.1c-1.4 1.3-2.4 1.7-2.9 1-.3-.6-.3-1.1.1-1.1s0-.8-.8-1.8c-2.6-2.9-3-6.7-.9-8.6 1.4-1.3 1.7-2.7 1.4-6.4-.3-2.6-.5-5.6-.6-6.6-.3-2.8-3.2-4.4-5.5-2.9-2.1 1.3-4.8.1-3.8-1.6.4-.6 0-1.4-.9-1.7-.9-.4-1.4-1.3-1.1-2.1.8-1.9-1.3-5.6-2.8-5-1.4.6-4.9-2.1-6.5-5.1-1-1.9-.9-2.7.9-5.1l2-2.9-2.6-2.1c-1.5-1.2-2.9-2.1-3.3-2.1-.3.1-3.1 2.7-6.2 5.8m7.1 21c1.1 1.3 2 3.1 2 3.8 0 2.1-2.3 1.7-3.8-.6-1.6-2.6-4-2.5-6.9.2-2.8 2.6-3.8 1.9-2.6-1.9 1.8-5.4 7.6-6.2 11.3-1.5m7.3 21.1c3.2 1.3 6.1 7.4 5.3 11.4s-4.3 6.6-10 7.3c-3.9.6-4.7.4-6.9-2-4.4-4.7-4.3-10.5.2-15.4 2.3-2.4 7.1-2.9 11.4-1.3" class="icon-part"/><path fill="#2a3a36" d="M397.6 385.1c-1.4 1.1-2.6 3.1-2.6 4.3 0 3.6 3.7 7.6 7 7.6 3.2 0 7-3.9 7-7.2 0-2.4-4.4-6.8-6.8-6.8-1.1 0-3.1.9-4.6 2.1m67.2-49.6c-1.2 2.7-.5 5.5 1.4 5.5.7 0 2.4-.9 3.8-1.9 2-1.6 2.2-2.2 1.2-3.4-2.3-2.7-5.2-2.8-6.4-.2m-292.9 8.9c-.1.3-.2.9-.3 1.3-.1.5-.5 1.3-.9 2-.4.6-.3 1.4.3 1.8.5.3 1.1.4 1.1.1.1-.3.2-.9.3-1.4.1-.4.5-1.2.9-1.9.4-.6.3-1.4-.3-1.8-.5-.3-1.1-.4-1.1-.1m285.1 4c-6.1 1.3-7 2.7-4.1 6.5 2 2.6 5.8 2.3 4.8-.4-.4-.9.7-2.2 2.9-3.5 1.9-1.2 3.2-2.6 2.8-3.1-.3-.5-.6-.8-.7-.8-.1.1-2.7.6-5.7 1.3m9.1 1c-.7.8-.8 1.7-.3 2 .6.3 1.5-.1 2.1-.8.7-.8.8-1.7.3-2-.6-.3-1.5.1-2.1.8m-260.6 5.3c-1.6.3-4.4 1.8-6.2 3.5-3 2.9-3.1 3.3-1.8 5.7.7 1.4 2.7 3.9 4.4 5.6 3.1 2.9 3.2 2.9 3.7.7.4-1.2 1.1-1.9 1.7-1.5.5.3 1.5 0 2.1-.8s2.2-1.5 3.5-1.4c2 0 2.7-.8 4.2-5.5 1-3 1.5-5.8 1.3-6.2-.5-.8-7.5-.8-12.9-.1m-37.6.7c-.1.3-.2.9-.3 1.3-.1.5-.5 1.3-.9 2-.4.6-.3 1.4.3 1.8.5.3 1.1.4 1.1.1.1-.3.2-.9.3-1.4.1-.4.5-1.2.9-1.9.4-.6.3-1.4-.3-1.8-.5-.3-1.1-.4-1.1-.1m387.2 2.8c-.5 1.3-1.8 4.4-2.9 7-2.3 5.1-2.1 5.8 1.8 5.8 3.3 0 5.2-2 5.5-5.8.2-1.5.4-3.2.6-3.7.4-1.4-1.9-5.5-3.2-5.5-.5 0-1.3 1-1.8 2.2m-118.5 9.7c-.4.5-.2 1.2.3 1.5.5.4 1.2.2 1.5-.3.4-.5.2-1.2-.3-1.5-.5-.4-1.2-.2-1.5.3m-10.5 2.5c-.9 1-.9 1.6-.1 2.1 1.3.8 4.2-1.4 3.4-2.6-.8-1.3-2-1.1-3.3.5m-109.5 3.7-3.8 2.1 3.2 3.3c1.8 1.9 3.7 3.2 4.2 2.9s.4-1.2-.2-1.9c-.9-1.1-.6-1.4 1.2-1.7 1.8-.2 2.3-.9 2.3-3.3 0-3.7-1.8-4.1-6.9-1.4m-79.5 2.7c-1.3 2.5-1.4 5.9-.2 6.6.4.3 1.9-.6 3.2-2l2.3-2.4-2.1-2.1-2.1-2.1zm55.7 9.8c-.9.9 1.5 7.4 2.7 7.1.6-.1.9-1.3.7-2.7-.4-2.7-2.4-5.4-3.4-4.4m240.8 7.4-4.7 6 2.7 1c4.2 1.6 5.7.9 8.1-3.8 2.1-4.3 2-8.1-.4-8.9-.5-.2-3.1 2.4-5.7 5.7m-377.1 1c-.4.6-.3 1.6.3 2.2s1.2.6 1.7-.2c.4-.6.3-1.6-.3-2.2s-1.2-.6-1.7.2m85.1 2.9c-.4.5-.2 1.2.3 1.5.5.4 1.2.2 1.5-.3.4-.5.2-1.2-.3-1.5-.5-.4-1.2-.2-1.5.3m576.9 1.1c-.4.6-.1 1.7.5 2.5.7.8.9 1.5.5 1.5s-.2.7.5 1.5.9 1.5.5 1.5-.3.6.3 1.2c.6.7 1.1 1.6 1.1 2 .1.5.3.8.6.8h1.1c.4 0 .1-.7-.6-1.5s-.9-1.5-.5-1.5.2-.7-.5-1.5-.9-1.5-.4-1.5c.4 0 .3-.5-.3-1.1s-.9-1.7-.7-2.4c.7-1.6-1.2-2.9-2.1-1.5m-662.9.9c-.9 1.4 7.3 15.3 8.5 14.5.5-.3-.7-3.5-2.7-7.2-4.4-8-5-8.7-5.8-7.3m299.4 5.8c-8.5 1.9-10.2 3.5-6.6 5.8 2.6 1.7 2.8 1.7 10-1.6 11.2-5.1 9.5-7.3-3.4-4.2m367.6 7.2c-.4.5-.2 1.2.3 1.6.6.3.8 1.2.5 1.9-.7 1.7 1.2 3 2.1 1.6.4-.6.2-1.7-.4-2.4s-.8-1.5-.5-1.8.1-.9-.5-1.2c-.5-.4-1.2-.2-1.5.3M506 418.1c-12.6 8.1-11.9 7.4-8.2 9.3 2.9 1.5 3.5 1.5 6.3.1 1.8-1 4.1-1.4 5.8-1 2 .4 3.2 0 4.6-1.5 1-1.1 1.4-2 .9-2s-.2-.5.6-1c2.2-1.4 2-4.6-.4-6.8-2.1-1.9-2.2-1.9-9.6 2.9m-74.5-3.1c-.3.5-.3 1.6.1 2.2.6 1 .5 1-.7.1-1.3-1-2.6-.4-7.5 3.6-6.4 5.2-13.9 13.7-12.7 14.4.5.2 1.7.3 2.7.1 1.1-.1 2.6.6 3.3 1.6 1.3 1.8 2.1 1.3 13.1-8.2 6.4-5.5 11.6-10.3 11.4-10.7-.2-.3-1.1-.5-2-.4s-2.2-.6-2.9-1.5-1.3-1.3-1.3-.8-.6.3-1.4-.3c-1-.8-1.6-.9-2.1-.1m-266.8.7c-.4.6 0 1.8.7 2.8.8 1.1 1.6 1.4 1.9.8.4-.6 0-1.8-.7-2.8-.8-1.1-1.6-1.4-1.9-.8m490.6 11c-3.2 5.7-7.1 11-11.6 15.5-3.8 3.7-6.6 7.2-6.2 7.8.8 1.3 16.5 9.3 16.5 8.4 0-.4.7 0 1.6.7s2.1 1.4 2.8 1.5c.6.1 1.7.3 2.5.5.7.2 1.5-.4 1.6-1.4.2-1 1.1-2.7 2.1-3.8.9-1 1.3-1.9.9-1.9-.5 0-.4-.5.2-1.1s.9-1.7.7-2.4c-.3-.7-.1-1.6.5-2 .6-.3 1.1-1.5 1.1-2.6s.4-1.8.9-1.5c1.3.8 2.7-1.5 2.5-4.1 0-1.2.2-2 .6-1.8 1.3.8 3.3-2.4 2.7-4.4-.3-1.3.1-1.8 1.4-1.7 1 .1 1.7-.4 1.6-.9-.1-.6-.5-.9-.9-.8-1.5.5-.7-.9 1.5-2.7 1.4-1.2 1.9-2.2 1.2-2.8-1.1-1-17.1-7.2-18.5-7.2-.5 0-3.1 3.9-5.7 8.7m-487.6-6c-.4.6 0 1.8.7 2.8.8 1.1 1.6 1.4 1.9.8.4-.6 0-1.8-.7-2.8-.8-1.1-1.6-1.4-1.9-.8m656.9.2c-.4.5-.2 1.2.3 1.5.5.4 1.2.2 1.5-.3.4-.5.2-1.2-.3-1.5-.5-.4-1.2-.2-1.5.3m1 4c-.4.5-.2 1.2.3 1.5.5.4 1.2.2 1.5-.3.4-.5.2-1.2-.3-1.5-.5-.4-1.2-.2-1.5.3m-657.2 3.5c-.4 1-.2 2.2.4 2.8.8.8 1.3.7 1.8-.6.4-1 .2-2.2-.4-2.8-.8-.8-1.3-.7-1.8.6m317.6.6c-1.6 1-17.6 8.2-22.4 10-2.5.9-2.8 1.3-1.5 2.5 4.2 4.2 24.4 6 35.5 3.2 6.3-1.7 13.9-4.6 13.3-5.2-.7-.6-22.4-11.5-22.9-11.5-.3 0-1.2.5-2 1m-318.5 7c-.4.6-.3 1.6.3 2.2s1.2.6 1.7-.2c.4-.6.3-1.6-.3-2.2s-1.2-.6-1.7.2m245.2 3.7c-1.4 1.4-1.8 1.4-3.3.3-1.4-1.2-1.8-1.2-3 .4-1.4 1.9-1 4.1.6 3.1 1.1-.7 2.3 1.2 1.5 2.5-.4.7-1.3.7-2.6-.1-1.7-.9-2.2-.5-4 3.5-6.8 15.5-7.6 34.7-2 51.6 3.5 10.7 9.1 21.8 10.6 21 .6-.3.9-.9.7-1.4s.3-.4 1.1.2c1.1 1 1.7.9 2.6-.2.9-1 .1-3.2-3.3-9.7-2.4-4.6-5.1-10.7-6-13.6-4.7-16.4-2.3-35 6.6-50.3 1.8-3 3.3-6.1 3.4-6.7.4-2.1-1.1-2.3-2.9-.6m-58.8 5.8c-.9.8-13.7 5.2-32.4 11-9.3 3-19.9 6.5-23.5 7.8-4.9 1.8-7.1 2.2-8.9 1.5-3-1.1-5.1-.4-5.1 1.7 0 .9-.4 1.4-.9 1-.5-.3-1.2-.1-1.6.4-.3.6 1.6 2.1 4.2 3.5s6.1 3.4 7.7 4.5l3 2 4.5-3.3c10.3-7.5 26.3-13.7 40.4-15.7l8.8-1.2 3-5.9c1.6-3.2 3-6.1 3-6.5.1-.9-1.5-1.5-2.2-.8m476.7 7.4c-.4.5-.2 1.2.3 1.5.5.4 1.2.2 1.5-.3.4-.5.2-1.2-.3-1.5-.5-.4-1.2-.2-1.5.3m-348.5 2.5c-.9 1-.9 1.6-.1 2.1 1.7 1 3.7-1.2 2.4-2.5-.8-.8-1.5-.6-2.3.4" class="icon-part"/><path fill="#2a3a36" d="M488.5 456c-.2.4.2 1.8 1 3.3s1 2.7.5 2.7c-.4 0-1.6.3-2.6.7-1.1.4-1.5.3-1-.5.8-1.4-4.3-4.2-7-3.8-2.3.4-2.3.6 3.2 14.1 7.9 19.4 14.3 25.9 28.1 28.5 5.3.9 13.6.1 15.3-1.6.5-.5-1.3-3.8-4.2-7.4-2.8-3.6-9.2-12.6-14.3-20s-10.2-14.3-11.2-15.3c-1.8-1.6-7-2-7.8-.7m156.5 3.5c-.7.8-.9 1.5-.4 1.6.5 0 0 .4-1 .8-2.2.9-3.1 4.8-1.5 6.7.8.9.5 1.5-1.1 2.4-1.1.6-1.8 1.5-1.5 2.1.4.5-.2 1.2-1.2 1.6s-3.6 2.4-5.7 4.5c-2.2 2.2-4.5 3.7-5.3 3.3-1.6-.6-5.8 1.3-4.9 2.2.3.4.1 1.2-.5 2-.6.7-.8 1.3-.4 1.3s.2.7-.5 1.5c-1.7 2.1 1.4 3.2 3.7 1.4 1.2-1.1 1.7-1.1 2-.2.9 2.6 4.5 6.3 5.5 5.7.6-.4.8-.2.5.3-.4.6 0 1.6.9 2.3.8.7 1.3 1.9 1 2.6-.7 1.9 14.7 14.9 22.1 18.5 13.9 7 30.3 4.1 46.7-8.1 6.5-4.8 9.2-7.8 8-8.9-.5-.5-5.8-4.1-11.9-8.2-6-4-19.3-13.1-29.5-20.2-10.2-7.2-19.7-13.8-21.1-14.8-2.4-1.7-2.8-1.7-3.9-.4m186.6 2.4c-.4.5-.2 1.2.3 1.5.5.4 1.2.2 1.5-.3.4-.5.2-1.2-.3-1.5-.5-.4-1.2-.2-1.5.3m-666.2 1.5c-.4 1-.2 2.2.4 2.8.8.8 1.3.7 1.8-.6.4-1 .2-2.2-.4-2.8-.8-.8-1.3-.7-1.8.6m668.2 17.4c-.3.5 2.6 3.9 6.3 7.6 4.6 4.6 7.1 6.4 7.6 5.6.4-.7.1-1.7-.6-2.4-.8-.7-3.9-3.6-7.1-6.5-3.1-2.9-5.9-4.8-6.2-4.3m51.2 1c-2.3 2.7-2.9 4-2 4.6.5.3 1.8-.8 3-2.4 2.3-3.1 1.4-5.1-1-2.2m-273.6 9.8c-.6 1-1.4 1.8-1.9 1.6-.4-.1-.8.1-.9.5-.1 1.2-1.4 4.6-2.5 6.6-.7 1.3-.6 2.3.2 3.4 1.1 1.2 1 1.4-.6 1.1-1.1-.1-2 .3-2.1.9-.1.7-.3 1.6-.4 2-.1.5-.2 1.1-.1 1.6.1.4-1.1 1.2-2.6 1.8-1.6.5-3.6 2-4.6 3.2s-1.6 1.7-1.3 1c.8-1.5-1.1-2.7-2-1.2-1.5 2.5-1.4 9 .2 9.6 1.1.4 1.2.8.3 1.9s-.8 1.9.7 3.6c1.1 1.2 1.4 1.8.7 1.5-.6-.4-1.4-.3-1.7.2-.3.4 1.9 3.1 4.8 5.9 5.4 5.1 5.4 5.1 10.8 4.5 4.9-.5 5.2-.4 3.3 1-1.7 1.4-1.8 1.6-.4 2.2.9.3 5.1.5 9.5.3 7-.3 7.9-.5 7.7-2.2-.1-1.7.4-1.8 4.8-1.3 3.9.5 6 .1 10.4-1.9 5.1-2.2 6.5-4.4 2.9-4.4-1.1 0-1.2-.4-.3-1.8 1-1.6-.5-3.8-10.5-15.8-6.4-7.6-12.3-13.8-13-13.6-.8.1-1.3-.6-1.2-1.8 0-1.1-.3-1.8-.9-1.7-.5.1-.9.6-.7 1 .1.5-.2.6-.8.2s-.8-1.4-.5-2.4c.3-1.1-.7-3.2-2.8-5.6-3.2-3.7-3.4-3.8-4.5-1.9m11.8 15c0 .8-.5 1.2-1 .9-.6-.4-.8-1.1-.5-1.6.9-1.4 1.5-1.1 1.5.7m-28 12c0 .8-.5 1.2-1 .9-.6-.4-.8-1.1-.5-1.6.9-1.4 1.5-1.1 1.5.7m287.6-26.8c-.3.6.4 2.3 1.7 3.8 3.1 3.6 4.2 1.8 1.2-2-1.3-1.6-2.5-2.4-2.9-1.8" class="icon-part"/><path fill="#2a3a36" d="M624.6 492.9c-.4.5-.2 1.2.3 1.5.5.4 1.2.2 1.5-.3.4-.5.2-1.2-.3-1.5-.5-.4-1.2-.2-1.5.3m273.5 1.5c-1.3 1.3-1.8 2.6-1.3 3 .5.3 1.9-.5 3.1-1.8 1.3-1.3 1.8-2.6 1.3-3-.5-.3-1.9.5-3.1 1.8m-546.5.5c-.4.5-.2 1.2.3 1.5.5.4 1.2.2 1.5-.3.4-.5.2-1.2-.3-1.5-.5-.4-1.2-.2-1.5.3M166.5 496c-.4.6-.3 1.6.3 2.2s1.2.6 1.7-.2c.4-.6.3-1.6-.3-2.2s-1.2-.6-1.7.2m1.1 10.9c-.4.5-.2 1.2.3 1.5.5.4 1.2.2 1.5-.3.4-.5.2-1.2-.3-1.5-.5-.4-1.2-.2-1.5.3m694.9 1.1c-.4.6-.3 1.6.3 2.2s1.2.6 1.7-.2c.4-.6.3-1.6-.3-2.2s-1.2-.6-1.7.2M557 510.9c-.6 1.2-1.5 1.9-2 1.6-.4-.3-2.4.9-4.2 2.5-1.9 1.7-5 3.9-6.9 4.9-2.5 1.4-3.3 2.5-3.2 4.1.4 3.3 7.1 17.2 9.6 19.8 2.7 2.9 7.8 6.1 10.3 6.5 1 .1 2.5.6 3.3 1.1 2.1 1.3 27.8 1.3 29.1 0 .8-.8-.2-3.6-3.8-10.1-2.8-5-7.3-13.6-10.2-19.2-3.2-6.4-5.6-10.1-6.3-9.8s-2.1-.1-3.1-.9c-1.1-.7-2.3-1.1-2.8-.8s-1.5 0-2.3-.6c-1.1-.9-1.9-.9-2.8-.1-1 .7-1.7.7-2.4 0-.8-.8-1.4-.5-2.3 1m23.5 3c-.7 1.2 1.2 2.4 2.5 1.6 1.1-.7.4-2.5-1-2.5-.5 0-1.1.4-1.5.9m-411.1 6.5c-.4 1-.2 2.2.4 2.8.8.8 1.3.7 1.8-.6.4-1 .2-2.2-.4-2.8-.8-.8-1.3-.7-1.8.6m692.2.5c-.4.5-.2 1.2.3 1.5.5.4 1.2.2 1.5-.3.4-.5.2-1.2-.3-1.5-.5-.4-1.2-.2-1.5.3m-16.2 3.5c-.4 1-.2 2.2.4 2.8.8.8 1.3.7 1.8-.6.4-1 .2-2.2-.4-2.8-.8-.8-1.3-.7-1.8.6m-677.8.5c-.4.5-.2 1.2.3 1.5.5.4 1.2.2 1.5-.3.4-.5.2-1.2-.3-1.5-.5-.4-1.2-.2-1.5.3m366 3c-.4.6-.5 1.5-.2 2 .3.4-.7.8-2.2.7-1.8-.1-2.7.4-2.7 1.4 0 .8.7 1.4 1.6 1.2.9-.1 1.9.3 2.2 1 .3.8-.4 1.3-1.7 1.4-3.6.2-6.1.9-6.1 1.7 0 .5-.8 1.3-1.8 1.9-1.5.8-1.6 1.2-.5 2.6.7.9.8 1.3.2.9-2.1-1.2-3.7 1.9-2.4 4.4.7 1.2.8 1.9.2 1.5-2.3-1.4-2 1.3.3 2.8 4.9 3.2 22.6 5.8 24 3.6.9-1.4-2.6-11.1-4.2-11.7-.6-.3-1-1-.7-1.7.6-1.4-3-12.4-4.5-13.9-.5-.5-1.2-.4-1.5.2m-369 2c-.4.5-.2 1.2.3 1.5.5.4 1.2.2 1.5-.3.4-.5.2-1.2-.3-1.5-.5-.4-1.2-.2-1.5.3m-1.8 2.8c-.7 1.4-.3 3.3.6 3.3 1.2.1 1.7-2.8.6-3.5-.5-.3-1-.2-1.2.2" class="icon-part"/><path fill="#2a3a36" d="M525.6 532.9c-.4.5-.2 1.2.3 1.5.5.4 1.2.2 1.5-.3.4-.5.2-1.2-.3-1.5-.5-.4-1.2-.2-1.5.3m-31.6 3.2c-1.4.9-16.2 5.9-18.7 6.3-1.9.3-2.8 1.6-2.8 3.9-.1 1.2-.5 2.8-.9 3.6-.6.9-.3 1.8.8 2.7 1 .7 1.3 1.5.7 1.8-.5.4-1.2.2-1.6-.4-1.3-2-2.4.1-1.4 2.7.7 2 .6 3-.7 4.4-1 1.1-1.4 1.9-1 1.9s-.9 1.4-2.9 3.1c-1.9 1.7-3.2 3.6-2.9 4.1 1.7 2.7 37.7 17.3 41 16.7.5-.1 1.2 0 1.7.1.4.1 1 .3 1.5.5.4.1 2 .7 3.6 1.4 1.8.7 4.2.9 6 .5 1.7-.5 3.6-.6 4.1-.5 2.6.9 10.1.9 11.1 0 .8-.7 1.4-.6 1.9.1.3.5 1.6 1 2.9 1s3.1.9 4.1 2c3 3.3 6.6 2.3 8.4-2.3 1.3-3.4 1.2-4.2-.3-7.4-1.1-2.4-2.1-3.3-3.2-2.9-.8.3-2.3-.5-3.6-1.9-2.8-3.2-4.2-3.1-6.8.4-1.8 2.7-1.9 3.1-.4 3.9s1.5 1-.1 1.6c-1.4.5-1.5.9-.6 2 1 1.2.9 1.4-.6 1.1-1-.2-2-.4-2.3-.6-.8-.3-2.4-.7-4.1-.8-.8 0-2.4-.8-3.5-1.6-1.2-1-1.4-1.4-.4-1.3.8.2 1.4-.2 1.5-.9 0-.7.6-1.8 1.3-2.5 1.1-1.1 1.2-1 .7.3-1.1 3 1.6 3.2 4.5.3 2.2-2.2 2.6-3.3 1.9-4.6-.5-1-.7-1.8-.3-1.8.3 0 0-.8-.7-1.7-1.2-1.5-1.2-1.6.3-1 .9.3 2.2 0 2.8-.8 1.5-1.8-1.1-3.2-6.6-3.7-5.1-.5-16-5.6-20.8-9.8-3.8-3.3-7.3-9.4-9.5-16.2-1.4-4.4-2.2-5-4.1-3.7m36.5 36.9c.3.5.2 1-.4 1-.5 0-1.3-.5-1.6-1-.3-.6-.2-1 .4-1 .5 0 1.3.4 1.6 1m314.1-37.1c-.4.5-.2 1.2.3 1.5.5.4 1.2.2 1.5-.3.4-.5.2-1.2-.3-1.5-.5-.4-1.2-.2-1.5.3M509.3 537c-1.3.5-2.3 1.2-2.3 1.6 0 1.5 4.2 6.4 5.1 5.8.5-.3.7-.9.4-1.3-.2-.5.7-1.3 2.1-2 5.4-2.4.3-6.3-5.3-4.1m-345.8 3.1c-.4.6-.3 1.5.3 2.1s.8 1.6.6 2.3c-.3.7-.1 1.6.5 1.9 1.4.9 2.5-1.4 1.3-2.6-.6-.6-.8-1.6-.6-2.3.7-1.7-1.2-2.9-2.1-1.4m351.1 6.8c-.4.5-.2 1.2.3 1.5.5.4 1.2.2 1.5-.3.4-.5.2-1.2-.3-1.5-.5-.4-1.2-.2-1.5.3M165.5 549c-.4.6-.3 1.6.3 2.2s1.2.6 1.7-.2c.4-.6.3-1.6-.3-2.2s-1.2-.6-1.7.2m1.1 4.9c-.4.5-.2 1.2.3 1.5.5.4 1.2.2 1.5-.3.4-.5.2-1.2-.3-1.5-.5-.4-1.2-.2-1.5.3m2 8c-.4.5-.2 1.2.3 1.5.5.4 1.2.2 1.5-.3.4-.5.2-1.2-.3-1.5-.5-.4-1.2-.2-1.5.3m381.9 5.1c-.8 1.2 2 2.4 3.5 1.5.6-.3.8-1.1.5-1.6-.8-1.2-3.2-1.2-4 .1m302.4 4.4c-.9 2-1 2.9-.1 3.8.8.8 1.4.4 2.3-1.6s1-2.9.1-3.8c-.8-.8-1.4-.4-2.3 1.6m-680.3 4.5c-.4.5-.2 1.2.4 1.6s.8 1 .5 1.5-.1 1.1.4 1.5c.6.3.8 1.2.5 1.9-.7 1.7 1.2 3 2.1 1.6.4-.6.1-1.7-.5-2.5-.7-.8-.9-1.5-.5-1.5s.1-.7-.6-1.7c-.8-.9-1.2-1.8-1.1-2 .2-.3.1-.7-.1-.9-.3-.3-.8-.1-1.1.5m240 9.2c-1.9 2.8-1.4 3.7 1.8 3.4 1.4-.2 2.7.3 3 1.1.4 1 1.1 1.1 3 .4 2.4-.9 2.5-.8 1.6 1.5-1.1 2.9.2 4.1 2 2 1.1-1.4 1.5-1.4 3.1.1 1 .9 2.5 1.4 3.3 1.1 1.5-.6 4 1.5 3 2.6-.3.3.4 1 1.5 1.7 1.2.6 1.9 1.5 1.6 2-.8 1.3 11.7 7.2 12.8 6.1.5-.5.5-1.7-.1-2.7-1.3-2.7-.4-4.4 2.3-4.4 2.8 0 4-1.4 2.2-2.7-.6-.5-3.7-2-6.7-3.3s-7.4-3.6-9.7-5.1c-2.8-1.9-4.5-2.4-4.9-1.7-.4.6.1 1.7 1 2.4 1 .7 1.3 1.5.7 1.8-.5.4-1.2.2-1.6-.4s-1-.8-1.5-.5c-1.5.9-2.2-1.5-1-3 .7-.8 1.1-1.5.9-1.6-.2 0-2.2-.2-4.4-.4-5.9-.6-10.6-1.5-11.5-2-.5-.3-1.6.4-2.4 1.6m58.9 14.9c-.9 1.5.5 3.2 2.2 2.6.9-.4 2.2-.1 2.9.5 1.6 1.3 5.2.3 3.8-1.1-.5-.5-1.9-1.1-3.1-1.3-1.3-.2-2.6-.6-2.9-1-1-1-2.2-.9-2.9.3m-16.4 4.6c-6 5-5 14.9 1.9 18.4 5.2 2.6 8.2 2.5 11.8-.5 4.4-3.6 5.8-7.7 4.3-12.5-2.4-7.9-11.7-10.8-18-5.4m13.4 2.9c5.2 5.1 1.5 13.5-5.9 13.5-7.6 0-11-10.1-4.9-14.8 2.8-2.1 8.1-1.5 10.8 1.3" class="icon-part"/><path fill="#2a3a36" d="M459.2 610.2c-2.1 2.1-1.4 5.7 1.3 7 2.2 1 2.9.9 4.7-1 1.9-1.8 2-2.5 1-4.7-1.3-2.7-4.9-3.4-7-1.3m20.3-.2c-1.1 1.7.5 3.2 2.1 1.9.7-.6 1.1-1.5.8-2-.7-1.2-2.1-1.1-2.9.1m2.6 6.8c-.5.9-1.2 1.6-1.5 1.5-.8-.3-3.8.8-5.3 1.9-.9.7-.9 1.4-.1 2.8 1.8 2.8-.7 5.3-4.4 4.5-2.2-.5-3-.2-3.5 1.2-.4 1-1.5 2.4-2.5 3.1-1.4 1-1.8 2.6-1.8 6.7 0 3-.5 6.6-1.2 8-.9 2-.8 3.6.7 8.3 1 3.1 2 6.4 2.2 7.2.9 2.9 8.4-7.2 13.8-18.5 5.2-10.6 10.3-26 9.1-27.3-1.4-1.4-4.6-1.1-5.5.6m-274.3 30.5c-2.5 2.1-3.9 4.5-3 5.1.5.3 2.1-.8 3.6-2.3 2.7-2.8 2.2-5.2-.6-2.8m328 12.7c-2 2.7-3.3 5.2-2.7 5.5.5.4 2.6 3.9 4.5 7.8 7.4 14.7 22 35.1 34.2 47.9 3.6 3.7 6.8 6.6 7.1 6.3.4-.2.6-2.4.5-4.9-.1-3.2.2-4.6 1.1-4.6.7 0 1.8-.7 2.5-1.5s1.6-1.3 2-1c.5.3 1.1.1 1.4-.4s-3.6-5.3-8.7-10.6c-10-10.6-23.9-28.2-32.3-41.3-2.9-4.5-5.5-8.2-5.6-8.2-.2 0-2 2.2-4 5m-187.3 3.1c-3.3 2.2-7.5 5.5-9.3 7.2-3.4 3.3-6.5 8.1-5.7 8.9.3.2-.8 4.1-2.5 8.6-1.6 4.5-2.6 8.3-2.2 8.6.4.2 3 .6 5.7.7 4.4.3 5 .1 5-1.6 0-1.1.5-2.5 1.1-3 .6-.6 1.9-3.1 2.8-5.7 2.1-5.6 2.3-5.8 8.4-6.7 4-.6 4.7-1 4.5-2.8-.2-1.6 1.1-3 4.7-5.3 2.7-1.7 5.2-4.1 5.6-5.2.9-2.9-3.2-6.6-8.1-7.3-3.5-.5-4.7 0-10 3.6m129.1 2.7c-.2.4-.1 6.5.4 13.5.7 10.9.7 16.2 0 16.2-.2 0-.7 8.6-1 18.2-.1 2.9-.6 5-1.1 4.7s-1.3.5-1.8 1.8c-1.5 3.7-4.1 17.1-3.7 19.3.2 1.1-.2 2.7-.8 3.5-2.3 2.8-9.6 38.6-9.6 47 0 3.7 1.9 5.4 3.9 3.6.9-.8 2.1-1.5 2.6-1.6.6-.1.9-.5.8-.9-.3-1.1 3-1 4.5.2.6.5 1.2.6 1.2.2s.7-.2 1.5.5c1.4 1.2 2 .7 1.6-1.4-.1-.5.8-.6 2.1-.2 1.3.3 2.6.6 2.9.6.7 0 .2 5.7-.7 7.1-.3.6 0 1.7.7 2.5.6.8.9 1.7.6 2.1-.4.3-.2 1.2.4 2 .9 1 1.5 1.1 2.5.2 1.1-.9 1.1-1.5.3-2.5-.7-.8-.7-1.9-.1-2.9.5-1 .6-3.4.2-5.5-.5-2.6-.3-4.3.5-5.2.7-.7 2.4-11 3.9-22.8s3.1-23.3 3.6-25.5.7-15.3.5-29c-.5-24.8-1.8-39.9-3.6-42.2-.9-1-9.2-4.3-11-4.3-.4 0-1 .4-1.3.8m6.9 15c-.8.8-2.5-1-2.5-2.6 0-1.3.2-1.3 1.4.4.8 1 1.3 2.1 1.1 2.2m-65.9-5.8c-1.6.5-4.3 2.2-6 3.7-7.5 6.8-8.8 7.8-8.4 6.3.2-.9-.3-1.4-1.2-1.2-.8.2-4.6.6-8.3.9l-6.9.6-3.3 5.1c-1.8 2.8-4.9 7.1-6.9 9.5s-3.5 4.9-3.3 5.5 2 1.5 4.1 2c3.6.8 4 .6 8.2-3.5 2.4-2.4 4.7-5.2 5-6.4.4-1.1 1.7-3.6 3-5.6 1.7-2.7 2.9-3.7 4.7-3.5 2.3.1 2.3.2.9 2.4-.8 1.2-1.6 4.7-1.8 7.8-.2 3-1.3 8.1-2.4 11.2s-2.1 6.1-2.3 6.7c-.3 1.6 12.8 1.8 14 .3.6-.7 1.8-4.8 2.8-9.1s2.2-8 2.6-8.3c.5-.3 3.2-.8 6-1.1 5.3-.6 7-2.3 5-4.7-.9-1.1-.2-2.2 3.4-5.4 2.5-2.2 4.5-4.8 4.5-6 0-2.4-6.3-8.2-8.8-8.1-.9 0-3 .5-4.6.9m-53.1 3c-.4.6-.3 1.6.3 2.2s1.2.6 1.7-.2c.4-.6.3-1.6-.3-2.2s-1.2-.6-1.7.2m-100.4 3.4c-.7.8-.8 1.7-.3 2 .6.3 1.5-.1 2.1-.8.7-.8.8-1.7.3-2-.6-.3-1.5.1-2.1.8m10.7-.8c-.3.5.7 2.4 2.2 4.2 1.6 1.9 3.1 2.9 3.4 2.3.4-.5-.6-2.4-2.2-4.2s-3.1-2.8-3.4-2.3m97.8 7.3c-.4.5-.2 1.2.3 1.5.5.4 1.2.2 1.5-.3.4-.5.2-1.2-.3-1.5-.5-.4-1.2-.2-1.5.3m63 3c-.4.5-.2 1.2.3 1.5.5.4 1.2.2 1.5-.3.4-.5.2-1.2-.3-1.5-.5-.4-1.2-.2-1.5.3m-158.4 3c-2 2.7-2 4.1-.1 4.1 1.3 0 4-5.8 3.1-6.4-.5-.3-1.8.8-3 2.3m95.6-1.2c0 .5-.2 1.2-.2 1.8-.1.5-.7 2-1.4 3.1-.6 1.2-.9 2.4-.6 2.7.8.8 6.4-3.4 5.8-4.4-.2-.4 0-1 .6-1.4s.8-1.1.5-1.6c-.7-1.1-4.4-1.2-4.7-.2m-110.2 1.1c-.3.5.6 2 1.9 3.2 1.4 1.3 2.5 2 2.5 1.6 0-.5.7-.3 1.5.4.8.6 1.9.9 2.5.5 1.3-.8.2-2.7-1.3-2.2-.7.3-2.4-.7-3.8-2-1.5-1.4-2.9-2-3.3-1.5m168.7.4c-1.6 2.6-1 3.9 3.2 6.7s4.4 2.9 6 1.1c1.1-1.2 1.4-2.4.9-3.2-.5-.7-.9-1.7-.9-2.2s-.9-1.1-2-1.3c-3.3-.6-3.9-.8-5.2-1.6-.6-.4-1.5-.2-2 .5m226.3 1.7c-.4.5-.2 1.2.3 1.5.5.4 1.2.2 1.5-.3.4-.5.2-1.2-.3-1.5-.5-.4-1.2-.2-1.5.3m-225 21c-2.8 2.9-2.8 2.9-.8 4 2.2 1.2 2.6.9 4.1-3.2 1.5-3.8-.1-4.1-3.3-.8m368 2c-.4.5-.2 1.2.3 1.5.5.4 1.2.2 1.5-.3.4-.5.2-1.2-.3-1.5-.5-.4-1.2-.2-1.5.3M426 725.5c-.7.8-.9 1.5-.5 1.5s.2.7-.5 1.5c-.7.9-2.1 1.3-3.1 1-1.9-.6-10.9 4.7-10.9 6.4 0 .5 1.1 2.5 2.5 4.5l2.5 3.7-2.2-.7c-1.3-.3-3.6-1.6-5.1-2.7l-2.9-2-2.3 2.4c-2.1 2.2-8.5 19.8-8.5 23.4 0 2.8 1.8 2.3 9.6-2.9 16.5-11.2 19.4-14.2 23.6-24l3.8-8.9-2.4-2.4c-2.1-2-2.5-2.1-3.6-.8m-66.3 41.1c-10.2 8.1-24.8 22.9-27.3 27.7-1 1.8-1 2.5.3 3.9.9 1 2.3 1.8 3.1 1.8 1.1 0 1.2.3.3 1.3-.6.8-.8 1.7-.5 2 .4.4-.3.5-1.4.2-1.2-.2-2.4 0-2.7.6-.4.5-1.3.5-2.5-.1-2.4-1.3-3.5.3-1.5 2 1.2 1 1.8 1 3 0s1.6-.9 2.1.4c.3.9.4 2.3.1 3.1-.3.7.2 2.4 1.3 3.7 1.8 2.2 1.9 2.2 3.7.5 1.7-1.7 1.7-1.8-.5-2.3-2.3-.7-2.9-1.9-1.3-2.9.5-.3 1.7.3 2.7 1.2 1 1 3 1.8 4.5 1.9 2.3.1 3.7-1.1 8.8-7.5 3.3-4.3 7.8-9.1 9.9-10.8 3.7-3 4-3.6 4.6-10 .4-3.7 1.8-10.8 3-15.6s1.9-9 1.6-9.2c-.4-.3-5.5 3.4-11.3 8.1m-89.1-4.7c-.4.5-.2 1.2.3 1.5.5.4 1.2.2 1.5-.3.4-.5.2-1.2-.3-1.5-.5-.4-1.2-.2-1.5.3m54 46c-.4.5-.2 1.2.3 1.5.5.4 1.2.2 1.5-.3.4-.5.2-1.2-.3-1.5-.5-.4-1.2-.2-1.5.3m82 1c-.4.5-.2 1.2.3 1.5.5.4 1.2.2 1.5-.3.4-.5.2-1.2-.3-1.5-.5-.4-1.2-.2-1.5.3M339 819.6c-1.3 2.4-1.8 4-1.1 4.7.6.6 1.7-.5 3-3.1 2.6-5.2 1-6.5-1.9-1.6" class="icon-part"/><path fill="#000a41" d="M217.1 106.7c-8.7 9.8-14 25.2-14.1 40.4 0 18.4 10.8 55 14.5 49 .3-.6.1-2-.5-3.1-.8-1.6-.8-2 .2-1.8s1.2-.8.8-3.7c-1.1-8.4-.4-19 1.5-23.5 1.5-3.4 1.8-6.2 1.5-11.5-.8-13.7-.4-42 .7-45.7.6-2.1.8-4 .3-4.3-.4-.3-2.7 1.6-4.9 4.2m641.3-2.5c-1.8 2.7-1.2 7.6 1.1 9.8 1.7 1.6 2.5 1.8 3 .9.5-.7-.1-1.8-1.4-2.9-2-1.4-2.1-1.8-.8-2.9 1.7-1.3 1.7-3.5 0-5.2-.8-.8-1.3-.7-1.9.3m-671.2 38.9c-.5 1.3-1.7 4-2.5 6.1-6.9 16.4-6 38.9 2.3 58.8 3.7 8.9 14.5 24.4 23.7 34 7.8 8.2 20.1 19 21.7 19 .4 0 1-1 1.5-2.3.7-1.9-.4-3.4-7.8-11.2-14.2-14.9-18.6-26.9-16.2-43.8 1-7.6 1-8.4-.8-10.7-3-3.8-12.6-23.7-15-31-1.2-3.5-2.6-9.4-3.3-13-1.3-7.6-2.4-9.3-3.6-5.9m686.3 26.7c-17.4 16.3-40.1 32.7-67 48.1-15.8 9.1-17 10.2-18.4 15.8-1.9 7.3-8.2 20.1-13.6 27.1-5.3 7-15 15.3-23.5 20-7.8 4.4-24.3 11.2-39.3 16.2-10.4 3.4-13 4.7-13.9 6.6-2.4 5.2-.1 5 25.4-2.6 13.4-4 27.5-8.5 31.3-10 34.7-13.8 47.1-19.5 63.5-29.3 14.5-8.7 21.1-13.8 32.2-24.5 15.2-14.8 24.1-28.9 29.1-46.2 2.6-8.8 4.6-27.4 3.1-28.3-.5-.2-4.5 2.9-8.9 7.1m-27.4-4.4c-.7.8-.8 1.7-.3 2 .6.3 1.5-.1 2.1-.8.7-.8.8-1.7.3-2-.6-.3-1.5.1-2.1.8m-48.6 2.5c-.7 1.2 1.2 2.4 2.5 1.6 1.1-.7.4-2.5-1-2.5-.5 0-1.1.4-1.5.9m43.4 2.1c0 .3-.2 1.3-.4 2.2-.4 2.2 1.3 3.4 2.8 1.9.8-.8.7-1.6-.6-2.8-.9-1-1.7-1.5-1.8-1.3m-46.6 2.5c-.7 2 .1 2.8 3.2 3.2 3.3.5 4-1.2 1.3-3.1-2.8-2-3.7-2-4.5-.1m-.8 5.9c-1.1 3.9-1.4 8.1-.5 9.1.6.7.8 2.5.4 4-.5 1.9-.9 2.3-1.5 1.4-.4-.7-.3-1.9.2-2.5.7-.8.6-1.4-.1-1.9-.5-.3-1.1-.4-1.1-.1-.1.3-.2.9-.3 1.3-.5 2-7.3 14.4-10.6 19.3-9.1 13.4-27.2 26.6-56.6 41-9.9 4.9-18.6 9.5-19.1 10.2-1 1.2-1.7 4.2-1.4 6 .1 1 10.4-3 27.6-10.7 25.7-11.5 42.8-20.7 48.8-26.3 1.5-1.4 2.7-2.2 2.7-1.7s1-.1 2.3-1.2c1.2-1.1 4.3-3.2 7-4.7 2.6-1.5 4.7-3.1 4.7-3.6 0-.6.6-1 1.3-1 2.2-.1 7-4.7 6.4-6.3-.4-1 0-1.3 1.1-1.1.9.2 2.8-.4 4.2-1.5 2-1.6 2.2-2.2 1.2-3.4s-1-1.6.2-2c.9-.4 1.8-.2 2.1.3s2.8-.6 5.5-2.6c3.5-2.5 4.8-4 4.5-5.5-.2-1.1 0-1.7.6-1.3.5.3 1.6 0 2.4-.6 1.2-1 1.2-1.5-.2-3.6-.9-1.4-2.1-2.3-2.7-2.1-.6.3-2.1-.5-3.3-1.6-2.1-1.8-2.4-1.9-4.6-.4-2.2 1.4-2.6 1.4-4-.1-1.3-1.3-1.9-1.4-2.9-.4-1.8 1.8-2.4 1.5-2.3-1.6 0-2.3-.4-2.6-2.4-2.4-1.3.2-2.1-.1-1.7-.6.3-.5 0-1.4-.7-2-1.6-1.3-6.8-1.2-7.2.2M775 220.1c0 1.5-1.8 1.9-2.3.6-.3-.8.1-1.4.9-1.4s1.4.4 1.4.8m8 4.3c0 .3-.4.8-1 1.1-.5.3-1 .1-1-.4 0-.6.5-1.1 1-1.1.6 0 1 .2 1 .4m46.6-37.5c-.4.5-.2 1.2.3 1.5.5.4 1.2.2 1.5-.3.4-.5.2-1.2-.3-1.5-.5-.4-1.2-.2-1.5.3m-610.8 13.7c-1.5 1.4 12.6 22.9 14.3 21.8.6-.4.6-1.1-.2-2-.9-1.1-.9-1.8-.2-2.5 1.2-1.2-7.3-14.3-8.7-13.4-.5.3-1.7-.6-2.7-2.1-1-1.4-2.2-2.2-2.5-1.8" class="icon-part"/><path fill="#000a41" d="M233.6 218.8c-.3.5.3 1.7 1.4 2.7 1.4 1.3 1.7 2.2 1 3s-.4 1.7.9 2.9c2.2 2 4.1 1.4 4.1-1.3 0-2.1-6.5-8.6-7.4-7.3M411 291.7c-6.1 6.1-15.4 12.1-29.2 18.9l-11.7 5.7-9.5-2.8c-10.1-2.8-13.1-2.9-13.2-.5-.1 3 1.7 4.9 5.2 5.6 1.9.3 3.3 1.1 3.1 1.8-.5 1.5-14.3 7.3-18.9 7.9-3.2.4-4.1.1-5.6-2.1-1.2-1.5-2.4-2.2-3.1-1.7-.9.5-.6 1.4 1.1 3.2 1.9 2 2 2.3.4 1.7-1.3-.5-2.3-.1-3.3 1.2-.8 1-1.9 1.9-2.6 1.9-.7.1-1.1.6-1 1.2s-1.3 1.8-3.2 2.7-3.7 2.1-4 2.5c-.3.5-2.7 1.7-5.3 2.7-6.2 2.4-11.3 5.4-10.7 6.4.5.8 3.6-.1 36.5-9.7 27.9-8.2 40.8-13.8 54-23.7 4-3 7.6-5.3 7.8-5.1.5.4-3.3 6.8-7.3 12.3l-2.4 3.3 3.7 3.9 3.7 3.8 3.8-4.1c2.1-2.2 5.8-8.1 8.2-13.1 4.7-9.7 10.1-26.5 8.8-27.7-.5-.4-2.8 1.3-5.3 3.8m-197.3 12.9c-1.2 1.3-.8 14.9.8 22.4 1.7 8.2 5.7 18.7 9.1 24.2l2.3 3.7-1.9 5.7c-1.1 3.2-1.9 6.9-1.6 8.3.2 1.4-.2 3.2-.8 4-1.3 1.6-1.5 20.3-.3 27.1.9 5.4 2.8 7.8 4.5 5.7.8-.9.9-2.4.3-4.3-1.6-5.5-1.3-23.6.4-31.3 1.7-7.3 3.3-9.3 5.9-7.2 2.9 2.4 2.2-.5-1.9-8.2-2.5-4.5-4.9-8.1-5.5-7.9-.6.1-.9-.2-.6-.7.4-.5.2-1.2-.4-1.6s-.8-1-.5-1.5-.6-4.9-2.1-9.9c-1.4-4.9-2.4-10-2.2-11.3.3-1.9 1.1-.9 4.7 5.2 3 5 7.3 10.1 13 15.5 17.9 16.7 21.4 21 25.5 31.1 1.2 2.8 2.4 5.3 2.8 5.5.3.2 2.5-2.4 4.8-5.8 2.3-3.5 6.5-8.2 9.3-10.6 5.3-4.4 15-10.7 16.6-10.7.5 0 1.4-.7 2.1-1.5 1-1.2.9-1.6-.3-2.1-3.2-1.2-14.7 6.8-26 18.1-2.6 2.6-4.9 4.6-5.1 4.4-.5-.6-3.6-7.2-3.6-7.6 0-.1.7-.3 1.5-.3 1.9 0 3.2-3 8.3-19 5.3-16.3 5.2-15.6 2.2-15.2-4.1.5-17.4 5.3-19.2 6.9-.9.8-2.1 1.2-2.6.9s-2.5.4-4.6 1.5c-4.3 2.3-5.6 1.8-5.6-2.1 0-1.6-.5-3.2-1.1-3.5-.6-.4-.8-1.4-.5-2.2.4-.9-.6-2-2.5-3.1-11.6-6.3-17.5-11.7-23.4-21.7-.6-.9-1.3-1.3-1.8-.9m94.8 6.1c-10.6 5.5-22.6 13.7-22.3 15.2.5 2.7 3.2 2.3 7.2-1.4 3.9-3.4 4.7-3.6 10.2-2 1.2.4 2.5.2 2.9-.5s1.1-.8 1.8-.2c1.6 1.3 6.1-.4 5.1-1.9-.3-.6-1.7-.9-3-.6-2.7.5-3.1-.5-.9-2.3 1.3-1.1 1.8-1 3 .6 1 1.4 1.7 1.6 2.5.8.9-.9.9-1.3 0-1.9-.8-.5-.7-1.2.5-2.5 1.5-1.7 1.5-1.9-.7-3.4-2.7-1.9-2.5-1.9-6.3.1m10 12.2c-.7 1.2 1.2 2.4 2.5 1.6 1.1-.7.4-2.5-1-2.5-.5 0-1.1.4-1.5.9m47.5 31.6c-7.9 4.3-9.6 6.2-7.5 8.5.8.9 1.3 1.9 1.1 2.1-.3.2.3 1.4 1.2 2.6l1.7 2.2 6.9-1.9c3.9-1.1 7.4-2.4 7.9-2.9 1-1-1.5-9.7-3.6-12.4-1.1-1.5-1.8-1.3-7.7 1.8m-4.7 38.7c-.5.7-1.5 4.9-2.3 9.3-1.7 10.4-1.7 10.9-.5 11.1.6.1 2.1.5 3.5 1 1.4.4 2.7.7 3 .7s1.1.8 1.8 1.8c.7 1.1 2.1 1.9 3.1 1.9.9 0 2.2.5 2.8 1.1.7.7 1.6.1 3.1-2.3 2.5-4.1 7.5-20.4 6.9-22.2-.3-.8-4-1.8-9.4-2.5-11-1.4-10.9-1.4-12 .1m-136.1 16c-.8 1-.5 2.9 1.3 7.1 3.3 8.2 8.6 15.5 17.4 24 12.4 11.9 18.9 16 34.3 21.2l13.6 4.7 9.3-3.5c5.2-1.9 10.8-3.8 12.6-4.2 5.2-1.1 5.6-2.4 3.6-10.5l-1.9-7.2-7.8-2.9c-4.3-1.6-10.3-4.2-13.3-5.9-5.1-2.9-5.6-3-7.3-1.5-1.6 1.4-1.8 1.4-2.4 0-.5-1.4-.8-1.4-2.9 0-1.3.8-2.6 1.3-2.9 1-.8-.9-6.4 8.5-7.8 13-2.1 7.3-1.8 6.9-3.7 5.4-.9-.8-3.6-5.6-6-10.7l-4.4-9.2H251c-5.5 0-6.3-.3-11.2-4.3-3.6-2.9-6.4-6.4-8.6-10.8-3.6-7-4.3-7.6-6-5.7m128.1 7c-2.7 3-10.3 14.5-10.3 15.5 0 .5 2.9 3.7 6.4 7.2l6.4 6.4 8.4-8.8c4.5-4.8 8.3-9.2 8.3-9.9 0-1.2-14.4-12.5-16.1-12.6-.6 0-2 1-3.1 2.2m189.6 195.4c-.2.5-.3 5.6-.1 11.3l.3 10.3 11.2 11.3c12.1 12 21.2 18.8 35.3 25.8 20.1 10.1 36.1 13.9 58.2 14 16.4.1 20.4-.9 14.1-3.6-2.2-.9-4-1.1-5.1-.5-2.2 1.1-2.2.2-.4-3.4 1.3-2.5 1.2-3-1.5-6.5-3-3.7-3-3.7-.9-4.5 4.5-1.7.5-2.5-13.7-3.1-21.2-.8-36.2-5-56-15.7-13.5-7.3-31.1-22.4-38.9-33.5-1.1-1.6-2.2-2.5-2.5-1.9m149.3 2.5c-1.3.5-2 1.3-1.7 1.9.8 1.3 4.2 1.3 5.1-.1 1-1.7-.9-2.8-3.4-1.8m-12.7 43.8c-.7 1.2 1.2 2.4 2.5 1.6 1.1-.7.4-2.5-1-2.5-.5 0-1.1.4-1.5.9m-187.1 12.5c-.3.8-.1 5.4.5 10.3.6 4.8 1.1 18 1.1 29.3.1 26 1.5 53.3 3.6 67.5 7.3 50.2 37.8 80.7 78.1 78.3 14.8-.9 35-8.7 38.3-14.8.6-1.1 1.5-1.8 2-1.5s1.4-.3 2-1.4c.6-1.2.6-2.2.1-2.6-.6-.3-1.5.4-2.1 1.5s-1.5 1.8-2 1.5-1.7-.1-2.7.4c-9.9 5.4-31.4 7.7-43.3 4.7-15.7-3.9-28.1-12.9-37.3-26.9-12.4-18.9-16.5-35.1-20.2-80.7-.8-10.7-2-24.9-2.6-31.5-1.1-12.3-4.5-32.5-5.7-33.6-.4-.4-2.6-1-4.9-1.4-3.4-.5-4.4-.3-4.9.9" class="icon-part"/><path fill="#000a41" d="M508.3 671.3c-1.8 2.9 10.9 40.2 20.1 59.2 9 18.3 16.8 30.3 27.6 41.7 8.2 8.8 24.7 22.1 26.3 21.1.4-.2.3-1-.2-1.7-.8-1-.1-1.6 2.8-2.4 2.1-.7 4.4-1.9 5.1-2.7s1.6-1.3 2-1c.5.3 1.1.1 1.4-.4.4-.5-2-2.7-5.1-4.8-8.1-5.3-25.8-23.2-32.5-32.8-14.5-20.8-26-44.1-33.8-68-1.2-3.9-2.6-7.4-3.1-7.9-1.1-1.2-9.9-1.4-10.6-.3m181.3.6c-.4.5-.2 1.2.3 1.5.5.4 1.2.2 1.5-.3.4-.5.2-1.2-.3-1.5-.5-.4-1.2-.2-1.5.3m-270.8 26.9c-2.5.2-5.1.8-5.6 1.5-.6.7-2 5.8-3.3 11.4-1.7 7.6-2 10.6-1.2 11.4s1.6.2 2.9-2.2c.9-1.9 4.3-7.4 7.6-12.3 3.2-4.9 5.5-9.2 5.1-9.5-.5-.3-2.9-.5-5.5-.3m-30.1 24.9c-8.1 13.5-16.6 33.9-19.9 47.8-1.7 7.2-2.2 12.2-2.2 25-.1 39.2 11.5 67.9 38.5 95.2 8 8.2 20.9 18.8 22.7 18.8.3 0 1.7 1 2.9 2.1 3.3 3 21.5 11.8 30.9 14.9 52.7 17.4 107.5 6.8 147.6-28.8 3.7-3.2 6.6-6.2 6.5-6.6-.1-.3 1.7-2.4 4-4.5 2.4-2.1 4.1-4.2 3.8-4.6s.2-1 1-1.3c2.4-1 13-17.6 11.9-18.7-.7-.7-2.8 1.1-6.1 5.2-2.8 3.5-6.3 7.4-7.7 8.7-1.7 1.6-2.3 2.8-1.7 3.5s.3 2-.9 3.6c-1.4 1.9-2.1 2.2-3.2 1.2-1.1-.9-3 .1-9.1 4.6-35.2 26.4-82 34.1-124.1 20.6-38.8-12.4-70.4-41.7-84.1-78.1-4.9-12.7-6.7-22.8-7.2-39.3-.7-19.1.4-25.1 9.6-54.1.6-2.1.2-3.4-2-6.4-1.6-2.1-3.6-5.9-4.5-8.4-1-2.5-2.1-5-2.4-5.4-.4-.5-2.3 1.8-4.3 5m213.4 67.7c-.9 1-.9 1.6-.1 2.1 1.3.8 4.2-1.4 3.4-2.6-.8-1.3-2-1.1-3.3.5m6.8 3.2c-.6.8-.8 1.4-.4 1.4s.2.6-.4 1.4c-1.7 2-.1 2.6 4.1 1.7 3.3-.8 3.6-.7 2.6.9q-1.2 1.8-4.2 1.5c-3.5-.3-6.8.7-6.7 2 0 1 11.1 4.6 12.2 3.9.4-.2.6-1.6.3-2.9-.5-2.6.5-3.2 2.3-1.4.8.8 1.5.4 2.7-1.2 2-2.9 1-4-6.1-6.7-4.4-1.7-5.4-1.8-6.4-.6m17.7 6.3c-.4.5-.2 1.2.3 1.5.5.4 1.2.2 1.5-.3.4-.5.2-1.2-.3-1.5-.5-.4-1.2-.2-1.5.3m-3 2c-.4.5-.2 1.2.3 1.5.5.4 1.2.2 1.5-.3.4-.5.2-1.2-.3-1.5-.5-.4-1.2-.2-1.5.3m15.5 2.9c-2.4 4.8-1 7 2.1 3.2 1-1.2 1.9-1.9 1.9-1.6.1.3.2 1 .3 1.5.3 2.1 1.5 2.2 2.5.2.6-1.1 2.1-2.6 3.4-3.2 2-1.1 2.1-1.1.8.5-1.8 2.2.1 4.8 2.1 2.8.7-.7.8-1.2.4-1.2-.5 0-.3-.7.4-1.5 1.4-1.7.6-3.4-1.8-3.3-.9 0-3.6-.3-5.9-.7-4.1-.7-4.2-.7-6.2 3.3m17.5 1.1c-.4.5-.2 1.2.3 1.5.5.4 1.2.2 1.5-.3.4-.5.2-1.2-.3-1.5-.5-.4-1.2-.2-1.5.3m-23 2c-.4.5-.2 1.2.3 1.5.5.4 1.2.2 1.5-.3.4-.5.2-1.2-.3-1.5-.5-.4-1.2-.2-1.5.3" class="icon-part"/><path fill="#000a41" d="M617.6 881.9c-.4.5-.2 1.2.3 1.5.5.4 1.2.2 1.5-.3.4-.5.2-1.2-.3-1.5-.5-.4-1.2-.2-1.5.3" class="icon-part"/><path fill="#00020b" d="M170.5 202c-.4.6-.3 1.6.3 2.2s1.2.6 1.7-.2c.4-.6.3-1.6-.3-2.2s-1.2-.6-1.7.2m3.3 4.6c-.9 1.8-.3 4.9 1.1 4.9.8 0 1.6-.5 1.8-1 .4-1.4-2.3-5.1-2.9-3.9m71.9 4c-1.2 1.3 2.9 8.7 4.4 7.8.5-.3 0-2.3-1.1-4.5-2.1-4.1-2.3-4.3-3.3-3.3m-69.1 3.3c-.4.5-.2 1.2.3 1.5.5.4 1.2.2 1.5-.3.4-.5.2-1.2-.3-1.5-.5-.4-1.2-.2-1.5.3m-6.6 3.6c-1.7 2.1-.6 4.2 2.2 4 2.4-.2 3.1-2.1 1.5-4.3-1.2-1.6-2.2-1.5-3.7.3m74 .9c-1.8 4.9.2 7.3 3.3 3.8 1.4-1.6 1.4-1.9-.3-4.2l-1.9-2.5zm-62.9 1.4c-1.3 2.5.2 3.8 1.9 1.6.9-1 1-1.8.3-2.5-.8-.8-1.4-.5-2.2.9m508 3.6c-3.6 5.7-18.6 19.1-27.3 24.4-4.6 2.8-22.3 12.2-39.4 21-55.1 28.2-64.5 36.2-72.4 61.5-4.3 13.8-6.5 19.5-12 30.9-6.2 12.6-12.5 21.3-23.5 32.4-11.2 11.4-20.8 17.7-44.8 29.4-16.4 8-19.5 9.9-26.1 16.1-10.5 9.8-14 17-14.1 28.9 0 6.8.5 9.5 2.4 13.8 2.6 5.7 7.5 10.6 13 13 4.7 2 13.5 1.8 18.9-.3 4.2-1.7 11.2-8.7 11.2-11.1 0-.7.4-1.6 1-1.9 1-.6 6 9.5 6 12.1 0 2.4-7.6 9.8-12.4 12.2-6.9 3.5-15.3 4.7-22.2 3.4-15.2-3.1-26.6-12.7-31.3-26.3-.9-2.8-2.1-5.1-2.6-5.2-1.5-.3-1.8 7.7-.5 13.7 6.8 32.6 45.4 51.8 75.9 37.6 3.5-1.7 6.5-3 6.6-3 .2 0 .9 3.2 1.5 7.1 1.5 8.7 6.9 19.8 11.3 23.1 9.4 7.2 19.9 10 36 9.6l11.1-.3.8-4.5c.4-2.5 1-5.9 1.3-7.6.5-2.7 0-3.3-3.8-6-5-3.6-8.6-9.9-15.2-26.9-3.4-8.8-4.4-12.4-3.7-13.6.6-.9.7-2.1.1-3-2.1-3.3-1.1-3.7 9.4-3.2 10.6.6 13.3.1 22.7-3.9 8.2-3.5 8.2-3.5 6.4-6.4-.9-1.3-1.5-2.6-1.3-2.9.3-.2 3.4.1 7.1.7 10.2 1.8 16 .1 31.1-8.9 6.1-3.6 17.9-15.9 17.5-18.2-.2-.8-2-2.4-4-3.5-3.8-1.9-4.2-3.6-.9-3.6 1 0 5-1.6 8.9-3.5 9.1-4.6 18-14.1 24.2-25.8 5.3-10 4.9-11.1-3.7-12.2-8.7-1.1-9.1-1.5-3.2-4.3 12.9-6.1 27.4-27.5 29.1-42.7l.3-3-7.2.3c-4 .2-7.3.1-7.3-.2s2.1-2 4.7-3.7c2.6-1.8 6.3-4.7 8.3-6.4 3-2.7 4.7-3.4 12.5-4.4 4.9-.7 9.3-1.5 9.8-1.8 2.4-1.5-5.8-6.3-9.7-5.6-1.4.3-2.6.3-2.6 0s1.3-3.9 3-8c1.6-4.1 3.9-11.2 5-15.8 2.4-9.9 3.6-24.4 2.1-25.3-.6-.4-2.8.2-5 1.4-6.7 3.4-7.9 2.6-3.3-2.4 7.3-8 13.8-23.4 16.1-38.4 1.4-9.1 1.4-21.9.1-22.7-.6-.4-2.5.2-4.3 1.2-3.1 1.9-3.2 2.2-3.9 10.5-1.9 24.7-15.1 47.8-33.7 58.8-3.6 2.1-17.6 8.2-31 13.5s-25.3 10.1-26.5 10.8c-1.2.6-2.4 1-2.8.9s-1.9.3-3.3.8c-3.4 1.3-3.2 0 .8-5.3 5.5-7.3 7.9-14.1 9-26.3l1.1-11.1 18.5-9.9c43.9-23.3 52.4-30.1 63-50.1 1.9-3.7-.6-3.6-2.8.1m-88.5 81c-2.7 11.5-7.4 18.3-16.8 24.2-4.4 2.8-20.8 8.7-21.7 7.9-.7-.8 2.8-11.2 5.7-17 3.3-6.6 15.8-19 25.7-25.4l8-5.3.3 4.5c.2 2.4-.4 7.4-1.2 11.1m87.8-3.6c1.1 1.8-3.5 19.8-6.7 26.6-6.7 14-15.7 23.3-29 29.9-9.6 4.7-15.5 6.1-38.2 9.2-22.5 3.1-29.3 3.6-29.9 2.6-.3-.4 1.7-2.6 4.4-4.9 6.2-5.3 10.5-14 12.8-25.6l1.8-8.8 14.9-5.3c8.3-2.9 22-7.9 30.5-11 19.9-7.4 36.2-13.2 37.7-13.4.6 0 1.4.3 1.7.7m-93.9 34.9c-1.1 7.3-4.1 15.2-8.2 21.1-5.8 8.5-14.8 12.8-28.9 13.9l-8.4.6 2.9-6.4c1.5-3.5 3.8-9.6 5.1-13.4 1.2-3.9 2.7-7.5 3.4-8.1.6-.6 4.5-2 8.7-3.2s11.2-3.7 15.5-5.6c10.7-4.6 10.8-4.6 9.9 1.1m74.5 33.4c0 .6-1.7 4.5-3.7 8.7-5.2 10.4-13.4 18.7-23.6 23.7-6.9 3.4-9 3.9-16.5 4.3-4.8.2-16.3-.3-25.7-1.2-9.3-.9-20-1.9-23.7-2.2-3.8-.3-6.8-.8-6.8-1.1 0-.2 2.4-2.7 5.4-5.4 3.6-3.3 6.7-7.5 9.5-12.9 3.7-7.1 4.5-8 7.4-8.4 3.1-.4 41.5-4 60.2-5.6 13.8-1.1 17.5-1.1 17.5.1m-89 4.5c0 2.1-7.2 13.6-11.3 18q-12.75 13.95-33.6 10.5c-3.5-.6-6.6-1.3-6.9-1.5-.3-.3 1.3-2.5 3.5-4.9 2.2-2.3 6.3-7.8 9.2-12l5.2-7.7 6.2-.1c3.4 0 9.8-.6 14.2-1.3 9.4-1.5 13.5-1.8 13.5-1m-47.5 33c5.2.9 13 1.4 17.9 1.2 4.7-.2 8.6.1 8.6.6s-3.9 4.8-8.7 9.6c-12 11.9-19.3 15.5-31.3 15.5-7.8 0-9.2-.3-16.7-3.9-4.6-2.2-8.3-4.2-8.3-4.5s2.8-2.1 6.3-3.8c3.4-1.8 9.8-6.2 14.2-9.7 4.4-3.6 8.2-6.5 8.4-6.5.2-.1 4.5.6 9.6 1.5m49 .9c5 .8 17.8 2.6 28.5 4s23.9 3.1 29.2 3.7c5.3.7 9.9 1.6 10.3 2 1.1 1-6 11.1-11.4 16.1-9.3 8.7-21.5 12.7-32.9 10.6-6.1-1.2-46.6-17-48.7-19.1-.2-.2 1.7-3 4.4-6.2 2.7-3.1 5.7-7.3 6.7-9.2 2.1-3.9 1.9-3.9 13.9-1.9M501 433.9l11.4 5.9-3.9 1.7c-9 3.8-19.6 5.8-28 5.2-7.3-.6-18.8-3.6-20.7-5.5-.5-.5 3.8-2.7 9.4-5.1 5.7-2.3 11.9-5.1 13.8-6.1 1.9-1.1 4.2-1.9 5-1.9.8-.1 6.7 2.6 13 5.8m84.8 10.4c17.1 8.8 31.2 16.3 31.2 16.7 0 1.6-11.2 10.1-17.2 13.1-3.1 1.6-8.8 3.4-12.6 4.1-6 1-7.8.9-13.3-.6-7.9-2.1-13-5.8-32.1-22.8l-14.9-13.2 3.8-1.1c5.5-1.7 13.3-5.9 17.3-9.4 1.9-1.7 4.2-3 5-2.8.8.1 15.6 7.3 32.8 16m-41.5 20.9c11.4 11.7 20.7 21.5 20.7 21.9 0 1.6-9.1 4.2-16.1 4.7-15.1.9-22.1-3.8-39-26.3l-9.7-12.9 8.7-3.2c4.8-1.7 9.6-3.6 10.6-4.2 1.1-.6 2.5-1.2 3-1.2.6 0 10.3 9.5 21.8 21.2M488.7 454c7.3 0 5.5-1.7 21.8 21.5 5.7 8.2 11.9 16.9 13.7 19.3 2.1 2.8 2.8 4.6 2.2 5.2-.5.5-3.7 1.3-7.1 1.6-4.7.5-7.7.2-13.1-1.5-11.9-3.6-16.3-8.9-25.5-30.7-7.8-18.5-7.6-17.3-2.5-16.3 2.4.4 7.1.8 10.5.9m25.3 56.5c5.8 0 11.7-.3 13.1-.7 2.5-.7 2.6-.5 6.9 11.5 2.4 6.7 5.8 16.2 7.6 21.2 1.7 4.9 3.5 10.1 3.9 11.4l.7 2.4-9.4-.5c-10-.5-16.2-2.6-22.5-7.4-5.7-4.4-8.1-9.2-11.8-24-4.2-16.8-4.2-16.9-1.2-15.2 1.3.7 6.2 1.2 12.7 1.3M251.5 222.2c-.9 2.2 3.7 9.1 16.9 24.9l10.5 12.7-1.9 5c-1.1 2.8-2.7 8-3.6 11.6-.9 3.7-2 6.6-2.4 6.6-.5 0-5.5-4.6-11.3-10.3-9-8.7-10.8-11.1-12.7-16.1-2.6-7.4-3.5-16.5-2.2-23.4.8-4.6.7-5.4-.8-6.2-1.3-.7-2.1-.5-3 .4-1.7 2.2-2.5 18.5-1.1 22.9 1.5 4.6.6 6.5-2 4.1-1.8-1.6-1.9-1.5-2.9 1.2-2.1 5.4-3.1 12.9-2.9 22.4.2 11.9 1.6 17.5 6.2 24.3 4.2 6.5 14.6 14 18.6 13.5 3.7-.4 3.1-1.9-2.3-5.5-13.5-8.9-18.5-19.8-17.2-37.2 1.1-14.9 2.1-16 8.3-8.6 2 2.5 8.5 8.8 14.4 14 10.5 9.3 10.7 9.6 9.8 12.7-1.5 5.5-2.3 17.5-1 18.2.6.4 4.3-.3 8.3-1.5s9.6-2.7 12.3-3.3l5-1.1.3-8.9c.4-11-.9-17.4-5.3-26.2-3.8-7.8-5.2-9.6-22-29.1-6.6-7.6-12.7-15-13.7-16.3-1.4-2.2-1.7-2.3-2.3-.8m-80.5 2.3c-.9 1.1-1 1.9-.3 2.6s1.4.5 2.3-.6 1-1.9.3-2.6-1.4-.5-2.3.6M868.5 246c-.4.6-.3 1.6.3 2.2s1.2.6 1.7-.2c.4-.6.3-1.6-.3-2.2s-1.2-.6-1.7.2m-685.4 8.4c-.9 1-.9 1.6-.1 2.1 1.7 1 3.7-1.2 2.4-2.5-.8-.8-1.5-.6-2.3.4m2.3 3c-.7 1.9 2.3 5.9 3.8 5 .5-.3.5-1.1-.1-1.8s-.9-1.5-.6-1.8-.1-1.1-1-1.8c-1.2-1-1.6-.9-2.1.4m661.2.5c-.4.5-.2 1.2.3 1.5.5.4 1.2.2 1.5-.3.4-.5.2-1.2-.3-1.5-.5-.4-1.2-.2-1.5.3m-10 6c-.4.5-.2 1.2.3 1.5.5.4 1.2.2 1.5-.3.4-.5.2-1.2-.3-1.5-.5-.4-1.2-.2-1.5.3m-26.1 11c-.7 1.2 1.2 2.4 2.5 1.6 1.1-.7.4-2.5-1-2.5-.5 0-1.1.4-1.5.9m-17 5.2c-.7 1.1.5 1.6 3.5 1.5 1.4-.1 2.6-.6 2.8-1.1.2-1.2-5.6-1.6-6.3-.4m35.9 27c-.3.6 0 1.6.6 2.4.9 1.1 1.7 1.2 3.1.4 1.1-.5 1.7-1.4 1.4-1.8-.8-1.3-4.4-2-5.1-1m-3.7 4.5c-3.8 2-2.4 3.8 1.4 1.9 1.6-.9 2.7-2 2.4-2.5-.7-1.2-.4-1.3-3.8.6m-442.3 17.5c-11.2 11.6-26.2 20.4-51.4 30.3-8 3.2-17.4 6.9-21 8.4-16.3 6.6-27.8 16-33.5 27.5-1.9 3.8-3.5 7.7-3.5 8.6s-.8 2.9-1.8 4.6l-1.8 3 5.3 6.5c3.1 3.8 5.2 7.3 5.1 8.5-.4 2.9 1.5 3.2 2.9.4 1.2-2.4 1.3-2.4 1.3-.2 0 2.8 1.3 3.6 3.3 2 1.5-1.1 1.4-1.5-.9-4.5-1.4-1.8-2.9-3-3.3-2.7-.5.2-1.7-.2-2.7-1-1.5-1.1-1.7-1.8-.8-3.2.8-1.3.8-2.6-.2-5-1.2-2.9-1.2-3.9.6-8.6 5.2-13.8 16.1-23.7 31-28.2 1.4-.4 5-2 8.1-3.6 3.1-1.5 8.4-3.7 11.8-4.9 3.4-1.1 9-3.1 12.5-4.4l6.3-2.4 3.7 4.9c2 2.7 4 4.7 4.5 4.5 1.2-.8.7-5.1-.7-6.9-2-2.3 1-4.8 12.5-10.6 11.4-5.7 22.1-13.4 23.4-16.8 1.2-3.1-.4-6.1-3.6-6.9-1.4-.3-2.3-1-2-1.4.3-.5.1-1.1-.3-1.4-.5-.3-2.6 1.3-4.8 3.5m32.7 24.3c-1 1.2-.8 1.8 1.4 3.2 2.9 1.9 4.9.9 4.3-2.2-.4-2.4-4.1-3-5.7-1m-26 5c-1.5 1.8.1 3 2.9 2.1 1.4-.4 2.7.2 4.4 2 2.6 2.8 3.8 2.3 2.5-1.2-1.5-3.9-7.5-5.7-9.8-2.9m-154.4 7.4c-1.6 1.8-1.6 2.1 1.7 6.3 5.6 7.2 10.5 11.4 11.7 10.2s-2.9-8-8.9-15.1c-2.7-3.3-2.8-3.3-4.5-1.4m161.4 15.3c-1.6.6-2.1 1.3-1.4 2 1.3 1.3 6.7-.7 5.8-2.1-.7-1.2-1.2-1.2-4.4.1m27.5 2.8c-1 1.1-1.3 2.1-.7 2.5.5.4 1.2.2 1.6-.4.9-1.5 3.6-1.2 5.6.6 2.5 2.3 3.4-.1.9-2.6s-5.2-2.6-7.4-.1m-174.8 1.6c-.4.5 1.3 6.9 5 18.5.5 1.5.3 4.5-.4 7.5-1.5 5.7-.2 8.7 1.7 3.9.6-1.6 1.2-3.4 1.3-3.9.1-.6.5-1.5.9-2.2.4-.6.3-1.4-.2-1.7s-.7-1.4-.4-2.4c.5-2.2-2.2-13.4-4.3-17.4-1.4-2.7-2.5-3.4-3.6-2.3" class="icon-part"/><path fill="#00020b" d="M448 394.7c-16.5 2.6-28.5 7.4-41.5 16.7-11.9 8.5-18.9 15.9-25.3 26.6-7.3 12.3-10.2 22-10.4 35.2-.1 5.5-.5 10.1-.9 10.3-.8.5-.3 7.6 1.2 17.9 1.2 8.5 6.4 22 12.5 32.6 5.7 10 20.9 26.9 30 33.7 12.5 9.1 35.5 22.1 45.8 25.9 4.2 1.5 6.1 2.7 6.1 3.9 0 .9.9 2.1 1.9 2.7 1.5.9 2.2.7 3.3-.7 1.2-1.8 1.6-1.7 9 1.3 4.3 1.8 8.4 3.2 9.2 3.2 1.7 0 .9 10-1.5 18-1 3.4-1.2 5.6-.6 6.2s1.2.6 1.6-.1c.5-.7 1.5-.7 3.3 0 2.3.9 3 .6 4.9-1.8 1.3-1.5 2.1-3.5 1.8-4.3-1.7-4.3-1.5-4.9 1.7-6.9 4.3-2.6 4.3-2.6 5.7.5 1 2.1 1.8 2.5 4.9 2.2 2.9-.2 3.9-.8 4.1-2.3.6-3.3 1.8-3.8 5.7-2.5 3.5 1.2 3.7 1.4 3.2 4.6-.5 2.8-.1 3.7 2.1 5.3 2.7 1.9 2.8 1.9 5.4 0l2.6-1.9 2.6 3.4c3.2 4.3 3.2 5 0 7-2.1 1.4-2.5 2.4-2.2 5.4.3 3.2.7 3.7 3.1 4 3 .4 3.4 1.9 1.7 6.9-1 2.6-1.6 3-4.7 2.9-2.7-.1-4 .5-5.5 2.5-1.9 2.5-1.9 2.8-.3 5.2 1.7 2.6 1.6 2.6-1.7 4.7-4.3 2.6-4.8 2.5-7.4-.7-1.9-2.4-2.5-2.6-5-1.8-1.6.6-3.3 2-3.9 3.3-1.1 2.4-3 2.7-6.9 1.2-2.1-.8-2.5-1.4-2-3.7.4-2.2-.1-3.4-2.4-5.6-2.5-2.4-3.3-2.7-5-1.8-3.1 1.7-4 1.4-5.7-1.9-2-3.9-1.9-4.5 1-5.8 2-.9 2.5-1.9 2.5-4.7s-.5-3.7-3-5c-1.7-.9-2.9-2.1-2.8-2.8.2-.7-.1-1.4-.7-1.7-.5-.3-2.3 2.7-3.9 6.5-1.7 3.9-4.8 10-6.9 13.5l-3.9 6.4 2.9 2.3c9.4 7.6 38.1 12.5 48.7 8.4 7.2-2.8 11-5.8 14.3-11.3 6.1-10 6.6-12.7 6.1-34.6l-.4-19.7-14-.7c-15.6-.7-28.3-2.7-42.4-6.4-46.4-12.5-85.9-42.9-100.6-77.5-9.3-21.9-9.8-46.6-1.3-67.7 11.8-29.7 45.1-51.8 77.4-51.4 5.5.1 11.1.3 12.4.4 4.2.5 3.5-2.1-1.1-4.2-3.3-1.5-6.3-1.9-13.3-1.8-4.9 0-10.1.2-11.5.5m-79.9 50.9c-2.9 3.7-1.5 5 1.9 1.7 1.6-1.5 2.7-3 2.4-3.5-.9-1.4-2.2-.9-4.3 1.8m-3.6 6.3c-.7 1.2 1.2 2.4 2.5 1.6 1.1-.7.4-2.5-1-2.5-.5 0-1.1.4-1.5.9m-99.1 21.6c-1.3 3.4 3 21.8 6.8 28.8.5 1.1.7 2.1.4 2.4-.9.9 1.4 4.4 2.5 3.8.6-.4.5-1.3-.1-2.5-1.4-2.6-1.4-2.5 2.3-6 2.9-2.7 3.7-3 8.2-2.6 2.8.3 5 .5 5 .6s1.4.3 3.2.6c2.4.3 3.5-.1 4.2-1.4 1.4-2.6-5.3-8.9-7.5-7.1-1.2 1-1.9.8-3.8-1-1.3-1.2-2.3-2.9-2.2-3.8.1-1.5-8.9-8.4-15.7-11.9-2.4-1.3-2.8-1.3-3.3.1m42.8 11.1c-1.8 1.4-2.9 3-2.6 3.5.3.6 1.2.5 2.2-.3 1-.7.7-.1-.6 1.3-2.6 2.9-2 4.2 1.3 2.9 1.3-.5 2.5-.7 2.8-.4s1.4-.7 2.6-2.2c1.6-2 1.8-3 1-4-.6-.8-1.6-1.1-2.2-.7-.5.3-.7.1-.3-.5 1.4-2.2-1.1-2-4.2.4m-6.6 5.3c-.4.5-.2 1.2.3 1.5.5.4 1.2.2 1.5-.3.4-.5.2-1.2-.3-1.5-.5-.4-1.2-.2-1.5.3m-6.6 18c-.9.3-3 1.9-4.8 3.6-3.8 3.4-7.6 3.8-11.4 1.3-1.5-1-2.9-1.4-3.2-1-.7 1.1 8.6 17.4 13 22.9 2.6 3.1 3.9 4 5.5 3.6 4.6-1.2 3.6-7.7-1.6-9.9-3.6-1.5-4.2-3.2-2.9-8.2.5-1.8 1.3-2.2 4.5-2.2 3.3 0 4.1-.5 5.4-3 .8-1.6 1.5-3.3 1.5-3.8 0-1.6-4.4-4-6-3.3m15.4 6.5c-5 7.5-5.8 16.5-2.4 25.6 4.9 13 19.4 20 33.2 15.8 4.8-1.4 5.8-3.3 3.1-6-1.8-1.7-2.6-1.8-7-1-15.1 2.7-27-9.5-23.6-24.4.7-2.9.7-4.6-.1-5.4-1-1-.9-1.1 1.7-1.4.6-.1 1.1-1 .9-2.1s-.3-2.8-.3-3.7c0-3.6-2-2.7-5.5 2.6" class="icon-part"/><path fill="#00020b" d="M339.2 531.6c-1.2.8-2.2 1.2-2.2.7 0-.4-.6-.1-1.3.7-.7.9-2.1 1.5-3.2 1.5s-2.5.3-3.1.8c-.7.4-1.6.6-2 .5-.5-.2-1.1.1-1.3.7-.7 1.7 4.2 3.6 8.2 3.1 4.4-.5 6.5-2 7.8-5.5 1.3-3.2-.1-4.5-2.9-2.5m7.8 11.3-2 3 2.2 1.5c3.1 2.2 5.4 2 7.3-.7 1.5-2.1 1.4-2.3-1-4.5-3.4-2.9-3.9-2.8-6.5.7m4.2 18.3c-1.5 1.5-1.5 2.8-.2 6.3.9 2.3 1.3 2.5 2.5 1.5 1.8-1.5 1.9-5 .2-7.3-1-1.4-1.5-1.5-2.5-.5m-33.7 2.7c-.7 1.2 1.2 2.4 2.5 1.6 1.1-.7.4-2.5-1-2.5-.5 0-1.1.4-1.5.9m15.9 5.6c-4 3.8-4 3.9 1.9 7.4l3.7 2.3.9-2.4c.5-1.3.5-2.8 0-3.4s-.4-1.5.2-2.1c1.2-1.2-.4-5.3-2.1-5.3-.5 0-2.5 1.6-4.6 3.5m23 4.6c-.8 1.4 2.1 4.3 3.5 3.5.8-.5.8-1.3.1-2.7-1.2-2.1-2.5-2.5-3.6-.8m-3.8 4.5c-2.1.8-4.2 1.2-4.6.9s-1.3.1-1.9.9c-.9 1-.8 1.6.4 2.6 1.4 1.2 1.9.7 1.6-1.3-.1-.5.3-.6.9-.2.5.3 1 1.2 1 1.9s2.9 6.9 6.4 13.7c5.6 10.9 7.8 16.5 11.4 28.4.8 2.8 1.2 3 7.6 3.7 10.3 1 17.7 6.2 22.6 15.9 1.1 2.1 2 4.5 2 5.3 0 4.9 6.2.4 11.4-8.3 2-3.2 4.9-9.8 6.5-14.7 2.6-7.9 2.7-9.2 1.5-11.5-.9-1.9-2.4-2.9-5.1-3.4-11-2-44.2-14.7-54.9-21-3.6-2.1-4.3-3-4.1-5.3.1-1.5.6-3 1.1-3.4 1.1-.7 1.6-4.7.7-5.2-.3-.2-2.3.3-4.5 1m103.8 18.5c-.9 1.6 1.2 3.3 3.1 2.5 1.4-.5 1.5-.9.5-2.1-1.5-1.8-2.6-1.9-3.6-.4m20.2 16.8c-.4.5-.2 1.2.3 1.5.5.4 1.2.2 1.5-.3.4-.5.2-1.2-.3-1.5-.5-.4-1.2-.2-1.5.3m-6.5 8.5c-1.4 1.5-1.9 2.6-1.2 3 1.5.9 5.1-1.2 5.1-2.9 0-2.5-1.6-2.5-3.9-.1m35.1 4.6c-4.4 2.7-7.5 9.6-6.6 14.6 1.5 8.1 10.1 13.6 18 11.5 4-1.1 8.4-4.7 8.8-7.2.1-.8.5-2 1-2.7.5-.8.4-1.8-.2-2.4-.7-.7-1.4-.4-2.1 1-.6 1-.8 2.2-.5 2.5 1.1 1.1-6 5-9.9 5.4-5.3.6-9.2-2.1-10.8-7.6-1-3.4-.9-4.4 1.1-8.3 2.1-4.3 2.3-4.5 7.3-4.7 6.1-.3 7.2-.8 5.6-2.7-1.7-2-7.9-1.7-11.7.6m-43.6-.1c-.4.5-.2 1.2.3 1.5.5.4 1.2.2 1.5-.3.4-.5.2-1.2-.3-1.5-.5-.4-1.2-.2-1.5.3m60.9 5.1c-.3.5.2 2.1 1.1 3.5 2.1 3.2 3.9 1.9 2.5-1.8-1.1-2.8-2.5-3.5-3.6-1.7" class="icon-part"/><path fill="#00020b" d="M508.5 636c-.4.6-.3 1.6.3 2.2s1.2.6 1.7-.2c.4-.6.3-1.6-.3-2.2s-1.2-.6-1.7.2m-137 4c-.6 1.2 1.5 5 2.9 5 1.9 0 7.6 4.8 7.6 6.4 0 1.1 3.6 5.1 4.5 5.1.1 0 1-.6 1.9-1.4 3.2-2.7-1.3-11.4-7.4-14.6-2.8-1.4-8.8-1.8-9.5-.5m65 8.4c-2.3 1.7-1.6 6.2.8 5.8 1-.2 3.3.7 5.2 1.8 4.1 2.5 4.5 5.4 1.5 9.2-1.7 2.2-1.7 2.8-.5 4.4 1.3 1.9 1.4 1.8 3.7-.2 1.3-1.2 3.3-2.7 4.6-3.3 2.7-1.4 2.9-4.9.6-9.7-2.6-5.5-12.5-10.5-15.9-8m-57.6 8.1c-.1.5-.1 1.3 0 1.7 0 .4-.5.5-1.2.2-1.6-.6-10.7 6.4-10.7 8.3 0 2.5 3 2.5 6.3 0 9-7.1 8.9-7 7.3-9.2-.9-1.1-1.6-1.6-1.7-1m-55.5 14.7c-8.5 9.2-11.5 13.7-10.5 15.6 1.8 3.3 7.7 1.4 13-4.2 1.9-2 4-3.6 4.7-3.6 1.5 0 8.5-9.6 7.7-10.4-.4-.3-3.2-.6-6.3-.6-5 0-5.9.3-8.6 3.2m110.8 5.1c-2.4 2.5-2.9 6.2-1 7.3 1.3.8 9-7.5 8.2-8.8-.3-.5-1.1-.4-1.8.1-.8.7-1.6.7-2.2.1-.7-.7-1.8-.2-3.2 1.3m-121.6 23.6c-.7 1.1 3.7 9.5 4.9 9.2 1.5-.3.5-7.5-1.3-8.9-1.9-1.4-2.9-1.5-3.6-.3" class="icon-part"/><path fill="#d3a456" d="M304.5 165c-.4.6-.3 1.6.3 2.2s1.2.6 1.7-.2c.4-.6.3-1.6-.3-2.2s-1.2-.6-1.7.2m-19.9 3.9c-.4.5-.2 1.2.3 1.5.5.4 1.2.2 1.5-.3.4-.5.2-1.2-.3-1.5-.5-.4-1.2-.2-1.5.3m-37 11c-.4.5-.2 1.2.3 1.5.5.4 1.2.2 1.5-.3.4-.5.2-1.2-.3-1.5-.5-.4-1.2-.2-1.5.3m40.9 1c-.7 1.2 1.2 2.4 2.5 1.6 1.1-.7.4-2.5-1-2.5-.5 0-1.1.4-1.5.9m-42.1 2.5c-.7 1.8.4 3.8 1.7 3.1 1.4-.9 1.1.8-.6 3.2-.8 1.2-1.2 2.8-.9 3.6s.1 1.8-.4 2.1c-1.6 1 .8 11.8 4.3 19.1 2.1 4.5 7.2 11.6 14.2 19.8 5.9 7.1 13.4 16.1 16.6 20 5.8 7.1 13.7 21.5 13.7 24.8 0 2.1 1.6 3.3 2.5 1.9.4-.6 1-.8 1.5-.5.4.3 1.3-.2 2-1s1.7-1.2 2.4-.8c2 1.3 3.7 1.2 4.2-.2.9-2.3-2.3-12.9-6.1-20.3-3.6-7.1-4.8-8.6-22.9-28.6-5.4-6-12.2-14.1-15.1-18-5.4-7.2-11.5-18.7-11.5-21.8 0-.9-.4-1.9-1-2.3-.5-.3-.7-1.2-.4-2 .3-.7-.4-1.8-1.5-2.5-1.7-.9-2.2-.8-2.7.4m444.2 16.8c-1 1.4-1.2 2.6-.6 3.2s.6 1.4-.1 2.3c-.9.9-.7 1.4.6 1.9 2.5 1 3.7-.8 2.6-3.8-.6-1.7-.6-2.9.1-3.6.6-.6.6-1.2 0-1.6s-1.8.4-2.6 1.6m-309 5.7c-1 1.1-2 3.7-2.3 5.8-.4 3.2 0 4.5 2.1 7 2.5 3 7.2 4.8 8.2 3.2.2-.4 1-.6 1.7-.3.7.2 2.1-.4 3.1-1.5 2.5-2.7.1-3.9-2.7-1.3-1.9 1.7-2.6 1.8-5 .7-1.6-.6-3.3-1.8-3.8-2.6-1.4-2.3-1-7.1.8-9.1 1.1-1.2 1.3-2.2.7-2.8-.7-.7-1.6-.4-2.8.9m13 2c-.3.4.3 1.6 1.3 2.5 2.2 2 4 .4 2.1-1.9-1.4-1.7-2.6-1.9-3.4-.6m297.3 1.2c-.6 3.1-.6 4 .1 4.4.4.3 1.3-.1 1.9-.9.9-1 .8-1.6-.4-2.6-.8-.7-1.5-1.1-1.6-.9m-201.3 7.8c-.4.5-.2 1.2.3 1.5.5.4 1.2.2 1.5-.3.4-.5.2-1.2-.3-1.5-.5-.4-1.2-.2-1.5.3m-159.5 1.5c-.9 1-.9 1.6-.1 2.1 1.3.8 4.2-1.4 3.4-2.6-.8-1.3-2-1.1-3.3.5m8.6-.7c-.4.3.5 1.6 1.8 2.9 4.5 4.1 2.9 10.2-3.3 12.5-1.7.7-2.2 1.3-1.5 2 1.3 1.3 5.2-.2 7.8-3.1 2.8-3.1 2.6-9.2-.4-12.4-2.5-2.7-3.3-3-4.4-1.9m78.8 10.7c-4.5 1.3-4.6 3.2-.1 2.9 2.9-.1 6.5-2.7 4.9-3.6-.4-.2-2.6.1-4.8.7m237.1 1.2c-2.1 1.4-19 10.4-37.5 19.9-45 23-57.1 30.6-69.9 43.6-7.6 7.7-12.9 18-16.3 31.6-2.1 8.7-2.2 9.2-.5 11.7.9 1.5 2.1 2.4 2.6 2.1.6-.4 1-.1 1 .6 0 1.9 6.3 11 7.1 10.2.5-.5 2.9-7.1 5.4-14.8 5.3-15.8 8.2-21.7 13.8-28.1 8.8-10 22.5-18.7 61-38.6 28.7-14.8 39.1-20.5 44.5-24.5l3.2-2.4-4.2-5c-2.4-2.7-4.3-5.7-4.3-6.6 0-2.6-1.7-2.5-5.9.3m-255 5.3c-.4.5-.2 1.2.3 1.5.5.4 1.2.2 1.5-.3.4-.5.2-1.2-.3-1.5-.5-.4-1.2-.2-1.5.3m-82 2c-1.2 1.3-1.4 2.1-.6 2.6 1.3.8 5.2-2.4 4.4-3.6-.8-1.4-1.9-1.1-3.8 1m73.5 1.2c-3.3 1.4-4.1 2.3-3.3 3.1s2.4.6 5.9-.9c4.6-1.9 5.9-3.6 3.1-4-.7-.1-3.3.7-5.7 1.8m-9 4c-4.5 2.7-2.8 4.5 2.3 2.4 3.1-1.3 3.6-1.8 2.6-3-1.5-1.8-.9-1.9-4.9.6" class="icon-part"/><path fill="#d3a456" d="M371.8 247.6c-6.9 3.5-8.5 4.8-6.9 5.9 1.2.7 15.1-6.1 15.1-7.5 0-2-1.8-1.7-8.2 1.6m-10.3 5.4c-.4.6-.3 1.6.3 2.2s1.2.6 1.7-.2c.4-.6.3-1.6-.3-2.2s-1.2-.6-1.7.2m-4 2.9c-.7 1.2 1.2 2.4 2.5 1.6 1.1-.7.4-2.5-1-2.5-.5 0-1.1.4-1.5.9m94.7.9c-3.4 1-2.6 2.7 1.1 2.4 4.4-.3 5.9-1 5.2-2.2-.7-1.1-2.8-1.2-6.3-.2m-97.6 1.1c-.4.5-.2 1.2.3 1.5.5.4 1.2.2 1.5-.3.4-.5.2-1.2-.3-1.5-.5-.4-1.2-.2-1.5.3m-11.9 6.5c-9.4 6.3-10.4 7.3-9.1 8.6 1 1 16.2-8.9 17.6-11.5 1.7-3-1-2.1-8.5 2.9m-102.6-.7c-.6 1.2-1.1 3.2-1.1 4.5-.1 1.3-.2 4.3-.3 6.8-.2 5.4 1.3 5.7 3.1.5.9-2.6.9-4.1.2-5-1.3-1.6 1.3-2.8 2.8-1.3.6.6 1.2.6 1.6-.1.4-.5-.6-2.5-2.2-4.2-2.9-3.2-2.9-3.2-4.1-1.2m440.4 39.4c-1.1.5-11.2 4.2-22.5 8.2-24.1 8.7-28.6 10.8-28.1 12.8.8 3.2.7 8.5-.2 9.6q-.9 1.35.6 3.6c1.4 2.1 1.3 2.5-.3 4.8-1.7 2.2-1.7 2.5-.3 4.1 1.3 1.4 1.3 2.1.4 3.2-.7.8-1 2-.7 2.5.4.6-.5 2.8-1.8 5-2.2 3.4-2.3 4.1-1.1 5.1 3.5 2.9 22.6-2.6 32.7-9.3 7.9-5.3 16.2-14.6 20.3-22.7 3.3-6.5 7.5-19.5 7.5-23.1 0-2.4-4.1-4.8-6.5-3.8m-502.8 4.5c-.3.3.1 3.2.9 6.5 2.5 10.6 10.4 23.5 15 24.3 2.7.5 7.9-4.6 7.1-6.8-.3-.8.1-1.7.9-2s1.4-1.2 1.4-2 1.2-2.7 2.7-4.1c2.6-2.4 2.7-2.7 1.3-5.1-1.3-2.2-3.5-3.3-14.1-6.4-6.9-2-13-3.9-13.6-4.3s-1.3-.4-1.6-.1m171.2 56.9c-.1.5-.1 1.7 0 2.6s-.5 1.9-1.4 2.3c-2.6 1-.8 2.3 2.5 1.8 4.1-.6 4.2-1.2 1.4-4.7-1.3-1.7-2.4-2.6-2.5-2m300.6 5.6c-17.1 1.5-37 4-37.8 4.9-.5.4-.4 1.1.2 1.4 1.8 1.1 1.3 3.7-1.3 7.1-1.4 1.7-2.8 4.9-3.2 7.1-.3 2.1-1 4.3-1.4 4.9-.5.5-1 2.6-1.2 4.5l-.3 3.5 6 .8c3.3.5 10 .6 14.8.4 7.7-.4 9.8-.9 16.5-4.2 9.7-4.8 17.4-12.4 22.4-22.4 2.1-4 3.5-7.7 3.2-8.2-.6-1-3.7-1-17.9.2m-417.1 20.3c-.7 1.9 2.6 12 4 12.1.5 0 1.4-.7 1.9-1.7.8-1.2.6-2.7-.8-5.7-2.3-5.2-4.2-7-5.1-4.7m463.5 5.4c-6.5 6.6-10.9 12.5-10.9 14.5 0 .7-1.1 2.4-2.5 3.7-1.7 1.6-2.2 2.7-1.5 3.5.5.7.7 1.4.4 1.8-1.5 1.5 6.3 4 31.1 10 14.9 3.6 29.7 7.1 32.9 7.6 20 3.6 36.6-1.6 50.6-15.8 9.1-9.2 14.7-16.9 12.8-17.5-.7-.3-13.7-1.9-28.8-3.6s-38.6-4.7-52.3-6.6c-13.6-1.9-25.1-3.4-25.5-3.3-.4 0-3.2 2.6-6.3 5.7m-372.2 1.7c-1.5 1.9-4.9 4.5-7.5 5.8-4.8 2.2-5.7 4.1-3.9 8 .6 1.2 1.6 1.6 3.5 1.3 1.5-.2 3.5-.5 4.5-.5 2.2-.1 11.4-8.6 13.3-12.3 1.3-2.6 1.3-2.7-1.8-4.2-4.3-2.2-4.9-2.1-8.1 1.9m127.8 3.6c-14.6 2-30.7 8.9-43 18.6-12.8 10-24.8 29.7-28 45.8-1.7 8.6-1.7 24 0 24 .6.1 2 .6 3.2 1.3 1.5.8 2.4.9 2.8.1.5-.6 1.3-.3 2.2 1 .8 1.2 1.2 2.5.9 2.9-.3.5.8 2.2 2.4 3.7 1.7 1.6 3 2.5 3 2.1 0-.5.6-.3 1.3.3 2.2 1.8 2.6.3 1-4.7-.8-2.6-1.7-8.6-2-13.3-2.2-34.6 22.8-68.3 57.1-76.9 4.4-1.1 9.8-2 12.2-2 4.2 0 6.4-1.2 4.4-2.5-1.8-1.1-10.5-1.4-17.5-.4m147.8 13c-2.9 3.3-11.6 22-10.6 23 .5.5 4.2 2.1 8.3 3.5 5.6 2 9.5 2.6 15.3 2.6 7 .1 8.6-.3 15.1-3.6 5.2-2.5 9-5.3 12.7-9.4 6.7-7.3 9.6-12 7.7-12.6-1.8-.6-31.8-4.5-39.8-5.2-5.9-.6-6.7-.4-8.7 1.7m-339 1.1c-.6.7-1.7 2.8-2.6 4.6-1.4 2.9-1.4 3.7 0 8.4.8 2.8 2.6 7.6 3.9 10.7 3.1 7 4.7 5.9 3.4-2.4-.5-3.3-1-9.2-1-13.1 0-7.4-1.6-10.9-3.7-8.2m545.3 19.6c-.3.6.1 1.5.8 2.1.8.7 1.7.8 2 .3.3-.6-.1-1.5-.8-2.1-.8-.7-1.7-.8-2-.3m3.9 6.2c-.4.6-.3 1.6.3 2.2s1.2.6 1.7-.2c.4-.6.3-1.6-.3-2.2s-1.2-.6-1.7.2" class="icon-part"/><path fill="#d3a456" d="M414.6 444.3c-3.8 4.9-8.3 15.4-9.5 22.2-4 21.8 1.7 41.3 16.7 56.5 4.3 4.2 9.2 8.5 10.9 9.4 3.1 1.6 3.3 1.6 5.5-.6l2.2-2.2-4-3c-22.1-17.1-29.3-37-23.4-64.6 2.6-11.7 4.1-17.2 5.2-18.7.5-.6.5-1.4-.1-1.7-.5-.4-2.1.9-3.5 2.7m375 6.6c-.4.5-.2 1.2.3 1.5.5.4 1.2.2 1.5-.3.4-.5.2-1.2-.3-1.5-.5-.4-1.2-.2-1.5.3m-435.4 1.4c-.5.7-1.7 2.6-2.5 4.3-1.5 2.9-2 3.1-8.7 3.8-10.7 1-34.3 9.1-36.4 12.5-1 1.6 5.4 7.3 7.3 6.5 12.2-5.3 20.2-7.6 30.7-8.7l11.5-1.2 2.4-7c1.3-3.9 2.4-7.3 2.5-7.7 0-.3-1.3-1.3-3-2.1-2.2-1.1-3.1-1.2-3.8-.4m436.3 3.6c-.4.8-.1 1.9.8 2.8 1.9 2 3 .1 1.3-2.2-1-1.4-1.5-1.5-2.1-.6m24 1.1c-.3.5.6 6.4 2 13s2.5 13.5 2.5 15.4c0 3.3 2.3 6.6 3.4 4.8 1-1.7-4.9-32.8-6.4-33.7-.5-.3-1.1-.1-1.5.5m-582.9.9c-.4.5-.2 1.2.3 1.5.5.4 1.2.2 1.5-.3.4-.5.2-1.2-.3-1.5-.5-.4-1.2-.2-1.5.3m12.9 20.1c-.4.6-.3 1.6.3 2.2s1.2.6 1.7-.2c.4-.6.3-1.6-.3-2.2s-1.2-.6-1.7.2m114.1-.1c-.4.5-.2 1.2.3 1.5.5.4 1.2.2 1.5-.3.4-.5.2-1.2-.3-1.5-.5-.4-1.2-.2-1.5.3m197.6 3.3c-.7.7-1.2 2-1.2 3 0 1.2-.8 1.8-2.5 1.8-2.9 0-5.5 3.7-3.1 4.6 1.5.6 13.4-2.4 14.1-3.6.2-.4-1-2.1-2.8-3.8-2.6-2.5-3.6-2.9-4.5-2m-329.8 4.1c-.7 2-.2 4.7 1.1 5 1.4.3 1.9-4.3.6-5.6-.7-.7-1.2-.6-1.7.6m109.8 1.9c-.5.7-1.2 2.4-1.4 3.8-.3 2.2-.8 2.5-5.1 2.8s-4.8.1-5.7-2.3c-1.2-3.2-3.4-4.1-6.6-2.6-2.3 1-2.5 1.5-1.9 5.4.5 4 .4 4.3-3.2 6.5l-3.6 2.3-3-2.1-2.9-2.2-2.4 2.3c-2.9 2.7-3 4.1-.6 6.1 1.8 1.5 7.8 1.8 10.1.3.9-.5 1.2-.4.7.3-1.4 2.4 1.3 1.9 5.5-.9 5.9-3.9 13.9-6.2 18.8-5.4 3.3.5 4.1.3 5.5-1.7.9-1.2 1.6-1.8 1.6-1.3s.5.4 1.2-.3 1.1-3.1.9-5.5c-.2-4.3-2.1-6.7-5.2-6.7-.9 0-2.1.6-2.7 1.2m459.7-.7c-.3.3-.4 8.5-.2 18.2.3 13.1.7 17.8 1.6 17.8s1.2-4.4 1.1-17.3c0-15.4-.7-20.5-2.5-18.7m-568.4 6.7c-.9 2.3-.2 8.3 1 8.3 1.4 0 1.9-7.5.6-8.8-.7-.7-1.2-.5-1.6.5m126.9 4c-.7 1-5.2 3.1-8 3.7-.4 0-.1.8.6 1.6s.9 1.5.5 1.5 1.3 2.3 3.9 5c7.6 8.1 10.8 17.9 8.8 26.8-.9 4-.8 4.4 1.1 5.2 1.3.4 2.7.4 3.4-.2s2.9-.7 4.8-.4c3.1.6 3.6.4 4.6-1.8 1.6-3.4.6-5.3-3-6.1-1.7-.4-3.1-1.2-3.1-1.8 0-.7-.3-2.9-.6-4.9-.6-3.5-.5-3.7 3-5.2 3.9-1.6 4.1-2.1 2.6-6.2-1-2.5-1.4-2.6-5.3-2.1-4 .5-4.3.3-6.5-3.1l-2.3-3.5 2.1-2.9c2-2.7 2.1-3.1.5-4.8-1.7-1.9-6.1-2.4-7.1-.8m26.2.7c-.4.5-.2 1.2.3 1.5.5.4 1.2.2 1.5-.3.4-.5.2-1.2-.3-1.5-.5-.4-1.2-.2-1.5.3m-99 1c-.4.5-.2 1.2.3 1.5.5.4 1.2.2 1.5-.3.4-.5.2-1.2-.3-1.5-.5-.4-1.2-.2-1.5.3m-4 3c-.4.5-.2 1.2.3 1.5.5.4 1.2.2 1.5-.3.4-.5.2-1.2-.3-1.5-.5-.4-1.2-.2-1.5.3m4.9 3c-.7 1.2 1.2 2.4 2.5 1.6 1.1-.7.4-2.5-1-2.5-.5 0-1.1.4-1.5.9m454.2.8c-.5.7-1 7.7-.8 9.7.1.5.8.3 1.6-.4 1.6-1.4 2.1-8.5.6-9.5-.5-.3-1.2-.2-1.4.2m15.8 1.2c-.7 1.2 1.2 2.4 2.5 1.6 1.1-.7.4-2.5-1-2.5-.5 0-1.1.4-1.5.9m-524 1.4c-.9 2.2-.2 6.2 1 6 .6-.1 1.1-1.4 1.3-2.9.4-3.2-1.4-5.6-2.3-3.1m99.2 3.1c-5.1 1.4-8.2 3.7-10.3 7.7-1.2 2.4-1.1 3 .8 5.4l2.1 2.7 2.5-3.2c6.3-8.1 16-7.1 20.7 2 1.8 3.5 2.6 3.7 5 1 2.2-2.4 1.5-5.7-2.1-10-4.5-5.3-11.6-7.4-18.7-5.6m431.8 3.9c-.9 2.2-.2 6.2 1 6 .6-.1 1.1-1.4 1.3-2.9.4-3.2-1.4-5.6-2.3-3.1m-1 8.9c-.9 2.3-.2 8.3 1 8.3 1.4 0 1.9-7.5.6-8.8-.7-.7-1.2-.5-1.6.5m-609.8.4c-.4.4.2 1.7 1.4 3 1.4 1.5 1.9 3.2 1.7 5.5-.2 2.8-1 3.7-4.1 5.3-3.7 1.7-3.7 1.9-2.1 3.7.9 1.1 1.8 1.8 2 1.7 4.5-5.1 7.4-9.5 7.4-11.4 0-2.6-5.1-9-6.3-7.8m99.8 1.3c-.7 1.3.2 6.6 1.7 9.4 1.6 3.2 2.6.8 1.6-4q-1.65-7.95-3.3-5.4m573.2 4.8c-1.1 1.9-1.8 16.1-.8 16.7 1.6 1 2.2-1 2.8-8.8.4-4.7.2-7.6-.5-8-.6-.3-1.3-.3-1.5.1m-89.2 5.3c-.4.6-.3 1.6.3 2.2s1.2.6 1.7-.2c.4-.6.3-1.6-.3-2.2s-1.2-.6-1.7.2m25.3-.3c-.8 1.4-.3 3.8.7 4.1 1.2.3 1.6-3.6.4-4.3-.4-.3-.9-.2-1.1.2m-524.2 1.2c-.4.6.1 3.9 1 7.3 2.2 8.1 3.3 10.3 4.6 9 .6-.6.2-3.5-1.2-8.3-2.3-7.9-3.4-9.7-4.4-8M680 544c-.6 3.2-.5 9.2.2 9.6.7.5 2.8-3.6 2.8-5.5 0-.9-2.9-4.8-3-4.1m113.4 4.4c-.4 1-.1 2.8.6 4.1.9 1.7 1 3.5.1 7.6-.7 3.2-.8 5.6-.2 6.2 1.3 1.3 2.7-1.8 3.4-7.1.3-2.4 1.3-5.2 2.2-6.2 1.1-1.2 1.3-2 .6-2.5-.6-.3-1.1-.3-1.1.1s-1.1-.3-2.5-1.6c-2.2-2.1-2.5-2.1-3.1-.6m-406 8.1c-.9 2.4-4.3 2.9-6.5.9-1.8-1.6-2.1-1.6-3.5-.2-1.2 1.2-1.3 2-.5 3.6 1.1 2.1-.5 4.2-4.1 5.5-2.2.8-2.3 2.6-.3 3.3 2.4.9 1.9 6.1-.6 6.7-1.7.5-1.9.9-.9 2.6.8 1.5 1.7 2 3.4 1.5 2.7-.6 4.7 1.4 4.4 4.6-.4 3.2 1.2 3.3 4.6.6l2.9-2.4-3.1-1.6c-7.9-4.1-8.1-14.6-.5-18.5 7-3.6 15.5 2.4 14.4 10.1 0 .4-.2 2-.3 3.7-.1 1.6-.5 2.8-.8 2.6-.4-.2-2.3.7-4.3 2.1-3.2 2.1-3.6 2.8-2.7 4.5 1.2 2.1 3 1.7 3-.5 0-.8 1.1-2.1 2.4-2.9 2-1.4 2.6-1.4 4.4-.1 2.7 1.9 4 0 1.8-2.5-2.1-2.3-.7-6.6 2.4-7.4 2.7-.7 2.1-3.1-.8-3.5-2.6-.4-3.7-3.4-2.1-6.1 1.8-2.7-.4-5.5-3.1-4.1-3.1 1.6-5 1.1-6-1.5-1.1-2.8-2.8-3.3-3.6-1m280.4 4.3c-3.5 4.1-5.9 9-4.7 9.8 1.3.8 3.1-1.2 6-6.8 2-3.9 1.2-5.9-1.3-3" class="icon-part"/><path fill="#d3a456" d="M383.2 568.2c-3 3 .1 8.8 4.7 8.8 3 0 4.8-4.1 3.3-7.5-1.3-2.7-5.8-3.5-8-1.3m433.3 4.8c-.4.6-.3 1.6.3 2.2s1.2.6 1.7-.2c.4-.6.3-1.6-.3-2.2s-1.2-.6-1.7.2m-95.9 1.9c-.4.5-.2 1.2.3 1.5.5.4 1.2.2 1.5-.3.4-.5.2-1.2-.3-1.5-.5-.4-1.2-.2-1.5.3m-473.1 2c-.3.6.1 2.2 1 3.5 1.5 2.3 1.5 2.7.1 4.8-.9 1.2-1.6 3.4-1.6 4.8 0 3.4 4.2 7.5 6.7 6.6 1.6-.7 1.5-1-.9-2.8-4.3-3.1-3.6-8.8 1.1-8.8 4.9 0 6.8 4.5 3.5 8.1-.9 1-1.3 2.3-.9 2.9 1.2 1.9 5.5-3 5.5-6.2 0-3.6-4-7.8-7.4-7.8-1.5 0-2.7-.7-3.1-1.9-.8-2.6-3.1-4.5-4-3.2m567.6 2.5c-.7.8-.8 1.7-.3 2 .6.3 1.5-.1 2.1-.8.7-.8.8-1.7.3-2-.6-.3-1.5.1-2.1.8m-97.2 0c-.1.3-.2.9-.3 1.3-.1.5-.7 1.8-1.4 3-.7 1.3-.8 2.4-.3 2.8.6.3 1.5-.4 2.1-1.5s.8-2 .4-2c-.3 0-.1-.6.5-1.4.8-1 .9-1.6.1-2.1-.5-.3-1.1-.4-1.1-.1M811 596c-.8 1.5-.9 2.5-.2 3.2s1.4.3 2.2-1.2.9-2.5.2-3.2-1.4-.3-2.2 1.2m-598.3 4.6c-.7 1.3 1.5 5.7 2.8 5.6 1.7-.1 1.6-1.8-.3-4.2-1-1.3-2.2-1.9-2.5-1.4m596.4 1.8c-.7.8-.8 1.7-.3 2 .6.3 1.5-.1 2.1-.8.7-.8.8-1.7.3-2-.6-.3-1.5.1-2.1.8M515.9 616c-1 2.7-1.5 3-5.3 3-3.6 0-4.5-.4-5.4-2.5-1.2-2.5-1.3-2.5-4.3-1-3 1.6-3.2 2.3-1.5 6.5.3.9-.6 2.9-2.3 4.9-2.3 2.9-3.1 3.2-4.8 2.3-2.4-1.3-4.3.1-4.3 3.4 0 1.6 1.2 2.8 4 4.3l4.1 2.1 1.4-3.2c4.5-10.8 14.4-14.8 23.6-9.6 3.2 1.7 4.2 1.9 5.2.9.9-1 .6-1.7-1.5-3.6-2.3-2-2.7-2.9-2.2-5.4.6-2.7.3-3.2-2-4.1-3.7-1.4-3.6-1.4-4.7 2m261.3 3.2c-2.2 4.9-1.8 6.7.8 4.3 2.1-1.9 4.2-7 3.3-7.9-1.3-1.3-2.3-.4-4.1 3.6m23 8.1c-1.8 2.2-4.1 8.6-3.3 9.2 1.1.6 4-2.7 4.4-5.1.1-1 .6-2.4 1-3.1 1-1.6-.8-2.6-2.1-1" class="icon-part"/><path fill="#d3a456" d="M506.6 632.1c-2.1 1.7-2.6 2.7-2.3 5.5.4 3.9 1.9 5.1 2.2 1.7.2-3.3 3.4-6.3 6.5-6.3s4.8 1.6 5.9 5.7c1 3.8 2.5 3.5 2.9-.4.7-7-9.1-11-15.2-6.2m-75.2 7.3c-.3.8-.4 2.9-.2 4.8l.3 3.3 5.1-.3c4.9-.4 12.3 2.1 13.8 4.7.8 1.2 5.3.2 6.7-1.6 1.8-2.1-1.7-6.2-8.1-9.6-6-3.1-16.6-3.9-17.6-1.3m-197.8 1.5c-.4.5.8 3.2 2.5 6 2.5 4 3.5 4.9 4.5 4 1.1-.9.8-1.9-1.6-5.5-3.4-4.8-4.6-5.9-5.4-4.5m531 4c-.4.5-.2 1.2.3 1.5.5.4 1.2.2 1.5-.3.4-.5.2-1.2-.3-1.5-.5-.4-1.2-.2-1.5.3m-2.6 4c-.6 1.2-.6 2.2-.1 2.6.6.3 1.5-.3 2.1-1.4.6-1.2.6-2.2.1-2.6-.6-.3-1.5.3-2.1 1.4M318.5 651c-.4.6-.3 1.6.3 2.2s1.2.6 1.7-.2c.4-.6.3-1.6-.3-2.2s-1.2-.6-1.7.2m438.2 6.4c-1.4 2-1.4 2.6-.3 3.5 1 .9 1.7.6 2.9-1.3 1.4-2 1.4-2.6.3-3.5-1-.9-1.7-.6-2.9 1.3m-576.6 1.2c-2.3 2.9-2.6 4-1.3 4.8 1 .6 6.3-5.9 5.5-6.8-1.1-1.1-2.1-.6-4.2 2m6.4-1.7c-.7 1.3 3.2 3.4 4.7 2.5.7-.5.5-1.1-.7-2.1-2.2-1.5-3.2-1.6-4-.4m595.5 5.8c-1.8 3.2-5 8.4-7.1 11.5-2.7 3.9-3.5 5.9-2.7 6.4.6.4 1.9-.3 3-1.5 3.3-4.1 10.9-16.8 11.3-19 .8-4.2-1.4-2.9-4.5 2.6m-591.9 1.7c-.7.8-1 2-.6 2.5.3.6 0 .8-.8.5-2.4-.9-3 1.4-.7 2.6 2.2 1.2 4.4.5 3.4-1.1-.3-.5 0-1.7.7-2.5.8-1 .9-1.8.2-2.5s-1.4-.5-2.2.5M253 666c-.7 3.1-.5 4.1 1.1 5.6 3.1 2.8 4.2.3 1.4-3.1-1.3-1.7-2.5-2.8-2.5-2.5m473.8 1.5c-.3.4.8 3.7 2.5 7.3 2.8 6 3.2 7.7 3.2 15.7s-.3 9.7-3.2 15.7c-8.6 18.2-23.6 26.4-50.3 27.5-21.2.9-38.5-3-63.4-14.3-6.5-3-12.7-5.4-13.7-5.4s-3 1-4.5 2.3l-2.7 2.3 4.4 3.8c11 9.4 31 20.3 45.9 25.1 4.7 1.4 13.5 3.4 19.7 4.3 38.2 5.6 71.5-13.8 76.4-44.6 2.1-13-1.7-27-9.9-36.2-2-2.3-4-3.9-4.4-3.5m36.1 23.1c-.1.5-.1 1.2 0 1.6 0 .5-.2.7-.7.5-1.4-.4-8.4 8.2-7.8 9.8 1 2.8 3.2 1.5 7.4-4.4 3.5-5.1 3.9-6.1 2.7-7.1-.8-.7-1.6-.9-1.6-.4m-546.4 20.6c-.3.8-.5 5.3-.3 9.9.2 6.4.6 8.4 1.7 8.4s1.4-1.9 1.2-9c-.2-8.6-1.3-12.6-2.6-9.3m179 8.7c-.8 1.4 2.8 9.5 6.1 13.4 3.2 3.8 10.6 9.7 11.4 9.2.4-.2-.6-3-2.1-6.2-1.6-3.2-3.2-8.3-3.7-11.3l-.7-5.5-5.2-.3c-2.8-.2-5.4.2-5.8.7m162.1 4c-.4.5-1.3.8-2.2.4-.8-.3-2.3.2-3.4 1.2-1.9 1.7-1.9 1.8.1 4.6 1.9 2.7 2.1 2.8 4.3 1.3 2.1-1.3 2.4-1.3 2.9 0 .4.9.1 1.8-.4 2.2-.7.4-.3 1.4.9 2.8 2.4 2.7 3.6 4.7 2.5 4.4-.4-.2-.9.1-1 .7-.4 1.4 10.6 14.5 12.1 14.5s8.4-4.8 10.7-7.6c1.6-1.8 1.3-2.3-6.6-10.7-7.7-8.2-8.4-8.8-10.4-7.6-1.8 1.2-2.2 1.1-3.4-.5-.9-1.3-2.1-1.7-3.5-1.4-1.8.5-1.9.3-.9-1.3.8-1.4.9-2.1 0-3-.7-.7-1.3-.7-1.7 0m-249 9c-.9 1.3 5.9 6.3 9 6.7 2.7.3 12.8-2.9 15-4.7 3.1-2.6-.1-2.5-7 .1-6.2 2.3-7.8 2.5-9.3 1.5-5.7-3.8-7.2-4.5-7.7-3.6m-70.9 6.7c-1.2 1.2 1.4 3.4 4.2 3.4 1.8 0 3.9 1.2 6.1 3.5 2.3 2.4 3.7 3.2 4.4 2.5 1.6-1.6-6.2-8.7-10.4-9.5-1.9-.3-3.9-.3-4.3.1m284.9 12.3c-1 1.1-1.3 2.2-.8 2.5s1.7-.3 2.6-1.3c1-1.1 1.3-2.2.8-2.5s-1.7.3-2.6 1.3m6-1.1c-.3.6.1 1.5.8 2.1.8.7 1.7.8 2 .3.3-.6-.1-1.5-.8-2.1-.8-.7-1.7-.8-2-.3m-7 6.1c-.4.5-.2 1.2.3 1.5.5.4 1.2.2 1.5-.3.4-.5.2-1.2-.3-1.5-.5-.4-1.2-.2-1.5.3M287.5 778c-.5.9.3 2.2 2.6 4.1 3.9 3.2 5.6 2.9 3.3-.7-.9-1.3-1.9-2.2-2.2-1.9-.3.2-1-.3-1.7-1.2-.9-1.3-1.4-1.3-2-.3m15.2 9.6c-1.1 1.1.6 3.5 3.4 4.9 2 1.1 3 1.2 3.5.3.9-1.5-5.6-6.4-6.9-5.2m8.9 5.3c-.4.5-.2 1.2.3 1.5.5.4 1.2.2 1.5-.3.4-.5.2-1.2-.3-1.5-.5-.4-1.2-.2-1.5.3m236.1 2.7c-.3.4.4 1.9 1.5 3.5 1.7 2.3 1.9 3.1.9 4.3-.7.8-2.1 1.6-3.2 1.8-2.5.4-2.8 2.2-.6 2.6.9.2 3-.9 4.5-2.5 1.6-1.5 4.1-3.3 5.7-3.8 3.7-1.3 3.6-3.1-.2-2.7-1.9.2-3.5-.4-4.8-1.7-1.9-2.2-2.8-2.5-3.8-1.5m14.9 29.3c-.3.5-1.5.7-2.6.4s-2.8-.2-3.7.2c-1 .5-2.5.7-3.5.6-.9-.1-1.9.2-2.2.8-.9 1.4 1.2 2.4 3.2 1.5.9-.4 2.7-.6 3.9-.5 1.3.1 2.8-.1 3.5-.5.7-.5 2.1-.8 3-.9 1 0 1.8-.5 1.8-1 .1-1.3-2.7-1.9-3.4-.6M514.5 847c-.3.5 0 1.3.9 1.6 2.1.8 6.1.1 6.1-1.1 0-1.4-6.2-1.9-7-.5" class="icon-part"/></svg>