<?xml version="1.0" standalone="no"?>
<!DOCTYPE svg PUBLIC "-//W3C//DTD SVG 20010904//EN"
 "http://www.w3.org/TR/2001/REC-SVG-20010904/DTD/svg10.dtd">
<svg version="1.0" xmlns="http://www.w3.org/2000/svg"
 width="1536.000000pt" height="2752.000000pt" viewBox="0 0 1536.000000 2752.000000"
 preserveAspectRatio="xMidYMid meet">
<metadata>
Created by potrace 1.16, written by Peter Selinger 2001-2019
</metadata>
<g transform="translate(0.000000,2752.000000) scale(0.100000,-0.100000)"
fill="#000000" stroke="none">
<path d="M6113 19529 c-7 -7 -13 -25 -13 -41 0 -37 42 -58 114 -58 105 0 137
36 73 84 -34 25 -154 36 -174 15z"/>
<path d="M6607 19383 c-15 -15 -3 -25 86 -69 304 -153 466 -314 697 -698 53
-89 103 -161 111 -161 21 0 15 82 -11 152 -108 289 -362 578 -625 710 -104 53
-238 87 -258 66z"/>
<path d="M5710 19050 c-416 -46 -882 -283 -1162 -592 -127 -141 -166 -199
-231 -349 -49 -113 -19 -142 43 -42 86 137 249 321 390 438 229 190 566 354
845 410 468 93 945 -37 1284 -351 167 -155 286 -368 411 -738 44 -132 85 -245
91 -253 9 -10 15 -10 25 -2 36 29 4 262 -62 458 -178 528 -591 889 -1143 1001
-121 25 -359 34 -491 20z"/>
<path d="M11859 18655 c-64 -35 -95 -200 -85 -450 10 -253 30 -331 80 -312 42
16 137 303 155 470 11 97 3 205 -17 244 -28 51 -88 73 -133 48z m72 -129 c12
-63 -17 -272 -49 -356 -9 -24 -10 -24 -17 14 -4 22 -5 98 -2 170 5 114 13 166
33 225 8 24 25 -3 35 -53z"/>
<path d="M12642 18619 c-70 -40 -208 -179 -303 -304 -160 -212 -301 -463 -303
-540 -2 -71 25 -60 166 67 69 62 178 158 243 213 240 205 394 395 395 487 0
64 -46 108 -112 108 -18 0 -57 -14 -86 -31z m112 -87 c-2 -44 -52 -111 -183
-246 -108 -110 -319 -291 -329 -282 -6 7 142 218 230 328 84 103 146 164 218
210 52 33 65 32 64 -10z"/>
<path d="M10201 18489 c-75 -14 -142 -39 -236 -87 -124 -63 -245 -183 -300
-295 -28 -57 -35 -81 -27 -89 15 -15 37 4 62 51 27 54 124 156 194 205 79 56
174 101 256 123 80 20 263 23 340 4 152 -37 289 -143 365 -283 47 -87 65 -175
65 -324 0 -103 3 -125 18 -144 24 -30 36 -21 61 46 16 42 21 78 21 155 0 125
-10 169 -67 289 -81 169 -233 293 -419 340 -83 21 -248 26 -333 9z"/>
<path d="M5375 18161 c-222 -54 -545 -374 -767 -761 -231 -403 -358 -783 -444
-1330 -26 -164 -27 -566 -1 -698 67 -344 158 -537 337 -712 219 -215 504 -282
788 -186 143 49 265 132 412 280 46 47 90 86 97 86 6 0 54 -35 105 -78 139
-117 501 -387 653 -489 87 -58 294 -188 365 -230 86 -51 349 -166 497 -216
413 -142 801 -203 1143 -178 344 26 569 80 800 195 324 161 586 437 607 638 4
44 2 56 -15 71 -35 31 -69 12 -177 -101 -321 -334 -719 -500 -1265 -528 -494
-24 -1121 156 -1649 474 -347 208 -929 620 -914 645 3 7 36 55 71 107 215 315
395 700 521 1115 99 327 151 652 151 938 0 269 -34 446 -120 624 -109 223
-291 344 -519 343 -206 -1 -394 -93 -575 -280 -142 -147 -248 -332 -326 -569
-36 -109 -43 -136 -69 -253 -18 -78 -31 -284 -25 -376 14 -199 79 -372 179
-481 31 -33 75 -69 99 -80 50 -25 128 -28 146 -6 13 16 12 18 -47 98 -55 76
-98 208 -113 352 -21 193 13 429 97 680 41 120 175 379 247 475 241 322 462
380 655 174 96 -102 146 -216 182 -409 113 -618 -128 -1491 -618 -2240 -47
-71 -86 -131 -88 -133 -1 -1 -33 16 -71 39 -159 97 -342 159 -469 159 -126 0
-249 -46 -299 -113 l-20 -27 22 -22 c20 -21 25 -21 64 -10 159 46 250 38 401
-35 98 -48 227 -137 227 -157 0 -18 -153 -164 -230 -221 -127 -93 -239 -135
-354 -134 -83 0 -135 18 -209 72 -148 109 -264 340 -324 642 -22 112 -25 547
-5 690 41 289 96 534 179 789 36 114 146 380 204 496 163 329 361 595 550 741
43 34 79 66 79 71 0 52 -79 80 -165 59z"/>
<path d="M8365 18026 c-69 -31 -97 -95 -76 -173 17 -62 40 -84 91 -89 120 -12
209 131 145 230 -29 45 -100 59 -160 32z m75 -85 c0 -10 -7 -24 -15 -31 -21
-17 -39 1 -30 29 8 27 45 28 45 2z"/>
<path d="M12655 17855 c-78 -21 -180 -61 -255 -101 -89 -47 -190 -137 -190
-170 0 -33 21 -39 76 -20 42 14 89 22 349 57 234 32 342 89 319 171 -19 70
-163 100 -299 63z m195 -84 c0 -17 -259 -72 -330 -70 -23 1 -22 2 10 16 75 35
187 62 253 62 37 1 67 -3 67 -8z"/>
<path d="M10210 17749 c-14 -6 -36 -20 -49 -32 -40 -38 -281 -542 -281 -589 0
-22 33 -48 61 -48 38 1 64 20 140 105 183 205 320 394 334 461 15 76 -112 140
-205 103z"/>
<path d="M8844 17169 c-66 -19 -122 -117 -108 -188 8 -40 63 -88 109 -97 139
-26 245 97 185 215 -33 66 -106 93 -186 70z"/>
<path d="M3457 17119 c-50 -41 -79 -101 -81 -164 -1 -76 12 -122 45 -160 78
-89 207 -59 264 61 23 49 27 67 23 124 -3 55 -9 74 -31 104 -36 47 -75 66
-134 66 -39 0 -56 -6 -86 -31z"/>
<path d="M11560 16783 c-66 -31 -198 -160 -285 -278 -70 -94 -213 -320 -282
-446 -26 -49 -51 -89 -54 -89 -3 0 5 71 18 158 18 120 23 190 21 297 -3 128
-5 144 -28 185 -46 82 -132 113 -202 73 -30 -18 -96 -114 -163 -238 -20 -38
-41 -74 -45 -80 -4 -5 -47 -86 -95 -180 -215 -416 -378 -675 -519 -823 -92
-97 -214 -165 -256 -142 -35 19 -79 90 -103 164 -19 63 -22 91 -21 236 1 91 6
178 11 193 7 23 23 34 88 61 117 48 154 69 244 137 207 155 311 383 261 569
-15 56 -82 122 -145 143 -221 76 -496 -109 -654 -438 -82 -171 -124 -308 -141
-458 -8 -65 -17 -94 -56 -165 -139 -256 -300 -477 -364 -497 -50 -16 -70 50
-70 227 1 146 34 404 71 542 28 106 89 434 95 516 6 73 5 76 -25 111 -17 20
-43 39 -59 42 -120 24 -191 -92 -332 -543 -56 -181 -120 -329 -261 -610 -126
-251 -234 -427 -289 -473 -29 -25 -35 -26 -48 -14 -42 42 -54 260 -27 492 27
232 59 394 141 720 31 123 58 254 61 298 6 75 5 79 -22 107 -24 25 -37 30 -75
30 -92 0 -137 -62 -280 -390 -161 -368 -356 -726 -498 -913 -73 -97 -109 -128
-123 -106 -15 24 -9 189 11 319 18 115 72 390 135 685 14 66 26 160 28 208 2
88 2 89 -31 118 -57 51 -136 34 -192 -42 -49 -68 -164 -376 -209 -559 -104
-428 -93 -678 35 -820 50 -55 110 -81 189 -81 75 -1 126 22 197 88 58 55 176
230 248 368 29 55 55 103 59 107 3 4 6 -84 6 -195 0 -223 11 -286 67 -402 57
-118 155 -185 271 -185 72 0 142 34 194 93 53 60 143 216 237 406 l90 184 17
-101 c39 -235 164 -372 338 -372 140 0 262 108 414 368 l54 92 17 -62 c48
-173 207 -321 371 -347 216 -33 397 90 612 414 84 126 235 400 403 730 58 114
80 150 77 125 -2 -19 -34 -163 -70 -320 -87 -376 -137 -664 -137 -797 0 -119
186 -188 268 -100 11 12 30 54 42 92 89 280 256 667 380 880 29 50 58 99 64
111 80 146 291 405 358 440 28 14 28 14 28 -15 0 -54 -30 -188 -99 -443 -109
-401 -132 -530 -132 -756 0 -265 47 -431 164 -572 97 -116 200 -164 357 -164
116 -1 170 16 287 85 72 44 213 184 285 285 69 97 176 292 218 397 111 280 92
487 -45 487 -40 0 -65 -43 -65 -112 0 -254 -179 -659 -378 -855 -106 -103
-234 -170 -303 -156 -76 15 -152 145 -176 301 -30 194 5 533 93 889 71 290 91
501 59 620 -21 75 -67 135 -123 159 -55 23 -138 17 -202 -13z m-1596 -216 c24
-18 35 -92 25 -160 -18 -112 -109 -243 -238 -341 -54 -42 -142 -96 -154 -96
-19 0 80 275 136 380 67 125 157 230 198 230 8 0 23 -6 33 -13z"/>
<path d="M12792 16520 c-41 -17 -18 -34 71 -51 192 -38 307 -147 378 -359 27
-81 32 -114 37 -225 7 -192 -10 -301 -79 -509 -64 -191 -173 -357 -390 -597
-102 -113 -117 -136 -93 -146 52 -20 214 118 355 302 216 281 337 721 288
1048 -44 297 -243 524 -474 542 -39 3 -81 1 -93 -5z"/>
<path d="M2543 16461 c-61 -28 -103 -97 -103 -168 0 -45 5 -58 32 -88 26 -30
36 -35 57 -30 39 10 44 19 28 56 -12 29 -12 38 1 65 18 40 60 65 89 53 12 -4
33 -28 48 -53 37 -63 48 -70 70 -46 37 41 -4 163 -70 206 -39 26 -103 28 -152
5z"/>
<path d="M3496 16409 l-28 -22 7 -101 c17 -249 -67 -484 -294 -821 -474 -702
-515 -776 -566 -1023 -21 -98 -21 -265 -1 -362 59 -280 291 -481 576 -497 249
-14 511 131 649 361 79 131 123 345 88 428 -19 45 -58 72 -92 64 -32 -8 -39
-23 -64 -141 -28 -130 -64 -225 -116 -305 -104 -159 -244 -250 -387 -250 -79
0 -136 27 -205 96 -93 92 -129 207 -120 380 11 238 67 367 389 899 260 428
339 621 362 871 13 144 -34 340 -96 400 -45 44 -69 49 -102 23z"/>
<path d="M13632 15568 c-43 -48 -35 -109 18 -138 17 -9 25 -6 50 19 23 23 30
39 30 69 0 67 -55 95 -98 50z"/>
<path d="M13477 15058 c-13 -24 -41 -74 -62 -113 -59 -112 -141 -219 -272
-357 -68 -70 -123 -135 -123 -143 0 -46 68 -17 184 75 176 142 311 334 347
493 14 66 8 87 -25 87 -19 0 -31 -10 -49 -42z"/>
<path d="M2173 14955 c-32 -22 -90 -116 -122 -197 -149 -371 -111 -782 102
-1101 111 -166 279 -317 446 -401 119 -61 368 -119 410 -97 11 7 21 16 21 21
0 15 -66 45 -162 74 -320 97 -536 272 -673 546 -95 191 -131 353 -121 560 6
154 24 237 90 425 58 162 60 206 9 170z"/>
<path d="M11410 14129 c-148 -17 -284 -80 -394 -181 -159 -145 -243 -330 -234
-518 3 -86 18 -113 68 -125 44 -10 60 13 81 116 45 218 140 375 289 474 175
117 343 115 473 -4 92 -85 129 -234 103 -410 -36 -236 -126 -422 -396 -811
-239 -345 -345 -524 -418 -710 -95 -240 -106 -566 -24 -730 43 -86 109 -118
153 -73 17 16 19 38 23 173 4 163 15 224 71 385 57 166 159 342 332 577 488
657 593 869 593 1195 0 202 -52 337 -179 464 -143 144 -325 203 -541 178z"/>
<path d="M1645 13960 c-15 -16 -16 -27 -6 -92 22 -142 69 -262 159 -403 65
-103 229 -259 333 -317 91 -51 191 -80 211 -60 17 17 -13 45 -105 100 -254
151 -434 397 -522 714 -18 67 -43 88 -70 58z"/>
<path d="M5385 13827 c-68 -71 -135 -179 -178 -287 -96 -242 -102 -560 -15
-837 35 -112 98 -244 134 -280 20 -20 28 -22 39 -13 18 15 16 23 -37 195 -68
221 -88 325 -95 487 -12 294 55 520 218 744 36 49 39 64 15 64 -6 0 -42 -33
-81 -73z"/>
<path d="M6230 13867 c-114 -34 -176 -73 -272 -168 -72 -72 -93 -101 -131
-180 -65 -133 -88 -235 -88 -379 0 -229 62 -422 290 -903 109 -230 196 -446
185 -457 -5 -5 -81 -50 -168 -100 -495 -285 -791 -552 -963 -870 -120 -222
-136 -513 -40 -715 123 -256 357 -365 694 -321 137 18 226 46 350 110 290 150
499 402 609 734 103 312 85 650 -57 1080 -23 69 -37 127 -33 132 11 10 550
281 617 309 26 11 47 16 47 10 0 -5 -9 -28 -21 -51 -36 -71 -88 -214 -116
-320 -25 -94 -28 -119 -28 -288 0 -166 2 -193 23 -260 29 -93 68 -156 138
-219 70 -64 144 -93 249 -99 110 -5 174 19 260 100 152 142 303 459 390 818
l28 116 81 24 c96 28 193 77 252 125 23 19 44 35 47 35 2 0 -2 -24 -10 -52 -8
-29 -28 -115 -44 -190 -77 -373 -48 -589 96 -716 78 -69 206 -87 295 -42 115
59 216 200 425 595 l37 70 -6 -50 c-4 -27 -18 -156 -32 -285 -44 -410 -54
-484 -66 -496 -7 -6 -101 -85 -208 -174 -437 -366 -666 -599 -837 -855 -224
-336 -317 -620 -297 -915 11 -174 47 -268 136 -361 71 -74 156 -111 272 -117
144 -7 250 23 383 110 326 212 609 738 757 1408 44 200 130 742 151 952 4 37
12 74 19 81 6 8 65 62 131 120 444 391 699 728 776 1027 28 109 31 259 5 308
-19 36 -69 72 -102 72 -26 0 -56 -32 -49 -53 4 -8 1 -59 -5 -113 -12 -112 -67
-288 -129 -417 -57 -118 -184 -305 -293 -432 -100 -115 -328 -335 -328 -315 0
6 4 64 10 128 5 64 17 214 26 332 14 198 50 548 74 730 15 121 13 148 -15 175
-18 19 -35 25 -69 25 -82 0 -114 -45 -187 -258 -99 -288 -145 -394 -276 -637
-159 -296 -323 -515 -385 -515 -56 0 -29 292 75 825 35 179 41 230 41 342 1
131 1 133 -26 160 -21 21 -38 28 -68 28 -57 0 -88 -29 -141 -129 -59 -112
-140 -210 -242 -293 -75 -60 -205 -133 -240 -133 -11 0 -13 30 -13 158 1 216
-31 329 -117 415 -59 59 -117 81 -212 81 -73 1 -86 -2 -145 -35 -83 -46 -133
-109 -162 -206 -16 -52 -27 -73 -38 -73 -9 0 -79 -31 -156 -69 -76 -38 -163
-79 -191 -90 -69 -27 -615 -290 -628 -302 -12 -12 -25 -12 -25 1 0 5 -11 33
-24 62 -13 29 -40 89 -59 133 -20 44 -79 166 -131 272 -216 435 -274 619 -264
828 8 157 87 341 180 420 84 71 201 86 296 39 141 -70 253 -298 239 -489 -3
-39 -13 -107 -23 -152 -19 -91 -15 -113 19 -113 55 0 122 96 146 208 28 134 5
325 -56 449 -107 220 -384 334 -633 260z m1750 -1296 c55 -58 80 -140 87 -286
6 -119 -8 -235 -27 -235 -5 0 -33 9 -62 21 -67 26 -141 97 -176 169 -22 47
-26 68 -27 145 0 81 3 95 27 137 58 98 117 114 178 49z m-290 -491 c88 -89
197 -139 302 -140 20 0 39 -3 41 -7 7 -11 -56 -216 -104 -335 -74 -188 -173
-351 -269 -442 -86 -82 -124 -86 -160 -17 -55 108 -73 300 -45 475 22 143 77
369 117 480 27 76 33 87 42 70 6 -10 40 -48 76 -84z m-1406 -477 c116 -357
126 -720 26 -1013 -87 -254 -308 -514 -515 -605 -163 -73 -319 -72 -435 0 -54
34 -123 114 -152 175 -71 151 -63 365 19 554 95 219 339 480 660 705 109 77
353 229 370 230 6 1 18 -20 27 -46z m2930 -1059 c-95 -585 -210 -1017 -348
-1309 -135 -284 -276 -453 -441 -531 -103 -49 -191 -17 -265 97 -54 84 -71
145 -77 280 -8 173 18 291 109 493 116 259 234 423 496 690 144 145 550 511
559 502 2 -1 -13 -101 -33 -222z"/>
<path d="M12485 13820 c-3 -5 12 -47 34 -92 62 -131 76 -198 75 -378 0 -130
-4 -170 -23 -245 -54 -207 -178 -407 -431 -695 -188 -214 -312 -399 -326 -490
-7 -41 4 -55 35 -45 11 3 63 65 118 138 54 73 152 197 218 277 292 354 367
472 440 695 84 255 68 534 -42 735 -49 92 -82 125 -98 100z"/>
<path d="M3865 12800 c-22 -10 -98 -28 -170 -40 -343 -56 -383 -66 -444 -110
-100 -73 -40 -170 105 -170 167 0 439 120 548 241 48 54 54 67 34 87 -15 15
-24 14 -73 -8z m-251 -161 c-80 -38 -211 -71 -271 -67 l-48 3 30 16 c36 20
280 76 335 77 8 0 -12 -13 -46 -29z"/>
<path d="M4090 12643 c-8 -3 -55 -45 -105 -92 -49 -48 -156 -146 -236 -218
-207 -187 -326 -323 -380 -438 -34 -70 -36 -118 -9 -162 60 -99 209 -19 397
213 133 163 314 471 370 628 12 36 12 42 -4 57 -10 9 -25 14 -33 12z m-216
-359 c-124 -205 -308 -438 -380 -480 -61 -36 -78 -33 -71 13 13 75 150 240
371 446 76 70 139 127 141 127 2 0 -25 -48 -61 -106z"/>
<path d="M4295 12468 c-25 -37 -74 -171 -102 -286 -36 -140 -40 -342 -9 -410
23 -50 64 -76 106 -67 35 8 53 28 82 90 21 46 23 64 23 240 0 339 -41 516
-100 433z m14 -427 c1 -114 -13 -220 -34 -247 -12 -17 -14 -14 -24 21 -6 22
-11 72 -11 111 0 72 32 272 47 296 12 19 21 -59 22 -181z"/>
<path d="M11674 11535 c-19 -29 -29 -93 -20 -128 3 -14 17 -32 30 -41 24 -15
27 -15 51 7 22 18 28 34 32 83 7 75 -6 104 -47 104 -20 0 -35 -8 -46 -25z"/>
<path d="M4590 11149 c-70 -75 -154 -210 -202 -324 -76 -179 -108 -336 -108
-523 0 -378 174 -732 475 -968 250 -195 520 -286 804 -271 164 9 342 58 387
108 16 18 16 21 1 36 -15 15 -25 15 -144 -8 -159 -30 -385 -32 -501 -6 -149
34 -342 127 -461 221 -258 203 -403 448 -446 756 -19 138 -19 180 0 323 26
198 87 367 217 599 33 59 40 80 31 89 -9 9 -21 1 -53 -32z"/>
<path d="M12694 11106 c-72 -33 -94 -65 -94 -137 0 -50 4 -63 28 -89 51 -58
158 -50 209 16 52 69 37 186 -28 219 -37 20 -54 18 -115 -9z"/>
<path d="M10978 10806 c-120 -53 -163 -225 -84 -329 41 -53 83 -77 139 -79
100 -2 158 74 165 219 4 75 2 86 -21 126 -41 69 -125 96 -199 63z"/>
<path d="M11747 10452 c-9 -9 -30 -68 -47 -131 -53 -197 -113 -311 -223 -422
-159 -161 -366 -223 -605 -179 -53 10 -76 10 -84 2 -51 -51 160 -121 322 -107
283 26 523 216 640 507 42 106 65 221 56 280 -8 56 -34 78 -59 50z"/>
<path d="M7366 10180 c-85 -26 -133 -133 -85 -194 28 -36 65 -35 87 4 21 37
35 39 26 5 -8 -32 19 -65 53 -65 50 0 81 67 70 152 -10 73 -81 119 -151 98z"/>
<path d="M9941 9931 c-15 -27 -34 -87 -86 -269 -94 -334 -152 -491 -252 -680
-111 -210 -229 -375 -375 -522 -195 -198 -361 -305 -671 -435 -57 -24 -42 -40
33 -37 79 3 229 53 342 115 309 169 585 464 780 838 156 298 278 699 278 913
0 86 -24 124 -49 77z"/>
<path d="M11850 9794 c-138 -180 -217 -252 -345 -314 -55 -27 -149 -65 -208
-84 -122 -39 -143 -51 -126 -72 17 -21 122 -17 215 6 177 46 361 164 473 305
59 74 141 222 141 254 0 19 -19 41 -35 41 -6 0 -58 -61 -115 -136z"/>
<path d="M6343 9489 c-18 -11 -42 -36 -54 -55 -19 -32 -20 -36 -6 -58 20 -31
58 -39 109 -25 81 21 125 101 80 142 -26 23 -90 21 -129 -4z"/>
<path d="M10167 9302 c-8 -9 -43 -97 -76 -195 -67 -195 -115 -298 -197 -425
-82 -126 -97 -157 -79 -172 53 -44 283 275 360 500 28 82 48 215 39 260 -9 42
-27 54 -47 32z"/>
</g>
</svg>
