<?xml version="1.0" standalone="no"?>
<!DOCTYPE svg PUBLIC "-//W3C//DTD SVG 20010904//EN"
 "http://www.w3.org/TR/2001/REC-SVG-20010904/DTD/svg10.dtd">
<svg version="1.0" xmlns="http://www.w3.org/2000/svg"
 width="2752.000000pt" height="1536.000000pt" viewBox="0 0 2752.000000 1536.000000"
 preserveAspectRatio="xMidYMid meet">
<metadata>
Created by potrace 1.16, written by Peter Selinger 2001-2019
</metadata>
<g transform="translate(0.000000,1536.000000) scale(0.100000,-0.100000)"
fill="#000000" stroke="none">
<path d="M15705 14623 c-53 -7 -216 -42 -350 -75 -120 -29 -143 -32 -295 -32
-154 0 -175 2 -325 36 -222 51 -271 58 -420 58 -192 0 -316 -23 -487 -91 -134
-53 -227 -111 -366 -228 -71 -60 -59 -68 64 -46 124 22 292 16 374 -13 47 -17
52 -20 30 -25 -14 -3 -113 -22 -220 -42 -609 -116 -986 -251 -1310 -468 -268
-180 -409 -337 -600 -671 -130 -227 -153 -265 -215 -351 -71 -99 -149 -197
-235 -295 -257 -293 -346 -432 -424 -660 -45 -133 -60 -262 -51 -430 11 -212
50 -372 184 -748 22 -62 46 -143 55 -180 17 -76 41 -304 56 -532 24 -357 72
-579 169 -768 l21 -41 -49 6 c-107 12 -177 -29 -224 -134 -48 -108 -60 -205
-54 -418 8 -271 24 -340 169 -725 140 -372 168 -500 192 -875 12 -172 19 -224
40 -290 47 -149 126 -254 230 -305 131 -66 244 -14 247 112 1 57 15 2 23 -87
21 -240 163 -1127 217 -1355 109 -464 280 -823 614 -1297 309 -438 585 -788
791 -1003 281 -293 535 -432 919 -506 145 -28 159 -29 450 -28 535 1 780 46
1072 195 191 98 343 229 554 479 59 69 110 124 115 123 5 -2 34 -12 64 -23 48
-17 82 -19 255 -20 463 -1 857 -35 1120 -95 61 -14 169 -37 240 -51 404 -78
560 -148 1030 -459 186 -124 412 -262 565 -348 148 -82 334 -134 635 -177 111
-16 268 -57 343 -91 93 -42 219 -128 291 -200 125 -125 255 -356 386 -689 89
-223 104 -255 116 -243 14 14 8 32 -91 273 -88 218 -183 411 -251 515 -74 112
-225 260 -324 319 -152 89 -235 113 -600 176 -201 35 -333 74 -448 131 -108
55 -350 201 -552 334 -571 375 -632 402 -1201 520 -449 93 -571 106 -1059 115
-394 7 -439 11 -485 43 -21 14 -19 17 66 118 106 125 257 296 388 439 53 58
131 149 174 204 42 54 91 115 109 135 l31 36 272 4 c159 2 276 -1 281 -6 5 -5
21 -56 34 -114 62 -254 116 -359 215 -409 72 -37 104 -36 169 4 33 20 63 36
69 36 5 0 15 -14 22 -30 54 -130 261 -130 392 1 78 78 155 259 179 421 30 205
-38 539 -146 721 -19 32 -35 60 -35 63 0 2 19 32 43 66 66 98 82 159 81 313
-1 109 -5 144 -27 215 -14 47 -24 86 -23 88 2 1 17 -3 35 -9 73 -26 211 15
288 84 l39 36 19 -35 c10 -20 41 -54 67 -76 58 -48 58 -51 18 -218 -52 -212
-147 -425 -297 -660 -51 -81 -62 -115 -36 -115 22 0 168 246 249 420 69 148
144 397 144 479 0 42 8 43 69 16 61 -28 204 -52 263 -44 54 7 57 3 32 -54 -10
-23 -18 -77 -21 -142 -6 -125 3 -169 78 -362 96 -249 143 -503 169 -913 33
-530 88 -827 211 -1137 113 -287 284 -505 464 -594 69 -34 90 -39 161 -43 125
-5 132 -2 468 188 90 51 205 101 231 101 16 0 -40 -82 -87 -126 -142 -137
-308 -204 -470 -190 -76 6 -104 -2 -80 -26 16 -16 209 -11 277 7 164 43 395
232 395 322 0 82 -129 44 -390 -113 -187 -114 -282 -144 -385 -125 -169 31
-356 212 -483 466 -160 323 -229 634 -267 1205 -32 487 -82 746 -200 1050 -70
179 -78 289 -30 446 15 50 16 51 84 78 168 66 330 217 294 275 -15 24 -75 25
-120 3 -83 -43 -161 -112 -215 -191 -52 -78 -54 -79 -104 -86 -63 -8 -166 8
-267 41 -60 20 -90 37 -133 77 -86 78 -86 83 -9 185 114 151 189 324 183 419
-3 41 -6 48 -26 51 -16 3 -33 -7 -56 -31 -66 -70 -188 -343 -202 -449 -6 -46
-13 -59 -53 -97 -82 -77 -186 -106 -289 -81 -47 11 -54 16 -81 66 -39 67 -156
192 -188 200 -17 5 -31 1 -45 -13 -18 -19 -19 -22 -4 -58 16 -37 85 -120 117
-140 9 -5 42 -25 74 -44 64 -38 74 -55 107 -185 17 -67 19 -101 15 -191 -3
-60 -13 -131 -21 -158 -15 -46 -81 -157 -94 -157 -4 0 -36 9 -72 21 -70 22
-121 20 -186 -7 -45 -19 -43 -49 5 -81 43 -29 114 -30 191 -4 64 23 61 25 114
-84 109 -224 153 -526 107 -720 -22 -87 -68 -205 -106 -271 -72 -124 -239
-191 -332 -134 -43 26 -63 68 -113 240 -24 80 -79 240 -123 355 -129 340 -205
561 -226 658 -25 113 -51 430 -51 609 0 173 29 560 51 692 20 118 92 211 220
287 96 57 300 133 579 214 345 101 879 279 1010 337 30 14 136 64 235 111 265
128 326 134 461 46 76 -50 136 -71 148 -51 9 15 -48 86 -89 112 -20 12 -34 24
-33 26 10 9 143 -31 213 -66 165 -79 244 -188 488 -670 200 -395 251 -488 492
-885 183 -302 240 -398 355 -600 290 -507 383 -649 980 -1485 108 -151 216
-304 240 -340 206 -307 314 -435 465 -557 66 -54 181 -158 255 -233 160 -159
193 -213 321 -521 121 -289 130 -311 207 -474 103 -217 153 -308 163 -298 6 6
-30 92 -87 214 -88 187 -182 401 -271 619 -86 211 -153 329 -242 425 -54 59
-215 205 -321 291 -130 107 -225 217 -375 434 -63 92 -310 440 -526 743 -192
270 -436 630 -533 787 -118 192 -246 408 -246 414 0 7 -177 309 -285 486 -282
465 -361 604 -532 945 -219 436 -274 528 -378 630 -103 103 -256 171 -407 182
l-77 6 -73 81 c-40 44 -111 121 -158 171 -47 50 -152 171 -234 270 -102 123
-243 274 -446 475 -313 311 -372 377 -543 610 -59 80 -131 177 -161 215 l-54
70 33 155 c18 85 44 200 58 255 69 269 81 357 81 575 0 167 -4 228 -22 328
-86 481 -270 812 -612 1101 -63 53 -137 114 -165 134 -27 21 -88 67 -133 103
-46 35 -103 78 -127 95 -32 23 -49 46 -64 83 -25 64 -64 196 -60 200 2 2 22
13 45 24 215 109 334 412 280 718 -21 115 -52 214 -89 275 -59 98 -113 88
-175 -32 -37 -72 -85 -232 -108 -359 -23 -126 -29 -394 -11 -508 10 -66 11
-95 3 -100 -6 -3 -52 -8 -101 -10 l-90 -4 -76 79 c-150 157 -249 320 -409 668
-12 28 -52 118 -87 200 -159 367 -265 538 -442 716 -106 106 -222 202 -311
257 -19 12 -98 54 -175 93 -244 125 -504 195 -765 206 -142 5 -210 -2 -217
-24 -5 -15 60 -51 200 -112 119 -52 242 -118 307 -166 69 -50 163 -151 216
-231 82 -123 106 -187 230 -609 101 -347 225 -560 440 -764 78 -75 154 -139
226 -194 22 -17 22 -17 -42 -11 -36 3 -114 12 -175 19 -60 8 -173 17 -250 20
-357 16 -599 84 -880 250 -94 55 -131 81 -293 203 -382 290 -381 289 -517 370
-95 56 -305 162 -323 162 -5 0 -27 9 -50 20 -22 11 -110 38 -194 60 -393 101
-804 64 -1187 -108 -57 -26 -103 -51 -102 -57 1 -6 26 -9 59 -8 215 10 403 5
484 -11 259 -50 509 -183 687 -366 160 -164 292 -405 315 -576 16 -119 -46
-268 -159 -379 -124 -122 -266 -192 -472 -234 -150 -31 -303 -25 -528 21 -184
37 -303 82 -620 233 -266 127 -447 165 -624 132 -342 -65 -543 -353 -621 -887
-38 -260 -52 -606 -26 -613 5 -1 24 48 42 108 63 210 154 354 299 469 91 73
142 100 248 130 198 58 354 55 692 -12 l190 -37 -80 -6 c-139 -11 -215 -40
-299 -115 -91 -82 -144 -177 -191 -339 -51 -176 -52 -344 -6 -625 65 -392 55
-498 -93 -994 -73 -245 -98 -383 -135 -752 -37 -360 -82 -619 -102 -582 -4 7
-12 92 -18 188 -16 237 -19 255 -42 284 -27 34 -43 24 -24 -14 9 -17 15 -56
15 -95 0 -37 7 -121 16 -187 8 -65 13 -125 11 -131 -2 -7 -9 26 -16 73 -6 47
-21 132 -33 190 -15 79 -18 120 -13 165 25 192 -8 509 -71 689 -42 121 -71
160 -225 301 -47 43 -61 65 -96 150 -81 196 -109 349 -138 745 -24 337 -46
474 -100 630 -155 446 -183 560 -192 786 -7 159 5 266 44 389 36 116 124 289
188 370 30 39 69 88 86 110 17 22 57 72 89 110 195 232 251 304 335 430 51 77
130 205 176 285 157 276 274 422 454 564 84 66 198 146 210 146 2 0 34 18 70
40 148 91 337 168 594 245 238 70 602 150 783 171 146 17 70 86 -136 123 -80
15 -157 13 -236 -3 -36 -8 -66 -13 -68 -12 -1 2 35 30 80 64 211 157 453 235
728 235 141 -1 235 -14 475 -69 100 -23 144 -27 265 -28 149 -1 198 6 411 60
287 72 521 77 798 19 157 -33 285 -80 430 -156 170 -89 234 -137 511 -383 68
-60 105 -86 116 -82 11 4 14 12 9 24 -21 51 -44 121 -50 154 l-7 38 73 -34
c267 -121 387 -200 493 -320 120 -137 178 -233 300 -498 58 -127 128 -198 285
-286 248 -141 381 -271 504 -492 157 -285 346 -935 407 -1405 28 -219 35 -405
21 -549 -23 -235 -122 -655 -265 -1121 -21 -66 -53 -195 -72 -288 -19 -92 -41
-188 -49 -213 -7 -24 -10 -46 -5 -49 21 -13 43 48 86 235 25 112 68 277 95
367 163 548 234 868 249 1133 31 561 -227 1607 -497 2013 -73 109 -221 253
-340 330 -57 37 -105 67 -108 67 -3 0 -35 20 -72 43 -102 66 -172 147 -218
253 -117 275 -234 446 -399 583 -96 80 -161 120 -316 194 -129 61 -185 81
-200 72 -16 -10 -12 -60 9 -120 11 -30 17 -55 14 -55 -3 0 -50 43 -105 95
-305 290 -630 454 -1009 509 -97 15 -361 20 -444 9z m-75 -543 c167 -34 257
-62 427 -133 304 -128 576 -351 748 -612 76 -117 122 -206 230 -451 157 -357
203 -453 276 -575 155 -264 310 -426 596 -625 34 -23 48 -44 74 -104 17 -41
67 -142 110 -225 94 -177 150 -318 192 -475 28 -108 30 -126 31 -310 0 -107
-3 -271 -8 -365 -14 -294 14 -379 240 -718 124 -184 204 -329 249 -447 l17
-45 -27 25 c-50 46 -161 194 -287 380 -149 221 -214 331 -308 521 -80 162 -83
167 -113 171 -15 2 -21 9 -19 21 6 37 -231 525 -285 586 -33 38 -44 44 -88 48
-176 16 -271 -36 -346 -193 -51 -108 -63 -173 -63 -339 1 -330 120 -671 379
-1084 40 -64 133 -237 207 -386 75 -148 180 -344 235 -435 146 -242 210 -356
302 -539 93 -185 180 -341 254 -451 74 -109 185 -260 219 -296 l29 -30 -113
-13 c-128 -15 -297 -44 -378 -66 -30 -8 -55 -13 -57 -12 -1 2 7 57 19 122 28
162 31 494 4 635 -34 181 -114 340 -247 486 -40 43 -106 122 -148 174 -121
152 -245 270 -326 308 -94 45 -164 51 -280 22 -134 -33 -133 -33 -1015 -321
-309 -101 -412 -160 -476 -275 -24 -44 -33 -69 -26 -76 6 -6 22 10 46 50 20
33 53 75 74 93 51 45 170 98 342 154 80 26 307 101 505 166 519 170 622 197
719 184 108 -15 215 -95 366 -275 52 -62 136 -161 186 -220 141 -166 196 -269
235 -439 26 -112 36 -368 20 -522 -15 -150 -32 -262 -41 -272 -4 -5 -46 -17
-92 -27 -186 -40 -315 -109 -384 -202 -99 -134 -118 -264 -116 -763 3 -477 12
-595 69 -899 25 -129 26 -144 14 -215 -18 -105 -117 -401 -186 -553 -31 -70
-85 -173 -119 -229 l-63 -103 -89 -20 c-49 -12 -93 -24 -99 -27 -5 -4 -28 -12
-50 -19 -87 -27 -245 -128 -354 -224 -96 -86 -169 -178 -220 -280 -68 -136
-77 -245 -25 -341 13 -25 24 -50 24 -55 0 -19 -158 -199 -289 -331 -144 -143
-235 -211 -378 -280 -242 -116 -431 -155 -873 -179 -629 -35 -1056 103 -1439
466 -280 265 -958 1174 -1159 1554 -173 329 -264 605 -346 1055 -32 173 -105
613 -126 760 -18 121 -59 513 -65 620 -17 309 -28 398 -82 669 l-35 179 25 21
c53 45 89 243 142 777 25 263 55 404 146 694 64 203 85 293 99 429 14 126 10
193 -30 476 -40 283 -44 340 -30 454 24 202 99 386 195 479 74 72 189 117 301
117 57 0 207 -32 229 -49 55 -43 338 -116 513 -132 422 -39 839 59 1240 289
158 91 291 193 548 422 140 125 235 206 274 233 122 85 202 133 300 180 139
68 237 101 389 133 228 49 690 40 769 -14 42 -29 179 -87 272 -117 57 -18 117
-28 182 -32 107 -6 128 1 128 43 0 28 -26 47 -104 74 -59 20 -343 74 -456 86
-75 8 -117 34 -298 190 -128 110 -163 146 -234 244 -140 192 -204 338 -304
690 -103 362 -169 495 -329 655 -79 79 -161 132 -325 211 -74 36 -153 74 -175
85 l-40 20 135 -5 c79 -3 179 -14 240 -26z m-1670 -953 c117 -25 237 -62 361
-112 247 -101 362 -173 729 -455 68 -52 144 -110 169 -128 315 -226 605 -345
936 -383 101 -12 107 -14 70 -21 -223 -48 -348 -89 -477 -154 -179 -91 -394
-249 -598 -440 -74 -70 -176 -157 -270 -231 -122 -96 -376 -245 -465 -273 -22
-7 -45 -16 -50 -20 -18 -15 -198 -78 -280 -100 -139 -36 -255 -51 -435 -57
-197 -6 -341 9 -508 54 -88 23 -326 112 -319 119 2 2 44 -1 95 -6 325 -34 809
133 1072 369 42 37 52 52 44 61 -9 9 -21 4 -50 -23 -22 -19 -84 -64 -139 -101
-222 -149 -478 -241 -741 -267 -138 -13 -219 -5 -524 58 -353 71 -568 72 -767
2 -225 -80 -408 -262 -495 -494 l-18 -50 5 108 c12 239 59 513 115 672 57 162
142 295 238 371 152 121 356 163 559 114 98 -23 157 -47 393 -158 195 -91 220
-102 332 -141 199 -68 474 -111 633 -97 98 8 249 41 322 70 197 78 358 223
430 386 25 59 28 75 27 175 0 95 -4 120 -28 185 -62 166 -170 333 -301 465
-177 179 -372 287 -635 353 -94 23 -125 26 -288 27 l-182 0 42 18 c78 33 292
95 368 106 41 6 86 13 100 15 62 11 458 -2 530 -17z m4135 -192 c31 -39 79
-182 94 -276 47 -288 -60 -578 -247 -673 l-51 -26 -6 33 c-17 106 -25 289 -15
387 20 190 73 407 127 514 45 90 57 95 98 41z m-920 -990 c176 -28 309 -67
302 -89 -14 -43 -316 23 -428 94 l-34 21 30 -5 c17 -3 75 -13 130 -21z m705
-92 c7 -32 19 -71 27 -86 26 -51 8 -50 -57 1 -127 99 -149 117 -149 123 -1 3
25 7 56 8 31 1 59 4 62 6 2 3 14 5 26 5 18 0 24 -9 35 -57z m155 -263 c3 -5
70 -58 148 -116 379 -285 553 -476 682 -748 116 -246 173 -492 182 -776 6
-197 -7 -311 -58 -535 -34 -144 -109 -487 -109 -494 0 -24 -26 35 -60 134 -49
143 -91 221 -220 415 -150 226 -190 294 -215 367 -39 118 -49 217 -39 397 5
88 9 238 8 331 -1 148 -4 185 -28 290 -45 193 -93 311 -247 605 -31 58 -58
113 -62 123 -7 18 7 24 18 7z m-422 -912 c-38 -58 -39 -155 -4 -243 35 -85 86
-171 140 -234 83 -99 228 -173 301 -154 l34 9 79 -160 c93 -190 142 -274 296
-501 118 -175 166 -238 309 -409 45 -55 84 -109 87 -120 2 -12 12 -72 20 -134
19 -129 35 -190 67 -246 52 -90 120 -99 147 -19 13 37 13 45 -3 87 -10 26 -56
97 -102 159 -46 62 -84 116 -84 121 0 5 2 7 5 4 7 -7 131 -169 254 -333 144
-192 146 -194 475 -525 191 -193 379 -394 508 -545 113 -132 234 -267 268
-300 34 -33 75 -77 92 -98 l31 -38 -804 4 -804 5 -78 104 c-195 261 -253 356
-457 753 -57 110 -164 301 -238 425 -75 124 -189 333 -255 465 -66 132 -166
317 -222 410 -160 266 -237 435 -304 665 -95 328 -74 626 56 797 30 39 134 93
180 93 l33 0 -27 -42z m131 1 c14 -16 41 -58 60 -92 33 -59 236 -483 236 -493
0 -13 -82 0 -127 20 -132 62 -292 306 -293 449 0 72 43 146 87 147 6 0 23 -14
37 -31z m-6422 -1689 c34 -10 41 -19 96 -123 84 -161 171 -292 185 -278 7 7 1
25 -23 63 -112 179 -169 288 -152 288 5 0 27 -14 48 -31 97 -76 156 -190 193
-375 23 -114 41 -288 40 -389 0 -60 -2 -67 -12 -45 -164 363 -315 594 -402
616 -36 9 -73 -13 -96 -58 -31 -59 -36 -194 -15 -353 32 -227 70 -350 196
-630 84 -188 124 -304 144 -423 19 -112 48 -197 77 -228 30 -32 42 -20 18 19
-24 39 -55 144 -64 212 -13 105 -39 203 -75 285 -21 47 -65 146 -98 220 -117
265 -160 437 -168 675 -7 199 12 258 79 241 58 -14 201 -230 328 -493 86 -180
87 -190 20 -345 -85 -200 -91 -285 -29 -405 19 -38 64 -125 100 -194 81 -156
113 -250 144 -426 46 -262 42 -439 -10 -500 -64 -74 -240 9 -319 152 -64 113
-81 191 -97 445 -23 357 -53 485 -205 885 -132 347 -160 476 -158 740 1 187
19 287 67 370 30 51 45 63 93 81 47 16 49 16 95 4z m7736 -447 c12 -25 13 -40
6 -60 -19 -56 -71 -34 -106 45 -19 41 -48 173 -48 215 0 22 118 -137 148 -200z
m-7323 -819 c13 -87 49 -276 79 -419 52 -250 92 -482 83 -491 -2 -2 -12 33
-21 78 -28 129 -69 239 -142 376 -122 229 -127 240 -127 312 0 36 6 84 13 105
18 56 82 206 86 202 2 -2 15 -75 29 -163z m8195 -761 c278 -3 500 -7 495 -9
-72 -18 -169 -57 -305 -122 -259 -124 -492 -208 -1040 -376 -279 -85 -408
-127 -558 -181 -108 -39 -223 -106 -286 -168 -105 -104 -126 -166 -153 -472
-20 -235 -23 -610 -5 -826 18 -205 46 -316 162 -629 161 -437 188 -515 224
-636 l34 -114 -60 -40 c-66 -44 -76 -46 -102 -27 -17 12 -17 19 -6 72 26 124
-20 289 -106 385 -31 34 -105 79 -154 93 -11 3 -21 35 -34 103 -30 161 -155
655 -180 709 -20 43 -22 63 -18 130 3 54 -1 100 -12 140 -41 158 -56 320 -67
707 -11 401 -8 540 17 698 27 173 71 253 181 327 88 59 202 97 348 117 11 1
33 8 49 15 78 32 437 90 651 104 99 7 430 7 925 0z m764 -54 c27 -16 46 -32
43 -35 -4 -5 -107 55 -107 62 0 10 20 1 64 -27z m-1114 -1130 c-33 -99 -73
-177 -131 -259 -35 -48 -55 -69 -57 -59 -8 39 81 243 166 384 37 59 37 60 40
29 2 -17 -7 -60 -18 -95z m-779 -331 c36 -35 76 -78 89 -97 l24 -34 -43 24
c-49 27 -135 117 -144 148 -3 12 -2 21 2 21 3 0 36 -28 72 -62z m1457 -58 c-5
-17 -31 -48 -57 -70 -45 -40 -218 -136 -227 -127 -6 6 62 97 94 125 55 49 146
102 173 102 27 0 28 -1 17 -30z m-2385 -850 c25 -91 66 -259 92 -375 25 -115
47 -218 49 -227 4 -17 -11 -18 -212 -18 -120 0 -241 -3 -270 -7 l-54 -6 35 55
c103 161 193 367 262 598 47 160 45 154 49 149 2 -2 24 -78 49 -169z m936 46
c46 -17 27 -27 -59 -34 -43 -3 -75 0 -90 8 l-23 13 24 13 c30 17 103 17 148 0z
m-680 -741 c90 -45 143 -134 166 -282 8 -50 -3 -173 -16 -173 -23 0 -85 72
-112 129 -23 52 -97 312 -97 343 0 12 7 10 59 -17z m-739 7 c0 -14 -163 -212
-282 -342 -125 -138 -414 -471 -441 -509 -19 -28 -18 -28 -41 16 -89 175 81
478 384 683 82 56 154 90 265 126 112 37 115 37 115 26z"/>
<path d="M13101 8638 c-113 -16 -323 -103 -461 -193 -84 -54 -181 -149 -209
-202 -27 -55 -28 -109 -1 -123 11 -6 18 -16 14 -21 -13 -21 174 -265 248 -323
57 -44 51 -16 -9 47 -79 84 -143 161 -186 227 l-37 54 123 28 c286 64 344 72
517 72 158 0 171 -2 300 -36 74 -20 204 -61 289 -91 l154 -54 -214 -6 c-232
-6 -312 -19 -439 -68 -126 -48 -352 -201 -330 -223 6 -6 26 2 52 23 212 160
417 235 633 230 47 -1 45 -2 -40 -19 -150 -30 -241 -72 -379 -173 -91 -68
-236 -142 -304 -156 -29 -6 -117 -18 -195 -26 -176 -19 -246 -41 -314 -100
-177 -155 -218 -445 -118 -829 68 -262 183 -500 410 -851 227 -351 291 -542
340 -1015 57 -555 87 -665 202 -750 117 -86 257 -49 439 115 143 129 162 142
218 155 43 9 58 8 120 -12 67 -22 86 -23 336 -22 146 0 346 3 445 5 l180 4 60
-29 c87 -43 183 -47 290 -11 110 37 209 42 396 20 132 -16 171 -17 303 -7 152
12 337 49 344 70 6 19 -32 31 -72 22 -42 -9 -141 2 -225 27 -31 8 -121 48
-201 88 -286 143 -344 151 -511 71 -60 -29 -110 -46 -133 -46 -24 0 -71 18
-144 56 -98 51 -114 57 -173 57 -58 0 -184 -31 -214 -53 -5 -4 -84 -33 -175
-63 -218 -74 -407 -116 -598 -132 l-72 -6 51 98 c95 179 119 215 248 361 35
40 66 71 68 69 2 -2 -18 -37 -45 -78 -54 -83 -125 -232 -143 -301 -15 -55 -8
-79 21 -71 37 10 83 66 162 200 42 70 108 171 148 223 71 95 87 127 76 155
-10 27 -35 16 -97 -41 -45 -42 -63 -53 -73 -45 -27 22 -74 -9 -167 -112 -107
-119 -142 -170 -212 -314 -28 -58 -53 -101 -55 -95 -6 20 63 179 121 277 64
108 77 158 41 163 -16 2 -33 -15 -75 -75 -78 -112 -86 -125 -156 -258 -34 -66
-63 -117 -63 -114 0 9 43 125 74 198 30 69 30 98 3 115 -40 24 -138 -129 -212
-332 -21 -56 -41 -105 -46 -107 -26 -17 40 217 88 307 42 80 156 194 233 233
28 14 108 45 178 69 244 84 324 125 527 271 159 115 168 118 96 40 -171 -189
-387 -598 -350 -667 25 -47 52 -16 158 182 46 85 107 190 135 233 62 91 194
245 244 284 41 31 39 26 -42 -87 -138 -193 -211 -318 -251 -431 -27 -78 -30
-129 -7 -137 33 -11 166 174 276 383 50 96 161 255 177 255 6 0 8 -3 6 -7 -32
-55 -199 -413 -213 -456 -21 -68 -12 -110 25 -115 49 -7 97 66 175 269 24 64
54 134 66 155 l21 39 -6 -45 c-3 -25 -23 -110 -45 -190 -43 -155 -48 -201 -26
-219 22 -19 47 -1 71 52 l23 49 7 -45 c4 -25 12 -53 19 -62 11 -15 13 -14 30
3 21 24 71 187 81 264 4 31 2 71 -4 93 -6 21 -8 41 -6 43 11 11 26 -60 35
-167 11 -131 22 -179 50 -213 15 -18 21 -20 31 -11 20 20 23 167 5 277 -9 54
-15 101 -13 103 2 2 23 -72 45 -163 41 -166 63 -219 85 -211 20 6 19 88 -2
219 -11 67 -22 152 -26 188 -5 62 -2 57 60 -120 36 -102 75 -207 87 -234 23
-50 59 -83 78 -71 23 14 9 127 -40 318 -27 106 -50 202 -50 213 0 10 30 -55
65 -144 71 -177 139 -320 186 -388 36 -53 47 -60 65 -43 32 33 -44 290 -160
543 -20 43 -35 81 -32 83 12 12 175 -285 306 -555 80 -165 130 -236 153 -213
19 19 8 86 -44 259 -28 92 -53 178 -55 192 -3 14 49 -83 115 -215 149 -301
192 -352 199 -241 3 52 -15 144 -53 272 -14 45 -25 88 -25 95 2 30 67 -115
141 -310 43 -112 87 -214 99 -225 21 -21 21 -21 36 -2 26 36 16 111 -46 364
-14 59 7 33 38 -45 17 -43 50 -136 73 -208 43 -135 63 -173 75 -142 3 9 -2 36
-11 60 -22 54 -46 168 -38 180 10 17 41 -75 68 -204 31 -149 41 -184 61 -199
64 -54 54 189 -16 383 -62 168 -181 299 -369 405 -59 33 -169 95 -246 138
-163 91 -225 131 -317 208 -79 65 -99 93 -100 136 -1 45 26 66 112 83 101 20
162 50 224 111 65 64 86 124 86 242 0 65 -6 104 -28 171 -28 87 -74 173 -92
173 -20 0 -19 -20 5 -62 45 -78 75 -190 75 -282 0 -89 -11 -132 -45 -183 -45
-68 -139 -121 -245 -138 l-45 -7 43 39 c24 23 42 49 42 61 0 28 -33 62 -62 63
-99 7 -177 -30 -278 -130 -41 -41 -97 -90 -124 -108 -45 -31 -53 -33 -130 -33
-64 1 -77 3 -61 12 41 22 76 63 86 101 13 51 8 56 -83 79 -168 43 -281 125
-344 252 -69 141 -68 268 2 487 58 184 82 307 95 496 15 204 6 594 -16 733
-28 178 -85 313 -149 355 -19 13 -24 27 -29 76 -7 84 -54 176 -118 232 -100
87 -226 136 -604 232 -254 64 -418 113 -490 145 -22 9 -69 29 -105 43 -57 22
-85 29 -165 41 -11 2 -49 -1 -84 -6z m153 -44 c33 -8 106 -35 161 -59 110 -48
283 -100 565 -170 296 -74 446 -131 540 -205 43 -34 104 -147 116 -214 6 -36
5 -39 -12 -31 -131 54 -323 92 -524 104 -165 9 -165 9 -325 66 -545 192 -663
202 -1143 96 -94 -21 -174 -35 -177 -33 -16 16 -1 65 33 109 99 124 292 247
492 313 127 42 183 47 274 24z m800 -630 c111 -28 283 -103 358 -155 39 -28
43 -7 5 29 -33 32 -152 92 -247 124 l-55 19 93 -6 c93 -6 320 -57 395 -89 30
-13 37 -22 37 -44 0 -87 -49 -269 -80 -297 -19 -18 -20 -17 -20 14 0 62 -51
123 -149 181 -30 17 -80 51 -110 74 -113 87 -247 135 -436 156 -69 7 -69 7 39
9 69 1 130 -5 170 -15z m-405 -46 c-20 -38 -17 -123 7 -155 32 -44 83 -67 128
-59 48 9 114 69 122 111 6 35 -27 92 -66 112 -35 18 -15 16 87 -7 l89 -21 12
-58 c16 -76 -3 -141 -59 -205 -178 -202 -497 -95 -517 175 -5 79 -3 81 113
110 96 24 98 24 84 -3z m167 -7 c17 -10 36 -33 43 -50 26 -61 -9 -108 -88
-118 -35 -5 -44 -2 -71 25 -32 33 -40 84 -20 136 8 23 15 26 57 26 29 0 60 -7
79 -19z m-400 -96 c1 -54 7 -78 38 -140 40 -81 80 -119 164 -157 56 -25 169
-27 237 -4 139 46 236 190 215 319 -4 20 -5 37 -3 37 20 0 342 -185 389 -224
24 -20 61 -93 51 -102 -1 -1 -29 2 -62 8 -87 14 -195 5 -405 -32 -337 -61
-536 -44 -744 63 -99 51 -181 116 -174 138 5 15 116 78 216 123 43 19 77 35
77 35 0 1 0 -28 1 -64z m1299 -14 c38 -56 73 -164 93 -283 14 -84 16 -167 16
-453 -1 -387 -8 -461 -66 -655 -66 -222 -79 -278 -85 -355 -11 -150 45 -294
154 -396 77 -71 140 -105 253 -135 92 -24 96 -30 62 -82 -54 -83 -168 -50
-304 90 -87 88 -174 138 -242 138 -82 0 -103 -68 -38 -128 l37 -35 -48 6 c-64
9 -152 52 -196 96 -67 67 -96 207 -67 319 22 87 50 137 113 203 52 55 57 78
15 64 -28 -8 -101 -102 -133 -170 -104 -219 -24 -457 174 -525 89 -30 169 -37
186 -16 12 15 7 22 -39 65 -36 33 -51 54 -47 65 10 26 50 28 113 5 46 -16 72
-35 117 -83 31 -33 57 -63 57 -67 0 -3 -27 8 -60 24 -42 21 -64 27 -71 20 -7
-7 6 -21 43 -43 206 -127 249 -143 393 -144 103 -1 113 1 162 28 28 15 88 66
132 111 90 92 152 129 220 130 55 0 78 -26 45 -53 -112 -93 -107 -86 -112
-144 -6 -73 19 -120 100 -190 123 -106 191 -149 448 -288 246 -132 350 -215
441 -350 34 -50 76 -184 95 -297 25 -158 13 -141 -34 48 -50 196 -72 249 -98
228 -8 -6 -14 -21 -14 -33 -1 -11 -11 6 -24 39 -13 33 -35 84 -50 113 -24 47
-30 53 -54 50 -38 -4 -39 -33 -2 -184 36 -151 48 -230 29 -200 -6 10 -40 93
-74 185 -96 254 -146 351 -180 351 -34 0 -33 -35 5 -187 21 -84 41 -172 45
-195 l6 -43 -26 45 c-15 25 -67 127 -116 228 -104 215 -123 244 -153 240 -41
-6 -37 -33 55 -327 33 -104 35 -142 6 -98 -9 14 -46 91 -83 169 -92 202 -252
495 -295 540 -34 36 -71 49 -84 28 -6 -9 16 -68 100 -265 46 -110 119 -334
111 -342 -12 -12 -101 175 -236 494 -44 104 -72 145 -85 123 -17 -28 -3 -129
45 -303 50 -184 69 -277 56 -277 -9 0 -32 58 -106 270 -37 107 -75 213 -84
234 -16 38 -17 39 -34 22 -23 -23 -21 -143 7 -306 11 -69 21 -132 20 -140 0
-8 -23 73 -50 180 -27 107 -54 199 -59 204 -36 36 -44 -91 -16 -239 17 -87 22
-221 6 -195 -4 9 -14 63 -20 120 -7 58 -17 130 -23 160 -11 49 -15 55 -37 55
-21 0 -26 6 -31 38 -13 83 -45 65 -60 -35 -15 -108 -57 -258 -90 -327 -45 -92
-47 -57 -5 81 73 240 88 415 31 368 -18 -15 -68 -121 -116 -248 -71 -186 -132
-290 -151 -259 -16 25 13 96 149 366 90 178 103 214 84 225 -13 9 -62 -12 -90
-37 -25 -24 -137 -190 -166 -247 -41 -82 -172 -295 -202 -328 l-33 -37 25 70
c14 39 33 86 43 105 29 59 142 239 220 350 77 111 89 152 46 158 -28 4 -68
-31 -177 -153 -108 -122 -174 -221 -281 -419 -48 -91 -82 -144 -84 -133 -4 19
96 233 155 331 63 105 168 241 222 287 59 50 87 88 74 99 -22 21 -109 -22
-292 -144 -201 -135 -292 -180 -521 -258 -63 -22 -137 -51 -165 -66 -77 -42
-198 -170 -240 -255 -43 -89 -84 -241 -87 -327 -3 -60 -1 -65 19 -68 29 -4 43
18 99 168 25 69 58 148 72 175 30 61 82 138 88 132 3 -3 -10 -45 -30 -93 -19
-49 -42 -114 -52 -144 -20 -59 -25 -143 -9 -149 5 -2 33 43 63 100 55 105 190
339 196 339 1 0 -21 -48 -51 -107 -29 -60 -61 -138 -70 -175 -16 -63 -16 -68
0 -86 16 -18 15 -20 -30 -52 -27 -19 -84 -68 -128 -110 -95 -90 -152 -126
-226 -141 -140 -28 -231 57 -284 265 -8 33 -22 125 -31 205 -61 568 -81 693
-135 847 -58 165 -105 255 -259 494 -230 358 -337 592 -407 890 -34 146 -42
338 -18 446 41 187 136 302 280 338 33 8 126 22 207 31 152 16 216 33 308 81
30 15 57 28 60 29 3 0 10 3 16 7 6 4 36 -17 67 -47 64 -60 224 -144 322 -169
33 -9 107 -21 165 -27 120 -13 229 -3 522 51 137 25 184 30 263 26 54 -3 103
-10 110 -16 8 -6 16 -7 19 -2 3 5 17 7 31 4 22 -4 28 2 50 51 29 63 55 172 55
235 0 23 4 42 10 42 5 0 21 -18 35 -39z m375 -2865 c0 -50 -27 -167 -49 -216
-18 -40 -6 105 14 159 10 30 12 48 5 55 -13 13 -13 29 -1 21 5 -3 12 -1 15 4
4 5 2 12 -4 16 -16 10 -12 25 5 19 11 -4 15 -21 15 -58z m-850 -46 c-34 -45
-98 -141 -142 -213 -75 -123 -143 -213 -123 -162 4 11 21 56 38 100 39 106
124 234 185 278 26 20 58 47 71 61 48 51 32 16 -29 -64z m682 -335 c29 -13 77
-38 107 -55 82 -46 130 -42 261 21 99 47 108 50 163 44 75 -8 114 -22 282
-104 138 -68 281 -120 333 -122 60 -2 -37 -16 -162 -23 -92 -6 -163 -3 -273 9
-188 22 -310 16 -410 -19 -98 -35 -145 -33 -271 10 l-105 36 -141 -6 c-348
-15 -483 -18 -600 -11 -69 4 -124 11 -121 15 3 4 30 11 61 15 125 15 374 89
609 179 115 45 189 48 267 11z"/>
<path d="M13009 7629 c-7 -14 -10 -49 -7 -94 16 -251 256 -425 588 -425 142 0
247 21 403 81 152 58 248 108 367 192 30 22 77 53 103 70 29 18 44 34 39 39
-11 11 -73 -18 -141 -65 -56 -38 -262 -157 -273 -157 -4 0 -31 -11 -60 -24
-285 -129 -620 -127 -820 7 -102 68 -167 190 -168 314 0 76 -11 98 -31 62z"/>
<path d="M15524 8315 c-13 -19 -15 -40 -11 -83 11 -123 83 -222 203 -277 52
-24 64 -35 106 -101 101 -158 220 -182 390 -77 157 97 342 160 503 172 138 9
347 -4 455 -29 95 -23 194 -68 330 -151 107 -65 183 -76 260 -36 113 57 187
290 131 413 -23 50 -80 98 -140 119 -67 23 -248 20 -374 -6 -99 -20 -406 -107
-672 -190 -157 -48 -462 -124 -565 -140 -81 -12 -193 -7 -278 12 -64 15 -66
17 -161 205 -97 192 -137 230 -177 169z m143 -180 c35 -71 69 -134 74 -139 21
-22 7 -24 -28 -4 -102 57 -163 151 -163 249 0 106 22 86 117 -106z m2048 100
c111 -29 159 -91 157 -200 -1 -70 -31 -164 -68 -212 -75 -98 -171 -99 -324 -1
-206 132 -394 177 -695 165 -226 -8 -397 -58 -585 -170 -133 -80 -197 -87
-269 -29 -38 30 -105 112 -98 119 3 2 24 -1 48 -6 150 -35 434 8 794 119 109
34 497 149 585 173 188 52 355 68 455 42z"/>
<path d="M16745 7906 c-72 -27 -103 -77 -96 -155 10 -107 176 -138 226 -41 21
40 19 69 -9 125 l-25 48 67 -5 c122 -10 159 -47 148 -149 -11 -106 -53 -171
-140 -217 -44 -23 -63 -27 -141 -27 -112 0 -177 21 -228 73 -57 59 -77 113
-77 215 0 68 -3 89 -15 93 -32 13 -285 -140 -380 -229 -47 -45 -55 -58 -55
-89 0 -19 6 -41 14 -47 9 -7 52 -11 122 -9 108 2 111 1 264 -51 123 -42 182
-56 284 -69 119 -15 137 -15 226 1 53 9 128 26 166 39 151 49 317 151 330 203
18 73 -147 210 -333 277 -78 27 -289 36 -348 14z m72 -60 c24 -21 28 -32 28
-76 0 -61 -18 -80 -76 -80 -70 0 -115 92 -71 147 30 38 81 42 119 9z m305 -5
c26 -11 50 -21 53 -21 3 0 37 -20 74 -45 75 -49 141 -115 141 -141 0 -50 -208
-162 -390 -210 -85 -23 -266 -23 -380 -1 -47 9 -139 35 -205 58 -158 53 -199
60 -276 48 -51 -8 -65 -7 -77 4 -22 22 -2 48 86 115 104 79 253 172 275 172 3
0 7 -36 9 -80 9 -149 79 -238 220 -281 142 -43 281 -9 371 91 71 79 97 206 58
283 -10 20 -16 35 -12 33 3 -2 27 -13 53 -25z"/>
<path d="M12776 7741 c-4 -5 -2 -12 3 -15 5 -4 12 -2 15 3 4 5 2 12 -3 15 -5
4 -12 2 -15 -3z"/>
<path d="M14055 4250 c-13 -20 7 -48 68 -97 183 -148 421 -272 574 -298 34 -5
40 -10 36 -26 -4 -15 4 -23 38 -38 57 -25 205 -51 292 -51 101 0 256 -18 304
-36 82 -30 117 -109 76 -170 -17 -27 -95 -67 -148 -78 -16 -3 -91 -10 -165
-16 -395 -31 -631 -119 -782 -292 -80 -92 -111 -159 -128 -281 -19 -132 25
-258 129 -369 176 -188 490 -254 938 -198 87 11 186 21 221 22 34 2 63 8 65
13 4 17 -167 17 -303 0 -160 -19 -392 -19 -502 0 -237 41 -403 149 -480 312
-78 166 -31 362 123 507 159 150 315 203 716 245 124 13 209 27 245 41 109 41
156 132 110 217 -43 80 -104 100 -352 118 -155 11 -340 37 -340 48 0 1 109 3
243 3 478 3 598 38 864 253 125 100 150 128 135 143 -12 12 -42 -8 -107 -69
-145 -134 -294 -220 -443 -254 -123 -29 -583 -39 -717 -15 -221 38 -412 133
-622 308 -45 38 -85 64 -88 58z"/>
</g>
</svg>
