<?xml version="1.0" standalone="no"?>
<!DOCTYPE svg PUBLIC "-//W3C//DTD SVG 20010904//EN"
 "http://www.w3.org/TR/2001/REC-SVG-20010904/DTD/svg10.dtd">
<svg version="1.0" xmlns="http://www.w3.org/2000/svg"
 width="2752.000000pt" height="1536.000000pt" viewBox="0 0 2752.000000 1536.000000"
 preserveAspectRatio="xMidYMid meet">
<metadata>
Created by potrace 1.16, written by Peter Selinger 2001-2019
</metadata>
<g transform="translate(0.000000,1536.000000) scale(0.100000,-0.100000)"
fill="#000000" stroke="none">
<path d="M15658 14604 c-42 -7 -141 -29 -220 -48 -78 -19 -178 -40 -221 -47
-113 -17 -315 -6 -447 26 -352 84 -594 87 -838 10 -95 -30 -197 -74 -189 -81
3 -3 20 2 38 12 56 28 199 73 284 89 207 37 408 26 655 -35 264 -65 411 -63
703 9 228 57 291 66 482 65 389 -2 722 -114 1040 -348 50 -37 72 -50 50 -30
-62 56 -241 171 -340 219 -187 89 -326 132 -516 160 -131 18 -375 18 -481 -1z"/>
<path d="M13667 14425 c-67 -40 -145 -99 -202 -150 -35 -32 -37 -36 -15 -31
142 32 366 33 449 2 24 -9 46 -14 49 -12 2 3 -29 15 -69 28 -80 25 -237 32
-331 14 -40 -7 -48 -6 -48 7 0 16 99 92 183 141 40 24 55 36 45 36 -2 0 -29
-16 -61 -35z"/>
<path d="M13957 14209 c-4 -13 -14 -19 -34 -19 -79 0 -487 -88 -727 -156 -371
-106 -627 -228 -887 -420 -200 -148 -340 -315 -496 -593 -138 -246 -256 -421
-371 -553 -8 -10 -13 -18 -10 -18 9 0 150 177 195 245 48 72 161 258 228 375
202 355 432 564 841 766 260 127 784 276 1179 334 149 22 159 26 111 48 -20 9
-25 8 -29 -9z"/>
<path d="M17111 14119 c75 -74 199 -184 199 -177 0 1 -11 39 -25 83 -28 91
-32 135 -11 135 8 0 94 -40 192 -89 125 -63 203 -109 259 -154 163 -131 295
-323 405 -587 31 -74 101 -171 153 -213 23 -19 101 -69 172 -112 152 -91 185
-114 285 -209 l75 -71 -65 68 c-81 85 -161 145 -316 236 -153 90 -220 155
-270 258 -124 261 -159 325 -234 425 -129 172 -237 259 -461 370 -149 73 -218
102 -228 93 -3 -3 1 -31 8 -63 31 -133 24 -142 -49 -66 -25 25 -72 68 -105 96
-55 46 -53 43 16 -23z"/>
<path d="M15213 14134 c-13 -3 -23 -9 -23 -14 0 -7 202 -110 216 -110 13 0
212 -105 253 -133 26 -17 73 -56 105 -86 32 -31 57 -49 54 -41 -8 25 -148 137
-230 183 -43 24 -139 71 -213 103 -181 79 -179 88 18 81 229 -8 449 -61 681
-163 54 -24 101 -44 105 -44 14 2 -157 83 -229 110 -93 34 -234 73 -345 96
-78 15 -347 28 -392 18z"/>
<path d="M16210 13896 c0 -3 9 -10 20 -16 11 -6 20 -8 20 -6 0 3 -9 10 -20 16
-11 6 -20 8 -20 6z"/>
<path d="M16292 13848 c9 -7 42 -31 73 -53 240 -167 406 -352 538 -596 40 -74
162 -340 227 -494 143 -339 297 -585 474 -758 88 -86 276 -239 276 -224 0 3
-45 41 -100 83 -55 43 -100 84 -100 91 0 8 23 13 68 16 66 3 65 3 -18 5 l-84
2 -81 83 c-154 156 -281 376 -480 832 -152 346 -229 485 -356 641 -73 90 -199
208 -303 285 -74 54 -174 120 -134 87z"/>
<path d="M15868 13680 c96 -125 152 -263 251 -611 59 -206 84 -275 141 -389
40 -82 145 -250 155 -250 2 0 -18 35 -46 78 -106 161 -174 329 -263 648 -24
89 -63 208 -85 265 -39 101 -138 268 -176 299 -10 8 0 -10 23 -40z"/>
<path d="M13510 13179 c-207 -12 -449 -76 -643 -169 l-82 -40 80 8 c100 9 317
9 410 0 61 -6 65 -5 30 5 -22 6 -122 11 -222 11 -135 1 -183 4 -183 13 0 15
241 94 370 122 209 45 511 45 728 1 175 -35 405 -125 602 -235 36 -19 56 -28
45 -20 -42 34 -226 127 -348 175 -268 108 -503 146 -787 129z"/>
<path d="M18018 12968 c-40 -43 -72 -115 -113 -259 -62 -216 -82 -479 -50
-674 15 -93 14 -100 -20 -108 -14 -3 -11 -5 10 -6 29 -1 31 -5 54 -84 36 -125
36 -127 15 -127 -14 0 -10 -7 17 -29 21 -18 43 -49 54 -78 10 -26 60 -129 111
-228 106 -207 154 -323 197 -485 l32 -115 -4 -255 c-7 -543 -8 -528 17 -618
12 -46 35 -109 51 -140 24 -48 301 -476 318 -492 15 -14 -30 60 -117 190 -263
395 -277 446 -250 894 11 173 11 243 2 326 -24 213 -97 441 -210 650 -73 137
-132 257 -132 270 0 21 32 9 83 -32 30 -24 120 -94 201 -157 231 -177 371
-318 482 -486 188 -282 293 -649 294 -1027 0 -210 -14 -292 -157 -916 -19 -84
-38 -92 -63 -26 -12 33 -19 40 -33 35 -16 -6 -14 -12 19 -55 35 -46 38 -57 60
-200 23 -147 45 -229 66 -242 5 -3 2 8 -6 25 -23 44 -53 241 -38 250 9 5 8 12
-3 27 -20 26 -19 44 3 44 12 0 58 -54 131 -150 62 -82 115 -150 117 -150 11 0
-133 194 -209 283 l-50 58 18 92 c10 51 37 172 61 271 99 400 121 610 90 851
-60 465 -217 807 -501 1090 -77 78 -270 235 -488 400 -99 74 -108 84 -130 140
-13 33 -32 91 -42 129 -20 75 -23 66 32 104 16 11 16 11 -4 2 -55 -26 -57 -22
-73 175 -14 170 2 353 48 535 49 194 106 310 152 310 28 0 67 -57 95 -140 81
-239 71 -499 -26 -680 -19 -35 -23 -47 -10 -33 30 36 81 168 98 257 40 211
-44 559 -145 606 -21 9 -28 6 -54 -22z"/>
<path d="M13395 12954 c28 -7 55 -13 60 -13 17 2 -69 27 -90 27 -11 0 3 -6 30
-14z"/>
<path d="M13501 12926 c8 -8 113 -45 117 -42 2 2 -22 13 -53 25 -54 20 -73 25
-64 17z"/>
<path d="M13660 12859 c27 -18 110 -59 110 -54 0 7 -103 65 -115 65 -5 0 -3
-5 5 -11z"/>
<path d="M13780 12797 c0 -2 19 -17 43 -32 23 -16 37 -22 30 -14 -12 15 -73
53 -73 46z"/>
<path d="M14800 12768 c21 -21 300 -230 300 -224 0 4 -241 189 -300 229 -13
10 -13 9 0 -5z"/>
<path d="M13925 12691 c80 -71 162 -161 212 -231 55 -78 73 -97 47 -52 -51 89
-204 254 -294 316 -9 6 7 -9 35 -33z"/>
<path d="M18834 12687 c16 -20 30 -37 33 -37 7 0 -36 58 -49 66 -7 4 1 -9 16
-29z"/>
<path d="M18958 12479 c37 -75 68 -135 70 -134 5 5 -103 227 -121 250 -9 11
14 -41 51 -116z"/>
<path d="M15110 12536 c0 -2 8 -10 18 -17 15 -13 16 -12 3 4 -13 16 -21 21
-21 13z"/>
<path d="M15150 12506 c0 -2 8 -10 18 -17 15 -13 16 -12 3 4 -13 16 -21 21
-21 13z"/>
<path d="M15190 12476 c0 -2 8 -10 18 -17 15 -13 16 -12 3 4 -13 16 -21 21
-21 13z"/>
<path d="M15230 12446 c0 -2 14 -14 30 -26 17 -12 30 -19 30 -16 0 2 -13 14
-30 26 -16 12 -30 19 -30 16z"/>
<path d="M11394 12408 l-29 -33 33 29 c17 17 32 31 32 33 0 8 -8 1 -36 -29z"/>
<path d="M16457 12375 c23 -27 68 -75 100 -105 43 -41 37 -33 -22 30 -110 118
-125 133 -78 75z"/>
<path d="M15322 12378 c30 -26 88 -62 88 -55 0 2 -26 21 -57 41 -32 20 -46 27
-31 14z"/>
<path d="M11278 12273 c-179 -211 -276 -366 -338 -546 -48 -139 -55 -189 -54
-372 1 -226 26 -342 149 -710 106 -315 111 -343 140 -745 31 -429 61 -581 156
-789 22 -46 39 -87 39 -91 0 -4 -36 -7 -79 -6 -93 1 -116 -11 -168 -88 -108
-159 -118 -525 -23 -851 24 -84 101 -287 107 -281 2 2 -15 52 -37 112 -86 229
-127 471 -117 689 14 265 87 407 211 409 87 1 110 -10 133 -62 18 -40 20 -42
16 -14 -8 47 15 42 83 -20 128 -117 176 -246 209 -558 20 -188 20 -280 -1
-280 -12 0 -14 -5 -8 -17 16 -33 6 -107 -20 -167 -15 -32 -25 -60 -23 -62 2
-2 12 14 22 36 10 22 24 40 32 40 7 0 13 -1 13 -2 0 -12 52 -346 55 -358 16
-54 99 -468 115 -578 24 -159 24 -162 6 -162 -10 0 -19 20 -27 60 -6 33 -14
59 -16 56 -2 -2 1 -32 7 -67 55 -302 53 -487 -6 -546 -19 -19 -33 -23 -87 -23
-73 0 -121 25 -194 101 -84 88 -128 210 -143 402 -28 355 -51 516 -96 665 -33
110 -115 334 -121 329 -2 -3 17 -62 43 -133 95 -260 124 -411 149 -754 8 -118
22 -242 31 -275 24 -90 82 -193 144 -256 135 -136 279 -133 315 6 7 29 19 51
27 53 12 2 16 -15 21 -90 10 -154 119 -864 183 -1193 112 -580 268 -931 660
-1486 446 -630 811 -1059 1044 -1226 204 -146 403 -224 698 -274 185 -31 190
-31 437 -26 500 12 753 60 1020 194 146 74 322 215 447 357 42 48 15 25 -82
-69 -152 -147 -231 -206 -366 -273 -252 -127 -432 -166 -902 -192 -217 -12
-455 1 -630 35 -332 65 -571 190 -821 430 -285 273 -931 1139 -1148 1537 -223
411 -297 672 -437 1543 -69 432 -96 661 -116 995 -14 230 -34 387 -70 555 -46
211 -47 222 -17 245 28 23 39 51 62 160 26 123 43 253 65 485 34 368 59 496
170 860 33 110 68 241 77 290 26 139 21 312 -16 560 -17 116 -34 249 -38 296
-12 172 41 421 117 549 126 213 343 282 595 191 203 -74 284 -100 355 -115
382 -78 846 -18 1227 160 94 44 278 151 361 210 83 60 221 174 342 284 290
262 420 355 639 457 120 57 242 96 378 124 137 27 449 37 604 19 93 -10 117
-18 229 -70 199 -93 366 -134 464 -116 73 14 32 68 -77 101 -57 17 -296 60
-416 75 -95 11 -129 29 -266 139 -44 35 -69 52 -55 37 14 -15 55 -51 93 -79
85 -65 87 -80 10 -72 -248 23 -385 35 -488 40 -275 14 -502 73 -735 190 -39
19 -70 33 -70 29 0 -10 223 -111 315 -142 116 -40 242 -67 383 -83 67 -8 112
-18 112 -24 0 -6 -43 -19 -97 -29 -129 -22 -282 -74 -418 -141 -180 -88 -338
-202 -565 -405 -368 -330 -556 -457 -862 -578 -276 -109 -415 -135 -738 -136
-310 -1 -401 15 -681 124 -154 60 -230 71 -341 46 -193 -43 -319 -184 -393
-441 -49 -168 -50 -329 -5 -607 36 -222 45 -359 31 -487 -15 -139 -26 -190
-98 -430 -94 -315 -128 -481 -152 -736 -42 -440 -45 -458 -82 -617 -14 -59
-26 -88 -35 -88 -8 0 -14 11 -15 28 0 15 -3 21 -6 15 -9 -23 -31 -14 -37 15
-3 15 -15 84 -26 154 -11 70 -27 148 -36 174 -13 39 -14 51 -2 78 17 40 16
275 -1 401 -19 145 -58 300 -91 369 -39 82 -102 160 -173 214 -65 49 -102 109
-153 248 -64 176 -82 292 -109 674 -26 376 -53 515 -151 775 -108 289 -151
519 -141 768 6 161 24 244 85 390 67 159 117 233 360 529 13 15 21 28 19 28
-3 0 -43 -44 -89 -97z m5882 -317 c235 -39 340 -70 340 -102 0 -37 -137 -29
-287 16 -104 32 -213 81 -213 96 0 18 -11 18 160 -10z"/>
<path d="M14210 12350 c6 -11 13 -20 16 -20 2 0 0 9 -6 20 -6 11 -13 20 -16
20 -2 0 0 -9 6 -20z"/>
<path d="M19036 12315 c3 -11 28 -83 55 -160 111 -312 207 -717 255 -1070 27
-196 24 -510 -5 -680 -28 -169 -135 -603 -201 -820 -73 -237 -76 -250 -115
-434 -19 -91 -37 -174 -40 -185 -5 -18 -5 -19 5 -4 6 9 29 99 51 199 22 99 72
288 110 418 82 279 170 629 200 796 33 185 37 480 9 695 -51 396 -203 998
-304 1210 -14 30 -24 46 -20 35z"/>
<path d="M15420 12316 c0 -3 9 -10 20 -16 11 -6 20 -8 20 -6 0 3 -9 10 -20 16
-11 6 -20 8 -20 6z"/>
<path d="M14265 12243 c28 -62 42 -82 30 -43 -9 31 -44 100 -50 100 -3 0 7
-26 20 -57z"/>
<path d="M14305 12155 c4 -11 14 -54 22 -95 40 -192 -58 -390 -261 -525 -106
-70 -174 -100 -300 -131 -141 -35 -270 -40 -436 -20 -258 32 -403 78 -721 227
-94 44 -194 89 -222 100 -250 100 -434 102 -626 8 -282 -139 -435 -486 -481
-1094 -7 -82 -10 -190 -8 -240 l3 -89 27 98 c85 303 269 516 519 602 205 70
409 70 733 -1 423 -91 559 -91 861 0 205 62 450 195 571 311 l49 46 -46 -39
c-140 -117 -351 -232 -538 -293 -178 -58 -272 -74 -446 -74 -142 0 -164 3
-403 53 -351 72 -510 80 -697 35 -243 -60 -437 -219 -549 -454 -20 -41 -36
-80 -36 -87 0 -7 -7 -13 -15 -13 -18 0 -19 42 -4 213 20 235 73 490 133 636
70 173 190 313 321 376 106 51 196 68 331 62 132 -6 240 -39 454 -137 354
-163 399 -181 546 -220 293 -76 587 -71 803 15 268 106 461 333 461 544 0 54
-24 164 -42 191 -7 12 -8 10 -3 -5z"/>
<path d="M18074 12078 l-19 -23 23 19 c21 18 27 26 19 26 -2 0 -12 -10 -23
-22z"/>
<path d="M18009 12013 l-24 -28 28 24 c15 14 27 26 27 28 0 8 -8 1 -31 -24z"/>
<path d="M17513 10720 c-91 -41 -172 -156 -210 -300 -24 -90 -23 -314 1 -430
26 -123 64 -251 103 -349 40 -101 130 -291 137 -291 2 0 -19 51 -49 113 -136
286 -205 576 -192 805 17 281 115 439 288 459 42 5 49 3 49 -12 0 -10 -10 -34
-22 -54 -50 -80 -22 -209 79 -365 98 -152 204 -227 335 -236 42 -3 74 -2 71 3
-2 4 -10 7 -18 7 -8 0 -19 8 -24 18 -6 9 -11 11 -11 5 0 -9 -16 -13 -48 -13
-108 0 -231 101 -319 262 -65 119 -76 155 -71 238 3 55 9 74 31 104 50 65 93
46 162 -72 25 -42 45 -72 45 -67 0 20 -82 144 -111 169 -27 23 -39 26 -107 26
-54 0 -90 -6 -119 -20z"/>
<path d="M17852 10525 c3 -5 40 -85 83 -177 43 -92 80 -166 82 -164 5 4 -147
329 -159 341 -7 7 -9 7 -6 0z"/>
<path d="M18030 10145 c0 -5 5 -17 10 -25 5 -8 10 -10 10 -5 0 6 -5 17 -10 25
-5 8 -10 11 -10 5z"/>
<path d="M18120 10015 c34 -89 213 -419 255 -470 18 -22 8 -2 -74 136 -27 47
-80 146 -116 220 -66 134 -86 168 -65 114z"/>
<path d="M18450 9430 c33 -49 63 -90 66 -90 2 0 -23 41 -56 90 -33 50 -63 90
-66 90 -2 0 23 -40 56 -90z"/>
<path d="M17557 9323 c10 -25 102 -176 116 -188 6 -5 1 6 -11 25 -12 19 -41
68 -63 108 -39 69 -56 92 -42 55z"/>
<path d="M18520 9326 c0 -2 8 -10 18 -17 15 -13 16 -12 3 4 -13 16 -21 21 -21
13z"/>
<path d="M18555 9280 c11 -19 77 -107 106 -140 29 -33 7 1 -50 76 -47 64 -69
89 -56 64z"/>
<path d="M18748 9181 c20 -44 39 -78 41 -76 4 5 -66 155 -73 155 -2 0 12 -36
32 -79z"/>
<path d="M17694 9095 c8 -16 22 -39 31 -50 15 -19 15 -18 1 10 -8 17 -22 39
-31 50 -15 19 -15 18 -1 -10z"/>
<path d="M18696 9088 c10 -14 21 -24 23 -22 3 3 -6 15 -18 27 l-24 22 19 -27z"/>
<path d="M18790 9085 c0 -5 5 -17 10 -25 5 -8 10 -10 10 -5 0 6 -5 17 -10 25
-5 8 -10 11 -10 5z"/>
<path d="M18750 9026 c0 -2 8 -10 18 -17 15 -13 16 -12 3 4 -13 16 -21 21 -21
13z"/>
<path d="M17743 9013 c2 -5 58 -118 125 -253 71 -144 185 -352 277 -505 86
-142 159 -262 162 -265 12 -11 -23 51 -158 276 -76 128 -197 349 -268 493 -72
144 -134 261 -137 261 -3 0 -3 -3 -1 -7z"/>
<path d="M18966 8923 c-6 -14 -5 -15 5 -6 7 7 10 15 7 18 -3 3 -9 -2 -12 -12z"/>
<path d="M11450 8830 c11 -22 23 -40 25 -40 3 0 -4 18 -15 40 -11 22 -23 40
-25 40 -3 0 4 -18 15 -40z"/>
<path d="M11495 8751 c8 -17 19 -33 25 -36 5 -3 1 10 -11 29 -25 43 -36 48
-14 7z"/>
<path d="M11247 8699 c-79 -46 -87 -267 -20 -569 22 -101 99 -317 138 -390 24
-43 17 -18 -20 68 -48 114 -101 290 -121 397 -9 50 -19 156 -21 236 -6 150 2
203 34 234 19 19 63 19 90 0 30 -21 120 -144 186 -255 73 -122 74 -109 2 18
-64 112 -146 217 -194 249 -38 25 -48 27 -74 12z"/>
<path d="M17360 8635 c-52 -14 -261 -79 -465 -146 -203 -66 -440 -143 -525
-171 -160 -52 -325 -118 -344 -139 -6 -6 12 0 39 14 64 31 209 81 725 250 519
169 599 191 710 191 92 0 148 -18 219 -71 l36 -26 -23 25 c-35 38 -149 87
-218 93 -44 4 -83 -1 -154 -20z"/>
<path d="M19020 8630 c12 -16 24 -30 26 -30 3 0 -4 14 -16 30 -12 17 -24 30
-26 30 -3 0 4 -13 16 -30z"/>
<path d="M13055 8621 c-42 -10 -167 -59 -185 -72 -12 -9 -11 -9 5 -4 228 81
290 89 410 52 44 -13 125 -43 180 -66 106 -45 237 -84 505 -151 223 -56 426
-124 494 -165 31 -18 56 -30 56 -26 0 14 -156 90 -259 125 -58 20 -231 68
-385 107 -257 64 -399 109 -500 160 -85 43 -232 61 -321 40z"/>
<path d="M19067 8518 c6 -73 11 -83 12 -23 0 28 -3 56 -8 63 -5 8 -6 -8 -4
-40z"/>
<path d="M12755 8499 c-131 -67 -240 -156 -296 -243 -45 -69 -50 -107 -15
-125 20 -11 47 -8 187 22 280 60 297 62 469 62 148 0 176 -3 275 -29 160 -40
475 -148 475 -162 0 -8 -60 -13 -212 -17 -211 -5 -289 -16 -401 -53 -74 -25
-52 -24 48 1 50 12 136 26 193 30 89 6 102 5 102 -9 0 -9 -8 -16 -18 -16 -10
0 -56 -10 -103 -21 -114 -29 -201 -74 -339 -174 -74 -54 -212 -125 -274 -141
-28 -8 -107 -18 -176 -24 -168 -14 -184 -18 -265 -55 -123 -56 -208 -181 -241
-356 -37 -190 13 -481 131 -771 73 -178 131 -286 285 -528 270 -425 319 -563
370 -1030 52 -480 69 -579 116 -674 27 -53 75 -110 109 -128 11 -6 1 6 -23 27
-94 82 -119 178 -172 644 -43 380 -62 489 -110 632 -51 154 -105 253 -346 639
-188 302 -303 596 -344 878 -15 103 -8 318 13 383 41 127 111 220 199 265 61
31 110 41 279 59 150 16 227 37 331 92 56 29 71 33 83 23 12 -10 15 -9 15 4 0
9 12 28 28 42 30 27 221 122 262 130 26 6 27 5 33 -56 11 -104 67 -208 138
-254 52 -35 62 -33 13 3 -91 67 -127 138 -128 251 -1 72 0 75 27 88 39 19 184
48 193 39 4 -4 0 -23 -9 -42 -9 -20 -17 -48 -17 -64 0 -37 36 -90 78 -114 29
-17 39 -18 72 -8 22 6 42 16 45 21 4 6 -4 6 -20 0 -50 -19 -94 -12 -126 19
-24 25 -29 38 -29 80 0 27 5 62 12 76 9 21 18 25 54 25 23 0 54 -4 68 -10 20
-7 26 -6 26 5 0 7 10 16 23 18 12 2 1 5 -25 6 -35 1 -48 5 -48 16 0 12 17 15
93 14 50 0 128 -6 172 -13 44 -8 82 -12 84 -10 2 2 -1 4 -7 4 -7 0 -12 6 -12
14 0 11 14 13 68 9 93 -7 293 -48 393 -81 l84 -28 -2 -77 c-2 -77 -31 -204
-58 -258 -9 -16 -13 -29 -10 -29 3 0 17 24 31 54 28 62 54 171 54 234 0 50 15
54 53 14 59 -62 99 -208 118 -437 15 -177 6 -641 -15 -776 -15 -96 -22 -124
-90 -358 -46 -156 -54 -243 -32 -331 22 -87 68 -178 107 -215 l33 -30 -28 34
c-120 148 -135 326 -51 591 88 281 112 482 102 875 -7 242 -16 330 -48 457
-28 111 -51 158 -101 209 -40 40 -45 50 -51 103 -7 69 -53 170 -94 206 l-27
25 17 -25 c57 -84 69 -107 84 -170 9 -38 14 -72 10 -76 -3 -4 -50 8 -104 25
-143 46 -285 70 -462 80 -151 8 -160 10 -286 55 -350 127 -545 176 -695 176
-94 0 -303 -31 -440 -66 -58 -14 -131 -28 -162 -31 l-58 -6 0 35 c0 90 166
247 345 329 59 26 78 39 58 39 -5 0 -44 -19 -88 -41z"/>
<path d="M17839 8452 c40 -45 78 -85 85 -89 15 -9 -106 127 -135 152 -13 11 9
-17 50 -63z"/>
<path d="M19185 8495 c86 -120 201 -247 445 -490 264 -263 306 -308 555 -600
66 -77 171 -193 233 -258 63 -68 112 -128 112 -139 0 -19 -14 -19 -811 -14
-662 3 -813 7 -820 18 -6 9 -9 7 -9 -9 0 -18 -7 -22 -62 -28 -115 -12 -310
-45 -395 -67 -46 -11 -86 -18 -89 -15 -4 3 1 46 10 94 50 277 44 582 -14 768
-22 73 -50 139 -55 133 -2 -2 7 -33 22 -68 38 -94 53 -195 60 -385 5 -170 -13
-418 -39 -522 -9 -37 -14 -43 -37 -43 -52 0 -195 -41 -275 -79 -92 -42 -173
-116 -211 -191 -71 -140 -88 -339 -75 -850 11 -417 19 -507 66 -725 8 -38 19
-99 23 -135 8 -61 9 -62 10 -18 0 26 -12 114 -28 195 -43 215 -51 338 -53 818
-2 398 -1 438 18 540 36 190 98 278 248 350 70 33 216 75 266 75 14 0 48 9 76
19 61 23 268 64 444 87 235 30 1640 31 1640 0 0 -6 -22 -17 -50 -23 -27 -7
-107 -40 -177 -73 -327 -157 -557 -241 -1178 -430 -510 -155 -668 -220 -779
-321 -121 -111 -142 -188 -172 -618 -14 -203 -15 -272 -4 -491 18 -404 23
-422 270 -1080 91 -243 150 -429 150 -474 0 -14 4 -26 9 -26 5 0 11 -10 15
-23 3 -12 21 -41 40 -63 82 -96 233 -77 353 42 52 53 119 187 154 309 33 116
33 310 1 454 -30 134 -74 258 -123 348 -21 40 -39 77 -39 83 0 6 13 28 30 48
101 127 125 324 64 540 -15 51 -24 95 -22 97 3 3 28 1 56 -5 54 -10 138 0 170
21 15 9 14 10 -3 4 -44 -14 -154 -17 -203 -5 -47 11 -53 16 -83 68 -41 73
-170 205 -195 200 -50 -9 -2 -120 76 -176 l35 -25 -31 30 c-51 50 -84 99 -84
126 0 37 14 34 68 -14 114 -99 168 -210 74 -152 -16 10 -22 11 -15 3 7 -7 34
-25 60 -39 45 -25 49 -30 78 -111 28 -80 29 -94 30 -235 0 -130 -3 -158 -22
-208 -24 -64 -80 -146 -101 -147 -7 0 -41 9 -75 21 -43 15 -75 19 -105 15 -79
-11 -78 -23 2 -18 79 5 136 -9 136 -33 0 -31 -141 -48 -195 -23 -14 6 -25 20
-25 30 0 11 -4 16 -10 13 -22 -13 -8 -37 33 -55 54 -25 93 -25 169 1 33 11 66
18 72 16 15 -6 82 -142 112 -229 52 -148 69 -252 69 -428 0 -159 -2 -168 -32
-257 -88 -253 -188 -353 -352 -353 -69 0 -113 24 -140 78 -11 21 -38 102 -60
179 -23 78 -64 202 -92 275 -86 224 -217 585 -233 641 -46 157 -76 446 -76
722 0 198 32 616 56 730 18 86 101 187 206 251 102 62 269 122 723 259 523
158 802 260 1085 396 117 56 229 103 259 109 115 22 144 14 285 -73 82 -51
108 -49 65 3 -14 17 -22 21 -26 13 -2 -7 -9 -13 -14 -13 -17 0 -109 65 -109
78 0 15 32 16 47 1 9 -9 10 -7 6 10 -3 13 -1 21 7 21 38 0 184 -46 238 -76
167 -91 228 -176 470 -654 211 -416 333 -640 349 -640 3 0 -4 15 -15 33 -63
103 -178 318 -290 544 -213 426 -274 527 -386 638 -96 95 -244 156 -438 180
-43 6 -52 12 -110 78 -34 40 -103 115 -152 167 -49 52 -134 149 -189 215 -188
224 -240 280 -527 565 -167 165 -322 329 -370 390 -87 111 -123 152 -75 85z
m1425 -1540 c0 -8 -9 -15 -20 -15 -11 0 -20 7 -20 15 0 8 9 15 20 15 11 0 20
-7 20 -15z"/>
<path d="M18992 8448 c29 -29 52 -35 63 -18 4 6 -6 10 -21 10 -15 0 -37 8 -49
18 -11 9 -8 5 7 -10z"/>
<path d="M17960 8310 c17 -22 37 -43 43 -47 6 -4 -6 14 -27 40 -21 26 -40 47
-43 47 -3 0 10 -18 27 -40z"/>
<path d="M15534 8313 c-23 -23 -14 -123 16 -183 26 -52 60 -98 60 -82 0 6 -5
14 -11 18 -28 17 -59 110 -59 177 0 64 1 67 24 67 13 0 31 -10 40 -22 l17 -23
-11 22 c-9 20 -38 43 -54 43 -2 0 -12 -8 -22 -17z"/>
<path d="M11572 8315 c8 -27 102 -214 105 -211 4 4 -64 151 -89 190 -11 17
-18 26 -16 21z"/>
<path d="M17455 8263 c-11 -2 -76 -17 -145 -33 -113 -26 -299 -78 -620 -176
-200 -61 -511 -134 -600 -140 -104 -8 -225 8 -279 37 -23 11 -41 24 -41 28 0
4 -6 16 -14 26 -13 18 -14 18 -9 -8 6 -31 -4 -34 -49 -11 -16 9 -27 11 -24 6
3 -6 30 -20 60 -32 34 -15 58 -32 65 -47 24 -52 93 -133 134 -157 93 -54 139
-45 313 58 125 74 215 107 374 136 79 15 391 14 475 -1 93 -16 175 -40 228
-66 27 -14 51 -22 55 -19 7 7 -88 49 -159 70 -95 29 -239 46 -391 46 -133 0
-158 -3 -281 -34 -151 -38 -235 -72 -320 -129 -114 -76 -195 -95 -270 -63 -39
16 -137 122 -137 148 0 21 8 21 70 7 73 -17 225 -12 331 10 179 37 394 92 529
136 512 164 750 216 915 200 86 -8 145 -35 182 -83 27 -35 28 -42 28 -142 -1
-98 -3 -109 -32 -166 -34 -65 -78 -110 -120 -120 -13 -4 -52 -4 -85 -1 -49 4
-75 15 -146 58 -103 62 -102 61 -102 56 0 -10 188 -118 220 -127 118 -34 210
28 264 178 61 169 7 304 -138 347 -47 14 -232 19 -281 8z"/>
<path d="M15672 8153 c49 -103 80 -158 59 -102 -14 39 -100 209 -105 209 -3 0
18 -48 46 -107z"/>
<path d="M18010 8247 c0 -2 15 -16 33 -33 l32 -29 -29 33 c-28 30 -36 37 -36
29z"/>
<path d="M18159 8076 c34 -43 73 -100 87 -127 13 -27 27 -49 29 -49 20 0 -102
186 -150 230 -16 14 0 -10 34 -54z"/>
<path d="M15944 8118 l-19 -23 23 19 c21 18 27 26 19 26 -2 0 -12 -10 -23 -22z"/>
<path d="M15630 8026 c0 -2 8 -10 18 -17 15 -13 16 -12 3 4 -13 16 -21 21 -21
13z"/>
<path d="M11782 7915 c0 -38 6 -110 13 -160 l14 -90 -5 100 c-3 55 -9 127 -14
160 l-7 60 -1 -70z"/>
<path d="M18368 7863 c78 -160 121 -243 127 -243 3 0 -35 81 -85 180 -50 99
-92 180 -94 180 -3 0 21 -53 52 -117z"/>
<path d="M13888 7943 c6 -2 18 -2 25 0 6 3 1 5 -13 5 -14 0 -19 -2 -12 -5z"/>
<path d="M13948 7933 c7 -3 16 -2 19 1 4 3 -2 6 -13 5 -11 0 -14 -3 -6 -6z"/>
<path d="M13130 7910 c-19 -11 -30 -19 -25 -19 6 0 26 8 45 19 19 11 31 19 25
19 -5 0 -26 -8 -45 -19z"/>
<path d="M13998 7923 c45 -18 58 -168 21 -238 -54 -102 -147 -158 -264 -159
-38 -1 -86 2 -105 6 l-35 7 30 -14 c40 -19 151 -19 206 0 60 21 149 95 175
147 28 55 45 139 38 178 -4 19 -2 30 5 30 17 0 144 -65 231 -119 41 -25 88
-52 105 -59 30 -14 30 -14 11 7 -10 11 -28 23 -40 27 -11 4 -57 33 -101 64
-91 65 -125 84 -203 111 -48 17 -110 27 -74 12z"/>
<path d="M13850 7906 c0 -2 8 -10 18 -17 15 -13 16 -12 3 4 -13 16 -21 21 -21
13z"/>
<path d="M14265 7901 c6 -5 33 -19 60 -31 28 -12 46 -17 40 -12 -14 13 -113
56 -100 43z"/>
<path d="M16785 7903 c-16 -3 -38 -11 -48 -18 -17 -12 -14 -13 22 -8 26 4 46
1 56 -7 12 -10 15 -10 15 4 0 13 12 16 70 16 95 0 133 -17 153 -69 47 -116 -9
-257 -127 -319 -46 -24 -61 -27 -156 -27 -128 0 -182 18 -235 77 -59 65 -78
119 -78 221 0 48 -3 87 -6 87 -3 0 -13 -5 -21 -10 -10 -6 -11 -10 -2 -10 8 0
12 -21 12 -69 0 -133 56 -228 168 -283 60 -30 75 -33 157 -33 77 0 98 4 148
27 126 59 200 204 163 318 -9 27 -16 54 -16 59 0 21 39 11 127 -33 111 -56
213 -145 213 -186 0 -54 -104 -125 -279 -190 -225 -83 -420 -76 -724 24 -151
50 -170 53 -267 42 -54 -7 -68 -5 -79 8 -26 31 5 71 118 156 58 44 136 96 174
116 69 36 87 51 41 34 -72 -28 -281 -175 -329 -232 -27 -32 -33 -72 -12 -85 6
-4 62 -8 122 -9 93 0 121 -4 185 -27 151 -55 238 -77 359 -93 103 -14 136 -14
198 -4 273 44 548 196 503 279 -20 38 -134 131 -209 169 -112 59 -201 82 -302
81 -46 -1 -97 -4 -114 -6z"/>
<path d="M13880 7833 c0 -22 -3 -43 -7 -49 -5 -5 0 -1 10 9 19 21 23 62 7 72
-6 4 -10 -9 -10 -32z"/>
<path d="M16687 7852 c-9 -10 -22 -33 -28 -50 -16 -46 13 -101 66 -126 36 -17
44 -17 80 -5 69 24 94 99 50 154 -16 20 -16 20 -6 -2 17 -35 13 -88 -10 -117
-17 -21 -29 -26 -65 -26 -37 0 -51 6 -75 29 -36 37 -40 94 -8 135 23 30 20 35
-4 8z"/>
<path d="M11621 7756 c-52 -139 -53 -204 -3 -310 17 -36 33 -66 36 -66 3 0 -9
30 -26 66 -41 88 -42 186 -4 288 15 38 24 71 22 73 -2 3 -13 -21 -25 -51z"/>
<path d="M11380 7709 c0 -3 18 -44 39 -90 53 -113 97 -246 112 -342 6 -43 14
-75 16 -73 10 10 -29 201 -56 274 -26 71 -109 245 -111 231z"/>
<path d="M13130 7665 c13 -14 26 -25 28 -25 3 0 -5 11 -18 25 -13 14 -26 25
-28 25 -3 0 5 -11 18 -25z"/>
<path d="M14455 7670 c10 -11 20 -20 23 -20 3 0 -3 9 -13 20 -10 11 -20 20
-23 20 -3 0 3 -9 13 -20z"/>
<path d="M11812 7620 c0 -19 2 -27 5 -17 2 9 2 25 0 35 -3 9 -5 1 -5 -18z"/>
<path d="M14490 7626 c0 -2 8 -10 18 -17 15 -13 16 -12 3 4 -13 16 -21 21 -21
13z"/>
<path d="M13206 7608 c9 -14 128 -76 194 -101 95 -35 191 -50 315 -50 120 0
189 8 425 54 133 26 171 30 265 25 80 -3 95 -2 55 4 -86 13 -183 11 -257 -4
-169 -36 -354 -58 -488 -58 -182 -1 -274 18 -412 87 -56 28 -100 48 -97 43z"/>
<path d="M13014 7544 c8 -185 154 -341 374 -400 83 -22 244 -29 343 -15 139
20 328 91 500 188 84 47 209 131 209 139 0 7 -17 -3 -55 -31 -53 -39 -218
-130 -310 -172 -190 -87 -352 -120 -535 -110 -305 17 -471 143 -515 394 l-14
78 3 -71z"/>
<path d="M14520 7565 c1 -26 2 -28 11 -12 8 14 8 22 0 30 -8 8 -11 3 -11 -18z"/>
<path d="M18551 7513 c23 -43 49 -85 57 -93 8 -8 5 3 -8 25 -12 22 -36 64 -52
93 -47 82 -44 61 3 -25z"/>
<path d="M18625 7390 c17 -31 125 -186 150 -215 21 -24 20 -21 -4 15 -17 25
-54 79 -83 120 -49 73 -80 112 -63 80z"/>
<path d="M11769 7155 c19 -46 37 -82 39 -80 5 4 -58 154 -67 160 -5 2 8 -33
28 -80z"/>
<path d="M18800 7136 c0 -2 8 -10 18 -17 15 -13 16 -12 3 4 -13 16 -21 21 -21
13z"/>
<path d="M18850 7070 c12 -16 24 -30 26 -30 3 0 -4 14 -16 30 -12 17 -24 30
-26 30 -3 0 4 -13 16 -30z"/>
<path d="M11811 7055 c1 -19 18 -51 18 -35 0 8 -4 22 -9 30 -5 8 -9 11 -9 5z"/>
<path d="M14374 6143 c-89 -97 -141 -237 -129 -348 17 -164 124 -274 296 -306
80 -15 112 -4 79 26 -20 18 -20 18 -20 -4 0 -20 -4 -22 -32 -16 -18 3 -67 18
-108 32 -129 46 -183 123 -197 278 -10 124 31 238 120 332 27 29 46 53 42 53
-5 0 -28 -21 -51 -47z"/>
<path d="M15956 6060 c47 -96 67 -179 66 -278 0 -154 -70 -248 -223 -301 -30
-10 -74 -22 -97 -26 -34 -5 -42 -4 -42 9 0 8 12 23 28 33 38 25 51 44 52 74 1
93 -163 60 -290 -58 -33 -30 -60 -60 -60 -66 0 -6 28 16 63 50 73 73 151 113
220 113 l47 0 0 -35 c0 -26 -7 -41 -27 -58 -15 -12 -43 -37 -61 -55 -33 -31
-34 -35 -30 -88 3 -30 10 -60 17 -67 10 -9 10 -6 2 16 -18 46 -14 85 10 98 12
6 57 20 101 30 141 34 229 93 275 187 25 52 28 66 27 162 0 92 -4 115 -31 185
-32 84 -64 145 -74 145 -4 0 9 -32 27 -70z"/>
<path d="M19565 5896 c-66 -70 -188 -342 -200 -447 -6 -49 -11 -58 -63 -108
-47 -44 -49 -47 -15 -21 24 17 45 36 48 41 12 18 31 8 49 -26 10 -19 28 -42
39 -52 16 -14 14 -9 -6 22 -44 68 -45 91 -4 133 110 115 234 384 213 465 -9
36 -22 34 -61 -7z m45 -30 c0 -78 -74 -250 -155 -361 -41 -56 -75 -72 -75 -35
0 55 135 356 183 408 30 32 47 28 47 -12z"/>
<path d="M14855 5650 c10 -11 20 -20 23 -20 3 0 -3 9 -13 20 -10 11 -20 20
-23 20 -3 0 3 -9 13 -20z"/>
<path d="M14546 5644 c-24 -23 -19 -50 15 -86 l31 -33 -26 34 c-29 37 -31 68
-4 85 13 8 33 7 77 -5 33 -8 58 -12 56 -8 -6 8 -86 29 -114 29 -11 0 -27 -7
-35 -16z"/>
<path d="M14895 5619 c12 -18 120 -66 190 -83 39 -10 78 -22 89 -28 13 -7 17
-6 14 3 -2 7 -31 18 -64 25 -74 16 -136 38 -191 69 -24 13 -41 20 -38 14z"/>
<path d="M14776 5570 c90 -112 98 -146 22 -100 -54 33 -56 23 -2 -12 67 -42
202 -106 242 -114 28 -6 32 -4 32 14 0 13 8 22 23 25 12 2 -2 5 -32 6 -75 2
-148 44 -236 135 -38 39 -61 60 -49 46z"/>
<path d="M21767 5542 c15 -28 36 -62 46 -75 21 -26 -30 68 -56 104 -10 13 -5
0 10 -29z"/>
<path d="M20169 5419 c-61 -33 -169 -131 -188 -169 -12 -24 -11 -24 4 -5 40
51 115 120 166 151 85 51 150 42 119 -16 -9 -17 -9 -21 0 -15 18 11 28 48 18
68 -13 25 -55 21 -119 -14z"/>
<path d="M21840 5420 c6 -11 13 -20 16 -20 2 0 0 9 -6 20 -6 11 -13 20 -16 20
-2 0 0 -9 6 -20z"/>
<path d="M15325 5395 c-39 -33 -76 -44 -171 -54 l-79 -8 61 -2 c77 -1 150 20
194 58 42 36 38 41 -5 6z"/>
<path d="M21872 5368 c8 -13 45 -74 82 -135 38 -62 70 -113 73 -113 6 0 8 -4
-81 143 -43 70 -80 127 -83 127 -3 0 1 -10 9 -22z"/>
<path d="M20219 5313 c-13 -16 -12 -17 4 -4 9 7 17 15 17 17 0 8 -8 3 -21 -13z"/>
<path d="M14613 5290 c-35 -16 -63 -31 -63 -35 0 -3 9 -1 19 5 47 24 56 -3 15
-41 -63 -57 -212 -275 -278 -407 -54 -107 -43 -101 15 8 82 156 196 318 282
403 43 43 77 82 75 86 -2 5 -31 -4 -65 -19z"/>
<path d="M14722 5254 c-40 -39 -42 -42 -11 -20 42 30 59 33 59 9 1 -13 5 -10
16 10 15 27 12 47 -7 47 -6 0 -31 -21 -57 -46z"/>
<path d="M20179 5283 c-13 -16 -12 -17 4 -4 9 7 17 15 17 17 0 8 -8 3 -21 -13z"/>
<path d="M15673 5246 c26 -24 67 -59 90 -77 61 -47 24 -12 -63 61 -48 40 -58
46 -27 16z"/>
<path d="M15554 5244 c3 -22 29 -89 57 -149 55 -118 126 -322 136 -392 5 -36
3 -43 -11 -43 -20 0 -109 181 -200 406 -59 144 -93 211 -103 201 -13 -14 -2
-94 27 -196 40 -142 80 -318 80 -355 0 -24 -3 -27 -21 -23 -20 5 -20 5 -4 -13
52 -58 44 46 -25 314 -27 110 -48 201 -46 204 16 15 38 -21 85 -144 90 -231
200 -444 231 -444 37 0 -39 270 -134 477 -49 106 -55 133 -32 133 19 0 56 -49
95 -127 17 -35 34 -63 37 -63 17 0 -84 163 -127 205 l-51 50 6 -41z"/>
<path d="M14890 5248 c-19 -13 -49 -45 -68 -73 l-35 -50 47 53 c49 53 76 66
76 35 1 -15 2 -16 9 -3 15 27 23 60 13 60 -5 0 -24 -10 -42 -22z"/>
<path d="M19474 5242 c27 -29 28 -35 22 -86 -9 -81 -61 -273 -101 -378 -37
-94 -164 -332 -236 -441 -22 -33 -37 -62 -34 -65 6 -7 2 -13 69 96 77 127 178
321 215 415 41 103 101 331 101 384 0 24 5 43 13 46 7 3 5 6 -5 6 -10 1 -18 4
-18 9 0 4 -13 16 -28 26 l-27 19 29 -31z"/>
<path d="M20075 5224 c-91 -50 -120 -56 -112 -23 5 17 -1 14 -22 -12 l-29 -34
-98 1 c-92 0 -129 7 -261 50 -15 5 -16 4 -3 -5 8 -6 50 -22 93 -36 60 -19 99
-25 173 -25 106 0 109 -2 78 -76 -22 -53 -30 -217 -14 -285 7 -29 34 -108 61
-175 60 -155 82 -229 113 -389 40 -203 44 -242 66 -545 11 -157 22 -303 25
-325 60 -518 157 -838 341 -1115 176 -266 385 -382 585 -324 48 14 179 79 179
89 0 2 -38 -14 -85 -36 -107 -50 -176 -64 -261 -50 -87 13 -174 62 -263 146
-89 85 -141 156 -215 295 -173 328 -249 670 -286 1280 -25 417 -74 682 -176
947 -75 194 -89 268 -75 386 6 51 19 114 29 141 17 44 23 50 71 67 52 18 116
52 156 83 31 24 16 18 -70 -30z"/>
<path d="M14380 5145 c-164 -111 -229 -142 -474 -231 -82 -29 -173 -68 -204
-86 -61 -37 -158 -137 -197 -204 -57 -97 -114 -296 -107 -377 3 -32 6 -36 21
-27 10 5 21 18 23 28 4 15 1 18 -14 14 -18 -4 -19 -1 -13 44 23 171 95 334
186 426 77 76 142 111 317 172 167 59 292 113 368 162 54 34 226 156 249 176
29 25 -17 -4 -155 -97z"/>
<path d="M15296 5199 c-9 -44 -6 -86 9 -144 l13 -50 -5 73 c-5 58 -3 72 8 72
10 0 37 -67 82 -203 37 -112 74 -212 82 -223 8 -11 3 12 -11 51 -14 39 -50
142 -78 230 -47 143 -80 225 -90 225 -2 0 -6 -14 -10 -31z"/>
<path d="M14692 5125 c-27 -36 -56 -80 -66 -98 -16 -31 -16 -31 1 -7 77 106
121 170 118 170 -3 0 -27 -29 -53 -65z"/>
<path d="M14841 5071 c-34 -66 -61 -123 -61 -128 0 -8 112 201 123 231 4 9 5
16 2 16 -2 0 -31 -54 -64 -119z"/>
<path d="M14959 5143 c-25 -41 -51 -104 -45 -110 1 -2 11 17 20 42 21 54 46
60 46 11 0 -32 -19 -112 -74 -309 -14 -49 -22 -95 -19 -103 6 -16 29 -19 38
-4 3 6 -1 10 -9 10 -24 0 -20 25 24 176 69 234 78 383 19 287z"/>
<path d="M15200 5115 c0 -21 5 -66 10 -99 6 -34 14 -115 19 -181 l8 -120 2 91
c0 50 -4 128 -10 174 -9 62 -8 84 0 90 15 9 5 54 -15 71 -12 9 -14 5 -14 -26z"/>
<path d="M14589 5113 c-43 -48 -62 -73 -57 -73 3 0 24 23 47 50 45 53 52 69
10 23z"/>
<path d="M15065 5122 c-3 -9 -13 -53 -21 -97 -8 -44 -24 -113 -35 -154 -14
-53 -17 -76 -9 -81 7 -4 10 -31 8 -68 -1 -33 1 -64 6 -69 9 -9 46 33 45 51 0
7 -2 7 -6 -1 -2 -7 -12 -13 -20 -13 -13 0 -15 10 -9 64 6 56 38 221 52 269 3
9 12 17 21 17 14 0 15 -11 9 -82 -3 -46 -8 -96 -11 -113 l-5 -30 10 30 c6 17
13 65 17 108 4 52 10 77 19 77 12 0 17 -28 30 -195 6 -83 36 -171 54 -160 15
9 12 35 -4 35 -18 0 -33 67 -46 208 -5 62 -12 117 -15 122 -3 4 -13 6 -23 3
-19 -5 -42 31 -42 67 0 26 -16 34 -25 12z"/>
<path d="M14744 5064 c-20 -31 -54 -91 -77 -133 -22 -42 -62 -107 -87 -146
-58 -87 -62 -95 -56 -95 9 0 135 195 151 234 9 21 38 74 65 117 27 44 47 79
44 79 -2 0 -20 -25 -40 -56z"/>
<path d="M22040 5090 c6 -11 13 -20 16 -20 2 0 0 9 -6 20 -6 11 -13 20 -16 20
-2 0 0 -9 6 -20z"/>
<path d="M15919 5062 c27 -22 161 -96 161 -89 0 3 -30 22 -67 43 -38 20 -79
44 -93 52 l-25 14 24 -20z"/>
<path d="M22063 5053 c53 -96 124 -204 86 -130 -21 40 -82 137 -86 137 -2 0
-2 -3 0 -7z"/>
<path d="M14509 5013 c-13 -16 -12 -17 4 -4 9 7 17 15 17 17 0 8 -8 3 -21 -13z"/>
<path d="M14260 4974 c-36 -34 -55 -45 -70 -41 -48 12 -139 -67 -269 -233 -38
-49 -131 -218 -131 -237 0 -5 22 33 48 82 26 50 58 106 72 125 29 43 137 168
165 192 43 37 61 9 27 -40 -58 -83 -36 -66 28 23 30 41 62 75 71 75 8 0 28 14
44 30 31 32 55 39 55 16 0 -8 -17 -36 -37 -63 -45 -58 -246 -376 -233 -368 4
3 46 65 92 138 45 72 113 175 150 228 38 53 68 101 68 108 0 23 -33 9 -80 -35z"/>
<path d="M14891 4989 c-6 -18 -9 -34 -7 -36 2 -2 9 10 15 28 6 18 9 34 7 36
-2 2 -9 -10 -15 -28z"/>
<path d="M15272 4980 c0 -14 2 -19 5 -12 2 6 2 18 0 25 -3 6 -5 1 -5 -13z"/>
<path d="M15321 4985 c0 -11 7 -49 14 -85 l15 -65 -6 56 c-6 61 -22 129 -23
94z"/>
<path d="M15848 4788 c59 -119 108 -215 110 -213 4 4 -183 385 -202 410 -8 11
33 -78 92 -197z"/>
<path d="M14467 4953 c-23 -37 -102 -174 -126 -220 -6 -13 -10 -23 -7 -23 3 0
24 35 47 78 24 42 60 105 81 140 21 34 36 62 33 62 -3 0 -15 -17 -28 -37z"/>
<path d="M14568 4938 c-22 -34 -42 -74 -31 -63 14 15 55 85 50 85 -3 0 -11
-10 -19 -22z"/>
<path d="M15281 4940 c-2 -29 31 -194 45 -229 21 -50 34 -25 32 59 -1 48 -2
54 -5 23 -5 -55 -30 -58 -38 -5 -13 76 -33 167 -34 152z"/>
<path d="M15927 4943 c-13 -13 -6 -50 27 -148 19 -55 35 -96 35 -91 1 6 -13
54 -31 108 -18 53 -29 101 -25 105 5 4 18 1 30 -6 21 -13 21 -12 -2 13 -28 29
-25 28 -34 19z"/>
<path d="M16130 4945 c0 -2 23 -17 52 -31 121 -61 237 -142 311 -216 43 -43
70 -66 59 -51 -44 61 -165 163 -252 212 -88 50 -170 92 -170 86z"/>
<path d="M14866 4925 c-9 -26 -7 -32 5 -12 6 10 9 21 6 23 -2 3 -7 -2 -11 -11z"/>
<path d="M14752 4885 c-17 -37 -14 -45 4 -12 9 16 14 31 11 33 -2 2 -9 -7 -15
-21z"/>
<path d="M14822 4812 c-60 -148 -147 -197 -119 -67 l6 30 -14 -30 c-16 -35
-19 -81 -5 -90 17 -10 69 24 95 63 26 39 79 162 72 168 -2 2 -17 -31 -35 -74z"/>
<path d="M22180 4850 c6 -11 13 -20 16 -20 2 0 0 9 -6 20 -6 11 -13 20 -16 20
-2 0 0 -9 6 -20z"/>
<path d="M13879 4829 c-24 -20 -24 -20 -1 -7 19 11 24 11 32 -2 8 -13 10 -13
10 2 0 27 -16 30 -41 7z"/>
<path d="M16157 4837 c-3 -9 3 -13 16 -13 16 1 31 -19 69 -89 26 -49 48 -87
48 -82 0 19 -91 185 -105 191 -22 8 -22 8 -28 -7z"/>
<path d="M14495 4809 c-9 -17 -15 -33 -13 -35 3 -2 12 12 21 31 21 43 13 47
-8 4z"/>
<path d="M14726 4825 c-9 -26 -7 -32 5 -12 6 10 9 21 6 23 -2 3 -7 -2 -11 -11z"/>
<path d="M16010 4835 c0 -5 5 -17 10 -25 5 -8 10 -10 10 -5 0 6 -5 17 -10 25
-5 8 -10 11 -10 5z"/>
<path d="M22215 4789 c71 -137 289 -498 402 -666 138 -206 283 -413 289 -413
2 0 -32 53 -77 118 -239 345 -402 603 -563 890 -32 56 -60 102 -62 102 -3 0 3
-14 11 -31z"/>
<path d="M15081 4794 c0 -11 3 -14 6 -6 3 7 2 16 -1 19 -3 4 -6 -2 -5 -13z"/>
<path d="M13807 4733 c-56 -88 -110 -183 -104 -183 3 0 25 34 49 75 23 41 49
75 56 75 15 0 15 -15 1 -43 -17 -32 -6 -19 33 38 37 54 59 94 32 58 -32 -45
-60 -20 -28 25 8 12 13 22 10 22 -4 0 -25 -30 -49 -67z"/>
<path d="M17810 4780 c0 -32 -78 -288 -123 -405 -53 -136 -127 -289 -190 -391
l-56 -90 -68 -14 c-146 -28 -279 -90 -428 -196 -70 -50 -189 -164 -225 -214
-13 -19 13 4 59 52 98 104 201 183 314 243 86 46 291 114 304 102 18 -19 -102
-176 -294 -384 -120 -130 -240 -269 -351 -405 -48 -59 -94 -107 -103 -107 -25
-1 -52 65 -57 135 -5 75 15 152 68 252 21 40 32 68 26 62 -25 -20 -96 -177
-107 -235 -13 -69 -1 -141 31 -190 11 -16 20 -39 20 -50 0 -11 -32 -61 -72
-110 -40 -50 -65 -85 -57 -78 8 6 43 48 79 92 36 45 69 81 74 81 5 0 37 -11
70 -24 59 -23 74 -24 476 -34 445 -12 645 -29 869 -78 64 -13 193 -40 286 -60
237 -49 316 -70 420 -111 115 -45 388 -200 564 -318 347 -234 654 -410 805
-461 83 -29 258 -66 416 -89 271 -40 455 -116 616 -254 23 -20 16 -12 -15 17
-112 107 -290 190 -486 228 -66 13 -192 36 -280 53 -88 16 -187 37 -220 46
-138 38 -366 166 -787 439 -498 323 -615 378 -968 451 -96 19 -236 49 -310 65
-135 30 -264 51 -434 71 -50 6 -275 14 -501 17 -403 7 -411 8 -457 30 -27 13
-48 29 -48 34 0 24 179 236 439 519 105 114 284 330 322 389 l16 25 291 4
c337 4 297 20 335 -139 14 -58 33 -123 42 -145 18 -46 15 -33 -26 124 -16 62
-29 122 -29 132 0 44 102 1 160 -68 18 -21 27 -28 21 -17 -19 38 -103 104
-149 117 l-46 14 -37 174 c-44 209 -122 518 -151 597 -44 123 -47 129 -48 102z
m74 -232 c55 -202 136 -565 136 -611 l0 -32 -275 0 c-151 0 -275 3 -275 6 0 3
26 48 57 100 98 163 181 362 258 622 15 50 32 87 39 87 8 0 30 -64 60 -172z"/>
<path d="M16040 4766 c0 -12 127 -259 145 -281 9 -11 -19 48 -61 130 -81 158
-84 163 -84 151z"/>
<path d="M14451 4699 c-24 -73 -26 -99 -8 -99 13 0 43 29 62 60 6 9 1 6 -10
-7 -23 -26 -45 -30 -45 -10 0 8 7 36 15 62 21 72 11 67 -14 -6z"/>
<path d="M16181 4730 c0 -8 4 -24 9 -35 5 -13 9 -14 9 -5 0 8 -4 24 -9 35 -5
13 -9 14 -9 5z"/>
<path d="M13654 4705 c-19 -14 -18 -14 4 -15 31 0 28 -19 -14 -118 -20 -46
-34 -85 -32 -87 2 -3 23 41 46 96 50 118 49 164 -4 124z"/>
<path d="M16380 4683 c0 -22 2 -25 10 -13 26 41 71 -44 140 -267 21 -69 43
-130 48 -135 12 -12 -48 187 -87 289 -50 128 -111 198 -111 126z"/>
<path d="M14246 4685 c-9 -26 -7 -32 5 -12 6 10 9 21 6 23 -2 3 -7 -2 -11 -11z"/>
<path d="M14288 4638 c-35 -64 -63 -84 -71 -51 -3 13 -5 11 -6 -7 -1 -24 14
-59 21 -50 33 45 102 170 94 170 -2 0 -20 -28 -38 -62z"/>
<path d="M15991 4680 c0 -8 4 -24 9 -35 5 -13 9 -14 9 -5 0 8 -4 24 -9 35 -5
13 -9 14 -9 5z"/>
<path d="M13619 4663 c-13 -16 -12 -17 4 -4 16 13 21 21 13 21 -2 0 -10 -8
-17 -17z"/>
<path d="M16206 4645 c3 -16 12 -59 20 -95 19 -91 18 -103 -6 -97 -20 5 -19
-2 3 -31 8 -11 12 -11 18 0 16 25 9 103 -16 178 -14 41 -22 62 -19 45z"/>
<path d="M14226 4635 c-9 -26 -7 -32 5 -12 6 10 9 21 6 23 -2 3 -7 -2 -11 -11z"/>
<path d="M13581 4604 c-12 -20 -20 -38 -18 -40 2 -2 14 14 26 36 28 50 21 53
-8 4z"/>
<path d="M16296 4625 c87 -248 128 -345 145 -345 10 0 22 82 16 106 -3 11 -5
0 -6 -24 -1 -36 -4 -43 -18 -40 -13 2 -33 44 -70 145 -28 78 -56 150 -63 160
-11 17 -11 17 -4 -2z"/>
<path d="M16396 4615 c11 -48 25 -76 18 -35 -4 19 -10 42 -15 50 -6 10 -7 5
-3 -15z"/>
<path d="M13773 4583 c-11 -26 -30 -78 -42 -115 -20 -60 -21 -72 -9 -104 11
-32 11 -37 -6 -46 -11 -6 -60 -47 -109 -92 -170 -155 -244 -193 -353 -184 -62
5 -64 0 -5 -13 30 -7 54 -4 103 11 81 25 129 57 248 165 139 127 160 140 230
138 32 -1 85 -10 117 -20 48 -14 99 -17 308 -17 138 0 331 3 430 8 l180 9 92
-37 c108 -42 182 -47 249 -17 98 45 235 52 443 25 106 -15 144 -15 277 -5 142
11 282 37 322 60 12 8 -7 10 -70 11 -70 0 -88 -3 -88 -14 0 -18 -15 -23 -120
-36 -119 -14 -231 -13 -362 6 -150 21 -269 15 -371 -20 -110 -37 -172 -35
-294 10 -97 35 -99 35 -218 30 -262 -13 -590 -18 -671 -11 -70 6 -85 10 -82
23 2 11 25 19 83 29 114 19 345 86 498 145 251 96 279 97 445 12 131 -68 149
-68 272 -8 160 77 210 73 450 -44 174 -84 238 -108 307 -116 37 -5 28 -1 -38
18 -48 14 -165 63 -260 109 -257 125 -292 128 -460 47 -119 -57 -150 -56 -288
16 -99 52 -113 56 -172 56 -53 0 -86 -9 -191 -51 -266 -105 -558 -179 -770
-196 -75 -6 -88 -4 -88 8 0 11 -7 13 -22 9 -19 -5 -21 -2 -15 26 4 17 22 73
41 124 37 98 43 131 9 51z"/>
<path d="M13960 4546 c-31 -95 -25 -110 25 -62 22 22 31 32 19 23 -44 -36 -55
-15 -28 53 9 23 14 43 11 46 -3 3 -15 -24 -27 -60z"/>
<path d="M16026 4546 c5 -46 5 -48 -16 -43 -21 5 -21 5 -4 -14 9 -10 21 -19
26 -19 10 0 9 54 -3 95 -6 22 -7 18 -3 -19z"/>
<path d="M16607 4545 c9 -19 18 -33 21 -31 4 5 -26 66 -33 66 -3 0 3 -16 12
-35z"/>
<path d="M13542 4525 c-17 -37 -14 -45 4 -12 9 16 14 31 11 33 -2 2 -9 -7 -15
-21z"/>
<path d="M13658 4475 c-31 -63 -57 -84 -59 -47 -2 32 -27 -63 -27 -103 l0 -40
10 30 c6 17 21 46 33 65 31 50 86 160 80 160 -3 0 -20 -29 -37 -65z"/>
<path d="M16421 4524 c0 -11 3 -14 6 -6 3 7 2 16 -1 19 -3 4 -6 -2 -5 -13z"/>
<path d="M16540 4535 c0 -2 11 -21 25 -41 28 -42 31 -39 11 11 -8 19 -20 35
-25 35 -6 0 -11 -2 -11 -5z"/>
<path d="M16432 4485 c0 -11 4 -33 8 -50 7 -27 8 -27 8 -5 0 14 -4 36 -8 50
-6 20 -8 21 -8 5z"/>
<path d="M13516 4465 c-9 -26 -7 -32 5 -12 6 10 9 21 6 23 -2 3 -7 -2 -11 -11z"/>
<path d="M16594 4430 c18 -84 69 -290 72 -287 6 5 -52 256 -66 287 l-11 25 5
-25z"/>
<path d="M13482 4373 c-37 -108 -35 -100 -22 -80 15 23 51 129 46 134 -2 2
-13 -22 -24 -54z"/>
<path d="M16662 4415 c-1 -5 5 -37 13 -70 8 -37 13 -49 13 -30 0 27 -25 124
-26 100z"/>
<path d="M16697 4208 c5 -64 3 -77 -10 -80 -11 -2 -14 -7 -8 -17 26 -41 41 66
21 144 -5 18 -6 -1 -3 -47z"/>
<path d="M14113 4186 c128 -123 386 -267 551 -308 76 -19 86 -24 86 -43 0 -19
11 -26 68 -44 79 -25 187 -40 292 -41 111 0 240 -18 283 -39 23 -12 33 -14 27
-6 -23 28 -108 46 -260 56 -247 16 -370 37 -370 62 0 10 54 13 228 13 446 2
590 40 822 216 91 69 162 133 135 119 -11 -5 -46 -32 -77 -59 -85 -75 -214
-157 -298 -190 -126 -50 -193 -57 -535 -57 -306 0 -311 1 -408 27 -168 46
-355 149 -526 288 l-76 62 58 -56z"/>
<path d="M18264 3725 c39 -81 54 -195 40 -298 -5 -36 -11 -47 -28 -50 -16 -3
-11 -8 27 -25 34 -15 57 -20 75 -15 24 7 22 8 -18 13 l-45 5 2 40 c1 22 3 72
5 110 3 75 -26 191 -57 230 -15 19 -15 18 -1 -10z"/>
<path d="M22930 3670 c12 -16 24 -30 26 -30 3 0 -4 14 -16 30 -12 17 -24 30
-26 30 -3 0 4 -13 16 -30z"/>
<path d="M15459 3652 c18 -34 13 -106 -9 -134 -31 -40 -108 -67 -222 -78 -343
-36 -495 -66 -624 -125 -239 -109 -377 -294 -377 -504 0 -77 24 -163 58 -207
8 -10 3 8 -11 40 -48 107 -43 257 14 376 34 70 166 205 245 249 78 43 240 96
352 115 50 9 161 22 248 31 182 17 196 20 259 51 49 25 85 63 94 100 6 25 -12
90 -28 100 -6 4 -6 -1 1 -14z"/>
<path d="M23010 3557 c29 -43 58 -81 64 -84 12 -8 -79 124 -102 147 -8 8 9
-20 38 -63z"/>
<path d="M18136 3540 c10 -37 42 -97 56 -106 10 -6 11 -5 1 7 -7 9 -24 40 -38
70 -14 30 -22 43 -19 29z"/>
<path d="M23121 3398 c64 -93 171 -238 176 -238 2 0 -11 21 -29 48 -19 26 -63
86 -97 135 -35 48 -65 87 -68 87 -2 0 6 -15 18 -32z"/>
<path d="M18220 3406 c0 -2 8 -10 18 -17 15 -13 16 -12 3 4 -13 16 -21 21 -21
13z"/>
<path d="M23319 3123 c12 -18 24 -33 27 -33 9 0 -15 37 -33 51 -12 10 -11 5 6
-18z"/>
<path d="M23359 3063 c6 -10 22 -31 36 -48 22 -25 22 -23 -5 18 -30 45 -51 66
-31 30z"/>
<path d="M23448 2940 c41 -69 241 -346 287 -395 l46 -50 -51 65 c-28 36 -101
136 -163 223 -126 178 -148 208 -119 157z"/>
<path d="M14318 2555 c59 -87 175 -168 301 -210 173 -57 377 -68 663 -35 95
10 196 21 223 23 28 3 -11 3 -85 0 -74 -2 -157 -8 -185 -13 -27 -5 -127 -9
-222 -9 -270 -1 -432 37 -570 135 -33 24 -80 65 -103 91 -24 27 -33 35 -22 18z"/>
<path d="M23820 2450 c25 -23 63 -56 85 -72 43 -33 37 -27 -65 64 -61 54 -76
60 -20 8z"/>
<path d="M23965 2330 c10 -11 20 -20 23 -20 3 0 -3 9 -13 20 -10 11 -20 20
-23 20 -3 0 3 -9 13 -20z"/>
<path d="M24040 2265 c19 -19 36 -35 39 -35 3 0 -10 16 -29 35 -19 19 -36 35
-39 35 -3 0 10 -16 29 -35z"/>
<path d="M24201 2115 c113 -118 125 -135 195 -268 63 -120 72 -123 13 -4 -57
114 -113 188 -215 287 l-89 85 96 -100z"/>
<path d="M21494 2141 c-54 -27 -108 -56 -119 -65 -11 -9 25 6 80 33 168 82
206 87 191 26 -9 -36 -97 -128 -170 -177 -129 -89 -258 -126 -393 -114 -83 7
-101 -8 -20 -17 74 -7 191 7 259 33 161 60 364 243 343 310 -11 34 -62 25
-171 -29z"/>
<path d="M21303 2034 c-24 -14 -43 -27 -43 -30 0 -6 67 33 85 48 17 15 1 8
-42 -18z"/>
<path d="M24450 1735 c0 -5 5 -17 10 -25 5 -8 10 -10 10 -5 0 6 -5 17 -10 25
-5 8 -10 11 -10 5z"/>
<path d="M24470 1689 c0 -22 240 -572 247 -565 3 2 -3 18 -11 35 -9 17 -64
142 -122 278 -97 228 -114 265 -114 252z"/>
<path d="M21260 1415 c13 -14 26 -25 28 -25 3 0 -5 11 -18 25 -13 14 -26 25
-28 25 -3 0 5 -11 18 -25z"/>
<path d="M21290 1376 c0 -2 8 -10 18 -17 15 -13 16 -12 3 4 -13 16 -21 21 -21
13z"/>
<path d="M21340 1306 c0 -2 8 -10 18 -17 15 -13 16 -12 3 4 -13 16 -21 21 -21
13z"/>
<path d="M21478 1061 c37 -77 68 -138 70 -136 5 4 -125 275 -132 275 -2 0 26
-63 62 -139z"/>
<path d="M24720 1106 c0 -11 50 -106 55 -106 3 0 -7 24 -21 53 -28 55 -34 65
-34 53z"/>
<path d="M21550 905 c0 -5 5 -17 10 -25 5 -8 10 -10 10 -5 0 6 -5 17 -10 25
-5 8 -10 11 -10 5z"/>
<path d="M21570 855 c0 -5 5 -17 10 -25 5 -8 10 -10 10 -5 0 6 -5 17 -10 25
-5 8 -10 11 -10 5z"/>
<path d="M21592 800 c29 -79 101 -250 105 -247 4 5 -94 248 -104 256 -3 3 -4
-1 -1 -9z"/>
</g>
</svg>
