<?xml version="1.0" standalone="no"?>
<!DOCTYPE svg PUBLIC "-//W3C//DTD SVG 20010904//EN"
 "http://www.w3.org/TR/2001/REC-SVG-20010904/DTD/svg10.dtd">
<svg version="1.0" xmlns="http://www.w3.org/2000/svg"
 width="2752.000000pt" height="1536.000000pt" viewBox="0 0 2752.000000 1536.000000"
 preserveAspectRatio="xMidYMid meet">
<metadata>
Created by potrace 1.16, written by Peter Selinger 2001-2019
</metadata>
<g transform="translate(0.000000,1536.000000) scale(0.100000,-0.100000)"
fill="#000000" stroke="none">
<path d="M15218 14113 c7 -3 16 -2 19 1 4 3 -2 6 -13 5 -11 0 -14 -3 -6 -6z"/>
<path d="M16286 12039 c3 -5 24 -9 46 -9 51 0 47 5 -10 13 -24 3 -40 1 -36 -4z"/>
<path d="M16968 11973 c6 -2 18 -2 25 0 6 3 1 5 -13 5 -14 0 -19 -2 -12 -5z"/>
<path d="M11291 10444 c0 -11 3 -14 6 -6 3 7 2 16 -1 19 -3 4 -6 -2 -5 -13z"/>
<path d="M18881 8894 c0 -11 3 -14 6 -6 3 7 2 16 -1 19 -3 4 -6 -2 -5 -13z"/>
<path d="M13868 8013 c7 -3 16 -2 19 1 4 3 -2 6 -13 5 -11 0 -14 -3 -6 -6z"/>
<path d="M13603 7975 c0 -14 33 -21 82 -17 11 1 34 2 51 2 20 1 31 6 31 15 0
12 -17 15 -82 15 -66 0 -82 -3 -82 -15z"/>
<path d="M13410 7911 c-54 -17 -143 -60 -127 -61 4 0 27 10 50 21 23 12 53 23
67 24 24 2 96 34 75 34 -5 0 -35 -8 -65 -18z"/>
<path d="M11801 7523 c-1 -23 4 -33 14 -33 12 0 13 5 7 18 -5 9 -12 24 -15 32
-3 8 -6 0 -6 -17z"/>
<path d="M20540 6980 c-8 -5 -33 -10 -55 -11 -29 -1 -21 -4 29 -10 54 -6 72
-5 83 7 13 12 12 14 0 14 -9 0 -21 2 -29 5 -7 3 -20 0 -28 -5z"/>
<path d="M11897 6773 c-3 -5 -1 -28 3 -53 l7 -45 2 53 c1 49 -2 62 -12 45z"/>
<path d="M11921 6454 c0 -11 3 -14 6 -6 3 7 2 16 -1 19 -3 4 -6 -2 -5 -13z"/>
<path d="M15640 5455 c-11 -13 -10 -14 4 -9 9 3 16 10 16 15 0 13 -6 11 -20
-6z"/>
<path d="M14866 5442 c-4 -7 94 -62 111 -62 6 0 -39 30 -94 63 -6 4 -14 4 -17
-1z"/>
<path d="M15048 5363 c7 -3 16 -2 19 1 4 3 -2 6 -13 5 -11 0 -14 -3 -6 -6z"/>
<path d="M14902 5241 c-11 -7 -11 -9 2 -14 10 -4 16 -1 16 8 0 17 -1 17 -18 6z"/>
<path d="M15440 5235 c0 -5 5 -17 10 -25 5 -8 10 -10 10 -5 0 6 -5 17 -10 25
-5 8 -10 11 -10 5z"/>
<path d="M15311 5174 c0 -11 3 -14 6 -6 3 7 2 16 -1 19 -3 4 -6 -2 -5 -13z"/>
<path d="M15068 5060 c-6 -38 -3 -49 10 -34 5 5 6 23 2 39 l-6 30 -6 -35z"/>
<path d="M15331 4754 c0 -11 3 -14 6 -6 3 7 2 16 -1 19 -3 4 -6 -2 -5 -13z"/>
<path d="M13410 4244 c0 -8 5 -12 10 -9 6 4 8 11 5 16 -9 14 -15 11 -15 -7z"/>
</g>
</svg>
