<?xml version="1.0" standalone="no"?>
<!DOCTYPE svg PUBLIC "-//W3C//DTD SVG 20010904//EN"
 "http://www.w3.org/TR/2001/REC-SVG-20010904/DTD/svg10.dtd">
<svg version="1.0" xmlns="http://www.w3.org/2000/svg"
 width="2752.000000pt" height="1536.000000pt" viewBox="0 0 2752.000000 1536.000000"
 preserveAspectRatio="xMidYMid meet">
<metadata>
Created by potrace 1.16, written by Peter Selinger 2001-2019
</metadata>
<g transform="translate(0.000000,1536.000000) scale(0.100000,-0.100000)"
fill="#000000" stroke="none">
<path d="M15648 14635 c-42 -8 -141 -30 -220 -49 -78 -19 -178 -40 -221 -47
-110 -17 -295 -6 -427 26 -357 85 -610 88 -862 9 -158 -49 -337 -154 -468
-273 -62 -56 -64 -60 -48 -77 16 -17 22 -17 105 -1 120 23 353 21 353 -3 0 -3
-33 -12 -74 -18 -125 -19 -432 -90 -600 -138 -371 -106 -627 -228 -887 -420
-206 -152 -359 -334 -516 -613 -167 -297 -251 -416 -502 -710 -214 -250 -305
-394 -371 -584 -48 -141 -55 -189 -54 -382 1 -237 24 -347 149 -720 106 -315
111 -343 140 -745 31 -439 56 -557 172 -827 4 -9 -8 -13 -41 -13 -63 0 -104
-19 -150 -70 -85 -95 -119 -221 -119 -450 -1 -228 36 -416 124 -640 179 -459
215 -607 244 -1010 8 -118 22 -242 31 -275 25 -96 81 -193 154 -266 80 -80
136 -109 213 -109 51 0 61 4 97 36 39 35 39 35 44 12 2 -13 21 -142 41 -288
41 -289 101 -661 141 -865 112 -580 268 -931 660 -1486 448 -633 825 -1075
1064 -1246 205 -146 403 -224 698 -274 186 -31 189 -31 447 -26 509 11 762 59
1030 195 178 90 379 264 568 493 l96 117 58 -24 c56 -22 73 -23 368 -29 171
-3 357 -8 415 -11 159 -8 429 -42 559 -70 64 -13 193 -40 286 -60 237 -49 316
-70 420 -111 115 -45 388 -200 564 -318 347 -234 654 -410 805 -461 83 -29
258 -66 416 -89 360 -53 579 -173 752 -412 73 -101 180 -322 288 -593 45 -113
88 -212 96 -220 21 -22 49 0 48 36 -2 38 -181 471 -248 600 -82 158 -142 241
-256 355 -115 115 -192 167 -336 226 -86 35 -140 47 -489 112 -88 16 -187 37
-220 46 -138 38 -366 166 -787 439 -498 323 -615 378 -968 451 -96 19 -236 49
-310 65 -135 30 -264 51 -434 71 -50 6 -275 14 -501 18 -397 8 -475 14 -475
41 0 19 189 239 433 506 66 71 164 186 219 256 l101 127 71 6 c39 3 163 5 276
3 l205 -3 26 -105 c29 -121 64 -230 89 -280 25 -49 111 -127 167 -151 58 -25
91 -20 153 21 l44 29 48 -53 c35 -40 58 -56 93 -66 146 -41 311 63 400 252 71
152 88 229 89 398 1 117 -3 165 -22 249 -30 134 -74 258 -123 348 l-39 73 33
43 c104 137 125 359 54 582 -7 19 -3 20 66 21 82 1 155 28 216 81 l34 29 65
-63 64 -64 -7 -47 c-12 -83 -63 -269 -100 -364 -36 -94 -164 -332 -236 -441
-45 -67 -47 -77 -19 -102 15 -14 23 -15 34 -6 40 34 241 396 295 534 35 88
101 328 101 368 l0 25 83 -28 c64 -22 101 -28 169 -28 l87 0 -16 -38 c-22 -51
-29 -234 -13 -303 7 -29 34 -108 61 -175 60 -155 82 -229 113 -389 40 -203 44
-242 66 -545 11 -157 22 -303 25 -325 49 -429 109 -662 241 -941 140 -298 397
-534 579 -534 37 0 45 -3 45 -19 0 -37 26 -45 143 -44 173 2 284 46 435 173
116 97 159 169 131 219 -12 21 -23 27 -59 29 -53 3 -154 -43 -333 -151 -165
-100 -245 -130 -340 -130 -69 0 -86 4 -153 37 -135 67 -241 185 -348 386 -173
328 -249 670 -286 1280 -25 417 -74 682 -176 947 -74 191 -88 262 -75 372 6
46 18 103 27 126 13 36 22 44 67 60 116 42 295 189 312 257 9 37 -28 78 -71
78 -78 0 -234 -116 -305 -226 -38 -59 -43 -63 -87 -69 -98 -13 -291 35 -372
92 -22 15 -50 47 -61 71 l-22 44 36 36 c72 75 161 232 196 346 25 81 27 133 5
164 -23 33 -53 27 -99 -21 -74 -77 -198 -348 -211 -461 -6 -51 -11 -58 -57
-97 -72 -61 -177 -84 -267 -59 -28 8 -45 23 -77 72 -55 84 -173 198 -205 198
-49 0 -74 -61 -47 -113 36 -68 131 -154 213 -193 30 -15 37 -26 61 -98 50
-150 45 -343 -11 -462 -38 -82 -48 -86 -119 -62 -97 33 -202 12 -241 -47 -16
-24 -15 -27 2 -47 50 -56 148 -72 242 -39 53 18 53 18 64 -3 58 -104 98 -213
130 -353 19 -79 23 -127 23 -253 -1 -148 -2 -159 -32 -247 -84 -241 -172 -333
-319 -333 -94 0 -111 24 -173 237 -23 78 -64 202 -92 275 -86 224 -217 585
-233 641 -45 154 -76 445 -76 712 0 190 33 609 56 720 21 99 112 197 246 263
91 46 324 125 663 227 520 157 802 260 1087 397 286 137 346 146 467 68 34
-22 79 -49 100 -60 l39 -19 26 20 c14 11 26 24 26 28 0 4 -18 27 -39 50 l-39
42 32 -6 c17 -3 63 -22 102 -40 170 -82 226 -159 472 -645 165 -326 279 -540
327 -614 96 -150 420 -694 565 -951 180 -318 336 -562 593 -925 61 -85 142
-200 180 -255 39 -55 107 -151 151 -213 185 -257 208 -290 252 -357 197 -298
330 -456 484 -579 161 -130 332 -296 384 -374 59 -91 101 -177 181 -372 153
-374 348 -784 403 -842 19 -20 29 -25 38 -17 14 12 5 34 -145 361 -50 109
-140 315 -200 457 -128 302 -158 364 -216 446 -51 72 -235 251 -393 383 -130
108 -168 147 -256 264 -49 65 -235 327 -336 475 -8 12 -74 104 -146 205 -523
732 -678 967 -944 1433 -117 204 -232 399 -412 695 -169 278 -263 450 -411
745 -211 425 -269 519 -391 640 -107 105 -246 165 -448 190 -41 5 -52 12 -95
63 -26 31 -90 102 -142 157 -51 55 -139 154 -194 220 -190 227 -241 281 -527
565 -279 276 -372 381 -512 580 -37 52 -96 131 -131 175 l-64 79 24 19 c34 27
50 72 94 271 22 98 72 285 110 415 82 279 170 628 200 796 34 185 38 498 9
715 -54 420 -183 926 -317 1243 -102 244 -165 347 -292 480 -97 101 -163 152
-324 248 -161 96 -216 147 -263 248 -123 258 -159 324 -233 422 -138 183 -257
279 -488 394 -176 87 -225 104 -248 85 -17 -14 -19 -59 -5 -108 9 -33 7 -32
-58 30 -286 270 -605 439 -949 504 -123 23 -461 28 -565 9z m545 -86 c325 -55
649 -220 902 -458 39 -36 103 -95 144 -129 71 -62 74 -63 91 -45 18 17 17 21
-11 107 -16 49 -28 91 -25 93 10 10 348 -172 411 -222 155 -122 287 -314 395
-575 31 -73 99 -168 156 -219 25 -22 101 -73 167 -112 283 -167 385 -274 511
-533 161 -329 315 -888 382 -1381 26 -194 24 -491 -5 -660 -38 -224 -232 -977
-248 -962 -2 3 6 56 17 118 68 365 8 811 -156 1158 -146 310 -324 499 -828
879 -106 80 -116 94 -154 230 l-20 71 48 31 c123 79 224 224 267 382 36 133
19 382 -38 533 -41 109 -112 185 -159 170 -28 -9 -85 -82 -110 -140 -38 -87
-88 -279 -104 -394 -19 -131 -21 -339 -5 -447 14 -93 13 -94 -91 -94 l-74 0
-71 73 c-144 146 -276 377 -470 822 -111 255 -173 378 -243 485 -246 379 -644
659 -1106 779 -184 48 -242 56 -413 56 -157 0 -163 -1 -185 -23 l-23 -23 32
-27 c17 -15 76 -47 130 -71 269 -121 350 -169 452 -265 146 -140 210 -273 330
-697 59 -206 84 -275 141 -390 96 -193 219 -347 414 -519 60 -53 91 -86 82
-88 -8 -2 -84 4 -168 12 -84 8 -207 18 -273 21 -279 14 -502 72 -743 194 -112
56 -228 135 -482 327 -408 309 -583 411 -873 510 -416 142 -909 111 -1330 -85
-95 -44 -116 -63 -96 -87 11 -13 26 -15 84 -10 179 16 288 18 380 7 455 -54
837 -328 1015 -729 81 -183 85 -287 17 -434 -44 -94 -98 -154 -201 -223 -106
-70 -174 -100 -300 -131 -143 -35 -254 -40 -416 -20 -258 32 -403 78 -721 227
-94 44 -194 89 -222 100 -253 101 -451 103 -647 8 -106 -53 -237 -178 -295
-282 -106 -192 -170 -438 -200 -767 -21 -227 -20 -403 1 -421 28 -23 47 3 77
106 61 212 155 364 290 466 43 33 93 67 110 75 98 51 293 94 429 94 74 0 230
-21 352 -48 l79 -18 -59 -16 c-223 -62 -387 -320 -414 -653 -10 -118 -2 -228
30 -425 36 -222 44 -352 31 -474 -15 -135 -27 -189 -98 -425 -94 -315 -128
-481 -152 -736 -43 -443 -67 -617 -82 -580 -4 11 -8 36 -8 55 -1 19 -6 93 -13
163 -9 103 -16 135 -33 161 -19 27 -23 52 -29 167 -11 235 -52 452 -107 566
-37 78 -113 171 -180 221 -60 44 -96 103 -145 238 -64 176 -82 292 -109 674
-26 376 -53 515 -151 775 -156 414 -186 781 -88 1057 64 181 145 312 326 529
326 393 373 458 573 809 200 350 415 545 821 746 268 131 781 275 1207 338 54
8 105 20 113 27 45 37 -32 94 -176 130 -62 16 -105 20 -179 17 l-97 -3 35 25
c236 169 556 245 861 206 63 -8 171 -29 240 -46 266 -66 431 -63 724 10 88 22
194 44 235 50 42 5 90 12 106 14 64 9 303 -5 418 -25z m-548 -490 c254 -53
550 -176 723 -302 228 -166 384 -341 505 -568 40 -75 163 -343 227 -494 61
-144 158 -336 224 -443 122 -197 275 -359 487 -519 112 -83 129 -100 144 -141
10 -26 60 -128 111 -227 106 -207 154 -323 197 -485 l32 -115 -4 -245 c-8
-540 -8 -538 17 -628 31 -114 58 -163 222 -412 119 -179 230 -374 230 -404 0
-8 -34 33 -60 70 -8 12 -33 46 -56 75 -67 88 -221 315 -276 408 -29 47 -96
172 -149 276 -54 108 -104 194 -115 199 -11 5 -38 52 -63 110 -24 56 -82 179
-129 275 -67 138 -95 185 -136 228 l-52 53 -90 0 c-110 0 -153 -18 -227 -92
-59 -59 -108 -149 -134 -248 -24 -91 -24 -333 1 -450 54 -256 165 -531 309
-765 115 -187 140 -232 255 -465 98 -200 192 -366 377 -670 13 -21 -92 93
-157 170 -29 36 -87 105 -127 153 -154 183 -282 272 -412 283 -85 7 -168 -14
-634 -167 -203 -66 -440 -143 -525 -171 -340 -110 -463 -190 -510 -329 -16
-46 -17 -47 -38 -30 -11 9 -55 84 -97 168 -100 199 -142 237 -202 177 -24 -24
-25 -30 -21 -97 8 -126 85 -234 210 -297 45 -22 67 -42 95 -82 49 -73 81 -105
132 -136 46 -27 118 -35 176 -19 26 8 23 2 -31 -47 -94 -85 -101 -140 -24
-178 29 -14 44 -15 85 -7 63 13 110 7 205 -26 229 -78 415 -113 537 -101 221
22 505 153 559 258 9 17 13 40 10 53 -11 43 -151 161 -248 210 -49 25 -97 45
-106 45 -8 0 -13 3 -9 6 10 11 180 -38 249 -71 36 -18 101 -54 143 -80 92 -58
135 -74 198 -75 96 0 184 78 231 208 51 142 31 251 -61 332 -68 60 -126 73
-287 67 -175 -7 -292 -35 -876 -213 -157 -48 -492 -130 -568 -139 -35 -4 -98
-4 -142 0 -69 6 -78 9 -71 23 88 185 51 167 901 445 502 164 600 191 700 191
67 1 84 -3 145 -33 75 -37 170 -125 274 -256 30 -38 81 -97 111 -131 131 -144
221 -288 264 -419 45 -140 57 -407 30 -656 -23 -217 -12 -198 -131 -225 -250
-56 -399 -178 -457 -374 -36 -121 -47 -352 -36 -762 11 -437 16 -492 72 -763
25 -124 20 -176 -28 -339 -74 -250 -187 -515 -282 -662 -39 -60 -41 -61 -103
-74 -198 -41 -390 -148 -560 -312 -91 -88 -148 -164 -200 -267 -67 -131 -74
-236 -22 -338 18 -36 23 -56 16 -65 -151 -198 -350 -401 -470 -481 -130 -86
-316 -169 -463 -207 -211 -53 -637 -86 -910 -70 -466 28 -794 164 -1099 455
-272 259 -925 1136 -1138 1527 -223 411 -297 672 -437 1543 -69 432 -96 661
-116 995 -14 229 -33 386 -70 555 -44 206 -44 198 -15 225 28 26 38 53 60 160
26 123 43 253 65 485 34 368 59 496 170 860 33 110 68 241 77 290 26 142 21
330 -16 576 -41 280 -46 349 -31 465 25 199 97 380 187 466 116 111 290 136
478 69 208 -75 284 -100 355 -115 326 -67 753 -31 1077 90 133 50 221 92 353
169 175 101 306 201 520 395 290 262 420 355 639 457 120 57 242 96 378 124
137 27 432 37 584 19 93 -10 117 -18 229 -70 154 -72 272 -109 371 -117 99 -8
145 1 165 32 15 23 15 27 0 50 -22 33 -68 61 -129 80 -57 17 -296 60 -417 75
-96 11 -129 29 -288 158 -180 146 -303 301 -402 507 -62 129 -89 207 -150 427
-92 330 -158 473 -292 628 -91 106 -205 189 -373 272 l-140 69 100 -6 c55 -3
145 -15 200 -26z m-1710 -950 c214 -35 497 -146 713 -279 45 -28 217 -152 382
-275 318 -237 414 -300 563 -370 157 -73 399 -145 487 -145 16 0 30 -4 30 -10
0 -5 -7 -10 -16 -10 -35 0 -234 -74 -339 -125 -180 -88 -338 -202 -565 -405
-281 -253 -385 -332 -587 -447 -205 -118 -449 -207 -683 -249 -122 -22 -507
-26 -620 -6 -79 14 -241 60 -300 84 l-35 15 90 7 c358 30 727 182 956 393 57
53 59 57 43 74 -23 26 -30 24 -79 -19 -124 -109 -346 -230 -534 -292 -174 -57
-273 -74 -436 -74 -129 0 -159 4 -392 52 -282 59 -420 73 -561 60 -229 -21
-374 -84 -527 -229 -81 -77 -129 -138 -176 -222 -18 -32 -28 -43 -25 -27 3 14
8 63 11 110 13 185 72 459 129 599 119 292 329 433 623 418 122 -7 237 -42
443 -137 254 -117 345 -157 406 -178 345 -119 715 -128 970 -24 232 94 416
283 465 476 30 120 -10 285 -114 469 -77 137 -167 249 -275 343 -244 214 -514
325 -822 341 l-115 6 54 18 c240 82 555 104 836 58z m4153 -191 c11 -18 31
-69 45 -113 92 -294 43 -594 -122 -748 -47 -44 -96 -75 -105 -66 -2 2 -9 67
-15 144 -14 163 1 337 44 512 38 157 98 303 125 303 4 0 17 -15 28 -32z m-740
-1030 c51 -11 90 -23 87 -26 -8 -8 -146 17 -210 39 -60 19 -60 20 -15 14 25
-3 87 -15 138 -27z m512 -39 c6 -23 16 -52 21 -66 7 -20 -5 -14 -67 34 l-75
58 43 6 c24 3 48 7 55 7 7 1 17 -17 23 -39z m305 -383 c367 -277 509 -425 647
-676 172 -313 254 -767 203 -1130 -12 -87 -100 -498 -137 -645 l-10 -40 -33
97 c-40 118 -89 209 -208 388 -238 356 -262 416 -262 665 0 83 4 227 9 320 17
327 -48 590 -228 925 -39 74 -75 143 -79 153 -8 23 -4 20 98 -57z m-565 -771
c0 -3 -8 -18 -17 -32 -30 -45 -24 -163 11 -243 98 -224 276 -388 426 -391 56
-2 62 -4 71 -27 18 -47 130 -265 180 -350 104 -176 372 -557 442 -627 16 -16
50 -56 75 -89 45 -58 45 -59 69 -215 27 -177 51 -239 113 -295 48 -43 77 -45
113 -8 21 21 28 40 29 75 1 25 3 45 4 44 1 -1 37 -49 80 -107 83 -111 208
-243 498 -530 174 -171 216 -217 461 -505 66 -77 160 -183 210 -235 50 -52 99
-105 110 -118 l19 -23 -784 5 -785 5 -78 108 c-190 262 -226 322 -402 663 -73
140 -193 357 -268 481 -75 125 -193 340 -262 480 -70 139 -152 294 -183 344
-239 390 -343 640 -387 934 -41 273 14 523 136 613 35 26 119 56 119 43z m122
-17 c28 -23 68 -96 179 -332 100 -212 107 -231 88 -234 -34 -6 -125 45 -178
99 -49 51 -139 202 -161 273 -16 50 -9 144 14 179 20 30 34 33 58 15z m1275
-1510 c-3 -8 -6 -5 -6 6 -1 11 2 17 5 13 3 -3 4 -12 1 -19z m-13 -62 c-3 -21
-8 -35 -11 -32 -2 2 -1 20 3 40 3 21 8 35 11 32 2 -2 1 -20 -3 -40z m-17 -78
c-3 -7 -5 -2 -5 12 0 14 2 19 5 13 2 -7 2 -19 0 -25z m-10 -40 c-3 -8 -6 -5
-6 6 -1 11 2 17 5 13 3 -3 4 -12 1 -19z m-7624 -23 c16 -4 34 -31 69 -103 49
-101 153 -267 183 -292 15 -13 19 -12 35 8 18 22 18 21 30 -46 12 -67 40 -309
40 -347 0 -11 -34 47 -75 129 -92 181 -150 271 -230 353 -66 68 -104 84 -144
62 -32 -18 -68 -70 -81 -118 -23 -82 -3 -323 41 -514 23 -99 85 -261 172 -452
75 -165 102 -245 126 -372 31 -161 55 -225 102 -268 41 -36 67 -43 87 -23 13
13 -2 38 -23 38 -33 0 -67 97 -95 267 -22 133 -52 227 -112 346 -92 185 -174
418 -204 582 -24 136 -30 360 -11 408 26 62 58 51 130 -47 92 -123 177 -278
284 -515 28 -64 27 -75 -28 -204 -62 -145 -82 -218 -77 -291 4 -67 11 -83 130
-306 100 -187 130 -286 174 -579 24 -161 14 -320 -23 -356 -9 -9 -34 -15 -67
-15 -115 0 -226 118 -280 299 -8 29 -20 112 -26 184 -39 500 -53 566 -215
1002 -105 284 -128 367 -151 550 -28 224 -3 452 61 562 14 23 27 43 28 43 1 0
20 7 42 14 38 14 52 14 108 1z m222 -170 c32 -50 79 -164 71 -172 -4 -5 -91
133 -145 232 l-33 60 37 -35 c21 -19 52 -57 70 -85z m7476 -242 c14 -39 11
-83 -6 -83 -30 0 -65 77 -80 180 l-7 45 42 -59 c23 -33 46 -70 51 -83z m-3416
-353 c67 -134 86 -181 67 -171 -56 31 -111 129 -112 199 0 23 2 42 5 42 3 0
21 -32 40 -70z m2150 0 c68 -34 80 -60 80 -170 -1 -87 -4 -100 -33 -158 -44
-84 -77 -105 -159 -99 -55 4 -75 12 -184 77 -197 119 -353 159 -614 161 -127
0 -129 1 -90 15 152 57 612 180 720 194 103 13 231 4 280 -20z m-1039 -283
c-49 -31 -87 -72 -97 -107 -37 -122 124 -229 225 -149 56 44 70 110 36 167
l-20 32 48 0 c66 0 94 -18 112 -68 12 -34 12 -51 2 -99 -16 -78 -51 -127 -115
-160 -47 -25 -62 -28 -152 -28 -117 1 -176 21 -218 77 -46 59 -58 104 -60 209
l-2 97 70 16 c107 24 107 24 150 24 35 1 38 -1 21 -11z m-436 -24 c-8 -3 -41
-24 -73 -45 -113 -76 -180 -94 -250 -64 -29 11 -103 83 -95 91 2 2 39 -1 83
-5 77 -8 201 1 275 19 40 10 84 13 60 4z m525 -73 c31 -60 13 -110 -40 -110
-43 0 -75 29 -75 68 0 68 85 100 115 42z m-5095 -136 c11 -76 25 -155 30 -174
5 -19 23 -102 40 -185 17 -82 33 -161 37 -175 5 -26 -72 115 -153 276 -59 118
-62 182 -13 316 17 49 33 87 35 85 2 -2 13 -66 24 -143z m5468 106 c88 -46
182 -123 182 -150 0 -57 -243 -173 -432 -206 -50 -8 -92 -13 -96 -10 -3 3 4 6
15 6 39 0 141 60 177 105 66 80 98 186 78 258 -6 21 -8 37 -5 37 3 0 39 -18
81 -40z m-778 -49 c0 -99 61 -207 149 -262 25 -16 38 -29 29 -29 -9 0 -85 23
-169 50 -163 53 -200 59 -292 47 l-57 -8 10 23 c17 37 286 227 323 228 4 0 7
-22 7 -49z m2055 -136 c101 -186 182 -311 305 -476 l89 -118 -47 -6 c-133 -17
-314 -47 -366 -61 -32 -8 -60 -13 -63 -11 -2 3 4 56 14 118 32 206 20 592 -23
704 -15 41 6 6 91 -150z m1688 -663 l149 -4 -114 -55 c-303 -147 -549 -237
-1163 -423 -527 -160 -670 -220 -790 -332 -131 -122 -150 -189 -181 -627 -14
-204 -15 -272 -5 -501 19 -415 22 -429 271 -1090 83 -221 150 -428 150 -464 0
-22 -69 -66 -103 -66 -25 0 -28 3 -24 23 3 12 9 49 12 82 8 75 -21 193 -65
270 -38 67 -129 151 -179 166 l-38 11 -27 132 c-41 198 -142 587 -170 656 -20
52 -24 73 -19 133 4 55 -2 107 -25 222 -44 215 -52 337 -54 810 -2 388 -1 429
18 530 36 189 86 261 229 330 69 34 215 75 265 75 14 0 48 9 76 19 95 36 389
85 584 98 52 3 97 7 99 10 6 4 904 1 1104 -5z m-588 -1150 c-21 -70 -66 -166
-109 -232 -19 -30 -36 -52 -36 -48 -1 23 149 342 157 334 2 -1 -4 -26 -12 -54z
m-735 -395 c31 -40 20 -33 -25 15 -22 22 -30 34 -18 26 12 -8 32 -26 43 -41z
m1410 -9 c0 -20 -76 -82 -149 -121 -39 -21 -71 -35 -71 -30 0 15 93 100 145
132 53 33 75 38 75 19z m-2372 -903 c43 -159 126 -534 121 -540 -6 -5 -469
-11 -467 -5 2 3 29 50 60 105 74 129 146 298 198 464 23 73 43 131 45 129 1
-2 21 -70 43 -153z m900 88 c-15 -2 -42 -2 -60 0 -18 2 -6 4 27 4 33 0 48 -2
33 -4z m-561 -818 c55 -79 83 -204 69 -300 l-8 -47 -25 23 c-44 41 -95 174
-137 357 l-14 63 41 -24 c23 -13 57 -46 74 -72z m-873 48 c-28 -44 -150 -189
-259 -308 -118 -129 -264 -296 -352 -404 -35 -42 -66 -77 -71 -79 -12 -4 -32
68 -32 115 0 103 80 268 182 378 127 136 290 242 456 296 48 16 89 28 91 29 2
0 -5 -12 -15 -27z m4276 -1673 c0 -19 -84 -102 -144 -142 -114 -78 -234 -119
-345 -118 l-46 1 45 18 c25 9 106 53 180 97 118 71 281 153 303 154 4 0 7 -5
7 -10z"/>
<path d="M13030 8646 c-251 -73 -508 -235 -602 -380 -37 -58 -52 -126 -29
-140 5 -3 19 -25 31 -48 53 -103 212 -287 294 -340 47 -30 69 -38 106 -38 41
0 55 7 126 60 85 65 206 128 293 154 68 20 85 20 46 -1 -48 -25 -126 -74 -185
-117 -74 -54 -212 -126 -274 -142 -28 -8 -107 -18 -176 -24 -168 -14 -184 -18
-265 -55 -132 -60 -228 -199 -261 -376 -38 -198 12 -498 131 -791 73 -178 131
-286 285 -528 270 -425 319 -563 370 -1030 63 -584 82 -663 183 -768 81 -84
155 -104 257 -73 83 26 131 58 250 166 135 123 159 138 221 136 28 0 73 -7
102 -16 28 -8 63 -15 79 -15 30 0 35 -9 16 -29 -11 -10 1 -26 58 -81 137 -130
396 -280 552 -318 49 -12 72 -23 78 -37 22 -50 154 -82 388 -95 211 -11 271
-23 308 -60 30 -30 38 -83 18 -119 -16 -31 -102 -60 -212 -71 -343 -36 -495
-66 -624 -125 -185 -84 -324 -226 -373 -379 -42 -130 -36 -230 20 -345 39 -78
146 -193 224 -240 186 -112 454 -144 832 -100 98 11 202 19 230 16 43 -3 56 0
70 16 17 18 17 20 -7 39 -24 19 -34 20 -170 14 -80 -4 -167 -11 -195 -16 -27
-5 -123 -9 -212 -9 -259 -1 -424 38 -559 135 -179 127 -231 334 -136 534 33
69 147 185 225 229 77 43 240 96 352 115 50 9 161 22 248 31 86 8 170 18 185
21 81 20 174 93 188 149 12 47 -6 95 -52 145 -58 62 -108 79 -247 87 -119 7
-127 22 -12 23 120 1 257 19 342 46 143 45 323 163 456 298 64 66 67 70 51 87
-23 26 -28 25 -77 -20 -209 -192 -360 -280 -537 -312 -52 -10 -166 -14 -375
-14 -295 0 -302 1 -398 27 -111 31 -267 104 -375 176 -80 53 -215 162 -209
168 2 2 107 6 233 8 126 2 299 7 384 11 l155 7 92 -36 c110 -43 200 -48 269
-17 97 44 226 52 416 25 171 -24 421 -8 575 38 89 26 104 40 75 71 -16 17 -18
26 -10 41 10 18 6 128 -7 176 -15 58 15 -11 55 -125 42 -120 78 -192 106 -216
12 -10 19 -8 37 10 19 19 22 33 22 101 l0 79 30 -95 c35 -106 55 -135 79 -114
13 10 16 10 16 -2 0 -33 32 -120 54 -145 l24 -28 26 24 c32 30 34 84 10 223
-38 223 -124 369 -299 508 -66 52 -82 62 -260 157 -200 108 -321 183 -415 260
-72 59 -92 81 -101 114 -8 26 -9 43 -2 50 5 5 46 18 91 29 148 35 249 105 299
208 26 53 28 66 27 172 0 104 -3 123 -32 197 -31 83 -72 155 -93 168 -6 4 -20
-2 -31 -13 l-21 -20 37 -77 c49 -101 67 -174 67 -269 1 -104 -37 -187 -104
-228 -74 -47 -165 -72 -129 -36 7 7 12 28 12 48 0 86 -101 111 -217 54 -38
-18 -90 -59 -148 -116 -94 -93 -141 -122 -214 -132 l-43 -7 26 31 c30 37 52
108 39 129 -13 20 -27 26 -108 45 -159 38 -261 110 -319 227 -73 145 -73 260
-1 489 89 283 112 481 102 885 -6 251 -15 339 -48 467 -27 109 -50 156 -101
211 -39 42 -46 55 -51 103 -13 124 -99 240 -234 311 -113 60 -251 105 -567
184 -257 64 -399 109 -500 160 -93 47 -257 63 -356 35z m246 -80 c44 -13 124
-42 179 -65 106 -45 237 -84 505 -151 330 -83 512 -155 574 -227 32 -37 63
-99 71 -145 l7 -36 -79 24 c-126 39 -277 64 -443 73 -150 8 -159 10 -285 55
-249 90 -442 147 -568 167 -142 22 -344 1 -634 -66 -67 -16 -126 -26 -130 -22
-10 10 20 69 58 112 83 94 285 211 464 269 134 43 175 44 281 12z m104 -414
c63 -17 167 -47 230 -68 l115 -38 -150 -7 c-169 -8 -276 -27 -385 -70 -91 -35
-206 -104 -278 -164 -103 -87 -158 -61 -329 155 -32 41 -66 87 -76 102 -16 25
-16 27 1 32 39 11 302 65 372 76 41 7 82 13 90 15 8 2 78 2 155 0 116 -2 160
-8 255 -33z m993 -223 c103 -23 215 -55 236 -68 12 -8 13 -22 3 -88 -6 -43
-19 -102 -27 -132 l-17 -54 -26 34 c-37 49 -132 138 -156 145 -12 4 -61 36
-110 70 -48 35 -93 64 -99 64 -6 0 -8 2 -5 5 6 6 201 -90 241 -119 25 -18 29
-19 43 -4 15 14 13 19 -21 56 -21 24 -66 56 -108 76 -85 41 -78 43 46 15z
m-753 -28 c-14 -28 -12 -87 4 -119 27 -52 94 -102 137 -102 40 0 107 40 139
83 34 46 38 85 13 123 l-16 26 39 -7 c57 -10 74 -35 74 -109 0 -99 -51 -177
-141 -215 -148 -64 -298 -18 -363 111 -28 58 -49 187 -30 189 5 0 41 9 79 19
39 10 71 19 73 19 1 1 -2 -8 -8 -18z m188 -11 c37 -17 42 -23 42 -53 0 -43
-26 -67 -78 -74 -53 -7 -82 20 -82 76 0 22 3 46 6 55 8 22 59 20 112 -4z
m-413 -97 c13 -96 82 -211 151 -254 19 -12 33 -23 31 -26 -3 -2 -38 3 -78 12
-83 18 -275 108 -329 154 -33 28 -34 30 -18 47 18 18 204 112 224 113 7 1 15
-20 19 -46z m768 11 c28 -15 86 -48 127 -73 41 -26 90 -53 108 -60 28 -12 92
-77 92 -94 0 -3 -46 -3 -102 0 -85 5 -129 1 -253 -21 -82 -15 -166 -29 -185
-32 l-34 -6 58 48 c66 55 98 111 116 202 7 34 14 62 17 62 2 0 27 -12 56 -26z
m570 -77 c60 -150 82 -376 74 -752 -4 -148 -13 -301 -21 -356 -15 -96 -23
-126 -91 -359 -45 -155 -54 -259 -31 -350 28 -111 68 -180 151 -258 82 -78
154 -120 258 -147 37 -10 67 -22 67 -26 0 -4 -5 -20 -12 -34 -10 -22 -17 -25
-61 -25 -71 0 -155 49 -233 137 -71 79 -146 122 -228 130 -49 5 -57 3 -80 -20
-32 -32 -34 -74 -5 -111 l21 -27 -67 26 c-88 33 -119 56 -145 109 -73 151 -39
336 86 467 l58 60 -21 20 c-20 20 -21 20 -48 3 -36 -24 -111 -117 -141 -176
-128 -252 -9 -522 254 -577 80 -17 110 -14 136 12 l24 24 68 -44 c182 -116
299 -158 424 -151 102 6 144 28 262 138 98 91 177 140 231 140 15 0 27 -5 27
-12 0 -6 -27 -36 -60 -67 -59 -56 -60 -57 -60 -111 0 -30 7 -68 15 -84 15 -29
15 -29 -3 -13 -24 22 -38 21 -55 -4 -19 -27 -5 -80 56 -209 45 -97 111 -270
104 -277 -4 -3 -80 173 -158 361 -17 43 -46 94 -62 113 l-30 34 -21 -20 c-30
-30 -24 -93 23 -265 23 -82 39 -151 37 -153 -2 -3 -27 67 -55 154 -51 159 -79
219 -106 229 -25 10 -44 -15 -51 -68 l-7 -49 -28 27 c-24 23 -31 25 -44 14 -9
-7 -15 -29 -15 -55 0 -37 -2 -41 -22 -40 -16 1 -24 9 -26 26 -4 28 -29 59 -48
59 -7 0 -19 -9 -27 -20 -14 -20 -15 -19 -20 16 -3 20 -11 42 -18 50 -10 13
-16 11 -41 -13 l-29 -28 20 47 c19 45 19 47 1 63 -27 24 -62 13 -116 -37 l-46
-42 18 38 c16 33 17 40 4 63 -21 36 -31 37 -73 9 -34 -23 -37 -24 -37 -7 0 10
-7 24 -15 31 -25 21 -111 -22 -309 -154 -190 -127 -249 -156 -502 -246 -75
-27 -162 -64 -192 -82 -62 -38 -177 -156 -217 -223 -84 -144 -137 -407 -91
-453 13 -14 19 -12 48 11 34 26 54 66 109 220 36 101 48 112 19 18 -11 -34
-20 -82 -20 -106 0 -74 50 -87 74 -19 6 16 22 49 36 73 l25 43 6 -29 c4 -15 8
-33 10 -38 4 -11 -153 -158 -231 -216 -99 -73 -216 -87 -285 -35 -84 64 -113
178 -165 635 -43 380 -62 489 -110 632 -51 154 -105 253 -346 639 -242 389
-366 769 -351 1079 10 206 78 345 199 407 61 31 110 41 280 59 123 13 199 31
288 69 13 5 15 -7 15 -76 0 -73 4 -92 34 -156 60 -128 198 -235 359 -278 82
-22 262 -29 363 -15 199 29 460 146 686 308 56 40 111 73 123 73 54 0 110 106
132 246 6 40 15 71 19 69 4 -3 18 -33 32 -68z m-1572 -123 c165 -125 328 -178
554 -178 129 0 192 8 438 56 126 24 172 29 223 23 l64 -7 -53 -35 c-152 -102
-352 -203 -492 -246 -307 -96 -653 -35 -767 134 -57 85 -80 190 -66 306 2 21
3 21 24 5 12 -9 46 -36 75 -58z m1531 -2016 c45 -19 86 -53 76 -63 -3 -3 -20
0 -38 6 -25 9 -37 9 -53 0 -16 -11 -23 -9 -46 10 -39 34 -61 60 -61 71 0 14
63 1 122 -24z m-97 -426 c-33 -31 -50 -46 -40 -32 36 46 89 100 94 94 3 -2
-22 -30 -54 -62z m1121 7 c31 -34 241 -171 352 -229 77 -40 99 -56 88 -62 -38
-21 -38 -44 -1 -175 19 -69 33 -129 30 -131 -2 -3 -43 73 -89 168 -77 156
-133 240 -160 240 -21 0 -46 -35 -46 -65 0 -17 16 -78 35 -135 19 -57 35 -109
35 -114 0 -6 -38 63 -84 154 -45 91 -108 211 -138 268 -54 99 -61 124 -22 81z
m-1243 -36 c-17 -21 -47 -63 -68 -93 -21 -30 -35 -48 -33 -40 3 8 -4 25 -15
38 -21 22 -21 23 -1 36 10 8 46 34 79 58 33 25 62 44 64 42 2 -2 -10 -20 -26
-41z m258 -35 c-27 -40 -71 -113 -98 -163 -50 -91 -123 -206 -123 -192 0 26
125 237 216 364 62 86 65 79 5 -9z m-51 58 c0 -2 -8 -10 -17 -17 -16 -13 -17
-12 -4 4 13 16 21 21 21 13z m-93 -133 c-88 -137 -131 -216 -161 -301 -33 -94
-34 -127 -1 -148 25 -16 27 -16 56 12 44 41 174 231 219 320 43 84 109 194
116 194 2 0 -9 -26 -25 -59 -61 -119 -141 -320 -141 -352 0 -18 7 -41 16 -50
16 -17 15 -19 -7 -28 -13 -5 -58 -22 -99 -39 -124 -50 -327 -110 -460 -137
-115 -24 -291 -47 -298 -40 -2 2 20 49 49 106 56 112 113 202 149 234 19 17
16 7 -15 -55 -70 -139 -91 -225 -60 -250 37 -31 106 40 227 233 85 136 147
227 154 227 2 0 -9 -27 -25 -59 -51 -100 -101 -228 -101 -258 0 -39 27 -75 53
-71 23 3 52 49 197 308 72 127 198 310 215 310 3 0 -24 -44 -58 -97z m239
-117 c-53 -133 -83 -193 -92 -183 -3 3 7 33 21 68 42 99 118 260 122 256 2 -2
-21 -65 -51 -141z m-603 73 c-12 -13 -26 -18 -33 -14 -9 5 -4 12 16 21 40 17
41 17 17 -7z m1631 -274 c114 -235 162 -295 204 -253 22 22 9 122 -34 254 -3
10 23 -35 58 -101 35 -66 78 -142 95 -168 l32 -47 -57 0 c-95 0 -226 42 -413
133 -182 89 -262 113 -333 103 -23 -4 -84 -27 -136 -51 -124 -59 -148 -58
-261 2 l-88 47 21 23 22 23 27 -32 27 -33 31 29 c21 20 38 53 53 100 27 88 38
102 38 51 0 -47 28 -112 60 -140 l22 -20 19 23 c10 13 22 47 25 75 l7 51 13
-43 c13 -46 39 -81 60 -81 8 0 21 11 30 26 14 21 16 42 11 127 l-5 102 28 -81
c34 -100 43 -116 87 -165 l36 -40 23 22 c29 27 31 74 9 180 -9 40 -14 73 -12
75 1 2 29 -50 61 -115 60 -125 116 -201 145 -201 10 0 25 8 33 18 27 30 9 113
-87 387 -16 45 63 -102 149 -280z m-1855 133 c-45 -51 -85 -95 -87 -98 -3 -3
4 11 16 31 25 41 28 69 10 87 -6 6 -10 13 -7 15 3 3 136 54 147 56 2 1 -34
-41 -79 -91z m901 38 c-28 -75 -51 -191 -41 -212 9 -21 7 -21 -44 -20 l-53 1
31 35 c30 34 73 120 97 193 6 21 14 36 16 34 3 -2 0 -16 -6 -31z m-709 -18
c-11 -18 -54 -86 -93 -150 -40 -64 -74 -115 -76 -113 -8 7 81 163 128 228 52
69 78 91 41 35z m2187 -96 l23 -15 -23 -11 c-33 -16 -33 -51 -4 -160 34 -122
32 -130 -5 -29 -17 45 -56 133 -87 196 l-57 114 65 -40 c36 -22 75 -47 88 -55z
m-2586 3 c-51 -78 -57 -83 -65 -63 -4 13 -17 33 -29 45 l-20 21 84 41 c45 22
84 41 85 41 1 0 -24 -38 -55 -85z m2749 -166 c5 -11 4 -20 -4 -27 -9 -7 -20 7
-44 56 l-31 67 35 -40 c19 -22 39 -47 44 -56z m-1556 -95 c142 -70 167 -71
294 -9 51 25 110 48 131 51 61 10 133 -13 306 -96 88 -43 181 -84 205 -91 l44
-14 -30 -6 c-57 -12 -204 -9 -317 7 -155 22 -289 15 -391 -20 -105 -35 -155
-34 -274 10 l-98 35 -130 -5 c-279 -12 -621 -15 -580 -5 114 27 305 87 420
132 242 93 255 93 420 11z"/>
</g>
</svg>
