<svg xmlns="http://www.w3.org/2000/svg" width="346.667" height="362.667" viewBox="0 0 260 272"><path d="M68.3 12c-4 2.4-6.5 6.1-7.2 10.7l-.6 3.5-17 .1c-16.6.2-17.1.3-21.7 3-10.3 6-10.9 9-10.6 47.6.3 27.7.5 30.5 2.1 31.5 1.2.8 2.2.8 3.5 0 1.3-.9 1.8-2.8 2-8.8l.3-7.6 103.7.2 103.7.3.3 27.7c.1 15.3-.1 27.8-.5 27.8-.5 0-2.6-1.2-4.7-2.6-11.1-7.6-27.7-12.1-40.4-11-9.2.7-18.1 3-24.3 6.2-5.8 2.9-5.9 2.9-5.9.4 0-1.2-1.1-3.2-2.5-4.5-2.1-2.2-3.3-2.5-9-2.5-6 0-6.9.3-9.6 2.9-2.5 2.5-2.9 3.7-2.9 8.5 0 6.8 1.3 10.3 4.3 11.7l2.4 1.1-4.3 6.4c-4.8 7.4-9.2 19.9-10.2 29.2l-.7 6.3-45.2-.1c-31.5 0-46-.4-47.8-1.2-5.9-2.7-6-2.9-6.5-43.2-.5-33.7-.7-37-2.3-38-1.2-.8-2.2-.8-3.5 0-1.6 1-1.7 4.5-2 44.5-.2 30.4.1 44.6.9 47.4 2.6 9.4 9.8 14.5 21.5 15.3 6.3.4 7.4.2 9.3-1.7 1.7-1.7 1.9-2.5 1.1-4.1-.9-1.7-2.1-2-8.3-2-5.4 0-8-.5-10.4-2-3.2-1.9-6.3-6.6-6.3-9.5 0-1.3.6-1.3 4 .5 3.8 1.9 5.7 2 50 2 36 0 46.1.3 46.4 1.2.3.7.7 2.8 1 4.5l.6 3.3H87.7c-24.6 0-33.6.3-34.5 1.2-1.8 1.8-1.4 4.6.7 5.8 1.3.6 14.4 1 35.8 1h33.8l2.7 5.3c16.7 31.8 55 44.5 87.3 28.8 14.4-6.9 24.3-17.1 31-31.6 4.6-9.9 6-16.5 5.9-28 0-14.6-4.4-27.7-12.8-38.8L234 156V42.4l-2.2-4.4c-5-9.8-12.2-12.3-33.6-11.8-13 .3-14.1 0-14.2-4.7 0-3.3-3.5-8.1-7.3-9.8-8.9-4.3-17.7 0-20.2 9.8l-1.1 4.5-32.9.1-33 .1-.7-4.2c-1.7-9.7-12.4-15-20.5-10m10.4 6.8c2.3 1.5 3.4 6.7 3.2 16.1-.2 9.7-1 13.9-3.2 15.3-2 1.3-6 .9-7.9-.9C69.2 47.9 69 46 69 34.4c0-10.7.3-13.6 1.6-14.8 1.6-1.7 6.1-2.1 8.1-.8M175 20c1.8 1.8 2 3.3 2 14.5s-.2 12.7-2 14.5c-2.4 2.4-6.7 2.6-9.2.3-1.6-1.4-1.8-3.3-1.8-14.6 0-10.7.3-13.4 1.7-14.9 2.1-2.4 6.8-2.3 9.3.2m24.5 124.3c7.9 2.8 20 12.9 25.3 21.2 6.2 9.5 10.3 21.7 10.1 29.6-.1 4.1-.2 4-.9-1.6-1.5-11.5-6.3-20.7-15.1-29.1-8.8-8.3-15.8-11.7-27.9-13.4-17.9-2.5-37.4 6.2-47.3 21.2-18.5 28.3-5.2 65.4 27.3 75.8 10.6 3.3 24.8 1.9 36.5-3.7 10.8-5 21.5-17.9 25-30.1 1.6-5.4 3-7.3 1.9-2.5-3.7 15.8-10.8 27.2-23.5 37.5-8.3 6.8-12.9 8.3-25.9 8.3-9.5 0-12.7-.4-18.3-2.4-41.1-14.2-52.9-66-22-96.4 6.8-6.7 20.9-14.2 29.3-15.7 7.1-1.2 20.4-.5 25.5 1.3m-6.1 15.2c21.6 4.6 35.3 24.5 32.4 46.9-2.9 22-25.5 38.6-47.5 34.9-17.8-3.1-31.5-16.8-34.6-34.7-4.1-24.3 15.2-47.2 40.8-48.5 1.1 0 5.1.6 8.9 1.4m41.3 47.2c-.3 1-.5.2-.5-1.7s.2-2.7.5-1.8c.2 1 .2 2.6 0 3.5"/><path d="M182.8 168.1c-1.5.8-1.8 2.5-1.8 10.8 0 9.5-.1 9.8-2.6 11.1-7.3 4-7 16.6.6 20.5 5.3 2.8 9.7 2 14.2-2.5 3.6-3.5 4.6-4 8.7-4 5 0 7.1-1.3 7.1-4.2 0-2.3-3-3.8-7.8-3.8-3.3 0-4.6-.7-8.1-4.1l-4.1-4.1V179c0-7.1-.3-9-1.8-10.3-2.1-2-2.1-2-4.4-.6m5.2 29.3c.6.8 1 2.5.8 3.8-.2 1.9-.9 2.3-3.8 2.3s-3.6-.4-3.8-2.3c-.2-1.3-.1-3 .2-3.8.7-1.8 5-1.8 6.6 0M30.5 103.5c-2.2 2.1-2.5 3.3-2.5 9.8 0 6.4.3 7.6 2.3 9.5 2 1.8 3.5 2.2 9.6 2.2 6.3 0 7.5-.3 9.6-2.5 2.2-2.1 2.5-3.3 2.5-9.5s-.3-7.4-2.5-9.5c-2.1-2.2-3.3-2.5-9.5-2.5s-7.4.3-9.5 2.5m33 0c-2.2 2.1-2.5 3.3-2.5 9.3 0 5.5.4 7.5 2.1 9.6 1.9 2.4 2.6 2.6 9.9 2.6s8-.2 9.9-2.6c1.7-2.1 2.1-4.1 2.1-9.6 0-6-.3-7.2-2.5-9.3-2.1-2.2-3.3-2.5-9.5-2.5s-7.4.3-9.5 2.5m33 0c-2.2 2.1-2.5 3.3-2.5 9.5s.3 7.4 2.5 9.5c2.1 2.2 3.3 2.5 9.8 2.5 6.4 0 7.6-.3 9.5-2.3 1.8-2 2.2-3.5 2.2-9.6 0-6.3-.3-7.5-2.5-9.6-2.1-2.2-3.3-2.5-9.5-2.5s-7.4.3-9.5 2.5m33.4.4c-2.6 2.7-2.9 3.6-2.9 9.6 0 5.7.3 6.9 2.5 9 2.1 2.2 3.3 2.5 9.8 2.5 6.4 0 7.6-.3 9.5-2.3s2.2-3.5 2.2-9.9c0-7.1-.2-7.8-2.6-9.7-2.1-1.6-4.1-2.1-9.1-2.1-5.8 0-6.8.3-9.4 2.9m33 0c-2.5 2.6-2.9 3.7-2.9 8.6 0 5.9 1.9 10.9 4.5 11.9s14.4.7 16.5-.4c2.6-1.4 4.1-6.7 3.6-13-.5-7.7-3.4-10-12.2-10-5.9 0-6.8.3-9.5 2.9m33.6-.6c-4.4 3.7-4.7 15.5-.4 19.8 2.8 2.8 16 2.8 18.9-.1 2.6-2.6 3.4-6 2.8-12.2-.8-7.4-3.7-9.8-12.3-9.8-5.2 0-6.9.4-9 2.3M32.3 135c-3.3 1.3-4.3 4.1-4.3 11.8 0 5.9.3 7.2 2.3 9 2 1.9 3.5 2.2 9.9 2.2 7.1 0 7.8-.2 9.7-2.6 1.6-2.1 2.1-4.1 2.1-9 0-7.7-.5-9.1-4.1-10.9-3.1-1.6-12.1-1.9-15.6-.5m33 0c-3.3 1.3-4.3 4.1-4.3 11.8 0 5.9.3 7.2 2.3 9 2 1.9 3.5 2.2 9.8 2.2 6.6 0 7.8-.3 9.7-2.3 1.8-2 2.2-3.5 2.2-9.6 0-6.3-.3-7.5-2.5-9.6-2.1-2.2-3.3-2.5-8.7-2.4-3.5 0-7.3.4-8.5.9m33.2.2c-3.6 1.9-4.5 4-4.5 10.9 0 5.2.4 7.2 2.1 9.3 1.9 2.4 2.6 2.6 9.8 2.6 6.8 0 8-.3 9.9-2.3 1.8-2 2.2-3.5 2.2-9.6 0-6.3-.3-7.5-2.5-9.6-2-2.1-3.3-2.5-8.7-2.5-3.5 0-7.2.6-8.3 1.2M32.3 168c-1.2.5-2.6 1.8-3.2 2.9-1.4 2.5-1.4 14.6-.1 17.1 1.5 2.8 7.2 4.2 13.5 3.5 7.6-1 9.5-3.5 9.5-12.2 0-5.8-.3-6.8-2.9-9.4s-3.6-2.9-8.8-2.8c-3.2 0-6.8.4-8 .9m33.2.2c-3.7 2-4.5 4-4.5 11.3 0 6.3.3 7.4 2.5 9.5 2.1 2 3.6 2.4 9.4 2.4 6 .1 7.3-.2 9.5-2.3 2.3-2.2 2.6-3.2 2.6-9.2 0-8.2-.5-9.6-4.1-11.4-3.3-1.7-12.5-1.9-15.4-.3m31.5 1.6c-2.7 2.8-3 3.6-3 9.6 0 8.4 2.3 11.5 9 12.1 5.8.5 12.1-.9 13.7-3.1.8-1.1 1.3-4.7 1.3-9 0-10.1-1.4-11.7-10.8-12.2-6.8-.4-7.3-.3-10.2 2.6"/></svg>