<svg xmlns="http://www.w3.org/2000/svg" width="320" height="320" viewBox="0 0 240 240"><path d="M199.5 1.1c-7.8 1.3-22 5.7-32 9.8-10.3 4.3-12.6 6.7-21.4 22.5-5.6 10.1-6.7 9.2-3-2.6 1.2-3.8 2-7.1 1.7-7.3-.3-.3-5.1 2-10.7 5.1-11.6 6.3-14.8 9.8-17.5 19.1-1 3.2-2.2 6.7-2.7 7.8-1.2 2.7-.1-5.6 1.6-11.2.7-2.3 1-4.4.8-4.7-1.7-1.6-23.9 16.8-33 27.3-10.7 12.4-13.8 21.4-13.1 37.7.2 5.1.1 9.1-.3 8.8-1.1-.7-2.9-9.1-2.9-13.8 0-2.5-.4-4.6-.9-4.6-1.7 0-16.7 16.6-21.2 23.5-5.6 8.4-7.9 15.2-10.9 31-3.1 17-3 16.8-3.6 16.2-.3-.3-.5-2.8-.6-5.7 0-8.5-1.6-4.2-2.5 7-.6 6.8-2.1 6.1-2.2-1-.2-4.8-1.8-7.3-2.5-3.9-2.9 12.3-4 24.7-2.8 29.9.5 2.4 1.4 3.6 2.7 3.7 1.6.2 3.3-2 8-10.4 15.9-28.2 43.4-66.9 63.4-89.1 14.7-16.4 47.4-40 79.2-57.3 7.4-4 17.2-9.8 21.9-13 9.5-6.5 23.4-17.8 22.6-18.6-.2-.2-2.8 1.1-5.7 3.1-2.9 1.9-5.5 3.4-5.7 3.1-.2-.2.5-1.7 1.7-3.3 3.7-5.3 2.3-4.8-4.1 1.3l-6.1 6 2.8-5c1.6-2.8 3.7-6.4 4.7-8 3-4.9 3-4.9-5.7-3.4"/><path d="M215.5 18.2c-11.8 10.4-37.6 29.6-57.2 42.5-36.9 24.3-63.6 49.5-91.1 85.9C56.5 160.9 36 193.2 36 195.9c0 1.4 6.7 1.5 7.5.1.3-.5 6.5-2.8 13.8-5.1 14.7-4.6 27.9-10.7 32.9-15.1 3.5-3.2 3.7-3.2-7.2 1-4.8 1.8-9.6 2.6-18.5 3.2-6.6.5-12.9 1.1-14 1.6-1.5.5-1.7.4-.9-.5.6-.6 6.7-2.3 13.5-3.7s16.2-4.1 20.9-6.1c12.2-4.9 39.6-20.3 36.3-20.3-.7 0-3.8.7-7 1.5-3.6.9-9.8 1.5-16.8 1.4-11.7-.1-11-.6 5-2.8 16.7-2.4 40.2-12.1 47.9-19.7 4.6-4.7 10.3-13 9.4-13.9-.2-.2-5.9.1-12.5.7-10.6 1-13.7.9-23.4-.6-7.1-1.2-13.5-1.6-17.3-1.2-4.9.4-5.6.3-3.6-.5 1.4-.6 10.2-1.5 19.5-1.9 17-.8 23.5-2 39-7.1 10-3.4 22.3-9.9 27.3-14.6l4.7-4.4-5.5.5-5.5.4 4.5-1.9c2.5-1 5.9-2.6 7.5-3.4 3-1.5 2.9-1.5-3-1.1l-6 .5 6.5-2.3c9.5-3.4 12.1-4.9 16.9-10.1 4.1-4.5 10.9-17 9.8-18.1-.3-.3-3.7.1-7.6 1-3.8.9-10.5 1.5-14.8 1.5l-7.8-.1 5.9-.9c15.1-2.2 28.4-7.7 31-12.8.9-1.6 1.3-3 1.1-3.3-.3-.2-3.5.4-7.2 1.3-10.4 2.7-12.8 2.2-4.3-1 12.9-4.8 14-5.6 14-10.1v-3.9l-6.6 2.5c-3.7 1.4-6.8 2.3-7 2.1-.3-.2 2.7-2.5 6.6-5.1 7.2-4.7 8.2-6.5 6-10.7-.6-1-1.6-1.9-2.3-1.8-.7 0-4.8 3.2-9.2 7.1"/><path d="M179.9 37.4c-26.5 15.8-33.4 20.3-45.4 29-38 27.5-66.4 61.1-101.7 120.6-8.8 14.9-9.6 16.6-8.1 17.7 2.6 2 3 1.7 5.7-4.3 3.5-7.7 14.3-25.4 24.7-40.9C84.5 116.2 119.8 81 161 54.2 186.4 37.7 208.5 22 206.4 22c-.5 0-12.4 6.9-26.5 15.4M208 180.5c-22.7 4-45.2 10.9-67 20.5-4.7 2.1-15.2 6.8-23.5 10.5C85.9 225.7 65 231 26 234.8c-5.7.5-7.5 1.1-7.5 2.2 0 3.2 32.5.2 54-5 16.5-4 32.2-9.5 52.1-18.6 42.9-19.4 68.5-27.5 97.5-30.9 6.3-.8 8.5-1.8 7.5-3.4s-6.4-1.3-21.6 1.4M18 208.1c-1 1.8-.6 2.2 3.6 4.1 4.6 2 4.8 2 6.1.2 1.6-2.1 1.1-2.6-4.4-4.7-4.1-1.6-4.3-1.6-5.3.4m-4.5 10.2c-2.6 4.5-2.5 4.2-1.5 18.6 0 .3 1.2-.7 2.8-2.1 1.5-1.4 3.7-3.1 4.9-3.7 1.3-.7 2.6-2.7 3.2-4.9 2.5-9.6 2.6-9-1.4-10.6-2.1-.9-4.1-1.6-4.6-1.6-.4 0-2 2-3.4 4.3m5.1 6.8c1 1.7-1.3 3.6-2.7 2.2-1.2-1.2-.4-3.3 1.1-3.3.5 0 1.2.5 1.6 1.1"/></svg>