<svg xmlns="http://www.w3.org/2000/svg" width="829.333" height="457.333" viewBox="0 0 622 343"><path d="M412.5 56.6c-20.4 4.5-39.6 12.4-96.1 39.2-45.5 21.6-70.2 29.3-93.9 29.4-12.4.1-19.8-1.5-33-6.8-18.8-7.6-40.4-11.1-52.4-8.5-7.9 1.7-8.5 2.5-5.4 6.9 8.8 13 21.8 50.1 25.3 72.7.7 4.4 1.7 8.8 2.2 9.8.8 1.6 9.3 1.7 162.6 1.5l161.6-.3 5.7-20.9c10.4-37.9 18.3-59.1 24.5-65.7l2.5-2.6-3.7-4.9c-13.5-17.7-32.7-34.4-48.9-42.6-2.7-1.4-8.8-3.8-13.5-5.3-10.8-3.5-26.9-4.3-37.5-1.9"/><path d="M106.1 116.2c-4.9 2.6-9.1 9-9.1 13.7 0 4.3 4.2 11.4 8.4 14.2 4.4 3 4.7 3.6 12 25.3 9.5 28.3 14.4 50.8 16.5 76 1.2 14.2 2.7 18.4 7.5 21.9 2.7 1.9 4.6 2.2 14.9 2.5l11.9.4-6.6 6.8c-7.1 7.4-8.4 11.1-4.8 14.3 4.1 3.8 6.8 2.4 19.2-9.8l11.6-11.5h267.8l11.6 11.5c9.7 9.5 12.2 11.5 14.7 11.5 3.7 0 6.3-2.7 6.3-6.6 0-2.3-1.4-4.4-6.5-9.4l-6.6-6.5 11.5-.5c10.4-.5 11.7-.7 14-2.9 4.7-4.4 6.5-10.2 10.6-33.6 3.9-22.1 8.5-43.8 11.7-55.5 2-7.6 9.2-29.2 10.1-30.6.4-.6 2.6-2.1 4.8-3.2 6.8-3.4 10.1-12.6 7.3-19.9-3.8-10.2-18.5-13.5-26.4-6-2.8 2.6-4.6 6.6-10.1 21.7-9.3 25.9-11.7 33.6-15.4 49-1.8 7.4-3.7 14.5-4.1 15.7l-.9 2.3H321.1c-104.9 0-167.2-.4-167.6-1-.3-.5-1.5-6-2.6-12.2-2.9-15.7-7.2-32.4-11.5-44.6-4.9-13.6-13.3-30.2-16.4-32.4-1.4-1-4.8-2.1-7.5-2.4-4.1-.5-5.8-.1-9.4 1.8"/></svg>