<svg xmlns="http://www.w3.org/2000/svg" width="605.333" height="322.667" viewBox="0 0 454 242"><path d="M318.5 4.6c-18.8 4.2-41.9 13.2-78 30.4-49.4 23.5-63 29.1-84.4 34.5-21.8 5.5-38.7 5.2-55.8-1.1-28.9-10.6-45.9-13.6-58.8-10.3-6.4 1.6-6.9 2.7-3.6 7.9 8.2 13.2 18.3 41.8 23.2 65.5 1.7 8.2 3.3 15.6 3.5 16.2.3 1 33.5 1.3 161.9 1.3H388l1-2.3c.5-1.2 2.4-7.6 4.1-14.2 9.5-36.9 18.8-62.5 25.3-70.3l2.8-3.2-5.8-7.3c-12.8-16.1-30.4-31.3-44.9-38.8-16.4-8.6-36.4-11.8-52-8.3"/><path d="M13.6 63C7.5 64.9 3 71.3 3 78c0 5.9 2.6 10.6 7.6 14 4.8 3.3 5.3 4.5 13.4 29 8.8 26.4 13 46.5 15.4 72.8 1.4 15.3 2.1 17.3 8 21.6 2.3 1.8 4.7 2.2 14.4 2.6l11.6.5-6.7 7.1c-7.1 7.6-8 10.1-4.7 13.4 4.1 4.1 6.7 2.9 19-9.5L92.5 218h269l11.5 11.5c8.7 8.8 12.1 11.5 14.1 11.5 3 0 6.9-3.7 6.9-6.6 0-1-3-5.1-6.8-8.9l-6.7-7 11.2-.5c10.6-.5 11.3-.6 14.2-3.4 3.4-3.3 6.6-10.2 7.6-16.6 5.8-37.5 13.5-71.7 21.1-93.6 3.3-9.6 3.7-10.1 7.4-11.8 2.2-.9 4.9-3.1 6.1-4.8 2.3-3.2 3.5-10.1 2.5-14.2-1.1-4.3-6.4-9.5-10.9-10.7-5.4-1.4-13.6.3-16.6 3.4-5.2 5.6-23 59.3-28.7 86.5l-.4 2.2-167.6-.2-167.6-.3-3.5-17c-4.1-20.6-9-37.3-15-51.4-6.3-14.9-9.3-20-12.5-21.7-3.6-1.9-10.6-2.6-14.2-1.4"/></svg>