<svg xmlns="http://www.w3.org/2000/svg" width="2730.667" height="2730.667" viewBox="0 0 2048 2048"><path d="M154.5 170.2c-9.9.4-21.1.8-25 1l-7 .3-.8 37.9c-.5 24.7-.4 38.3.2 38.9.7.7 14.3-12.4 39.9-38.2 21.3-21.6 38.4-39.5 37.9-39.8-1.3-.8-25.4-.9-45.2-.1m34.7 5c-.2.4-14.5 14.9-31.8 32.3L126 239.1V208c0-24.8.3-31.2 1.3-31.6 1.2-.4 55.5-2.3 60.2-2 1.1.1 1.9.4 1.7.8m1672-5.1-2.4.9 4.1 4.8c2.2 2.6 19.3 19.9 37.9 38.6 21.9 21.9 34.4 33.6 35.2 33.1.9-.5 1-7.8.5-30.9-1-41.5-1-43.5-1.7-44.1-.3-.3-11.7-1-25.4-1.5s-29.6-1.2-35.4-1.4-11.6 0-12.8.5m41.5 5.4c14.4.5 26.6 1.1 27.1 1.4s1.3 14.2 1.7 31.4l.7 30.7-31.4-31.5c-17.2-17.4-31.4-32-31.6-32.5s1.4-.8 3.5-.6 15.6.7 30 1.1M205 187.5c-16.9 15.6-58.3 57.1-69.8 70.2-4.3 4.8-6.8 8.4-6.2 8.8 1.6 1 44.8-41 68.5-66.5 3.9-4.2 11-11.7 15.8-16.7s8.4-9.3 8-9.6-7.8 5.9-16.3 13.8m57-13.5c-24 3.9-47.1 22.9-56.3 46.3-1.5 3.7-3.4 10.9-4.3 16-.9 5-1.8 9.5-2 9.9-.2.3-3.5.9-7.2 1.3-20.5 2-38.1 12.6-53 32.2-7.9 10.3-13.2 27.2-13.2 42.2 0 7.9.5 11 2.9 17.7 5.8 16.9 20.4 30.4 37.6 34.9 10.6 2.7 24.5 1.1 33-4 18.7-11.1 24.4-36.9 11.2-51.2-10.6-11.5-25.3-12.2-34.6-1.7-3.9 4.5-5.9 9.3-4.6 11.4 1 1.5 2.5.2 2.5-2.2 0-2.7 4.4-8.5 8.4-10.9s11.8-2.5 17.2 0c8.7 3.9 15.2 15.6 14.1 25.2-.8 6.7-5.9 17-10.4 20.9-14.4 12.7-39.3 11-56-3.6-11.6-10.2-16.2-20.7-16.3-36.6 0-24.1 12-45.9 32.8-59.8 8-5.3 20.8-10 27.5-10h3.6l-1.4 3.4c-2.5 5.9 1.6 14.5 8.6 18.1 6.5 3.4 17.1.5 21-5.8 2.7-4.3 2.3-14.4-.7-18.4-3.1-4.1-9.2-7.3-14.2-7.3H204l.6-4.3c1.1-7.9 6.1-20.4 10.8-27.5 5.3-8 15.7-18 23.8-22.9 2.9-1.8 8.7-4.5 12.8-6 6.6-2.3 9-2.7 20-2.7 10.6-.1 13.5.3 19.2 2.2 12.9 4.5 23.8 15 28.9 28 1.9 4.7 2.3 7.7 2.3 17.2.1 10.9 0 11.8-2.9 16.8-3.4 6.2-11.2 13.7-17 16.3-2.7 1.3-6.4 1.9-11.3 1.9-12.5 0-19.6-4.9-23.7-16.6-2.2-6.2-4.2-7-3.6-1.4.7 7.6 6.8 15.8 14.5 19.7 6.4 3.3 16.2 3.6 25 .8 8-2.5 16.4-10.3 20.8-19.2 5.8-11.8 5-29-2-43.3-5.4-10.9-18.4-21.7-31.1-25.6-5.8-1.8-21.9-2.6-29.1-1.4m-46.4 74.9c4.5 2.7 6.8 8.2 5.4 12.6-4.4 13.3-23 11.3-23-2.5 0-4.2 2.6-9.5 5.3-10.8 3.5-1.7 8.9-1.4 12.3.7M1775 174.6c-10.4 2.7-19.2 7.8-26.1 15.2-7.7 8.1-11.4 15.2-13.6 25.8-3.9 18.9 4.1 38.2 18.9 45.7 21.8 11 45.3-.8 45.2-22.8-.1-7-1.8-10.9-6.8-15.3-5.7-5-16.4-5.6-21.2-1.1-3.6 3.3-4.8 5.9-3.6 7.1.7.7 1.5.1 2.6-2 2.3-4.4 7-6.3 13-5.1 8.2 1.5 12.6 7.3 12.6 16.4 0 12.7-10.2 22.4-23.7 22.5-21.8.1-36.7-20-32.4-43.3 3.4-18.4 19.3-35 37.2-38.8 6.6-1.4 22.4-.6 30.3 1.5 19.9 5.5 38.7 21.6 46.6 40.1 1.7 4.1 5 17.1 5 19.9 0 1.2-1.1 1.6-4.3 1.6-9.7 0-17.6 7.6-17.7 16.8 0 10.3 9.5 18.1 19.8 16.2 6.1-1.1 9.1-3.5 11.9-9.5 2.1-4.7 2.3-6 1.4-9.2-.6-2-.8-3.9-.6-4.1 1-1 15.3 2 20.3 4.3 24.5 11.2 40.3 34 41.9 60.5 1 17-3.8 30.3-14.8 40.4-10.3 9.5-20.6 13.2-34.7 12.3-13-.8-21-5.1-27.2-14.7-9.3-14.5-6.6-29.6 6.9-38.1 7.5-4.8 17.4-3.6 23.2 2.7 3.6 3.9 5.1 8.8 3.8 12.1-.6 1.7-.6 3 0 3.6 1.4 1.4 2.9-2.9 2.6-7.4-.4-4.9-2.7-9.1-7-12.7-9-7.4-21.1-6.3-31.1 3-3.4 3.2-4.8 5.5-6.4 10.5-2.3 7.6-2.5 11-.6 17.8 2 7.7 4.9 12.6 10.5 17.8 9.3 8.7 21.3 12.3 35.2 10.6 14.9-1.8 31.6-13 38-25.4 5.2-10 6.3-15.1 6.4-28.5 0-11.1-.3-13.4-2.9-21-4.9-14.8-12.4-26.2-23.2-35.2-11-9.3-28.4-16.8-38.9-16.8-6.3 0-8.2-1.9-9-9.2-1-9.1-6-23.3-10.7-30.6-2.2-3.4-7.8-9.8-12.4-14.1-17.6-16.7-44.3-24.8-64.4-19.5m82.7 72.4c6.7 2.4 9.9 12.4 5.9 18.5-2.3 3.5-7.9 5.8-12 5-3.7-.8-8-4.6-9.6-8.6-2.3-5.3 2.1-12.9 8.6-14.9 3.9-1.1 3.7-1.1 7.1 0M478.5 178.5c-8.4 8.8-3.3 21.5 8.6 21.5 3.9 0 5.5-.6 8.2-2.9 4.7-4.2 6.1-9.3 3.9-13.9-2.4-5-7.4-8.2-13-8.2-3.8 0-4.9.5-7.7 3.5m13.7 1.5c4 3.1 5.3 7.2 3.4 10.9-3.6 6.8-10.2 7.7-15.1 1.9-2.9-3.5-3.1-4.8-.9-9.3 2.4-5.2 8.4-6.9 12.6-3.5m1060.3-1.8c-3.9 3.1-5.6 7.7-4.4 12 2.1 7.8 9.7 11.7 16.5 8.4 3.6-1.7 7.7-7.3 6.7-9-.4-.6-1.1-.2-1.7.8-2.6 4.3-4.3 5.7-7.9 6.3-3.3.5-4.1.2-7.2-3.1-4.7-5-4.7-8.7-.1-13.1 3.1-2.9 3.7-4.5 1.6-4.5-.4 0-2 1-3.5 2.2m293.1-.4c-.5.9 57.7 59.9 75.1 76 6.7 6.2 12.4 10.8 12.7 10.3.7-1.1-10.8-13.6-36.8-39.9-16.9-17.1-48.7-47.2-49.9-47.2-.3 0-.8.4-1.1.8m-1244.5 6.3c-43.7.5-80 1-80.8 1.3s-1.1 1-.8 1.6c.4.6 9.4 1 24.1 1H567l.2 87.2.3 87.3 2.5-.2c2.5-.1 31.7-12.9 61.5-26.8 4.4-2.1 8.5-3.8 9-3.8.6 0 7.1 2.7 14.5 6 51.8 23.3 56.8 25.4 57.5 24.4.2-.5.5-38.8.5-85.2s.3-85.4.6-86.7l.6-2.2h23.3c22.8 0 23.3 0 23.8 2.1.3 1.1.6 40.1.7 86.6 0 46.5.3 85 .6 85.5 1 1.5-1.1 2.4 52.6-22l19.8-9 13.6 6.3c7.5 3.5 15.2 6.9 17.2 7.6 2.1.6 4.2 1.5 4.7 1.9 1 .8 10.1 4.9 26.9 12.1 4.9 2.1 9.3 3.6 9.7 3.3.5-.3.9-39.2.9-87.5V188h48v87.4c0 48.1.4 87.7.8 88 .8.5 55.4-23.7 66.5-29.4l5.7-3 9.7 4.6c5.3 2.5 14.4 6.6 20.2 8.9 5.8 2.4 17.5 7.5 26 11.4 8.5 3.8 15.8 6.8 16.3 6.5.4-.3.8-38 .8-83.7 0-45.8.3-84.9.6-87l.7-3.7h47.7v87.4c0 48.1.3 87.7.8 87.9.7.5 24-9.8 57-25.1 14.3-6.6 15.4-6.9 18-5.7 3.9 2 32.3 14.5 32.8 14.5.2 0 7.9 3.3 17.1 7.4 9.3 4.1 17.5 7.6 18.3 7.8 1.3.3 1.6-10.1 2-87.1l.5-87.3 23.5.1c12.9.1 23.7.4 24 .7s.6 39.3.8 86.7c.2 48.1.7 86.6 1.2 87.1.9.9 10.8-3 29.8-12 6.3-3 11.5-5.4 11.7-5.4s3.9-1.6 8.2-3.6c6.6-3.1 20.7-9.1 22.3-9.6.3-.1 3 1 6 2.5s15.4 6.9 27.5 12.1c12.1 5.1 25.5 11 29.9 13 4.3 2 8.2 3.3 8.7 3s.9-37.6.9-87.5V188l3.8-.1c2-.1 7.2-.2 11.4-.3 10.3-.1 9.7-2-.7-2.4-57.9-1.9-734.6-2.8-905.4-1.1"/><path d="M275.4 219.9c-4.7 2.1-10 8.2-11 12.4-.7 3.4 1.2 6.2 2.1 3.1 3.5-11.1 11.7-16.8 19.7-13.6 3.2 1.3 4.8-.2 1.9-1.7-3.8-2.1-8.5-2.1-12.7-.2m153.7 94.5-9.4 9.5-7.4.3c-4 .2-7.3.2-7.3.1s2.7-2.7 6-5.9c6.2-5.9 7.9-8.9 6.2-10.6-.8-.8-4.1 2.1-11 9l-9.9 10.1-9.4 2c-54.6 11.5-99.8 49.7-116.5 98.4-3 8.7-7.4 29.5-7.4 34.9 0 2.2-.4 3.8-1 3.6-.5-.2-4-4.4-7.7-9.3-6.2-8.3-9-10.5-8.7-7 .1 1.3 11.5 18.6 15.8 24l2.4 2.9 7.1-5.8c13.4-10.9 15.5-13.1 14.8-15-.6-1.5-1.4-1.1-6.4 2.6-3.2 2.4-7.3 5.5-9.2 6.8l-3.4 2.4.6-7.5c1.7-19.4 9.5-41 21.1-58.3 17.1-25.4 33.9-40.4 60.6-54 16.4-8.4 37.3-15.6 45-15.6 1.1 0 4.8 2.2 8 4.9 9.2 7.6 14.8 11.3 15.5 10 .9-1.3-2.1-4.6-10.3-11.2-3.4-2.8-5.9-5.4-5.4-5.9s3.8-1.1 7.4-1.5l6.6-.6 11.2 8.8c7.4 5.8 11.5 8.4 12.1 7.8.7-.7-1.8-3.7-7.5-8.9l-8.5-7.8 5.2-5.6c10.9-11.5 14.4-17 10.9-17-.4 0-5 4.2-10.1 9.4m1152.6-7.8c-.9 1 2.8 6 10.4 13.9l6.7 7-7.9 8c-4.4 4.4-7.5 8.3-7 8.8.8.8 4.8-2 17.9-12.6 5.1-4 9.1-4.7 16.6-2.6l3.9 1.1-8.7 8c-5.9 5.5-8.4 8.4-7.7 9.1s1.5.7 2.3 0c.7-.5 5.4-4.2 10.4-8.1 5.1-4 9.8-7.2 10.5-7.2 4.3 0 23.3 5.6 32.6 9.5 23.3 10 43.3 24.2 57.9 41 21.9 25.2 32.8 49 36 78.5l.7 6.4-2.9-1.8c-1.6-1.1-4.5-3.1-6.4-4.6-4.9-3.8-9.8-6.2-10.5-5.1-.9 1.5 22.1 20.4 23.7 19.5.9-.6 10.5-15.2 14.8-22.4 2.1-3.6 2.8-5.6 2.1-6.3-1.5-1.5-3.1.2-9.6 9.8-3.1 4.7-6 8.7-6.5 9-.4.3-1.1-2.3-1.5-5.8-2.8-24.9-9.6-43.5-23.7-64.5-15.7-23.3-33.7-39.2-59.3-51.9-15.2-7.6-38.4-15.3-46-15.3-2 0-5-2.2-11.8-8.6-11-10.3-13.4-12.1-14.8-10.7-1.3 1.3 3.5 7 10.5 12.5l5 3.9-6.5-.6c-10.1-1-10.1-1-20-10-9.6-8.6-10.1-9-11.2-7.9m303.9 31.3c-1 1.1-1.3 2.2-.8 2.5s1.7-.3 2.6-1.3c1-1.1 1.3-2.2.8-2.5s-1.7.3-2.6 1.3m-1346 113.4c-11.7 12.9-18.1 25.7-19.9 39.9l-1.1 8.8-4.6-11.7c-2.6-6.5-5-12.7-5.4-13.7-.4-1.3-1-1.6-1.6-1-1.2 1.2.9 8 6.8 22.7 2.2 5.3 3.6 9.7 3.3 9.7s-3-1.6-5.8-3.5c-9.9-6.7-28.9-11.3-41.3-10.1-7.4.7-16.8 3-18.3 4.5-2.3 2.3 15.6 16.4 26.3 20.8 12.2 4.9 27.5 4.7 37.8-.6 4.8-2.4 6.2-2.6 6.2-.8 0 1.6 16.5 34.9 21 42.3l3 5.2-10.7-.5c-8-.4-12.5-.1-17.3 1.1-9.3 2.3-23.6 9.7-30 15.5l-5.5 4.9 3.8 1.6c12.8 5.5 29.3 6.3 42.3 2.2 6.9-2.2 9.1-3.5 14.8-8.7 7.3-6.7 8.2-10.3.9-3.9-2.5 2.2-7.1 5.2-10.2 6.7-4.8 2.4-7.1 2.8-16.6 3.2-6.2.2-14-.2-18-.9l-6.9-1.3 3.4-2.8c10.5-8.8 30.2-14.8 44.4-13.4l7.8.7 5.1 8.1c7.6 12.1 19.2 29.1 25.9 38.1 3.3 4.3 5.7 8 5.5 8.2s-1.9-.1-3.8-.6c-4.5-1.3-14.5-1.3-21.1.1-13.1 2.8-38.2 17.9-35 21.1 1.8 1.8 14.4 4.8 22.7 5.4 16.3 1.3 28.7-2.7 39.3-12.6l5.4-5 2.6 3.3c3.6 4.3 25.3 27.6 28.6 30.6 1.4 1.4 2.6 2.7 2.6 3.1 0 .3-3.6.2-7.9-.3-12.6-1.4-27.4 2.4-40.7 10.4-7.2 4.4-13.8 10-12.7 10.9 1.5 1.4 13.2 4.9 20 6 11.6 1.9 26.4-.6 34-5.7 2.1-1.4 6.6-5 10.1-8l6.2-5.5 6.4 6c6.5 6 23.4 19.8 27.4 22.3 1.2.8 2.2 1.6 2.2 1.9s-4 .1-8.9-.4c-7.3-.8-10.7-.6-17.8.8-8.8 1.7-26.2 8.6-28.3 11.1-1.8 2.1-.4 3.4 7.9 7.1 22.3 10.2 47.3 8 59.7-5.3l2.2-2.4 8.4 5.4c8.7 5.7 17 10.7 25.2 15.4l5 2.8-8.6.7c-5.5.5-11.4 1.8-16.4 3.7-11.9 4.4-19.5 8.2-19.1 9.4.5 1.5 9.7 6.1 18.9 9.4 6.2 2.2 9 2.6 18.8 2.7 11 .1 11.8-.1 18.5-3.2 3.9-1.8 8.5-4.7 10.3-6.5 2.9-2.8 3.5-3 6-2 1.5.6 8.8 3.7 16.2 6.8 15 6.3 37.6 14.5 40.2 14.5 3.5 0 2.6 2.1-3.6 8.4-8.3 8.3-10.9 12.5-14.8 23.9-3.4 10.1-5.2 27.7-2.9 29.1 1.8 1.1 14.2-7.7 20.7-14.7 10.7-11.3 15.2-23.4 13.8-36.4-.5-5.4-.4-6.5.7-6.1 1.8.7 14.1 4 24.4 6.7 4.4 1.1 13.9 3.3 21.2 4.8l13.1 2.7-6.8 7.3c-11.9 12.8-19 30.6-19 47.7 0 3.5.3 6.5.6 6.9 1.1 1.1 9.8-4 15.7-9.3 11.7-10.5 19.5-24.8 19.9-36.4.2-3.9-.1-6.6-.7-6.6-.5 0-1.1.8-1.1 1.7-.7 8.4-6.4 21.2-13.1 29.3-4 4.8-13.5 13-15.2 13-2.7 0 2.6-22.5 7.5-32 4-7.6 14.7-20 17.4-20 1.1 0 2 .8 2.2 2 .4 2.7 2.2 2.7 2.6 0 .2-1.4.9-1.9 2-1.6 3.5 1 34 5 47.8 6.2 4.8.4 7.4.3 7.8-.5.9-1.5.4-1.6-15.9-3.6-24-3.1-41-6.1-41.1-7.3-.3-2.3-.4-2.4-1.9-1.2-1.2 1-1.6 1-1.9-.1-.2-.8-1.1-4-2-7.1-3.9-13.3-2.8-30.9 2.7-44.7 2.6-6.4 3.9-7.2 5.6-3.4 6.1 13.3 7.1 35.5 2 44.3-3.7 6.4-4.8 9-3.9 9.5 1.3.8 5.3-5.6 8.7-13.5 2.3-5.6 2.7-7.8 2.6-16.5 0-11.2-3.2-24.1-8-32.2-2.4-4.1-2.7-4.3-4.3-2.8-2.8 2.5-7.6 12.3-9.9 20.2-4.3 14.6-3.7 30.5 1.6 42.6.9 2 1.4 3.9 1.2 4.1-.5.6-36.6-7.6-47.9-10.8-4.7-1.3-10-2.7-11.7-3.1-1.8-.4-3.3-.9-3.3-1.2 0-.2 1.5-2.3 3.3-4.6 5-6.4 7.4-11.8 9.3-20.9 1.6-7.7 1.6-9 .1-17.7-1.1-6.9-2.8-11.8-6.1-18.8-2.7-5.5-5-9.2-5.6-8.8-1.4.9-8.4 14.8-10.4 20.8-.9 2.7-2.1 9.4-2.7 14.9-1.2 11.2-.3 18.6 3.3 27.1 1.2 2.6 1.9 5 1.6 5.2-1.9 1.9-59.8-21.8-59.8-24.5 0-.5.4-1 .9-1s2.8-2.8 5-6.1c10.6-15.9 10.6-33.4 0-56.6-2.6-5.8-3.1-6.3-4.6-5.1-2 1.6-8.6 15.5-10.7 22.9-3.5 11.7-3 29.8 1 39.8.8 1.9 1.3 3.6 1.1 3.7-.6.6-9.6-4.1-26.9-13.9-17.7-10.1-31-18.7-29.1-18.7 2 0 10.2-8.9 13.7-15 5-8.5 6.6-14.8 6.6-26 0-10.2-1.5-20.8-3.2-22.5-.6-.7-2.9 1.1-6.8 5.2-13.9 14.7-21 29.8-21 44.5 0 6.2-.9 8.4-2.5 5.9-.3-.6-5.4-4.7-11.3-9.2-5.9-4.6-14.7-11.7-19.6-15.8l-8.8-7.5 2.3-1.6c1.3-.8 5-3.9 8.2-7 11.3-10.6 16.2-26.5 13.9-45-1.1-8.6-2.4-13-4.1-13-1.4 0-12.9 14.2-17.6 21.7-6.3 10.1-8.9 18.7-8.9 29.5-.1 4.9-.4 8.8-.7 8.8-.4 0-2.6-2.1-5-4.8-2.4-2.6-9.7-10.4-16.3-17.5-11.3-12-14.2-15.5-13.4-16.1.1-.2 2.4-1.7 5-3.5 6-4 12.4-13.3 15.6-22.5 2.2-6.5 2.4-8.2 2-20.1-.5-13.2-1.7-18.5-4.1-18.5-1.4 0-9.9 8.6-13.9 14-6.7 9.2-13.3 27.7-12.7 35.4.5 7.2 0 7.1-6.8-2-3.7-4.9-11.6-16.1-17.4-24.9l-10.7-16 5.5-3.1c8.1-4.6 15.6-15.9 18.3-27.4 2.5-10.4.7-34.6-2.7-35.7-1.9-.7-11.6 9.6-17.2 18.2-5.5 8.4-8.6 16.9-10.2 27.9-.5 3.8-1.1 7.1-1.3 7.3-.4.4-14.4-26.9-19-37l-3.5-7.7 4.8-2.5c9.2-4.6 18.6-18.3 21.3-30.8 1.5-7.4.6-27.3-1.6-31.5-.9-1.7-1.8-3.2-2.1-3.2-.2 0-3.3 3.3-6.9 7.3m6.2 18c-.3 11.6-.5 12.6-4 19.9-4.7 10-13.9 19.8-18.4 19.8-.4 0-.4-4.1-.1-9.1 1.1-15.1 7.5-30.6 17.1-41.6 3.4-3.8 4.1-4.2 4.9-2.8.5.9.7 7.2.5 13.8m-52.3 30.6c8.3 2.1 16.3 5.3 22.8 9.4l3.9 2.4-2.6 1.6c-2.7 1.8-14.8 4.7-19.5 4.7-4.2 0-20.4-5.4-24.2-8-1.9-1.3-5.9-4.2-8.9-6.4l-5.5-4.1 3-.6c6.6-1.4 23-.9 31 1m80.5 23.9c0 14.7-2.3 24-8 32.1-4.4 6.2-10.1 10.7-12.5 9.7-1.1-.4-1.5-2.2-1.5-7.8 0-13.7 6.2-29.9 15.6-40.6 2.5-2.8 5-5.2 5.5-5.2s.9 5.2.9 11.8m41.5 54.8c1.7 18.6-3.7 33.8-15.2 42.5-6.9 5.2-7.6 4.2-6.3-8.4 1-9.5 4.4-21.1 8.1-27.1 2.2-3.7 11.1-14.5 12-14.5.4-.1 1 3.3 1.4 7.5m43 46.1c.7 9.9-1 20.5-4.6 27.9-2.5 5.2-9.5 13.2-13.7 15.6l-2.9 1.8-.6-4.1c-1.1-8.5 1.2-19.7 6-29.4 5.1-10.2 12.4-20.5 14.4-20.5.4 0 1 3.9 1.4 8.7m-70.7 2.4c3.3 1.3 1.6 3.8-6.1 9.3-7.8 5.6-15.2 7.8-26.5 7.8-9.1 0-21.2-1.9-21.2-3.3 0-.9 14.8-9.8 19.5-11.7 8.9-3.6 27.1-4.7 34.3-2.1m119.6 35.6c2.1 13.2-.6 26.8-7.3 36.9-5.4 8.1-9.1 11.5-11.8 10.8-5.4-1.5-3.8-18.9 3-32.3 3.7-7.1 12.6-19 14.3-19.1.6 0 1.4 1.7 1.8 3.7m-85.3 9.5c5.8.7 8.9 1.6 8.9 2.4 0 2-10.1 10.1-15.3 12.3-10.2 4.4-26.5 5.2-37.7 1.8l-4.5-1.3 5.9-3.8c7.8-5.1 13.4-7.5 23.6-10.2 10.5-2.7 8.6-2.6 19.1-1.2m137.8 22.5c3.8 9.7 5.5 20.8 4.3 28.2-1.2 6.8-5.4 16.5-9.5 21.5l-2.4 3-1.9-7.5c-2.5-9.7-2.6-26.9-.1-35.7 2.3-8.4 5.8-16.5 6.8-15.5.4.4 1.7 3.1 2.8 6m-83.1 17.4c5.1 1.4 6.2 3.2 3.6 6-6.3 7-22.6 10.5-36.2 7.9-5.4-1-19.2-6.1-19.2-7 0-.8 10.2-5 17.5-7.2 4.8-1.4 8.4-1.7 18-1.4 6.6.3 14 1 16.3 1.7M828 725.5c3.9 11 4.4 21 1.6 29.5-1.9 5.5-8.1 17.6-9.5 18.5-.9.5-3.5-8.4-5.2-17.9-1.8-10.4 1.4-28.5 6.8-39 1.8-3.5 1.9-3.4 6.3 8.9m-86.6 23.8c5.7 2.6 5.8 2.8 4.2 4.6-.9 1-4.5 3.1-7.9 4.7-11.4 5.1-28.7 4.3-43.1-2l-5-2.2 7.9-3.2c12.1-4.7 14.1-5.1 26.5-4.9 10.2.2 12.2.5 17.4 3m77.8 33.9c.9 12.5-2.7 24.1-10.1 32.4-4.9 5.5-14.4 13.4-16.1 13.4-3.1 0 3.1-24.1 8.3-32.5 3.7-6 14.5-17.5 16.3-17.5.8 0 1.4 1.6 1.6 4.2m680.9-337.8c-3.2 3.9-4.2 26-1.6 36.1 2.5 9.7 8.9 19.1 17 25.3 4.2 3.1 6.9 5.8 6.7 6.8-.5 2.5-13.2 28.4-17.6 35.8l-4 6.9-1.3-8.9c-2-14.3-5.4-21.7-15.6-34.1-6-7.3-10.1-10.8-11.6-9.9-1.6 1-3.3 13.2-3.3 23.1.1 10.7 1.9 17.9 6.6 26 2.8 4.6 11.3 12.9 15.1 14.7 1.4.6 2.5 1.6 2.5 2.2 0 2.1-32.5 48.5-34 48.6-.3 0-.6-3.1-.7-6.8-.2-7.9-2.2-16.2-5.3-22.2-6.3-12.3-19.3-27.2-21.6-24.7s-3.4 8.3-3.4 18.6c0 18.2 3.8 27.9 15.3 39.4l6.9 6.8-4.3 4.7c-11.2 12.3-29.4 31.2-30.1 31.2-.3 0-.4-2.5-.1-5.5.8-7.3-1.1-16.5-5.2-25-3.8-8.1-7.7-13.7-15.8-22.6-5.4-5.9-6-6.3-7.2-4.6-.7 1-1.9 5.7-2.6 10.4-3.2 21.6 3.4 38.5 20.5 52.6l2.9 2.4-9.2 7.9c-5.1 4.3-13.4 11-18.5 14.8-5 3.7-10.1 7.7-11.3 8.9l-2.3 2v-6.1c0-12.5-4.7-25.5-13.3-36.7-5.9-7.8-13.2-14.9-14.5-14.1-3.2 2-4.4 28.2-1.7 37.3 2.3 7.7 6.3 14.2 12.8 20.7 3.2 3.2 5.5 6.2 5 6.6-2.6 2.5-39.7 24.3-47.7 28.1-2.6 1.2-4.9 2.5-5.2 3-1.4 2.4-2.3.5-1-2.4 4.2-10.2 4.9-26.7 1.6-38.7-2.4-8.6-10.4-26-11.9-26-1.4 0-6.7 10.5-9.2 18.3-1.1 3.4-2.3 10.3-2.6 15.3-.8 13.5 2.8 24.8 11 34.1 1.6 1.9 2.8 3.6 2.6 3.8-1.3 1.2-49.9 20.6-57.8 23-2.1.6-2.3.5-1.6-1.1 3.8-9.3 4.8-14.4 4.7-24.9 0-8-.6-12.9-2.1-17.8-2.2-7.4-10.2-23.9-11.9-24.5-1.6-.5-8 14-10.4 23.2-3.6 14.2-1.3 27.4 7.3 40.7 4.7 7.4 5.2 4.9.9-4.4-4.8-10.2-6.3-18-5.1-26.5 1-6.6 5.7-21.8 7.1-22.7 1.1-.7 5.5 9.7 7.5 18 2.6 10.3 2.5 21.3-.4 31.7-1.8 6.5-3 9.1-4.8 10.3-3.7 2.5-61.8 17.3-63 16.1-.2-.2.5-2.3 1.5-4.7 5.3-12.4 5.6-30.4.7-43.7-3.4-9.3-9-19.7-10.7-19.7-3.7 0-11.8 23.6-11.8 34.6 0 10.5 4 23.9 8.7 29.1 3 3.4 3.2.7.3-5-6.8-13.4-6.1-32.5 1.6-47.3l1.7-3.4 2.2 5c4.5 10.2 6.8 22.1 6.2 32.5-.6 10.5-4.1 23.1-6.7 23.7-6.4 1.5-43.3 7.2-46.6 7.3-2.2 0-4.4.3-4.8.7s-2.5.6-4.6.4c-2.2-.1-4.5.1-5.1.5-.7.4-3.2.8-5.5.8-2.4.1-4.5.5-4.6 1.1-.4 1.2 5.7 1.9 8 .9 1-.4 3.4-.6 5.4-.5 2.1.2 4.3-.1 5-.5.6-.4 3.4-.6 6-.5s8.1-.2 12-.8c4-.6 12.9-1.8 19.8-2.7s12.9-1.7 13.4-1.8c.5 0 .8 4.4.7 9.8-.1 8.6.2 11 2.5 16.8 1.4 3.8 4.5 9.4 6.8 12.6 6.5 8.7 22.9 21.4 25.6 19.7 2.4-1.5 0-23.4-3.5-32-4-9.9-9.6-18.2-16.9-24.7-4.8-4.3-5.6-3.7 10.9-7.3 6.6-1.5 18.3-4.2 26-6.2 7.7-1.9 14.9-3.7 16-4 1.9-.4 2 .1 2 9.5 0 9.6.1 10.1 4.2 18.4 3.3 6.6 5.8 10 11.1 15 7.2 6.7 18.8 14.5 20 13.3.4-.3.6-3.7.4-7.3-.9-19.7-7.3-35.6-18.9-46.8l-6.4-6.1 9.8-3.3c11.4-3.7 27.9-10.1 41.2-15.9 5.2-2.3 9.8-4.1 10.3-4.1.4 0 3.5 2 6.9 4.5 8 5.9 14.9 7.9 26.9 7.9 7.7 0 11-.6 17.3-2.7 9.8-3.4 19.9-8.5 19.5-9.8-.4-1.2-15-7.9-22.9-10.6-3.5-1.1-8.4-1.8-14.1-1.8-4.9 0-8.8-.3-8.8-.6 0-.4 2.1-1.6 4.8-2.8 5.3-2.4 25.4-14.6 30.5-18.5 1.9-1.4 3.7-2.6 4.2-2.6.4 0 2.6 1.6 4.8 3.6s6.9 5 10.6 6.7c12 5.7 30.9 4.7 45.9-2.4 7.4-3.4 10.4-5.7 9.6-7.1-1-1.6-13.9-7.6-21.4-9.9-8.1-2.5-22-3.2-31.4-1.6l-4.9.9 8.9-6.8c4.9-3.7 13.5-10.7 19.2-15.6l10.2-9 6.8 6.2c3.7 3.4 8.9 7.3 11.5 8.6 7.1 3.7 18.6 5.7 28.1 4.9 7.4-.5 21.9-4.5 24-6.5 2.2-2.2-20.4-16-32.1-19.5-6.7-2-16.8-2.8-24-1.7-3.5.5-6.3.8-6.3.6 0-.1 5.1-5.6 11.4-12.1 6.2-6.5 13.9-14.8 17.1-18.5l5.7-6.8 6 5.5c3.3 3.1 8.1 6.6 10.6 7.9 11.9 6 34.1 5.8 49.6-.3l2.9-1.2-3.9-4c-7.6-7.9-21.3-14.6-34.2-16.9-6.9-1.3-18.9-1-22.6.5-1.1.5.8-2.7 4.6-7.6 3.5-4.6 11.3-15.8 17.2-24.9 6-9.1 11-16.6 11.1-16.7.1-.2 2.7 2.2 5.9 5.3 10 9.7 23.4 14.2 38.1 12.9 7-.6 21.2-4.1 22.9-5.7 1.2-1-3.2-5.7-10.2-11-6.5-4.8-16.6-9.2-25-10.9-6.1-1.1-19.7-.8-25 .7-2.2.6-2.2.5.9-4.7 5.8-9.7 10.6-19.2 16-31.4 2.8-6.6 5.5-12.4 6-12.9.4-.5 2.8.1 5.2 1.3 2.5 1.2 8 2.9 12.3 3.8 7.1 1.4 8.4 1.4 16.3-.1 5.2-1.1 11.1-3.1 15.2-5.2 7.1-3.8 22.6-17.2 21.2-18.5s-12.5-3.8-20.4-4.5c-13.9-1.2-29.2 2.8-40.4 10.7-3 2.1-5.5 3.7-5.5 3.5s1.2-3 2.6-6.2c3.4-7.6 9.4-24.9 9.7-28.3.2-1.5.6-3.2 1-3.8.4-.7.3-1.4-.3-1.8-.5-.3-1.1-.4-1.1-.1-.3 1.3-.6 2.2-1.4 4.1-.5 1.1-3.2 8-6.1 15.4l-5.2 13.3-.7-6.3c-1.4-13.5-6-24.6-15.2-36.4-7-9-11.7-13-13.2-11.1m11.1 16.9c8.7 12.8 12.8 25.1 12.8 38.4v8.4l-2.8-1.5c-7.1-3.7-14.7-15-17.6-26.3-1.6-6-2.1-21.7-1-26.1.6-2.2.7-2.2 2.6-.5 1.1 1 3.8 4.4 6 7.6m72.1 36.3c2 .4 3.7 1 3.7 1.3 0 1-9 7.5-15.1 10.9-3 1.7-9 4-13.4 5.2-7.2 2-8.7 2.1-15.5 1-7.9-1.3-14-3.3-14-4.7 0-2.3 16.7-10.5 26-12.8 5.8-1.4 21.9-1.9 28.3-.9m-101 21.5c6.9 8.9 11.6 20.3 12.6 30.4.7 8.1.3 15.5-.8 15.5-2 0-7.9-5-11.3-9.5-6.6-8.7-8.1-14-8.6-30.4-.3-11.7-.1-14.3 1-13.9.7.2 3.9 3.8 7.1 7.9m46.2 49.4c7.5 2 21.5 8.8 24.4 11.9l2.3 2.4-5.8 1.2c-7.6 1.6-24.6 1.4-31.1-.4-5.9-1.6-9.9-4.1-16-10-4.8-4.5-5.1-5.2-2.5-5.9 4.3-1.2 23.2-.6 28.7.8m-81 20c4.4 9 6.5 18 6.5 27.7 0 6.9-.2 7.8-1.9 7.8-2.3 0-11.2-9.4-13.9-14.6-3.6-7-5.4-15.4-5.6-24.8 0-5 .3-10.4.7-11.9l.8-2.8 5 5.8c2.7 3.2 6.5 9 8.4 12.8m-49 35c9 12.2 14 26.9 12.9 38.1-.4 3.5-1.1 6.7-1.6 7-1.4.9-12.4-10.9-15.3-16.5-3.4-6.8-5.5-16.6-5.5-26.3 0-10.1.5-11.3 3.5-9 1.2.9 3.9 3.9 6 6.7m86.6 2.5c3.7.5 9.3 2.2 12.5 3.6 6.2 2.7 16.4 9.1 16.4 10.3 0 1.3-13.2 3.4-21.5 3.4-12.2 0-20.4-2.7-28.7-9.6-6.8-5.6-6.4-7.2 2-8.4 6.9-1 8-1 19.3.7m-131.8 45c6.5 11 8 15.7 8.5 27.2.4 9.3.2 10.8-1.2 11.4-4 1.6-13.7-9.9-17.8-21.1-1.7-4.7-2.2-8.3-2.2-17-.1-6.1.3-11.9.7-13 .8-1.8 1.2-1.6 4.8 2.5 2.2 2.5 5.5 7 7.2 10m94.1 2.2c7.6 1.9 14.8 5 23.1 10.2l4 2.5-2.7 1c-10.1 3.8-26.6 3.8-37.6-.2-6.1-2.1-17.2-10.8-17.2-13.4 0-1.4 13.1-3.2 18.5-2.5 2.2.2 7.6 1.3 11.9 2.4m-153.1 20.1c4.1 10.2 5.7 17.9 5.7 27 0 8.4-2.4 23.4-4 25.1-1.5 1.5-5.8-4.6-9.2-12.9-2.8-7-3.2-9.1-3.1-17 0-5 .6-11 1.3-13.5 2-7.2 5.1-15 6-15 .4 0 1.9 2.9 3.3 6.3m112.1 17.7c4.2 1 9.8 2.9 12.4 4 4.4 2 4.6 2.2 2.8 3.5-3.6 2.7-17.2 6.6-24.7 7.2q-18 1.35-28.8-8.7c-4.1-3.8-3.6-4.3 6.1-6.4 9.5-2.1 23.1-1.9 32.2.4m-61.4 36.8c3 1.1 7.3 2.8 9.5 3.7l3.9 1.7-5.7 2.4c-18.7 7.9-38.4 7-49.7-2.4l-2.5-2 6.5-3.1c6.4-3 6.7-3.1 19.5-2.7 10 .2 14.3.8 18.5 2.4M1240.7 788c6.2 7.5 8.7 12.2 11.7 21.2 2.9 9 4.4 19.8 2.8 19.8-1.7 0-12.6-9.4-16.5-14.2-8.7-10.8-12.4-25.2-9.1-35.6.6-1.9 5.6 2.1 11.1 8.8m-74.1 12.2c5.8 6.1 9.8 11.6 12.6 17.3 2.8 5.6 6 14.8 6.4 18.5.1 1.3.6 4.6.9 7.2.4 2.6.4 4.8.1 4.8s-3.3-2-6.5-4.5c-9.7-7.3-18.5-19.9-20.5-29.1-.5-2.4-1-14.5-.7-17.7.2-2 4.1-.2 7.7 3.5m765.3-339c-.3.5-.6 11.8-1.3 45.8-.8 36.1-.9 1108.9-.1 1116.5.3 2.7.6 6.5.8 8.3s0 3.5-.5 3.8-.5 1.1-.1 1.7c.4.7.8 4 .8 7.4 0 3.5.4 6.3 1 6.3s1.1-6.3 1.3-15.7c.4-22.5.8-949.7.4-1071.5-.2-61.7-.7-102-1.3-102.3-.5-.4-1-.5-1-.3M121.7 473.7c-.8.8-1 76.7-1.1 481.3-.1 498.2.2 670.8 1.5 673.1.5 1.1 1.4 1.7 1.9 1.4s1-40.4 1.2-89.3c.4-122-.2-1003.1-.7-1006.2-.3-1.4-.5-15.4-.5-31.2-.1-26.1-.5-31-2.3-29.1m689.7 13.5c-11.9 7.9-29.6 27.5-41.9 46.6l-6 9.2-10.5-.1c-5.8 0-12.2-.3-14.3-.7l-3.8-.7 10.4-15.9c11.9-17.9 13.8-22.7 11.6-28.9-1.1-3.3-2.3-4.6-6.3-6.6-4.3-2.2-6.2-2.5-14-2.5-21.3.3-43.8 13.6-52.1 30.9-3.8 7.8-4.2 17.8-.9 22.1 3.4 4.6 7 6.7 12.3 7.2 4.6.4 5.7.1 10.5-3.1 5.8-3.9 11-10.9 12.7-17.1 1-3.5.8-4.6-.7-7.5-2.8-5.1-3.9-4.4-3.9 2.9 0 7.2-2.2 11.9-7.6 16.5-4.2 3.5-13 3.6-15.3.3-4.5-6.3.9-21.3 11.4-31.8 7.2-7.2 19.7-13.7 28.5-14.8 7.9-1 14.4 0 16.2 2.4 3.7 5.1-3.8 20.7-20.9 43.6-.8 1.1-3.8 2.1-8.3 2.8-4.4.7-7.6 1.7-8.5 2.8-.8 1-3 2.8-4.7 4-6 4.2-2.8 6.9 3.4 2.9 3.3-2.2 12.3-4.7 12.3-3.4 0 .2-2.5 5.1-5.5 10.8-5.8 11.1-6.3 13-4 14.9 2.6 2.1 5.2-.8 11.8-13l6.2-11.5 15.3-.3c8.3-.1 15.2.1 15.2.5-.1.5-.9 3.3-2 6.3-2.5 7.2-2.5 12.1.1 15.4 2.5 3.1 5.7 3.3 11.5.7 4.2-1.9 8.8-6.7 7.9-8.2-.3-.4-2.7.5-5.2 2.1-6.9 4.4-7.7 4.1-7-2.5.8-7.9 5-15.1 9.6-16.6 4.5-1.4 5.5-2.4 4.7-4.4-.4-1.3-1-1.4-2.6-.5-4.3 2.3-3.8.2 2.2-8.5 11.2-16.6 32.8-40.9 39.1-44.2 2.8-1.4 2.8-1.5 1.1-3.4-2.2-2.5-2.2-2.5-8 1.3m235.1 15.5c-7.6.6-19 3.5-25.5 6.5-14.7 6.6-23.2 21.1-17 29 3.7 4.8 8.8 4.1 5.6-.7-2.1-3.2-2-4.8.4-9.4 5.9-11.7 26.5-21.1 46.3-21.1 10 0 16 1.5 19.7 5 2.7 2.5 3 3.4 3 8.9 0 7.2-1.8 9.7-9.7 13.3-3.9 1.8-6.4 2.2-13.7 2-4.9-.1-9.1-.4-9.4-.7-.8-.8 9.4-11 15.6-15.6 6.9-5.2 6.7-8-.6-9.5-2.9-.6-3.8 0-11.5 7.4-4.5 4.5-13.6 15.3-20.2 24.1-6.6 8.9-12.2 16.1-12.5 16.1s-1.7-2.7-3.2-6c-2.4-5.6-2.9-6-5.9-6-2.6 0-4.2 1-7.9 4.8-5.5 5.8-10.5 17.6-9.4 22.6 1 5.2 3.1 7.6 6.5 7.6 2.9 0 4.6-.8 12-5.7l3.6-2.3 3.7 3.5c4.9 4.6 12.7 6.9 23.6 6.9 7.8 0 9.2-.3 16.9-3.9 12.6-5.9 19.1-14.3 19.1-24.5 0-5-.3-5.6-5-10.3-2.7-2.7-5-5.1-5-5.2s2.2-.5 4.8-.9c6.8-.9 13.8-5.6 16.2-10.9 2.5-5.5 2.5-9.1-.1-14.5-1.8-3.6-3.2-4.9-7.5-6.9-8.3-3.8-18.3-4.9-32.9-3.6M1044 539c-.9 1.7-.7 2.2 1.5 3 1.5.6 4.2 1 6.1 1 4.1 0 6.8 1.2 10.6 4.8 7.2 6.7 3.1 17.4-10.1 25.9-9.8 6.4-22.9 5.4-28.6-2.1-1.4-1.8-2.5-3.8-2.5-4.5 0-1.2 22.7-30.1 23.7-30.1.2 0-.1.9-.7 2m-36.2 21.3c1.7 3.6 2 5.2 1.2 6.6-1.5 2.9-9.8 9.4-11 8.6-3.4-2.1 2.7-21.4 6.4-20.2.6.1 2.1 2.4 3.4 5"/><path d="M1208.1 520.6c-3.3 2.3-13.4 16.2-17.1 23.6-4.7 9.2-8.2 13.9-14.2 18.9-6.8 5.8-11.3 8.4-16.4 9.8-8.8 2.3-9.6-1.5-2.9-13.4 7.3-12.8 6.5-12.2 19.4-14.5 6.3-1.2 11.8-2.3 12.3-2.6 2.3-1.4-1.1-2.4-8.3-2.4-4.3 0-7.9-.3-7.9-.6s.7-1.8 1.6-3.4c2.1-3.4 1.3-5.7-2.2-6.6-2.4-.6-3.3-.1-7.1 4.5-3.7 4.1-5.1 5.1-7.7 5.1-3.6 0-7.6 2.4-7.6 4.5 0 .8 1 2 2.3 2.6 1.2.6 2.3 1.3 2.5 1.4.4.3-5 9.7-7.6 13.2-5.3 7.1-16.3 14-20 12.5-1.1-.4-1.3-1.8-1-5.4.5-4.9 3.4-10 11-19.1l3.2-3.8-2.2-2.2-2.3-2.2-3.7 2.1c-5.9 3.4-7.9 1.6-4.1-3.5 2.4-3.2 2.2-6.9-.4-8.5-1.5-.9-2.3-.5-4.8 2.2-1.6 1.8-2.9 3.8-2.9 4.6 0 4.1-12.9 21.8-21.4 29.3-15.1 13.3-17.8 6.6-4.5-11.6 6.5-8.9 6.8-9.6 5.2-11.3-2.7-3-5.8-2.2-10.2 2.9-9.7 11-13.7 26-8.1 30.5 3.1 2.5 8.8 1.8 14-1.6 5.2-3.5 16.9-15.4 21.9-22.3 3.9-5.4 4.6-6 6.3-5 1 .7 1.6 1.6 1.4 2.2-6.5 14.2-7.4 20.9-3.6 25 4.3 4.6 13.9 3 21.2-3.4 3.6-3.1 4.8-3.1 4.8.1 0 3.6 3.6 5.8 9.7 5.8 4.6 0 6.8-.7 12-3.5l6.4-3.5-.3 3.2c-.3 3.1-.1 3.3 2.7 3.3 2.3 0 3.5-.9 6-4.3 6.5-9.4 22.5-24.6 24.1-23 .3.3-1.4 3.5-3.7 7.2-3.8 6.1-4.1 7.1-3.7 11.8.4 3.8 1.2 5.7 2.8 7 3.3 2.7 5.2 2.3 11.7-2.6l5.8-4.4.8 2.8c1.7 6.6 10.5 8.1 17.4 3.1 2.2-1.6 4.9-4.1 6.1-5.5l2-2.6.7 4c1.3 7.6 8.3 9.2 16.6 3.9 2.6-1.6 5.3-3.7 5.9-4.4 1.5-1.8 3-1 3 1.5 0 2.9 4.7 6 9 6 3.1 0 4.7-.9 8.8-4.5 5.6-5 6.2-5.3 6.2-2.6 0 1 .9 2.9 1.9 4.2 2.7 3.3 8.4 3.1 13.5-.4l3.9-2.7 2.4 2.6c2.1 2.3 3 2.6 6.4 2.1 4-.5 11.7-5.5 18.6-12 1.8-1.7 3.5-2.8 3.8-2.5.9.8-6 14.3-10.8 21-7.4 10.7-13.5 13.3-18.9 8.1-3.7-3.5-5.8-2-3.8 2.7 1.8 4.3 4.7 6 10.1 6 3.7 0 5.4-.7 9.1-3.5 6.4-5 9.7-9.5 17.2-23.5 3.7-6.8 8.9-15.6 11.7-19.5 2.7-3.9 4.9-7.7 4.9-8.3 0-1.7-3.8-3.4-5.9-2.7-1.1.3-3.1 2.1-4.5 3.9-3.9 5.2-8.2 9.2-16.5 15.5-17.4 13.2-19.8 11.5-6.3-4.6 9.1-11 9.7-12 8.2-13.8-3.4-4.1-9.5-.1-19.4 13.2-6.2 8.1-13.7 15.3-16.2 15.3-3.7 0-.9-7.8 7.3-20.1 4.3-6.4 4.8-8.9 1.9-8.9-.7 0-3-1.3-5.1-2.9-3.7-2.8-4-2.8-9.2-1.6-7.6 1.8-11.5 4.7-24.2 18.3-15.1 16.1-23.1 20.3-23.1 12 .1-6.3 6.1-16.3 22.2-36.6 6.2-7.8 6.7-9.2 4.2-11.3-3.2-2.7-11.2 4.4-17.9 15.9-1.4 2.2-2.4 3-3.5 2.6-6.1-2.6-13.8-.8-20.7 4.9-2.8 2.3-8.6 8.2-12.9 13.1s-9.9 10.2-12.4 11.8l-4.5 2.9-.3-3.2c-.3-3 1.5-6.4 9.3-16.9 6.1-8.3 5.9-7.9 4-10-1-1.1-2.5-2-3.3-2-2.7 0-10.3 4.2-17.5 9.6-3.9 2.9-7.3 5.2-7.5 4.9-.4-.4 2.1-3.9 13.1-18.8 7.9-10.5 9.3-13.3 7.6-15.3-1.5-1.8-2.9-1.8-5.8.2m48.9 24.5c0 .7-4.3 6.3-9.5 12.5-8.8 10.4-14.5 15.4-17.4 15.4-1.6 0-1.3-4 .8-8.5 3.8-8.5 26.1-25 26.1-19.4m50.2-.5c.7.6-6.6 11.5-12.6 18.8-3.6 4.4-11.7 10.6-13.8 10.6-.4 0-.8-2-.8-4.4 0-3.6.7-5.3 3.8-9.3 7.4-9.3 20.8-18.3 23.4-15.7m-498.4-15.2c-3.6 1.2-8.5 3.5-10.8 5.1-4.3 3-11.2 11-14.2 16.7-4.2 7.8-.3 15.8 7.7 15.8 3.4 0 4.9-.7 9.2-4.5 5-4.4 5.2-4.5 5.8-2.3.4 1.3 1.7 3.3 2.8 4.6 1.7 1.8 2.7 2.1 5.6 1.6 2-.4 4.4-1.3 5.4-2.2 2.3-2.1 2.2-.1-.3 4.8-2.8 5.5-2.6 12.1.3 15.6 3.6 4.1 5.8 2.8 5.1-3-.5-3.7-.1-5.6 2.6-11.5 1.8-3.9 3.4-7.1 3.4-7.1.1 0 1.9.9 4.1 2 8.9 4.5 19 1.3 29.7-9.5 5.9-6 8.1-10.8 7.3-16.2-.9-6.2-3.7-7.7-14.5-8-4.7-.1-9.4-.2-10.4-.3-2.5-.1-6.8 4.1-11.8 11.3-4.6 6.7-13.9 16.2-18 18.3-2.5 1.3-2.9 1.3-3.4 0-.7-1.9 2.6-9.3 8.3-18.5l4.6-7.4-2.2-1.9c-1.3-1-2.9-1.8-3.6-1.8s-2.3-.9-3.7-1.9c-2.4-1.9-2.5-1.9-9 .3m8.2 5.4c0 1.3-7.2 11.5-12.4 17.6-5.3 6.2-12.9 10.7-14.8 8.8-3.1-3.1 7-16.6 17.7-23.8 4.6-3.1 9.5-4.5 9.5-2.6m48 5.4c0 4.5-5.7 12.5-11.7 16.5-8.4 5.6-18.7 5.2-16.8-.6.4-1.3 4.4-6.1 8.9-10.7l8.1-8.4H865z"/><path d="M1101.8 530.4c-2.9 1.5-3.5 4.2-1.2 6.7 2.4 2.6 6 2.4 7.9-.5 3-4.5-1.6-8.7-6.7-6.2m-215.9 1.9c-7.8 6.8-24.6 35.3-26.4 44.7-.5 2.7-.1 4.3 1.7 7 1.3 1.9 3.2 3.5 4.2 3.5 1.6 0 1.9-.9 2-6.5.2-4.9.9-7.9 3-12 1.5-3 2.9-5.6 3-5.7.1-.2 2 .6 4.1 1.7 2.2 1.1 5.6 2 7.7 2 8.6 0 19.5-6.5 25.9-15.3 2.4-3.3 2.9-5 2.9-9.8 0-5-.3-6-2.5-7.8-3.5-2.7-7.3-3.4-12.5-2.2-3.4.8-4.8.6-6.4-.5-2.7-1.9-3.6-1.7-6.7.9m19.9 8.4c.4 4-2.7 10.2-7 13.8-6.9 5.8-16.1 8.2-20.3 5.1-1.8-1.3-1.7-1.6 2.1-6.1 5.3-6.6 12.5-13.9 14.9-15.3 1.1-.7 3.8-1.1 6-.9 3.7.2 4 .4 4.3 3.4m21.5-7.7c-4.7 2.8-15.4 18.3-17.3 25-1.2 4.3 1.9 8 6.8 8 4.2 0 6.9-1.5 16.7-9.3 3.8-3.1 7.1-5.4 7.3-5.2 1.1 1.1-10.9 21.4-15.4 26.1-7.2 7.4-9.4 7.8-14.9 2.4-5-4.9-6.5-4-3.6 2.4 3.1 7 9 8.7 16.7 4.8 6.7-3.5 12.3-10.6 20.6-26.2 2.5-4.7 7-12.3 10.1-16.9 4.5-6.7 5.4-8.8 4.6-10.3-2.1-3.9-5.8-2-14.7 7.4-6.7 7.1-15.7 14.5-21.1 17.2-7.6 4-6.8.9 2.9-10.8 10.3-12.5 10.6-13.1 7.8-15-2.8-2-2.6-2-6.5.4m-770.8 4.9c-.7 1.2 1.2 2.4 2.5 1.6 1.1-.7.4-2.5-1-2.5-.5 0-1.1.4-1.5.9m1740.9.2c-1 1.7 1.3 3.6 2.7 2.2 1.2-1.2.4-3.3-1.1-3.3-.5 0-1.2.5-1.6 1.1m-1741 20c-.3.6-.1 1.6.4 2.1 1.3 1.3 4.5-.8 3.6-2.3-.7-1.2-3.1-1.1-4 .2m1741 0c-1 1.7 1.3 3.6 2.7 2.2 1.2-1.2.4-3.3-1.1-3.3-.5 0-1.2.5-1.6 1.1m-1741 21c-1 1.7 1.3 3.6 2.7 2.2 1.2-1.2.4-3.3-1.1-3.3-.5 0-1.2.5-1.6 1.1m1741.1-.1c-1.1 1.7.5 3.2 2.1 1.9.7-.6 1.1-1.5.8-2-.7-1.2-2.1-1.1-2.9.1M156.4 599.1c-1 1.7 1.3 3.6 2.7 2.2 1.2-1.2.4-3.3-1.1-3.3-.5 0-1.2.5-1.6 1.1m1741 0c-1 1.7 1.3 3.6 2.7 2.2 1.2-1.2.4-3.3-1.1-3.3-.5 0-1.2.5-1.6 1.1M259.1 611.8c-2.4 4.4-1.5 157 .9 159.6 1.8 1.9 2.8-3.7 3.4-19.9 1.2-32.2 1.6-98 .6-112.5-1.8-27.6-2.6-31.6-4.9-27.2m25.3-.7c-.4.8-.9 16.7-1.1 35.4s-.4 40.7-.5 49c-.3 22.4 1.3 72.7 2.4 74.9 1.8 3.4 2.7.2 3.2-11.4.3-6.3.6-11.5.7-11.5.7 0 1.1-97.8.4-104.5-.2-2.5-.7-10.4-1.1-17.5-.4-8.4-1.1-13.5-1.9-14.3-1-1.2-1.4-1.2-2.1-.1m77.5.6c-1.2 1.3-1.4 14.8-1.2 77.7 0 42.6.5 77.4 1 79.1 3.8 12.3 5.2-11.2 5.6-92.5.1-22.3-2.1-64.7-3.3-65.5-.4-.3-1.4.3-2.1 1.2m25.2.4c-2 5.4-1.5 155.7.6 159.2 1.4 2.4 2.4-2.4 3.4-16.3 1.3-19.8 1.4-115.8.1-131.3-1-12.3-2.4-16.1-4.1-11.6m-230.7 7c-.9 1.6 1.2 3.3 3.1 2.5 1.4-.5 1.5-.9.5-2.1-1.5-1.8-2.6-1.9-3.6-.4m1740.7.3c-.8 1-.8 1.6.3 2.5 1 .9 1.6.8 2.6-.3 1.2-1.5.6-3.6-.9-3.6-.5 0-1.4.6-2 1.4m-264.1.6c-.8.5-2.2 1.1-3 1.3-.9.3-2.9 2.4-4.5 4.8-2.5 3.5-3 5.2-3 10 0 4.7.4 6.2 2.5 8.4 3.2 3.4 10.2 5.2 23 5.9 11.9.7 22.6 2.9 25.2 5.3 1.6 1.4 1.8 1.4 2.4 0 .8-2.1-9.1-17.9-15.8-25.2-6.6-7.2-14.3-11.5-20.5-11.4-2.7 0-5.5.4-6.3.9m12.8 5.5c4.5 2.3 12.3 9.6 18.2 17 5.4 6.9 5.1 7.6-2 5.5-1.9-.6-8.6-1.5-14.8-2-16.2-1.4-20.2-3.6-20.2-10.9 0-2.1 1.1-4.3 3.6-7.1 3.2-3.5 4.2-4 7.9-4 2.3 0 5.6.7 7.3 1.5m126.2-5.6c-9.4 2.9-20.1 13.1-28.4 27-5.3 8.9-5.3 11.6 0 8.8 5-2.6 11.4-3.9 23.4-4.7 6.4-.5 13.6-1.4 15.9-2.1 11.7-3.5 12.2-20.7.8-27.4-4.5-2.5-7.2-2.9-11.7-1.6m8.5 5.5c6.6 2.8 8.5 11.3 3.7 16.7-2.6 2.9-3.2 3.1-14.2 4-6.3.6-14 1.6-17 2.4-3 .7-5.7 1.2-5.9.9-.7-.7 5.3-7.9 13-15.6 9.4-9.4 13.7-11.1 20.4-8.4M156.5 640c-.4.7-.3 1.6.3 2.2 1.4 1.4 4.5.2 4-1.5-.6-1.6-3.4-2.1-4.3-.7m1740.9.1c-1 1.7 1.3 3.6 2.7 2.2 1.2-1.2.4-3.3-1.1-3.3-.5 0-1.2.5-1.6 1.1M156.5 660c-.4.6-.1 1.8.6 2.6 1.2 1.4 1.4 1.4 2.6-.2.7-.9 1-2.1.7-2.5-.7-1.2-3.1-1.1-3.9.1m1740.5.5c-1 1.2-.9 1.6.5 2.1 1.9.8 4-.9 3.1-2.5-1-1.5-2.1-1.4-3.6.4m-266.4 19.6c-8.6 2-15 9.6-14.3 16.7.9 8.1 9.1 13.2 21.3 13.2 10.7 0 36.3-8.5 33.6-11.2-.8-.8-2.7-.4-6.5 1.1-11.1 4.5-30.5 6.5-37.1 3.7-5.8-2.4-8.4-8.7-5.2-12.8 2.2-3 9.7-5.8 15.4-5.8 3.2 0 8.4 1 12.9 2.6 7.9 2.7 20.4 8.4 22.7 10.3 1.4 1.2 2.6.5 2.6-1.5 0-1.4-12.1-9.2-19-12.3-4.4-1.9-18.1-5.2-21-5-.8.1-3.3.5-5.4 1m-1474.2 1c-1 1.7 1.3 3.6 2.7 2.2 1.2-1.2.4-3.3-1.1-3.3-.5 0-1.2.5-1.6 1.1m1611.8 1c-12 3.2-30.2 13.5-28.6 16.1 1.1 1.8 16.4 8.4 23.5 10.2 3.6.9 10.1 1.6 14.5 1.6 6.6 0 8.8-.5 13.4-2.8s5.7-3.4 6.8-6.7c1.9-5.7.7-10-3.8-14.5-6.3-6.3-13.1-7.3-25.8-3.9m20.8 5.8c2.5 1.3 3.9 3 5 6 1.5 4.2 1.5 4.3-1.2 6.6-1.5 1.3-5 3.1-7.9 4-4.5 1.5-6.3 1.6-13.3.6-4.5-.6-12.4-2.5-17.7-4.3l-9.6-3.1 9.1-4.5c11.5-5.6 16.3-7 25.1-7.1 5.1-.1 8 .4 10.5 1.8m108-6.4c-1 1.2-.9 1.6.5 2.1 1.9.8 4-.9 3.1-2.5-1-1.5-2.1-1.4-3.6.4M156.5 701c-.4.7-.3 1.6.3 2.2 1.4 1.4 4.5.2 4-1.5-.6-1.6-3.4-2.1-4.3-.7m1740.5.5c-1 1.2-.9 1.6.5 2.1 1.9.8 4-.9 3.1-2.5-1-1.5-2.1-1.4-3.6.4M156.3 721.6c-.8 2.1 1.3 4.2 2.8 2.7 1.3-1.3.5-4.3-1.1-4.3-.6 0-1.3.7-1.7 1.6m1741 0c-.8 2.1 1.3 4.2 2.8 2.7 1.3-1.3.5-4.3-1.1-4.3-.6 0-1.3.7-1.7 1.6m-228.7 13c-4.9 2.6-15.8 4.3-27.6 4.4-10.6.1-18 5.9-18 14.3 0 5.5 2.2 10 6.6 13.3 3.3 2.5 4.6 2.9 10.3 2.9 5.8 0 7.2-.4 11.2-3.2 7.6-5.3 19.5-20.4 23.5-29.9 2.1-5.1 1-5.4-6-1.8m-.8 6.4c-.1.5-4 5.2-8.5 10.4-8.5 9.7-14.2 13.6-19.9 13.6-7.2 0-13.8-8.2-11.3-14.1 2.1-5.2 6.8-7.1 19.3-8 6.1-.4 12.5-1.2 14.1-1.7 4-1.3 6.7-1.4 6.3-.2m70.8-7.2c-.8 1.3 2.1 6.1 10.3 17.2 8.9 12.1 16 17.5 24.5 18.5 8.8 1.1 15.9-2.9 18.5-10.4 1.6-5 1.4-7.8-1.1-12.3-3.2-5.6-6.7-6.7-24.6-7.8-13.1-.8-16.2-1.3-20.9-3.5-6.3-2.9-6-2.8-6.7-1.7m14.4 8.2c1.4.4 7.5 1 13.5 1.4 18.1 1.2 21.5 2.9 21.5 10.9 0 3.1-.7 4.5-3.1 6.8-6.7 6.2-15 4.5-25.6-5.5-9.5-8.8-15.2-17-10.5-15.1.9.4 2.8 1.1 4.2 1.5m-1596.5 0c-.4.7-.3 1.6.3 2.2 1.4 1.4 4.5.2 4-1.5-.6-1.6-3.4-2.1-4.3-.7m1740.9.1c-1 1.7 1.3 3.6 2.7 2.2 1.2-1.2.4-3.3-1.1-3.3-.5 0-1.2.5-1.6 1.1M156.5 762c-.4.7-.3 1.6.3 2.2 1.4 1.4 4.5.2 4-1.5-.6-1.6-3.4-2.1-4.3-.7m1739.9.1c-1 1.7 2.3 4.6 3.7 3.2.7-.7.9-1.9.6-2.7-.7-1.8-3.3-2.1-4.3-.5M157 782.5c-2 2.4.4 4.5 2.6 2.4 1.3-1.4 1.3-1.7.1-2.7-1.1-1-1.7-.9-2.7.3m1739.6.4c-.9 1.5 2.3 3.6 3.6 2.3.5-.5.7-1.5.4-2.1-.9-1.3-3.3-1.4-4-.2M951.5 802c-.3.5 0 1.3.8 1.6 2.3.8 8.2 0 8.2-1.1 0-1.4-8.2-1.9-9-.5m-795.2 1.6c-.9 2.3 1.3 4 3.2 2.4 1.2-1 1.3-1.6.4-2.6-1.5-1.8-2.8-1.8-3.6.2m820.3-.7c-.4.5-.2 1.2.3 1.5.5.4 1.2.2 1.5-.3.4-.5.2-1.2-.3-1.5-.5-.4-1.2-.2-1.5.3m920.4.6c-1 1.2-.9 1.6.5 2.1 1.9.8 4-.9 3.1-2.5-1-1.5-2.1-1.4-3.6.4M156.3 823.6c-.9 2.3 1.3 4 3.2 2.4 1.2-1 1.3-1.6.4-2.6-1.5-1.8-2.8-1.8-3.6.2m1741 0c-.8 2.1 1.3 4.2 2.8 2.7 1.3-1.3.5-4.3-1.1-4.3-.6 0-1.3.7-1.7 1.6M156.5 844c-.4.7-.3 1.6.3 2.2 1.4 1.4 4.5.2 4-1.5-.6-1.6-3.4-2.1-4.3-.7m1740.9.1c-1 1.7 1.3 3.6 2.7 2.2 1.2-1.2.4-3.3-1.1-3.3-.5 0-1.2.5-1.6 1.1M157 864.6c-.9 1-1 1.8-.2 2.6 1.2 1.2 3.2.2 3.2-1.7 0-2.1-1.6-2.6-3-.9m1740.3 0c-.9 2.3 1.3 4 3.2 2.4 1.2-1 1.3-1.6.4-2.6-1.5-1.8-2.8-1.8-3.6.2m-1603.1 5.6c-.9.9-1.2 17.2-1.2 69.5v68.3h-13.4c-7.4 0-13.7.4-14 .9-.7 1.1 6.9 14.7 25.9 46.6 7 11.7 10.2 17.2 20.1 34.4 2.7 4.7 5.4 8.6 6.1 8.8.7.3 2.4-1.5 3.9-3.9 6.1-9.5 40.4-68.8 43.8-75.6 4.5-9 4-10.5-3.8-10-6.3.4-6.3 2.1-.1 2.8l4.6.5-2.9 4.5c-4 6.1-19.9 32.4-23 38-1.4 2.5-5.7 9.9-9.7 16.5-3.9 6.6-8.2 13.9-9.5 16.2-1.3 2.4-2.7 4.3-3.2 4.3-.4 0-2-2.4-3.4-5.3-1.5-2.8-4.1-7.7-5.9-10.7s-8.7-14.7-15.2-26c-6.6-11.3-14.3-24.1-17.1-28.5l-5.1-8 12.7-.5 12.7-.5.3-69.3.2-69.2h43v35.2c0 48.6 1.1 100.1 2 101.2.5.4 1.2.6 1.7.3.4-.3.6-32.2.3-70.9l-.5-70.3-24-.3c-17.9-.2-24.4.1-25.3 1m1416.6 10.5c-14.5 24.3-38.6 65.8-42.2 73l-2.6 5.2 2.1 1.1c2.8 1.5 5.6.5 4-1.4-1.5-1.7 1.3-7.4 11.8-24.6 3.9-6.3 13-21.5 20.3-33.7 7.3-12.3 13.5-22.3 13.8-22.3.6 0 5.7 8.2 16 26 3.7 6.3 10.4 17.8 15 25.5 11.7 19.7 15 25.6 15 26.6 0 .5-5.4.9-12 .9-8.8 0-12.2.3-12.5 1.2-.2.7-.6 3-1 5.1l-.6 3.9-4.2-.6c-2.3-.3-11.9-.5-21.4-.5l-17.2-.1-.3-4.3-.3-4.2-5.6-.3c-4.1-.2-5.9.1-6.9 1.3-.7.8-.9 1.6-.4 1.6.5.1 1.4.2 1.9.4.6.1 2.4.3 4.1.3l3.1.2.1 68.4c0 37.7.3 69 .7 69.5 1 1.7 50.1 1.5 51.2-.2.4-.6.9-31.8 1-69.2l.1-68 13.9-.5c11.6-.4 13.7-.7 13.5-2-.2-.8-3.2-6.2-6.7-12-9.7-16.1-28.6-48.6-33.5-57.5-5.5-9.9-11.8-19.5-12.9-19.5-.5 0-3.8 4.8-7.3 10.7m27.2 95.8v5.5h-43v-4.8c0-2.7.3-5.2.7-5.5.3-.4 10-.7 21.5-.7h20.8zm-.2 15.7c-.3 5.1-.4 5.3-3 5.2-1.6 0-11.1-.1-21.3-.2l-18.5-.2v-10h43.1zm.2 14.8v5h-43v-10h43zm0 15.4v5.4l-20.2-.3c-11.2-.1-20.9-.3-21.5-.4-.9-.1-1.3-1.8-1.3-5.1v-5h43zm0 15.1v5.5l-21.2-.2c-23.7-.3-22.7 0-21.3-7.4l.6-3.4h41.9zm0 16v5.5l-21.2-.3-21.3-.2-.3-5.3-.3-5.2h43.1zm0 15v5.5l-21.2-.2-21.3-.3-.3-5.3-.3-5.2h43.1zm.1 15.7c.1 2.9.2 6.6.3 8.3l.1 3h-43l-.3-8.3-.3-8.2h43.1z"/><path d="M306.3 883.2c-.4.7-.9 31.9-1.1 69.3s-.6 68.2-.8 68.4-3.4.6-7.1.8c-3.7.3-7.2.8-7.6 1.3-.9.8 2.8 7.9 13.3 26 4 6.9 8.7 14.9 10.4 17.9s3.6 5.6 4.2 5.8c1.3.4 1.4.3 17.1-25.5 6.8-11.3 12.5-21.4 12.6-22.6.2-1.9-.4-2.1-7.8-2.6l-8-.5v-139l-12.2-.3c-9-.2-12.4.1-13 1m20.7 4c.1.7.3 31.7.5 68.7.4 77-.6 70.1 9.8 70.1 4.3 0 5.8.3 5.4 1.2-.2.7-3.5 6.1-7.3 12s-9.1 14.5-11.8 19.2c-2.7 4.8-5.3 8.6-5.7 8.6-.5 0-3.1-3.9-6-8.8-2.8-4.8-8.2-13.7-12-19.8s-6.9-11.3-6.9-11.7c0-.3 3.7-.7 8.3-.9l8.2-.3.3-69.8.2-69.7h8.5c6.1 0 8.5.4 8.5 1.2m-170.6-2.7c-.7 1.8.3 3.5 2.1 3.5 2.1 0 2.8-1.9 1.5-3.5-1.6-1.9-2.9-1.9-3.6 0m1741 0c-1.5 1-1.6 1.6-.7 2.6 1.4 1.5 4.3.5 4.3-1.5 0-2.2-1.5-2.7-3.6-1.1M156.3 905.6c-.9 2.3 1.3 4 3.2 2.4 1.2-1 1.3-1.6.4-2.6-1.5-1.8-2.8-1.8-3.6.2m1740.8-.2c-1.7 2 1.3 4.3 3.4 2.6 1.2-1 1.3-1.6.4-2.6-.6-.8-1.5-1.4-1.9-1.4s-1.3.6-1.9 1.4M491 913.6c-4.8 2.1-6.8 4.1-9.6 9.6s-3 8-.9 13.9c1.7 4.8 5.5 9.3 9.7 11.5 4.1 2.1 13.4 1.8 17.3-.6 3.6-2.3 8-8.2 8.9-12.2.8-3.4.7-3.4 33.6-2.8 26.3.6 255 1.5 360.7 1.5h55.2l2 4.6c2.9 7 7.8 10.3 16 10.7 8.8.4 13.5-2.2 17.1-9.4 2.7-5.6 4.3-6.4 12.5-6.4 3.6 0 4.4.4 4.9 2.3.7 3.1 7.1 10.4 10.7 12.2 1.5.8 5.2 1.5 8.2 1.5 8.3 0 14.2-4.9 17.1-14.3.4-1.3 1.7-1.7 6-1.7h5.4l2.3 4.7c1.4 2.8 4.3 6.2 6.7 8 3.7 2.8 5.2 3.3 9.9 3.3 8.9 0 14.2-3.7 17.2-12.2l1-2.8 43.8-.2c24.1-.2 98.9-.4 166.3-.6 102.8-.2 189.8-.9 196-1.6 1.7-.2 2.1-2 .4-2.2-.6-.1-91.9-.5-203-.9-111-.4-202.2-1-202.5-1.4-.4-.3-1.2-2.3-1.8-4.3-.7-2-3-5.2-5.1-7.2-9.6-8.6-26.1-4.1-29.8 8.2-1.3 4.2-1.3 4.2-6.2 4.2h-4.9l-2.4-5.4c-4.6-9.9-13.1-13.6-23.6-10.1-5.5 1.8-8.7 5.1-11.5 11.7l-1.5 3.8h-12.8l-1.7-4.3c-6.6-17.4-31.8-16.4-36.1 1.5l-.7 2.8-94.2-.1c-51.7 0-112.5.2-135.1.5-30.5.4-163.9.8-216.2.6-2.7 0-3.2-.4-3.8-3.3-2.3-11.1-15-17.7-25.5-13.1m1049.5.3c-2.2 1-4.8 2.8-5.8 3.9-2.6 2.9-6.7 13.4-5.8 14.7.5.5 1.1 2.3 1.5 4 1.9 7.9 9.3 13.5 17.9 13.5 6.4 0 9.9-1.4 13.8-5.7 7.6-8.1 7.5-18-.2-26.7-4.9-5.6-13.7-7.1-21.4-3.7M157.1 925.4c-1.4 1.7-.7 3.6 1.4 3.6 2.2 0 2.9-2 1.3-3.6-1.3-1.3-1.6-1.3-2.7 0m1740.2.2c-.8 2.1 1.3 4.2 2.8 2.7 1.3-1.3.5-4.3-1.1-4.3-.6 0-1.3.7-1.7 1.6m-1741 21c-.3.8-.1 2 .6 2.7 1.4 1.4 4.7-1.5 3.7-3.2-1-1.6-3.6-1.3-4.3.5m1740.1-.5c-1 1.7 2.3 4.6 3.7 3.2.7-.7.9-1.9.6-2.7-.7-1.8-3.3-2.1-4.3-.5m-220.8 12.8c-.4.5-.2 1.2.3 1.5.5.4 1.2.2 1.5-.3.4-.5.2-1.2-.3-1.5-.5-.4-1.2-.2-1.5.3m-1518.5 7.5c-1.4 1.7-.7 3.6 1.4 3.6 2.2 0 2.9-2 1.3-3.6-1.3-1.3-1.6-1.3-2.7 0m1740.2.2c-.8 2.1 1.3 4.2 2.8 2.7 1.3-1.3.5-4.3-1.1-4.3-.6 0-1.3.7-1.7 1.6M156.4 986.5c-.7 1.8.3 3.5 2.1 3.5 2.1 0 2.8-1.9 1.5-3.5-1.6-1.9-2.9-1.9-3.6 0m1741-.1c-1.5 1.2-1.6 1.6-.5 3 1 1.2 1.7 1.4 2.7.5 3-2.5 1-5.8-2.2-3.5M157 1007.5c-1 1.2-1 1.9-.2 2.7 1.5 1.5 4.8-1.4 3.8-3.1-1-1.5-2.1-1.4-3.6.4m1740.3.1c-.8 2.1 1.3 4.2 2.8 2.7 1.3-1.3.5-4.3-1.1-4.3-.6 0-1.3.7-1.7 1.6m-1741 21c-.3.8-.1 2 .6 2.7 1.4 1.4 4.7-1.5 3.7-3.2-1-1.6-3.6-1.3-4.3.5m1741 0c-.8 2.1 1.3 4.2 2.8 2.7 1.3-1.3.5-4.3-1.1-4.3-.6 0-1.3.7-1.7 1.6m-352.1 11.6-12.2 12.3 11.2 11.2c6.2 6.2 11.7 11.3 12.3 11.3s6.1-5.1 12.4-11.4l11.4-11.4-2.7-3.3c-1.4-1.9-6.6-7.3-11.4-12.2l-8.8-8.7zm-1066 .1c-6.1 6.2-11.2 11.7-11.2 12.2 0 1.3 21.2 22.5 22.5 22.5.6 0 5.8-4.8 11.5-10.6l10.5-10.6 212.9.5 212.8.5 10.7 10.6 10.7 10.7 10.4-10.5 10.4-10.6h21.1l10 10c5.5 5.5 10.7 10 11.5 10s6-4.5 11.5-10l10-10h21.8l10.2 10c5.5 5.5 10.6 10 11.2 10s5.5-4.4 10.7-9.8l9.6-9.7 52.2-.5c28.8-.3 115.7-.6 193.3-.8 79.5-.1 141.3-.6 141.8-1.1 1.6-1.6-1.1-2.1-15-2.6-13-.4-244.4-1.5-331.8-1.5h-39.9l-9.6-10c-5.2-5.5-10.1-10-10.9-10-.7 0-5.8 4.5-11.1 10l-9.9 10h-22.6l-10-10c-5.5-5.5-10.4-10-11-10s-5.5 4.5-11 10l-10 10h-22.3l-9.3-10c-5.1-5.5-10-10-10.9-10s-6 4.5-11.4 10l-9.8 10-95.1.1c-52.4.1-99.2.3-104.2.4-4.9.1-57.8.4-117.5.6l-108.5.4-10.4-10.8c-5.7-5.9-10.9-10.7-11.5-10.7s-6.2 5.1-12.4 11.3m-322.8 8.2c-.7 1.8.3 3.5 2.1 3.5 2.1 0 2.8-1.9 1.5-3.5-1.6-1.9-2.9-1.9-3.6 0m1740.6 0c-1 1.1-1 1.9-.2 2.7 1.5 1.5 4.4.2 4-1.9-.4-2.3-2.2-2.7-3.8-.8m-1739.9 19.9c-1.4 1.7-.7 3.6 1.4 3.6 2.2 0 2.9-2 1.3-3.6-1.3-1.3-1.6-1.3-2.7 0m1740.3.7c-1 1.7 1.3 3.6 2.7 2.2 1.2-1.2.4-3.3-1.1-3.3-.5 0-1.2.5-1.6 1.1m-1740.3 20.3c-1.4 1.7-.7 3.6 1.4 3.6 2.2 0 2.9-2 1.3-3.6-1.3-1.3-1.6-1.3-2.7 0m1740.2.2c-.8 2.1 1.3 4.2 2.8 2.7 1.3-1.3.5-4.3-1.1-4.3-.6 0-1.3.7-1.7 1.6m-1740.9 19.9c-.7 1.8.3 3.5 2.1 3.5 2.1 0 2.8-1.9 1.5-3.5-1.6-1.9-2.9-1.9-3.6 0m1740.9.1c-.8 2.1 1.3 4.2 2.8 2.7 1.3-1.3.5-4.3-1.1-4.3-.6 0-1.3.7-1.7 1.6m-1741 21c-.3.8-.1 2 .6 2.7 1.4 1.4 4.7-1.5 3.7-3.2-1-1.6-3.6-1.3-4.3.5m1741 0c-.8 2.1 1.3 4.2 2.8 2.7 1.3-1.3.5-4.3-1.1-4.3-.6 0-1.3.7-1.7 1.6M588.9 1142c-4.5 2.4-10.9 9.4-10.9 12 0 1.1-.8 2.3-1.7 2.6-1 .3-2.6 1-3.5 1.5-1 .5-3 .9-4.5 1-1.6 0-5.8.8-9.5 1.8-3.8.9-6.8 1.5-6.8 1.2s1.4-3.3 3-6.6c4.8-9.7 3.6-12.6-3-7.7-4.6 3.4-11 11-11 13.2-.1 4.1-2.7 6.2-13.5 10.6-6 2.4-11.1 4.4-11.3 4.4-.1 0 .7-1.8 1.8-3.9 2.2-4.3 4.2-12 3.4-13.3-.6-.9-4.6 1.4-8.2 4.6-3.2 2.8-6 8.4-7.3 14.5-.7 3.4-1.7 5.2-2.9 5.6-1 .3-5.7 3-10.4 6-4.7 2.9-8.6 5.2-8.6 5.1 0-.2.7-2 1.5-4.1 1.6-3.6 1.8-13.2.4-14-1.5-1-5.9 3.9-8.8 9.7-2.3 4.5-3.1 7.5-3.1 11.3 0 5.2-.1 5.3-5.2 9.3-2.9 2.2-6.9 5.7-8.7 7.6-4.3 4.5-5.2 4.5-4 .3 1-3.6-.2-12.2-1.9-13.9-.7-.7-1.8.2-3.5 2.9-3.5 5.6-5 11.7-4.2 17.5.7 4.6.5 5.1-3.4 10.1-2.2 2.9-6 7.4-8.3 10l-4.3 4.8.3-4.9c.4-5.5-2-12.6-4-12-4 1.3-6.2 16.5-3.4 23.2l1.6 3.9-5.4 8.1c-2.9 4.4-6 9.4-6.8 11l-1.5 2.9-.6-4.7c-.4-2.5-1.6-6.5-2.8-8.7-1.9-3.8-2.2-4-3.7-2.6-1.1 1.2-1.7 4.1-1.9 9.9-.4 6.9-.1 8.9 1.6 12.2l2.1 4-4.3 10.8c-2.3 5.9-4.4 10.8-4.7 10.8s-1.3-1.9-2.3-4.3c-.9-2.3-2.8-5.6-4.1-7.2l-2.4-3-1.1 2.8c-2.2 5.6-.4 14.6 4.3 21.7 2.4 3.6 2.4 3.9 1 8-.8 2.3-2 7.5-2.6 11.6s-1.4 7.4-1.7 7.4c-.3-.1-1.7-2.3-2.9-5.1-2.4-5.1-6.3-8.6-8.2-7.4-2.8 1.7.2 13.2 5.3 20.4l3.5 4.9-.1 12.5c-.2 11.4-.3 12.3-1.6 9.9-1.9-3.7-5.1-7.1-8.4-8.8-2.4-1.3-2.8-1.3-3.4.2-.3.9.2 4.2 1.2 7.3 1.3 4.3 2.9 6.8 6.9 10.6 5.2 5 5.3 5.1 5.9 12.5.4 4.1 1 9.7 1.4 12.5l.6 4.9-3.3-3.7c-1.8-2.1-4.6-4.5-6.2-5.3-2.5-1.3-2.9-1.3-3.4.1-1.6 4 2.9 11.3 10.3 16.8 4.2 3.1 5.3 4.6 6.3 8.5 1.3 5 4.2 14.4 5.6 17.6.6 1.6-.1 1.3-3.2-1.1-4.3-3.3-10.1-5.7-10.9-4.4-.3.5.7 3 2.1 5.6 2.5 4.4 6.5 8 13.1 11.6 2.2 1.2 4.3 4.3 8.1 12.4 2.9 5.9 5.2 10.9 5.2 11.1s-1.5-.6-3.4-1.7c-3.9-2.3-9.2-4-10-3.2-.9 1 2.2 5.9 5.8 9 1.9 1.7 5.7 3.8 8.5 4.8 4.1 1.3 5.5 2.5 7.9 6.3 1.6 2.6 4.8 7.1 7 10.1 4 5.2 4.8 7.7 1.9 5.2-2-1.6-11-3.2-12.1-2-1.1 1 2.4 5.2 6.9 7.9 1.6 1 5.8 2.5 9.1 3.4 5.6 1.5 6.9 2.3 14 9.7 4.4 4.4 8 8.4 8.2 8.9.2.4-2.3.1-5.6-.8-3.2-.8-6.7-1.2-7.7-.8-1.7.6-1.7.7.1 2.7 3.7 4 9.7 6.8 16.6 7.5 6.1.6 7.3 1.2 14 6.2 4 3 8.3 5.9 9.5 6.5 3.6 1.6 2.7 2.4-1.9 1.8-5-.8-10.2 0-10.2 1.4-.1.5 2 2 4.5 3.3 3.5 1.7 6.7 2.4 13 2.6 8.2.3 8.6.4 18.7 6.2l10.3 5.9-5.9.6c-10.6 1-10.7 3.1-.3 5 5.4.9 8.3.9 13 0 5.8-1.1 6.2-1.1 12 1.9 3.3 1.6 7.1 3 8.4 3s3.1.6 4.2 1.3c1.6 1.3 1.4 1.4-2.4 2-2.3.3-4.9 1.1-5.7 1.8-1.4 1.2-1.4 1.4.2 2.6 2.6 1.9 11.7 1.6 18.1-.7 4.4-1.5 6.5-1.8 9.2-1.1 2 .5 7 1.5 11.1 2.2 6.3 1 7.2 1.4 5.6 2.3-4.1 2.4-7.6 5.8-7 6.8 1.2 1.9 10 0 17.3-3.6 3.9-2 7.7-3.6 8.5-3.6 3.2 0 2.5-2.1-1.1-3.6-2.1-.9-5.6-3.3-7.8-5.3-4.4-4.2-12.3-7.7-13.9-6.1-.5.5.3 2.3 2.3 4.6 1.8 2 3 3.8 2.7 4.1s-5-.3-10.6-1.2l-10.1-1.8-4.1-4.9c-4-4.8-13.2-10.6-14.2-9-.3.5.6 2.8 2 5.2 1.3 2.3 2.3 4.5 2.1 4.7s-5-1.4-10.7-3.6c-7.9-2.9-10.6-4.4-11.2-6.1-1.4-3.9-7.5-11.4-10.7-13.3-4.2-2.4-4.9-.6-2.2 5.6 1.1 2.6 1.6 4.7 1.1 4.7s-1.1-.4-1.4-.9-2.7-1.8-5.2-3c-10-4.7-11.9-6.5-14.4-13.2-4.2-11.5-12.8-17.2-10.2-6.7.6 2.3.9 4.4.7 4.7-.5.5-10.8-7.1-15.3-11.2-2.6-2.5-3.2-3.9-3.2-7.2 0-4.1-3.2-11.6-6.9-16.5-1.9-2.3-2-2.4-2.7-.6-.4 1.1-.3 4.5.2 7.8.6 3.2.7 5.8.4 5.8s-4-3.8-8.3-8.5l-7.7-8.6v-7.2c0-7-2.3-14.5-4.8-16.1-2-1.2-3.4 2.3-3 7.9.1 3 .1 5.5-.2 5.5-.6 0-8.7-12-11.1-16.4-1.4-2.5-1.4-3.5-.2-8.5 1.5-6.2 1-14.8-1.1-17.7-1.3-1.6-1.5-1.5-3.3 2.2-1.1 2.1-2.3 5.2-2.7 6.8-.9 3.7-1.2 3.2-6.1-8.9l-3.8-9.2 2.7-6.6c2.7-6.7 3.5-16 1.6-17.2-1.5-.9-7 5.3-7.7 8.7-.3 1.6-.9 2.6-1.4 2.1-.7-.7-5.9-19.4-5.9-21.2 0-.4 1.5-2.8 3.4-5.2 3.5-4.5 5.6-10.2 5.6-15.1 0-5.8-3.9-4.1-9 4-3.4 5.2-3.7 4.6-4.6-9.2l-.7-10.4 4.9-5c5-5.1 9.1-13 8-15.7-1-2.8-3.9-1.5-8.9 3.7l-4.9 5.3.6-8.5c.3-4.7.6-10.2.6-12.3 0-3.2.5-4 3.2-5.5 7.7-4.2 16.4-15 14-17.4-1.4-1.4-6 .2-10.8 3.8-2.4 1.9-4.4 3.1-4.4 2.8s.6-3.2 1.4-6.3 2-8.2 2.6-11.3c1-5.3 1.3-5.8 4.8-6.8 2-.7 5.4-2.3 7.5-3.6 4.6-3 10.1-10.4 8.8-11.7-1.4-1.4-7.4 0-11.6 2.9-2.1 1.4-3.9 2.3-4.1 2.1-.3-.3 3-9.2 7.6-20.5.5-1.2 1.8-2.2 2.8-2.2 4.8 0 12.6-3.4 16.8-7.2 2.4-2.2 4.2-4.4 3.9-4.8-1.1-1.7-7.3-2-11.5-.5-5.2 1.8-6 1.3-3.7-2.3 1-1.5 3.7-6 6-9.9l4.2-7.3h5.1c5.8 0 13.6-2.4 17.7-5.4 2.4-1.8 2.6-2.2 1.3-3.5-2-1.9-9.1-2.2-13.8-.6-2.1.7-3.8 1.1-3.8.9 0-.8 14.2-17.9 15.4-18.6.8-.4 3.3-.4 5.7 0 5.9 1 13.1-.1 17.5-2.8 5.3-3.3 2.9-5.1-7-5.3-4.2-.1-7.6-.5-7.6-.8 0-.4 1.2-1.5 2.7-2.4 1.4-1 5.5-4.4 8.9-7.6 3.5-3.3 6.5-5.9 6.7-5.9.3 0 2.4.7 4.7 1.5 5.4 1.9 15 1.9 19.5.1 1.9-.8 3.5-1.8 3.5-2.1 0-1.3-10.8-5.5-14.3-5.5-2.3 0-3.6-.4-3.2-1s5.2-3.7 10.7-6.9l10-5.9 6.3 3c5.3 2.4 7.3 2.9 12.6 2.6 3.5-.2 6.4-.8 6.6-1.4.5-1.5-8.3-7.3-12-8.1-1.5-.3-2.6-1.1-2.4-1.7s5.2-2.9 11.2-5c10.5-3.8 10.9-3.8 13.4-2.2 7.7 5 20.8 8.5 22.4 5.9 1-1.6-5.7-7.2-10.9-9.2l-4.9-1.9 4.5-1.2c2.5-.6 7.4-2 10.9-3.1 3.5-1 7.2-1.9 8.2-1.9 1.1 0 4.3 2.4 7.2 5.3 4.1 4.2 6.4 5.7 10.7 6.9 5.2 1.4 8 1 8-1.1 0-1.9-9.4-10.3-14.2-12.7-5.3-2.7-5.3-2.7-2.4-3.5 3.7-1 5.8-3.1 10.2-9.6 4.8-7.3 3-9.4-4.7-5.3m846.9 5.6c-2.2 2.1 10.8 17.3 14.9 17.5 1 0 .3.5-1.6 1-1.8.6-5 2.1-7.1 3.5-4.5 3-10.5 11-9 11.9 3.5 2.2 17-4.1 19.2-8.9.6-1.4 1.7-2.7 2.6-3.1 1.6-.6 22.4 4.1 25.7 5.8 1.7.9 1.4 1.2-2.8 2.4-4.9 1.4-12.6 7.9-11 9.3.4.4 3.6.4 7.1 0 4.6-.6 7.9-1.8 12.2-4.4 3.2-2 6.3-3.6 6.9-3.6s6.2 2.4 12.4 5.2l11.2 5.3-5.7.6c-6.8.7-13.5 4.4-11.8 6.5 2.9 3.3 11.9 2.7 22.7-1.7 3.6-1.5 5.7-.6 18 7.7l6.3 4.1-6 .7c-6.9.8-12.5 4.4-10.2 6.7 2 2.1 13.2 2.3 19.6.5l5.7-1.7 8.5 7.2c4.6 3.9 8.7 7.6 9.1 8.2s-.9.7-3.8.3c-4.5-.6-10.8.9-13.1 3.2-.9.9.3 1.8 4.7 3.8 5.1 2.4 6.6 2.6 13.1 2.1l7.3-.5 7.1 8.4c3.8 4.6 7 8.8 7 9.2 0 .5-2.4.5-5.3 0-5.2-.9-10.7.1-10.7 2 0 1 6.1 5.1 10.3 7 1.5.7 4.9 1.2 7.6 1.2 2.6 0 5.4.6 6.3 1.2 1.5 1.3 11.8 18.7 11.8 20.1 0 .4-1.3.1-2.8-.7-3.8-2-12.7-3.1-13.6-1.8-.9 1.4 8.4 9.5 12.5 10.9 1.9.6 5 1.4 7 1.7 3.5.6 3.6.8 7.8 11.7 2.3 6.2 4 11.4 3.7 11.6-.3.3-1.6-.4-3-1.4-3.5-2.8-11.4-4.9-12.8-3.5-2.5 2.5 7.5 12.1 15.6 14.8 3.2 1.1 4.7 2.2 5.1 3.7.2 1.2.9 4.7 1.6 7.7 2.3 10.9 2.6 13 2.2 13-.2 0-2.1-1.4-4.2-3-4-3.3-9.7-5.4-10.6-4-1.7 2.8 5.4 12.7 12 16.5 4.7 2.8 4.5 2.3 6.1 19.5l.7 7.5-5.8-5.3c-3.2-2.9-6.3-5.1-6.9-4.9-1.5.6-.9 6.1 1 10 .9 1.8 3.7 5.3 6.2 7.9l4.5 4.7-1.1 10.7c-.7 5.9-1.5 11-1.8 11.3-.4.3-1.1-.3-1.8-1.3-.6-1.1-2.5-3.5-4.2-5.4-7.7-8.7-7.1 5.1.7 16.5l3.3 4.7-2.3 9c-1.2 5-2.5 10-2.8 11-.5 1.6-1.1 1-3-3-3-5.8-5.2-8.6-6.4-7.8-1.9 1.1-.9 12.8 1.5 18.7 2.2 5.3 2.3 6.2 1.1 9.5-1.8 5.1-7.4 17.2-7.9 17.2-.3 0-1-2.4-1.6-5.4-3.1-14.9-8.9-4.4-6 10.9l1.2 6.6-3.8 5.5c-2.2 3.1-5.1 7.5-6.6 9.7l-2.8 4.1v-4.6c0-2.6-.5-5.9-1-7.4-1-2.5-1.2-2.6-2.9-1-2.5 2.3-4.1 8.3-4.1 15.8 0 7.4-1.7 10.4-11 19.3l-5.1 5 .5-3.8c.3-2 .8-5.2 1.1-7.1.8-4.8-.8-5.2-4.4-1.1-4 4.6-6.1 9.7-6.1 15 0 3.8-.5 4.7-5.7 9.6-3.2 3-7.3 6.6-9.2 7.9l-3.4 2.3.6-2.6c.4-1.5 1-3.8 1.3-5.2.4-1.3.3-3.2 0-4.1-.6-1.5-1.2-1.2-4.2 1.7-4.2 4-6.5 8.1-7.3 12.9-.6 3.2-1.5 4-10.6 9.2-5.4 3.2-10 5.6-10.2 5.4-.2-.1.6-2 1.6-4.2 4.3-9.1 3.6-10.9-2.7-6.3-4.1 3-10.2 11.1-10.2 13.6 0 1.5-5.1 4.2-14.9 7.7-7.8 2.8-9.5 2.8-6.8-.2 2.3-2.5 4.9-9 3.8-9.6-1.6-1-9.9 5.3-14.1 10.6l-4.2 5.3-10.1 2.1c-5.6 1.2-10.4 2-10.6 1.8s1.1-2 2.7-4c3.2-3.9 3.3-5.4.4-5.4-3 .1-10.4 3.9-14.4 7.5-2.1 1.9-4.7 3.5-5.7 3.5-3 0-3.4 1.7-.7 3.2 1.3.7 4.4 2.6 6.9 4.1 4.9 3 16.3 5.5 17.9 3.9.6-.6-.4-2.3-2.6-4.5l-3.6-3.6 3.8-.6c2-.4 6.4-1.2 9.8-1.9 5.3-1.2 6.7-1.1 10 .2 5.7 2.2 17.4 2.7 19.9.8 1.9-1.4 1.9-1.5-1.7-3-2.1-.9-4.7-1.6-5.8-1.6-4.2 0-1.7-1.6 7.8-4.9 7.3-2.6 10.9-3.4 14.7-3.1 11.5.8 18.2.5 20-1 1.6-1.3 1.6-1.5-.5-3.2-1.3-1.1-3.9-1.8-6.4-1.8-4.1-.1-4.1-.1 6.4-5.7 10.4-5.7 10.5-5.7 18.2-5.4 7.6.3 15.4-1.9 17.2-4.7 1-1.7-2.8-3.2-8.1-3.3-4.7 0-4.8 0-2.4-1.7 1.3-.9 5.2-3.9 8.6-6.8 5.7-4.6 7-5.2 12.7-5.8 6.6-.8 12.6-3.1 16.8-6.5 2.3-1.8 2.3-2 .7-2.7-1-.4-4.5-.4-7.8-.1l-6 .5 8.3-8.6c7.7-8.1 8.7-8.8 13.8-9.8 6.7-1.2 8.5-2.2 12.9-6.7 5-5.3 2.2-7.4-5.6-4.2-2 .8-3.8 1.4-4 1.2-.2-.3 2.8-4.7 6.6-9.8 6.4-8.7 7.3-9.5 11.7-10.7 3.7-1 6.2-2.7 10.7-7.2 5.5-5.4 6.5-8 3.3-8-.7 0-3.9 1.3-7 2.8-3.1 1.6-5.6 2.6-5.6 2.3s2.3-5.6 5.1-11.8c4.4-9.6 5.6-11.3 8.2-12.3 1.7-.5 4.5-2.1 6.3-3.5 4.2-3.2 9.1-11.2 7.7-12.6-1.3-1.3-5.7.4-10.2 3.8l-3.4 2.6.7-2.4c.5-1.3 2-6.6 3.4-11.7 2.5-9.2 2.7-9.5 7.6-12.8 5.3-3.6 10.7-11 10.9-15.3.2-2.2-.2-2.6-2.1-2.3-1.3.1-4.4 1.8-6.8 3.8s-4.4 3.5-4.4 3.3c0-1.5 3.1-23.3 3.3-23.4 4-2.4 7.2-5.5 9.2-8.9 2.4-4.1 4.8-13 3.7-14-1.1-1.2-8.4 4-10.5 7.4l-2.2 3.5-.7-12.4-.8-12.3 3.8-4.4c4.2-4.7 6.2-9.9 6.2-16.2 0-7.7-3.5-6.2-8.9 3.8-3.4 6.1-3.2 6.4-5.7-7-1-5.2-2.2-10-2.7-10.7-.6-.8.2-2.5 2.2-5 5.4-6.8 7.9-18.4 4.8-22.7-1.3-1.7-1.5-1.6-4 1.3-2.4 2.9-4.7 8.6-4.7 11.8 0 3.1-2 .9-3.4-3.6-.8-2.7-2.8-8.1-4.6-12-2-4.8-2.8-7.6-2.2-8.4 4.1-5.2 5.3-21 2-24.4-1.4-1.4-1.8-1.1-4.3 3.1-1.7 2.8-2.7 6.2-2.8 9.1-.2 4.9-1.1 5.9-2.1 2.1-.3-1.3-3.2-6.3-6.4-11.2-5.6-8.5-5.8-9.1-4.6-11.9 2.1-4.9 1.8-16.4-.6-20.3-1.1-1.9-2.6-3.2-3.2-3-2.1.7-4 8.1-3.5 13.8.3 4.3.2 5.1-.7 3.6-.6-1-4.2-5.9-8-10.8l-6.8-9-.2-8.6c-.1-6.7-.6-9.6-2.3-12.8-2.4-4.4-4.8-7-5.6-5.7-1.2 2-1.7 10.2-.9 14 .6 2.4.7 4.3.2 4.3-.4 0-3.6-2.6-7.1-5.8s-7.5-6.6-8.8-7.5c-2-1.3-2.4-2.5-2.6-7.4-.3-7.2-2.2-11.9-7-17.2-3.1-3.4-4-3.9-5.2-2.9-1.7 1.3-1.1 7.2 1.2 13.9 1.5 4.1 1.1 4.8-1.4 2.5-.9-.8-5.4-3.6-10.1-6.3-8.4-4.9-8.5-4.9-9.2-9.6-.3-2.7-2-6.9-3.7-9.6-3-4.6-9.7-10.4-11.1-9.6-1.1.7.7 9.9 2.5 13.5.9 1.8 1.5 3.3 1.3 3.5s-3.8-1.1-8-3c-4.2-1.8-9.2-3.8-11-4.4-2.7-.9-3.6-2-5.1-6.1-2.2-6.1-5.6-10.3-11.4-13.7-6.8-3.9-7.4-2.1-2.5 7.1 2.9 5.4 3.7 7.6 2.7 7.6-.8 0-5.4-1.1-10.1-2.5s-9.7-2.5-11.1-2.5c-1.9 0-2.8-.9-4.4-4.4-2-4.6-7.4-10.1-11.6-11.7-4.1-1.5-6.8-2-7.5-1.3m461.5 3c-.8 2.1 1.3 4.2 2.8 2.7 1.3-1.3.5-4.3-1.1-4.3-.6 0-1.3.7-1.7 1.6m-1740.8.4c-.4.7-.3 1.6.3 2.2 1.4 1.4 4.5.2 4-1.5-.6-1.6-3.4-2.1-4.3-.7m-.2 20.6c-.3.8-.1 2 .6 2.7 1.4 1.4 4.7-1.5 3.7-3.2-1-1.6-3.6-1.3-4.3.5m1740.8-.2c-.9 1-.8 1.6.4 2.6 1.9 1.6 4.1-.1 3.2-2.4-.8-2-2.1-2-3.6-.2m.3 20c-.9 2.4 1.2 4.4 2.8 2.8 1-1 .8-1.6-.5-2.9-1.5-1.5-1.7-1.5-2.3.1m-1740.9.6c-.4.7-.3 1.6.3 2.2 1.4 1.4 4.5.2 4-1.5-.6-1.6-3.4-2.1-4.3-.7m141.3 13.7c-3.3 3.4-4.2 7-2.9 10.5 1.8 4.8 4.7 6.8 9.5 6.8 3.7 0 4.8-.5 7-3.1 1.8-2.1 2.6-4.2 2.6-6.9 0-5.8-3.9-10-9.4-10-3.3 0-4.8.6-6.8 2.7m1418-1.2c-3 1.7-5.3 7.4-4.4 10.9.3 1.2 1.5 3.5 2.7 4.9 2.8 3.7 10.4 3.9 13.7.4 4.8-5.1 4.9-11 .2-15.7-2.4-2.4-8.2-2.6-12.2-.5m-1558.7 6.9c-1.4 1.7-.7 3.6 1.4 3.6 2.2 0 2.9-2 1.3-3.6-1.3-1.3-1.6-1.3-2.7 0m1739.9.6c-.9 1.6-.8 2.2.5 2.6 2.1.8 3.9-1 3.2-3-.9-2.2-2.4-2-3.7.4m-1740.7 20.6c-.3.8-.1 2 .6 2.7 1.4 1.4 4.7-1.5 3.7-3.2-1-1.6-3.6-1.3-4.3.5m473.5 2.2c-6.3 9.4-6.2 17.3 0 28.2 4.7 8.1 4.7 8 2.9 8-.8 0-4.1 1.4-7.4 3-7.1 3.6-14.1 11.4-12.2 13.7 2.4 2.8 15.9-1.2 21.4-6.3l3.8-3.5 7.1 7.4c3.9 4.1 9 8.7 11.4 10.2 2.3 1.5 4.2 2.9 4.2 3.1s-2.1 1.3-4.7 2.4c-6.6 2.9-15.3 11.6-13.9 13.8.8 1.3 12.2-.5 17-2.6 2.2-1.1 5.6-3.3 7.4-5l3.2-3 8.3 3.8c10.6 5 21.6 7.7 35.8 9 6.3.5 12 1 12.7 1 1 0 1.3 3 1.3 13.2-.1 17.2.9 53.9 1.5 55.7.4 1.1.7 1.2 1.6.3 1.8-1.8 1.8-118.6.1-120.3-1.9-1.9-2.1-.3-2.7 24.5-.3 12.6-.7 23-.9 23.3-.7.6-21.9-1.6-27.7-3l-5.5-1.2-.1-7c0-4.2-.8-8.6-1.8-10.9-2-4.7-6.3-10.6-7.7-10.6-.6 0-1.7 1.6-2.5 3.7-1.6 3.7-1.5 12.4.1 18.8l.8 3-2.4-1.7c-1.3-1-5.5-3.5-9.4-5.7-3.8-2.2-8.1-4.9-9.4-6l-2.5-1.9 2.6-3.9c3.4-5.2 3.9-7.1 3.9-14.9 0-8.2-1.7-10.9-5.1-7.9-3.2 2.9-8 13.4-8 17.7 0 2.1-.4 3.8-1 3.8-.5 0-1-.5-1-1.1s-2.6-3.9-5.8-7.4c-3.2-3.4-7.4-9-9.4-12.5l-3.5-6.3 2.3-5.1c2.7-5.9 3.2-13.8 1-19-2-4.9-3.1-5-5.8-.8m3.2 17.3c-1.4 5.2-2.7 5.7-3.9 1.4-.9-3.4.4-11.3 2.5-14.7 1.4-2.2 2.6 8.9 1.4 13.3m27.1 32.5c-2.5 5.6-4.6 5.1-3.6-1 .4-2.2 1.7-5.9 2.9-8.1l2.1-4 .3 4.2c.2 2.7-.4 6-1.7 8.9m-24.1-9.8c0 1.5-3.4 3.9-9.3 6.6-7.3 3.3-8.7 3.3-5.6 0 3.7-4.1 14.9-9 14.9-6.6m51.9 17.8c1.5 2.5 2.1 5.2 2.1 9.5 0 3.2-.4 5.9-.9 5.9-1.7 0-4.1-8-4.1-13.5 0-3 .2-5.5.4-5.5s1.3 1.6 2.5 3.6m-23.4 12.3c-1 1.7-7.5 4.8-11.5 5.5l-3.5.7 3.9-3.5c4.2-3.6 9.5-5.8 11-4.5.4.4.5 1.2.1 1.8m679.9-70.8c-2.9 5.6-2.9 12.6 0 20.4 2.4 6.6 2.4 7.1.9 9.5-4.4 6.7-12.8 17.2-15.3 19l-2.8 2-1.1-5c-1.6-7.5-8.4-17.2-11-15.6-3.4 2.2-1.7 19 2.5 24.7l2.4 3.3-2.8 1.8c-1.5 1.1-4.8 3-7.3 4.3-2.6 1.3-6.7 3.8-9.2 5.5-2.5 1.6-4.7 3-5 3s.1-1.6.9-3.6c2-4.8 2-14 0-18.8-1.6-3.9-1.6-3.9-3.7-2-3.9 3.6-6.7 10.6-7.4 19-.4 4.3-.9 8.2-1.1 8.5-.4.7-17.1 3.8-22.4 4.2-5.6.3-3.6 2.2 2.9 2.5 8.2.4 26.7-4 36.6-8.7l8.1-3.8 3.4 2.9c5 4.3 9.8 6.5 16.4 7.7 6.2 1.1 7.6.9 7.6-1.4 0-3.6-11.7-13.5-15.9-13.5-3.8 0-3-1.8 2.3-5.3 5.4-3.6 12.5-10.3 15.3-14.4l1.4-2.2 4.4 3.4c2.4 1.8 6.5 4.1 9.1 5.1 5.7 2.2 13.5 2.5 14.2.6.8-2.4-12-13.9-16.9-15.3-2.4-.7-4.5-1.3-4.7-1.4-.1-.1 1.4-3.1 3.3-6.5 4.5-8 6-14.4 4.6-19.7-1-3.6-6.5-13.3-7.6-13.3-.2 0-1.2 1.4-2.1 3.1m5.3 9.5c1.4 4.7 1.6 12.1.4 12.8-1.9 1.2-3.4-2.8-3.9-10.1-.4-6.1-.2-7.5.9-7.1.8.3 1.9 2.2 2.6 4.4m-28.8 32.4c1.7 3 2.1 5.2 1.9 9.2l-.3 5.3-2.3-4.5c-2.5-4.8-4.1-14-2.5-14 .5 0 1.9 1.8 3.2 4m30.7 1c6.3 3.1 10.2 7 6.9 7-3.2 0-14.5-7-14.5-9.1 0-1.4.6-1.2 7.6 2.1m-57.1 16.9c.5 2.9.1 5.2-1.3 8.4-3 6.7-4.2 6.8-4.2.3 0-5.2 2.4-12.6 4.1-12.6.4 0 1 1.8 1.4 3.9m27 10c2.2 1 5.1 3.1 6.5 4.6l2.5 2.7-3.5-.7c-6.2-1.3-13.5-5.8-12.4-7.6.8-1.3 2.4-1.1 6.9 1m575.6-71.5c-.9 1-.8 1.6.4 2.6 1.9 1.6 4.1-.1 3.2-2.4-.8-2-2.1-2-3.6-.2M280 1234.7c-4.1 3.7-5 9.4-2.1 13.9 4.8 7.7 18.1 3.1 18.1-6.3 0-2.6-.8-4.3-3.4-6.9-4.3-4.3-8.3-4.5-12.6-.7m1454.8-1.1c-5.5 2.9-6.5 10.2-2.2 15.3 2.1 2.6 3.3 3.1 6.7 3.1 10-.1 14.1-11.1 6.6-17.4-3.4-2.9-7.1-3.2-11.1-1m-1578.5 20c-.3.8-.1 2 .6 2.7 1.4 1.4 4.7-1.5 3.7-3.2-1-1.6-3.6-1.3-4.3.5m1741.1-.5c-1 1.7 1.3 3.6 2.7 2.2 1.2-1.2.4-3.3-1.1-3.3-.5 0-1.2.5-1.6 1.1m-1061.3 4.3c-1.3 1.5-8.1 25.5-11.4 39.8-1.2 5.4-2.4 9.8-2.7 9.8-.7 0-10.7-22.4-16.1-36-4.4-11.2-6.7-14.7-9.3-13.7-4.1 1.6-3.2 5.3 7.6 30.7 3.8 9.1 8.9 20.2 11.3 24.7l4.4 8.3-3.6 16.7c-1.9 9.3-4.7 23.3-6.3 31.3-1.5 8-4 17.7-5.4 21.6s-2.6 8.4-2.6 9.8c0 6.2 4.5 8.8 7.4 4.3 2-3 7.4-21.5 8.6-29.6.6-3.6 3.5-19.4 6.6-35.1 4.9-25.4 7.2-35.3 11.9-52.5 6.9-24.9 7.7-28.5 6.5-30-1.6-1.9-5.4-1.9-6.9-.1m28.4.2c-8.5 4.4-12.9 13.2-15.1 30.4-1.7 12.8-1.6 18.1.6 49 .5 7.4.9 21.9 1 32.2 0 10.3.5 19.9 1 21.3 2 5.1 7.9 11.2 13.2 13.5 11.2 4.8 21.4 1.1 26.9-9.9 5.1-10.2 5.4-13.5 5.4-68.6 0-50.9 0-51-2.2-55.2-2.8-5.2-8.8-11.1-13-12.9-4.4-1.9-14.1-1.8-17.8.2m17.2 10.4c7 4.2 6.8 2.9 6.8 58.5 0 37.9-.3 51.4-1.3 55.8-2.9 12.6-13.3 18.1-21.6 11.6-4.7-3.7-5.6-6.7-5.7-20.1 0-6.8-.5-17.7-1-24.3s-.9-23.4-.9-37.5c-.1-26.6.8-33.7 4.7-39.7 4-6.1 12.8-8.1 19-4.3m31.3-10.5c-.9 1.1-1.1 16.5-.7 66.4l.4 64.9 2.6 4.4c4.1 7.1 10.7 12.5 16.1 13.3 12.1 1.9 20.4-3.2 22.5-13.7 2-10 3.1-34.4 3.7-81 .6-42.4.5-47-1-49.3-2-3-3.7-3.2-6.1-.5-1.7 1.9-1.8 3.8-1.2 28.7 1 43-1.7 95.6-5.2 102.2-4.4 8.2-15.7 6.1-20.8-3.9l-2.3-4.5-.6-62.5c-.6-53.9-.9-62.7-2.2-64.3-1.8-2.1-3.6-2.2-5.2-.2m181.7.5c-1.1 1.6-1.2 3.1-.5 6.3.9 4.1 3.2 39.8 3 46.7-.1 1.9-.3 22.4-.5 45.5-.3 34.5-.2 42.4 1 44.2 1.8 3 4.9 2.9 6.9-.2 1.4-2.1 1.5-5.2 1-23.2-.3-11.4-.5-25.8-.4-31.8.3-27.4.2-41.1-.5-55.5l-.7-15.5 5 9.4c2.8 5.1 5 9.7 5 10.1 0 1.6 6.1 9 7.4 9 1.8 0 5.3-4.6 11.5-15.5l5.1-8.9v21.9c.1 51.5 0 70.9-.6 86-.6 15.7-.6 16 1.6 18l2.2 2 1.7-2.2c2.5-3 3-17.9 3.1-83.1 0-28.7.5-54.4 1-57 1-5.8-.7-8.5-5.3-8-3.4.3-3.8 1-12.9 20.5-3.3 7.3-6.4 13.3-6.7 13.3s-4-6.6-8.1-14.7-8.3-15.7-9.3-17c-2.4-3-8-3.2-10-.3m69.9-.5c-2.1 1-2.1 1.7-2.2 43-.1 39.8-.7 68-2 89.7-.5 8.8-.4 9.8 1.5 11.7 1.8 1.8 2.9 1.9 14.8 1.5 22.3-.8 23.7-1.3 23.1-7.6l-.3-3.3-14.3.3-14.4.4.5-32.9.4-32.8 9.2-.5c7.7-.4 9.5-.8 10.7-2.4 1.7-2.3 1.8-4 .4-6.7-1-1.7-2.2-1.9-10.9-1.9h-9.8l.2-24.3.1-24.2 11.9-.3c6.7-.1 12.5-.7 13.2-1.4 1.8-1.5 1.6-5.3-.4-6.9-2.1-1.8-28.7-2.9-31.7-1.4m69.9-.3c-.4.9-.5 30.8-.3 66.6.2 49.5.6 65.4 1.5 66.3 1 1 1.4.9 1.9-.4.3-.9.4-30.8.2-66.6-.2-49.4-.6-65.3-1.5-66.2-1-1-1.4-.9-1.8.3m-225.2 5.7c-2.4 1.7-5.5 4.9-7 7.2-5.5 8.4-3.8 31 3.7 46.8 1.7 3.4 3 6.8 3 7.4 0 .7-3.4 5.7-7.5 11.2-4.2 5.5-9.2 13.4-11.3 17.5-3.4 6.8-3.7 8.1-3.5 15 0 4.3.8 9.2 1.7 11.4 2.6 6.1 8.6 13.7 13.5 16.7 8.5 5.5 16.5 3.2 28.3-7.9 3.8-3.6 7.1-6.3 7.4-6s2.4 4.3 4.8 8.9c4.4 8.7 6.9 10.6 10.2 7.9 2.3-2 1.7-5.2-3.2-15.4l-4.6-9.7 3.6-6c5.5-9.3 7-14.7 5.7-20.9-2.1-9.8-7.7-17.5-12.3-16.8-3.7.5-3.7 6.3.1 12.4 1.9 2.9 3.1 6.1 3.1 8.1 0 3.2-3 10.6-4.8 11.7-.5.3-2.2-2.3-3.8-5.7s-5.4-10.6-8.6-16c-7.2-12.6-7.5-14-4.4-18.7 14.1-21.3 16.5-48.6 5.2-59-2.1-1.9-4-2.5-8.9-2.8-5.7-.3-6.6-.1-10.4 2.7m12.7 8.1c4.5 2.4 5.5 16 2.1 27.1-2.7 8.7-6.8 17.9-8 17.9-2.4 0-9.1-21.8-9.1-29.6 0-10.7 8.2-19.1 15-15.4m-2.7 73.2c5.2 10.4 11.1 21.2 13.2 24.5 1.3 1.9 1.1 2.5-2 6.6-4.7 6.1-14.7 12.7-19.3 12.7-7.8 0-14.3-9.1-14.6-20.3-.1-5.2.4-7.3 3.1-12.7 3.4-6.7 12.7-20 14.1-20 .4 0 2.9 4.2 5.5 9.2m-755.8-82.3c-7.9 3.3-7.7 16.2.3 19.2 3.5 1.3 8.5.4 10.7-2.1 2.6-2.8 3.5-8.9 1.8-12.2-2.2-4.6-8.1-6.8-12.8-4.9"/><path d="M1247.6 1261.9c-.9 1.5-.8 108.2.1 116.1.5 3.6 1.3 6.5 1.8 6.5.6 0 1.1-7.8 1.3-20.7l.2-20.7 2.8.4c1.5.2 7.4 1.1 13.2 2s12.4 2.1 14.6 2.6l4.1 1.1v7.7c-.1 6.6.3 8.4 2.8 12.9 1.5 2.8 3.6 5.9 4.6 6.8 1.8 1.6 2 1.5 3.9-2.7 2.3-5.2 2.5-11.1.5-16.8-.8-2.2-1.1-4.1-.8-4.1.8 0 13.1 7.2 18 10.6 1.9 1.2 3.9 2.4 4.6 2.7.9.3.7 1-.5 2.4-3.3 3.6-6 13.3-5.4 19.1.9 9.9 3.8 10.1 9.6.6 2.8-4.6 3.4-6.7 3.4-11.1v-5.5l3.9 4.4c5.8 6.5 12.7 15.8 14.8 20.1 1.9 3.7 1.9 3.7-.2 6.6-3.3 4.5-3.8 15.3-1 21.6 2.1 4.7 2.2 4.8 4.1 3 1.1-1 2.9-4.3 4.1-7.4 3.1-8.2 2.4-15.1-2.5-23.1-2-3.5-3.8-6.7-3.9-7.2s2.5-1.9 5.8-3.3c6.9-2.8 17.6-12.8 15.7-14.7-2.5-2.5-18.7 2.1-25.6 7.4-1.8 1.4-2.3 1-7.6-5.1-3.2-3.6-8-8-10.8-9.6-5.6-3.3-6-4.5-1.9-5.6 6.1-1.6 16.9-12.1 15.2-14.8-1.9-3.2-15.6.7-22.2 6.4-2.3 1.9-4.6 3.5-5.2 3.5s-4.8-1.6-9.5-3.5c-12.5-5.2-26.2-8.4-37.9-8.9l-10.2-.5-.3-11.2c-.2-6.9.1-11.6.8-12.4.6-.7.7-1.6.2-1.9s-1.2-12.3-1.5-26.7c-.6-24-1.3-30-3.1-27m80.2 88.2c-2.1 3.3-13.8 8.4-13.8 6 0-2.3 9.3-7.9 13.3-8 1.5-.1 1.5.2.5 2m-34.8 4.9c2 4 2.5 9.9 1.1 13.5-.7 1.7-1.2 1.2-3.5-3.4-2.3-4.5-2.7-6.1-2.1-10.2.8-5.5 1.6-5.5 4.5.1m29.8 20.8c-.9 8.8-5.5 14.4-5.1 6.1.2-4.5 2.8-10.9 4.4-10.9.8 0 1 1.5.7 4.8m36 1.4c-1.1 3.3-15.8 9.8-15.8 6.9 0-1.4 6.9-5.7 11.1-7 4.7-1.3 5.1-1.3 4.7.1m-8.8 35.4c-.6 2.6-1.6 5.6-2.2 6.7-1.1 2.1-1.1 2.1-2-.3-.9-2.3.6-14 2-16.5.3-.5 1.2.5 1.9 2.3 1 2.4 1.1 4.3.3 7.8m402.8-149.6c-8.5 6.6-2.7 20.5 7.7 18.6 7.1-1.4 10.2-11.4 5.2-17.1-3.1-3.7-9.3-4.4-12.9-1.5m-1010.5 8.6c-1 2.5-1 118.3 0 120.8 2.4 6 2.8-2.4 3-60.2.1-45.6-.1-60.4-1-61.3-1-1-1.4-.8-2 .7m-585.9 1.9c-.7 1.8.3 3.5 2.1 3.5 2.1 0 2.8-1.9 1.5-3.5-1.6-1.9-2.9-1.9-3.6 0m1740.7-.1c-.9 1-.8 1.6.4 2.6 1.9 1.6 4.1-.1 3.2-2.4-.8-2-2.1-2-3.6-.2m-1740.7 20.1c-.7 1.8.3 3.5 2.1 3.5 2.1 0 2.8-1.9 1.5-3.5-1.6-1.9-2.9-1.9-3.6 0m1741 .6c-1 1.7 1.3 3.6 2.7 2.2 1.2-1.2.4-3.3-1.1-3.3-.5 0-1.2.5-1.6 1.1m-.3 20.3c-.9 1-.8 1.6.4 2.6 1.9 1.6 4.1-.1 3.2-2.4-.8-2-2.1-2-3.6-.2m-1740.6.6c-.4.7-.3 1.6.3 2.2 1.4 1.4 4.5.2 4-1.5-.6-1.6-3.4-2.1-4.3-.7m0 20c-.4.7-.3 1.6.3 2.2 1.4 1.4 4.5.2 4-1.5-.6-1.6-3.4-2.1-4.3-.7m1740 0c-.4.7-.3 1.6.3 2.2 1.4 1.4 4.5.2 4-1.5-.6-1.6-3.4-2.1-4.3-.7m-1172.9 6.9c-.4.5-.2 1.2.3 1.5.5.4 1.2.2 1.5-.3.4-.5.2-1.2-.3-1.5-.5-.4-1.2-.2-1.5.3m-17.1.8c-7.5 1.1-19.5 4.7-27.7 8.4l-8.9 4.1-4.3-4c-6.1-5.7-20.2-10.3-22.9-7.6-2 2.1 7.1 11.7 14.4 15.1l3.8 1.8-5.2 4.1c-2.9 2.2-7.5 6.8-10.2 10.2-2.8 3.3-5.5 6.1-6.1 6.1-.6.1-1.9-.8-3-2-2.1-2.4-6.3-4.7-10.8-6.1-5-1.5-12.3-2.1-13-1-1.8 3 9.7 13.5 17 15.4 2.4.7 4.4 1.7 4.4 2.2s-1.9 4.2-4.2 8c-3.8 6.3-4.3 7.8-4.3 13.1 0 4.7.7 7.3 3 11.9 1.7 3.2 3.5 5.9 4 6 .6 0 1.8-1.5 2.8-3.6 2.6-5.2 2.5-15.4-.2-20.6-1.2-2.3-2.1-4.6-2.1-5.1s2-4 4.5-7.7c2.5-3.6 4.5-6.9 4.5-7.1 0-.3 1.1-1.4 2.4-2.4 1.4-1.1 3.4-3.5 4.6-5.4 2.9-4.7 4-4.4 4 .9 0 3.5.9 5.7 4.1 10.5 4 6 7 8.7 8.3 7.4 1-1 .7-14.5-.5-18.8-.6-2.2-2-5.2-3-6.7-1.1-1.4-1.9-2.8-1.9-3.1 0-1 21.7-13.7 23.5-13.7.2 0-.3 1.6-1.1 3.5-1.7 4.1-1.8 10-.3 16.1 1.3 5.1 2.4 6.1 4.5 4.3 3.7-3.1 6.7-11.3 7.2-19.6l.4-8.2 4.7-1c7.3-1.6 15.4-3.1 18.4-3.4 1.5-.1 2.8-.7 2.7-1.2 0-1.1-8.4-1.6-13.5-.8m-47.3 8.3c6 4 7.7 6 5.2 6-3.8-.1-14.4-6.3-14.4-8.5 0-1.5 5.3-.1 9.2 2.5m29.3 14.3c-.8 2-2 3.7-2.5 3.7-1.8 0-1-8.9 1.3-14.2l2.2-5.1.3 5.9c.2 3.7-.3 7.3-1.3 9.7m-27.4 14.6c1.1 4.5 1.9 8.5 1.6 8.8-.9.8-5.8-8.4-6.4-12.1-.6-4.1.3-7.4 1.7-6 .6.6 1.9 4.7 3.1 9.3m-33.3-2.4c3.8 1.6 8.2 5.2 8.2 6.7 0 2.4-10.9-2.2-14.4-6.1-1.9-2.1-1.9-2.1.3-2.1 1.2 0 3.8.7 5.9 1.5m5.1 29.9c2.3 9.4.6 16.9-2.3 9.7-1.7-4.3-2-8-1-11.9 1-3.4 2-2.7 3.3 2.2m-476.5-52.3c-.3.6 0 1.7.8 2.5 1.3 1.3 1.6 1.3 2.7 0 .7-.8 1-2 .6-2.6-.8-1.3-3.2-1.3-4.1.1m1740.7.3c-.9 1-.8 1.6.4 2.6 1.9 1.6 4.1-.1 3.2-2.4-.8-2-2.1-2-3.6-.2m.3 20c-.9 2.4 1.2 4.4 2.8 2.8 1-1 .8-1.6-.5-2.9-1.5-1.5-1.7-1.5-2.3.1m-1740.9.6c-.4.7-.3 1.6.3 2.2 1.4 1.4 4.5.2 4-1.5-.6-1.6-3.4-2.1-4.3-.7m1091 17c-.4.6-.3 1.6.3 2.2s1.2.6 1.7-.2c.4-.6.3-1.6-.3-2.2s-1.2-.6-1.7.2m-1091 3c-.4.6-.1 1.7.5 2.6 1 1.1 1.6 1.2 2.6.3 1.1-.9 1.1-1.5.3-2.5-1.4-1.7-2.5-1.8-3.4-.4m1740.6.4c-.8 1-.8 1.6.3 2.5 1 .9 1.6.8 2.6-.3 1.2-1.5.6-3.6-.9-3.6-.5 0-1.4.6-2 1.4M156.5 1417c-.4.7-.3 1.6.3 2.2 1.4 1.4 4.5.2 4-1.5-.6-1.6-3.4-2.1-4.3-.7m1740.1-.1c-.9 1.5 2.3 3.6 3.6 2.3.5-.5.7-1.5.4-2.1-.9-1.3-3.3-1.4-4-.2m-1740.2 20.2c-.3.6 0 1.7.8 2.5 1.3 1.3 1.6 1.3 2.7 0 .7-.8 1-2 .6-2.6-.8-1.3-3.2-1.3-4.1.1m1740 0c-1 1.7 2.3 4.6 3.7 3.2.7-.7.9-1.9.6-2.7-.7-1.8-3.3-2.1-4.3-.5m.8 20.2c-1 1.1-.9 1.7.3 2.7 2.4 2 4.5-.4 2.4-2.6-1.4-1.3-1.7-1.3-2.7-.1m-1740.7.7c-.4.7-.3 1.6.3 2.2 1.4 1.4 4.5.2 4-1.5-.6-1.6-3.4-2.1-4.3-.7m-.1 20.1c-.3.6 0 1.7.8 2.5 1.3 1.3 1.6 1.3 2.7 0 .7-.8 1-2 .6-2.6-.8-1.3-3.2-1.3-4.1.1m1740.9.5c-.8 2.1 1.3 4.2 2.8 2.7 1.3-1.3.5-4.3-1.1-4.3-.6 0-1.3.7-1.7 1.6m-1080.6 3c-7.8 1.9-21.7 9.2-29.3 15.3-7.2 5.9-14.5 16.3-16.8 24-2.4 8.2-2.1 18.5.8 24.6 3.3 7.1 9.3 12.9 15.5 15 2.8.9 5.1 1.8 5.1 2.1 0 .7-7.9 13.3-15.2 24.3-9.1 13.8-24.6 32.8-32.2 39.8-12.3 11.1-26.3 15.2-35.1 10.1-14-8.2-17.3-28.7-8.5-54.5 5.6-16.5 17.8-32.9 28.4-38.2 5.6-2.7 13.9-3 18.6-.6 4.1 2.1 6 6.8 6 14.9 0 8.6-2.4 15.5-8.6 25.1-8.1 12.6-15.2 17.9-24 18-7.4 0-10.4-2.9-10.4-9.9 0-3.3.7-6.2 2-8.4 1.8-2.9 1.9-3.3.4-3.9-4.4-1.6-8.4 5.5-8.4 14.7.1 3.6.6 7.5 1.3 8.7 3.7 6.6 13.1 9 22.6 5.8 9.6-3.1 24.3-19.6 29.2-32.4 3-7.9 3.7-20.7 1.5-26.5-3.9-10.1-14.2-15-27.2-12.8-10 1.7-16.8 5.4-25.4 14.1-8.7 8.7-13.5 17-17.6 30.6-2.4 7.8-2.7 10.8-2.8 23-.1 15.9 1.5 22.8 6.9 29.9 7.1 9.4 19.6 13.8 32.8 11.7 14.4-2.4 26.7-10.1 42.9-27 12-12.5 19.1-21.7 31.1-40.2l8.2-12.6 8.5-.5c9.9-.5 16.7-3.4 21.8-9.3 4.2-4.8 4.5-11.3.7-15.1-3.4-3.4-5.5-1.9-4.8 3.4.6 5.1-2.4 9.5-8.4 12.5-5.2 2.6-13.8 4.3-14.7 2.9-.7-1.1 16.1-26.7 23.4-35.7 10.9-13.4 17.3-17.1 27.5-16.2 7.2.7 8.5-.1 8.5-5.3 0-8.9-8-17.4-19.6-21-8-2.4-25.6-2.6-34.7-.4m34.6 7.9c3 1.1 6 3.1 8.3 5.8l3.5 4.2-5.8.6c-7.5.8-12 2.8-20.2 8.8-10.8 8-23.7 22.5-35.5 39.9-6.2 9-8.6 9.5-15.1 2.9-7.8-7.7-8.5-19.2-2.1-32.1 8-16.2 24.1-28.2 42.6-31.6 6.4-1.2 18.6-.4 24.3 1.5m-695 9.1c-.9 2.3 1.3 4 3.2 2.4 1.2-1 1.3-1.6.4-2.6-1.5-1.8-2.8-1.8-3.6.2m1740.7-.1c-1 1.1-1 1.9-.2 2.7 1.5 1.5 4.4.2 4-1.9-.4-2.3-2.2-2.7-3.8-.8M288.5 1514c-3.2 1.2-4.7 3.6-4.7 7.4 0 5.7 3.2 9.3 7.8 8.7 1.5-.2 4.8 17.7 7.4 39.9 3 26.2 2.6 57.7-1 78.2l-1.2 6.7-4.9 1c-6.8 1.5-15.9 5.3-21.3 9.1-8.7 5.9-17.2 20.5-16.4 28.2l.3 3.3 7.5-.1c6.1 0 8.6-.6 13.3-2.9 10.1-5 20.4-18.1 23.6-30.2l1.1-4.1 7.7-.8c17.1-1.6 43.8 1 72.8 7 15.1 3.2 40.3 9.4 42.1 10.4.8.5 2.2 2.3 3.2 4.2 3 5.8 11.7 7.2 14.9 2.3 5.2-7.9-3.4-16.8-11.3-11.7-2.3 1.6-2.9 1.5-9.2-.4-15.2-4.8-44.3-11.2-65.2-14.3-10.8-1.7-19.4-2.3-33.7-2.3l-19.3-.1.5-3c.3-1.7 1-5.3 1.6-8 1.7-8.2 2.3-47.9 1-62.2-1.3-14.1-4.3-34.1-6.6-44.6-1.4-6.1-1.4-7 .1-9.1 2.2-3.5 1.5-8.5-1.6-10.7-3.3-2.3-6-2.9-8.5-1.9m6.7 6.5c.8 1.9.8 2.8-.2 4-1.6 1.9-2.9 1.9-5.2-.2-2.2-2-2.2-2.7-.2-4.7 2.2-2.3 4.3-2 5.6.9m-.7 141.7c-1.6 5.6-7.2 15.3-12.1 20.6-5.8 6.4-14.2 11-21 11.4-3.4.3-3.9 0-4.2-2-.5-3.3 4.1-12.2 9.2-17.9 4.8-5.4 12-9.7 20.5-12.4 7.6-2.4 8.4-2.4 7.6.3m141.6 11.8c2.6 1.5 2.4 4.9-.3 5.9-2.5.9-5.8-.3-5.8-2.1 0-1.1 2.9-4.8 3.7-4.8.2 0 1.3.5 2.4 1m1347.2-159.5c-5.1 2.2-7 8-3.7 11.7 1.6 1.6 1.5 3.1-1.4 20-4.8 28.6-5.7 37.8-5.7 60.8.1 19.5 1.8 39.5 4 45.1.5 1.2-2 1.5-15.7 1.4-30.1 0-59.5 4.9-104.5 17.7-3.6 1-4.5 1-6.1-.5-3-2.7-7.9-2.2-11.4 1.3-2.5 2.6-2.9 3.6-2.4 6.2 1.2 6.3 6.1 8.9 12 6.4 2.4-1 4-2.6 5-5 .8-2 1.7-3.6 2-3.6s8.3-2 17.8-4.4c37.3-9.4 64.1-13.6 87.9-13.6 13.6 0 15.1.2 16.9 2 1.1 1.1 2 2.8 2 3.7 0 3.6 8.5 16.9 14.4 22.9 5 5 7.3 6.5 12.9 8.3 4.9 1.7 7.2 2 8 1.2.7-.7.5-1.2-.9-1.7-11.2-3.9-16.4-7.9-22.4-17-4.8-7.3-8.7-16.1-7.6-17.1.9-.9 11.1 2.4 17.6 5.7 7.2 3.7 13.2 10 16.9 18 3.2 6.7 3.9 10.4 2.1 11.5-2 1.2.1 2.5 2.2 1.4 4.8-2.6-1.3-19.1-10.3-28.1-5.6-5.6-16.7-11.2-25.1-12.8-2.9-.6-5.5-1.4-5.9-1.8s-1.5-5.9-2.5-12.2c-1.5-9.2-1.8-16.3-1.7-36 .1-22.3.5-26.7 3.7-49.3 2-13.7 3.6-25.2 3.6-25.8 0-.5 1.3-.9 2.8-.9 6.9 0 9.6-8.8 4.3-14.1-3.3-3.3-4.2-3.4-8.8-1.4m5.7 5.5c1.4 2.7.4 6-1.9 6-2.7 0-4.4-2.6-3.7-5.5.8-3.1 4.1-3.4 5.6-.5m-140.9 155.6c.9 1.1 1 2 .2 3.2-2.4 3.9-8.2 1.5-6.8-2.8.8-2.4 4.7-2.7 6.6-.4M156.5 1519c-.4.7-.3 1.6.3 2.2 1.4 1.4 4.5.2 4-1.5-.6-1.6-3.4-2.1-4.3-.7m1740.9.1c-1 1.7 1.3 3.6 2.7 2.2 1.2-1.2.4-3.3-1.1-3.3-.5 0-1.2.5-1.6 1.1m-995.4 7.2c-7.3 5.1-21.1 23.9-35.2 47.7-11.7 19.7-16.4 29.7-17.9 38.1-1.2 6.6-1.1 7.3.9 11.5 3 6 7.1 8.4 14.7 8.4 9 0 18.7-5.2 30.1-16.2l4.1-3.9-.1 5.3c0 5.9 2.8 11.9 6.7 14 3.8 2 12 1.2 17.8-1.8 10-5 24.8-22.2 32.1-37.1 3.6-7.6 4.4-8.5 8.6-10.3 4.9-2.2 10.4-6.8 9.7-8-.3-.4-3.2.3-6.6 1.7-3.3 1.3-6.6 2.2-7.3 2-.9-.4-1.1-2.2-.8-5.9 1.1-13.6-10.2-18.9-23-10.7-7.2 4.7-19.2 17.9-27.3 30.3-5.4 8.1-9.6 13.2-15.2 18.2-14 12.5-19.1 15.5-26.3 15.8-6.3.1-8-1.4-8-7.3 0-8.7 10.9-26.7 41.3-68.2 7.4-10.1 13.7-19.3 14.1-20.5 1.5-4.8-6.9-6.9-12.4-3.1m43.9 53.2c2.2 2.4 4.1 5.4 4.1 6.5 0 6.6-20.6 31.7-30.1 36.6-7.1 3.6-12.3-1-10-8.8 1.6-5.2 7.3-14.9 13.3-22.5 5.6-7 15.3-16.3 17.3-16.3.7 0 3.1 2 5.4 4.5m951.4-39.9c-.8 2.1 1.3 4.2 2.8 2.7 1.3-1.3.5-4.3-1.1-4.3-.6 0-1.3.7-1.7 1.6m-1740.8.4c-.4.7-.3 1.6.3 2.2 1.4 1.4 4.5.2 4-1.5-.6-1.6-3.4-2.1-4.3-.7m862.7 7.3c-.9 1-.1 2.2 3.3 5 7.3 6.1 7.7 14.6 1.4 25.4-5.1 8.5-22.7 25.9-33.8 33.2-10.7 7-17.1 10.5-17.1 9.3 0-2.3 8.4-24.3 18.1-47 2.5-6 1.9-8.8-2.6-11.8-2.6-1.7-2.7-1.7-6 1.7-3.7 3.7-11 21.3-18.3 43.9-5.7 18-5.8 18.6-2.3 22.1 3.9 3.8 7.3 3.7 15.4-.4 19.9-10.4 47.5-36.7 55.7-53.1 6.2-12.4 3-24.4-7.6-28-5.7-1.9-4.9-1.9-6.2-.3m226.8 10.6c-9.9 3-31.7 26.2-38.8 41.4-5.7 12-6.5 18.4-3.2 25.3 2.7 5.6 6.1 7.7 12.4 7.7 9.1.2 19.8-7.3 31.6-22 6.3-7.8 11.9-17.6 12.9-22.8.6-2.4 1.9-3.6 7.1-6.3 6.1-3.2 9.6-6.3 8.3-7.5-.3-.4-2 0-3.8.8-1.9.7-4.8 1.5-6.6 1.7l-3.3.3.3-5c.3-6.6-1.1-10-5.1-12.5-3.4-2.1-7.4-2.4-11.8-1.1m3.7 21.6c2.4 2.5 4.3 5.5 4.3 6.7 0 6.5-20.2 31.2-29.3 35.9-7.8 4-13 .1-10.9-8.2 1.4-5.5 8.6-17.8 14.9-25.4 5.1-6.2 13.6-13.5 15.6-13.5.6 0 3 2 5.4 4.5M156.5 1560c-.4.7-.3 1.6.3 2.2 1.4 1.4 4.5.2 4-1.5-.6-1.6-3.4-2.1-4.3-.7m1740 0c-.4.7-.3 1.6.3 2.2 1.4 1.4 4.5.2 4-1.5-.6-1.6-3.4-2.1-4.3-.7m-831.6 4c-20 6-46.9 36.2-46.9 52.5 0 7.3 2.5 11.4 9 14.7 12.6 6.5 26 2.2 46-14.8 15.1-12.8 23.1-22.4 20.9-25.1-.8-.9-4 1.8-13.2 11.1-12.3 12.4-20.5 18.7-30 23.2-6.1 2.8-14.1 3.2-17.4.9-2.6-1.8-4.5-7.8-3.7-11.4.8-3.8 2.5-8.1 3.3-8.1 10-.7 15.7-2.2 23-5.8 12.5-6.3 23.8-15.6 26-21.5 1.2-3.1 1.4-9.6.5-12.2-1.5-3.8-10.6-5.6-17.5-3.5m11.1 7.7c-.1 6.7-9.1 16.6-21.5 23.6-7.6 4.4-17.5 7.2-17.5 5 0-1.5 12.4-15.5 17.6-19.9 6.4-5.3 9.6-7.4 14.2-9 5.1-1.8 7.2-1.7 7.2.3m267.4-7.6c-3.5 1-8.9 6.8-25.3 27.1-5.6 6.9-13.7 16.2-18 20.6-17.8 18.2-30.1 20.8-24.2 5 2.8-7.3 11.8-21.5 20.6-32.4 11-13.7 13.7-17.6 12.6-18.7-.5-.5-3.3-1.2-6.1-1.5-4-.4-5.5-.1-7.2 1.4-1.8 1.7-30.9 34.9-34.7 39.7-1.1 1.3-1.1 2.1-.3 2.9.9.9 2.5 0 6.4-3.3l5.3-4.4-2.8 4.7c-3.5 6.1-5.9 15.3-5.1 20 1.2 7.6 9.8 11 18.6 7.4 4.8-2.1 15.2-10 22.2-17.1l5.9-5.9-.9 3.4c-.5 1.9-.9 5.9-.9 8.7 0 4.6.4 5.7 3.3 8.5 2.9 2.9 3.8 3.3 8.6 3.2 6.8 0 9.5-1.7 24.9-15.9 12.4-11.3 19-18.9 18.5-21.4-.6-3.1-3.4-1.5-9.3 5-6.7 7.3-16.3 15.6-24.4 21.3-9.1 6.2-13.2 3.5-10.2-6.6 1-3.2 12.3-18.9 27.1-37.6 5.7-7.2 6.2-10.1 2.4-13.1-1.5-1.2-2.9-2.1-3.3-2-.3 0-2 .5-3.7 1m-188.4 4c-6.3 2.5-21.4 20.6-29.2 34.9-5.5 10-7.2 16.2-5.8 20.5 1.8 5.3 4.8 6.9 12.1 6.2 5.1-.4 7.3-1.3 13.2-5.3 8.7-5.7 21-15 29.5-22.2 3.4-2.9 6.2-4.8 6.2-4.3 0 1.7-6.1 16.5-11.1 26.8-11.7 23.9-25.5 39.7-37.8 43.3-4.7 1.3-8.4-.5-13.7-6.6-5.3-6.2-7-6-5.9.6 1.1 6.4 6.2 11.6 13 13.1 10 2.2 19.2-1.9 30.2-13.4 7.4-7.7 13.5-16.8 25.1-37.2 9.8-17.2 17.5-30.3 25.3-42.9 2.7-4.4 4.9-8.8 4.9-9.7 0-3.7-6.8-5.1-10.8-2.3-1.2.8-5.3 5.3-9.2 9.9-11.5 13.7-34.3 31.8-51.8 41.1-7 3.7-9.9 4.2-10.8 1.9-1-2.5 6.6-12.8 27.1-37 9.8-11.5 11-13.7 8.7-15.8-2.4-2.1-6.2-2.8-9.2-1.6m742.4 12.4c-.9 2.3 1 4 2.5 2.2.9-1.1.8-1.7-.4-2.7s-1.6-.9-2.1.5m-1740.8.4c-.3.5 0 1.4.8 2 1 .8 1.6.8 2.5-.2.6-.8.8-1.7.4-2-.9-1-3.1-.9-3.7.2m.9 20.1c-.4.6-.3 1.6.3 2.2s1.2.6 1.7-.2c.4-.6.3-1.6-.3-2.2s-1.2-.6-1.7.2m1739.9.1c-1 1.7 1.3 3.6 2.7 2.2 1.2-1.2.4-3.3-1.1-3.3-.5 0-1.2.5-1.6 1.1m-1774.8 31.8c-.4.5-.2 1.2.3 1.5.5.4 1.2.2 1.5-.3.4-.5.2-1.2-.3-1.5-.5-.4-1.2-.2-1.5.3m1809 25c-.4.5-.2 1.2.3 1.5.5.4 1.2.2 1.5-.3.4-.5.2-1.2-.3-1.5-.5-.4-1.2-.2-1.5.3m0 5c-.4.5-.2 1.2.3 1.5.5.4 1.2.2 1.5-.3.4-.5.2-1.2-.3-1.5-.5-.4-1.2-.2-1.5.3m0 5c-.4.5-.2 1.2.3 1.5.5.4 1.2.2 1.5-.3.4-.5.2-1.2-.3-1.5-.5-.4-1.2-.2-1.5.3m-970.1 79.5c-4.3 1.9-11.1 10-12.2 14.4l-.9 3.7-62.9.2c-209.2.6-353.8 1.3-354.6 1.9-.5.3-.7 1-.4 1.5.4.5 31.7.9 78.9.9 43 0 137 .3 208.8.7l130.6.6 1.6 3.8c2.2 4.9 8.5 10.5 13.6 12 8.4 2.5 18.3-2.5 22.8-11.4l2.3-4.7h14.4l3 5.8c2.6 4.7 4 6.2 8.5 8.4 7.2 3.7 12 3.6 18.8-.2 4.2-2.5 5.8-4.1 7.9-8.5l2.7-5.5h14.1l2.7 5c8.6 15.5 29.1 15.4 35.7 0l2.2-5h26.7c87.6 0 379.9-1.2 381.1-1.6 7.5-2.4-19.2-2.7-348.3-3.7l-58.8-.2-1.5-4.5c-3.2-9.5-10.2-14.9-19.2-15-8.8 0-18.1 7.4-19.7 15.6l-.6 3.4h-14.4l-1.3-4.6c-5.7-19.3-31.9-19.1-38.6.3-1.5 4.3-3.1 5-10.3 4.5-4.7-.4-4.8-.4-6.5-5.1-.9-2.7-2.6-6-3.7-7.4-4.5-5.7-15.5-8.3-22.5-5.3m69 4.6c3.1 1.5 4.9 3.4 6.9 7.1 1.6 2.8 2.6 5.2 2.4 5.4-.6.6-4.3.7-18.1.6s-13.8-.1-13.1-2.3c1.4-4.5 5-8.8 8.9-10.8 5-2.5 7.8-2.5 13 0m57.8.7c1.4.9 6.7 9.5 6.7 11 0 1-3.5 1.3-15.9 1.3h-15.9l.5-2.3c.8-3 4.9-8.4 7.6-9.9 4.7-2.5 13-2.6 17-.1m-111.2.6c2.9 2 7.8 8.8 7.9 10.9 0 .5-7.2.8-16.1.8h-16l.7-2.3c.9-2.8 5.1-8.4 7.8-10.3 3.3-2.3 11.7-1.8 15.7.9m6.9 18.7c0 1.8-7.9 9.7-10.9 11-5.5 2.2-14.4-1.9-17.6-8-.8-1.6-1.5-3.1-1.5-3.5 0-.3 6.8-.5 15-.5 9.6 0 15 .4 15 1m55-.3c0 4.2-9.7 12.3-14.5 12.3-3.6 0-9.8-3.4-12.9-7-4.8-5.7-4.3-6 12.4-6 8.3 0 15 .3 15 .7m55 .6c0 2.4-7 9.5-10.5 10.7-5.9 1.9-14.9-2.1-18-8-.8-1.6-1.5-3.1-1.5-3.5 0-.3 6.8-.5 15-.5 11.8 0 15 .3 15 1.3m-607.6-17.4c-4.8 2.9-6.4 5.9-6.4 11.7 0 3.7.6 5.9 2.1 7.8 4.1 5.2 11.4 7.1 16.9 4.3 3.2-1.6 9.3-10.6 8.2-12.1-.5-.6-1.7-3.3-2.6-6-1.4-3.7-2.6-5.1-5.2-6.2-4.6-1.9-9.3-1.7-13 .5m12.5 4.5c2.1 1.4 4.2 6.5 3.5 9.1-.9 3.5-5.9 7.5-9.6 7.5s-8.8-4.8-8.8-8.4c0-6.7 4.6-10.9 10.5-9.6 1.8.4 3.8 1 4.4 1.4m1043.8-3c-2 2-3.8 5.1-4.5 7.6-3.7 14.8 18.6 22.5 25.1 8.7.9-1.9 1.7-4.7 1.7-6.2 0-4.1-3-9.5-6.4-11.6-1.9-1.1-5-1.9-7.8-1.9-4 0-5.2.5-8.1 3.4m15.6 4.6c4.3 4.8 3.5 9.3-2.3 13.3-3.9 2.7-8.4 2.2-11.4-1.4-8.4-9.9 4.9-21.5 13.7-11.9m313.7 5.2c-16.7 5.9-27 19.6-27 35.8 0 11.9 6.1 21.6 16.5 26 9.4 4.1 17.9 2.9 24.2-3.2 8.3-8.1 7.9-21.4-.9-25.9-8.1-4.2-16.8-1.1-17.3 6.2-.3 3.6 2 8.4 3.5 7.4.4-.3.1-1.9-.7-3.6-1.4-2.9-1.4-3.3.4-5.7 1.4-1.9 3.1-2.8 5.8-3 5.7-.5 9.1 1.4 10.9 5.9 2.3 5.6 2 8-1.3 12.6-3.6 5-8.4 7.3-15.3 7.3-6.8 0-13.2-3.9-17.7-10.6-7.1-10.8-4.6-24.6 6.6-35.7 9.6-9.7 21.5-12.8 35.2-9.3 24.8 6.4 39.6 29.5 36.3 56.7-1.4 11.4-3.2 16.9-8.8 26.8-9.5 17-23.1 27.6-42.4 33.2-10.3 3-10.7 2.9-10.2-3.4.3-3.6-.1-6.3-1.1-8.3-3.5-6.6-11.6-11.2-17.6-9.9-5.1 1.1-10.7 5.9-12.6 10.9-2.2 5.8-1.4 10.5 2.8 15.3 3.7 4.2 8.1 6.3 13.5 6.3h3.9l-.8 4.7c-4.1 23.8-18.2 43-39.4 53.6-7.9 3.9-17 5.7-28.8 5.7-12.3 0-19.5-1.9-28.1-7.4-5.9-3.8-14.6-12.9-16.9-17.8-4.5-9.6-6-24-3.3-32.9 2.2-7.3 4.1-10.3 9.6-15.2 9.7-8.8 22-11 32.1-6 13 6.7 17 21.9 8.1 31.2-8.2 8.5-21.2 4.9-21.2-5.9 0-4.4.8-5.6 4.4-7 2.3-.8 3.4-.7 5.2.5 1.6 1 2.5 1.1 3 .4.8-1.4-1-3.2-3.3-3.4-1 0-2.3-.4-2.8-.7-3.4-2-9.5 5.1-9.5 11 0 10.2 11 16.1 21.7 11.7 7.6-3.2 11.3-9.2 11.3-18.2-.1-18.2-19.3-31.6-37.1-25.8-20.7 6.7-31.1 25.5-27 48.9 3.8 21.8 22.1 38.3 46.3 41.7 19.5 2.7 42.7-5.4 58.1-20.4 11.9-11.7 17.4-22.4 21.1-41.2l2.2-11 8.5-1.2c10-1.4 15.5-3.1 23.5-7.1 23.8-12 39.3-35.5 41-62.4.8-12-.6-19.1-6-30.3-8.1-17.1-24.7-27.9-44.6-29.1-6.1-.4-8.7 0-14 1.8m-13.6 105.3c4.4 1.8 6.8 5.3 6.8 9.8 0 10.8-12.6 16.5-20.3 9.1-5.4-5.1-3.8-14.8 3-18.4 4.4-2.3 5.9-2.4 10.5-.5M170.8 1766c-15.4 2.7-26.2 9.2-34.4 20.7-18.1 25.3-12.4 63 13.2 87.4 10 9.4 27.1 17.4 40 18.6 3.4.3 6.7.9 7.4 1.3.6.4 1.5 3.3 2 6.6 1.2 8.6 4.6 18.8 9.3 27.9 5.8 11.4 18.2 23.5 30.4 29.8 21.7 11.2 41.8 12.3 60 3.5 19.2-9.3 29.3-25.1 29.3-45.8 0-19.4-8.5-32.7-24.8-38.9-10.5-4.1-23.6-1.9-31.4 5.3-4.7 4.4-6.5 8-7.7 15.8-1.2 7.4-.4 11.3 3.5 16.9 6.4 9.3 22.6 9 27.3-.5 2.1-4.4-.2-5.4-2.7-1.2-3.7 6.3-14.6 7-20 1.3-2.7-2.9-5.2-8.8-5.2-12.5 0-4.8 5.7-15 10-17.8 6.4-4.2 12.6-5.6 19-4.3 19.2 4 28.9 18.7 26.9 40.8-1.7 18.1-16.2 34.9-34.3 39.7-7.6 2-23.6 1.8-33-.6-15.6-4-33.5-17.3-41.7-31.1-4.2-7-9.5-21.6-10.1-27.9l-.3-3.5 4.3.3c2.9.3 5.7-.3 8.8-1.9 3.8-1.8 5.1-3.1 6.9-7.3 2-4.3 2.2-5.9 1.5-10.1-1-6.5-6.8-12-13.8-13.1-10.5-1.6-21.1 9.6-18.3 19.4.9 3.1.8 3.2-1.9 3.2-5.2 0-15.4-3.2-23.1-7.1-16.2-8.4-27.7-21.9-34.1-39.9-1.4-3.8-2.2-9.2-2.5-17.5-.5-11.1-.3-12.6 2.1-19.8 3.2-9.4 5.8-13.7 12.2-20 16.2-15.8 43-18.1 56.7-4.9 14.6 14.1 14.4 35.1-.4 44.9-8.1 5.4-21.7 2.4-26.1-5.7-4.4-8 .4-18 8.7-18 2.2 0 5 .7 6.2 1.5 2.6 1.8 3.4 5.9 1.6 8.4-.7 1.1-.9 2.2-.4 2.5 1.4.9 3.3-2 3.8-5.7.3-2.8-.1-4-2.6-6.5-4.4-4.3-8.1-4.9-13.8-2-11.2 5.6-11.5 20.2-.6 28.5 11.2 8.4 29 3.3 35.8-10.3 2.6-5.1 2.9-7 2.9-13.9-.1-12.8-4.6-21.7-15.3-29.8-7.6-5.8-20.6-8.6-31.3-6.7m43.8 105.6c10.9 5.2 6.8 22.4-5.3 22.4-3.4 0-8.8-3.1-10.3-6.1-1.6-2.8-1.6-9.9-.1-12.8 1.4-2.5 6.3-5 9.9-5.1 1.3 0 3.9.7 5.8 1.6"/><path d="M1510.5 1768c-.3.5-.2 1 .2 1.2 1.3.7 3.3.3 3.6-.6.3-1.2-3.1-1.7-3.8-.6m-440 71.9c-1.7.4-4.9 2-7.2 3.5-9.4 6.3-11.4 22-3.5 27.2 3.2 2.1 9 3.5 9.7 2.3.3-.4 1.3-.5 2.1-.2 2.5.9 7.4-4.5 7.2-8-.1-1.6-.6-3.1-1-3.3-.5-.3-.6-.9-.3-1.4.8-1.4-2.4-3.5-3.6-2.3-.8.8-.5 1.4.9 2.2 2.9 1.6 1.9 5.9-2 9.2-2.9 2.4-3.4 2.5-6.2 1.4-3.8-1.5-7.6-6.8-7.6-10.4 0-3.7 3.9-11.1 7.1-13.4 6-4.4 18.4-2.5 24.2 3.7 6.5 7 8.4 13.9 6.6 23.4-2.5 13.6-14.4 25.8-27.2 27.9-3.3.5-3.4.4-4.1-3.5-.8-5.4-5.3-9.2-10.7-9.2-4.2 0-9.4 2.1-10.1 4.1-.2.7-1.8.1-4.2-1.5-4.8-3.2-9.7-3.4-13.8-.5l-3 2.2-3.8-2.2c-4.7-2.6-9.3-2.7-13.6-.1l-3.2 2.1-3.4-2.1c-8.1-4.9-18.8.2-18.8 9.1 0 1.9-.4 2.1-3.2 1.5-5.5-1.1-13.2-5.2-17.1-9.2-4.6-4.7-9.5-14.3-10.3-20.5-1.5-10.7 6.3-23.1 16-25.9 10-2.8 17.6.6 21.7 9.5 1.6 3.5 1.6 4.3.3 7.5-3.8 9.4-13.5 10.7-17 2.4-1.5-3.5-3.4-3.8-3.4-.5 0 2.5 6.1 8 9.7 8.7 4.3.8 11.8-2.8 13.8-6.7 2.2-4.2 1.9-11.7-.8-16.3-8.8-15.4-31.3-13.2-41.4 4.1-4.6 7.9-4.2 20.3.9 30.5 1.3 2.8 1.5 3.8.6 3.8-15.6.3-89.1-.2-90.9-.5-3.5-.7-308-.6-330 .1-12.3.4-18.9.2-19.3-.4s1.3-2.7 3.6-4.6l4.3-3.5 205-.6c112.8-.2 206.9-.6 209.3-.7 5.8-.4 5.9-2.2.2-2.5-2.5-.2-96.7-.5-209.5-.7l-205-.5-9.2-9.3-9.2-9.3-5.2 5c-2.8 2.8-7.4 7.6-10.2 10.9l-5.1 5.8 10 9.4c5.4 5.2 10.3 9.4 10.8 9.4.4 0 2.2-1.2 3.9-2.6l3-2.5 46.1.8c81.3 1.4 387.9.4 397.2-1.3 2-.4 3.7.6 7.9 4.5 5.4 4.8 14.8 9.1 20.2 9.1 1.5 0 2.8 1 3.7 2.9 3.1 5.8 12.4 7.9 17.3 3.7l2.8-2.4 2.9 2.1c4 2.8 12 2.7 15.2-.4l2.3-2.1 3 2.1c1.6 1.2 4.9 2.4 7.3 2.7 3.6.4 4.8.1 7.2-1.9l3-2.4 3.4 2.4c1.9 1.2 4.7 2.3 6.1 2.3 3.9-.1 10.8-3.5 11.6-5.8.4-1.6 2-2.4 6.3-3.2 13.1-2.7 22.5-10.1 27.3-21.5 4.1-9.6 5-20.3 2.2-26.6-5.6-12.3-18.7-19.8-29.8-17M514 1877.5c0 .6-3.1 4.2-7 8l-7 6.9-7-6.9c-3.8-3.8-7-7.4-7-7.9 0-.6 3.2-4.3 7.2-8.3l7.2-7.2 6.7 7.2c3.8 4 6.8 7.7 6.9 8.2m483.9 17.2c4.8 4 3.4 13.3-2.3 14.7-8.8 2.2-13.7-10.5-5.7-14.9 3.5-1.9 5.5-1.8 8 .2m20 .9c3.5 2.9 3.9 5.9 1.6 10.4-1.3 2.5-2.2 3-5.2 3-8.8 0-11.8-11.1-3.9-14.6 4.1-1.8 4-1.8 7.5 1.2m21.8 1c2 2 2.4 3.1 1.9 5.7-.8 4.2-3.3 6.7-6.7 6.7-4.1 0-5.8-.9-7.4-4.1-2.2-4.1-1.8-6.5 1.1-8.8 3.7-2.9 7.9-2.7 11.1.5m20.2 0c2.6 3.3 2.6 5 .1 9.1-1.7 2.8-2.5 3.3-5.8 3.3-4.9 0-7.6-2.7-7.5-7.6.1-4.8 2.7-7.4 7.4-7.4 2.9 0 4.2.6 5.8 2.6"/><path d="M971.1 1858.4c-.7.8-.8 1.7-.3 2 .6.3 1.5-.1 2.1-.8.7-.8.8-1.7.3-2-.6-.3-1.5.1-2.1.8m570.4 7.7-9 9-210.8.3c-142.9.2-211.1.6-211.8 1.3-.8.8-.7 1.3.2 1.9.7.4 96 .9 211.8 1.1l210.6.4 3.8 3.7c2 2 3.7 4 3.7 4.5 0 .6-13.1.7-33.7.3-76.2-1.6-404.6-.5-406.6 1.4-.5.4-.5 1 0 1.3 2.8 1.7 307.8 2.8 393.9 1.4l50.1-.8 3 2.5c1.7 1.4 3.7 2.6 4.5 2.6 1.2 0 13.2-11.7 18.3-17.8l1.9-2.3-9.9-9.9c-5.5-5.5-10.2-10-10.5-9.9-.3 0-4.5 4.1-9.5 9m17 3.9 6.9 6.9-5.5 5.8c-9.9 10.7-8.8 10.5-16.9 2.1l-7-7.3 7.2-7.3c4-3.9 7.5-7.2 7.8-7.2s3.7 3.1 7.5 7m-1432.9 2.9c-1.4 2.2 91.4 94.8 93.6 93.5 1.7-1.1-4.7-7.9-45.2-48.4-41-41.1-47.3-46.9-48.4-45.1m1786.3 20.6c-21.4 20.5-68.1 68.5-70 71.7-.6 1.1-.6 1.9.1 2.3 1.1.7 44.6-42 74.3-72.8 13-13.5 18.7-20.1 18-20.8s-7.8 5.5-22.4 19.6m-1789.5 1c-.8 2 .2 72.1 1.1 73.5.8 1.3 71.5 1.8 73.6.4 1-.6-17.6-19.8-58-59.8-13.1-13-16.2-15.6-16.7-14.1m35.7 39.6c16.4 16.5 29.9 30.3 29.9 30.6 0 .7-58.9-.3-59.6-1-.8-.8-1.8-59.7-1-59.7.4 0 14.2 13.5 30.7 30.1m1774.3-39c-.3.5-.2 1.4.2 2.1.5.7.2.9-.9.5s-6.7 4.4-19.1 16.5c-9.7 9.3-17.3 17.4-17 17.9.3.6 1.1.5 2-.2.8-.6 1.4-.8 1.4-.4s.6.2 1.3-.4c.8-.6 1.6-.9 1.9-.6.6.6 28.8-27.3 28.8-28.6 0-.5.5-.9 1-.9.6 0 1 1.8 1 3.9 0 2.2.5 4.3 1 4.6.7.4.7 1.1.2 1.8-1.5 1.9-2.4 27.7-1.1 29.4.9 1 .9 1.7.1 2.5-1.5 1.5-1.6 5.5-.2 6.3.7.4.7 1.1.2 1.8-1.2 1.6-1.4 12.5-.2 13.2 1.9 1.1 2.8-3.3 2.9-13.5 0-5.8.3-19.8.7-31.1.4-15.1.3-20.9-.5-21.4-.9-.5-.9-1 0-2.1.6-.8 1-1.4.8-1.5-3.1-.6-4-.6-4.5.2m-1643.9 3.8c-.3.6.1 1.3.8 1.8.8.4 2.2 2.3 3.1 4.1 1.6 3.1 3.6 3.5 3.6.7 0-1.6-4.8-7.5-6-7.5-.5 0-1.1.4-1.5.9m-8 2.1c-1.3 1.4-1.5 2.4-.8 3.1s1.5.2 2.6-1.5c2.1-3.1.6-4.3-1.8-1.6m1593.6 51.4c-10.3 10.3-15.1 15.8-14.6 16.6 1 1.7 67.4.5 69-1.1.7-.7.4-1.5-.9-2.5-1.6-1.1-6.7-1.3-30.5-.8l-28.6.5 12.8-12.6c10.6-10.4 12.6-12.9 11.7-14.1-.7-.7-1.8-1.4-2.4-1.4s-8 6.9-16.5 15.4m56.5 13.5c-.4.5-.2 1.2.3 1.5.5.4 1.2.2 1.5-.3.4-.5.2-1.2-.3-1.5-.5-.4-1.2-.2-1.5.3"/></svg>