<svg xmlns="http://www.w3.org/2000/svg" width="10666.667" height="10666.667" viewBox="0 0 8000 8000"><path d="M3685 882c-93.6 3.3-180 10.2-271 21.5-372.6 46.6-734.7 166.7-1065 353.3-354.3 200.2-667.7 478.3-912.1 809.6-224.1 303.6-388.4 653.3-479.8 1021.1-43.3 174.7-70.5 355-80.6 535.5-3.5 63.5-4 83.1-4 167 0 83.8.5 104.8 4 166.5 19.2 340.5 96.5 668.9 231 982 165.7 385.8 411.2 728.1 726.5 1013.1 409.8 370.4 920.7 617.3 1464.8 707.9 121.8 20.2 229.6 31.3 366.2 37.6 37.2 1.7 154.3 2.3 197.5 1 425-12.7 822.3-110.7 1202.2-296.6 17.3-8.5 29.3-14.9 29.3-15.7 0-1.4-60.2-186.5-61.9-190.4-.9-2-2.5-1.3-31.8 13.4-118.8 59.8-233.5 107.7-356.8 149.2-36.2 12.1-91.4 29.5-92 28.9-.1-.2 6.7-7.8 15.2-16.9 125.4-133.5 240.7-299.5 341.6-491.5l12.6-24-45.2-138.3c-24.9-76.1-45.6-138.4-46.1-138.5s-4.2 7.4-8.3 16.8c-65.2 149.1-136.7 282-215.1 400.2-94.4 142.1-195 257.6-303.8 348.7-62.5 52.3-127.8 95.8-193.1 128.4l-17.8 9-31 3.1c-60.3 6-111.1 9.7-161.7 11.7l-16.8.7V5380.7l23.3.7c135 3.9 297.8 17.8 453.2 38.7 135.5 18.1 299 46.6 428 74.3 8.8 1.9 16.3 3.2 16.7 2.8.7-.7-69.5-216.9-70.9-218.3-.9-.9-67.7-13.6-114.3-21.8-226.3-39.8-435-63.9-640.5-74.1-35.1-1.7-69.4-3-81.2-3-6.1 0-11.8-.3-12.7-.6-1.5-.6-1.6-58.3-1.6-645V3890h1278v4.7c0 8.3-1.9 73.7-3 102.3-6.6 176.5-21.9 352.1-45.6 523-4.5 32.8-15.8 107.1-19.3 127.5-1.1 6-1.6 11.3-1.2 11.7 1.4 1.6 191.3 63 192.1 62.1.8-.8 10.1-55.8 16.9-100.8 34.8-227.4 55-460.9 60.7-701.8l.7-28.7h1126l-.6 18.9c-2.5 70.3-10.9 165.7-21.8 247.1-38.7 289-127.4 578.3-256.8 836.9-7.7 15.3-12.9 26.7-12.4 27.2 1.4 1.4 190.6 63 191.9 62.5.6-.2 7.5-13.8 15.4-30.2 165.8-345.3 260.9-713.1 282.5-1091.9 3.2-56.7 3.6-72.2 4.2-147 .5-77.9-.2-117.1-3.3-177-12.5-243-55-481.2-126.9-712-154.3-494.7-435.6-935.7-820.6-1286.5-274.3-250-589.7-442.8-937.4-573.3-223.9-84-457.8-139.9-695.5-166.2-66.5-7.3-120-11.4-203.5-15.6-26.6-1.3-186.3-2-217.5-.9m-4 759.6v557.7l-21.2-.7c-243.8-7.8-506.8-39.1-788.2-93.7-59.5-11.6-163.5-33.5-164.9-34.8-1.2-1.2 14.4-39.6 37-91.1 140.6-320 314.7-571.8 509.8-737.3 64.6-54.9 137.8-103.7 204-136.2l13-6.3 24.5-2.6c59.3-6.2 140.6-12 174.3-12.5l11.7-.1zm236-556.6c50.3 2.6 99.6 6.4 150 11.5l24.5 2.5 16 8c132.8 65.8 264.8 176.7 385 323.6 136 166 257.4 377.6 358.3 624.6l6 14.6-2.4.6c-7.8 2-58.2 12.8-95.4 20.5-302.3 62.3-590.8 98.6-856.7 107.7l-20.3.7V1084h7.8c4.2 0 16.5.5 27.2 1m-909.6 112.2c-44.6 46.9-82.7 91.1-123.1 142.8-138.3 177.4-262.2 398.8-363 649-7.4 18.4-13.6 33.6-13.8 33.8-.5.6-106-27.2-162.5-42.9-90.5-25.2-195.9-56.5-285.5-85-43.3-13.8-159.5-52.3-159.5-52.9 0-1.6 63.8-60.6 98-90.6 271.8-238.3 591-420.8 934-534.1 19.1-6.3 78.5-25.1 80-25.2.2-.1-1.8 2.3-4.6 5.1m1572.1 3.9c49.1 15 117.9 38.8 168.5 58.2 301.5 115.7 576.4 281.6 817 492.9 45.4 39.9 97.6 88.6 96.3 89.8-1 1-110.9 37.4-156.3 51.9-122.7 39-249.2 76-367.5 107.5-39.8 10.6-82.8 21.6-83.1 21.3 0-.1-2-5.2-4.4-11.2-6.6-17.1-25.8-63.8-35.8-87-125.1-291.9-276.6-533.5-449.6-716.9-12-12.7-13.6-14.8-11.1-14.2 1.7.4 13.4 3.9 26 7.7m-2816.9 806.5c199.3 70 433.9 142 630.9 193.4 48.2 12.6 45.8 11.9 45.1 13.6-1.7 4.4-19.7 60.8-27 84.4-118.8 386.4-189.7 821.7-207.1 1270.5-1.2 32.5-3.5 106.9-3.5 116.7v2.8H1075v-5.8c0-14.7 4.2-83.1 7.5-123.2 32.7-391.6 149.9-768.7 345.5-1112 78.3-137.3 170-269.2 273-392.5 13.6-16.3 44.3-52.3 45.6-53.4 0-.1 7.2 2.4 16 5.5m4075.6 20.6q291.15 339.9 457.8 754.8c93.1 231.9 153.6 477.2 178.9 725.5 5.5 53.2 10.2 119.1 11.7 161.2l.7 19.3H5361v-8.8c0-11.5-1.7-70.7-3-104.7-18.3-475.5-94.3-926-224.5-1331-5.3-16.5-9.8-30.4-9.8-30.9-.3-1.1-.2-1.2 39.8-11.6 120.2-31.3 267.8-74.1 391-113.1 76.6-24.4 195.5-64 245-81.7 7.7-2.8 14.5-5.1 15.1-5.1.6-.1 11.2 11.7 23.6 26.1M2716 2278.1c277.6 59.6 551.2 98.9 800.5 114.8 52.6 3.4 133.1 7.1 154.1 7.1h10.4v1289H2401.9l.5-12.8c.3-7 .8-23.5 1.1-36.7 1.7-72.5 6.8-174.8 13-257.5 28.9-385.5 99.6-756.6 206.2-1083.1l12.6-38.5 21.6 4.8c11.9 2.7 38.5 8.5 59.1 12.9m2219.9 9.1c120.6 364.9 196.5 792 218 1227.8 2.7 54.2 6.1 147.5 6.1 169.7v4.3H3882V2400.3l24.3-.7c199.9-5.6 439.1-30.6 671.4-70.1 106.2-18.1 247.4-46 330.8-65.4 9.4-2.2 17.3-4 17.7-4 .4-.1 4.7 12.2 9.7 27.1M2201.4 3911.7c2 69.4 2.8 92.3 4.1 123.8 18.5 428.9 86.2 845.6 198.1 1219 8.1 26.7 27.3 88.2 32.4 102.9 1.6 5 2.7 9.3 2.3 9.6-.5.4-7.3 2.4-15.3 4.4-198.7 51.1-431.5 121.7-639.9 194.1-20 6.9-36.4 12.5-36.6 12.3-.1-.2-6-7.1-13.2-15.3-400.6-462.1-633.2-1047.3-657.9-1655.8l-.7-16.7h1126.1zM3681 4534.5v644.4l-3.2.5c-1.8.3-13.9.8-26.8 1.1s-37.9 1.2-55.5 2c-281.1 13.1-580.6 54.4-902.8 124.6-20.4 4.4-41.7 9.1-47.2 10.4s-10 2.3-10.1 2.2-4.2-12.6-9.2-27.7c-130.8-396.5-208.9-865.9-222.2-1334-.5-19.5-1.2-42.8-1.5-51.8l-.5-16.2h1279zm0 1404V6496h-6.2c-26.5 0-113.4-6.1-173.3-12.1l-31-3.1-15.8-7.9c-109.8-55-216.3-137.6-317.6-246.4-152.6-163.9-289.9-384.6-402.6-647-17.8-41.4-28.7-68.4-28.1-69.4.3-.5 2-1.1 3.8-1.4s18.8-4 37.8-8.1c241.3-52.4 492.4-90.3 715-108.1 72-5.7 166-10.9 204.3-11.3l13.7-.2zm-1166.5-364.3c39.8 100.3 89.6 209.2 136.7 299.3 103.2 196.9 217.1 360.9 346.6 499 7.2 7.6 13 14.1 12.8 14.3-.3.2-10.9-2.9-23.8-6.8-402.7-123.9-771.8-340.3-1074.6-630.2l-12.4-11.8 2.9-1.1c1.5-.6 25.8-8.8 53.8-18.1 144.8-48.1 285.4-90.7 425-128.7 47.5-12.9 123-32.9 125.1-33 .6-.1 4.1 7.7 7.9 17.1"/><path d="M4727.5 4668.1c-17.3 2.9-34.7 14.9-43.3 30.1-7.5 13.2-9.9 29.5-6.4 43.3 4.1 16.3 763.3 2338.1 766.9 2345.5 7 14.4 22.1 26.2 38.8 30.5 7.6 1.9 22.4 1.9 30 0 3.3-.8 9.4-3.2 13.5-5.2 9.1-4.4 20-15 24.7-23.8 1.7-3.3 94.1-251.9 205.2-552.5 111.2-300.6 204-550.3 206.3-554.9 4.9-10.2 15-20.9 24.3-25.8 3.3-1.7 253-94.5 554.9-206.2s551.6-204.6 555-206.4 9.2-6.3 13.2-10.2c12.5-12.4 18.2-27.9 17.1-46.4-1.4-24.3-15.5-44.2-37.7-52.9-11.6-4.6-2337.8-764.1-2343.4-765.1-6.7-1.2-11.8-1.2-19.1 0"/></svg>