<svg xmlns="http://www.w3.org/2000/svg" width="7333.333" height="7333.333" viewBox="0 0 5500 5500"><path d="M2678 457c-28.1 3.6-52.9 27.2-62.6 59.6-3.8 12.7-4.5 33.2-1.6 45.4 6.1 25.6 23.4 52.2 53.2 82 20.9 21 48.6 43.5 74.3 60.5l8.7 5.8 8.8-5.8c25.6-17 53.3-39.5 74.2-60.5 29.8-29.8 47.1-56.4 53.2-82 2.9-12.2 2.2-32.7-1.6-45.4-14.9-49.7-62.6-74.1-100.4-51.4-11.1 6.8-24.5 21.3-31.2 34.1-1.4 2.6-2.8 4.7-3.1 4.7s-1.1-1.2-1.8-2.8c-2.4-5.1-10.4-16.4-15.9-22.4-15.1-16.3-35-24.3-54.2-21.8M1389.3 574c-4 2.4-5.3 4.8-5.3 9.8s2.9 8.8 7.8 10.2c2.6.8 180 1 599.5.8l595.9-.3 3.4-3.7c5.2-5.8 4-13.9-2.6-17.3-2.6-1.3-68.1-1.5-599.2-1.5-588.7 0-596.3 0-599.5 2m1522.5-.4c-3.3 1.8-5.8 6.2-5.8 10.4 0 2.1 1.1 4.2 3.4 6.8l3.4 3.7 595.9.3c419.5.2 596.9 0 599.5-.8 5-1.4 7.8-5.2 7.8-10.4 0-4.8-1.9-8-6-10.1-2.6-1.3-72.1-1.5-599.2-1.5-525.5.1-596.6.3-599 1.6m-882.7 526.9c-3.7 3.2-4.8 6.7-5.5 18-.9 15.7-7.3 33.1-18.5 50-7.3 11-24.7 27.8-38.1 36.8-25 16.6-53.2 27.2-86.3 32.3-15.8 2.5-51.8 2.5-67.7.1-24-3.7-44.1-9.9-64.7-19.7-6.8-3.2-12.4-5.5-12.7-5.2-.2.4-1.8 5.4-3.6 11.2-4.2 13.6-7.7 21.4-14.5 31.5-24.3 36.6-70.5 62.6-126.5 71.2-15.9 2.4-49.9 2.4-66.5-.1-42.8-6.3-80.6-23.4-106.8-48.5-22.1-21.1-33.9-43.5-37-70.1l-1.2-10.5h-21l-.3 5.9c-.9 17.4 8.4 45.3 21.6 64.7 27.9 41.1 76.8 69.8 136.6 80 17.2 3 52.1 3.7 71 1.5 71.7-8.3 132.4-45.9 157.6-97.3l4.3-9 9 3.4c18.1 6.8 40.4 12.1 60.2 14.3 23.8 2.6 57.4.9 81.5-4.1 64.5-13.3 117.4-52.5 137.8-101.9 3.7-9.1 7-21.4 7.9-29.3l.6-5.7h619.9l3.4-3.4c2.8-2.8 3.4-4.2 3.4-7.6s-.6-4.8-3.4-7.6l-3.4-3.4h-634zm801.3.9c-2.8 2.8-3.4 4.2-3.4 7.6s.6 4.8 3.4 7.6l3.4 3.4H3454v3.2c0 1.8.9 7.3 2 12.1 12.7 57.7 70.4 106.4 144 121.6 24.2 5.1 57.7 6.7 81.5 4.1 19.8-2.2 42.2-7.5 60.2-14.3l9-3.4 4.1 8.7c14.4 29.8 41.8 56 77.2 73.8 24.9 12.6 51.7 20.5 80.6 23.8 18.9 2.2 53.8 1.5 71-1.5 59.8-10.2 108.7-38.9 136.6-80 13.2-19.4 22.5-47.3 21.6-64.7l-.3-5.9h-21l-1.2 10.5c-3.1 26.6-14.9 49-37 70.1-26.2 25.1-64 42.2-106.8 48.5-16.6 2.5-50.6 2.5-66.5.1-60-9.2-108.1-38.1-131.4-79.1-2.5-4.3-6.3-13.5-8.6-20.5-2.2-6.9-4.2-13.1-4.5-13.8-.3-.8-4.5.8-12.7 4.7-20.7 9.8-40.8 16-64.8 19.7-15.9 2.4-51.9 2.4-67.7-.1-33.1-5.1-61.3-15.7-86.3-32.3-13.4-9-30.8-25.8-38.1-36.8-11.2-16.9-17.6-34.3-18.5-50-.7-11.3-1.8-14.8-5.5-18l-3.1-2.5h-634zm-1355.9 627.7c-8.8 1.3-15.9 3.6-24.4 7.9-47.1 23.6-66.6 86.1-42.6 136.7 11.6 24.7 29.4 41.1 53.6 49.5l9.4 3.3 577 .3c421.7.2 577.7-.1 579.7-.9 3.7-1.5 6.1-5.5 6.1-10.2 0-3-.7-4.6-3.2-7l-3.1-3.2-575.8-.5-575.7-.5-7.8-2.8q-25.95-9.15-38.7-35.1c-7.5-15.1-8.5-20.1-8.4-39.6 0-15.3.2-17.1 2.8-25 6.8-21 19.2-36.2 36.2-44.8 7.4-3.7 16.5-6.2 22.9-6.2 11.3 0 17.5-8.2 12.9-17.1-2.7-5.4-8.2-6.6-20.9-4.8m2534.8.3c-1.7.8-3.9 2.8-4.7 4.5-4.6 8.9 1.6 17.1 12.9 17.1 6.4 0 15.5 2.5 22.9 6.2 17.1 8.6 29.5 24 36.1 44.8 4 12.5 4.7 32 1.5 45.6-6 26.2-22.8 46-45.7 54.1l-7.8 2.8-575.7.5-575.8.5-3.1 3.2c-2.5 2.4-3.2 4-3.2 7 0 4.7 2.4 8.7 6.1 10.2 2 .8 158 1.1 579.7.9l577-.3 9.4-3.3c24.2-8.4 42-24.8 53.6-49.5 24-50.8 4.5-113.1-42.9-136.9-13.5-6.8-33.5-10.5-40.3-7.4M2737.1 1801c-15.3 2.2-33 10-45.8 20.3-14.2 11.4-26.6 30.4-31.5 48.2-3 11-3.2 35.6-.4 45.9 8.5 31.6 32.2 56.9 62.1 66.5 51.1 16.5 104.8-13.5 119.1-66.5 2.8-10.3 2.6-34.9-.4-45.9-9-32.7-36.5-59.2-69.3-67-8.1-1.9-25.5-2.7-33.8-1.5m30.3 24c21 5.3 39.4 21.1 47.7 40.9 11.1 26.4 4.9 57.5-15.5 77.6-8.4 8.2-17.1 13.5-28.1 17.2-7.1 2.4-9.5 2.7-21.5 2.7s-14.4-.3-21.5-2.7c-11-3.7-19.7-9-28.1-17.2-11.6-11.4-18.3-25.3-20.5-42.4-2.1-16.4 2.6-34.6 12.5-48.5 9.4-13.2 24.3-23.5 39.8-27.6 10-2.6 25-2.6 35.2 0m-37.4 685c-37.4 2.3-75.8 11.8-102.6 25.3-18.4 9.3-36.5 24.4-45.1 37.6-3.4 5.2-6.8 12.8-8.9 19.8-.3 1-112.3 1.3-555.8 1.3h-555.4l-2.2-6.4c-7.9-23.8-33.4-40.6-58-38.1-8.1.8-18.5 4.3-24.9 8.4-7 4.6-16.4 14.8-20 21.9-4.3 8.5-6.1 16.1-6.1 25.7 0 16 5.7 29.2 17.5 40.4 15.6 14.8 36.3 19.6 55.9 13 16.4-5.6 30.3-19.3 35.6-35.5l2.2-6.4h555.4c443.5 0 555.5.3 555.8 1.2 4 13.5 9.9 23.2 20.7 33.9 24.7 24.5 66.7 41.2 119.4 47.5 16.7 1.9 53.9 2.2 69.5.5 54.3-6 97.9-23.1 123.1-48.1 10.6-10.5 16.5-20.4 20.5-33.8.3-.9 112.3-1.2 555.8-1.2h555.4l2.2 6.4c5.3 16.2 19.2 29.9 35.6 35.5 19.6 6.6 40.3 1.8 55.9-13 22.7-21.6 23.7-56.3 2.2-78.6-3.3-3.5-8.2-7.7-10.8-9.4-6.4-4.1-16.8-7.6-24.9-8.4-24.6-2.5-50.1 14.3-58 38.1l-2.2 6.4h-555.4c-443.5 0-555.5-.3-555.8-1.3-4-13.4-9.9-23.1-20.7-33.8-33.9-33.7-104.4-53.3-175.9-48.9m62.5 24.9c27.6 4.2 48.6 10.2 67 19.1 13.1 6.3 21.4 11.8 29.3 19.4 6.4 6 14.2 16.6 14.2 19.3 0 1-2.2 1.3-9.5 1.3-14.2 0-19.5 3.2-19.5 11.5s5.3 11.5 19.5 11.5c7.3 0 9.5.3 9.5 1.3 0 2.4-7.5 13.1-13.1 18.5-19.1 18.8-56.7 33.9-98.9 39.7-16.4 2.3-48.8 3-66.1 1.6-48.8-4.2-90.4-18.8-112.7-39.6-7.2-6.7-15.2-17.3-15.2-20.2 0-1 2.2-1.3 9.5-1.3 14.2 0 19.5-3.2 19.5-11.5s-5.3-11.5-19.5-11.5c-7.3 0-9.5-.3-9.5-1.3 0-2.9 8-13.5 15.2-20.2 21.5-20 62.2-34.7 109.3-39.5 15.1-1.5 56-.4 71 1.9m-172 515.3c-.3.7-.4 32.6-.3 70.8l.3 69.5h22v-141l-10.8-.3c-8-.2-10.9.1-11.2 1m79 0c-.3.7-.4 32.6-.3 70.8l.3 69.5h22v-141l-10.8-.3c-8-.2-10.9.1-11.2 1m79 0c-.3.7-.4 32.6-.3 70.8l.3 69.5h22v-141l-10.8-.3c-8-.2-10.9.1-11.2 1m79 0c-.3.7-.4 32.6-.3 70.8l.3 69.5h22v-141l-10.8-.3c-8-.2-10.9.1-11.2 1M1389.3 3122c-4 2.4-5.3 4.8-5.3 9.8s2.9 8.8 7.8 10.2c2.6.8 180.1 1 599.5.8l595.9-.3 3.4-3.7c5.4-6 4.1-13.8-3-17.2-3.1-1.5-49.8-1.6-599.3-1.6-588.2 0-595.8 0-599 2m1522.9-.3c-6.9 3.4-8.2 11.2-2.8 17.1l3.4 3.7 595.9.3c419.4.2 596.9 0 599.5-.8 5-1.4 7.8-5.2 7.8-10.4 0-4.8-1.9-8-6-10.1-2.6-1.3-72-1.5-598.7-1.5-548.3 0-596.1.2-599.1 1.7M2739 3627.1c-18.1 8.2-22.8 31.1-9.2 45.3 5.4 5.7 12.3 8.6 20.2 8.6 25.2 0 37.6-30.8 19.4-48.2-5.7-5.4-11.6-7.8-19.4-7.8-4.4 0-8 .7-11 2.1m628.5-1.4c-160 2.1-313.2 6.8-484.5 14.9-19 .8-35.1 1.8-35.9 2-4.9 1.5 4.9 2.6 39.4 4.4 123.6 6.3 264.7 10.9 434 14.2 79.2 1.5 338.4 1.5 418 0 169.3-3.3 301.1-7.6 433.5-14.2 35-1.8 44.8-2.9 39.9-4.4-1.5-.5-43.3-2.5-114.9-5.6-121.7-5.2-249.9-8.9-384.5-11-53.3-.8-290.4-1.1-345-.3m-1506 18c-71.5.5-190.5 2.8-276 5.3-115 3.4-295.1 11-297.7 12.6-2.3 1.5 1.4 2.2 14.9 2.8 8.1.4 28.3 1.3 44.8 2.1 133.3 6.5 284.7 11.1 445 13.6 83.9 1.3 353.8.7 426-1 107.9-2.5 184.4-4.7 260-7.6 72.1-2.8 173.3-7.5 175.4-8.1 4.7-1.5-4.8-2.5-40.9-4.3-232.8-11.8-502-17.3-751.5-15.4m873.6 401.9c-19.6 5.2-36.3 21.4-42.3 40.9-2.6 8.2-3 22-.9 30.5 4.8 19.9 20.6 36.7 41.1 43.6 4.1 1.4 8.4 1.9 17 1.9 17.8 0 29.3-4.8 42-17.5 12.1-12 17.5-25.2 17.4-42.5-.2-26.5-18.8-50.2-44.9-57-7.4-1.9-22.2-1.9-29.4.1m-1578.6 38.2c-4.3 2-10.1 7.9-11.6 11.9-1.6 4.2-1.1 13.1 1 17.1 5.7 11.1 17.8 15.1 28.9 9.6 14.8-7.4 16-27.4 2.2-36.9-5.5-3.8-14.5-4.5-20.5-1.7m112.5-.5c-10.5 4.9-15.8 15.3-13 25.5 1.4 5.3 7.2 11.9 12.5 14.3 15.5 7.1 33-7.3 29.4-24.2-1.3-5.8-6.8-12.5-12.3-15-4.6-2.1-12.8-2.4-16.6-.6m110.3.8c-8.5 4.2-12.8 12-12 21.2.6 7 3.9 12.5 9.9 16.4 3.6 2.4 5.2 2.8 11.3 2.8s7.7-.4 11.3-2.8c11.3-7.5 13.6-22.5 4.9-32.4-6.3-7.2-17.1-9.3-25.4-5.2m112.7-.6c-14.7 6.6-17.6 25.7-5.6 36.2 13 11.5 34 2.6 35.4-15.1.5-6.7-3.5-14.8-9.6-19-5.2-3.7-14.5-4.6-20.2-2.1m109.8 1.3c-13.3 7.7-15.5 23.5-4.6 33.9 9.3 8.9 22.6 8.2 31-1.7 7.4-8.6 7-20.5-.9-28.2-7.6-7.4-17.2-8.9-25.5-4m112.4-.7c-7.4 3.7-12.2 11.5-12.2 20 0 4.9 4.2 13.2 8.1 16.1 14.8 11 34.9 1.4 34.9-16.7 0-15.9-16.7-26.4-30.8-19.4m112.3-.2c-17.2 7.9-16.4 32.4 1.2 39.8 6.3 2.6 14.8 1.3 20.9-3.3 3.9-2.9 8.4-11.6 8.4-16.2 0-16-16.3-26.9-30.5-20.3m112 0c-5.8 2.6-11 8.8-12.5 14.9-3 12.9 7.6 26.2 21 26.2 12.6 0 23.3-12.4 21.4-24.7-2-13.6-17.5-22.1-29.9-16.4m112.5-.8c-8.4 3.4-14.6 13.2-13.8 21.9 1.7 17.4 22.5 26.1 35.4 14.7 12.1-10.6 9-30-5.8-36.1-4.2-1.8-12-2-15.8-.5m110.5.7c-15.5 7.2-16.8 28.4-2.3 37.9 3.6 2.4 5.2 2.8 11.3 2.8s7.7-.4 11.3-2.8c2.3-1.5 5.4-4.6 6.9-6.9 2.4-3.6 2.8-5.2 2.8-11.3s-.4-7.7-2.8-11.3c-4.1-6.3-9.7-9.6-17.1-9.9-4.4-.3-7.2.2-10.1 1.5m111.9.1c-12.9 5.9-16.8 22.4-7.6 33.1 8.9 10.5 23 10.6 32.4.2 15.1-16.8-4.1-42.7-24.8-33.3m113.6-1.2c-4 1.4-9.4 6.1-11.8 10.2-5.8 9.9-2.4 23 7.4 28.7 11.2 6.6 24.6 2.7 30.5-8.7 2.1-4.1 2.6-13 1-17.2-1.6-4-7.3-9.9-11.6-11.8-3.8-1.8-12.2-2.4-15.5-1.2m109.3 1.3c-15.4 7.8-16.5 28.2-2.1 37.7 3.6 2.4 5.2 2.8 11.3 2.8s7.7-.4 11.3-2.8c2.3-1.5 5.4-4.6 6.9-6.9 2.4-3.6 2.8-5.2 2.8-11.3s-.4-7.7-2.8-11.3c-4.1-6.3-9.7-9.6-17.1-10-4.8-.2-7 .2-10.3 1.8m112.7-.5c-14.7 6.6-17.6 25.7-5.6 36.2 13 11.5 33.5 2.8 35.3-14.9.4-4.5.1-6.1-2.4-10.8-4.1-7.7-9.4-11.3-17.6-11.7-4.1-.2-7.4.2-9.7 1.2m277 .1c-5.6 2.4-10.9 8.2-12.5 13.9-5.1 17 12.9 33 29 25.6 5.3-2.4 11.1-9 12.5-14.2 4.5-16.6-13.3-32.1-29-25.3m99.3.4c-15.4 7.8-16.5 28.2-2.1 37.7 3.6 2.4 5.2 2.8 11.3 2.8s7.7-.4 11.3-2.8c2.3-1.5 5.4-4.6 6.9-6.9 2.4-3.6 2.8-5.2 2.8-11.3s-.4-7.7-2.8-11.3c-4.1-6.3-9.7-9.6-17.1-10-4.8-.2-7 .2-10.3 1.8m112.2-.2c-4.3 2-10.1 7.9-11.6 11.9-1.6 4.2-1.1 13.1 1 17.2 5.9 11.4 19.3 15.3 30.5 8.7 13.3-7.8 13.6-27.6.4-36.3-5.3-3.6-14.4-4.2-20.3-1.5m112.5-.5c-10.5 4.9-15.8 15.3-13 25.5 1.4 5.3 7.2 11.9 12.5 14.3 15.5 7.1 33-7.4 29.4-24.2-1.2-5.8-6.8-12.5-12.3-15-4.6-2.1-12.8-2.4-16.6-.6m110.3.8c-8.5 4.2-12.8 12-12 21.2.6 7 3.9 12.5 9.9 16.4 3.6 2.4 5.2 2.8 11.3 2.8s7.7-.4 11.3-2.8c11.3-7.5 13.6-22.5 4.9-32.4-6.3-7.2-17.1-9.3-25.4-5.2m112.7-.6c-14.7 6.6-17.6 25.7-5.6 36.2 13 11.5 34 2.6 35.4-15.1.5-6.9-3.5-14.9-9.6-19-5.2-3.7-14.5-4.6-20.2-2.1m109.7 1.3c-12.6 7.2-15 23.6-5 33.4 9.3 9.1 21.3 9.1 30.6 0 17.2-16.8-4.7-45.4-25.6-33.4m112.5-.7c-7.4 3.7-12.2 11.5-12.2 20.1 0 4.6 4.5 13.3 8.4 16.2 14.5 10.8 34.6 1 34.6-16.9 0-15.9-16.7-26.4-30.8-19.4m112.3-.2c-17.2 7.9-16.4 32.4 1.2 39.8 6.4 2.6 14.8 1.3 21.2-3.5 3.9-2.9 8.1-11.2 8.1-16.1 0-15.9-16.3-26.8-30.5-20.2m112 0c-5.8 2.6-11 8.8-12.5 14.9-3.9 16.3 13.4 31.1 28.8 24.6 4.2-1.7 9.7-6.7 11.7-10.4 8.9-17.3-10.2-37.2-28-29.1m110.6.3c-4.7 2.3-9.3 7.9-11.2 13.5-2.7 8.3 1.7 19.2 9.7 23.9 14.8 8.7 32.4-1.2 32.4-18.1 0-16-16.6-26.4-30.9-19.3m112.4-.4c-15.5 7.2-16.8 28.4-2.3 37.9 3.6 2.4 5.2 2.8 11.3 2.8s7.7-.4 11.3-2.8c2.3-1.5 5.4-4.6 6.9-6.9 2.4-3.6 2.8-5.2 2.8-11.3s-.4-7.7-2.8-11.3c-4.1-6.3-9.7-9.6-17.1-9.9-4.4-.3-7.2.2-10.1 1.5m111.9.1c-8.5 3.9-14.4 14.7-12.5 23.1 4.2 18.4 24.8 24 37.3 10.2 15.2-16.8-4-42.7-24.8-33.3m113.6-1.2c-6.5 2.3-13 10-14.5 17.1-1.8 8.6 3.3 18.4 11.7 22.6 11.1 5.5 23.2 1.5 28.9-9.6 2.1-4 2.6-12.9 1-17.1-1.6-4-7.3-9.9-11.6-11.8-3.8-1.8-12.2-2.4-15.5-1.2m-1772.7 307.2c-3.9 2.5-5.3 4.9-5.3 9.6 0 7.6 5.5 11.5 16.3 11.5 14.5 0 34.7 5.6 47.3 13.1 9.1 5.4 18.8 15.5 22.6 23.5 3 6.2 3.3 7.8 3.3 15.9 0 8-.3 9.7-3.2 15.7-7.9 16.7-27.5 29.7-52.8 34.9-8.7 1.8-26.7 1.9-592.1 1.9-388.9 0-587.3.3-595.7 1-29.9 2.4-53.6 12.6-71.2 30.4-14.2 14.3-19.9 27.1-19.9 44.6 0 24.3 14.1 45.2 40.8 60.4 14.8 8.5 38.5 14.6 56.4 14.6 8.2 0 8.5-.1 11.8-3.4 2.8-2.8 3.4-4.2 3.4-7.6s-.6-4.8-3.4-7.6-4.1-3.4-7.8-3.4c-7.8 0-22.2-2.2-30.8-4.7-28.3-8.1-46.5-25.6-47.8-45.9-.6-9.1 1.5-16.4 7.1-24.6 8.2-12 24.6-22.2 44.2-27.6l10-2.7 595.5-.5 595.5-.5 9-2.2c45.3-10.7 73.9-38.9 73.9-72.8 0-39.6-40.4-71.9-94-75.1-8.8-.5-10.2-.3-13.1 1.5m367.2-.8c-41.8 5.4-73.9 28.3-83.1 59.4-2.4 8-2.4 22 0 30 8.3 28.1 34.2 48.9 72.1 57.8l9 2.2 595.5.5 595.5.5 10 2.7c19.6 5.4 36 15.6 44.2 27.6 18.6 27.3.5 58.6-40.7 70.5-8.6 2.5-23 4.7-30.8 4.7-3.7 0-5 .6-7.8 3.4s-3.4 4.2-3.4 7.6.6 4.8 3.4 7.6c3.3 3.3 3.6 3.4 11.8 3.4 17.9 0 41.6-6.1 56.4-14.6 26.7-15.2 40.8-36.1 40.8-60.4 0-17.5-5.7-30.3-19.9-44.6-17.6-17.8-41.3-28-71.2-30.4-8.4-.7-206.8-1-595.7-1-565.4 0-583.4-.1-592.1-1.9-25.3-5.2-44.9-18.2-52.8-34.9-2.9-6-3.2-7.7-3.2-15.7 0-8.1.3-9.7 3.3-15.9 3.8-8 13.5-18.1 22.6-23.5 12.6-7.5 32.8-13.1 47.3-13.1 10.9 0 16.3-3.9 16.3-11.7 0-10-7.4-12.7-27.5-10.2m-179 468.1c-1.4 1.3-4.7 5.8-7.3 10-9.8 16.2-18 26.6-31.7 40.4-14.6 14.7-26.1 23.8-40.7 32.5-11.3 6.7-13.3 8.9-13.3 14.4s2.1 7.8 12.4 13.8c14.6 8.6 25.7 17.3 40.2 31.7 15.3 15.2 23.4 25.3 32.6 40.8 6.5 10.8 9.1 13.2 14.3 13.2s7.8-2.4 14.3-13.2c9.2-15.5 17.3-25.6 32.6-40.8 14.5-14.4 25.6-23.1 40.2-31.7 10.3-6 12.4-8.3 12.4-13.8s-2-7.7-13.3-14.4c-28.1-16.7-54.4-43.1-72.4-72.9-5.9-9.7-8.7-12.2-13.8-12.2-2.6 0-4.8.7-6.5 2.2m8.4 33c11.1 18 37.5 45 57.6 59l7.4 5.1-5.7 4.1c-18.2 12.8-38.9 32.7-51.4 49.3-4.2 5.5-8.1 10.9-8.7 12-1.1 1.7-1.1 1.7-2.2 0-.6-1.1-4.5-6.5-8.7-12-12.5-16.6-33.2-36.5-51.4-49.3l-5.7-4.1 7.4-5.1c20.1-14 46.5-41 57.6-59 .8-1.2 1.6-2.2 1.9-2.2s1.1 1 1.9 2.2m-1514.3 9.4c-10 2.4-18.4 7.2-26.1 14.9-11.6 11.6-16.9 24.1-16.9 40 0 15.6 5.3 28.4 16.5 39.6 18.6 18.8 47.7 22.1 69.7 8 10.7-6.9 20.7-19.9 24.2-31.9l1.3-4.2h653.6c620.3 0 653.8-.1 657.1-1.8 4.9-2.4 7.6-8 6.1-12.5-.7-1.9-2.3-4.5-3.7-5.8l-2.6-2.4-655.2-.3-655.3-.2-1.2-4.3c-8.5-28.5-38.7-46.1-67.5-39.1m19 21.5c11.5 2.1 20.2 8.9 25.2 19.8 2.1 4.5 2.6 7.1 2.7 13.6 0 7.1-.4 8.8-3.3 14.7-4 8.1-10.2 13.9-18.1 16.9s-20.4 2.4-27.6-1.3c-6.1-3.2-12.9-10.3-15.8-16.6-3.3-7.2-3.1-20.8.4-28.2 5.2-11 16.4-18.5 29.5-19.9.6-.1 3.7.4 7 1m2979-21.5c-18.3 4.4-35.2 20.6-40.7 39.1l-1.2 4.3-655.3.2-655.2.3-2.6 2.4c-1.4 1.3-3 3.9-3.7 5.8-1.5 4.5 1.2 10.1 6.1 12.5 3.3 1.7 36.8 1.8 657.1 1.8h653.6l1.3 4.2c3.5 12 13.5 25 24.2 31.9 22 14.1 51.1 10.8 69.7-8 11.2-11.2 16.5-24 16.5-39.6 0-15.9-5.3-28.4-16.9-40-13.9-13.9-33.8-19.5-52.9-14.9m27.9 24.3c7.4 3.5 13 8.9 16.4 16.1 3.5 7.4 3.7 21 .4 28.2-2.9 6.3-9.7 13.4-15.8 16.6-7.2 3.7-19.7 4.3-27.6 1.3s-14.1-8.8-18.1-16.9c-2.9-5.9-3.3-7.6-3.3-14.7.1-6.5.6-9.1 2.6-13.5 4.9-10.6 13.1-17.3 23.9-19.7 7.3-1.6 14.2-.8 21.5 2.6"/></svg>