<svg xmlns="http://www.w3.org/2000/svg" width="1440" height="1440" viewBox="0 0 1080 1080"><path d="M726.5 339.2c-4.2 2.3-8.8 7.6-12.6 14.5-2.2 3.9-4.5 7.5-5.2 8s-6.6 2.7-13.2 4.7c-12.8 4.1-32.2 13.2-42 19.8-19.9 13.5-34.1 31.8-30.6 39.5.9 2 1.7 2.4 4.8 2.1 3.4-.3 4.3-1.1 9.4-7.9 8.6-11.4 22.1-21 43.4-30.6 11.2-5.1 18.4-7.7 19.1-7.1.2.3-1.6 6.3-4.2 13.4-17.3 48.5-30.3 90.7-44.9 145.9-1.5 5.5-5.8 22.8-9.6 38.5s-8.1 33.4-9.6 39.3c-1.4 6-3.2 11.1-3.9 11.4-.7.2-4.1-.8-7.6-2.3-3.4-1.4-8-2.9-10-3.1-3.4-.5-3.9-.2-4.8 2.2-.7 2-.7 3.8 0 6.1 1.3 3.8 9.1 11.4 14.9 14.3 2.2 1.2 4.1 2.5 4.1 2.9 0 1.2-5.1 26.4-7 34.7-5.2 22.2-14.5 75.7-20 114.5-6.3 45-7.9 89-4 107.9 2.3 11.1 5.8 16.6 10.6 16.6 2.4 0 3.3-.7 5.2-4.6 1.9-3.8 2.5-7.7 3.8-24 2.2-29.3 6.9-64.7 13.5-101.9 6.3-35.9 7.4-42.1 9.4-51 .8-3.6 3.5-16.4 6-28.5 5.2-24.9 11.1-51.4 12.6-56.3 1.1-3.2 1.1-3.2 7.8-3.2 10.4 0 29.2-2.6 42-5.9 60.7-15.6 111.8-50.8 141.5-97.5 10-15.7 19.2-38.6 23.3-57.6 2.6-12.4 2.6-46.5-.1-56.5-5.4-20.2-13.5-34.4-28.1-49.1-11.9-11.9-18.8-16.6-33.5-22.7-16.2-6.6-23.1-7.8-47.3-8.4l-21.9-.6.7-3.1c1.9-8.9 1.8-10.6-.5-13.1-2.6-2.7-7.9-3.3-11.5-1.3m37.8 35.3c42.6 5.6 68.3 29.4 75.3 69.9 2.4 13.3 1.5 33.8-2 46.9-13.6 51.1-50.4 93.9-103.5 120.2-21.6 10.8-35.1 15.4-56.6 19.4-13 2.5-16.5 2.6-16.5.7 0-8.7 37.5-150.7 55.7-210.6 3.6-11.8 7.6-25.3 9-29.9 1.3-4.6 3.1-10.1 3.9-12.2 1.5-3.7 1.6-3.8 8.2-4.4 3.7-.4 7.2-.8 7.7-1 2.1-.7 7.5-.4 18.8 1m-211.8-14c-49.9 13-99.1 49.4-129.5 95.6-26.8 40.7-33.1 85.9-16.3 116.8 4.5 8.4 11.3 17.1 16.6 21.4 22.7 18.5 50.4 23.7 74.3 13.9 11.5-4.7 13.9-11 3.7-9.8-12.6 1.5-29.4 1.8-34 .7-20.2-5.1-36.7-21.5-41.8-41.6-1.9-7.5-2-27.7-.1-36.6 4.4-20.8 18.2-47.5 36.1-69.9 15.4-19.3 40-41.5 60-54.2 14.7-9.3 37.8-20.5 45.4-22 5.9-1.2 6.4-1.1 7.7.7 1.8 2.4 1.8 10.9 0 30-.8 8.2-2.2 24-3.1 35s-2.2 24.7-3 30.5-1.7 13.6-2 17.5c-.9 11.1-2.4 25-4 38-.9 6.6-2.7 21-4.1 32-4.8 38.6-10.1 77.5-13.4 98-1.1 6.6-2.4 15.8-3.1 20.5-.6 4.7-1.9 12.8-2.9 18s-2.4 13.1-3 17.5c-2.3 15.4-12.9 68.6-15.1 75.2-.7 2.4-1.8 3.5-3.7 3.9-26.9 5.8-78.4 26.6-104.9 42.5-50 29.8-85.5 66.6-99.7 103.2-6.9 17.9-8.8 27.3-9.3 46.4-.7 23.4 1.3 33.8 9.7 50.6 10 20 27.9 34.4 48.7 39.3 8.3 2 26.7 1.4 35.8-1.1 9.2-2.5 27.1-11.6 36.1-18.4 30.1-22.5 58.7-67.4 80.4-126.1 5.1-13.9 11.7-33.2 13-38 .5-1.9 1.8-6.7 3-10.5 5-16.7 17.1-63.7 18.4-71 2-11.3 1.9-11.2 12.5-14.5 14.4-4.4 18.6-7.7 14.6-11-1.2-1-4.2-1.1-11.5-.7-5.5.3-10 .3-10-.1s.7-3.5 1.5-7c1.9-7.9 6.1-31.5 11.5-64.2 2.2-13.3 7.1-45.9 8.5-56.5 1.7-13 2.9-20.5 5.1-34 .9-5.5 2.4-16.8 3.5-25 1-8.3 2.5-20 3.3-26 4.3-31.4 7.2-63.1 10.1-113.2 2.2-37.9 1.7-64.9-1.6-81.1-1.2-6.2-6-12.2-12-15.3-5.6-2.8-19.5-2.5-31.4.6m-39.9 461.6c-7.2 27.7-8.8 33.8-13.2 48.1-27.5 90.7-60.6 151.2-95.6 174.5-12.1 8.1-17.3 9.7-30.3 9.8-10.2 0-11.5-.2-17-2.9-9.2-4.5-19.2-15.1-24.3-25.6-5.9-12.3-7.4-19.3-7.6-34-.1-14.8 1.4-23.9 6.1-37.5 12.3-35.3 36-64.2 77.3-94 19.2-13.9 50-30.8 74.5-41 13.8-5.8 33-12.4 33.3-11.5.1.4-1.3 6.8-3.2 14.1"/><path d="M82.7 392c-20.1 3.6-38.7 13.1-53.5 27.4-14.3 13.8-21.5 28.5-23.7 48.1-.7 7 1.5 22.7 4.5 31.3 3.2 8.9 10.9 20.9 17.6 27.1C39.5 536.9 51 542 66 542.8c11.3.5 18.7-.8 26.8-4.9 7.3-3.6 16.5-12.9 16-16.2-.5-3.4-4-3.2-11 .7-6.5 3.6-17.2 6.6-23.5 6.6-5 0-14.8-2.7-20.6-5.7-2.8-1.4-7.5-4.8-10.5-7.7-10.8-10.1-16-21.7-16.9-37.6-1-17.8 4.7-31.3 18.6-44.2 17.8-16.4 39.2-23.2 65.5-20.8 12.6 1.2 19.7 2.9 30.2 7.1 29.1 11.5 56.4 31.4 94 68.5 29.9 29.5 82.7 89.6 118.4 134.8 5.6 7.1 23 27.3 25.8 29.9 4.6 4.4 4.8 1.6.5-6.5-9.8-18.8-60.2-90-86.2-121.8-49.7-60.9-92-99.4-130.7-118.9-11-5.6-17.6-8.1-30.9-11.8-7.7-2.1-11.5-2.6-26.5-2.8-9.6-.2-19.7 0-22.3.5"/><path d="M70.4 460.1c-.5.8.5 2.2 2.7 3.8 10.9 8.2 31.6 30.8 46.6 51.1 16.9 22.8 44.6 65.9 71.4 111 24.7 41.6 34.2 56.3 50.3 78 10.9 14.6 28 32.5 39 40.7 7.8 5.8 22.6 13.4 33 16.9 23 7.9 44.3 4.4 58.6-9.6l5.6-5.6 6.3 6.8c14 15.2 30.7 17.7 80.6 11.8 19.1-2.2 25.5-3.4 28.8-5.2 2-1 2-1.1.2-2.4-1.5-1.1-7.9-1.4-30.4-1.4-30.8-.1-51.2-2-58.2-5.5-11.9-6-17.2-20.3-13.9-37.6 4.9-25.7 29.4-36.3 87.5-37.6 13.8-.3 25.8-1 26.8-1.5 4.9-2.5-3.5-5.5-22.8-8-13-1.6-19.2-1.9-33-1.4-31.3 1-49.8 7-62.3 20-7.8 8.1-13.1 19.2-15.7 32.6-1.9 9.6-12 22.4-20.9 26.6-6.9 3.2-20.3 3.4-29.7.3-24.6-7.9-44.7-24.2-68.2-55.4-9.9-13.2-35.6-51.6-51.7-77.5-13.4-21.4-34.1-52.7-47.2-71.1-28.5-40-55.5-68.2-74.3-77.6-5.9-3-8.2-3.5-9.1-2.2"/><path d="M107.7 554.6c-.9.9 1.2 4.6 16.3 30.4 13.6 23.1 31.1 54 39.2 69 2.5 4.7 10.3 19.3 17.3 32.5 23.6 44.4 35.5 61.7 56.2 81.9l9.3 9.2-2.9 9.9c-1.6 5.5-6 20.3-9.6 33-3.7 12.6-10 33.8-14 47-16.4 53.6-18.4 62.6-15 65.1 2.4 1.8 7.9 1.8 11.4 0 7.9-4.1 14.1-15.8 51.1-95.9 13.3-28.6 17.9-37.7 19.2-37.7 1 0 5.1.9 9.1 2 13.7 3.8 24.1 5.1 42.9 5.7 33.6 1 63.5-2.5 103.3-12.3 16.2-4 18.9-5 17.9-6.5-.8-1.4-16-.8-46.4 1.8-37.1 3.2-73 2.2-96.5-2.7-25.5-5.3-47.7-16.7-67.7-34.9-14.2-13-31-36.7-53.8-76-24.1-41.4-65.6-102.3-80.5-117.8-4-4.2-5.5-5-6.8-3.7m759.3 86c-2.5.2-13.5.8-24.5 1.4-39.3 2.2-59.4 6.4-39.8 8.4 3.7.4 34.7 1.1 68.8 1.6 66.3 1 75.7 1.5 99 6.1 20.1 3.9 33 8 44.9 14.2 21.3 11 31.7 26 31.9 45.7.1 7.7-.2 9.2-3.1 15.2-4.1 8.4-9.5 13.2-22 19.6-18.3 9.3-40.1 15.2-69.2 18.7-24.1 2.9-35.6 3.4-91.5 3.5-71.1.1-163.5 1.7-179.5 2.9-25.3 2.1-33.1 4.5-33.8 10.3-.3 2.2.3 3 3 4.5 3.1 1.7 8.8 1.8 103.3 1.8 55 .1 111 .2 124.5.3l24.5.2 12.2 26.3c6.8 14.4 17.6 37.7 24.1 51.7 16.7 35.8 24.2 50.6 27.9 54.9 3.2 3.8 8.5 6.1 14 6.1 8.1 0 7.4-4.7-7.7-54.5-4.3-14.3-9.9-33.2-12.5-42s-6.5-22-8.7-29.3-3.7-14-3.4-14.8 1.8-1.4 3.4-1.4c4.8 0 29.2-3.9 37.7-6.1 42.7-10.7 65.8-26.7 73.2-50.8 5.5-17.9-1.2-43.8-15.4-59.1-12.8-13.9-33.8-23.7-64.3-29.9-22.3-4.6-30.7-5.3-72.5-5.6-22-.1-42-.1-44.5.1"/><path d="M1010 731.4c-8 4.3-22.2 8-40 10.5-4.1.6-9.1 1.3-11 1.6s-51.4.9-110 1.5c-103.7.9-141.3 1.8-169 4.1-22.2 1.8-19.3 4.4 6.9 6 10.3.6 60.3.9 131.1.6 109.5-.3 115.4-.4 134.5-2.5 28-3.1 38.6-5.4 51.1-11.3 7.3-3.5 15.1-10 14-11.7-1-1.7-2.6-1.5-7.6 1.2"/></svg>