<svg xmlns="http://www.w3.org/2000/svg" width="249.333" height="354.667" viewBox="0 0 187 266"><path d="M10.1 12.6C8.3 14.9 8 16.7 8 25s.3 10.1 2.1 12.4l2 2.6h111.8l2-2.6c1.8-2.3 2.1-4.1 2.1-12.4s-.3-10.1-2.1-12.4l-2-2.6H12.1zm4.5 46.6c-6.4 7.4-6.6 9.3-6.6 55 0 43.8.1 44.9 5.1 49.5 3.4 3.1 9.1 4.4 13.7 3.1 4.2-1.1 6.7-3.1 9.2-7.1l1.7-2.8.5 4.5c1.7 14.8 21.6 18.6 28.1 5.4l1.7-3.3v3.3c0 8.6 6.6 15.4 15 15.5 5.7.1 9-1.9 12.8-7.3l2.2-3.3v33.4c0 30.6.2 33.7 1.9 36.9 2.5 4.7 6 7.1 11.3 7.7 5.6.6 10.9-1.7 14.1-6.1l2.2-3.1.5-57.9.5-58 9.8 12.2c5.3 6.7 10.9 12.9 12.3 13.9 1.6 1 4.6 1.7 7.4 1.7 10.2 0 17.6-10.4 14.1-19.8-.6-1.3-8.5-13.2-17.7-26.3-9.3-13.1-20.4-29-24.7-35.3-4.4-6.3-8.9-12.5-10-13.8l-2-2.2H18.2z"/></svg>