<svg xmlns="http://www.w3.org/2000/svg" width="274.667" height="248" viewBox="0 0 206 186"><path d="M20.4 14.9c-3.7 2.2-5.9 7.6-4.9 12 .3 1.5 2 4.1 3.6 5.7l3 2.9h158.8l3-2.9c3.8-3.7 4.8-8.1 2.8-12.9-3-7 1.2-6.7-85.4-6.7-74.9 0-77.9.1-80.9 1.9M23 78.7c-3 1.1-7 5.7-7.6 8.8-.3 1.9.1 4.6.9 6.8 3 7-1.2 6.7 85.2 6.7 85.9 0 81.7.3 85-6.6 2.2-4.7 1.3-9.2-2.6-13l-3-2.9-78.2-.2c-43-.1-78.9.1-79.7.4m.6 65.3c-3.9 1.2-7.4 4.7-8.1 8.1-.9 3.9 1.1 9.4 4.2 11.9 2.5 2 3.9 2 81.7 2 70.1 0 79.4-.2 81.4-1.6 2.7-1.9 5.2-6.5 5.2-9.7 0-3.7-4.1-9.1-8-10.4-4.2-1.4-151.7-1.7-156.4-.3"/></svg>