<svg xmlns="http://www.w3.org/2000/svg" width="2048" height="3669.333" viewBox="0 0 1536 2752"><path d="M611.3 799.1c-.7.7-1.3 2.5-1.3 4.1 0 3.7 4.2 5.8 11.4 5.8 10.5 0 13.7-3.6 7.3-8.4-3.4-2.5-15.4-3.6-17.4-1.5m49.4 14.6c-1.5 1.5-.3 2.5 8.6 6.9 30.4 15.3 46.6 31.4 69.7 69.8 5.3 8.9 10.3 16.1 11.1 16.1 2.1 0 1.5-8.2-1.1-15.2-10.8-28.9-36.2-57.8-62.5-71-10.4-5.3-23.8-8.7-25.8-6.6M571 847c-41.6 4.6-88.2 28.3-116.2 59.2-12.7 14.1-16.6 19.9-23.1 34.9-4.9 11.3-1.9 14.2 4.3 4.2 8.6-13.7 24.9-32.1 39-43.8 22.9-19 56.6-35.4 84.5-41 46.8-9.3 94.5 3.7 128.4 35.1 16.7 15.5 28.6 36.8 41.1 73.8 4.4 13.2 8.5 24.5 9.1 25.3.9 1 1.5 1 2.5.2 3.6-2.9.4-26.2-6.2-45.8-17.8-52.8-59.1-88.9-114.3-100.1-12.1-2.5-35.9-3.4-49.1-2m614.9 39.5c-6.4 3.5-9.5 20-8.5 45 1 25.3 3 33.1 8 31.2 4.2-1.6 13.7-30.3 15.5-47 1.1-9.7.3-20.5-1.7-24.4-2.8-5.1-8.8-7.3-13.3-4.8m7.2 12.9c1.2 6.3-1.7 27.2-4.9 35.6-.9 2.4-1 2.4-1.7-1.4-.4-2.2-.5-9.8-.2-17 .5-11.4 1.3-16.6 3.3-22.5.8-2.4 2.5.3 3.5 5.3m71.1-9.3c-7 4-20.8 17.9-30.3 30.4-16 21.2-30.1 46.3-30.3 54-.2 7.1 2.5 6 16.6-6.7 6.9-6.2 17.8-15.8 24.3-21.3 24-20.5 39.4-39.5 39.5-48.7 0-6.4-4.6-10.8-11.2-10.8-1.8 0-5.7 1.4-8.6 3.1m11.2 8.7c-.2 4.4-5.2 11.1-18.3 24.6-10.8 11-31.9 29.1-32.9 28.2-.6-.7 14.2-21.8 23-32.8 8.4-10.3 14.6-16.4 21.8-21 5.2-3.3 6.5-3.2 6.4 1m-255.3 4.3c-7.5 1.4-14.2 3.9-23.6 8.7-12.4 6.3-24.5 18.3-30 29.5-2.8 5.7-3.5 8.1-2.7 8.9 1.5 1.5 3.7-.4 6.2-5.1 2.7-5.4 12.4-15.6 19.4-20.5 7.9-5.6 17.4-10.1 25.6-12.3 8-2 26.3-2.3 34-.4 15.2 3.7 28.9 14.3 36.5 28.3 4.7 8.7 6.5 17.5 6.5 32.4 0 10.3.3 12.5 1.8 14.4 2.4 3 3.6 2.1 6.1-4.6 1.6-4.2 2.1-7.8 2.1-15.5 0-12.5-1-16.9-6.7-28.9-8.1-16.9-23.3-29.3-41.9-34-8.3-2.1-24.8-2.6-33.3-.9"/><path d="M537.5 935.9c-22.2 5.4-54.5 37.4-76.7 76.1-23.1 40.3-35.8 78.3-44.4 133-2.6 16.4-2.7 56.6-.1 69.8 6.7 34.4 15.8 53.7 33.7 71.2 21.9 21.5 50.4 28.2 78.8 18.6 14.3-4.9 26.5-13.2 41.2-28 4.6-4.7 9-8.6 9.7-8.6.6 0 5.4 3.5 10.5 7.8 13.9 11.7 50.1 38.7 65.3 48.9 8.7 5.8 29.4 18.8 36.5 23 8.6 5.1 34.9 16.6 49.7 21.6 41.3 14.2 80.1 20.3 114.3 17.8 34.4-2.6 56.9-8 80-19.5 32.4-16.1 58.6-43.7 60.7-63.8.4-4.4.2-5.6-1.5-7.1-3.5-3.1-6.9-1.2-17.7 10.1-32.1 33.4-71.9 50-126.5 52.8-49.4 2.4-112.1-15.6-164.9-47.4-34.7-20.8-92.9-62-91.4-64.5.3-.7 3.6-5.5 7.1-10.7 21.5-31.5 39.5-70 52.1-111.5 9.9-32.7 15.1-65.2 15.1-93.8 0-26.9-3.4-44.6-12-62.4-10.9-22.3-29.1-34.4-51.9-34.3-20.6.1-39.4 9.3-57.5 28-14.2 14.7-24.8 33.2-32.6 56.9-3.6 10.9-4.3 13.6-6.9 25.3-1.8 7.8-3.1 28.4-2.5 37.6 1.4 19.9 7.9 37.2 17.9 48.1 3.1 3.3 7.5 6.9 9.9 8 5 2.5 12.8 2.8 14.6.6 1.3-1.6 1.2-1.8-4.7-9.8-5.5-7.6-9.8-20.8-11.3-35.2-2.1-19.3 1.3-42.9 9.7-68 4.1-12 17.5-37.9 24.7-47.5 24.1-32.2 46.2-38 65.5-17.4 9.6 10.2 14.6 21.6 18.2 40.9 11.3 61.8-12.8 149.1-61.8 224-4.7 7.1-8.6 13.1-8.8 13.3-.1.1-3.3-1.6-7.1-3.9-15.9-9.7-34.2-15.9-46.9-15.9-12.6 0-24.9 4.6-29.9 11.3l-2 2.7 2.2 2.2c2 2.1 2.5 2.1 6.4 1 15.9-4.6 25-3.8 40.1 3.5 9.8 4.8 22.7 13.7 22.7 15.7 0 1.8-15.3 16.4-23 22.1-12.7 9.3-23.9 13.5-35.4 13.4-8.3 0-13.5-1.8-20.9-7.2-14.8-10.9-26.4-34-32.4-64.2-2.2-11.2-2.5-54.7-.5-69 4.1-28.9 9.6-53.4 17.9-78.9 3.6-11.4 14.6-38 20.4-49.6 16.3-32.9 36.1-59.5 55-74.1 4.3-3.4 7.9-6.6 7.9-7.1 0-5.2-7.9-8-16.5-5.9m299 13.5c-6.9 3.1-9.7 9.5-7.6 17.3 1.7 6.2 4 8.4 9.1 8.9 12 1.2 20.9-13.1 14.5-23-2.9-4.5-10-5.9-16-3.2m7.5 8.5c0 1-.7 2.4-1.5 3.1-2.1 1.7-3.9-.1-3-2.9.8-2.7 4.5-2.8 4.5-.2m421.5 8.6c-7.8 2.1-18 6.1-25.5 10.1-8.9 4.7-19 13.7-19 17s2.1 3.9 7.6 2c4.2-1.4 8.9-2.2 34.9-5.7 23.4-3.2 34.2-8.9 31.9-17.1-1.9-7-16.3-10-29.9-6.3m19.5 8.4c0 1.7-25.9 7.2-33 7-2.3-.1-2.2-.2 1-1.6 7.5-3.5 18.7-6.2 25.3-6.2 3.7-.1 6.7.3 6.7.8m-264 2.2c-1.4.6-3.6 2-4.9 3.2-4 3.8-28.1 54.2-28.1 58.9 0 2.2 3.3 4.8 6.1 4.8 3.8-.1 6.4-2 14-10.5 18.3-20.5 32-39.4 33.4-46.1 1.5-7.6-11.2-14-20.5-10.3m-136.6 58c-6.6 1.9-12.2 11.7-10.8 18.8.8 4 6.3 8.8 10.9 9.7 13.9 2.6 24.5-9.7 18.5-21.5-3.3-6.6-10.6-9.3-18.6-7m-538.7 5c-5 4.1-7.9 10.1-8.1 16.4-.1 7.6 1.2 12.2 4.5 16 7.8 8.9 20.7 5.9 26.4-6.1 2.3-4.9 2.7-6.7 2.3-12.4-.3-5.5-.9-7.4-3.1-10.4-3.6-4.7-7.5-6.6-13.4-6.6-3.9 0-5.6.6-8.6 3.1"/><path d="M1156 1073.7c-6.6 3.1-19.8 16-28.5 27.8-7 9.4-21.3 32-28.2 44.6-2.6 4.9-5.1 8.9-5.4 8.9s.5-7.1 1.8-15.8c1.8-12 2.3-19 2.1-29.7-.3-12.8-.5-14.4-2.8-18.5-4.6-8.2-13.2-11.3-20.2-7.3-3 1.8-9.6 11.4-16.3 23.8-2 3.8-4.1 7.4-4.5 8-.4.5-4.7 8.6-9.5 18-21.5 41.6-37.8 67.5-51.9 82.3-9.2 9.7-21.4 16.5-25.6 14.2-3.5-1.9-7.9-9-10.3-16.4-1.9-6.3-2.2-9.1-2.1-23.6.1-9.1.6-17.8 1.1-19.3.7-2.3 2.3-3.4 8.8-6.1 11.7-4.8 15.4-6.9 24.4-13.7 20.7-15.5 31.1-38.3 26.1-56.9-1.5-5.6-8.2-12.2-14.5-14.3-22.1-7.6-49.6 10.9-65.4 43.8-8.2 17.1-12.4 30.8-14.1 45.8-.8 6.5-1.7 9.4-5.6 16.5-13.9 25.6-30 47.7-36.4 49.7-5 1.6-7-5-7-22.7.1-14.6 3.4-40.4 7.1-54.2 2.8-10.6 8.9-43.4 9.5-51.6.6-7.3.5-7.6-2.5-11.1-1.7-2-4.3-3.9-5.9-4.2-12-2.4-19.1 9.2-33.2 54.3-5.6 18.1-12 32.9-26.1 61-12.6 25.1-23.4 42.7-28.9 47.3-2.9 2.5-3.5 2.6-4.8 1.4-4.2-4.2-5.4-26-2.7-49.2s5.9-39.4 14.1-72c3.1-12.3 5.8-25.4 6.1-29.8.6-7.5.5-7.9-2.2-10.7-2.4-2.5-3.7-3-7.5-3-9.2 0-13.7 6.2-28 39-16.1 36.8-35.6 72.6-49.8 91.3-7.3 9.7-10.9 12.8-12.3 10.6-1.5-2.4-.9-18.9 1.1-31.9 1.8-11.5 7.2-39 13.5-68.5 1.4-6.6 2.6-16 2.8-20.8.2-8.8.2-8.9-3.1-11.8-5.7-5.1-13.6-3.4-19.2 4.2-4.9 6.8-16.4 37.6-20.9 55.9-10.4 42.8-9.3 67.8 3.5 82 5 5.5 11 8.1 18.9 8.1 7.5.1 12.6-2.2 19.7-8.8 5.8-5.5 17.6-23 24.8-36.8 2.9-5.5 5.5-10.3 5.9-10.7.3-.4.6 8.4.6 19.5 0 22.3 1.1 28.6 6.7 40.2 5.7 11.8 15.5 18.5 27.1 18.5 7.2 0 14.2-3.4 19.4-9.3 5.3-6 14.3-21.6 23.7-40.6l9-18.4 1.7 10.1c3.9 23.5 16.4 37.2 33.8 37.2 14 0 26.2-10.8 41.4-36.8l5.4-9.2 1.7 6.2c4.8 17.3 20.7 32.1 37.1 34.7 21.6 3.3 39.7-9 61.2-41.4 8.4-12.6 23.5-40 40.3-73 5.8-11.4 8-15 7.7-12.5-.2 1.9-3.4 16.3-7 32-8.7 37.6-13.7 66.4-13.7 79.7 0 11.9 18.6 18.8 26.8 10 1.1-1.2 3-5.4 4.2-9.2 8.9-28 25.6-66.7 38-88 2.9-5 5.8-9.9 6.4-11.1 8-14.6 29.1-40.5 35.8-44 2.8-1.4 2.8-1.4 2.8 1.5 0 5.4-3 18.8-9.9 44.3-10.9 40.1-13.2 53-13.2 75.6 0 26.5 4.7 43.1 16.4 57.2 9.7 11.6 20 16.4 35.7 16.4 11.6.1 17-1.6 28.7-8.5 7.2-4.4 21.3-18.4 28.5-28.5 6.9-9.7 17.6-29.2 21.8-39.7 11.1-28 9.2-48.7-4.5-48.7-4 0-6.5 4.3-6.5 11.2 0 25.4-17.9 65.9-37.8 85.5-10.6 10.3-23.4 17-30.3 15.6-7.6-1.5-15.2-14.5-17.6-30.1-3-19.4.5-53.3 9.3-88.9 7.1-29 9.1-50.1 5.9-62-2.1-7.5-6.7-13.5-12.3-15.9-5.5-2.3-13.8-1.7-20.2 1.3m-159.6 21.6c2.4 1.8 3.5 9.2 2.5 16-1.8 11.2-10.9 24.3-23.8 34.1-5.4 4.2-14.2 9.6-15.4 9.6-1.9 0 8-27.5 13.6-38 6.7-12.5 15.7-23 19.8-23 .8 0 2.3.6 3.3 1.3"/><path d="M1279.2 1100c-4.1 1.7-1.8 3.4 7.1 5.1 19.2 3.8 30.7 14.7 37.8 35.9 2.7 8.1 3.2 11.4 3.7 22.5.7 19.2-1 30.1-7.9 50.9-6.4 19.1-17.3 35.7-39 59.7-10.2 11.3-11.7 13.6-9.3 14.6 5.2 2 21.4-11.8 35.5-30.2 21.6-28.1 33.7-72.1 28.8-104.8-4.4-29.7-24.3-52.4-47.4-54.2-3.9-.3-8.1-.1-9.3.5m-1024.9 5.9c-6.1 2.8-10.3 9.7-10.3 16.8 0 4.5.5 5.8 3.2 8.8 2.6 3 3.6 3.5 5.7 3 3.9-1 4.4-1.9 2.8-5.6-1.2-2.9-1.2-3.8.1-6.5 1.8-4 6-6.5 8.9-5.3 1.2.4 3.3 2.8 4.8 5.3 3.7 6.3 4.8 7 7 4.6 3.7-4.1-.4-16.3-7-20.6-3.9-2.6-10.3-2.8-15.2-.5m95.3 5.2-2.8 2.2.7 10.1c1.7 24.9-6.7 48.4-29.4 82.1-47.4 70.2-51.5 77.6-56.6 102.3-2.1 9.8-2.1 26.5-.1 36.2 5.9 28 29.1 48.1 57.6 49.7 24.9 1.4 51.1-13.1 64.9-36.1 7.9-13.1 12.3-34.5 8.8-42.8-1.9-4.5-5.8-7.2-9.2-6.4-3.2.8-3.9 2.3-6.4 14.1-2.8 13-6.4 22.5-11.6 30.5-10.4 15.9-24.4 25-38.7 25-7.9 0-13.6-2.7-20.5-9.6-9.3-9.2-12.9-20.7-12-38 1.1-23.8 6.7-36.7 38.9-89.9 26-42.8 33.9-62.1 36.2-87.1 1.3-14.4-3.4-34-9.6-40-4.5-4.4-6.9-4.9-10.2-2.3m1013.6 84.1c-4.3 4.8-3.5 10.9 1.8 13.8 1.7.9 2.5.6 5-1.9 2.3-2.3 3-3.9 3-6.9 0-6.7-5.5-9.5-9.8-5m-15.5 51c-1.3 2.4-4.1 7.4-6.2 11.3-5.9 11.2-14.1 21.9-27.2 35.7-6.8 7-12.3 13.5-12.3 14.3 0 4.6 6.8 1.7 18.4-7.5 17.6-14.2 31.1-33.4 34.7-49.3 1.4-6.6.8-8.7-2.5-8.7-1.9 0-3.1 1-4.9 4.2"/><path d="M217.3 1256.5c-3.2 2.2-9 11.6-12.2 19.7-14.9 37.1-11.1 78.2 10.2 110.1 11.1 16.6 27.9 31.7 44.6 40.1 11.9 6.1 36.8 11.9 41 9.7 1.1-.7 2.1-1.6 2.1-2.1 0-1.5-6.6-4.5-16.2-7.4-32-9.7-53.6-27.2-67.3-54.6-9.5-19.1-13.1-35.3-12.1-56 .6-15.4 2.4-23.7 9-42.5 5.8-16.2 6-20.6.9-17m923.7 82.6c-14.8 1.7-28.4 8-39.4 18.1-15.9 14.5-24.3 33-23.4 51.8.3 8.6 1.8 11.3 6.8 12.5 4.4 1 6-1.3 8.1-11.6 4.5-21.8 14-37.5 28.9-47.4 17.5-11.7 34.3-11.5 47.3.4 9.2 8.5 12.9 23.4 10.3 41-3.6 23.6-12.6 42.2-39.6 81.1-23.9 34.5-34.5 52.4-41.8 71-9.5 24-10.6 56.6-2.4 73 4.3 8.6 10.9 11.8 15.3 7.3 1.7-1.6 1.9-3.8 2.3-17.3.4-16.3 1.5-22.4 7.1-38.5 5.7-16.6 15.9-34.2 33.2-57.7 48.8-65.7 59.3-86.9 59.3-119.5 0-20.2-5.2-33.7-17.9-46.4-14.3-14.4-32.5-20.3-54.1-17.8M164.5 1356c-1.5 1.6-1.6 2.7-.6 9.2 2.2 14.2 6.9 26.2 15.9 40.3 6.5 10.3 22.9 25.9 33.3 31.7 9.1 5.1 19.1 8 21.1 6 1.7-1.7-1.3-4.5-10.5-10-25.4-15.1-43.4-39.7-52.2-71.4-1.8-6.7-4.3-8.8-7-5.8m374 13.3c-6.8 7.1-13.5 17.9-17.8 28.7-9.6 24.2-10.2 56-1.5 83.7 3.5 11.2 9.8 24.4 13.4 28 2 2 2.8 2.2 3.9 1.3 1.8-1.5 1.6-2.3-3.7-19.5-6.8-22.1-8.8-32.5-9.5-48.7-1.2-29.4 5.5-52 21.8-74.4 3.6-4.9 3.9-6.4 1.5-6.4-.6 0-4.2 3.3-8.1 7.3m84.5-4c-11.4 3.4-17.6 7.3-27.2 16.8-7.2 7.2-9.3 10.1-13.1 18-6.5 13.3-8.8 23.5-8.8 37.9 0 22.9 6.2 42.2 29 90.3 10.9 23 19.6 44.6 18.5 45.7-.5.5-8.1 5-16.8 10-49.5 28.5-79.1 55.2-96.3 87-12 22.2-13.6 51.3-4 71.5 12.3 25.6 35.7 36.5 69.4 32.1 13.7-1.8 22.6-4.6 35-11 29-15 49.9-40.2 60.9-73.4 10.3-31.2 8.5-65-5.7-108-2.3-6.9-3.7-12.7-3.3-13.2 1.1-1 55-28.1 61.7-30.9 2.6-1.1 4.7-1.6 4.7-1 0 .5-.9 2.8-2.1 5.1-3.6 7.1-8.8 21.4-11.6 32-2.5 9.4-2.8 11.9-2.8 28.8 0 16.6.2 19.3 2.3 26 2.9 9.3 6.8 15.6 13.8 21.9 7 6.4 14.4 9.3 24.9 9.9 11 .5 17.4-1.9 26-10 15.2-14.2 30.3-45.9 39-81.8l2.8-11.6 8.1-2.4c9.6-2.8 19.3-7.7 25.2-12.5 2.3-1.9 4.4-3.5 4.7-3.5.2 0-.2 2.4-1 5.2-.8 2.9-2.8 11.5-4.4 19-7.7 37.3-4.8 58.9 9.6 71.6 7.8 6.9 20.6 8.7 29.5 4.2 11.5-5.9 21.6-20 42.5-59.5l3.7-7-.6 5c-.4 2.7-1.8 15.6-3.2 28.5-4.4 41-5.4 48.4-6.6 49.6-.7.6-10.1 8.5-20.8 17.4-43.7 36.6-66.6 59.9-83.7 85.5-22.4 33.6-31.7 62-29.7 91.5 1.1 17.4 4.7 26.8 13.6 36.1 7.1 7.4 15.6 11.1 27.2 11.7 14.4.7 25-2.3 38.3-11 32.6-21.2 60.9-73.8 75.7-140.8 4.4-20 13-74.2 15.1-95.2.4-3.7 1.2-7.4 1.9-8.1.6-.8 6.5-6.2 13.1-12 44.4-39.1 69.9-72.8 77.6-102.7 2.8-10.9 3.1-25.9.5-30.8-1.9-3.6-6.9-7.2-10.2-7.2-2.6 0-5.6 3.2-4.9 5.3.4.8.1 5.9-.5 11.3-1.2 11.2-6.7 28.8-12.9 41.7-5.7 11.8-18.4 30.5-29.3 43.2-10 11.5-32.8 33.5-32.8 31.5 0-.6.4-6.4 1-12.8.5-6.4 1.7-21.4 2.6-33.2 1.4-19.8 5-54.8 7.4-73 1.5-12.1 1.3-14.8-1.5-17.5-1.8-1.9-3.5-2.5-6.9-2.5-8.2 0-11.4 4.5-18.7 25.8-9.9 28.8-14.5 39.4-27.6 63.7-15.9 29.6-32.3 51.5-38.5 51.5-5.6 0-2.9-29.2 7.5-82.5 3.5-17.9 4.1-23 4.1-34.2.1-13.1.1-13.3-2.6-16-2.1-2.1-3.8-2.8-6.8-2.8-5.7 0-8.8 2.9-14.1 12.9-5.9 11.2-14 21-24.2 29.3-7.5 6-20.5 13.3-24 13.3-1.1 0-1.3-3-1.3-15.8.1-21.6-3.1-32.9-11.7-41.5-5.9-5.9-11.7-8.1-21.2-8.1-7.3-.1-8.6.2-14.5 3.5-8.3 4.6-13.3 10.9-16.2 20.6-1.6 5.2-2.7 7.3-3.8 7.3-.9 0-7.9 3.1-15.6 6.9-7.6 3.8-16.3 7.9-19.1 9-6.9 2.7-61.5 29-62.8 30.2-1.2 1.2-2.5 1.2-2.5-.1 0-.5-1.1-3.3-2.4-6.2s-4-8.9-5.9-13.3c-2-4.4-7.9-16.6-13.1-27.2-21.6-43.5-27.4-61.9-26.4-82.8.8-15.7 8.7-34.1 18-42 8.4-7.1 20.1-8.6 29.6-3.9 14.1 7 25.3 29.8 23.9 48.9-.3 3.9-1.3 10.7-2.3 15.2-1.9 9.1-1.5 11.3 1.9 11.3 5.5 0 12.2-9.6 14.6-20.8 2.8-13.4.5-32.5-5.6-44.9-10.7-22-38.4-33.4-63.3-26m175 129.6c5.5 5.8 8 14 8.7 28.6.6 11.9-.8 23.5-2.7 23.5-.5 0-3.3-.9-6.2-2.1-6.7-2.6-14.1-9.7-17.6-16.9-2.2-4.7-2.6-6.8-2.7-14.5 0-8.1.3-9.5 2.7-13.7 5.8-9.8 11.7-11.4 17.8-4.9m-29 49.1c8.8 8.9 19.7 13.9 30.2 14 2 0 3.9.3 4.1.7.7 1.1-5.6 21.6-10.4 33.5-7.4 18.8-17.3 35.1-26.9 44.2-8.6 8.2-12.4 8.6-16 1.7-5.5-10.8-7.3-30-4.5-47.5 2.2-14.3 7.7-36.9 11.7-48 2.7-7.6 3.3-8.7 4.2-7 .6 1 4 4.8 7.6 8.4m-140.6 47.7c11.6 35.7 12.6 72 2.6 101.3-8.7 25.4-30.8 51.4-51.5 60.5-16.3 7.3-31.9 7.2-43.5 0-5.4-3.4-12.3-11.4-15.2-17.5-7.1-15.1-6.3-36.5 1.9-55.4 9.5-21.9 33.9-48 66-70.5 10.9-7.7 35.3-22.9 37-23 .6-.1 1.8 2 2.7 4.6m293 105.9c-9.5 58.5-21 101.7-34.8 130.9-13.5 28.4-27.6 45.3-44.1 53.1-10.3 4.9-19.1 1.7-26.5-9.7-5.4-8.4-7.1-14.5-7.7-28-.8-17.3 1.8-29.1 10.9-49.3 11.6-25.9 23.4-42.3 49.6-69 14.4-14.5 55-51.1 55.9-50.2.2.1-1.3 10.1-3.3 22.2m327.1-327.6c-.3.5 1.2 4.7 3.4 9.2 6.2 13.1 7.6 19.8 7.5 37.8 0 13-.4 17-2.3 24.5-5.4 20.7-17.8 40.7-43.1 69.5-18.8 21.4-31.2 39.9-32.6 49-.7 4.1.4 5.5 3.5 4.5 1.1-.3 6.3-6.5 11.8-13.8 5.4-7.3 15.2-19.7 21.8-27.7 29.2-35.4 36.7-47.2 44-69.5 8.4-25.5 6.8-53.4-4.2-73.5-4.9-9.2-8.2-12.5-9.8-10m-862 102c-2.2 1-9.8 2.8-17 4-34.3 5.6-38.3 6.6-44.4 11-10 7.3-4 17 10.5 17 16.7 0 43.9-12 54.8-24.1 4.8-5.4 5.4-6.7 3.4-8.7-1.5-1.5-2.4-1.4-7.3.8m-25.1 16.1c-8 3.8-21.1 7.1-27.1 6.7l-4.8-.3 3-1.6c3.6-2 28-7.6 33.5-7.7.8 0-1.2 1.3-4.6 2.9m47.6-.4c-.8.3-5.5 4.5-10.5 9.2-4.9 4.8-15.6 14.6-23.6 21.8-20.7 18.7-32.6 32.3-38 43.8-3.4 7-3.6 11.8-.9 16.2 6 9.9 20.9 1.9 39.7-21.3 13.3-16.3 31.4-47.1 37-62.8 1.2-3.6 1.2-4.2-.4-5.7-1-.9-2.5-1.4-3.3-1.2m-21.6 35.9c-12.4 20.5-30.8 43.8-38 48-6.1 3.6-7.8 3.3-7.1-1.3 1.3-7.5 15-24 37.1-44.6 7.6-7 13.9-12.7 14.1-12.7s-2.5 4.8-6.1 10.6m42.1-18.4c-2.5 3.7-7.4 17.1-10.2 28.6-3.6 14-4 34.2-.9 41 2.3 5 6.4 7.6 10.6 6.7 3.5-.8 5.3-2.8 8.2-9 2.1-4.6 2.3-6.4 2.3-24 0-33.9-4.1-51.6-10-43.3m1.4 42.7c.1 11.4-1.3 22-3.4 24.7-1.2 1.7-1.4 1.4-2.4-2.1-.6-2.2-1.1-7.2-1.1-11.1 0-7.2 3.2-27.2 4.7-29.6 1.2-1.9 2.1 5.9 2.2 18.1m736.5 50.6c-1.9 2.9-2.9 9.3-2 12.8.3 1.4 1.7 3.2 3 4.1 2.4 1.5 2.7 1.5 5.1-.7 2.2-1.8 2.8-3.4 3.2-8.3.7-7.5-.6-10.4-4.7-10.4-2 0-3.5.8-4.6 2.5"/><path d="M459 1637.1c-7 7.5-15.4 21-20.2 32.4-7.6 17.9-10.8 33.6-10.8 52.3 0 37.8 17.4 73.2 47.5 96.8 25 19.5 52 28.6 80.4 27.1 16.4-.9 34.2-5.8 38.7-10.8 1.6-1.8 1.6-2.1.1-3.6s-2.5-1.5-14.4.8c-15.9 3-38.5 3.2-50.1.6-14.9-3.4-34.2-12.7-46.1-22.1-25.8-20.3-40.3-44.8-44.6-75.6-1.9-13.8-1.9-18 0-32.3 2.6-19.8 8.7-36.7 21.7-59.9 3.3-5.9 4-8 3.1-8.9s-2.1-.1-5.3 3.2m810.4 4.3c-7.2 3.3-9.4 6.5-9.4 13.7 0 5 .4 6.3 2.8 8.9 5.1 5.8 15.8 5 20.9-1.6 5.2-6.9 3.7-18.6-2.8-21.9-3.7-2-5.4-1.8-11.5.9m-171.6 30c-12 5.3-16.3 22.5-8.4 32.9 4.1 5.3 8.3 7.7 13.9 7.9 10 .2 15.8-7.4 16.5-21.9.4-7.5.2-8.6-2.1-12.6-4.1-6.9-12.5-9.6-19.9-6.3m76.9 35.4c-.9.9-3 6.8-4.7 13.1-5.3 19.7-11.3 31.1-22.3 42.2-15.9 16.1-36.6 22.3-60.5 17.9-5.3-1-7.6-1-8.4-.2-5.1 5.1 16 12.1 32.2 10.7 28.3-2.6 52.3-21.6 64-50.7 4.2-10.6 6.5-22.1 5.6-28-.8-5.6-3.4-7.8-5.9-5M736.6 1734c-8.5 2.6-13.3 13.3-8.5 19.4 2.8 3.6 6.5 3.5 8.7-.4 2.1-3.7 3.5-3.9 2.6-.5-.8 3.2 1.9 6.5 5.3 6.5 5 0 8.1-6.7 7-15.2-1-7.3-8.1-11.9-15.1-9.8m257.5 24.9c-1.5 2.7-3.4 8.7-8.6 26.9-9.4 33.4-15.2 49.1-25.2 68-11.1 21-22.9 37.5-37.5 52.2-19.5 19.8-36.1 30.5-67.1 43.5-5.7 2.4-4.2 4 3.3 3.7 7.9-.3 22.9-5.3 34.2-11.5 30.9-16.9 58.5-46.4 78-83.8 15.6-29.8 27.8-69.9 27.8-91.3 0-8.6-2.4-12.4-4.9-7.7m190.9 13.7c-13.8 18-21.7 25.2-34.5 31.4-5.5 2.7-14.9 6.5-20.8 8.4-12.2 3.9-14.3 5.1-12.6 7.2s12.2 1.7 21.5-.6c17.7-4.6 36.1-16.4 47.3-30.5 5.9-7.4 14.1-22.2 14.1-25.4 0-1.9-1.9-4.1-3.5-4.1-.6 0-5.8 6.1-11.5 13.6m-550.7 30.5c-1.8 1.1-4.2 3.6-5.4 5.5-1.9 3.2-2 3.6-.6 5.8 2 3.1 5.8 3.9 10.9 2.5 8.1-2.1 12.5-10.1 8-14.2-2.6-2.3-9-2.1-12.9.4m382.4 18.7c-.8.9-4.3 9.7-7.6 19.5-6.7 19.5-11.5 29.8-19.7 42.5-8.2 12.6-9.7 15.7-7.9 17.2 5.3 4.4 28.3-27.5 36-50 2.8-8.2 4.8-21.5 3.9-26-.9-4.2-2.7-5.4-4.7-3.2"/></svg>