<svg xmlns="http://www.w3.org/2000/svg" width="3669.333" height="2048" viewBox="0 0 2752 1536"><path d="M1565.8 75.6c-4.2.7-14.1 2.9-22 4.8-7.8 1.9-17.8 4-22.1 4.7-11.3 1.7-31.5.6-44.7-2.6-35.2-8.4-59.4-8.7-83.8-1-9.5 3-19.7 7.4-18.9 8.1.3.3 2-.2 3.8-1.2 5.6-2.8 19.9-7.3 28.4-8.9 20.7-3.7 40.8-2.6 65.5 3.5 26.4 6.5 41.1 6.3 70.3-.9 22.8-5.7 29.1-6.6 48.2-6.5 38.9.2 72.2 11.4 104 34.8 5 3.7 7.2 5 5 3-6.2-5.6-24.1-17.1-34-21.9-18.7-8.9-32.6-13.2-51.6-16-13.1-1.8-37.5-1.8-48.1.1m-199.1 17.9c-6.7 4-14.5 9.9-20.2 15-3.5 3.2-3.7 3.6-1.5 3.1 14.2-3.2 36.6-3.3 44.9-.2 2.4.9 4.6 1.4 4.9 1.2.2-.3-2.9-1.5-6.9-2.8-8-2.5-23.7-3.2-33.1-1.4-4 .7-4.8.6-4.8-.7 0-1.6 9.9-9.2 18.3-14.1q6-3.6 4.5-3.6c-.2 0-2.9 1.6-6.1 3.5m29 21.6c-.4 1.3-1.4 1.9-3.4 1.9-7.9 0-48.7 8.8-72.7 15.6-37.1 10.6-62.7 22.8-88.7 42-20 14.8-34 31.5-49.6 59.3-13.8 24.6-25.6 42.1-37.1 55.3-.8 1-1.3 1.8-1 1.8.9 0 15-17.7 19.5-24.5 4.8-7.2 16.1-25.8 22.8-37.5 20.2-35.5 43.2-56.4 84.1-76.6 26-12.7 78.4-27.6 117.9-33.4 14.9-2.2 15.9-2.6 11.1-4.8-2-.9-2.5-.8-2.9.9m315.4 9c7.5 7.4 19.9 18.4 19.9 17.7 0-.1-1.1-3.9-2.5-8.3-2.8-9.1-3.2-13.5-1.1-13.5.8 0 9.4 4 19.2 8.9 12.5 6.3 20.3 10.9 25.9 15.4 16.3 13.1 29.5 32.3 40.5 58.7 3.1 7.4 10.1 17.1 15.3 21.3 2.3 1.9 10.1 6.9 17.2 11.2 15.2 9.1 18.5 11.4 28.5 20.9l7.5 7.1-6.5-6.8c-8.1-8.5-16.1-14.5-31.6-23.6-15.3-9-22-15.5-27-25.8-12.4-26.1-15.9-32.5-23.4-42.5-12.9-17.2-23.7-25.9-46.1-37-14.9-7.3-21.8-10.2-22.8-9.3-.3.3.1 3.1.8 6.3 3.1 13.3 2.4 14.2-4.9 6.6-2.5-2.5-7.2-6.8-10.5-9.6-5.5-4.6-5.3-4.3 1.6 2.3m-189.8-1.5c-1.3.3-2.3.9-2.3 1.4 0 .7 20.2 11 21.6 11 1.3 0 21.2 10.5 25.3 13.3 2.6 1.7 7.3 5.6 10.5 8.6 3.2 3.1 5.7 4.9 5.4 4.1-.8-2.5-14.8-13.7-23-18.3-4.3-2.4-13.9-7.1-21.3-10.3-18.1-7.9-17.9-8.8 1.8-8.1 22.9.8 44.9 6.1 68.1 16.3 5.4 2.4 10.1 4.4 10.5 4.4 1.4-.2-15.7-8.3-22.9-11-9.3-3.4-23.4-7.3-34.5-9.6-7.8-1.5-34.7-2.8-39.2-1.8m99.7 23.8c0 .3.9 1 2 1.6s2 .8 2 .6c0-.3-.9-1-2-1.6s-2-.8-2-.6m8.2 4.8c.9.7 4.2 3.1 7.3 5.3 24 16.7 40.6 35.2 53.8 59.6 4 7.4 16.2 34 22.7 49.4 14.3 33.9 29.7 58.5 47.4 75.8 8.8 8.6 27.6 23.9 27.6 22.4 0-.3-4.5-4.1-10-8.3-5.5-4.3-10-8.4-10-9.1 0-.8 2.3-1.3 6.8-1.6 6.6-.3 6.5-.3-1.8-.5l-8.4-.2-8.1-8.3c-15.4-15.6-28.1-37.6-48-83.2-15.2-34.6-22.9-48.5-35.6-64.1-7.3-9-19.9-20.8-30.3-28.5-7.4-5.4-17.4-12-13.4-8.7m-42.4 16.8c9.6 12.5 15.2 26.3 25.1 61.1 5.9 20.6 8.4 27.5 14.1 38.9 4 8.2 14.5 25 15.5 25 .2 0-1.8-3.5-4.6-7.8-10.6-16.1-17.4-32.9-26.3-64.8-2.4-8.9-6.3-20.8-8.5-26.5-3.9-10.1-13.8-26.8-17.6-29.9-1-.8 0 1 2.3 4M1351 218.1c-20.7 1.2-44.9 7.6-64.3 16.9l-8.2 4 8-.8c10-.9 31.7-.9 41 0 6.1.6 6.5.5 3-.5-2.2-.6-12.2-1.1-22.2-1.1-13.5-.1-18.3-.4-18.3-1.3 0-1.5 24.1-9.4 37-12.2 20.9-4.5 51.1-4.5 72.8-.1 17.5 3.5 40.5 12.5 60.2 23.5 3.6 1.9 5.6 2.8 4.5 2-4.2-3.4-22.6-12.7-34.8-17.5-26.8-10.8-50.3-14.6-78.7-12.9"/><path d="M1801.8 239.2c-4 4.3-7.2 11.5-11.3 25.9-6.2 21.6-8.2 47.9-5 67.4 1.5 9.3 1.4 10-2 10.8-1.4.3-1.1.5 1 .6 2.9.1 3.1.5 5.4 8.4 3.6 12.5 3.6 12.7 1.5 12.7-1.4 0-1 .7 1.7 2.9 2.1 1.8 4.3 4.9 5.4 7.8 1 2.6 6 12.9 11.1 22.8 10.6 20.7 15.4 32.3 19.7 48.5l3.2 11.5-.4 25.5c-.7 54.3-.8 52.8 1.7 61.8 1.2 4.6 3.5 10.9 5.1 14 2.4 4.8 30.1 47.6 31.8 49.2 1.5 1.4-3-6-11.7-19-26.3-39.5-27.7-44.6-25-89.4 1.1-17.3 1.1-24.3.2-32.6-2.4-21.3-9.7-44.1-21-65-7.3-13.7-13.2-25.7-13.2-27 0-2.1 3.2-.9 8.3 3.2 3 2.4 12 9.4 20.1 15.7 23.1 17.7 37.1 31.8 48.2 48.6 18.8 28.2 29.3 64.9 29.4 102.7 0 21-1.4 29.2-15.7 91.6-1.9 8.4-3.8 9.2-6.3 2.6-1.2-3.3-1.9-4-3.3-3.5-1.6.6-1.4 1.2 1.9 5.5 3.5 4.6 3.8 5.7 6 20 2.3 14.7 4.5 22.9 6.6 24.2.5.3.2-.8-.6-2.5-2.3-4.4-5.3-24.1-3.8-25 .9-.5.8-1.2-.3-2.7-2-2.6-1.9-4.4.3-4.4 1.2 0 5.8 5.4 13.1 15 6.2 8.2 11.5 15 11.7 15 1.1 0-13.3-19.4-20.9-28.3l-5-5.8 1.8-9.2c1-5.1 3.7-17.2 6.1-27.1 9.9-40 12.1-61 9-85.1-6-46.5-21.7-80.7-50.1-109-7.7-7.8-27-23.5-48.8-40-9.9-7.4-10.8-8.4-13-14-1.3-3.3-3.2-9.1-4.2-12.9-2-7.5-2.3-6.6 3.2-10.4 1.6-1.1 1.6-1.1-.4-.2-5.5 2.6-5.7 2.2-7.3-17.5-1.4-17 .2-35.3 4.8-53.5 4.9-19.4 10.6-31 15.2-31 2.8 0 6.7 5.7 9.5 14 8.1 23.9 7.1 49.9-2.6 68-1.9 3.5-2.3 4.7-1 3.3 3-3.6 8.1-16.8 9.8-25.7 4-21.1-4.4-55.9-14.5-60.6-2.1-.9-2.8-.6-5.4 2.2m-462.3 1.4c2.8.7 5.5 1.3 6 1.3 1.7-.2-6.9-2.7-9-2.7-1.1 0 .3.6 3 1.4m10.6 2.8c.8.8 11.3 4.5 11.7 4.2.2-.2-2.2-1.3-5.3-2.5-5.4-2-7.3-2.5-6.4-1.7m15.9 6.7c2.7 1.8 11 5.9 11 5.4 0-.7-10.3-6.5-11.5-6.5-.5 0-.3.5.5 1.1m12 6.2c0 .2 1.9 1.7 4.3 3.2 2.3 1.6 3.7 2.2 3 1.4-1.2-1.5-7.3-5.3-7.3-4.6m102 2.9c2.1 2.1 30 23 30 22.4 0-.4-24.1-18.9-30-22.9-1.3-1-1.3-.9 0 .5m-87.5 7.7c8 7.1 16.2 16.1 21.2 23.1 5.5 7.8 7.3 9.7 4.7 5.2-5.1-8.9-20.4-25.4-29.4-31.6-.9-.6.7.9 3.5 3.3m490.9.4c1.6 2 3 3.7 3.3 3.7.7 0-3.6-5.8-4.9-6.6-.7-.4.1.9 1.6 2.9m12.4 20.8c3.7 7.5 6.8 13.5 7 13.4.5-.5-10.3-22.7-12.1-25-.9-1.1 1.4 4.1 5.1 11.6m-384.8-5.7c0 .2.8 1 1.8 1.7 1.5 1.3 1.6 1.2.3-.4s-2.1-2.1-2.1-1.3m4 3c0 .2.8 1 1.8 1.7 1.5 1.3 1.6 1.2.3-.4s-2.1-2.1-2.1-1.3m4 3c0 .2.8 1 1.8 1.7 1.5 1.3 1.6 1.2.3-.4s-2.1-2.1-2.1-1.3m4 3c0 .2 1.4 1.4 3 2.6 1.7 1.2 3 1.9 3 1.6 0-.2-1.3-1.4-3-2.6-1.6-1.2-3-1.9-3-1.6m-383.6 3.8-2.9 3.3 3.3-2.9c1.7-1.7 3.2-3.1 3.2-3.3 0-.8-.8-.1-3.6 2.9m506.3 3.3c2.3 2.7 6.8 7.5 10 10.5 4.3 4.1 3.7 3.3-2.2-3-11-11.8-12.5-13.3-7.8-7.5m-113.5-.3c3 2.6 8.8 6.2 8.8 5.5 0-.2-2.6-2.1-5.7-4.1-3.2-2-4.6-2.7-3.1-1.4m-404.4 10.5c-17.9 21.1-27.6 36.6-33.8 54.6-4.8 13.9-5.5 18.9-5.4 37.2.1 22.6 2.6 34.2 14.9 71 10.6 31.5 11.1 34.3 14 74.5 3.1 42.9 6.1 58.1 15.6 78.9 2.2 4.6 3.9 8.7 3.9 9.1s-3.6.7-7.9.6c-9.3-.1-11.6 1.1-16.8 8.8-10.8 15.9-11.8 52.5-2.3 85.1 2.4 8.4 10.1 28.7 10.7 28.1.2-.2-1.5-5.2-3.7-11.2-8.6-22.9-12.7-47.1-11.7-68.9 1.4-26.5 8.7-40.7 21.1-40.9 8.7-.1 11 1 13.3 6.2 1.8 4 2 4.2 1.6 1.4-.8-4.7 1.5-4.2 8.3 2 12.8 11.7 17.6 24.6 20.9 55.8 2 18.8 2 28-.1 28-1.2 0-1.4.5-.8 1.7 1.6 3.3.6 10.7-2 16.7-1.5 3.2-2.5 6-2.3 6.2s1.2-1.4 2.2-3.6 2.4-4 3.2-4c.7 0 1.3.1 1.3.2 0 1.2 5.2 34.6 5.5 35.8 1.6 5.4 9.9 46.8 11.5 57.8 2.4 15.9 2.4 16.2.6 16.2q-1.5 0-2.7-6c-.6-3.3-1.4-5.9-1.6-5.6-.2.2.1 3.2.7 6.7 5.5 30.2 5.3 48.7-.6 54.6-1.9 1.9-3.3 2.3-8.7 2.3-7.3 0-12.1-2.5-19.4-10.1-8.4-8.8-12.8-21-14.3-40.2-2.8-35.5-5.1-51.6-9.6-66.5-3.3-11-11.5-33.4-12.1-32.9-.2.3 1.7 6.2 4.3 13.3 9.5 26 12.4 41.1 14.9 75.4.8 11.8 2.2 24.2 3.1 27.5 2.4 9 8.2 19.3 14.4 25.6 13.5 13.6 27.9 13.3 31.5-.6.7-2.9 1.9-5.1 2.7-5.3 1.2-.2 1.6 1.5 2.1 9 1 15.4 11.9 86.4 18.3 119.3 11.2 58 26.8 93.1 66 148.6 44.6 63 81.1 105.9 104.4 122.6 20.4 14.6 40.3 22.4 69.8 27.4 18.5 3.1 19 3.1 43.7 2.6 50-1.2 75.3-6 102-19.4 14.6-7.4 32.2-21.5 44.7-35.7 4.2-4.8 1.5-2.5-8.2 6.9-15.2 14.7-23.1 20.6-36.6 27.3-25.2 12.7-43.2 16.6-90.2 19.2-21.7 1.2-45.5-.1-63-3.5-33.2-6.5-57.1-19-82.1-43-28.5-27.3-93.1-113.9-114.8-153.7-22.3-41.1-29.7-67.2-43.7-154.3-6.9-43.2-9.6-66.1-11.6-99.5-1.4-23-3.4-38.7-7-55.5-4.6-21.1-4.7-22.2-1.7-24.5 2.8-2.3 3.9-5.1 6.2-16 2.6-12.3 4.3-25.3 6.5-48.5 3.4-36.8 5.9-49.6 17-86 3.3-11 6.8-24.1 7.7-29 2.6-13.9 2.1-31.2-1.6-56-1.7-11.6-3.4-24.9-3.8-29.6-1.2-17.2 4.1-42.1 11.7-54.9 12.6-21.3 34.3-28.2 59.5-19.1 20.3 7.4 28.4 10 35.5 11.5 38.2 7.8 84.6 1.8 122.7-16 9.4-4.4 27.8-15.1 36.1-21 8.3-6 22.1-17.4 34.2-28.4 29-26.2 42-35.5 63.9-45.7 12-5.7 24.2-9.6 37.8-12.4 13.7-2.7 44.9-3.7 60.4-1.9 9.3 1 11.7 1.8 22.9 7 19.9 9.3 36.6 13.4 46.4 11.6 7.3-1.4 3.2-6.8-7.7-10.1-5.7-1.7-29.6-6-41.6-7.5-9.5-1.1-12.9-2.9-26.6-13.9-4.4-3.5-6.9-5.2-5.5-3.7s5.5 5.1 9.3 7.9c8.5 6.5 8.7 8 1 7.2-24.8-2.3-38.5-3.5-48.8-4-27.5-1.4-50.2-7.3-73.5-19-3.9-1.9-7-3.3-7-2.9 0 1 22.3 11.1 31.5 14.2 11.6 4 24.2 6.7 38.3 8.3 6.7.8 11.2 1.8 11.2 2.4s-4.3 1.9-9.7 2.9c-12.9 2.2-28.2 7.4-41.8 14.1-18 8.8-33.8 20.2-56.5 40.5-36.8 33-55.6 45.7-86.2 57.8-27.6 10.9-41.5 13.5-73.8 13.6-31 .1-40.1-1.5-68.1-12.4-15.4-6-23-7.1-34.1-4.6-19.3 4.3-31.9 18.4-39.3 44.1-4.9 16.8-5 32.9-.5 60.7 3.6 22.2 4.5 35.9 3.1 48.7-1.5 13.9-2.6 19-9.8 43-9.4 31.5-12.8 48.1-15.2 73.6-4.2 44-4.5 45.8-8.2 61.7-1.4 5.9-2.6 8.8-3.5 8.8-.8 0-1.4-1.1-1.5-2.8 0-1.5-.3-2.1-.6-1.5-.9 2.3-3.1 1.4-3.7-1.5-.3-1.5-1.5-8.4-2.6-15.4s-2.7-14.8-3.6-17.4c-1.3-3.9-1.4-5.1-.2-7.8 1.7-4 1.6-27.5-.1-40.1-1.9-14.5-5.8-30-9.1-36.9-3.9-8.2-10.2-16-17.3-21.4-6.5-4.9-10.2-10.9-15.3-24.8-6.4-17.6-8.2-29.2-10.9-67.4-2.6-37.6-5.3-51.5-15.1-77.5-10.8-28.9-15.1-51.9-14.1-76.8.6-16.1 2.4-24.4 8.5-39 6.7-15.9 11.7-23.3 36-52.9 1.3-1.5 2.1-2.8 1.9-2.8-.3 0-4.3 4.4-8.9 9.7m588.2 31.7c23.5 3.9 34 7 34 10.2 0 3.7-13.7 2.9-28.7-1.6-10.4-3.2-21.3-8.1-21.3-9.6 0-1.8-1.1-1.8 16 1M1421 301c.6 1.1 1.3 2 1.6 2 .2 0 0-.9-.6-2s-1.3-2-1.6-2c-.2 0 0 .9.6 2"/><path d="M1903.6 304.5c.3 1.1 2.8 8.3 5.5 16 11.1 31.2 20.7 71.7 25.5 107 2.7 19.6 2.4 51-.5 68-2.8 16.9-13.5 60.3-20.1 82-7.3 23.7-7.6 25-11.5 43.4-1.9 9.1-3.7 17.4-4 18.5-.5 1.8-.5 1.9.5.4.6-.9 2.9-9.9 5.1-19.9 2.2-9.9 7.2-28.8 11-41.8 8.2-27.9 17-62.9 20-79.6 3.3-18.5 3.7-48 .9-69.5-5.1-39.6-20.3-99.8-30.4-121-1.4-3-2.4-4.6-2-3.5m-361.6-.1c0 .3.9 1 2 1.6s2 .8 2 .6c0-.3-.9-1-2-1.6s-2-.8-2-.6m-115.5 7.3c2.8 6.2 4.2 8.2 3 4.3-.9-3.1-4.4-10-5-10-.3 0 .7 2.6 2 5.7m4 8.8c.4 1.1 1.4 5.4 2.2 9.5 4 19.2-5.8 39-26.1 52.5-10.6 7-17.4 10-30 13.1-14.1 3.5-27 4-43.6 2-25.8-3.2-40.3-7.8-72.1-22.7-9.4-4.4-19.4-8.9-22.2-10-25-10-43.4-10.2-62.6-.8-28.2 13.9-43.5 48.6-48.1 109.4-.7 8.2-1 19-.8 24l.3 8.9 2.7-9.8c8.5-30.3 26.9-51.6 51.9-60.2 20.5-7 40.9-7 73.3.1 42.3 9.1 55.9 9.1 86.1 0 20.5-6.2 45-19.5 57.1-31.1l4.9-4.6-4.6 3.9c-14 11.7-35.1 23.2-53.8 29.3-17.8 5.8-27.2 7.4-44.6 7.4-14.2 0-16.4-.3-40.3-5.3-35.1-7.2-51-8-69.7-3.5-24.3 6-43.7 21.9-54.9 45.4-2 4.1-3.6 8-3.6 8.7s-.7 1.3-1.5 1.3c-1.8 0-1.9-4.2-.4-21.3 2-23.5 7.3-49 13.3-63.6 7-17.3 19-31.3 32.1-37.6 10.6-5.1 19.6-6.8 33.1-6.2 13.2.6 24 3.9 45.4 13.7 35.4 16.3 39.9 18.1 54.6 22 29.3 7.6 58.7 7.1 80.3-1.5 26.8-10.6 46.1-33.3 46.1-54.4 0-5.4-2.4-16.4-4.2-19.1-.7-1.2-.8-1-.3.5m376.9 7.7-1.9 2.3 2.3-1.9c2.1-1.8 2.7-2.6 1.9-2.6-.2 0-1.2 1-2.3 2.2m-6.5 6.5-2.4 2.8 2.8-2.4c1.5-1.4 2.7-2.6 2.7-2.8 0-.8-.8-.1-3.1 2.4M1751.3 464c-9.1 4.1-17.2 15.6-21 30-2.4 9-2.3 31.4.1 43 2.6 12.3 6.4 25.1 10.3 34.9 4 10.1 13 29.1 13.7 29.1.2 0-1.9-5.1-4.9-11.3-13.6-28.6-20.5-57.6-19.2-80.5 1.7-28.1 11.5-43.9 28.8-45.9 4.2-.5 4.9-.3 4.9 1.2 0 1-1 3.4-2.2 5.4-5 8-2.2 20.9 7.9 36.5 9.8 15.2 20.4 22.7 33.5 23.6 4.2.3 7.4.2 7.1-.3-.2-.4-1-.7-1.8-.7s-1.9-.8-2.4-1.8c-.6-.9-1.1-1.1-1.1-.5 0 .9-1.6 1.3-4.8 1.3-10.8 0-23.1-10.1-31.9-26.2-6.5-11.9-7.6-15.5-7.1-23.8.3-5.5.9-7.4 3.1-10.4 5-6.5 9.3-4.6 16.2 7.2 2.5 4.2 4.5 7.2 4.5 6.7 0-2-8.2-14.4-11.1-16.9-2.7-2.3-3.9-2.6-10.7-2.6-5.4 0-9 .6-11.9 2"/><path d="M1785.2 483.5c.3.5 4 8.5 8.3 17.7s8 16.6 8.2 16.4c.5-.4-14.7-32.9-15.9-34.1q-1.05-1.05-.6 0m17.8 38c0 .5.5 1.7 1 2.5s1 1 1 .5c0-.6-.5-1.7-1-2.5s-1-1.1-1-.5m9 13c3.4 8.9 21.3 41.9 25.5 47 1.8 2.2.8.2-7.4-13.6-2.7-4.7-8-14.6-11.6-22-6.6-13.4-8.6-16.8-6.5-11.4m33 58.5c3.3 4.9 6.3 9 6.6 9 .2 0-2.3-4.1-5.6-9-3.3-5-6.3-9-6.6-9-.2 0 2.3 4 5.6 9m-89.3 10.7c1 2.5 10.2 17.6 11.6 18.8.6.5.1-.6-1.1-2.5s-4.1-6.8-6.3-10.8c-3.9-6.9-5.6-9.2-4.2-5.5m96.3-.3c0 .2.8 1 1.8 1.7 1.5 1.3 1.6 1.2.3-.4s-2.1-2.1-2.1-1.3m3.5 4.6c1.1 1.9 7.7 10.7 10.6 14s.7-.1-5-7.6c-4.7-6.4-6.9-8.9-5.6-6.4m19.3 9.9c2 4.4 3.9 7.8 4.1 7.6.4-.5-6.6-15.5-7.3-15.5-.2 0 1.2 3.6 3.2 7.9m-105.4 8.6c.8 1.6 2.2 3.9 3.1 5 1.5 1.9 1.5 1.8.1-1-.8-1.7-2.2-3.9-3.1-5-1.5-1.9-1.5-1.8-.1 1m100.2.7c1 1.4 2.1 2.4 2.3 2.2.3-.3-.6-1.5-1.8-2.7l-2.4-2.2zm9.4.3c0 .5.5 1.7 1 2.5s1 1 1 .5c0-.6-.5-1.7-1-2.5s-1-1.1-1-.5m-4 5.9c0 .2.8 1 1.8 1.7 1.5 1.3 1.6 1.2.3-.4s-2.1-2.1-2.1-1.3m-100.7 1.3c.2.5 5.8 11.8 12.5 25.3 7.1 14.4 18.5 35.2 27.7 50.5 8.6 14.2 15.9 26.2 16.2 26.5 1.2 1.1-2.3-5.1-15.8-27.6-7.6-12.8-19.7-34.9-26.8-49.3-7.2-14.4-13.4-26.1-13.7-26.1s-.3.3-.1.7m122.3 9c-.6 1.4-.5 1.5.5.6.7-.7 1-1.5.7-1.8s-.9.2-1.2 1.2M1145 653c1.1 2.2 2.3 4 2.5 4 .3 0-.4-1.8-1.5-4s-2.3-4-2.5-4c-.3 0 .4 1.8 1.5 4m4.5 7.9c.8 1.7 1.9 3.3 2.5 3.6.5.3.1-1-1.1-2.9-2.5-4.3-3.6-4.8-1.4-.7m-24.8 5.2c-7.9 4.6-8.7 26.7-2 56.9 2.2 10.1 9.9 31.7 13.8 39 2.4 4.3 1.7 1.8-2-6.8-4.8-11.4-10.1-29-12.1-39.7-.9-5-1.9-15.6-2.1-23.6-.6-15 .2-20.3 3.4-23.4 1.9-1.9 6.3-1.9 9 0 3 2.1 12 14.4 18.6 25.5 7.3 12.2 7.4 10.9.2-1.8-6.4-11.2-14.6-21.7-19.4-24.9-3.8-2.5-4.8-2.7-7.4-1.2m611.3 6.4c-5.2 1.4-26.1 7.9-46.5 14.6-20.3 6.6-44 14.3-52.5 17.1-16 5.2-32.5 11.8-34.4 13.9-.6.6 1.2 0 3.9-1.4 6.4-3.1 20.9-8.1 72.5-25 51.9-16.9 59.9-19.1 71-19.1 9.2 0 14.8 1.8 21.9 7.1l3.6 2.6-2.3-2.5c-3.5-3.8-14.9-8.7-21.8-9.3-4.4-.4-8.3.1-15.4 2m166 .5c1.2 1.6 2.4 3 2.6 3 .3 0-.4-1.4-1.6-3-1.2-1.7-2.4-3-2.6-3-.3 0 .4 1.3 1.6 3m-596.5.9c-4.2 1-16.7 5.9-18.5 7.2-1.2.9-1.1.9.5.4 22.8-8.1 29-8.9 41-5.2 4.4 1.3 12.5 4.3 18 6.6 10.6 4.5 23.7 8.4 50.5 15.1 22.3 5.6 42.6 12.4 49.4 16.5 3.1 1.8 5.6 3 5.6 2.6 0-1.4-15.6-9-25.9-12.5-5.8-2-23.1-6.8-38.5-10.7-25.7-6.4-39.9-10.9-50-16-8.5-4.3-23.2-6.1-32.1-4m601.2 10.3c.6 7.3 1.1 8.3 1.2 2.3 0-2.8-.3-5.6-.8-6.3-.5-.8-.6.8-.4 4m-631.2 1.9c-13.1 6.7-24 15.6-29.6 24.3-4.5 6.9-5 10.7-1.5 12.5 2 1.1 4.7.8 18.7-2.2 28-6 29.7-6.2 46.9-6.2 14.8 0 17.6.3 27.5 2.9 16 4 47.5 14.8 47.5 16.2 0 .8-6 1.3-21.2 1.7-21.1.5-28.9 1.6-40.1 5.3-7.4 2.5-5.2 2.4 4.8-.1 5-1.2 13.6-2.6 19.3-3 8.9-.6 10.2-.5 10.2.9 0 .9-.8 1.6-1.8 1.6s-5.6 1-10.3 2.1c-11.4 2.9-20.1 7.4-33.9 17.4-7.4 5.4-21.2 12.5-27.4 14.1-2.8.8-10.7 1.8-17.6 2.4-16.8 1.4-18.4 1.8-26.5 5.5-12.3 5.6-20.8 18.1-24.1 35.6-3.7 19 1.3 48.1 13.1 77.1 7.3 17.8 13.1 28.6 28.5 52.8 27 42.5 31.9 56.3 37 103 5.2 48 6.9 57.9 11.6 67.4 2.7 5.3 7.5 11 10.9 12.8 1.1.6.1-.6-2.3-2.7-9.4-8.2-11.9-17.8-17.2-64.4-4.3-38-6.2-48.9-11-63.2-5.1-15.4-10.5-25.3-34.6-63.9-18.8-30.2-30.3-59.6-34.4-87.8-1.5-10.3-.8-31.8 1.3-38.3 4.1-12.7 11.1-22 19.9-26.5 6.1-3.1 11-4.1 27.9-5.9 15-1.6 22.7-3.7 33.1-9.2 5.6-2.9 7.1-3.3 8.3-2.3s1.5.9 1.5-.4c0-.9 1.2-2.8 2.8-4.2 3-2.7 22.1-12.2 26.2-13 2.6-.6 2.7-.5 3.3 5.6 1.1 10.4 6.7 20.8 13.8 25.4 5.2 3.5 6.2 3.3 1.3-.3-9.1-6.7-12.7-13.8-12.8-25.1-.1-7.2 0-7.5 2.7-8.8 3.9-1.9 18.4-4.8 19.3-3.9.4.4 0 2.3-.9 4.2-.9 2-1.7 4.8-1.7 6.4 0 3.7 3.6 9 7.8 11.4 2.9 1.7 3.9 1.8 7.2.8 2.2-.6 4.2-1.6 4.5-2.1.4-.6-.4-.6-2 0-5 1.9-9.4 1.2-12.6-1.9-2.4-2.5-2.9-3.8-2.9-8 0-2.7.5-6.2 1.2-7.6.9-2.1 1.8-2.5 5.4-2.5 2.3 0 5.4.4 6.8 1 2 .7 2.6.6 2.6-.5 0-.7 1-1.6 2.3-1.8 1.2-.2.1-.5-2.5-.6-3.5-.1-4.8-.5-4.8-1.6 0-1.2 1.7-1.5 9.3-1.4 5 0 12.8.6 17.2 1.3 4.4.8 8.2 1.2 8.4 1s-.1-.4-.7-.4c-.7 0-1.2-.6-1.2-1.4 0-1.1 1.4-1.3 6.8-.9 9.3.7 29.3 4.8 39.3 8.1l8.4 2.8-.2 7.7c-.2 7.7-3.1 20.4-5.8 25.8-.9 1.6-1.3 2.9-1 2.9s1.7-2.4 3.1-5.4c2.8-6.2 5.4-17.1 5.4-23.4 0-5 1.5-5.4 5.3-1.4 5.9 6.2 9.9 20.8 11.8 43.7 1.5 17.7.6 64.1-1.5 77.6-1.5 9.6-2.2 12.4-9 35.8-4.6 15.6-5.4 24.3-3.2 33.1 2.2 8.7 6.8 17.8 10.7 21.5l3.3 3-2.8-3.4c-12-14.8-13.5-32.6-5.1-59.1 8.8-28.1 11.2-48.2 10.2-87.5-.7-24.2-1.6-33-4.8-45.7-2.8-11.1-5.1-15.8-10.1-20.9-4-4-4.5-5-5.1-10.3-.7-6.9-5.3-17-9.4-20.6l-2.7-2.5 1.7 2.5c5.7 8.4 6.9 10.7 8.4 17 .9 3.8 1.4 7.2 1 7.6-.3.4-5-.8-10.4-2.5-14.3-4.6-28.5-7-46.2-8-15.1-.8-16-1-28.6-5.5-35-12.7-54.5-17.6-69.5-17.6-9.4 0-30.3 3.1-44 6.6-5.8 1.4-13.1 2.8-16.2 3.1l-5.8.6v-3.5c0-9 16.6-24.7 34.5-32.9 5.9-2.6 7.8-3.9 5.8-3.9-.5 0-4.4 1.9-8.8 4.1m508.4 4.7c4 4.5 7.8 8.5 8.5 8.9 1.5.9-10.6-12.7-13.5-15.2-1.3-1.1.9 1.7 5 6.3"/><path d="M1918.5 686.5c8.6 12 20.1 24.7 44.5 49 26.4 26.3 30.6 30.8 55.5 60 6.6 7.7 17.1 19.3 23.3 25.8 6.3 6.8 11.2 12.8 11.2 13.9 0 1.9-1.4 1.9-81.1 1.4-66.2-.3-81.3-.7-82-1.8-.6-.9-.9-.7-.9.9 0 1.8-.7 2.2-6.2 2.8-11.5 1.2-31 4.5-39.5 6.7-4.6 1.1-8.6 1.8-8.9 1.5-.4-.3.1-4.6 1-9.4 5-27.7 4.4-58.2-1.4-76.8-2.2-7.3-5-13.9-5.5-13.3-.2.2.7 3.3 2.2 6.8 3.8 9.4 5.3 19.5 6 38.5.5 17-1.3 41.8-3.9 52.2-.9 3.7-1.4 4.3-3.7 4.3-5.2 0-19.5 4.1-27.5 7.9-9.2 4.2-17.3 11.6-21.1 19.1-7.1 14-8.8 33.9-7.5 85 1.1 41.7 1.9 50.7 6.6 72.5.8 3.8 1.9 9.9 2.3 13.5.8 6.1.9 6.2 1 1.8 0-2.6-1.2-11.4-2.8-19.5-4.3-21.5-5.1-33.8-5.3-81.8-.2-39.8-.1-43.8 1.8-54 3.6-19 9.8-27.8 24.8-35 7-3.3 21.6-7.5 26.6-7.5 1.4 0 4.8-.9 7.6-1.9 6.1-2.3 26.8-6.4 44.4-8.7 23.5-3 164-3.1 164 0 0 .6-2.2 1.7-5 2.3-2.7.7-10.7 4-17.7 7.3-32.7 15.7-55.7 24.1-117.8 43-51 15.5-66.8 22-77.9 32.1-12.1 11.1-14.2 18.8-17.2 61.8-1.4 20.3-1.5 27.2-.4 49.1 1.8 40.4 2.3 42.2 27 108 9.1 24.3 15 42.9 15 47.4 0 1.4.4 2.6.9 2.6s1.1 1 1.5 2.3c.3 1.2 2.1 4.1 4 6.3 8.2 9.6 23.3 7.7 35.3-4.2 5.2-5.3 11.9-18.7 15.4-30.9 3.3-11.6 3.3-31 .1-45.4-3-13.4-7.4-25.8-12.3-34.8-2.1-4-3.9-7.7-3.9-8.3s1.3-2.8 3-4.8c10.1-12.7 12.5-32.4 6.4-54-1.5-5.1-2.4-9.5-2.2-9.7.3-.3 2.8-.1 5.6.5 5.4 1 13.8 0 17-2.1 1.5-.9 1.4-1-.3-.4-4.4 1.4-15.4 1.7-20.3.5-4.7-1.1-5.3-1.6-8.3-6.8-4.1-7.3-17-20.5-19.5-20-5 .9-.2 12 7.6 17.6l3.5 2.5-3.1-3c-5.1-5-8.4-9.9-8.4-12.6 0-3.7 1.4-3.4 6.8 1.4 11.4 9.9 16.8 21 7.4 15.2-1.6-1-2.2-1.1-1.5-.3.7.7 3.4 2.5 6 3.9 4.5 2.5 4.9 3 7.8 11.1 2.8 8 2.9 9.4 3 23.5 0 13-.3 15.8-2.2 20.8-2.4 6.4-8 14.6-10.1 14.7-.7 0-4.1-.9-7.5-2.1-4.3-1.5-7.5-1.9-10.5-1.5-7.9 1.1-7.8 2.3.2 1.8 7.9-.5 13.6.9 13.6 3.3 0 3.1-14.1 4.8-19.5 2.3-1.4-.6-2.5-2-2.5-3 0-1.1-.4-1.6-1-1.3-2.2 1.3-.8 3.7 3.3 5.5 5.4 2.5 9.3 2.5 16.9-.1 3.3-1.1 6.6-1.8 7.2-1.6 1.5.6 8.2 14.2 11.2 22.9 5.2 14.8 6.9 25.2 6.9 42.8 0 15.9-.2 16.8-3.2 25.7-8.8 25.3-18.8 35.3-35.2 35.3-6.9 0-11.3-2.4-14-7.8-1.1-2.1-3.8-10.2-6-17.9-2.3-7.8-6.4-20.2-9.2-27.5-8.6-22.4-21.7-58.5-23.3-64.1-4.6-15.7-7.6-44.6-7.6-72.2 0-19.8 3.2-61.6 5.6-73 1.8-8.6 10.1-18.7 20.6-25.1 10.2-6.2 26.9-12.2 72.3-25.9 52.3-15.8 80.2-26 108.5-39.6 11.7-5.6 22.9-10.3 25.9-10.9 11.5-2.2 14.4-1.4 28.5 7.3 8.2 5.1 10.8 4.9 6.5-.3-1.4-1.7-2.2-2.1-2.6-1.3-.2.7-.9 1.3-1.4 1.3-1.7 0-10.9-6.5-10.9-7.8 0-1.5 3.2-1.6 4.7-.1.9.9 1 .7.6-1-.3-1.3-.1-2.1.7-2.1 3.8 0 18.4 4.6 23.8 7.6 16.7 9.1 22.8 17.6 47 65.4 21.1 41.6 33.3 64 34.9 64 .3 0-.4-1.5-1.5-3.3-6.3-10.3-17.8-31.8-29-54.4-21.3-42.6-27.4-52.7-38.6-63.8-9.6-9.5-24.4-15.6-43.8-18-4.3-.6-5.2-1.2-11-7.8-3.4-4-10.3-11.5-15.2-16.7s-13.4-14.9-18.9-21.5c-18.8-22.4-24-28-52.7-56.5-16.7-16.5-32.2-32.9-37-39-8.7-11.1-12.3-15.2-7.5-8.5m142.5 154c0 .8-.9 1.5-2 1.5s-2-.7-2-1.5.9-1.5 2-1.5 2 .7 2 1.5"/><path d="M1899.2 691.2c2.9 2.9 5.2 3.5 6.3 1.8.4-.6-.6-1-2.1-1s-3.7-.8-4.9-1.8c-1.1-.9-.8-.5.7 1M1796 705c1.7 2.2 3.7 4.3 4.3 4.7s-.6-1.4-2.7-4-4-4.7-4.3-4.7 1 1.8 2.7 4m-242.6-.3c-2.3 2.3-1.4 12.3 1.6 18.3 2.6 5.2 6 9.8 6 8.2 0-.6-.5-1.4-1.1-1.8-2.8-1.7-5.9-11-5.9-17.7 0-6.4.1-6.7 2.4-6.7 1.3 0 3.1 1 4 2.2l1.7 2.3-1.1-2.2c-.9-2-3.8-4.3-5.4-4.3-.2 0-1.2.8-2.2 1.7m-396.2-.2c.8 2.7 10.2 21.4 10.5 21.1.4-.4-6.4-15.1-8.9-19-1.1-1.7-1.8-2.6-1.6-2.1m588.3 5.2c-1.1.2-7.6 1.7-14.5 3.3-11.3 2.6-29.9 7.8-62 17.6-20 6.1-51.1 13.4-60 14-10.4.8-22.5-.8-27.9-3.7-2.3-1.1-4.1-2.4-4.1-2.8s-.6-1.6-1.4-2.6c-1.3-1.8-1.4-1.8-.9.8.6 3.1-.4 3.4-4.9 1.1-1.6-.9-2.7-1.1-2.4-.6.3.6 3 2 6 3.2 3.4 1.5 5.8 3.2 6.5 4.7 2.4 5.2 9.3 13.3 13.4 15.7 9.3 5.4 13.9 4.5 31.3-5.8 12.5-7.4 21.5-10.7 37.4-13.6 7.9-1.5 39.1-1.4 47.5.1 9.3 1.6 17.5 4 22.8 6.6 2.7 1.4 5.1 2.2 5.5 1.9.7-.7-8.8-4.9-15.9-7-9.5-2.9-23.9-4.6-39.1-4.6-13.3 0-15.8.3-28.1 3.4-15.1 3.8-23.5 7.2-32 12.9-11.4 7.6-19.5 9.5-27 6.3-3.9-1.6-13.7-12.2-13.7-14.8 0-2.1.8-2.1 7-.7 7.3 1.7 22.5 1.2 33.1-1 17.9-3.7 39.4-9.2 52.9-13.6 51.2-16.4 75-21.6 91.5-20 8.6.8 14.5 3.5 18.2 8.3 2.7 3.5 2.8 4.2 2.8 14.2-.1 9.8-.3 10.9-3.2 16.6-3.4 6.5-7.8 11-12 12-1.3.4-5.2.4-8.5.1-4.9-.4-7.5-1.5-14.6-5.8-10.3-6.2-10.2-6.1-10.2-5.6 0 1 18.8 11.8 22 12.7 11.8 3.4 21-2.8 26.4-17.8 6.1-16.9.7-30.4-13.8-34.7-4.7-1.4-23.2-1.9-28.1-.8m-178.3 11c4.9 10.3 8 15.8 5.9 10.2-1.4-3.9-10-20.9-10.5-20.9-.3 0 1.8 4.8 4.6 10.7m233.8-9.4c0 .2 1.5 1.6 3.3 3.3l3.2 2.9-2.9-3.3c-2.8-3-3.6-3.7-3.6-2.9m14.9 17.1c3.4 4.3 7.3 10 8.7 12.7 1.3 2.7 2.7 4.9 2.9 4.9 2 0-10.2-18.6-15-23-1.6-1.4 0 1 3.4 5.4m-221.5-4.2-1.9 2.3 2.3-1.9c2.1-1.8 2.7-2.6 1.9-2.6-.2 0-1.2 1-2.3 2.2m-31.4 9.2c0 .2.8 1 1.8 1.7 1.5 1.3 1.6 1.2.3-.4s-2.1-2.1-2.1-1.3m-384.8 11.1c0 3.8.6 11 1.3 16l1.4 9-.5-10c-.3-5.5-.9-12.7-1.4-16l-.7-6zm658.6 5.2c7.8 16 12.1 24.3 12.7 24.3.3 0-3.5-8.1-8.5-18s-9.2-18-9.4-18c-.3 0 2.1 5.3 5.2 11.7m-448-8c.6.2 1.8.2 2.5 0 .6-.3.1-.5-1.3-.5s-1.9.2-1.2.5m6 1c.7.3 1.6.2 1.9-.1.4-.3-.2-.6-1.3-.5-1.1 0-1.4.3-.6.6M1313 745c-1.9 1.1-3 1.9-2.5 1.9.6 0 2.6-.8 4.5-1.9s3.1-1.9 2.5-1.9c-.5 0-2.6.8-4.5 1.9m86.8-1.3c4.5 1.8 5.8 16.8 2.1 23.8-5.4 10.2-14.7 15.8-26.4 15.9-3.8.1-8.6-.2-10.5-.6l-3.5-.7 3 1.4c4 1.9 15.1 1.9 20.6 0 6-2.1 14.9-9.5 17.5-14.7 2.8-5.5 4.5-13.9 3.8-17.8-.4-1.9-.2-3 .5-3 1.7 0 14.4 6.5 23.1 11.9 4.1 2.5 8.8 5.2 10.5 5.9 3 1.4 3 1.4 1.1-.7-1-1.1-2.8-2.3-4-2.7-1.1-.4-5.7-3.3-10.1-6.4-9.1-6.5-12.5-8.4-20.3-11.1-4.8-1.7-11-2.7-7.4-1.2m-14.8 1.7c0 .2.8 1 1.8 1.7 1.5 1.3 1.6 1.2.3-.4s-2.1-2.1-2.1-1.3m41.5.5c.6.5 3.3 1.9 6 3.1 2.8 1.2 4.6 1.7 4 1.2-1.4-1.3-11.3-5.6-10-4.3"/><path d="M1678.5 745.7c-1.6.3-3.8 1.1-4.8 1.8-1.7 1.2-1.4 1.3 2.2.8 2.6-.4 4.6-.1 5.6.7 1.2 1 1.5 1 1.5-.4 0-1.3 1.2-1.6 7-1.6 9.5 0 13.3 1.7 15.3 6.9 4.7 11.6-.9 25.7-12.7 31.9-4.6 2.4-6.1 2.7-15.6 2.7-12.8 0-18.2-1.8-23.5-7.7-5.9-6.5-7.8-11.9-7.8-22.1 0-4.8-.3-8.7-.6-8.7s-1.3.5-2.1 1c-1 .6-1.1 1-.2 1 .8 0 1.2 2.1 1.2 6.9 0 13.3 5.6 22.8 16.8 28.3 6 3 7.5 3.3 15.7 3.3 7.7 0 9.8-.4 14.8-2.7 12.6-5.9 20-20.4 16.3-31.8-.9-2.7-1.6-5.4-1.6-5.9 0-2.1 3.9-1.1 12.7 3.3 11.1 5.6 21.3 14.5 21.3 18.6 0 5.4-10.4 12.5-27.9 19-22.5 8.3-42 7.6-72.4-2.4-15.1-5-17-5.3-26.7-4.2-5.4.7-6.8.5-7.9-.8-2.6-3.1.5-7.1 11.8-15.6 5.8-4.4 13.6-9.6 17.4-11.6 6.9-3.6 8.7-5.1 4.1-3.4-7.2 2.8-28.1 17.5-32.9 23.2-2.7 3.2-3.3 7.2-1.2 8.5.6.4 6.2.8 12.2.9 9.3 0 12.1.4 18.5 2.7 15.1 5.5 23.8 7.7 35.9 9.3 10.3 1.4 13.6 1.4 19.8.4 27.3-4.4 54.8-19.6 50.3-27.9-2-3.8-13.4-13.1-20.9-16.9-11.2-5.9-20.1-8.2-30.2-8.1-4.6.1-9.7.4-11.4.6m-290.5 7c0 2.2-.3 4.3-.7 4.9-.5.5 0 .1 1-.9 1.9-2.1 2.3-6.2.7-7.2-.6-.4-1 .9-1 3.2"/><path d="M1668.7 750.8c-.9 1-2.2 3.3-2.8 5-1.6 4.6 1.3 10.1 6.6 12.6 3.6 1.7 4.4 1.7 8 .5 6.9-2.4 9.4-9.9 5-15.4-1.6-2-1.6-2-.6.2 1.7 3.5 1.3 8.8-1 11.7-1.7 2.1-2.9 2.6-6.5 2.6-3.7 0-5.1-.6-7.5-2.9-3.6-3.7-4-9.4-.8-13.5 2.3-3 2-3.5-.4-.8m-506.6 9.6c-5.2 13.9-5.3 20.4-.3 31 1.7 3.6 3.3 6.6 3.6 6.6s-.9-3-2.6-6.6c-4.1-8.8-4.2-18.6-.4-28.8 1.5-3.8 2.4-7.1 2.2-7.3-.2-.3-1.3 2.1-2.5 5.1m-24.1 4.7c0 .3 1.8 4.4 3.9 9 5.3 11.3 9.7 24.6 11.2 34.2.6 4.3 1.4 7.5 1.6 7.3 1-1-2.9-20.1-5.6-27.4-2.6-7.1-10.9-24.5-11.1-23.1m175 4.4c1.3 1.4 2.6 2.5 2.8 2.5.3 0-.5-1.1-1.8-2.5s-2.6-2.5-2.8-2.5c-.3 0 .5 1.1 1.8 2.5m132.5-.5c1 1.1 2 2 2.3 2s-.3-.9-1.3-2-2-2-2.3-2 .3.9 1.3 2m-264.3 5c0 1.9.2 2.7.5 1.7.2-.9.2-2.5 0-3.5-.3-.9-.5-.1-.5 1.8m267.8-.6c0 .2.8 1 1.8 1.7 1.5 1.3 1.6 1.2.3-.4s-2.1-2.1-2.1-1.3m-128.4 1.8c.9 1.4 12.8 7.6 19.4 10.1 9.5 3.5 19.1 5 31.5 5 12 0 18.9-.8 42.5-5.4 13.3-2.6 17.1-3 26.5-2.5 8 .3 9.5.2 5.5-.4-8.6-1.3-18.3-1.1-25.7.4-16.9 3.6-35.4 5.8-48.8 5.8-18.2.1-27.4-1.8-41.2-8.7-5.6-2.8-10-4.8-9.7-4.3"/><path d="M1301.4 781.6c.8 18.5 15.4 34.1 37.4 40 8.3 2.2 24.4 2.9 34.3 1.5 13.9-2 32.8-9.1 50-18.8 8.4-4.7 20.9-13.1 20.9-13.9 0-.7-1.7.3-5.5 3.1-5.3 3.9-21.8 13-31 17.2-19 8.7-35.2 12-53.5 11-30.5-1.7-47.1-14.3-51.5-39.4l-1.4-7.8zm150.6-2.1c.1 2.6.2 2.8 1.1 1.2.8-1.4.8-2.2 0-3s-1.1-.3-1.1 1.8m403.1 5.2c2.3 4.3 4.9 8.5 5.7 9.3s.5-.3-.8-2.5c-1.2-2.2-3.6-6.4-5.2-9.3-4.7-8.2-4.4-6.1.3 2.5m7.4 12.3c1.7 3.1 12.5 18.6 15 21.5 2.1 2.4 2 2.1-.4-1.5-1.7-2.5-5.4-7.9-8.3-12-4.9-7.3-8-11.2-6.3-8m-685.6 23.5c1.9 4.6 3.7 8.2 3.9 8 .5-.4-5.8-15.4-6.7-16-.5-.2.8 3.3 2.8 8m703.1 1.9c0 .2.8 1 1.8 1.7 1.5 1.3 1.6 1.2.3-.4s-2.1-2.1-2.1-1.3m5 6.6c1.2 1.6 2.4 3 2.6 3 .3 0-.4-1.4-1.6-3-1.2-1.7-2.4-3-2.6-3-.3 0 .4 1.3 1.6 3m-703.9 1.5c.1 1.9 1.8 5.1 1.8 3.5 0-.8-.4-2.2-.9-3s-.9-1.1-.9-.5m256.3 91.2c-8.9 9.7-14.1 23.7-12.9 34.8 1.7 16.4 12.4 27.4 29.6 30.6 8 1.5 11.2.4 7.9-2.6-2-1.8-2-1.8-2 .4 0 2-.4 2.2-3.2 1.6-1.8-.3-6.7-1.8-10.8-3.2-12.9-4.6-18.3-12.3-19.7-27.8-1-12.4 3.1-23.8 12-33.2 2.7-2.9 4.6-5.3 4.2-5.3-.5 0-2.8 2.1-5.1 4.7m158.2 8.3c4.7 9.6 6.7 17.9 6.6 27.8 0 15.4-7 24.8-22.3 30.1-3 1-7.4 2.2-9.7 2.6-3.4.5-4.2.4-4.2-.9 0-.8 1.2-2.3 2.8-3.3 3.8-2.5 5.1-4.4 5.2-7.4.1-9.3-16.3-6-29 5.8-3.3 3-6 6-6 6.6s2.8-1.6 6.3-5c7.3-7.3 15.1-11.3 22-11.3h4.7v3.5c0 2.6-.7 4.1-2.7 5.8-1.5 1.2-4.3 3.7-6.1 5.5-3.3 3.1-3.4 3.5-3 8.8.3 3 1 6 1.7 6.7 1 .9 1 .6.2-1.6-1.8-4.6-1.4-8.5 1-9.8 1.2-.6 5.7-2 10.1-3 14.1-3.4 22.9-9.3 27.5-18.7 2.5-5.2 2.8-6.6 2.7-16.2 0-9.2-.4-11.5-3.1-18.5-3.2-8.4-6.4-14.5-7.4-14.5-.4 0 .9 3.2 2.7 7m360.9 16.4c-6.6 7-18.8 34.2-20 44.7-.6 4.9-1.1 5.8-6.3 10.8-4.7 4.4-4.9 4.7-1.5 2.1 2.4-1.7 4.5-3.6 4.8-4.1 1.2-1.8 3.1-.8 4.9 2.6 1 1.9 2.8 4.2 3.9 5.2 1.6 1.4 1.4.9-.6-2.2-4.4-6.8-4.5-9.1-.4-13.3 11-11.5 23.4-38.4 21.3-46.5-.9-3.6-2.2-3.4-6.1.7m4.5 3c0 7.8-7.4 25-15.5 36.1-4.1 5.6-7.5 7.2-7.5 3.5 0-5.5 13.5-35.6 18.3-40.8 3-3.2 4.7-2.8 4.7 1.2M1485.5 971c1 1.1 2 2 2.3 2s-.3-.9-1.3-2-2-2-2.3-2 .3.9 1.3 2"/><path d="M1454.6 971.6c-2.4 2.3-1.9 5 1.5 8.6l3.1 3.3-2.6-3.4c-2.9-3.7-3.1-6.8-.4-8.5 1.3-.8 3.3-.7 7.7.5 3.3.8 5.8 1.2 5.6.8-.6-.8-8.6-2.9-11.4-2.9-1.1 0-2.7.7-3.5 1.6m34.9 2.5c1.2 1.8 12 6.6 19 8.3 3.9 1 7.8 2.2 8.9 2.8 1.3.7 1.7.6 1.4-.3-.2-.7-3.1-1.8-6.4-2.5-7.4-1.6-13.6-3.8-19.1-6.9-2.4-1.3-4.1-2-3.8-1.4m-11.9 4.9c9 11.2 9.8 14.6 2.2 10-5.4-3.3-5.6-2.3-.2 1.2 6.7 4.2 20.2 10.6 24.2 11.4 2.8.6 3.2.4 3.2-1.4 0-1.3.8-2.2 2.3-2.5 1.2-.2-.2-.5-3.2-.6-7.5-.2-14.8-4.4-23.6-13.5-3.8-3.9-6.1-6-4.9-4.6m699.1 2.8c1.5 2.8 3.6 6.2 4.6 7.5 2.1 2.6-3-6.8-5.6-10.4-1-1.3-.5 0 1 2.9m-159.8 12.3c-6.1 3.3-16.9 13.1-18.8 16.9-1.2 2.4-1.1 2.4.4.5 4-5.1 11.5-12 16.6-15.1 8.5-5.1 15-4.2 11.9 1.6-.9 1.7-.9 2.1 0 1.5 1.8-1.1 2.8-4.8 1.8-6.8-1.3-2.5-5.5-2.1-11.9 1.4m167.1-.1c.6 1.1 1.3 2 1.6 2 .2 0 0-.9-.6-2s-1.3-2-1.6-2c-.2 0 0 .9.6 2m-651.5 2.5c-3.9 3.3-7.6 4.4-17.1 5.4l-7.9.8 6.1.2c7.7.1 15-2 19.4-5.8 4.2-3.6 3.8-4.1-.5-.6m654.7 2.7c.8 1.3 4.5 7.4 8.2 13.5 3.8 6.2 7 11.3 7.3 11.3.6 0 .8.4-8.1-14.3-4.3-7-8-12.7-8.3-12.7s.1 1 .9 2.2m-165.3 5.5c-1.3 1.6-1.2 1.7.4.4.9-.7 1.7-1.5 1.7-1.7 0-.8-.8-.3-2.1 1.3m-560.6 2.3c-3.5 1.6-6.3 3.1-6.3 3.5 0 .3.9.1 1.9-.5 4.7-2.4 5.6.3 1.5 4.1-6.3 5.7-21.2 27.5-27.8 40.7-5.4 10.7-4.3 10.1 1.5-.8 8.2-15.6 19.6-31.8 28.2-40.3 4.3-4.3 7.7-8.2 7.5-8.6-.2-.5-3.1.4-6.5 1.9m10.9 3.6c-4 3.9-4.2 4.2-1.1 2 4.2-3 5.9-3.3 5.9-.9.1 1.3.5 1 1.6-1 1.5-2.7 1.2-4.7-.7-4.7-.6 0-3.1 2.1-5.7 4.6m545.7-2.9c-1.3 1.6-1.2 1.7.4.4.9-.7 1.7-1.5 1.7-1.7 0-.8-.8-.3-2.1 1.3m-450.6 3.7c2.6 2.4 6.7 5.9 9 7.7 6.1 4.7 2.4 1.2-6.3-6.1-4.8-4-5.8-4.6-2.7-1.6m-11.9.2c.3 2.2 2.9 8.9 5.7 14.9 5.5 11.8 12.6 32.2 13.6 39.2.5 3.6.3 4.3-1.1 4.3-2 0-10.9-18.1-20-40.6-5.9-14.4-9.3-21.1-10.3-20.1-1.3 1.4-.2 9.4 2.7 19.6 4 14.2 8 31.8 8 35.5 0 2.4-.3 2.7-2.1 2.3-2-.5-2-.5-.4 1.3 5.2 5.8 4.4-4.6-2.5-31.4-2.7-11-4.8-20.1-4.6-20.4 1.6-1.5 3.8 2.1 8.5 14.4 9 23.1 20 44.4 23.1 44.4 3.7 0-3.9-27-13.4-47.7-4.9-10.6-5.5-13.3-3.2-13.3 1.9 0 5.6 4.9 9.5 12.7 1.7 3.5 3.4 6.3 3.7 6.3 1.7 0-8.4-16.3-12.7-20.5l-5.1-5zm-66.4-.4c-1.9 1.3-4.9 4.5-6.8 7.3l-3.5 5 4.7-5.3c4.9-5.3 7.6-6.6 7.6-3.5.1 1.5.2 1.6.9.3 1.5-2.7 2.3-6 1.3-6-.5 0-2.4 1-4.2 2.2m458.4.6c2.7 2.9 2.8 3.5 2.2 8.6-.9 8.1-6.1 27.3-10.1 37.8-3.7 9.4-16.4 33.2-23.6 44.1-2.2 3.3-3.7 6.2-3.4 6.5.6.7.2 1.3 6.9-9.6 7.7-12.7 17.8-32.1 21.5-41.5 4.1-10.3 10.1-33.1 10.1-38.4 0-2.4.5-4.3 1.3-4.6.7-.3.5-.6-.5-.6-1-.1-1.8-.4-1.8-.9 0-.4-1.3-1.6-2.8-2.6l-2.7-1.9z"/><path d="M2007.5 1013.6c-9.1 5-12 5.6-11.2 2.3.5-1.7-.1-1.4-2.2 1.2l-2.9 3.4-9.8-.1c-9.2 0-12.9-.7-26.1-5-1.5-.5-1.6-.4-.3.5.8.6 5 2.2 9.3 3.6 6 1.9 9.9 2.5 17.3 2.5 10.6 0 10.9.2 7.8 7.6-2.2 5.3-3 21.7-1.4 28.5.7 2.9 3.4 10.8 6.1 17.5 6 15.5 8.2 22.9 11.3 38.9 4 20.3 4.4 24.2 6.6 54.5 1.1 15.7 2.2 30.3 2.5 32.5 6 51.8 15.7 83.8 34.1 111.5 17.6 26.6 38.5 38.2 58.5 32.4 4.8-1.4 17.9-7.9 17.9-8.9 0-.2-3.8 1.4-8.5 3.6-10.7 5-17.6 6.4-26.1 5-8.7-1.3-17.4-6.2-26.3-14.6-8.9-8.5-14.1-15.6-21.5-29.5-17.3-32.8-24.9-67-28.6-128-2.5-41.7-7.4-68.2-17.6-94.7-7.5-19.4-8.9-26.8-7.5-38.6.6-5.1 1.9-11.4 2.9-14.1 1.7-4.4 2.3-5 7.1-6.7 5.2-1.8 11.6-5.2 15.6-8.3 3.1-2.4 1.6-1.8-7 3m-569.5 7.9c-16.4 11.1-22.9 14.2-47.4 23.1-8.2 2.9-17.3 6.8-20.4 8.6-6.1 3.7-15.8 13.7-19.7 20.4-5.7 9.7-11.4 29.6-10.7 37.7.3 3.2.6 3.6 2.1 2.7 1-.5 2.1-1.8 2.3-2.8.4-1.5.1-1.8-1.4-1.4-1.8.4-1.9.1-1.3-4.4 2.3-17.1 9.5-33.4 18.6-42.6 7.7-7.6 14.2-11.1 31.7-17.2 16.7-5.9 29.2-11.3 36.8-16.2 5.4-3.4 22.6-15.6 24.9-17.6 2.9-2.5-1.7.4-15.5 9.7m91.6-5.4c-.9 4.4-.6 8.6.9 14.4l1.3 5-.5-7.3c-.5-5.8-.3-7.2.8-7.2 1 0 3.7 6.7 8.2 20.3 3.7 11.2 7.4 21.2 8.2 22.3s.3-1.2-1.1-5.1-5-14.2-7.8-23c-4.7-14.3-8-22.5-9-22.5-.2 0-.6 1.4-1 3.1m-60.4 7.4c-2.7 3.6-5.6 8-6.6 9.8-1.6 3.1-1.6 3.1.1.7 7.7-10.6 12.1-17 11.8-17s-2.7 2.9-5.3 6.5m14.9 5.4c-3.4 6.6-6.1 12.3-6.1 12.8 0 .8 11.2-20.1 12.3-23.1.4-.9.5-1.6.2-1.6-.2 0-3.1 5.4-6.4 11.9m11.8-7.2c-2.5 4.1-5.1 10.4-4.5 11 .1.2 1.1-1.7 2-4.2 2.1-5.4 4.6-6 4.6-1.1 0 3.2-1.9 11.2-7.4 30.9-1.4 4.9-2.2 9.5-1.9 10.3.6 1.6 2.9 1.9 3.8.4.3-.6-.1-1-.9-1-2.4 0-2-2.5 2.4-17.6 6.9-23.4 7.8-38.3 1.9-28.7m24.1 2.8c0 2.1.5 6.6 1 9.9.6 3.4 1.4 11.5 1.9 18.1l.8 12 .2-9.1c0-5-.4-12.8-1-17.4-.9-6.2-.8-8.4 0-9 1.5-.9.5-5.4-1.5-7.1-1.2-.9-1.4-.5-1.4 2.6m-61.1.2c-4.3 4.8-6.2 7.3-5.7 7.3.3 0 2.4-2.3 4.7-5 4.5-5.3 5.2-6.9 1-2.3m47.6-.9c-.3.9-1.3 5.3-2.1 9.7s-2.4 11.3-3.5 15.4c-1.4 5.3-1.7 7.6-.9 8.1.7.4 1 3.1.8 6.8-.1 3.3.1 6.4.6 6.9.9.9 4.6-3.3 4.5-5.1 0-.7-.2-.7-.6.1-.2.7-1.2 1.3-2 1.3-1.3 0-1.5-1-.9-6.4.6-5.6 3.8-22.1 5.2-26.9.3-.9 1.2-1.7 2.1-1.7 1.4 0 1.5 1.1.9 8.2-.3 4.6-.8 9.6-1.1 11.3l-.5 3 1-3c.6-1.7 1.3-6.5 1.7-10.8.4-5.2 1-7.7 1.9-7.7 1.2 0 1.7 2.8 3 19.5.6 8.3 3.6 17.1 5.4 16 1.5-.9 1.2-3.5-.4-3.5-1.8 0-3.3-6.7-4.6-20.8-.5-6.2-1.2-11.7-1.5-12.2-.3-.4-1.3-.6-2.3-.3-1.9.5-4.2-3.1-4.2-6.7 0-2.6-1.6-3.4-2.5-1.2m-32.1 5.8c-2 3.1-5.4 9.1-7.7 13.3-2.2 4.2-6.2 10.7-8.7 14.6-5.8 8.7-6.2 9.5-5.6 9.5.9 0 13.5-19.5 15.1-23.4.9-2.1 3.8-7.4 6.5-11.7 2.7-4.4 4.7-7.9 4.4-7.9-.2 0-2 2.5-4 5.6m729.6-2.6c.6 1.1 1.3 2 1.6 2 .2 0 0-.9-.6-2s-1.3-2-1.6-2c-.2 0 0 .9.6 2m-612.1 2.8c2.7 2.2 16.1 9.6 16.1 8.9 0-.3-3-2.2-6.7-4.3-3.8-2-7.9-4.4-9.3-5.2l-2.5-1.4zm614.4.9c5.3 9.6 12.4 20.4 8.6 13-2.1-4-8.2-13.7-8.6-13.7-.2 0-.2.3 0 .7m-755.4 4c-1.3 1.6-1.2 1.7.4.4.9-.7 1.7-1.5 1.7-1.7 0-.8-.8-.3-2.1 1.3"/><path d="M1426 1038.6c-3.6 3.4-5.5 4.5-7 4.1-4.8-1.2-13.9 6.7-26.9 23.3-3.8 4.9-13.1 21.8-13.1 23.7 0 .5 2.2-3.3 4.8-8.2 2.6-5 5.8-10.6 7.2-12.5 2.9-4.3 13.7-16.8 16.5-19.2 4.3-3.7 6.1-.9 2.7 4-5.8 8.3-3.6 6.6 2.8-2.3 3-4.1 6.2-7.5 7.1-7.5.8 0 2.8-1.4 4.4-3 3.1-3.2 5.5-3.9 5.5-1.6 0 .8-1.7 3.6-3.7 6.3-4.5 5.8-24.6 37.6-23.3 36.8.4-.3 4.6-6.5 9.2-13.8 4.5-7.2 11.3-17.5 15-22.8 3.8-5.3 6.8-10.1 6.8-10.8 0-2.3-3.3-.9-8 3.5m63.1-1.5c-.6 1.8-.9 3.4-.7 3.6s.9-1 1.5-2.8.9-3.4.7-3.6-.9 1-1.5 2.8m38.1.9c0 1.4.2 1.9.5 1.2.2-.6.2-1.8 0-2.5-.3-.6-.5-.1-.5 1.3m4.9-.5c0 1.1.7 4.9 1.4 8.5l1.5 6.5-.6-5.6c-.6-6.1-2.2-12.9-2.3-9.4m52.7 19.7c5.9 11.9 10.8 21.5 11 21.3.4-.4-18.3-38.5-20.2-41-.8-1.1 3.3 7.8 9.2 19.7m-138.1-16.5c-2.3 3.7-10.2 17.4-12.6 22-.6 1.3-1 2.3-.7 2.3s2.4-3.5 4.7-7.8c2.4-4.2 6-10.5 8.1-14 2.1-3.4 3.6-6.2 3.3-6.2s-1.5 1.7-2.8 3.7m10.1 1.5c-2.2 3.4-4.2 7.4-3.1 6.3 1.4-1.5 5.5-8.5 5-8.5-.3 0-1.1 1-1.9 2.2m71.3-.2c-.2 2.9 3.1 19.4 4.5 22.9 2.1 5 3.4 2.5 3.2-5.9-.1-4.8-.2-5.4-.5-2.3-.5 5.5-3 5.8-3.8.5-1.3-7.6-3.3-16.7-3.4-15.2m64.6-.3c-1.3 1.3-.6 5 2.7 14.8 1.9 5.5 3.5 9.6 3.5 9.1.1-.6-1.3-5.4-3.1-10.8-1.8-5.3-2.9-10.1-2.5-10.5.5-.4 1.8-.1 3 .6 2.1 1.3 2.1 1.2-.2-1.3-2.8-2.9-2.5-2.8-3.4-1.9m20.3-.2c0 .2 2.3 1.7 5.2 3.1 12.1 6.1 23.7 14.2 31.1 21.6 4.3 4.3 7 6.6 5.9 5.1-4.4-6.1-16.5-16.3-25.2-21.2-8.8-5-17-9.2-17-8.6m-126.4 2c-.9 2.6-.7 3.2.5 1.2.6-1 .9-2.1.6-2.3-.2-.3-.7.2-1.1 1.1m-11.4 4c-1.7 3.7-1.4 4.5.4 1.2.9-1.6 1.4-3.1 1.1-3.3-.2-.2-.9.7-1.5 2.1m7 7.3c-6 14.8-14.7 19.7-11.9 6.7l.6-3-1.4 3c-1.6 3.5-1.9 8.1-.5 9 1.7 1 6.9-2.4 9.5-6.3s7.9-16.2 7.2-16.8c-.2-.2-1.7 3.1-3.5 7.4m735.8-3.8c.6 1.1 1.3 2 1.6 2 .2 0 0-.9-.6-2s-1.3-2-1.6-2c-.2 0 0 .9.6 2m-830.1 2.1c-2.4 2-2.4 2-.1.7 1.9-1.1 2.4-1.1 3.2.2s1 1.3 1-.2c0-2.7-1.6-3-4.1-.7m227.8-.8c-.3.9.3 1.3 1.6 1.3 1.6-.1 3.1 1.9 6.9 8.9 2.6 4.9 4.8 8.7 4.8 8.2 0-1.9-9.1-18.5-10.5-19.1-2.2-.8-2.2-.8-2.8.7m-166.2 2.8c-.9 1.7-1.5 3.3-1.3 3.5.3.2 1.2-1.2 2.1-3.1 2.1-4.3 1.3-4.7-.8-.4m23.1-1.6c-.9 2.6-.7 3.2.5 1.2.6-1 .9-2.1.6-2.3-.2-.3-.7.2-1.1 1.1m128.4-1c0 .5.5 1.7 1 2.5s1 1 1 .5c0-.6-.5-1.7-1-2.5s-1-1.1-1-.5m620.5 4.6c7.1 13.7 28.9 49.8 40.2 66.6 13.8 20.6 28.3 41.3 28.9 41.3.2 0-3.2-5.3-7.7-11.8-23.9-34.5-40.2-60.3-56.3-89-3.2-5.6-6-10.2-6.2-10.2-.3 0 .3 1.4 1.1 3.1m-713.4-.5c0 1.1.3 1.4.6.6.3-.7.2-1.6-.1-1.9-.3-.4-.6.2-.5 1.3m-127.4 6.1c-5.6 8.8-11 18.3-10.4 18.3.3 0 2.5-3.4 4.9-7.5 2.3-4.1 4.9-7.5 5.6-7.5 1.5 0 1.5 1.5.1 4.3-1.7 3.2-.6 1.9 3.3-3.8 3.7-5.4 5.9-9.4 3.2-5.8-3.2 4.5-6 2-2.8-2.5.8-1.2 1.3-2.2 1-2.2-.4 0-2.5 3-4.9 6.7m400.3-4.7c0 3.2-7.8 28.8-12.3 40.5-5.3 13.6-12.7 28.9-19 39.1l-5.6 9-6.8 1.4c-14.6 2.8-27.9 9-42.8 19.6-7 5-18.9 16.4-22.5 21.4-1.3 1.9 1.3-.4 5.9-5.2 9.8-10.4 20.1-18.3 31.4-24.3 8.6-4.6 29.1-11.4 30.4-10.2 1.8 1.9-10.2 17.6-29.4 38.4-12 13-24 26.9-35.1 40.5-4.8 5.9-9.4 10.7-10.3 10.7-2.5.1-5.2-6.5-5.7-13.5-.5-7.5 1.5-15.2 6.8-25.2 2.1-4 3.2-6.8 2.6-6.2-2.5 2-9.6 17.7-10.7 23.5-1.3 6.9-.1 14.1 3.1 19 1.1 1.6 2 3.9 2 5s-3.2 6.1-7.2 11c-4 5-6.5 8.5-5.7 7.8.8-.6 4.3-4.8 7.9-9.2 3.6-4.5 6.9-8.1 7.4-8.1s3.7 1.1 7 2.4c5.9 2.3 7.4 2.4 47.6 3.4 44.5 1.2 64.5 2.9 86.9 7.8 6.4 1.3 19.3 4 28.6 6 23.7 4.9 31.6 7 42 11.1 11.5 4.5 38.8 20 56.4 31.8 34.7 23.4 65.4 41 80.5 46.1 8.3 2.9 25.8 6.6 41.6 8.9 27.1 4 45.5 11.6 61.6 25.4 2.3 2 1.6 1.2-1.5-1.7-11.2-10.7-29-19-48.6-22.8-6.6-1.3-19.2-3.6-28-5.3-8.8-1.6-18.7-3.7-22-4.6-13.8-3.8-36.6-16.6-78.7-43.9-49.8-32.3-61.5-37.8-96.8-45.1-9.6-1.9-23.6-4.9-31-6.5-13.5-3-26.4-5.1-43.4-7.1-5-.6-27.5-1.4-50.1-1.7-40.3-.7-41.1-.8-45.7-3-2.7-1.3-4.8-2.9-4.8-3.4 0-2.4 17.9-23.6 43.9-51.9 10.5-11.4 28.4-33 32.2-38.9l1.6-2.5 29.1-.4c33.7-.4 29.7-2 33.5 13.9 1.4 5.8 3.3 12.3 4.2 14.5 1.8 4.6 1.5 3.3-2.6-12.4-1.6-6.2-2.9-12.2-2.9-13.2 0-4.4 10.2-.1 16 6.8 1.8 2.1 2.7 2.8 2.1 1.7-1.9-3.8-10.3-10.4-14.9-11.7l-4.6-1.4-3.7-17.4c-4.4-20.9-12.2-51.8-15.1-59.7-4.4-12.3-4.7-12.9-4.8-10.2m7.4 23.2c5.5 20.2 13.6 56.5 13.6 61.1v3.2h-27.5c-15.1 0-27.5-.3-27.5-.6s2.6-4.8 5.7-10c9.8-16.3 18.1-36.2 25.8-62.2 1.5-5 3.2-8.7 3.9-8.7.8 0 3 6.4 6 17.2m-184.4-21.8c0 1.2 12.7 25.9 14.5 28.1.9 1.1-1.9-4.8-6.1-13-8.1-15.8-8.4-16.3-8.4-15.1m-158.9 6.7c-2.4 7.3-2.6 9.9-.8 9.9 1.3 0 4.3-2.9 6.2-6 .6-.9.1-.6-1 .7-2.3 2.6-4.5 3-4.5 1 0-.8.7-3.6 1.5-6.2 2.1-7.2 1.1-6.7-1.4.6m173-3.1c0 .8.4 2.4.9 3.5.5 1.3.9 1.4.9.5 0-.8-.4-2.4-.9-3.5-.5-1.3-.9-1.4-.9-.5m-252.7 2.5c-1.9 1.4-1.8 1.4.4 1.5 3.1 0 2.8 1.9-1.4 11.8-2 4.6-3.4 8.5-3.2 8.7.2.3 2.3-4.1 4.6-9.6 5-11.8 4.9-16.4-.4-12.4m272.6 2.2c0 2.2.2 2.5 1 1.3 2.6-4.1 7.1 4.4 14 26.7 2.1 6.9 4.3 13 4.8 13.5 1.2 1.2-4.8-18.7-8.7-28.9-5-12.8-11.1-19.8-11.1-12.6m-213.4-.2c-.9 2.6-.7 3.2.5 1.2.6-1 .9-2.1.6-2.3-.2-.3-.7.2-1.1 1.1m4.2 4.7c-3.5 6.4-6.3 8.4-7.1 5.1-.3-1.3-.5-1.1-.6.7-.1 2.4 1.4 5.9 2.1 5 3.3-4.5 10.2-17 9.4-17-.2 0-2 2.8-3.8 6.2m170.3-4.2c0 .8.4 2.4.9 3.5.5 1.3.9 1.4.9.5 0-.8-.4-2.4-.9-3.5-.5-1.3-.9-1.4-.9-.5"/><path d="M1361.9 1069.7c-1.3 1.6-1.2 1.7.4.4s2.1-2.1 1.3-2.1c-.2 0-1 .8-1.7 1.7m258.7 1.8c.3 1.6 1.2 5.9 2 9.5 1.9 9.1 1.8 10.3-.6 9.7-2-.5-1.9.2.3 3.1.8 1.1 1.2 1.1 1.8 0 1.6-2.5.9-10.3-1.6-17.8-1.4-4.1-2.2-6.2-1.9-4.5m-198 1c-.9 2.6-.7 3.2.5 1.2.6-1 .9-2.1.6-2.3-.2-.3-.7.2-1.1 1.1"/><path d="M1358.1 1075.6c-1.2 2-2 3.8-1.8 4s1.4-1.4 2.6-3.6c2.8-5 2.1-5.3-.8-.4m271.5-2.1c8.7 24.8 12.8 34.5 14.5 34.5 1 0 2.2-8.2 1.6-10.6-.3-1.1-.5 0-.6 2.4-.1 3.6-.4 4.3-1.8 4-1.3-.2-3.3-4.4-7-14.5-2.8-7.8-5.6-15-6.3-16-1.1-1.7-1.1-1.7-.4.2m10 1c1.1 4.8 2.5 7.6 1.8 3.5-.4-1.9-1-4.2-1.5-5q-.9-1.5-.3 1.5m-262.3 3.2c-1.1 2.6-3 7.8-4.2 11.5-2 6-2.1 7.2-.9 10.4 1.1 3.2 1.1 3.7-.6 4.6-1.1.6-6 4.7-10.9 9.2-17 15.5-24.4 19.3-35.3 18.4-6.2-.5-6.4 0-.5 1.3 3 .7 5.4.4 10.3-1.1 8.1-2.5 12.9-5.7 24.8-16.5 13.9-12.7 16-14 23-13.8 3.2.1 8.5 1 11.7 2 4.8 1.4 9.9 1.7 30.8 1.7 13.8 0 33.1-.3 43-.8l18-.9 9.2 3.7c10.8 4.2 18.2 4.7 24.9 1.7 9.8-4.5 23.5-5.2 44.3-2.5 10.6 1.5 14.4 1.5 27.7.5 14.2-1.1 28.2-3.7 32.2-6 1.2-.8-.7-1-7-1.1-7 0-8.8.3-8.8 1.4 0 1.8-1.5 2.3-12 3.6-11.9 1.4-23.1 1.3-36.2-.6-15-2.1-26.9-1.5-37.1 2-11 3.7-17.2 3.5-29.4-1-9.7-3.5-9.9-3.5-21.8-3-26.2 1.3-59 1.8-67.1 1.1-7-.6-8.5-1-8.2-2.3.2-1.1 2.5-1.9 8.3-2.9 11.4-1.9 34.5-8.6 49.8-14.5 25.1-9.6 27.9-9.7 44.5-1.2 13.1 6.8 14.9 6.8 27.2.8 16-7.7 21-7.3 45 4.4 17.4 8.4 23.8 10.8 30.7 11.6 3.7.5 2.8.1-3.8-1.8-4.8-1.4-16.5-6.3-26-10.9-25.7-12.5-29.2-12.8-46-4.7-11.9 5.7-15 5.6-28.8-1.6-9.9-5.2-11.3-5.6-17.2-5.6-5.3 0-8.6.9-19.1 5.1-26.6 10.5-55.8 17.9-77 19.6-7.5.6-8.8.4-8.8-.8 0-1.1-.7-1.3-2.2-.9-1.9.5-2.1.2-1.5-2.6.4-1.7 2.2-7.3 4.1-12.4 3.7-9.8 4.3-13.1.9-5.1"/><path d="M1396 1081.4c-3.1 9.5-2.5 11 2.5 6.2 2.2-2.2 3.1-3.2 1.9-2.3-4.4 3.6-5.5 1.5-2.8-5.3.9-2.3 1.4-4.3 1.1-4.6s-1.5 2.4-2.7 6m206.6 0c.5 4.6.5 4.8-1.6 4.3s-2.1-.5-.4 1.4c.9 1 2.1 1.9 2.6 1.9 1 0 .9-5.4-.3-9.5-.6-2.2-.7-1.8-.3 1.9m58.1.1c.9 1.9 1.8 3.3 2.1 3.1.4-.5-2.6-6.6-3.3-6.6-.3 0 .3 1.6 1.2 3.5m-306.5 2c-1.7 3.7-1.4 4.5.4 1.2.9-1.6 1.4-3.1 1.1-3.3-.2-.2-.9.7-1.5 2.1m11.6 5c-3.1 6.3-5.7 8.4-5.9 4.7-.2-3.2-2.7 6.3-2.7 10.3v4l1-3c.6-1.7 2.1-4.6 3.3-6.5 3.1-5 8.6-16 8-16-.3 0-2 2.9-3.7 6.5m276.3-4.9c0 1.1.3 1.4.6.6.3-.7.2-1.6-.1-1.9-.3-.4-.6.2-.5 1.3m11.9-1.1c0 .2 1.1 2.1 2.5 4.1 2.8 4.2 3.1 3.9 1.1-1.1-.8-1.9-2-3.5-2.5-3.5-.6 0-1.1.2-1.1.5m-10.8 5c0 1.1.4 3.3.8 5 .7 2.7.8 2.7.8.5 0-1.4-.4-3.6-.8-5-.6-2-.8-2.1-.8-.5m-291.6 2c-.9 2.6-.7 3.2.5 1.2.6-1 .9-2.1.6-2.3-.2-.3-.7.2-1.1 1.1m307.8 3.5c1.8 8.4 6.9 29 7.2 28.7.6-.5-5.2-25.6-6.6-28.7l-1.1-2.5zm-311.2 5.7c-3.7 10.8-3.5 10-2.2 8 1.5-2.3 5.1-12.9 4.6-13.4-.2-.2-1.3 2.2-2.4 5.4m318-4.2c-.1.5.5 3.7 1.3 7 .8 3.7 1.3 4.9 1.3 3 0-2.7-2.5-12.4-2.6-10m3.5 20.7c.5 6.4.3 7.7-1 8-1.1.2-1.4.7-.8 1.7 2.6 4.1 4.1-6.6 2.1-14.4-.5-1.8-.6.1-.3 4.7m-258.4 2.2c12.8 12.3 38.6 26.7 55.1 30.8 7.6 1.9 8.6 2.4 8.6 4.3s1.1 2.6 6.8 4.4c7.9 2.5 18.7 4 29.2 4.1 11.1 0 24 1.8 28.3 3.9 2.3 1.2 3.3 1.4 2.7.6-2.3-2.8-10.8-4.6-26-5.6-24.7-1.6-37-3.7-37-6.2 0-1 5.4-1.3 22.8-1.3 44.6-.2 59-4 82.2-21.6 9.1-6.9 16.2-13.3 13.5-11.9-1.1.5-4.6 3.2-7.7 5.9-8.5 7.5-21.4 15.7-29.8 19-12.6 5-19.3 5.7-53.5 5.7-30.6 0-31.1-.1-40.8-2.7-16.8-4.6-35.5-14.9-52.6-28.8l-7.6-6.2zm415.1 46.1c3.9 8.1 5.4 19.5 4 29.8-.5 3.6-1.1 4.7-2.8 5-1.6.3-1.1.8 2.7 2.5 3.4 1.5 5.7 2 7.5 1.5 2.4-.7 2.2-.8-1.8-1.3l-4.5-.5.2-4c.1-2.2.3-7.2.5-11 .3-7.5-2.6-19.1-5.7-23-1.5-1.9-1.5-1.8-.1 1m466.6 5.5c1.2 1.6 2.4 3 2.6 3 .3 0-.4-1.4-1.6-3-1.2-1.7-2.4-3-2.6-3-.3 0 .4 1.3 1.6 3m-747.1 1.8c1.8 3.4 1.3 10.6-.9 13.4-3.1 4-10.8 6.7-22.2 7.8-34.3 3.6-49.5 6.6-62.4 12.5-23.9 10.9-37.7 29.4-37.7 50.4 0 7.7 2.4 16.3 5.8 20.7.8 1 .3-.8-1.1-4-4.8-10.7-4.3-25.7 1.4-37.6 3.4-7 16.6-20.5 24.5-24.9 7.8-4.3 24-9.6 35.2-11.5 5-.9 16.1-2.2 24.8-3.1 18.2-1.7 19.6-2 25.9-5.1 4.9-2.5 8.5-6.3 9.4-10 .6-2.5-1.2-9-2.8-10-.6-.4-.6.1.1 1.4m755.1 9.5c2.9 4.3 5.8 8.1 6.4 8.4 1.2.8-7.9-12.4-10.2-14.7-.8-.8.9 2 3.8 6.3m-487.4 1.7c1 3.7 4.2 9.7 5.6 10.6 1 .6 1.1.5.1-.7-.7-.9-2.4-4-3.8-7s-2.2-4.3-1.9-2.9m498.5 14.2c6.4 9.3 17.1 23.8 17.6 23.8.2 0-1.1-2.1-2.9-4.8-1.9-2.6-6.3-8.6-9.7-13.5-3.5-4.8-6.5-8.7-6.8-8.7-.2 0 .6 1.5 1.8 3.2m-490.1-.8c0 .2.8 1 1.8 1.7 1.5 1.3 1.6 1.2.3-.4s-2.1-2.1-2.1-1.3m509.9 28.3c1.2 1.8 2.4 3.3 2.7 3.3.9 0-1.5-3.7-3.3-5.1-1.2-1-1.1-.5.6 1.8m4 6c.6 1 2.2 3.1 3.6 4.8 2.2 2.5 2.2 2.3-.5-1.8-3-4.5-5.1-6.6-3.1-3m8.9 12.3c4.1 6.9 24.1 34.6 28.7 39.5l4.6 5-5.1-6.5c-2.8-3.6-10.1-13.6-16.3-22.3-12.6-17.8-14.8-20.8-11.9-15.7m-913 38.5c5.9 8.7 17.5 16.8 30.1 21 17.3 5.7 37.7 6.8 66.3 3.5 9.5-1 19.6-2.1 22.3-2.3 2.8-.3-1.1-.3-8.5 0-7.4.2-15.7.8-18.5 1.3-2.7.5-12.7.9-22.2.9-27 .1-43.2-3.7-57-13.5-3.3-2.4-8-6.5-10.3-9.1-2.4-2.7-3.3-3.5-2.2-1.8M2382 1291c2.5 2.3 6.3 5.6 8.5 7.2 4.3 3.3 3.7 2.7-6.5-6.4-6.1-5.4-7.6-6-2-.8m14.5 12c1 1.1 2 2 2.3 2s-.3-.9-1.3-2-2-2-2.3-2 .3.9 1.3 2m7.5 6.5c1.9 1.9 3.6 3.5 3.9 3.5s-1-1.6-2.9-3.5-3.6-3.5-3.9-3.5 1 1.6 2.9 3.5m16.1 15c11.3 11.8 12.5 13.5 19.5 26.8 6.3 12 7.2 12.3 1.3.4-5.7-11.4-11.3-18.8-21.5-28.7l-8.9-8.5zm-270.7-2.6c-5.4 2.7-10.8 5.6-11.9 6.5s2.5-.6 8-3.3c16.8-8.2 20.6-8.7 19.1-2.6-.9 3.6-9.7 12.8-17 17.7-12.9 8.9-25.8 12.6-39.3 11.4-8.3-.7-10.1.8-2 1.7 7.4.7 19.1-.7 25.9-3.3 16.1-6 36.4-24.3 34.3-31-1.1-3.4-6.2-2.5-17.1 2.9"/><path d="M2130.3 1332.6c-2.4 1.4-4.3 2.7-4.3 3 0 .6 6.7-3.3 8.5-4.8 1.7-1.5.1-.8-4.2 1.8m314.7 29.9c0 .5.5 1.7 1 2.5s1 1 1 .5c0-.6-.5-1.7-1-2.5s-1-1.1-1-.5m2 4.6c0 2.2 24 57.2 24.7 56.5.3-.2-.3-1.8-1.1-3.5-.9-1.7-6.4-14.2-12.2-27.8-9.7-22.8-11.4-26.5-11.4-25.2m-321 27.4c1.3 1.4 2.6 2.5 2.8 2.5.3 0-.5-1.1-1.8-2.5s-2.6-2.5-2.8-2.5c-.3 0 .5 1.1 1.8 2.5m3 3.9c0 .2.8 1 1.8 1.7 1.5 1.3 1.6 1.2.3-.4s-2.1-2.1-2.1-1.3m5 7c0 .2.8 1 1.8 1.7 1.5 1.3 1.6 1.2.3-.4s-2.1-2.1-2.1-1.3m13.8 24.5c3.7 7.7 6.8 13.8 7 13.6.5-.4-12.5-27.5-13.2-27.5-.2 0 2.6 6.3 6.2 13.9m324.2-4.5c0 1.1 5 10.6 5.5 10.6.3 0-.7-2.4-2.1-5.3-2.8-5.5-3.4-6.5-3.4-5.3m-317 20.1c0 .5.5 1.7 1 2.5s1 1 1 .5c0-.6-.5-1.7-1-2.5s-1-1.1-1-.5m2 5c0 .5.5 1.7 1 2.5s1 1 1 .5c0-.6-.5-1.7-1-2.5s-1-1.1-1-.5m2.2 5.5c2.9 7.9 10.1 25 10.5 24.7.4-.5-9.4-24.8-10.4-25.6-.3-.3-.4.1-.1.9"/></svg>