<svg xmlns="http://www.w3.org/2000/svg" width="3669.333" height="2048" viewBox="0 0 2752 1536"><path d="M1570.5 73.7c-5.3.7-21.6 4.2-35 7.5-12 2.9-14.3 3.2-29.5 3.2-15.4 0-17.5-.2-32.5-3.6-22.2-5.1-27.1-5.8-42-5.8-19.2 0-31.6 2.3-48.7 9.1-13.4 5.3-22.7 11.1-36.6 22.8-7.1 6-5.9 6.8 6.4 4.6 12.4-2.2 29.2-1.6 37.4 1.3 4.7 1.7 5.2 2 3 2.5-1.4.3-11.3 2.2-22 4.2-60.9 11.6-98.6 25.1-131 46.8-26.8 18-40.9 33.7-60 67.1-13 22.7-15.3 26.5-21.5 35.1-7.1 9.9-14.9 19.7-23.5 29.5-25.7 29.3-34.6 43.2-42.4 66-4.5 13.3-6 26.2-5.1 43 1.1 21.2 5 37.2 18.4 74.8 2.2 6.2 4.6 14.3 5.5 18 1.7 7.6 4.1 30.4 5.6 53.2 2.4 35.7 7.2 57.9 16.9 76.8l2.1 4.1-4.9-.6c-10.7-1.2-17.7 2.9-22.4 13.4-4.8 10.8-6 20.5-5.4 41.8.8 27.1 2.4 34 16.9 72.5 14 37.2 16.8 50 19.2 87.5 1.2 17.2 1.9 22.4 4 29 4.7 14.9 12.6 25.4 23 30.5 13.1 6.6 24.4 1.4 24.7-11.2.1-5.7 1.5-.2 2.3 8.7 2.1 24 16.3 112.7 21.7 135.5 10.9 46.4 28 82.3 61.4 129.7 30.9 43.8 58.5 78.8 79.1 100.3 28.1 29.3 53.5 43.2 91.9 50.6 14.5 2.8 15.9 2.9 45 2.8 53.5-.1 78-4.6 107.2-19.5 19.1-9.8 34.3-22.9 55.4-47.9 5.9-6.9 11-12.4 11.5-12.3.5.2 3.4 1.2 6.4 2.3 4.8 1.7 8.2 1.9 25.5 2 46.3.1 85.7 3.5 112 9.5 6.1 1.4 16.9 3.7 24 5.1 40.4 7.8 56 14.8 103 45.9 18.6 12.4 41.2 26.2 56.5 34.8 14.8 8.2 33.4 13.4 63.5 17.7 11.1 1.6 26.8 5.7 34.3 9.1 9.3 4.2 21.9 12.8 29.1 20 12.5 12.5 25.5 35.6 38.6 68.9 8.9 22.3 10.4 25.5 11.6 24.3 1.4-1.4.8-3.2-9.1-27.3-8.8-21.8-18.3-41.1-25.1-51.5-7.4-11.2-22.5-26-32.4-31.9-15.2-8.9-23.5-11.3-60-17.6-20.1-3.5-33.3-7.4-44.8-13.1-10.8-5.5-35-20.1-55.2-33.4-57.1-37.5-63.2-40.2-120.1-52-44.9-9.3-57.1-10.6-105.9-11.5-39.4-.7-43.9-1.1-48.5-4.3-2.1-1.4-1.9-1.7 6.6-11.8 10.6-12.5 25.7-29.6 38.8-43.9 5.3-5.8 13.1-14.9 17.4-20.4 4.2-5.4 9.1-11.5 10.9-13.5l3.1-3.6 27.2-.4c15.9-.2 27.6.1 28.1.6s2.1 5.6 3.4 11.4c6.2 25.4 11.6 35.9 21.5 40.9 7.2 3.7 10.4 3.6 16.9-.4 3.3-2 6.3-3.6 6.9-3.6.5 0 1.5 1.4 2.2 3 5.4 13 26.1 13 39.2-.1 7.8-7.8 15.5-25.9 17.9-42.1 3-20.5-3.8-53.9-14.6-72.1-1.9-3.2-3.5-6-3.5-6.3 0-.2 1.9-3.2 4.3-6.6 6.6-9.8 8.2-15.9 8.1-31.3-.1-10.9-.5-14.4-2.7-21.5-1.4-4.7-2.4-8.6-2.3-8.8.2-.1 1.7.3 3.5.9 7.3 2.6 21.1-1.5 28.8-8.4l3.9-3.6 1.9 3.5c1 2 4.1 5.4 6.7 7.6 5.8 4.8 5.8 5.1 1.8 21.8-5.2 21.2-14.7 42.5-29.7 66-5.1 8.1-6.2 11.5-3.6 11.5 2.2 0 16.8-24.6 24.9-42 6.9-14.8 14.4-39.7 14.4-47.9 0-4.2.8-4.3 6.9-1.6 6.1 2.8 20.4 5.2 26.3 4.4 5.4-.7 5.7-.3 3.2 5.4-1 2.3-1.8 7.7-2.1 14.2-.6 12.5.3 16.9 7.8 36.2 9.6 24.9 14.3 50.3 16.9 91.3 3.3 53 8.8 82.7 21.1 113.7 11.3 28.7 28.4 50.5 46.4 59.4 6.9 3.4 9 3.9 16.1 4.3 12.5.5 13.2.2 46.8-18.8 9-5.1 20.5-10.1 23.1-10.1 1.6 0-4 8.2-8.7 12.6-14.2 13.7-30.8 20.4-47 19-7.6-.6-10.4.2-8 2.6 1.6 1.6 20.9 1.1 27.7-.7 16.4-4.3 39.5-23.2 39.5-32.2 0-8.2-12.9-4.4-39 11.3-18.7 11.4-28.2 14.4-38.5 12.5-16.9-3.1-35.6-21.2-48.3-46.6-16-32.3-22.9-63.4-26.7-120.5-3.2-48.7-8.2-74.6-20-105-7-17.9-7.8-28.9-3-44.6 1.5-5 1.6-5.1 8.4-7.8 16.8-6.6 33-21.7 29.4-27.5-1.5-2.4-7.5-2.5-12-.3-8.3 4.3-16.1 11.2-21.5 19.1-5.2 7.8-5.4 7.9-10.4 8.6-6.3.8-16.6-.8-26.7-4.1-6-2-9-3.7-13.3-7.7-8.6-7.8-8.6-8.3-.9-18.5 11.4-15.1 18.9-32.4 18.3-41.9-.3-4.1-.6-4.8-2.6-5.1-1.6-.3-3.3.7-5.6 3.1-6.6 7-18.8 34.3-20.2 44.9-.6 4.6-1.3 5.9-5.3 9.7-8.2 7.7-18.6 10.6-28.9 8.1-4.7-1.1-5.4-1.6-8.1-6.6-3.9-6.7-15.6-19.2-18.8-20-1.7-.5-3.1-.1-4.5 1.3-1.8 1.9-1.9 2.2-.4 5.8 1.6 3.7 8.5 12 11.7 14 .9.5 4.2 2.5 7.4 4.4 6.4 3.8 7.4 5.5 10.7 18.5 1.7 6.7 1.9 10.1 1.5 19.1-.3 6-1.3 13.1-2.1 15.8-1.5 4.6-8.1 15.7-9.4 15.7-.4 0-3.6-.9-7.2-2.1-7-2.2-12.1-2-18.6.7-4.5 1.9-4.3 4.9.5 8.1 4.3 2.9 11.4 3 19.1.4 6.4-2.3 6.1-2.5 11.4 8.4 10.9 22.4 15.3 52.6 10.7 72-2.2 8.7-6.8 20.5-10.6 27.1-7.2 12.4-23.9 19.1-33.2 13.4-4.3-2.6-6.3-6.8-11.3-24-2.4-8-7.9-24-12.3-35.5-12.9-34-20.5-56.1-22.6-65.8-2.5-11.3-5.1-43-5.1-60.9 0-17.3 2.9-56 5.1-69.2 2-11.8 9.2-21.1 22-28.7 9.6-5.7 30-13.3 57.9-21.4 34.5-10.1 87.9-27.9 101-33.7 3-1.4 13.6-6.4 23.5-11.1 26.5-12.8 32.6-13.4 46.1-4.6 7.6 5 13.6 7.1 14.8 5.1.9-1.5-4.8-8.6-8.9-11.2-2-1.2-3.4-2.4-3.3-2.6 1-.9 14.3 3.1 21.3 6.6 16.5 7.9 24.4 18.8 48.8 67 20 39.5 25.1 48.8 49.2 88.5 18.3 30.2 24 39.8 35.5 60 29 50.7 38.3 64.9 98 148.5 10.8 15.1 21.6 30.4 24 34 20.6 30.7 31.4 43.5 46.5 55.7 6.6 5.4 18.1 15.8 25.5 23.3 16 15.9 19.3 21.3 32.1 52.1 12.1 28.9 13 31.1 20.7 47.4 10.3 21.7 15.3 30.8 16.3 29.8.6-.6-3-9.2-8.7-21.4-8.8-18.7-18.2-40.1-27.1-61.9-8.6-21.1-15.3-32.9-24.2-42.5-5.4-5.9-21.5-20.5-32.1-29.1-13-10.7-22.5-21.7-37.5-43.4-6.3-9.2-31-44-52.6-74.3-19.2-27-43.6-63-53.3-78.7-11.8-19.2-24.6-40.8-24.6-41.4 0-.7-17.7-30.9-28.5-48.6-28.2-46.5-36.1-60.4-53.2-94.5-21.9-43.6-27.4-52.8-37.8-63-10.3-10.3-25.6-17.1-40.7-18.2l-7.7-.6-7.3-8.1c-4-4.4-11.1-12.1-15.8-17.1s-15.2-17.1-23.4-27c-10.2-12.3-24.3-27.4-44.6-47.5-31.3-31.1-37.2-37.7-54.3-61-5.9-8-13.1-17.7-16.1-21.5l-5.4-7 3.3-15.5c1.8-8.5 4.4-20 5.8-25.5 6.9-26.9 8.1-35.7 8.1-57.5 0-16.7-.4-22.8-2.2-32.8-8.6-48.1-27-81.2-61.2-110.1-6.3-5.3-13.7-11.4-16.5-13.4-2.7-2.1-8.8-6.7-13.3-10.3-4.6-3.5-10.3-7.8-12.7-9.5-3.2-2.3-4.9-4.6-6.4-8.3-2.5-6.4-6.4-19.6-6-20 .2-.2 2.2-1.3 4.5-2.4 21.5-10.9 33.4-41.2 28-71.8-2.1-11.5-5.2-21.4-8.9-27.5-5.9-9.8-11.3-8.8-17.5 3.2-3.7 7.2-8.5 23.2-10.8 35.9-2.3 12.6-2.9 39.4-1.1 50.8 1 6.6 1.1 9.5.3 10-.6.3-5.2.8-10.1 1l-9 .4-7.6-7.9c-15-15.7-24.9-32-40.9-66.8-1.2-2.8-5.2-11.8-8.7-20-15.9-36.7-26.5-53.8-44.2-71.6-10.6-10.6-22.2-20.2-31.1-25.7-1.9-1.2-9.8-5.4-17.5-9.3-24.4-12.5-50.4-19.5-76.5-20.6-14.2-.5-21 .2-21.7 2.4-.5 1.5 6 5.1 20 11.2 11.9 5.2 24.2 11.8 30.7 16.6 6.9 5 16.3 15.1 21.6 23.1 8.2 12.3 10.6 18.7 23 60.9 10.1 34.7 22.5 56 44 76.4 7.8 7.5 15.4 13.9 22.6 19.4 2.2 1.7 2.2 1.7-4.2 1.1-3.6-.3-11.4-1.2-17.5-1.9-6-.8-17.3-1.7-25-2-35.7-1.6-59.9-8.4-88-25-9.4-5.5-13.1-8.1-29.3-20.3-38.2-29-38.1-28.9-51.7-37-9.5-5.6-30.5-16.2-32.3-16.2-.5 0-2.7-.9-5-2-2.2-1.1-11-3.8-19.4-6-39.3-10.1-80.4-6.4-118.7 10.8-5.7 2.6-10.3 5.1-10.2 5.7s2.6.9 5.9.8c21.5-1 40.3-.5 48.4 1.1 25.9 5 50.9 18.3 68.7 36.6 16 16.4 29.2 40.5 31.5 57.6 1.6 11.9-4.6 26.8-15.9 37.9-12.4 12.2-26.6 19.2-47.2 23.4-15 3.1-30.3 2.5-52.8-2.1-18.4-3.7-30.3-8.2-62-23.3-26.6-12.7-44.7-16.5-62.4-13.2-34.2 6.5-54.3 35.3-62.1 88.7-3.8 26-5.2 60.6-2.6 61.3.5.1 2.4-4.8 4.2-10.8 6.3-21 15.4-35.4 29.9-46.9 9.1-7.3 14.2-10 24.8-13 19.8-5.8 35.4-5.5 69.2 1.2l19 3.7-8 .6c-13.9 1.1-21.5 4-29.9 11.5-9.1 8.2-14.4 17.7-19.1 33.9-5.1 17.6-5.2 34.4-.6 62.5 6.5 39.2 5.5 49.8-9.3 99.4-7.3 24.5-9.8 38.3-13.5 75.2-3.7 36-8.2 61.9-10.2 58.2-.4-.7-1.2-9.2-1.8-18.8-1.6-23.7-1.9-25.5-4.2-28.4-2.7-3.4-4.3-2.4-2.4 1.4.9 1.7 1.5 5.6 1.5 9.5 0 3.7.7 12.1 1.6 18.7.8 6.5 1.3 12.5 1.1 13.1-.2.7-.9-2.6-1.6-7.3-.6-4.7-2.1-13.2-3.3-19-1.5-7.9-1.8-12-1.3-16.5 2.5-19.2-.8-50.9-7.1-68.9-4.2-12.1-7.1-16-22.5-30.1-4.7-4.3-6.1-6.5-9.6-15-8.1-19.6-10.9-34.9-13.8-74.5-2.4-33.7-4.6-47.4-10-63-15.5-44.6-18.3-56-19.2-78.6-.7-15.9.5-26.6 4.4-38.9 3.6-11.6 12.4-28.9 18.8-37 3-3.9 6.9-8.8 8.6-11s5.7-7.2 8.9-11c19.5-23.2 25.1-30.4 33.5-43 5.1-7.7 13-20.5 17.6-28.5 15.7-27.6 27.4-42.2 45.4-56.4 8.4-6.6 19.8-14.6 21-14.6.2 0 3.4-1.8 7-4 14.8-9.1 33.7-16.8 59.4-24.5 23.8-7 60.2-15 78.3-17.1 14.6-1.7 7-8.6-13.6-12.3-8-1.5-15.7-1.3-23.6.3-3.6.8-6.6 1.3-6.8 1.2-.1-.2 3.5-3 8-6.4 21.1-15.7 45.3-23.5 72.8-23.5 14.1.1 23.5 1.4 47.5 6.9 10 2.3 14.4 2.7 26.5 2.8 14.9.1 19.8-.6 41.1-6 28.7-7.2 52.1-7.7 79.8-1.9 15.7 3.3 28.5 8 43 15.6 17 8.9 23.4 13.7 51.1 38.3 6.8 6 10.5 8.6 11.6 8.2q1.65-.6.9-2.4c-2.1-5.1-4.4-12.1-5-15.4l-.7-3.8 7.3 3.4c26.7 12.1 38.7 20 49.3 32 12 13.7 17.8 23.3 30 49.8 5.8 12.7 12.8 19.8 28.5 28.6 24.8 14.1 38.1 27.1 50.4 49.2 15.7 28.5 34.6 93.5 40.7 140.5 2.8 21.9 3.5 40.5 2.1 54.9-2.3 23.5-12.2 65.5-26.5 112.1-2.1 6.6-5.3 19.5-7.2 28.8-1.9 9.2-4.1 18.8-4.9 21.3-.7 2.4-1 4.6-.5 4.9 2.1 1.3 4.3-4.8 8.6-23.5 2.5-11.2 6.8-27.7 9.5-36.7 16.3-54.8 23.4-86.8 24.9-113.3 3.1-56.1-22.7-160.7-49.7-201.3-7.3-10.9-22.1-25.3-34-33-5.7-3.7-10.5-6.7-10.8-6.7s-3.5-2-7.2-4.3c-10.2-6.6-17.2-14.7-21.8-25.3-11.7-27.5-23.4-44.6-39.9-58.3-9.6-8-16.1-12-31.6-19.4-12.9-6.1-18.5-8.1-20-7.2-1.6 1-1.2 6 .9 12 1.1 3 1.7 5.5 1.4 5.5s-5-4.3-10.5-9.5c-30.5-29-63-45.4-100.9-50.9-9.7-1.5-36.1-2-44.4-.9M1563 128c16.7 3.4 25.7 6.2 42.7 13.3 30.4 12.8 57.6 35.1 74.8 61.2 7.6 11.7 12.2 20.6 23 45.1 15.7 35.7 20.3 45.3 27.6 57.5 15.5 26.4 31 42.6 59.6 62.5 3.4 2.3 4.8 4.4 7.4 10.4 1.7 4.1 6.7 14.2 11 22.5 9.4 17.7 15 31.8 19.2 47.5 2.8 10.8 3 12.6 3.1 31 0 10.7-.3 27.1-.8 36.5-1.4 29.4 1.4 37.9 24 71.8 12.4 18.4 20.4 32.9 24.9 44.7l1.7 4.5-2.7-2.5c-5-4.6-16.1-19.4-28.7-38-14.9-22.1-21.4-33.1-30.8-52.1-8-16.2-8.3-16.7-11.3-17.1-1.5-.2-2.1-.9-1.9-2.1.6-3.7-23.1-52.5-28.5-58.6-3.3-3.8-4.4-4.4-8.8-4.8-17.6-1.6-27.1 3.6-34.6 19.3-5.1 10.8-6.3 17.3-6.3 33.9.1 33 12 67.1 37.9 108.4 4 6.4 13.3 23.7 20.7 38.6 7.5 14.8 18 34.4 23.5 43.5 14.6 24.2 21 35.6 30.2 53.9 9.3 18.5 18 34.1 25.4 45.1 7.4 10.9 18.5 26 21.9 29.6l2.9 3-11.3 1.3c-12.8 1.5-29.7 4.4-37.8 6.6-3 .8-5.5 1.3-5.7 1.2-.1-.2.7-5.7 1.9-12.2 2.8-16.2 3.1-49.4.4-63.5-3.4-18.1-11.4-34-24.7-48.6-4-4.3-10.6-12.2-14.8-17.4-12.1-15.2-24.5-27-32.6-30.8-9.4-4.5-16.4-5.1-28-2.2-13.4 3.3-13.3 3.3-101.5 32.1-30.9 10.1-41.2 16-47.6 27.5-2.4 4.4-3.3 6.9-2.6 7.6.6.6 2.2-1 4.6-5 2-3.3 5.3-7.5 7.4-9.3 5.1-4.5 17-9.8 34.2-15.4 8-2.6 30.7-10.1 50.5-16.6 51.9-17 62.2-19.7 71.9-18.4 10.8 1.5 21.5 9.5 36.6 27.5 5.2 6.2 13.6 16.1 18.6 22 14.1 16.6 19.6 26.9 23.5 43.9 2.6 11.2 3.6 36.8 2 52.2-1.5 15-3.2 26.2-4.1 27.2-.4.5-4.6 1.7-9.2 2.7-18.6 4-31.5 10.9-38.4 20.2-9.9 13.4-11.8 26.4-11.6 76.3.3 47.7 1.2 59.5 6.9 89.9 2.5 12.9 2.6 14.4 1.4 21.5-1.8 10.5-11.7 40.1-18.6 55.3-3.1 7-8.5 17.3-11.9 22.9l-6.3 10.3-8.9 2c-4.9 1.2-9.3 2.4-9.9 2.7-.5.4-2.8 1.2-5 1.9-8.7 2.7-24.5 12.8-35.4 22.4-9.6 8.6-16.9 17.8-22 28-6.8 13.6-7.7 24.5-2.5 34.1 1.3 2.5 2.4 5 2.4 5.5 0 1.9-15.8 19.9-28.9 33.1-14.4 14.3-23.5 21.1-37.8 28-24.2 11.6-43.1 15.5-87.3 17.9-62.9 3.5-105.6-10.3-143.9-46.6-28-26.5-95.8-117.4-115.9-155.4-17.3-32.9-26.4-60.5-34.6-105.5-3.2-17.3-10.5-61.3-12.6-76-1.8-12.1-5.9-51.3-6.5-62-1.7-30.9-2.8-39.8-8.2-66.9l-3.5-17.9 2.5-2.1c5.3-4.5 8.9-24.3 14.2-77.7 2.5-26.3 5.5-40.4 14.6-69.4 6.4-20.3 8.5-29.3 9.9-42.9 1.4-12.6 1-19.3-3-47.6s-4.4-34-3-45.4c2.4-20.2 9.9-38.6 19.5-47.9 7.4-7.2 18.9-11.7 30.1-11.7 5.7 0 20.7 3.2 22.9 4.9 5.5 4.3 33.8 11.6 51.3 13.2 42.2 3.9 83.9-5.9 124-28.9 15.8-9.1 29.1-19.3 54.8-42.2 14-12.5 23.5-20.6 27.4-23.3 12.2-8.5 20.2-13.3 30-18 13.9-6.8 23.7-10.1 38.9-13.3 22.8-4.9 69-4 76.9 1.4 4.2 2.9 17.9 8.7 27.2 11.7 5.7 1.8 11.7 2.8 18.2 3.2 10.7.6 12.8-.1 12.8-4.3 0-2.8-2.6-4.7-10.4-7.4-5.9-2-34.3-7.4-45.6-8.6-7.5-.8-11.7-3.4-29.8-19-12.8-11-16.3-14.6-23.4-24.4-14-19.2-20.4-33.8-30.4-69-10.3-36.2-16.9-49.5-32.9-65.5-7.9-7.9-16.1-13.2-32.5-21.1-7.4-3.6-15.3-7.4-17.5-8.5l-4-2 13.5.5c7.9.3 17.9 1.4 24 2.6m-167 95.3c11.7 2.5 23.7 6.2 36.1 11.2 24.7 10.1 36.2 17.3 72.9 45.5 6.8 5.2 14.4 11 16.9 12.8 31.5 22.6 60.5 34.5 93.6 38.3 10.1 1.2 10.7 1.4 7 2.1-22.3 4.8-34.8 8.9-47.7 15.4-17.9 9.1-39.4 24.9-59.8 44-7.4 7-17.6 15.7-27 23.1-12.2 9.6-37.6 24.5-46.5 27.3-2.2.7-4.5 1.6-5 2-1.8 1.5-19.8 7.8-28 10-13.9 3.6-25.5 5.1-43.5 5.7-19.7.6-34.1-.9-50.8-5.4-8.8-2.3-32.6-11.2-31.9-11.9.2-.2 4.4.1 9.5.6 32.5 3.4 80.9-13.3 107.2-36.9 4.2-3.7 5.2-5.2 4.4-6.1-.9-.9-2.1-.4-5 2.3-2.2 1.9-8.4 6.4-13.9 10.1-22.2 14.9-47.8 24.1-74.1 26.7-13.8 1.3-21.9.5-52.4-5.8-35.3-7.1-56.8-7.2-76.7-.2-22.5 8-40.8 26.2-49.5 49.4l-1.8 5 .5-10.8c1.2-23.9 5.9-51.3 11.5-67.2 5.7-16.2 14.2-29.5 23.8-37.1 15.2-12.1 35.6-16.3 55.9-11.4 9.8 2.3 15.7 4.7 39.3 15.8 19.5 9.1 22 10.2 33.2 14.1 19.9 6.8 47.4 11.1 63.3 9.7 9.8-.8 24.9-4.1 32.2-7 19.7-7.8 35.8-22.3 43-38.6 2.5-5.9 2.8-7.5 2.7-17.5 0-9.5-.4-12-2.8-18.5-6.2-16.6-17-33.3-30.1-46.5-17.7-17.9-37.2-28.7-63.5-35.3-9.4-2.3-12.5-2.6-28.8-2.7H1292l4.2-1.8c7.8-3.3 29.2-9.5 36.8-10.6 4.1-.6 8.6-1.3 10-1.5 6.2-1.1 45.8.2 53 1.7m413.5 19.2c3.1 3.9 7.9 18.2 9.4 27.6 4.7 28.8-6 57.8-24.7 67.3l-5.1 2.6-.6-3.3c-1.7-10.6-2.5-28.9-1.5-38.7 2-19 7.3-40.7 12.7-51.4 4.5-9 5.7-9.5 9.8-4.1m-92 99c17.6 2.8 30.9 6.7 30.2 8.9-1.4 4.3-31.6-2.3-42.8-9.4l-3.4-2.1 3 .5c1.7.3 7.5 1.3 13 2.1m70.5 9.2c.7 3.2 1.9 7.1 2.7 8.6 2.6 5.1.8 5-5.7-.1-12.7-9.9-14.9-11.7-14.9-12.3-.1-.3 2.5-.7 5.6-.8s5.9-.4 6.2-.6c.2-.3 1.4-.5 2.6-.5 1.8 0 2.4.9 3.5 5.7m15.5 26.3c.3.5 7 5.8 14.8 11.6 37.9 28.5 55.3 47.6 68.2 74.8 11.6 24.6 17.3 49.2 18.2 77.6.6 19.7-.7 31.1-5.8 53.5-3.4 14.4-10.9 48.7-10.9 49.4 0 2.4-2.6-3.5-6-13.4-4.9-14.3-9.1-22.1-22-41.5-15-22.6-19-29.4-21.5-36.7-3.9-11.8-4.9-21.7-3.9-39.7.5-8.8.9-23.8.8-33.1-.1-14.8-.4-18.5-2.8-29-4.5-19.3-9.3-31.1-24.7-60.5-3.1-5.8-5.8-11.3-6.2-12.3-.7-1.8.7-2.4 1.8-.7m-42.2 91.2c-3.8 5.8-3.9 15.5-.4 24.3 3.5 8.5 8.6 17.1 14 23.4 8.3 9.9 22.8 17.3 30.1 15.4l3.4-.9 7.9 16c9.3 19 14.2 27.4 29.6 50.1 11.8 17.5 16.6 23.8 30.9 40.9 4.5 5.5 8.4 10.9 8.7 12 .2 1.2 1.2 7.2 2 13.4 1.9 12.9 3.5 19 6.7 24.6 5.2 9 12 9.9 14.7 1.9 1.3-3.7 1.3-4.5-.3-8.7-1-2.6-5.6-9.7-10.2-15.9s-8.4-11.6-8.4-12.1.2-.7.5-.4c.7.7 13.1 16.9 25.4 33.3 14.4 19.2 14.6 19.4 47.5 52.5 19.1 19.3 37.9 39.4 50.8 54.5 11.3 13.2 23.4 26.7 26.8 30s7.5 7.7 9.2 9.8l3.1 3.8-80.4-.4-80.4-.5-7.8-10.4c-19.5-26.1-25.3-35.6-45.7-75.3-5.7-11-16.4-30.1-23.8-42.5-7.5-12.4-18.9-33.3-25.5-46.5s-16.6-31.7-22.2-41c-16-26.6-23.7-43.5-30.4-66.5-9.5-32.8-7.4-62.6 5.6-79.7 3-3.9 13.4-9.3 18-9.3h3.3zm13.1-.1c1.4 1.6 4.1 5.8 6 9.2 3.3 5.9 23.6 48.3 23.6 49.3 0 1.3-8.2 0-12.7-2-13.2-6.2-29.2-30.6-29.3-44.9 0-7.2 4.3-14.6 8.7-14.7.6 0 2.3 1.4 3.7 3.1M1132.2 637c3.4 1 4.1 1.9 9.6 12.3 8.4 16.1 17.1 29.2 18.5 27.8.7-.7.1-2.5-2.3-6.3-11.2-17.9-16.9-28.8-15.2-28.8.5 0 2.7 1.4 4.8 3.1 9.7 7.6 15.6 19 19.3 37.5 2.3 11.4 4.1 28.8 4 38.9 0 6-.2 6.7-1.2 4.5-16.4-36.3-31.5-59.4-40.2-61.6-3.6-.9-7.3 1.3-9.6 5.8-3.1 5.9-3.6 19.4-1.5 35.3 3.2 22.7 7 35 19.6 63 8.4 18.8 12.4 30.4 14.4 42.3 1.9 11.2 4.8 19.7 7.7 22.8 3 3.2 4.2 2 1.8-1.9s-5.5-14.4-6.4-21.2c-1.3-10.5-3.9-20.3-7.5-28.5-2.1-4.7-6.5-14.6-9.8-22-11.7-26.5-16-43.7-16.8-67.5-.7-19.9 1.2-25.8 7.9-24.1 5.8 1.4 20.1 23 32.8 49.3 8.6 18 8.7 19 2 34.5-8.5 20-9.1 28.5-2.9 40.5 1.9 3.8 6.4 12.5 10 19.4 8.1 15.6 11.3 25 14.4 42.6 4.6 26.2 4.2 43.9-1 50-6.4 7.4-24-.9-31.9-15.2-6.4-11.3-8.1-19.1-9.7-44.5-2.3-35.7-5.3-48.5-20.5-88.5-13.2-34.7-16-47.6-15.8-74 .1-18.7 1.9-28.7 6.7-37 3-5.1 4.5-6.3 9.3-8.1 4.7-1.6 4.9-1.6 9.5-.4m773.6 44.7c1.2 2.5 1.3 4 .6 6-1.9 5.6-7.1 3.4-10.6-4.5-1.9-4.1-4.8-17.3-4.8-21.5 0-2.2 11.8 13.7 14.8 20m-732.3 81.9c1.3 8.7 4.9 27.6 7.9 41.9 5.2 25 9.2 48.2 8.3 49.1-.2.2-1.2-3.3-2.1-7.8-2.8-12.9-6.9-23.9-14.2-37.6-12.2-22.9-12.7-24-12.7-31.2 0-3.6.6-8.4 1.3-10.5 1.8-5.6 8.2-20.6 8.6-20.2.2.2 1.5 7.5 2.9 16.3m819.5 76.1c27.8.3 50 .7 49.5.9-7.2 1.8-16.9 5.7-30.5 12.2-25.9 12.4-49.2 20.8-104 37.6-27.9 8.5-40.8 12.7-55.8 18.1-10.8 3.9-22.3 10.6-28.6 16.8-10.5 10.4-12.6 16.6-15.3 47.2-2 23.5-2.3 61-.5 82.6 1.8 20.5 4.6 31.6 16.2 62.9 16.1 43.7 18.8 51.5 22.4 63.6l3.4 11.4-6 4c-6.6 4.4-7.6 4.6-10.2 2.7-1.7-1.2-1.7-1.9-.6-7.2 2.6-12.4-2-28.9-10.6-38.5-3.1-3.4-10.5-7.9-15.4-9.3-1.1-.3-2.1-3.5-3.4-10.3-3-16.1-15.5-65.5-18-70.9-2-4.3-2.2-6.3-1.8-13 .3-5.4-.1-10-1.2-14-4.1-15.8-5.6-32-6.7-70.7-1.1-40.1-.8-54 1.7-69.8 2.7-17.3 7.1-25.3 18.1-32.7 8.8-5.9 20.2-9.7 34.8-11.7 1.1-.1 3.3-.8 4.9-1.5 7.8-3.2 43.7-9 65.1-10.4 9.9-.7 43-.7 92.5 0m76.4 5.4c2.7 1.6 4.6 3.2 4.3 3.5-.4.5-10.7-5.5-10.7-6.2 0-1 2-.1 6.4 2.7m-111.4 113c-3.3 9.9-7.3 17.7-13.1 25.9-3.5 4.8-5.5 6.9-5.7 5.9-.8-3.9 8.1-24.3 16.6-38.4 3.7-5.9 3.7-6 4-2.9.2 1.7-.7 6-1.8 9.5m-77.9 33.1c3.6 3.5 7.6 7.8 8.9 9.7l2.4 3.4-4.3-2.4c-4.9-2.7-13.5-11.7-14.4-14.8-.3-1.2-.2-2.1.2-2.1.3 0 3.6 2.8 7.2 6.2m145.7 5.8c-.5 1.7-3.1 4.8-5.7 7-4.5 4-21.8 13.6-22.7 12.7-.6-.6 6.2-9.7 9.4-12.5 5.5-4.9 14.6-10.2 17.3-10.2s2.8.1 1.7 3m-238.5 85c2.5 9.1 6.6 25.9 9.2 37.5 2.5 11.5 4.7 21.8 4.9 22.7.4 1.7-1.1 1.8-21.2 1.8-12 0-24.1.3-27 .7l-5.4.6 3.5-5.5c10.3-16.1 19.3-36.7 26.2-59.8 4.7-16 4.5-15.4 4.9-14.9.2.2 2.4 7.8 4.9 16.9m93.6-4.6c4.6 1.7 2.7 2.7-5.9 3.4-4.3.3-7.5 0-9-.8l-2.3-1.3 2.4-1.3c3-1.7 10.3-1.7 14.8 0m-68 74.1c9 4.5 14.3 13.4 16.6 28.2.8 5-.3 17.3-1.6 17.3-2.3 0-8.5-7.2-11.2-12.9-2.3-5.2-9.7-31.2-9.7-34.3 0-1.2.7-1 5.9 1.7m-73.9-.7c0 1.4-16.3 21.2-28.2 34.2-12.5 13.8-41.4 47.1-44.1 50.9-1.9 2.8-1.8 2.8-4.1-1.6-8.9-17.5 8.1-47.8 38.4-68.3 8.2-5.6 15.4-9 26.5-12.6 11.2-3.7 11.5-3.7 11.5-2.6"/><path d="M1310.1 672.2c-11.3 1.6-32.3 10.3-46.1 19.3-8.4 5.4-18.1 14.9-20.9 20.2-2.7 5.5-2.8 10.9-.1 12.3 1.1.6 1.8 1.6 1.4 2.1-1.3 2.1 17.4 26.5 24.8 32.3 5.7 4.4 5.1 1.6-.9-4.7-7.9-8.4-14.3-16.1-18.6-22.7l-3.7-5.4 12.3-2.8c28.6-6.4 34.4-7.2 51.7-7.2 15.8 0 17.1.2 30 3.6 7.4 2 20.4 6.1 28.9 9.1l15.4 5.4-21.4.6c-23.2.6-31.2 1.9-43.9 6.8-12.6 4.8-35.2 20.1-33 22.3.6.6 2.6-.2 5.2-2.3 21.2-16 41.7-23.5 63.3-23 4.7.1 4.5.2-4 1.9-15 3-24.1 7.2-37.9 17.3-9.1 6.8-23.6 14.2-30.4 15.6-2.9.6-11.7 1.8-19.5 2.6-17.6 1.9-24.6 4.1-31.4 10-17.7 15.5-21.8 44.5-11.8 82.9 6.8 26.2 18.3 50 41 85.1s29.1 54.2 34 101.5c5.7 55.5 8.7 66.5 20.2 75 11.7 8.6 25.7 4.9 43.9-11.5 14.3-12.9 16.2-14.2 21.8-15.5 4.3-.9 5.8-.8 12 1.2 6.7 2.2 8.6 2.3 33.6 2.2 14.6 0 34.6-.3 44.5-.5l18-.4 6 2.9c8.7 4.3 18.3 4.7 29 1.1 11-3.7 20.9-4.2 39.6-2 13.2 1.6 17.1 1.7 30.3.7 15.2-1.2 33.7-4.9 34.4-7 .6-1.9-3.2-3.1-7.2-2.2-4.2.9-14.1-.2-22.5-2.7-3.1-.8-12.1-4.8-20.1-8.8-28.6-14.3-34.4-15.1-51.1-7.1-6 2.9-11 4.6-13.3 4.6-2.4 0-7.1-1.8-14.4-5.6-9.8-5.1-11.4-5.7-17.3-5.7-5.8 0-18.4 3.1-21.4 5.3-.5.4-8.4 3.3-17.5 6.3-21.8 7.4-40.7 11.6-59.8 13.2l-7.2.6 5.1-9.8c9.5-17.9 11.9-21.5 24.8-36.1 3.5-4 6.6-7.1 6.8-6.9s-1.8 3.7-4.5 7.8c-5.4 8.3-12.5 23.2-14.3 30.1-1.5 5.5-.8 7.9 2.1 7.1 3.7-1 8.3-6.6 16.2-20 4.2-7 10.8-17.1 14.8-22.3 7.1-9.5 8.7-12.7 7.6-15.5-1-2.7-3.5-1.6-9.7 4.1-4.5 4.2-6.3 5.3-7.3 4.5-2.7-2.2-7.4.9-16.7 11.2-10.7 11.9-14.2 17-21.2 31.4-2.8 5.8-5.3 10.1-5.5 9.5-.6-2 6.3-17.9 12.1-27.7 6.4-10.8 7.7-15.8 4.1-16.3-1.6-.2-3.3 1.5-7.5 7.5-7.8 11.2-8.6 12.5-15.6 25.8-3.4 6.6-6.3 11.7-6.3 11.4 0-.9 4.3-12.5 7.4-19.8 3-6.9 3-9.8.3-11.5-4-2.4-13.8 12.9-21.2 33.2-2.1 5.6-4.1 10.5-4.6 10.7-2.6 1.7 4-21.7 8.8-30.7 4.2-8 15.6-19.4 23.3-23.3 2.8-1.4 10.8-4.5 17.8-6.9 24.4-8.4 32.4-12.5 52.7-27.1 15.9-11.5 16.8-11.8 9.6-4-17.1 18.9-38.7 59.8-35 66.7 2.5 4.7 5.2 1.6 15.8-18.2 4.6-8.5 10.7-19 13.5-23.3 6.2-9.1 19.4-24.5 24.4-28.4 4.1-3.1 3.9-2.6-4.2 8.7-13.8 19.3-21.1 31.8-25.1 43.1-2.7 7.8-3 12.9-.7 13.7 3.3 1.1 16.6-17.4 27.6-38.3 5-9.6 16.1-25.5 17.7-25.5.6 0 .8.3.6.7-3.2 5.5-19.9 41.3-21.3 45.6-2.1 6.8-1.2 11 2.5 11.5 4.9.7 9.7-6.6 17.5-26.9 2.4-6.4 5.4-13.4 6.6-15.5l2.1-3.9-.6 4.5c-.3 2.5-2.3 11-4.5 19-4.3 15.5-4.8 20.1-2.6 21.9 2.2 1.9 4.7.1 7.1-5.2l2.3-4.9.7 4.5c.4 2.5 1.2 5.3 1.9 6.2 1.1 1.5 1.3 1.4 3-.3 2.1-2.4 7.1-18.7 8.1-26.4.4-3.1.2-7.1-.4-9.3-.6-2.1-.8-4.1-.6-4.3 1.1-1.1 2.6 6 3.5 16.7 1.1 13.1 2.2 17.9 5 21.3 1.5 1.8 2.1 2 3.1 1.1 2-2 2.3-16.7.5-27.7-.9-5.4-1.5-10.1-1.3-10.3s2.3 7.2 4.5 16.3c4.1 16.6 6.3 21.9 8.5 21.1 2-.6 1.9-8.8-.2-21.9-1.1-6.7-2.2-15.2-2.6-18.8-.5-6.2-.2-5.7 6 12 3.6 10.2 7.5 20.7 8.7 23.4 2.3 5 5.9 8.3 7.8 7.1 2.3-1.4.9-12.7-4-31.8-2.7-10.6-5-20.2-5-21.3 0-1 3 5.5 6.5 14.4 7.1 17.7 13.9 32 18.6 38.8 3.6 5.3 4.7 6 6.5 4.3 3.2-3.3-4.4-29-16-54.3-2-4.3-3.5-8.1-3.2-8.3 1.2-1.2 17.5 28.5 30.6 55.5 8 16.5 13 23.6 15.3 21.3 1.9-1.9.8-8.6-4.4-25.9-2.8-9.2-5.3-17.8-5.5-19.2-.3-1.4 4.9 8.3 11.5 21.5 14.9 30.1 19.2 35.2 19.9 24.1.3-5.2-1.5-14.4-5.3-27.2-1.4-4.5-2.5-8.8-2.5-9.5.2-3 6.7 11.5 14.1 31 4.3 11.2 8.7 21.4 9.9 22.5 2.1 2.1 2.1 2.1 3.6.2 2.6-3.6 1.6-11.1-4.6-36.4-1.4-5.9.7-3.3 3.8 4.5 1.7 4.3 5 13.6 7.3 20.8 4.3 13.5 6.3 17.3 7.5 14.2.3-.9-.2-3.6-1.1-6-2.2-5.4-4.6-16.8-3.8-18 1-1.7 4.1 7.5 6.8 20.4 3.1 14.9 4.1 18.4 6.1 19.9 6.4 5.4 5.4-18.9-1.6-38.3-6.2-16.8-18.1-29.9-36.9-40.5-5.9-3.3-16.9-9.5-24.6-13.8-16.3-9.1-22.5-13.1-31.7-20.8-7.9-6.5-9.9-9.3-10-13.6-.1-4.5 2.6-6.6 11.2-8.3 10.1-2 16.2-5 22.4-11.1 6.5-6.4 8.6-12.4 8.6-24.2 0-6.5-.6-10.4-2.8-17.1-2.8-8.7-7.4-17.3-9.2-17.3-2 0-1.9 2 .5 6.2 4.5 7.8 7.5 19 7.5 28.2 0 8.9-1.1 13.2-4.5 18.3-4.5 6.8-13.9 12.1-24.5 13.8l-4.5.7 4.3-3.9c2.4-2.3 4.2-4.9 4.2-6.1 0-2.8-3.3-6.2-6.2-6.3-9.9-.7-17.7 3-27.8 13-4.1 4.1-9.7 9-12.4 10.8-4.5 3.1-5.3 3.3-13 3.3-6.4-.1-7.7-.3-6.1-1.2 4.1-2.2 7.6-6.3 8.6-10.1 1.3-5.1.8-5.6-8.3-7.9-16.8-4.3-28.1-12.5-34.4-25.2-6.9-14.1-6.8-26.8.2-48.7 5.8-18.4 8.2-30.7 9.5-49.6 1.5-20.4.6-59.4-1.6-73.3-2.8-17.8-8.5-31.3-14.9-35.5-1.9-1.3-2.4-2.7-2.9-7.6-.7-8.4-5.4-17.6-11.8-23.2-10-8.7-22.6-13.6-60.4-23.2-25.4-6.4-41.8-11.3-49-14.5-2.2-.9-6.9-2.9-10.5-4.3-5.7-2.2-8.5-2.9-16.5-4.1-1.1-.2-4.9.1-8.4.6m15.3 4.4c3.3.8 10.6 3.5 16.1 5.9 11 4.8 28.3 10 56.5 17 29.6 7.4 44.6 13.1 54 20.5 4.3 3.4 10.4 14.7 11.6 21.4.6 3.6.5 3.9-1.2 3.1-13.1-5.4-32.3-9.2-52.4-10.4-16.5-.9-16.5-.9-32.5-6.6-54.5-19.2-66.3-20.2-114.3-9.6-9.4 2.1-17.4 3.5-17.7 3.3-1.6-1.6-.1-6.5 3.3-10.9 9.9-12.4 29.2-24.7 49.2-31.3 12.7-4.2 18.3-4.7 27.4-2.4m80 63c11.1 2.8 28.3 10.3 35.8 15.5 3.9 2.8 4.3.7.5-2.9-3.3-3.2-15.2-9.2-24.7-12.4l-5.5-1.9 9.3.6c9.3.6 32 5.7 39.5 8.9 3 1.3 3.7 2.2 3.7 4.4 0 8.7-4.9 26.9-8 29.7-1.9 1.8-2 1.7-2-1.4 0-6.2-5.1-12.3-14.9-18.1-3-1.7-8-5.1-11-7.4-11.3-8.7-24.7-13.5-43.6-15.6-6.9-.7-6.9-.7 3.9-.9 6.9-.1 13 .5 17 1.5m-40.5 4.6c-2 3.8-1.7 12.3.7 15.5 3.2 4.4 8.3 6.7 12.8 5.9 4.8-.9 11.4-6.9 12.2-11.1.6-3.5-2.7-9.2-6.6-11.2-3.5-1.8-1.5-1.6 8.7.7l8.9 2.1 1.2 5.8c1.6 7.6-.3 14.1-5.9 20.5-17.8 20.2-49.7 9.5-51.7-17.5-.5-7.9-.3-8.1 11.3-11 9.6-2.4 9.8-2.4 8.4.3m16.7.7c1.7 1 3.6 3.3 4.3 5 2.6 6.1-.9 10.8-8.8 11.8-3.5.5-4.4.2-7.1-2.5-3.2-3.3-4-8.4-2-13.6.8-2.3 1.5-2.6 5.7-2.6 2.9 0 6 .7 7.9 1.9m-40 9.6c.1 5.4.7 7.8 3.8 14 4 8.1 8 11.9 16.4 15.7 5.6 2.5 16.9 2.7 23.7.4 13.9-4.6 23.6-19 21.5-31.9-.4-2-.5-3.7-.3-3.7 2 0 34.2 18.5 38.9 22.4 2.4 2 6.1 9.3 5.1 10.2-.1.1-2.9-.2-6.2-.8-8.7-1.4-19.5-.5-40.5 3.2-33.7 6.1-53.6 4.4-74.4-6.3-9.9-5.1-18.1-11.6-17.4-13.8.5-1.5 11.6-7.8 21.6-12.3 4.3-1.9 7.7-3.5 7.7-3.5 0-.1 0 2.8.1 6.4m129.9 1.4c3.8 5.6 7.3 16.4 9.3 28.3 1.4 8.4 1.6 16.7 1.6 45.3-.1 38.7-.8 46.1-6.6 65.5-6.6 22.2-7.9 27.8-8.5 35.5-1.1 15 4.5 29.4 15.4 39.6 7.7 7.1 14 10.5 25.3 13.5 9.2 2.4 9.6 3 6.2 8.2-5.4 8.3-16.8 5-30.4-9-8.7-8.8-17.4-13.8-24.2-13.8-8.2 0-10.3 6.8-3.8 12.8l3.7 3.5-4.8-.6c-6.4-.9-15.2-5.2-19.6-9.6-6.7-6.7-9.6-20.7-6.7-31.9 2.2-8.7 5-13.7 11.3-20.3 5.2-5.5 5.7-7.8 1.5-6.4-2.8.8-10.1 10.2-13.3 17-10.4 21.9-2.4 45.7 17.4 52.5 8.9 3 16.9 3.7 18.6 1.6 1.2-1.5.7-2.2-3.9-6.5-3.6-3.3-5.1-5.4-4.7-6.5 1-2.6 5-2.8 11.3-.5 4.6 1.6 7.2 3.5 11.7 8.3 3.1 3.3 5.7 6.3 5.7 6.7 0 .3-2.7-.8-6-2.4-4.2-2.1-6.4-2.7-7.1-2s.6 2.1 4.3 4.3c20.6 12.7 24.9 14.3 39.3 14.4 10.3.1 11.3-.1 16.2-2.8 2.8-1.5 8.8-6.6 13.2-11.1 9-9.2 15.2-12.9 22-13 5.5 0 7.8 2.6 4.5 5.3-11.2 9.3-10.7 8.6-11.2 14.4-.6 7.3 1.9 12 10 19 12.3 10.6 19.1 14.9 44.8 28.8 24.6 13.2 35 21.5 44.1 35 3.4 5 7.6 18.4 9.5 29.7 2.5 15.8 1.3 14.1-3.4-4.8-5-19.6-7.2-24.9-9.8-22.8-.8.6-1.4 2.1-1.4 3.3-.1 1.1-1.1-.6-2.4-3.9s-3.5-8.4-5-11.3c-2.4-4.7-3-5.3-5.4-5-3.8.4-3.9 3.3-.2 18.4 3.6 15.1 4.8 23 2.9 20-.6-1-4-9.3-7.4-18.5-9.6-25.4-14.6-35.1-18-35.1s-3.3 3.5.5 18.7c2.1 8.4 4.1 17.2 4.5 19.5l.6 4.3-2.6-4.5c-1.5-2.5-6.7-12.7-11.6-22.8-10.4-21.5-12.3-24.4-15.3-24-4.1.6-3.7 3.3 5.5 32.7 3.3 10.4 3.5 14.2.6 9.8-.9-1.4-4.6-9.1-8.3-16.9-9.2-20.2-25.2-49.5-29.5-54-3.4-3.6-7.1-4.9-8.4-2.8-.6.9 1.6 6.8 10 26.5 4.6 11 11.9 33.4 11.1 34.2-1.2 1.2-10.1-17.5-23.6-49.4-4.4-10.4-7.2-14.5-8.5-12.3-1.7 2.8-.3 12.9 4.5 30.3 5 18.4 6.9 27.7 5.6 27.7-.9 0-3.2-5.8-10.6-27-3.7-10.7-7.5-21.3-8.4-23.4-1.6-3.8-1.7-3.9-3.4-2.2-2.3 2.3-2.1 14.3.7 30.6 1.1 6.9 2.1 13.2 2 14 0 .8-2.3-7.3-5-18s-5.4-19.9-5.9-20.4c-3.6-3.6-4.4 9.1-1.6 23.9 1.7 8.7 2.2 22.1.6 19.5-.4-.9-1.4-6.3-2-12-.7-5.8-1.7-13-2.3-16-1.1-4.9-1.5-5.5-3.7-5.5-2.1 0-2.6-.6-3.1-3.8-1.3-8.3-4.5-6.5-6 3.5-1.5 10.8-5.7 25.8-9 32.7-4.5 9.2-4.7 5.7-.5-8.1 7.3-24 8.8-41.5 3.1-36.8-1.8 1.5-6.8 12.1-11.6 24.8-7.1 18.6-13.2 29-15.1 25.9-1.6-2.5 1.3-9.6 14.9-36.6 9-17.8 10.3-21.4 8.4-22.5-1.3-.9-6.2 1.2-9 3.7-2.5 2.4-13.7 19-16.6 24.7-4.1 8.2-17.2 29.5-20.2 32.8l-3.3 3.7 2.5-7c1.4-3.9 3.3-8.6 4.3-10.5 2.9-5.9 14.2-23.9 22-35 7.7-11.1 8.9-15.2 4.6-15.8-2.8-.4-6.8 3.1-17.7 15.3-10.8 12.2-17.4 22.1-28.1 41.9-4.8 9.1-8.2 14.4-8.4 13.3-.4-1.9 9.6-23.3 15.5-33.1 6.3-10.5 16.8-24.1 22.2-28.7 5.9-5 8.7-8.8 7.4-9.9-2.2-2.1-10.9 2.2-29.2 14.4-20.1 13.5-29.2 18-52.1 25.8-6.3 2.2-13.7 5.1-16.5 6.6-7.7 4.2-19.8 17-24 25.5-4.3 8.9-8.4 24.1-8.7 32.7-.3 6-.1 6.5 1.9 6.8 2.9.4 4.3-1.8 9.9-16.8 2.5-6.9 5.8-14.8 7.2-17.5 3-6.1 8.2-13.8 8.8-13.2.3.3-1 4.5-3 9.3-1.9 4.9-4.2 11.4-5.2 14.4-2 5.9-2.5 14.3-.9 14.9.5.2 3.3-4.3 6.3-10 5.5-10.5 19-33.9 19.6-33.9.1 0-2.1 4.8-5.1 10.7-2.9 6-6.1 13.8-7 17.5-1.6 6.3-1.6 6.8 0 8.6s1.5 2-3 5.2c-2.7 1.9-8.4 6.8-12.8 11-9.5 9-15.2 12.6-22.6 14.1-14 2.8-23.1-5.7-28.4-26.5-.8-3.3-2.2-12.5-3.1-20.5-6.1-56.8-8.1-69.3-13.5-84.7-5.8-16.5-10.5-25.5-25.9-49.4-23-35.8-33.7-59.2-40.7-89-3.4-14.6-4.2-33.8-1.8-44.6 4.1-18.7 13.6-30.2 28-33.8 3.3-.8 12.6-2.2 20.7-3.1 15.2-1.6 21.6-3.3 30.8-8.1 3-1.5 5.7-2.8 6-2.9.3 0 1-.3 1.6-.7s3.6 1.7 6.7 4.7c6.4 6 22.4 14.4 32.2 16.9 3.3.9 10.7 2.1 16.5 2.7 12 1.3 22.9.3 52.2-5.1 13.7-2.5 18.4-3 26.3-2.6 5.4.3 10.3 1 11 1.6.8.6 1.6.7 1.9.2s1.7-.7 3.1-.4c2.2.4 2.8-.2 5-5.1 2.9-6.3 5.5-17.2 5.5-23.5 0-2.3.4-4.2 1-4.2.5 0 2.1 1.8 3.5 3.9m37.5 286.5c0 5-2.7 16.7-4.9 21.6-1.8 4-.6-10.5 1.4-15.9 1-3 1.2-4.8.5-5.5-1.3-1.3-1.3-2.9-.1-2.1.5.3 1.2.1 1.5-.4.4-.5.2-1.2-.4-1.6-1.6-1-1.2-2.5.5-1.9 1.1.4 1.5 2.1 1.5 5.8m-85 4.6c-3.4 4.5-9.8 14.1-14.2 21.3-7.5 12.3-14.3 21.3-12.3 16.2.4-1.1 2.1-5.6 3.8-10 3.9-10.6 12.4-23.4 18.5-27.8 2.6-2 5.8-4.7 7.1-6.1 4.8-5.1 3.2-1.6-2.9 6.4m68.2 33.5c2.9 1.3 7.7 3.8 10.7 5.5 8.2 4.6 13 4.2 26.1-2.1 9.9-4.7 10.8-5 16.3-4.4 7.5.8 11.4 2.2 28.2 10.4 13.8 6.8 28.1 12 33.3 12.2 6 .2-3.7 1.6-16.2 2.3-9.2.6-16.3.3-27.3-.9-18.8-2.2-31-1.6-41 1.9-9.8 3.5-14.5 3.3-27.1-1l-10.5-3.6-14.1.6c-34.8 1.5-48.3 1.8-60 1.1-6.9-.4-12.4-1.1-12.1-1.5s3-1.1 6.1-1.5c12.5-1.5 37.4-8.9 60.9-17.9 11.5-4.5 18.9-4.8 26.7-1.1"/><path d="M1300.9 773.1c-.7 1.4-1 4.9-.7 9.4 1.6 25.1 25.6 42.5 58.8 42.5 14.2 0 24.7-2.1 40.3-8.1 15.2-5.8 24.8-10.8 36.7-19.2 3-2.2 7.7-5.3 10.3-7 2.9-1.8 4.4-3.4 3.9-3.9-1.1-1.1-7.3 1.8-14.1 6.5-5.6 3.8-26.2 15.7-27.3 15.7-.4 0-3.1 1.1-6 2.4-28.5 12.9-62 12.7-82-.7-10.2-6.8-16.7-19-16.8-31.4 0-7.6-1.1-9.8-3.1-6.2m251.5-68.6c-1.3 1.9-1.5 4-1.1 8.3 1.1 12.3 8.3 22.2 20.3 27.7 5.2 2.4 6.4 3.5 10.6 10.1 10.1 15.8 22 18.2 39 7.7 15.7-9.7 34.2-16 50.3-17.2 13.8-.9 34.7.4 45.5 2.9 9.5 2.3 19.4 6.8 33 15.1 10.7 6.5 18.3 7.6 26 3.6 11.3-5.7 18.7-29 13.1-41.3-2.3-5-8-9.8-14-11.9-6.7-2.3-24.8-2-37.4.6-9.9 2-40.6 10.7-67.2 19-15.7 4.8-46.2 12.4-56.5 14-8.1 1.2-19.3.7-27.8-1.2-6.4-1.5-6.6-1.7-16.1-20.5-9.7-19.2-13.7-23-17.7-16.9m14.3 18c3.5 7.1 6.9 13.4 7.4 13.9 2.1 2.2.7 2.4-2.8.4-10.2-5.7-16.3-15.1-16.3-24.9 0-10.6 2.2-8.6 11.7 10.6m204.8-10c11.1 2.9 15.9 9.1 15.7 20-.1 7-3.1 16.4-6.8 21.2-7.5 9.8-17.1 9.9-32.4.1-20.6-13.2-39.4-17.7-69.5-16.5-22.6.8-39.7 5.8-58.5 17-13.3 8-19.7 8.7-26.9 2.9-3.8-3-10.5-11.2-9.8-11.9.3-.2 2.4.1 4.8.6 15 3.5 43.4-.8 79.4-11.9 10.9-3.4 49.7-14.9 58.5-17.3 18.8-5.2 35.5-6.8 45.5-4.2"/><path d="M1674.5 745.4c-7.2 2.7-10.3 7.7-9.6 15.5 1 10.7 17.6 13.8 22.6 4.1 2.1-4 1.9-6.9-.9-12.5l-2.5-4.8 6.7.5c12.2 1 15.9 4.7 14.8 14.9-1.1 10.6-5.3 17.1-14 21.7-4.4 2.3-6.3 2.7-14.1 2.7-11.2 0-17.7-2.1-22.8-7.3-5.7-5.9-7.7-11.3-7.7-21.5 0-6.8-.3-8.9-1.5-9.3-3.2-1.3-28.5 14-38 22.9-4.7 4.5-5.5 5.8-5.5 8.9 0 1.9.6 4.1 1.4 4.7.9.7 5.2 1.1 12.2.9 10.8-.2 11.1-.1 26.4 5.1 12.3 4.2 18.2 5.6 28.4 6.9 11.9 1.5 13.7 1.5 22.6-.1 5.3-.9 12.8-2.6 16.6-3.9 15.1-4.9 31.7-15.1 33-20.3 1.8-7.3-14.7-21-33.3-27.7-7.8-2.7-28.9-3.6-34.8-1.4m7.2 6c2.4 2.1 2.8 3.2 2.8 7.6 0 6.1-1.8 8-7.6 8-7 0-11.5-9.2-7.1-14.7 3-3.8 8.1-4.2 11.9-.9m30.5.5c2.6 1.1 5 2.1 5.3 2.1s3.7 2 7.4 4.5c7.5 4.9 14.1 11.5 14.1 14.1 0 5-20.8 16.2-39 21-8.5 2.3-26.6 2.3-38 .1-4.7-.9-13.9-3.5-20.5-5.8-15.8-5.3-19.9-6-27.6-4.8-5.1.8-6.5.7-7.7-.4-2.2-2.2-.2-4.8 8.6-11.5 10.4-7.9 25.3-17.2 27.5-17.2.3 0 .7 3.6.9 8 .9 14.9 7.9 23.8 22 28.1 14.2 4.3 28.1.9 37.1-9.1 7.1-7.9 9.7-20.6 5.8-28.3-1-2-1.6-3.5-1.2-3.3.3.2 2.7 1.3 5.3 2.5m-434.6 10c-.4.5-.2 1.2.3 1.5.5.4 1.2.2 1.5-.3.4-.5.2-1.2-.3-1.5-.5-.4-1.2-.2-1.5.3m127.9 349.1c-1.3 2 .7 4.8 6.8 9.7 18.3 14.8 42.1 27.2 57.4 29.8 3.4.5 4 1 3.6 2.6-.4 1.5.4 2.3 3.8 3.8 5.7 2.5 20.5 5.1 29.2 5.1 10.1 0 25.6 1.8 30.4 3.6 8.2 3 11.7 10.9 7.6 17-1.7 2.7-9.5 6.7-14.8 7.8-1.6.3-9.1 1-16.5 1.6-39.5 3.1-63.1 11.9-78.2 29.2-8 9.2-11.1 15.9-12.8 28.1-1.9 13.2 2.5 25.8 12.9 36.9 17.6 18.8 49 25.4 93.8 19.8 8.7-1.1 18.6-2.1 22.1-2.2 3.4-.2 6.3-.8 6.5-1.3.4-1.7-16.7-1.7-30.3 0-16 1.9-39.2 1.9-50.2 0-23.7-4.1-40.3-14.9-48-31.2-7.8-16.6-3.1-36.2 12.3-50.7 15.9-15 31.5-20.3 71.6-24.5 12.4-1.3 20.9-2.7 24.5-4.1 10.9-4.1 15.6-13.2 11-21.7-4.3-8-10.4-10-35.2-11.8-15.5-1.1-34-3.7-34-4.8 0-.1 10.9-.3 24.3-.3 47.8-.3 59.8-3.8 86.4-25.3 12.5-10 15-12.8 13.5-14.3-1.2-1.2-4.2.8-10.7 6.9-14.5 13.4-29.4 22-44.3 25.4-12.3 2.9-58.3 3.9-71.7 1.5-22.1-3.8-41.2-13.3-62.2-30.8-4.5-3.8-8.5-6.4-8.8-5.8"/></svg>