<svg xmlns="http://www.w3.org/2000/svg" width="3669.333" height="2048" viewBox="0 0 2752 1536"><path d="M1521.8 124.7c.7.3 1.6.2 1.9-.1.4-.3-.2-.6-1.3-.5-1.1 0-1.4.3-.6.6m106.8 207.4c.3.5 2.4.9 4.6.9 5.1 0 4.7-.5-1-1.3-2.4-.3-4-.1-3.6.4m68.2 6.6c.6.2 1.8.2 2.5 0 .6-.3.1-.5-1.3-.5s-1.9.2-1.2.5m-567.7 152.9c0 1.1.3 1.4.6.6.3-.7.2-1.6-.1-1.9-.3-.4-.6.2-.5 1.3m759 155c0 1.1.3 1.4.6.6.3-.7.2-1.6-.1-1.9-.3-.4-.6.2-.5 1.3m-501.3 88.1c.7.3 1.6.2 1.9-.1.4-.3-.2-.6-1.3-.5-1.1 0-1.4.3-.6.6m-26.5 3.8c0 1.4 3.3 2.1 8.2 1.7 1.1-.1 3.4-.2 5.1-.2 2-.1 3.1-.6 3.1-1.5 0-1.2-1.7-1.5-8.2-1.5-6.6 0-8.2.3-8.2 1.5m-19.3 6.4c-5.4 1.7-14.3 6-12.7 6.1.4 0 2.7-1 5-2.1 2.3-1.2 5.3-2.3 6.7-2.4 2.4-.2 9.6-3.4 7.5-3.4-.5 0-3.5.8-6.5 1.8m-160.9 38.8c-.1 2.3.4 3.3 1.4 3.3 1.2 0 1.3-.5.7-1.8-.5-.9-1.2-2.4-1.5-3.2s-.6 0-.6 1.7M2054 838c-.8.5-3.3 1-5.5 1.1-2.9.1-2.1.4 2.9 1 5.4.6 7.2.5 8.3-.7 1.3-1.2 1.2-1.4 0-1.4-.9 0-2.1-.2-2.9-.5-.7-.3-2 0-2.8.5m-864.3 20.7c-.3.5-.1 2.8.3 5.3l.7 4.5.2-5.3c.1-4.9-.2-6.2-1.2-4.5m2.4 31.9c0 1.1.3 1.4.6.6.3-.7.2-1.6-.1-1.9-.3-.4-.6.2-.5 1.3m371.9 99.9c-1.1 1.3-1 1.4.4.9.9-.3 1.6-1 1.6-1.5 0-1.3-.6-1.1-2 .6m-77.4 1.3c-.4.7 9.4 6.2 11.1 6.2.6 0-3.9-3-9.4-6.3-.6-.4-1.4-.4-1.7.1m18.2 7.9c.7.3 1.6.2 1.9-.1.4-.3-.2-.6-1.3-.5-1.1 0-1.4.3-.6.6m-14.6 12.2c-1.1.7-1.1.9.2 1.4 1 .4 1.6.1 1.6-.8 0-1.7-.1-1.7-1.8-.6m53.8.6c0 .5.5 1.7 1 2.5s1 1 1 .5c0-.6-.5-1.7-1-2.5s-1-1.1-1-.5m-12.9 6.1c0 1.1.3 1.4.6.6.3-.7.2-1.6-.1-1.9-.3-.4-.6.2-.5 1.3m-24.3 11.4c-.6 3.8-.3 4.9 1 3.4.5-.5.6-2.3.2-3.9l-.6-3zm26.3 30.6c0 1.1.3 1.4.6.6.3-.7.2-1.6-.1-1.9-.3-.4-.6.2-.5 1.3m-192.1 51c0 .8.5 1.2 1 .9.6-.4.8-1.1.5-1.6-.9-1.4-1.5-1.1-1.5.7"/></svg>