<svg xmlns="http://www.w3.org/2000/svg" width="3669.333" height="2048" viewBox="0 0 2752 1536"><path d="M1564.8 72.5c-4.2.8-14.1 3-22 4.9-7.8 1.9-17.8 4-22.1 4.7-11 1.7-29.5.6-42.7-2.6-35.7-8.5-61-8.8-86.2-.9-15.8 4.9-33.7 15.4-46.8 27.3-6.2 5.6-6.4 6-4.8 7.7s2.2 1.7 10.5.1c12-2.3 35.3-2.1 35.3.3 0 .3-3.3 1.2-7.4 1.8-12.5 1.9-43.2 9-60 13.8-37.1 10.6-62.7 22.8-88.7 42-20.6 15.2-35.9 33.4-51.6 61.3-16.7 29.7-25.1 41.6-50.2 71-21.4 25-30.5 39.4-37.1 58.4-4.8 14.1-5.5 18.9-5.4 38.2.1 23.7 2.4 34.7 14.9 72 10.6 31.5 11.1 34.3 14 74.5 3.1 43.9 5.6 55.7 17.2 82.7.4.9-.8 1.3-4.1 1.3-6.3 0-10.4 1.9-15 7-8.5 9.5-11.9 22.1-11.9 45-.1 22.8 3.6 41.6 12.4 64 17.9 45.9 21.5 60.7 24.4 101 .8 11.8 2.2 24.2 3.1 27.5 2.5 9.6 8.1 19.3 15.4 26.6 8 8 13.6 10.9 21.3 10.9 5.1 0 6.1-.4 9.7-3.6 3.9-3.5 3.9-3.5 4.4-1.2.2 1.3 2.1 14.2 4.1 28.8 4.1 28.9 10.1 66.1 14.1 86.5 11.2 58 26.8 93.1 66 148.6 44.8 63.3 82.5 107.5 106.4 124.6 20.5 14.6 40.3 22.4 69.8 27.4 18.6 3.1 18.9 3.1 44.7 2.6 50.9-1.1 76.2-5.9 103-19.5 17.8-9 37.9-26.4 56.8-49.3l9.6-11.7 5.8 2.4c5.6 2.2 7.3 2.3 36.8 2.9 17.1.3 35.7.8 41.5 1.1 15.9.8 42.9 4.2 55.9 7 6.4 1.3 19.3 4 28.6 6 23.7 4.9 31.6 7 42 11.1 11.5 4.5 38.8 20 56.4 31.8 34.7 23.4 65.4 41 80.5 46.1 8.3 2.9 25.8 6.6 41.6 8.9 36 5.3 57.9 17.3 75.2 41.2 7.3 10.1 18 32.2 28.8 59.3 4.5 11.3 8.8 21.2 9.6 22 2.1 2.2 4.9 0 4.8-3.6-.2-3.8-18.1-47.1-24.8-60-8.2-15.8-14.2-24.1-25.6-35.5-11.5-11.5-19.2-16.7-33.6-22.6-8.6-3.5-14-4.7-48.9-11.2-8.8-1.6-18.7-3.7-22-4.6-13.8-3.8-36.6-16.6-78.7-43.9-49.8-32.3-61.5-37.8-96.8-45.1-9.6-1.9-23.6-4.9-31-6.5-13.5-3-26.4-5.1-43.4-7.1-5-.6-27.5-1.4-50.1-1.8-39.7-.8-47.5-1.4-47.5-4.1 0-1.9 18.9-23.9 43.3-50.6 6.6-7.1 16.4-18.6 21.9-25.6l10.1-12.7 7.1-.6c3.9-.3 16.3-.5 27.6-.3l20.5.3 2.6 10.5c2.9 12.1 6.4 23 8.9 28 2.5 4.9 11.1 12.7 16.7 15.1 5.8 2.5 9.1 2 15.3-2.1l4.4-2.9 4.8 5.3c3.5 4 5.8 5.6 9.3 6.6 14.6 4.1 31.1-6.3 40-25.2 7.1-15.2 8.8-22.9 8.9-39.8.1-11.7-.3-16.5-2.2-24.9-3-13.4-7.4-25.8-12.3-34.8l-3.9-7.3 3.3-4.3c10.4-13.7 12.5-35.9 5.4-58.2-.7-1.9-.3-2 6.6-2.1 8.2-.1 15.5-2.8 21.6-8.1l3.4-2.9 6.5 6.3 6.4 6.4-.7 4.7c-1.2 8.3-6.3 26.9-10 36.4-3.6 9.4-16.4 33.2-23.6 44.1-4.5 6.7-4.7 7.7-1.9 10.2 1.5 1.4 2.3 1.5 3.4.6 4-3.4 24.1-39.6 29.5-53.4 3.5-8.8 10.1-32.8 10.1-36.8v-2.5l8.3 2.8c6.4 2.2 10.1 2.8 16.9 2.8h8.7l-1.6 3.8c-2.2 5.1-2.9 23.4-1.3 30.3.7 2.9 3.4 10.8 6.1 17.5 6 15.5 8.2 22.9 11.3 38.9 4 20.3 4.4 24.2 6.6 54.5 1.1 15.7 2.2 30.3 2.5 32.5 4.9 42.9 10.9 66.2 24.1 94.1 14 29.8 39.7 53.4 57.9 53.4 3.7 0 4.5.3 4.5 1.9 0 3.7 2.6 4.5 14.3 4.4 17.3-.2 28.4-4.6 43.5-17.3 11.6-9.7 15.9-16.9 13.1-21.9-1.2-2.1-2.3-2.7-5.9-2.9-5.3-.3-15.4 4.3-33.3 15.1-16.5 10-24.5 13-34 13-6.9 0-8.6-.4-15.3-3.7-13.5-6.7-24.1-18.5-34.8-38.6-17.3-32.8-24.9-67-28.6-128-2.5-41.7-7.4-68.2-17.6-94.7-7.4-19.1-8.8-26.2-7.5-37.2.6-4.6 1.8-10.3 2.7-12.6 1.3-3.6 2.2-4.4 6.7-6 11.6-4.2 29.5-18.9 31.2-25.7.9-3.7-2.8-7.8-7.1-7.8-7.8 0-23.4 11.6-30.5 22.6-3.8 5.9-4.3 6.3-8.7 6.9-9.8 1.3-29.1-3.5-37.2-9.2-2.2-1.5-5-4.7-6.1-7.1l-2.2-4.4 3.6-3.6c7.2-7.5 16.1-23.2 19.6-34.6 2.5-8.1 2.7-13.3.5-16.4-2.3-3.3-5.3-2.7-9.9 2.1-7.4 7.7-19.8 34.8-21.1 46.1-.6 5.1-1.1 5.8-5.7 9.7-7.2 6.1-17.7 8.4-26.7 5.9-2.8-.8-4.5-2.3-7.7-7.2-5.5-8.4-17.3-19.8-20.5-19.8-4.9 0-7.4 6.1-4.7 11.3 3.6 6.8 13.1 15.4 21.3 19.3 3 1.5 3.7 2.6 6.1 9.8 5 15 4.5 34.3-1.1 46.2-3.8 8.2-4.8 8.6-11.9 6.2-9.7-3.3-20.2-1.2-24.1 4.7-1.6 2.4-1.5 2.7.2 4.7 5 5.6 14.8 7.2 24.2 3.9 5.3-1.8 5.3-1.8 6.4.3 5.8 10.4 9.8 21.3 13 35.3 1.9 7.9 2.3 12.7 2.3 25.3-.1 14.8-.2 15.9-3.2 24.7-8.4 24.1-17.2 33.3-31.9 33.3-9.4 0-11.1-2.4-17.3-23.7-2.3-7.8-6.4-20.2-9.2-27.5-8.6-22.4-21.7-58.5-23.3-64.1-4.5-15.4-7.6-44.5-7.6-71.2 0-19 3.3-60.9 5.6-72 2.1-9.9 11.2-19.7 24.6-26.3 9.1-4.6 32.4-12.5 66.3-22.7 52-15.7 80.2-26 108.7-39.7 28.6-13.7 34.6-14.6 46.7-6.8 3.4 2.2 7.9 4.9 10 6l3.9 1.9 2.6-2c1.4-1.1 2.6-2.4 2.6-2.8s-1.8-2.7-3.9-5l-3.9-4.2 3.2.6c1.7.3 6.3 2.2 10.2 4 17 8.2 22.6 15.9 47.2 64.5 16.5 32.6 27.9 54 32.7 61.4 9.6 15 42 69.4 56.5 95.1 18 31.8 33.6 56.2 59.3 92.5 6.1 8.5 14.2 20 18 25.5 3.9 5.5 10.7 15.1 15.1 21.3 18.5 25.7 20.8 29 25.2 35.7 19.7 29.8 33 45.6 48.4 57.9 16.1 13 33.2 29.6 38.4 37.4 5.9 9.1 10.1 17.7 18.1 37.2 15.3 37.4 34.8 78.4 40.3 84.2 1.9 2 2.9 2.5 3.8 1.7 1.4-1.2.5-3.4-14.5-36.1-5-10.9-14-31.5-20-45.7-12.8-30.2-15.8-36.4-21.6-44.6-5.1-7.2-23.5-25.1-39.3-38.3-13-10.8-16.8-14.7-25.6-26.4-4.9-6.5-23.5-32.7-33.6-47.5-.8-1.2-7.4-10.4-14.6-20.5-52.3-73.2-67.8-96.7-94.4-143.3-11.7-20.4-23.2-39.9-41.2-69.5-16.9-27.8-26.3-45-41.1-74.5-21.1-42.5-26.9-51.9-39.1-64-10.7-10.5-24.6-16.5-44.8-19-4.1-.5-5.2-1.2-9.5-6.3-2.6-3.1-9-10.2-14.2-15.7-5.1-5.5-13.9-15.4-19.4-22-19-22.7-24.1-28.1-52.7-56.5-27.9-27.6-37.2-38.1-51.2-58-3.7-5.2-9.6-13.1-13.1-17.5l-6.4-7.9 2.4-1.9c3.4-2.7 5-7.2 9.4-27.1 2.2-9.8 7.2-28.5 11-41.5 8.2-27.9 17-62.8 20-79.6 3.4-18.5 3.8-49.8.9-71.5-5.4-42-18.3-92.6-31.7-124.3-10.2-24.4-16.5-34.7-29.2-48-9.7-10.1-16.3-15.2-32.4-24.8s-21.6-14.7-26.3-24.8c-12.3-25.8-15.9-32.4-23.3-42.2-13.8-18.3-25.7-27.9-48.8-39.4-17.6-8.7-22.5-10.4-24.8-8.5-1.7 1.4-1.9 5.9-.5 10.8.9 3.3.7 3.2-5.8-3-28.6-27-60.5-43.9-94.9-50.4-12.3-2.3-46.1-2.8-56.5-.9m54.5 8.6c32.5 5.5 64.9 22 90.2 45.8 3.9 3.6 10.3 9.5 14.4 12.9 7.1 6.2 7.4 6.3 9.1 4.5 1.8-1.7 1.7-2.1-1.1-10.7-1.6-4.9-2.8-9.1-2.5-9.3 1-1 34.8 17.2 41.1 22.2 15.5 12.2 28.7 31.4 39.5 57.5 3.1 7.3 9.9 16.8 15.6 21.9 2.5 2.2 10.1 7.3 16.7 11.2 28.3 16.7 38.5 27.4 51.1 53.3 16.1 32.9 31.5 88.8 38.2 138.1 2.6 19.4 2.4 49.1-.5 66-3.8 22.4-23.2 97.7-24.8 96.2-.2-.3.6-5.6 1.7-11.8 6.8-36.5.8-81.1-15.6-115.8-14.6-31-32.4-49.9-82.8-87.9-10.6-8-11.6-9.4-15.4-23l-2-7.1 4.8-3.1c12.3-7.9 22.4-22.4 26.7-38.2 3.6-13.3 1.9-38.2-3.8-53.3-4.1-10.9-11.2-18.5-15.9-17-2.8.9-8.5 8.2-11 14-3.8 8.7-8.8 27.9-10.4 39.4-1.9 13.1-2.1 33.9-.5 44.7 1.4 9.3 1.3 9.4-9.1 9.4h-7.4l-7.1-7.3c-14.4-14.6-27.6-37.7-47-82.2-11.1-25.5-17.3-37.8-24.3-48.5-24.6-37.9-64.4-65.9-110.6-77.9-18.4-4.8-24.2-5.6-41.3-5.6-15.7 0-16.3.1-18.5 2.3l-2.3 2.3 3.2 2.7c1.7 1.5 7.6 4.7 13 7.1 26.9 12.1 35 16.9 45.2 26.5 14.6 14 21 27.3 33 69.7 5.9 20.6 8.4 27.5 14.1 39 9.6 19.3 21.9 34.7 41.4 51.9 6 5.3 9.1 8.6 8.2 8.8-.8.2-8.4-.4-16.8-1.2s-20.7-1.8-27.3-2.1c-27.9-1.4-50.2-7.2-74.3-19.4-11.2-5.6-22.8-13.5-48.2-32.7-40.8-30.9-58.3-41.1-87.3-51-41.6-14.2-90.9-11.1-133 8.5-9.5 4.4-11.6 6.3-9.6 8.7 1.1 1.3 2.6 1.5 8.4 1 17.9-1.6 28.8-1.8 38-.7 45.5 5.4 83.7 32.8 101.5 72.9 8.1 18.3 8.5 28.7 1.7 43.4-4.4 9.4-9.8 15.4-20.1 22.3-10.6 7-17.4 10-30 13.1-14.3 3.5-25.4 4-41.6 2-25.8-3.2-40.3-7.8-72.1-22.7-9.4-4.4-19.4-8.9-22.2-10-25.3-10.1-45.1-10.3-64.7-.8-10.6 5.3-23.7 17.8-29.5 28.2-10.6 19.2-17 43.8-20 76.7-2.1 22.7-2 40.3.1 42.1 2.8 2.3 4.7-.3 7.7-10.6 6.1-21.2 15.5-36.4 29-46.6 4.3-3.3 9.3-6.7 11-7.5 9.8-5.1 29.3-9.4 42.9-9.4 7.4 0 23 2.1 35.2 4.8l7.9 1.8-5.9 1.6c-22.3 6.2-38.7 32-41.4 65.3-1 11.8-.2 22.8 3 42.5 3.6 22.2 4.4 35.2 3.1 47.4-1.5 13.5-2.7 18.9-9.8 42.5-9.4 31.5-12.8 48.1-15.2 73.6-4.3 44.3-6.7 61.7-8.2 58-.4-1.1-.8-3.6-.8-5.5-.1-1.9-.6-9.3-1.3-16.3-.9-10.3-1.6-13.5-3.3-16.1-1.9-2.7-2.3-5.2-2.9-16.7-1.1-23.5-5.2-45.2-10.7-56.6-3.7-7.8-11.3-17.1-18-22.1-6-4.4-9.6-10.3-14.5-23.8-6.4-17.6-8.2-29.2-10.9-67.4-2.6-37.6-5.3-51.5-15.1-77.5-15.6-41.4-18.6-78.1-8.8-105.7 6.4-18.1 14.5-31.2 32.6-52.9 32.6-39.3 37.3-45.8 57.3-80.9 20-35 41.5-54.5 82.1-74.6 26.8-13.1 78.1-27.5 120.7-33.8 5.4-.8 10.5-2 11.3-2.7 4.5-3.7-3.2-9.4-17.6-13-6.2-1.6-10.5-2-17.9-1.7l-9.7.3 3.5-2.5c23.6-16.9 55.6-24.5 86.1-20.6 6.3.8 17.1 2.9 24 4.6 26.6 6.6 43.1 6.3 72.4-1 8.8-2.2 19.4-4.4 23.5-5 4.2-.5 9-1.2 10.6-1.4 6.4-.9 30.3.5 41.8 2.5m-54.8 49c25.4 5.3 55 17.6 72.3 30.2 22.8 16.6 38.4 34.1 50.5 56.8 4 7.5 16.3 34.3 22.7 49.4 6.1 14.4 15.8 33.6 22.4 44.3 12.2 19.7 27.5 35.9 48.7 51.9 11.2 8.3 12.9 10 14.4 14.1 1 2.6 6 12.8 11.1 22.7 10.6 20.7 15.4 32.3 19.7 48.5l3.2 11.5-.4 24.5c-.8 54-.8 53.8 1.7 62.8 3.1 11.4 5.8 16.3 22.2 41.2 11.9 17.9 23 37.4 23 40.4 0 .8-3.4-3.3-6-7-.8-1.2-3.3-4.6-5.6-7.5-6.7-8.8-22.1-31.5-27.6-40.8-2.9-4.7-9.6-17.2-14.9-27.6-5.4-10.8-10.4-19.4-11.5-19.9s-3.8-5.2-6.3-11c-2.4-5.6-8.2-17.9-12.9-27.5-6.7-13.8-9.5-18.5-13.6-22.8l-5.2-5.3h-9c-11 0-15.3 1.8-22.7 9.2-5.9 5.9-10.8 14.9-13.4 24.8-2.4 9.1-2.4 33.3.1 45 5.4 25.6 16.5 53.1 30.9 76.5 11.5 18.7 14 23.2 25.5 46.5 9.8 20 19.2 36.6 37.7 67 1.3 2.1-9.2-9.3-15.7-17-2.9-3.6-8.7-10.5-12.7-15.3-15.4-18.3-28.2-27.2-41.2-28.3-8.5-.7-16.8 1.4-63.4 16.7-20.3 6.6-44 14.3-52.5 17.1-34 11-46.3 19-51 32.9-1.6 4.6-1.7 4.7-3.8 3-1.1-.9-5.5-8.4-9.7-16.8-10-19.9-14.2-23.7-20.2-17.7-2.4 2.4-2.5 3-2.1 9.7.8 12.6 8.5 23.4 21 29.7 4.5 2.2 6.7 4.2 9.5 8.2 4.9 7.3 8.1 10.5 13.2 13.6 4.6 2.7 11.8 3.5 17.6 1.9 2.6-.8 2.3-.2-3.1 4.7-9.4 8.5-10.1 14-2.4 17.8 2.9 1.4 4.4 1.5 8.5.7 6.3-1.3 11-.7 20.5 2.6 22.9 7.8 41.5 11.3 53.7 10.1 22.1-2.2 50.5-15.3 55.9-25.8.9-1.7 1.3-4 1-5.3-1.1-4.3-15.1-16.1-24.8-21-4.9-2.5-9.7-4.5-10.6-4.5-.8 0-1.3-.3-.9-.6 1-1.1 18 3.8 24.9 7.1 3.6 1.8 10.1 5.4 14.3 8 9.2 5.8 13.5 7.4 19.8 7.5 9.6 0 18.4-7.8 23.1-20.8 5.1-14.2 3.1-25.1-6.1-33.2-6.8-6-12.6-7.3-28.7-6.7-17.5.7-29.2 3.5-87.6 21.3-15.7 4.8-49.2 13-56.8 13.9-3.5.4-9.8.4-14.2 0-6.9-.6-7.8-.9-7.1-2.3 8.8-18.5 5.1-16.7 90.1-44.5 50.2-16.4 60-19.1 70-19.1 6.7-.1 8.4.3 14.5 3.3 7.5 3.7 17 12.5 27.4 25.6 3 3.8 8.1 9.7 11.1 13.1 13.1 14.4 22.1 28.8 26.4 41.9 4.5 14 5.7 40.7 3 65.6-2.3 21.7-1.2 19.8-13.1 22.5-25 5.6-39.9 17.8-45.7 37.4-3.6 12.1-4.7 35.2-3.6 76.2 1.1 43.7 1.6 49.2 7.2 76.3 2.5 12.4 2 17.6-2.8 33.9-7.4 25-18.7 51.5-28.2 66.2-3.9 6-4.1 6.1-10.3 7.4-19.8 4.1-39 14.8-56 31.2-9.1 8.8-14.8 16.4-20 26.7-6.7 13.1-7.4 23.6-2.2 33.8 1.8 3.6 2.3 5.6 1.6 6.5-15.1 19.8-35 40.1-47 48.1-13 8.6-31.6 16.9-46.3 20.7-21.1 5.3-63.7 8.6-91 7-46.6-2.8-79.4-16.4-109.9-45.5-27.2-25.9-92.5-113.6-113.8-152.7-22.3-41.1-29.7-67.2-43.7-154.3-6.9-43.2-9.6-66.1-11.6-99.5-1.4-22.9-3.3-38.6-7-55.5-4.4-20.6-4.4-19.8-1.5-22.5 2.8-2.6 3.8-5.3 6-16 2.6-12.3 4.3-25.3 6.5-48.5 3.4-36.8 5.9-49.6 17-86 3.3-11 6.8-24.1 7.7-29 2.6-14.2 2.1-33-1.6-57.6-4.1-28-4.6-34.9-3.1-46.5 2.5-19.9 9.7-38 18.7-46.6 11.6-11.1 29-13.6 47.8-6.9 20.8 7.5 28.4 10 35.5 11.5 32.6 6.7 75.3 3.1 107.7-9 13.3-5 22.1-9.2 35.3-16.9 17.5-10.1 30.6-20.1 52-39.5 29-26.2 42-35.5 63.9-45.7 12-5.7 24.2-9.6 37.8-12.4 13.7-2.7 43.2-3.7 58.4-1.9 9.3 1 11.7 1.8 22.9 7 15.4 7.2 27.2 10.9 37.1 11.7s14.5-.1 16.5-3.2c1.5-2.3 1.5-2.7 0-5-2.2-3.3-6.8-6.1-12.9-8-5.7-1.7-29.6-6-41.7-7.5-9.6-1.1-12.9-2.9-28.8-15.8-18-14.6-30.3-30.1-40.2-50.7-6.2-12.9-8.9-20.7-15-42.7-9.2-33-15.8-47.3-29.2-62.8-9.1-10.6-20.5-18.9-37.3-27.2l-14-6.9 10 .6c5.5.3 14.5 1.5 20 2.6m-171 95c21.4 3.5 49.7 14.6 71.3 27.9 4.5 2.8 21.7 15.2 38.2 27.5 31.8 23.7 41.4 30 56.3 37 15.7 7.3 39.9 14.5 48.7 14.5 1.6 0 3 .4 3 1 0 .5-.7 1-1.6 1-3.5 0-23.4 7.4-33.9 12.5-18 8.8-33.8 20.2-56.5 40.5-28.1 25.3-38.5 33.2-58.7 44.7-20.5 11.8-44.9 20.7-68.3 24.9-12.2 2.2-50.7 2.6-62 .6-7.9-1.4-24.1-6-30-8.4l-3.5-1.5 9-.7c35.8-3 72.7-18.2 95.6-39.3 5.7-5.3 5.9-5.7 4.3-7.4-2.3-2.6-3-2.4-7.9 1.9-12.4 10.9-34.6 23-53.4 29.2-17.4 5.7-27.3 7.4-43.6 7.4-12.9 0-15.9-.4-39.2-5.2-28.2-5.9-42-7.3-56.1-6-22.9 2.1-37.4 8.4-52.7 22.9-8.1 7.7-12.9 13.8-17.6 22.2-1.8 3.2-2.8 4.3-2.5 2.7.3-1.4.8-6.3 1.1-11 1.3-18.5 7.2-45.9 12.9-59.9 11.9-29.2 32.9-43.3 62.3-41.8 12.2.7 23.7 4.2 44.3 13.7 25.4 11.7 34.5 15.7 40.6 17.8 34.5 11.9 71.5 12.8 97 2.4 23.2-9.4 41.6-28.3 46.5-47.6 3-12-1-28.5-11.4-46.9-7.7-13.7-16.7-24.9-27.5-34.3-24.4-21.4-51.4-32.5-82.2-34.1l-11.5-.6 5.4-1.8c24-8.2 55.5-10.4 83.6-5.8m415.3 19.1c1.1 1.8 3.1 6.9 4.5 11.3 9.2 29.4 4.3 59.4-12.2 74.8-4.7 4.4-9.6 7.5-10.5 6.6-.2-.2-.9-6.7-1.5-14.4-1.4-16.3.1-33.7 4.4-51.2 3.8-15.7 9.8-30.3 12.5-30.3.4 0 1.7 1.5 2.8 3.2m-74 103c5.1 1.1 9 2.3 8.7 2.6-.8.8-14.6-1.7-21-3.9-6-1.9-6-2-1.5-1.4 2.5.3 8.7 1.5 13.8 2.7m51.2 3.9c.6 2.3 1.6 5.2 2.1 6.6.7 2-.5 1.4-6.7-3.4l-7.5-5.8 4.3-.6c2.4-.3 4.8-.7 5.5-.7.7-.1 1.7 1.7 2.3 3.9m30.5 38.3c36.7 27.7 50.9 42.5 64.7 67.6 17.2 31.3 25.4 76.7 20.3 113-1.2 8.7-10 49.8-13.7 64.5l-1 4-3.3-9.7c-4-11.8-8.9-20.9-20.8-38.8-23.8-35.6-26.2-41.6-26.2-66.5 0-8.3.4-22.7.9-32 1.7-32.7-4.8-59-22.8-92.5-3.9-7.4-7.5-14.3-7.9-15.3-.8-2.3-.4-2 9.8 5.7m-56.5 77.1c0 .3-.8 1.8-1.7 3.2-3 4.5-2.4 16.3 1.1 24.3 9.8 22.4 27.6 38.8 42.6 39.1 5.6.2 6.2.4 7.1 2.7 1.8 4.7 13 26.5 18 35 10.4 17.6 37.2 55.7 44.2 62.7 1.6 1.6 5 5.6 7.5 8.9 4.5 5.8 4.5 5.9 6.9 21.5 2.7 17.7 5.1 23.9 11.3 29.5 4.8 4.3 7.7 4.5 11.3.8 2.1-2.1 2.8-4 2.9-7.5.1-2.5.3-4.5.4-4.4s3.7 4.9 8 10.7c8.3 11.1 20.8 24.3 49.8 53 17.4 17.1 21.6 21.7 46.1 50.5 6.6 7.7 16 18.3 21 23.5s9.9 10.5 11 11.8l1.9 2.3-78.4-.5-78.5-.5-7.8-10.8c-19-26.2-22.6-32.2-40.2-66.3-7.3-14-19.3-35.7-26.8-48.1-7.5-12.5-19.3-34-26.2-48-7-13.9-15.2-29.4-18.3-34.4-23.9-39-34.3-64-38.7-93.4-4.1-27.3 1.4-52.3 13.6-61.3 3.5-2.6 11.9-5.6 11.9-4.3m12.2 1.7c2.8 2.3 6.8 9.6 17.9 33.2 10 21.2 10.7 23.1 8.8 23.4-3.4.6-12.5-4.5-17.8-9.9-4.9-5.1-13.9-20.2-16.1-27.3-1.6-5-.9-14.4 1.4-17.9 2-3 3.4-3.3 5.8-1.5m127.5 151c-.3.8-.6.5-.6-.6-.1-1.1.2-1.7.5-1.3.3.3.4 1.2.1 1.9m-1.3 6.2c-.3 2.1-.8 3.5-1.1 3.2-.2-.2-.1-2 .3-4 .3-2.1.8-3.5 1.1-3.2.2.2.1 2-.3 4m-1.7 7.8c-.3.7-.5.2-.5-1.2s.2-1.9.5-1.3c.2.7.2 1.9 0 2.5m-1 4c-.3.8-.6.5-.6-.6-.1-1.1.2-1.7.5-1.3.3.3.4 1.2.1 1.9m-762.4 2.3c1.6.4 3.4 3.1 6.9 10.3 4.9 10.1 15.3 26.7 18.3 29.2 1.5 1.3 1.9 1.2 3.5-.8 1.8-2.2 1.8-2.1 3 4.6s4 30.9 4 34.7c0 1.1-3.4-4.7-7.5-12.9-9.2-18.1-15-27.1-23-35.3-6.6-6.8-10.4-8.4-14.4-6.2-3.2 1.8-6.8 7-8.1 11.8-2.3 8.2-.3 32.3 4.1 51.4 2.3 9.9 8.5 26.1 17.2 45.2 7.5 16.5 10.2 24.5 12.6 37.2 3.1 16.1 5.5 22.5 10.2 26.8 4.1 3.6 6.7 4.3 8.7 2.3 1.3-1.3-.2-3.8-2.3-3.8-3.3 0-6.7-9.7-9.5-26.7-2.2-13.3-5.2-22.7-11.2-34.6-9.2-18.5-17.4-41.8-20.4-58.2-2.4-13.6-3-36-1.1-40.8 2.6-6.2 5.8-5.1 13 4.7 9.2 12.3 17.7 27.8 28.4 51.5 2.8 6.4 2.7 7.5-2.8 20.4-6.2 14.5-8.2 21.8-7.7 29.1.4 6.7 1.1 8.3 13 30.6 10 18.7 13 28.6 17.4 57.9 2.4 16.1 1.4 32-2.3 35.6-.9.9-3.4 1.5-6.7 1.5-11.5 0-22.6-11.8-28-29.9-.8-2.9-2-11.2-2.6-18.4-3.9-50-5.3-56.6-21.5-100.2-10.5-28.4-12.8-36.7-15.1-55-2.8-22.4-.3-45.2 6.1-56.2 1.4-2.3 2.7-4.3 2.8-4.3s2-.7 4.2-1.4c3.8-1.4 5.2-1.4 10.8-.1m22.2 17c3.2 5 7.9 16.4 7.1 17.2-.4.5-9.1-13.3-14.5-23.2l-3.3-6 3.7 3.5c2.1 1.9 5.2 5.7 7 8.5m747.6 24.2c1.4 3.9 1.1 8.3-.6 8.3-3 0-6.5-7.7-8-18l-.7-4.5 4.2 5.9c2.3 3.3 4.6 7 5.1 8.3M1561.5 716c6.7 13.4 8.6 18.1 6.7 17.1-5.6-3.1-11.1-12.9-11.2-19.9 0-2.3.2-4.2.5-4.2s2.1 3.2 4 7m215 0c6.8 3.4 8 6 8 17-.1 8.7-.4 10-3.3 15.8-4.4 8.4-7.7 10.5-15.9 9.9-5.5-.4-7.5-1.2-18.4-7.7-19.7-11.9-35.3-15.9-61.4-16.1-12.7 0-12.9-.1-9-1.5 15.2-5.7 61.2-18 72-19.4 10.3-1.3 23.1-.4 28 2m-103.9 28.3c-4.9 3.1-8.7 7.2-9.7 10.7-3.7 12.2 12.4 22.9 22.5 14.9 5.6-4.4 7-11 3.6-16.7l-2-3.2h4.8c6.6 0 9.4 1.8 11.2 6.8 1.2 3.4 1.2 5.1.2 9.9-1.6 7.8-5.1 12.7-11.5 16-4.7 2.5-6.2 2.8-15.2 2.8-11.7-.1-17.6-2.1-21.8-7.7-4.6-5.9-5.8-10.4-6-20.9l-.2-9.7 7-1.6c10.7-2.4 10.7-2.4 15-2.4 3.5-.1 3.8.1 2.1 1.1m-43.6 2.4c-.8.3-4.1 2.4-7.3 4.5-11.3 7.6-18 9.4-25 6.4-2.9-1.1-10.3-8.3-9.5-9.1.2-.2 3.9.1 8.3.5 7.7.8 20.1-.1 27.5-1.9 4-1 8.4-1.3 6-.4m52.5 7.3c3.1 6 1.3 11-4 11-4.3 0-7.5-2.9-7.5-6.8 0-6.8 8.5-10 11.5-4.2M1172 767.6c1.1 7.6 2.5 15.5 3 17.4s2.3 10.2 4 18.5c1.7 8.2 3.3 16.1 3.7 17.5.5 2.6-7.2-11.5-15.3-27.6-5.9-11.8-6.2-18.2-1.3-31.6 1.7-4.9 3.3-8.7 3.5-8.5s1.3 6.6 2.4 14.3m546.8-10.6c8.8 4.6 18.2 12.3 18.2 15 0 5.7-24.3 17.3-43.2 20.6-5 .8-9.2 1.3-9.6 1-.3-.3.4-.6 1.5-.6 3.9 0 14.1-6 17.7-10.5 6.6-8 9.8-18.6 7.8-25.8-.6-2.1-.8-3.7-.5-3.7s3.9 1.8 8.1 4m-77.8 4.9c0 9.9 6.1 20.7 14.9 26.2 2.5 1.6 3.8 2.9 2.9 2.9s-8.5-2.3-16.9-5c-16.3-5.3-20-5.9-29.2-4.7l-5.7.8 1-2.3c1.7-3.7 28.6-22.7 32.3-22.8.4 0 .7 2.2.7 4.9m205.5 13.6c10.1 18.6 18.2 31.1 30.5 47.6l8.9 11.8-4.7.6c-13.3 1.7-31.4 4.7-36.6 6.1-3.2.8-6 1.3-6.3 1.1-.2-.3.4-5.6 1.4-11.8 3.2-20.6 2-59.2-2.3-70.4-1.5-4.1.6-.6 9.1 15m168.8 66.3 14.9.4-11.4 5.5c-30.3 14.7-54.9 23.7-116.3 42.3-52.7 16-67 22-79 33.2-13.1 12.2-15 18.9-18.1 62.7-1.4 20.4-1.5 27.2-.5 50.1 1.9 41.5 2.2 42.9 27.1 109 8.3 22.1 15 42.8 15 46.4 0 2.2-6.9 6.6-10.3 6.6-2.5 0-2.8-.3-2.4-2.3.3-1.2.9-4.9 1.2-8.2.8-7.5-2.1-19.3-6.5-27-3.8-6.7-12.9-15.1-17.9-16.6l-3.8-1.1-2.7-13.2c-4.1-19.8-14.2-58.7-17-65.6-2-5.2-2.4-7.3-1.9-13.3.4-5.5-.2-10.7-2.5-22.2-4.4-21.5-5.2-33.7-5.4-81-.2-38.8-.1-42.9 1.8-53 3.6-18.9 8.6-26.1 22.9-33 6.9-3.4 21.5-7.5 26.5-7.5 1.4 0 4.8-.9 7.6-1.9 9.5-3.6 38.9-8.5 58.4-9.8 5.2-.3 9.7-.7 9.9-1 .6-.4 90.4-.1 110.4.5m-58.8 115c-2.1 7-6.6 16.6-10.9 23.2-1.9 3-3.6 5.2-3.6 4.8-.1-2.3 14.9-34.2 15.7-33.4.2.1-.4 2.6-1.2 5.4m-73.5 39.5c3.1 4 2 3.3-2.5-1.5-2.2-2.2-3-3.4-1.8-2.6s3.2 2.6 4.3 4.1m141 .9c0 2-7.6 8.2-14.9 12.1-3.9 2.1-7.1 3.5-7.1 3 0-1.5 9.3-10 14.5-13.2 5.3-3.3 7.5-3.8 7.5-1.9m-237.2 90.3c4.3 15.9 12.6 53.4 12.1 54-.6.5-46.9 1.1-46.7.5.2-.3 2.9-5 6-10.5 7.4-12.9 14.6-29.8 19.8-46.4 2.3-7.3 4.3-13.1 4.5-12.9.1.2 2.1 7 4.3 15.3m90-8.8c-1.5.2-4.2.2-6 0s-.6-.4 2.7-.4 4.8.2 3.3.4m-56.1 81.8c5.5 7.9 8.3 20.4 6.9 30l-.8 4.7-2.5-2.3c-4.4-4.1-9.5-17.4-13.7-35.7l-1.4-6.3 4.1 2.4c2.3 1.3 5.7 4.6 7.4 7.2m-87.3-4.8c-2.8 4.4-15 18.9-25.9 30.8-11.8 12.9-26.4 29.6-35.2 40.4-3.5 4.2-6.6 7.7-7.1 7.9-1.2.4-3.2-6.8-3.2-11.5 0-10.3 8-26.8 18.2-37.8 12.7-13.6 29-24.2 45.6-29.6 4.8-1.6 8.9-2.8 9.1-2.9.2 0-.5 1.2-1.5 2.7M2161 1323c0 1.9-8.4 10.2-14.4 14.2-11.4 7.8-23.4 11.9-34.5 11.8l-4.6-.1 4.5-1.8c2.5-.9 10.6-5.3 18-9.7 11.8-7.1 28.1-15.3 30.3-15.4.4 0 .7.5.7 1"/><path d="M1303 671.4c-25.1 7.3-50.8 23.5-60.2 38-3.7 5.8-5.2 12.6-2.9 14 .5.3 1.9 2.5 3.1 4.8 5.3 10.3 21.2 28.7 29.4 34 4.7 3 6.9 3.8 10.6 3.8 4.1 0 5.5-.7 12.6-6 8.5-6.5 20.6-12.8 29.3-15.4 6.8-2 8.5-2 4.6.1-4.8 2.5-12.6 7.4-18.5 11.7-7.4 5.4-21.2 12.6-27.4 14.2-2.8.8-10.7 1.8-17.6 2.4-16.8 1.4-18.4 1.8-26.5 5.5-13.2 6-22.8 19.9-26.1 37.6-3.8 19.8 1.2 49.8 13.1 79.1 7.3 17.8 13.1 28.6 28.5 52.8 27 42.5 31.9 56.3 37 103 6.3 58.4 8.2 66.3 18.3 76.8 8.1 8.4 15.5 10.4 25.7 7.3 8.3-2.6 13.1-5.8 25-16.6 13.5-12.3 15.9-13.8 22.1-13.6 2.8 0 7.3.7 10.2 1.6 2.8.8 6.3 1.5 7.9 1.5 3 0 3.5.9 1.6 2.9-1.1 1 .1 2.6 5.8 8.1 13.7 13 39.6 28 55.2 31.8 4.9 1.2 7.2 2.3 7.8 3.7 2.2 5 15.4 8.2 38.8 9.5 21.1 1.1 27.1 2.3 30.8 6 3 3 3.8 8.3 1.8 11.9-1.6 3.1-10.2 6-21.2 7.1-34.3 3.6-49.5 6.6-62.4 12.5-18.5 8.4-32.4 22.6-37.3 37.9-4.2 13-3.6 23 2 34.5 3.9 7.8 14.6 19.3 22.4 24 18.6 11.2 45.4 14.4 83.2 10 9.8-1.1 20.2-1.9 23-1.6 4.3.3 5.6 0 7-1.6 1.7-1.8 1.7-2-.7-3.9s-3.4-2-17-1.4c-8 .4-16.7 1.1-19.5 1.6-2.7.5-12.3.9-21.2.9-25.9.1-42.4-3.8-55.9-13.5-17.9-12.7-23.1-33.4-13.6-53.4 3.3-6.9 14.7-18.5 22.5-22.9 7.7-4.3 24-9.6 35.2-11.5 5-.9 16.1-2.2 24.8-3.1 8.6-.8 17-1.8 18.5-2.1 8.1-2 17.4-9.3 18.8-14.9 1.2-4.7-.6-9.5-5.2-14.5-5.8-6.2-10.8-7.9-24.7-8.7-11.9-.7-12.7-2.2-1.2-2.3 12-.1 25.7-1.9 34.2-4.6 14.3-4.5 32.3-16.3 45.6-29.8 6.4-6.6 6.7-7 5.1-8.7-2.3-2.6-2.8-2.5-7.7 2-20.9 19.2-36 28-53.7 31.2-5.2 1-16.6 1.4-37.5 1.4-29.5 0-30.2-.1-39.8-2.7-11.1-3.1-26.7-10.4-37.5-17.6-8-5.3-21.5-16.2-20.9-16.8.2-.2 10.7-.6 23.3-.8s29.9-.7 38.4-1.1l15.5-.7 9.2 3.6c11 4.3 20 4.8 26.9 1.7 9.7-4.4 22.6-5.2 41.6-2.5 17.1 2.4 42.1.8 57.5-3.8 8.9-2.6 10.4-4 7.5-7.1-1.6-1.7-1.8-2.6-1-4.1 1-1.8.6-12.8-.7-17.6-1.5-5.8 1.5 1.1 5.5 12.5 4.2 12 7.8 19.2 10.6 21.6 1.2 1 1.9.8 3.7-1 1.9-1.9 2.2-3.3 2.2-10.1v-7.9l3 9.5c3.5 10.6 5.5 13.5 7.9 11.4 1.3-1 1.6-1 1.6.2 0 3.3 3.2 12 5.4 14.5l2.4 2.8 2.6-2.4c3.2-3 3.4-8.4 1-22.3-3.8-22.3-12.4-36.9-29.9-50.8-6.6-5.2-8.2-6.2-26-15.7-20-10.8-32.1-18.3-41.5-26-7.2-5.9-9.2-8.1-10.1-11.4-.8-2.6-.9-4.3-.2-5 .5-.5 4.6-1.8 9.1-2.9 14.8-3.5 24.9-10.5 29.9-20.8 2.6-5.3 2.8-6.6 2.7-17.2 0-10.4-.3-12.3-3.2-19.7-3.1-8.3-7.2-15.5-9.3-16.8-.6-.4-2 .2-3.1 1.3l-2.1 2 3.7 7.7c4.9 10.1 6.7 17.4 6.7 26.9.1 10.4-3.7 18.7-10.4 22.8-7.4 4.7-16.5 7.2-12.9 3.6.7-.7 1.2-2.8 1.2-4.8 0-8.6-10.1-11.1-21.7-5.4-3.8 1.8-9 5.9-14.8 11.6-9.4 9.3-14.1 12.2-21.4 13.2l-4.3.7 2.6-3.1c3-3.7 5.2-10.8 3.9-12.9-1.3-2-2.7-2.6-10.8-4.5-15.9-3.8-26.1-11-31.9-22.7-7.3-14.5-7.3-26-.1-48.9 8.9-28.3 11.2-48.1 10.2-88.5-.6-25.1-1.5-33.9-4.8-46.7-2.7-10.9-5-15.6-10.1-21.1-3.9-4.2-4.6-5.5-5.1-10.3-1.3-12.4-9.9-24-23.4-31.1-11.3-6-25.1-10.5-56.7-18.4-25.7-6.4-39.9-10.9-50-16-9.3-4.7-25.7-6.3-35.6-3.5m24.6 8c4.4 1.3 12.4 4.2 17.9 6.5 10.6 4.5 23.7 8.4 50.5 15.1 33 8.3 51.2 15.5 57.4 22.7 3.2 3.7 6.3 9.9 7.1 14.5l.7 3.6-7.9-2.4c-12.6-3.9-27.7-6.4-44.3-7.3-15-.8-15.9-1-28.5-5.5-24.9-9-44.2-14.7-56.8-16.7-14.2-2.2-34.4-.1-63.4 6.6-6.7 1.6-12.6 2.6-13 2.2-1-1 2-6.9 5.8-11.2 8.3-9.4 28.5-21.1 46.4-26.9 13.4-4.3 17.5-4.4 28.1-1.2m10.4 41.4c6.3 1.7 16.7 4.7 23 6.8l11.5 3.8-15 .7c-16.9.8-27.6 2.7-38.5 7-9.1 3.5-20.6 10.4-27.8 16.4-10.3 8.7-15.8 6.1-32.9-15.5-3.2-4.1-6.6-8.7-7.6-10.2-1.6-2.5-1.6-2.7.1-3.2 3.9-1.1 30.2-6.5 37.2-7.6 4.1-.7 8.2-1.3 9-1.5s7.8-.2 15.5 0c11.6.2 16 .8 25.5 3.3m99.3 22.3c10.3 2.3 21.5 5.5 23.6 6.8 1.2.8 1.3 2.2.3 8.8-.6 4.3-1.9 10.2-2.7 13.2l-1.7 5.4-2.6-3.4c-3.7-4.9-13.2-13.8-15.6-14.5-1.2-.4-6.1-3.6-11-7-4.8-3.5-9.3-6.4-9.9-6.4s-.8-.2-.5-.5c.6-.6 20.1 9 24.1 11.9 2.5 1.8 2.9 1.9 4.3.4 1.5-1.4 1.3-1.9-2.1-5.6-2.1-2.4-6.6-5.6-10.8-7.6-8.5-4.1-7.8-4.3 4.6-1.5m-75.3 2.8c-1.4 2.8-1.2 8.7.4 11.9 2.7 5.2 9.4 10.2 13.7 10.2 4 0 10.7-4 13.9-8.3 3.4-4.6 3.8-8.5 1.3-12.3l-1.6-2.6 3.9.7c5.7 1 7.4 3.5 7.4 10.9 0 9.9-5.1 17.7-14.1 21.5-14.8 6.4-29.8 1.8-36.3-11.1-2.8-5.8-4.9-18.7-3-18.9.5 0 4.1-.9 7.9-1.9 3.9-1 7.1-1.9 7.3-1.9.1-.1-.2.8-.8 1.8m18.8 1.1c3.7 1.7 4.2 2.3 4.2 5.3 0 4.3-2.6 6.7-7.8 7.4-5.3.7-8.2-2-8.2-7.6 0-2.2.3-4.6.6-5.5.8-2.2 5.9-2 11.2.4m-41.3 9.7c1.3 9.6 8.2 21.1 15.1 25.4 1.9 1.2 3.3 2.3 3.1 2.6-.3.2-3.8-.3-7.8-1.2-8.3-1.8-27.5-10.8-32.9-15.4-3.3-2.8-3.4-3-1.8-4.7 1.8-1.8 20.4-11.2 22.4-11.3.7-.1 1.5 2 1.9 4.6m76.8-1.1c2.8 1.5 8.6 4.8 12.7 7.3 4.1 2.6 9 5.3 10.8 6 2.8 1.2 9.2 7.7 9.2 9.4 0 .3-4.6.3-10.2 0-8.5-.5-12.9-.1-25.3 2.1-8.2 1.5-16.6 2.9-18.5 3.2l-3.4.6 5.8-4.8c6.6-5.5 9.8-11.1 11.6-20.2.7-3.4 1.4-6.2 1.7-6.2.2 0 2.7 1.2 5.6 2.6m57 7.7c6 15 8.2 37.6 7.4 75.2-.4 14.8-1.3 30.1-2.1 35.6-1.5 9.6-2.3 12.6-9.1 35.9-4.5 15.5-5.4 25.9-3.1 35 2.8 11.1 6.8 18 15.1 25.8 8.2 7.8 15.4 12 25.8 14.7 3.7 1 6.7 2.2 6.7 2.6s-.5 2-1.2 3.4c-1 2.2-1.7 2.5-6.1 2.5-7.1 0-15.5-4.9-23.3-13.7-7.1-7.9-14.6-12.2-22.8-13-4.9-.5-5.7-.3-8 2-3.2 3.2-3.4 7.4-.5 11.1l2.1 2.7-6.7-2.6c-8.8-3.3-11.9-5.6-14.5-10.9-7.3-15.1-3.9-33.6 8.6-46.7l5.8-6-2.1-2c-2-2-2.1-2-4.8-.3-3.6 2.4-11.1 11.7-14.1 17.6-12.8 25.2-.9 52.2 25.4 57.7 8 1.7 11 1.4 13.6-1.2l2.4-2.4 6.8 4.4c18.2 11.6 29.9 15.8 42.4 15.1 10.2-.6 14.4-2.8 26.2-13.8 9.8-9.1 17.7-14 23.1-14 1.5 0 2.7.5 2.7 1.2 0 .6-2.7 3.6-6 6.7-5.9 5.6-6 5.7-6 11.1 0 3 .7 6.8 1.5 8.4 1.5 2.9 1.5 2.9-.3 1.3-2.4-2.2-3.8-2.1-5.5.4-1.9 2.7-.5 8 5.6 20.9 4.5 9.7 11.1 27 10.4 27.7-.4.3-8-17.3-15.8-36.1-1.7-4.3-4.6-9.4-6.2-11.3l-3-3.4-2.1 2c-3 3-2.4 9.3 2.3 26.5 2.3 8.2 3.9 15.1 3.7 15.3-.2.3-2.7-6.7-5.5-15.4-5.1-15.9-7.9-21.9-10.6-22.9-2.5-1-4.4 1.5-5.1 6.8l-.7 4.9-2.8-2.7c-2.4-2.3-3.1-2.5-4.4-1.4-.9.7-1.5 2.9-1.5 5.5 0 3.7-.2 4.1-2.2 4-1.6-.1-2.4-.9-2.6-2.6-.4-2.8-2.9-5.9-4.8-5.9-.7 0-1.9.9-2.7 2-1.4 2-1.5 1.9-2-1.6-.3-2-1.1-4.2-1.8-5-1-1.3-1.6-1.1-4.1 1.3l-2.9 2.8 2-4.7c1.9-4.5 1.9-4.7.1-6.3-2.7-2.4-6.2-1.3-11.6 3.7l-4.6 4.2 1.8-3.8c1.6-3.3 1.7-4 .4-6.3-2.1-3.6-3.1-3.7-7.3-.9-3.4 2.3-3.7 2.4-3.7.7 0-1-.7-2.4-1.5-3.1-2.5-2.1-11.1 2.2-30.9 15.4-19 12.7-24.9 15.6-50.2 24.6-7.5 2.7-16.2 6.4-19.2 8.2-6.2 3.8-17.7 15.6-21.7 22.3-8.4 14.4-13.7 40.7-9.1 45.3 1.3 1.4 1.9 1.2 4.8-1.1 3.4-2.6 5.4-6.6 10.9-22 3.6-10.1 4.8-11.2 1.9-1.8-1.1 3.4-2 8.2-2 10.6 0 7.4 5 8.7 7.4 1.9.6-1.6 2.2-4.9 3.6-7.3l2.5-4.3.6 2.9c.4 1.5.8 3.3 1 3.8.4 1.1-15.3 15.8-23.1 21.6-9.9 7.3-21.6 8.7-28.5 3.5-8.4-6.4-11.3-17.8-16.5-63.5-4.3-38-6.2-48.9-11-63.2-5.1-15.4-10.5-25.3-34.6-63.9-24.2-38.9-36.6-76.9-35.1-107.9 1-20.6 7.8-34.5 19.9-40.7 6.1-3.1 11-4.1 28-5.9 12.3-1.3 19.9-3.1 28.8-6.9 1.3-.5 1.5.7 1.5 7.6 0 7.3.4 9.2 3.4 15.6 6 12.8 19.8 23.5 35.9 27.8 8.2 2.2 26.2 2.9 36.3 1.5 19.9-2.9 46-14.6 68.6-30.8 5.6-4 11.1-7.3 12.3-7.3 5.4 0 11-10.6 13.2-24.6.6-4 1.5-7.1 1.9-6.9.4.3 1.8 3.3 3.2 6.8m-157.2 12.3c16.5 12.5 32.8 17.8 55.4 17.8 12.9 0 19.2-.8 43.8-5.6 12.6-2.4 17.2-2.9 22.3-2.3l6.4.7-5.3 3.5c-15.2 10.2-35.2 20.3-49.2 24.6-30.7 9.6-65.3 3.5-76.7-13.4-5.7-8.5-8-19-6.6-30.6.2-2.1.3-2.1 2.4-.5 1.2.9 4.6 3.6 7.5 5.8m153.1 201.6c4.5 1.9 8.6 5.3 7.6 6.3-.3.3-2 0-3.8-.6-2.5-.9-3.7-.9-5.3 0-1.6 1.1-2.3.9-4.6-1-3.9-3.4-6.1-6-6.1-7.1 0-1.4 6.3-.1 12.2 2.4m-9.7 42.6c-3.3 3.1-5 4.6-4 3.2 3.6-4.6 8.9-10 9.4-9.4.3.2-2.2 3-5.4 6.2m112.1-.7c3.1 3.4 24.1 17.1 35.2 22.9 7.7 4 9.9 5.6 8.8 6.2-3.8 2.1-3.8 4.4-.1 17.5 1.9 6.9 3.3 12.9 3 13.1-.2.3-4.3-7.3-8.9-16.8-7.7-15.6-13.3-24-16-24-2.1 0-4.6 3.5-4.6 6.5 0 1.7 1.6 7.8 3.5 13.5s3.5 10.9 3.5 11.4c0 .6-3.8-6.3-8.4-15.4-4.5-9.1-10.8-21.1-13.8-26.8-5.4-9.9-6.1-12.4-2.2-8.1m-124.3 3.6c-1.7 2.1-4.7 6.3-6.8 9.3s-3.5 4.8-3.3 4c.3-.8-.4-2.5-1.5-3.8-2.1-2.2-2.1-2.3-.1-3.6 1-.8 4.6-3.4 7.9-5.8 3.3-2.5 6.2-4.4 6.4-4.2s-1 2-2.6 4.1m25.8 3.5c-2.7 4-7.1 11.3-9.8 16.3-5 9.1-12.3 20.6-12.3 19.2 0-2.6 12.5-23.7 21.6-36.4 6.2-8.6 6.5-7.9.5.9m-5.1-5.8c0 .2-.8 1-1.7 1.7-1.6 1.3-1.7 1.2-.4-.4s2.1-2.1 2.1-1.3m-9.3 13.3c-8.8 13.7-13.1 21.6-16.1 30.1-3.3 9.4-3.4 12.7-.1 14.8 2.5 1.6 2.7 1.6 5.6-1.2 4.4-4.1 17.4-23.1 21.9-32 4.3-8.4 10.9-19.4 11.6-19.4.2 0-.9 2.6-2.5 5.9-6.1 11.9-14.1 32-14.1 35.2 0 1.8.7 4.1 1.6 5 1.6 1.7 1.5 1.9-.7 2.8-1.3.5-5.8 2.2-9.9 3.9-12.4 5-32.7 11-46 13.7-11.5 2.4-29.1 4.7-29.8 4-.2-.2 2-4.9 4.9-10.6 5.6-11.2 11.3-20.2 14.9-23.4 1.9-1.7 1.6-.7-1.5 5.5-7 13.9-9.1 22.5-6 25 3.7 3.1 10.6-4 22.7-23.3 8.5-13.6 14.7-22.7 15.4-22.7.2 0-.9 2.7-2.5 5.9-5.1 10-10.1 22.8-10.1 25.8 0 3.9 2.7 7.5 5.3 7.1 2.3-.3 5.2-4.9 19.7-30.8 7.2-12.7 19.8-31 21.5-31 .3 0-2.4 4.4-5.8 9.7m23.9 11.7c-5.3 13.3-8.3 19.3-9.2 18.3-.3-.3.7-3.3 2.1-6.8 4.2-9.9 11.8-26 12.2-25.6.2.2-2.1 6.5-5.1 14.1m-60.3-7.3c-1.2 1.3-2.6 1.8-3.3 1.4-.9-.5-.4-1.2 1.6-2.1 4-1.7 4.1-1.7 1.7.7m163.1 27.4c11.4 23.5 16.2 29.5 20.4 25.3 2.2-2.2.9-12.2-3.4-25.4-.3-1 2.3 3.5 5.8 10.1s7.8 14.2 9.5 16.8l3.2 4.7h-5.7c-9.5 0-22.6-4.2-41.3-13.3-18.2-8.9-26.2-11.3-33.3-10.3-2.3.4-8.4 2.7-13.6 5.1-12.4 5.9-14.8 5.8-26.1-.2l-8.8-4.7 2.1-2.3 2.2-2.3 2.7 3.2 2.7 3.3 3.1-2.9c2.1-2 3.8-5.3 5.3-10 2.7-8.8 3.8-10.2 3.8-5.1 0 4.7 2.8 11.2 6 14l2.2 2 1.9-2.3c1-1.3 2.2-4.7 2.5-7.5l.7-5.1 1.3 4.3c1.3 4.6 3.9 8.1 6 8.1.8 0 2.1-1.1 3-2.6 1.4-2.1 1.6-4.2 1.1-12.7l-.5-10.2 2.8 8.1c3.4 10 4.3 11.6 8.7 16.5l3.6 4 2.3-2.2c2.9-2.7 3.1-7.4.9-18-.9-4-1.4-7.3-1.2-7.5.1-.2 2.9 5 6.1 11.5 6 12.5 11.6 20.1 14.5 20.1 1 0 2.5-.8 3.3-1.8 2.7-3 .9-11.3-8.7-38.7-1.6-4.5 6.3 10.2 14.9 28m-185.5-13.3c-4.5 5.1-8.5 9.5-8.7 9.8-.3.3.4-1.1 1.6-3.1 2.5-4.1 2.8-6.9 1-8.7-.6-.6-1-1.3-.7-1.5.3-.3 13.6-5.4 14.7-5.6.2-.1-3.4 4.1-7.9 9.1m90.1-3.8c-2.8 7.5-5.1 19.1-4.1 21.2.9 2.1.7 2.1-4.4 2l-5.3-.1 3.1-3.5c3-3.4 7.3-12 9.7-19.3.6-2.1 1.4-3.6 1.6-3.4.3.2 0 1.6-.6 3.1m-70.9 1.8c-1.1 1.8-5.4 8.6-9.3 15-4 6.4-7.4 11.5-7.6 11.3-.8-.7 8.1-16.3 12.8-22.8 5.2-6.9 7.8-9.1 4.1-3.5m218.7 9.6 2.3 1.5-2.3 1.1c-3.3 1.6-3.3 5.1-.4 16 3.4 12.2 3.2 13-.5 2.9-1.7-4.5-5.6-13.3-8.7-19.6l-5.7-11.4 6.5 4c3.6 2.2 7.5 4.7 8.8 5.5m-258.6-.3c-5.1 7.8-5.7 8.3-6.5 6.3-.4-1.3-1.7-3.3-2.9-4.5l-2-2.1 8.4-4.1c4.5-2.2 8.4-4.1 8.5-4.1s-2.4 3.8-5.5 8.5m274.9 16.6c.5 1.1.4 2-.4 2.7-.9.7-2-.7-4.4-5.6l-3.1-6.7 3.5 4c1.9 2.2 3.9 4.7 4.4 5.6m-155.6 9.5c14.2 7 16.7 7.1 29.4.9 5.1-2.5 11-4.8 13.1-5.1 6.1-1 13.3 1.3 30.6 9.6 8.8 4.3 18.1 8.4 20.5 9.1l4.4 1.4-3 .6c-5.7 1.2-20.4.9-31.7-.7-15.5-2.2-28.9-1.5-39.1 2-10.5 3.5-15.5 3.4-27.4-1l-9.8-3.5-13 .5c-27.9 1.2-62.1 1.5-58 .5 11.4-2.7 30.5-8.7 42-13.2 24.2-9.3 25.5-9.3 42-1.1"/></svg>